<?xml version="1.0" encoding="utf-8"?>
<!-- Generator: Adobe Illustrator 21.1.0, SVG Export Plug-In . SVG Version: 6.00 Build 0)  -->
<svg version="1.1" id="Capa_1" xmlns="http://www.w3.org/2000/svg" xmlns:xlink="http://www.w3.org/1999/xlink" x="0px" y="0px"
	 viewBox="0 0 227.4 133.1" style="enable-background:new 0 0 227.4 133.1;" xml:space="preserve">
<style type="text/css">
	.st0{fill:#72B358;}
	.st1{fill:#9CC683;}
	.st2{fill:#231F20;}
	.st3{fill:#89BC6D;}
	.st4{fill:none;stroke:#231F20;stroke-width:3.803;stroke-miterlimit:10;}
	.st5{fill:#AECF98;}
	.st6{fill:#FFFFFF;}
	.st7{fill:none;stroke:#231F20;stroke-width:2.608;stroke-miterlimit:10;}
	.st8{fill:#181716;}
</style>
<polygon class="st0" points="88.4,105.2 23.1,105.2 55.7,6.2 "/>
<polygon class="st1" points="93.9,105.2 58.4,105.2 76.1,51.4 "/>
<rect x="198.1" y="93.5" class="st2" width="6" height="11.6"/>
<polygon class="st3" points="226.7,99.5 175.6,99.5 201.1,78 "/>
<polygon class="st3" points="225.4,78 176.8,78 201.1,57.5 "/>
<polygon class="st3" points="224.2,57.5 178,57.5 201.1,38 "/>
<g>
	<path class="st4" d="M152.4,84.6v-69c0-7.7-6.2-13.9-13.9-13.9c-7.7,0-13.9,6.2-13.9,13.9v69c-7,4.5-11.6,12.4-11.6,21.4
		c0,14.1,11.4,25.5,25.5,25.5c14.1,0,25.5-11.4,25.5-25.5C164,97,159.4,89.1,152.4,84.6z"/>
	<path class="st5" d="M119.8,105.9c0,10.3,8.4,18.7,18.7,18.7c10.3,0,18.7-8.4,18.7-18.7c0-6.4-3.2-12.2-8.5-15.7l-3.1-2v-3.7v-69
		c0-3.9-3.2-7.2-7.2-7.2c-3.9,0-7.2,3.2-7.2,7.2v69v3.7l-3.1,2C123,93.7,119.8,99.6,119.8,105.9"/>
	<path class="st6" d="M148.7,90.2l-3.1-2v-3.7V51.8h-14.3v32.7v3.7l-3.1,2c-5.3,3.5-8.5,9.4-8.5,15.7c0,10.3,8.4,18.7,18.7,18.7
		c10.3,0,18.7-8.4,18.7-18.7C157.3,99.6,154.1,93.7,148.7,90.2"/>
	<line class="st7" x1="103.4" y1="4" x2="103.4" y2="17.4"/>
	<line class="st7" x1="96.6" y1="10.7" x2="110.1" y2="10.7"/>
	<line class="st7" x1="96.6" y1="79" x2="110.1" y2="79"/>
	<line class="st7" x1="152.4" y1="14.1" x2="167.2" y2="14.1"/>
	<line class="st7" x1="152.4" y1="46.2" x2="167.2" y2="46.2"/>
	<line class="st7" x1="152.4" y1="79" x2="167.2" y2="79"/>
	<line class="st7" x1="152.4" y1="70.8" x2="161.4" y2="70.8"/>
	<line class="st7" x1="152.4" y1="62.6" x2="161.4" y2="62.6"/>
	<line class="st7" x1="152.4" y1="54.4" x2="161.4" y2="54.4"/>
	<line class="st7" x1="152.4" y1="38.3" x2="161.4" y2="38.3"/>
	<line class="st7" x1="152.4" y1="30.1" x2="161.4" y2="30.1"/>
	<line class="st7" x1="152.4" y1="21.9" x2="161.4" y2="21.9"/>
	<path class="st8" d="M76.2,114.7c-4.7,0-8.6-3.9-8.6-8.6c0-4.7,3.9-8.6,8.6-8.6s8.6,3.9,8.6,8.6C84.8,110.8,81,114.7,76.2,114.7
		 M76.2,99.4c-3.7,0-6.7,3-6.7,6.7c0,3.7,3,6.7,6.7,6.7c3.7,0,6.7-3,6.7-6.7C82.9,102.4,79.9,99.4,76.2,99.4"/>
	<path class="st5" d="M57.7,102.2l4.5-8.7c0.1-0.3,0-0.9-0.1-1.2c-0.1-0.3-0.7-0.6-1-0.7c0,0-7.3-3.9-9.6-3c-1,0.4-2.4,3.6-2.4,3.6
		l9.9,1.7l-3.2,7.4L57.7,102.2z"/>
	<path class="st8" d="M43.8,114.7c-4.7,0-8.6-3.9-8.6-8.6c0-4.7,3.9-8.6,8.6-8.6c4.7,0,8.6,3.9,8.6,8.6
		C52.4,110.8,48.5,114.7,43.8,114.7 M43.8,99.4c-3.7,0-6.7,3-6.7,6.7c0,3.7,3,6.7,6.7,6.7c3.7,0,6.7-3,6.7-6.7
		C50.5,102.4,47.5,99.4,43.8,99.4"/>
	<path class="st8" d="M60.3,111.5c-0.3,0-0.6-0.2-0.7-0.6c-0.1-0.4,0.2-0.8,0.6-0.8l2.4-0.5c0.4-0.1,0.8,0.2,0.8,0.6
		c0.1,0.4-0.2,0.8-0.6,0.8l-2.4,0.5C60.4,111.5,60.3,111.5,60.3,111.5"/>
	<path class="st8" d="M47.1,92.9c-0.1,0.5,0.2,0.9,0.7,0.9h1c0.5,0,1.1-0.1,1.2-0.2c0.1-0.1,0.7-0.2,1.2-0.2h1.9c0.5,0,1-0.3,1-0.7
		s-0.4-0.7-1-0.7h-4.7C47.8,91.9,47.3,92.3,47.1,92.9L47.1,92.9z"/>
	<path class="st6" d="M76.2,104.2c-0.2,0-0.4,0-0.6,0.1l-2.7-3.2l-4.3-11.3c0-0.1,0-0.2-0.1-0.3c0,0-0.3-0.6,0-1
		c0.4-0.8,0.7-1.9,0.2-2.7c-0.2-0.3-0.6-0.8-1.6-0.8c-1.5,0-4.5,1.2-4.9,1.3c-0.4,0.1-0.5,0.6-0.4,0.9c0.1,0.4,0.6,0.5,0.9,0.4
		c0.8-0.3,3.3-1.2,4.3-1.2c0.3,0,0.4,0.1,0.4,0.1c0.1,0.2,0.1,0.8-0.2,1.3c-0.4,0.7-0.3,1.6-0.2,2.1c0,0.1,0,0.1,0,0.2l0.9,2.5
		c0,0-0.1,0-0.1,0.1c-3.1,3.1-8.8,7.9-10.7,7.9H54l-2.9-5.7c-0.1-0.2-0.4-0.4-0.6-0.4c-0.3,0-0.5,0.1-0.6,0.4l-6.4,11
		c-0.1,0.2-0.1,0.5,0,0.7c0.1,0.2,0.3,0.4,0.6,0.4c0.4,0,10.3,0.7,14.1,0.7c3.1,0,3.9-1.2,4.5-2.6l6.3-10.7l2.9,7.5
		c0,0.1,0.1,0.1,0.1,0.2l2.7,3.3c-0.1,0.3-0.2,0.6-0.2,0.9c0,1.1,0.9,1.9,1.9,1.9c1.1,0,1.9-0.9,1.9-1.9
		C78.2,105,77.3,104.2,76.2,104.2 M45.2,105.4l5.2-8.8l4.8,9.4C51.8,105.8,47.3,105.5,45.2,105.4 M61.3,104.2
		C61.3,104.2,61.3,104.2,61.3,104.2c-0.5,1.2-0.8,1.9-3.2,1.9c-0.4,0-0.8,0-1.3,0c0,0,0,0,0,0l-2.1-4.1h2.6c1.9,0,5.5-2.8,8.2-5.1
		L61.3,104.2z"/>
	<path class="st6" d="M59,102.7L59,102.7L59,102.7c-0.1,0-0.1,0-0.2,0c-0.3,0-0.5,0-0.8,0.1l-14,1.4c-0.1,0-0.1,0-0.2,0
		c-1.1,0-1.9,0.9-1.9,1.9c0,1,0.8,1.8,1.7,1.9l0,0l14.2,1.2c0.3,0.1,0.6,0.1,1,0.1c1.8,0,3.3-1.5,3.3-3.3
		C62.1,104.3,60.7,102.8,59,102.7"/>
	<path class="st5" d="M53.6,71.1c0.1,2,2.3,3.3,4.1,3.7c2.1,0.4,2.6-2.1,2.5-4.1c-0.1-2-1.6-3.4-3.4-3.3
		C55,67.5,53.6,69.1,53.6,71.1"/>
	<path class="st5" d="M62.7,109l-0.1-0.5l-1.6-0.9l-2.4-9.5c0,0-0.1-0.6-0.4-1l-5.1-6.6c0,0-2.3-3.6-4.8-1.3
		c-1.9,1.7,1.5,4.3,1.5,4.3l6.1,5.2l2.9,9.7l0.4,1.4L62.7,109z"/>
	<path d="M53.2,88.5c1-1.8,2.6-4.9,3.5-7.8c1.3-4.5-1.4-5.9-1.4-5.9c-1.4-0.7-2.6-0.1-2.7,0.3c-2.9,4-4.2,11.3-4.5,13.6
		c-0.1,0.2-0.1,0.4-0.1,0.7c-0.7,1.6,0.4,3,1.6,4.1c1.2,1.2-0.1,4.6-0.3,5.2c0.3,0.3,1.2,0.1,1.2,0.1s1.4-0.3,2.1-1.3
		c0.6-1,2.1-3.3,2.8-3.5c0.6-0.2,1.5,1.2,1.5,1.2s0.4-0.1,0.7-0.4c0.4-0.6,0.1-1.2,0.1-2c0.1-0.8,1.8-2,3-1.4
		C58.1,89.8,54,88.7,53.2,88.5"/>
	<path class="st5" d="M63,87.4c0.4,0,0.8-0.3,0.9-0.7c0.1-0.5-0.1-1-0.7-1.2l-6.2-2.5l-1.5-6.2c-0.1-0.5-0.5-1.1-1.7-1
		c-0.5,0.1-1.1,0.8-1,1.3l1.8,7.4c0.1,0.3,0.3,0.6,0.7,0.7l7.3,2.1C62.9,87.4,63,87.4,63,87.4"/>
	<path class="st8" d="M77,96.7h-4.3c-0.2,0-0.4-0.1-0.4-0.3l-1.9-4.3c-0.1-0.1-0.1-0.3,0-0.5c0.1-0.1,0.2-0.2,0.4-0.2h5.7
		c0.3,0,0.5,0.2,0.5,0.5c0,0.3-0.2,0.5-0.5,0.5h-4.9l1.5,3.3h3.6l0.9-4.4c0-0.2,0.2-0.4,0.5-0.4h0.9c0.3,0,0.5,0.2,0.5,0.5
		c0,0.3-0.2,0.5-0.5,0.5h-0.5l-0.9,4.4C77.4,96.5,77.2,96.7,77,96.7"/>
	<path class="st8" d="M76,94.3h-2.9c-0.3,0-0.5-0.2-0.5-0.5c0-0.3,0.2-0.5,0.5-0.5H76c0.3,0,0.5,0.2,0.5,0.5
		C76.4,94.1,76.2,94.3,76,94.3"/>
	<path class="st8" d="M60,69.1c0,0-1.8,1.7-3.6,2.2c0-0.2-0.8-0.5-0.9,0.1c-0.1,0.6,0.6,1.3,0.6,1.3L55,73.5c0,0-3.8-2.2-0.9-4.9
		C57.5,65.4,60,69.1,60,69.1"/>
	<path class="st8" d="M53.5,72.3c0,0-3.1-0.8-4.5,0.9c-1.3,1.7-1.1,2.2-1.8,2.2c1.1,0.5,2.5,0.6,3.7-0.7C52,73.3,52,72.6,53.5,72.3"
		/>
	<rect x="19.4" y="76.5" class="st2" width="7.4" height="35.2"/>
	<path class="st1" d="M45.4,68.7C45.4,81,35.4,91,23.1,91C10.7,91,0.8,81,0.8,68.7c0-12.3,10-22.3,22.3-22.3
		C35.4,46.4,45.4,56.4,45.4,68.7"/>
</g>
</svg>
