<?xml version="1.0" encoding="utf-8"?>
<!-- Generator: Adobe Illustrator 21.1.0, SVG Export Plug-In . SVG Version: 6.00 Build 0)  -->
<svg version="1.1" id="Capa_1" xmlns="http://www.w3.org/2000/svg" xmlns:xlink="http://www.w3.org/1999/xlink" x="0px" y="0px"
	 viewBox="0 0 227.4 111.9" style="enable-background:new 0 0 227.4 111.9;" xml:space="preserve">
<style type="text/css">
	.st0{fill:none;stroke:#231F20;stroke-width:5;stroke-miterlimit:10;}
	.st1{fill:#72B358;}
	.st2{fill:#231F20;}
	.st3{fill:#C1D9AE;}
	.st4{fill:#AECF98;}
</style>
<g>
	<path class="st0" d="M195.5,94.1c-6.9,0-6.9-4.9-13.8-4.9c-6.9,0-6.9,4.9-13.8,4.9c-6.9,0-6.9-4.9-13.8-4.9s-6.9,4.9-13.8,4.9
		c-6.9,0-6.9-4.9-13.8-4.9c-6.9,0-6.9,4.9-13.8,4.9c-6.9,0-6.9-4.9-13.8-4.9c-6.9,0-6.9,4.9-13.8,4.9c-6.9,0-6.9-4.9-13.8-4.9
		c-6.9,0-6.9,4.9-13.8,4.9c-6.9,0-6.9-4.9-13.8-4.9"/>
	<path class="st0" d="M195.5,87.8c-6.9,0-6.9-4.9-13.8-4.9c-6.9,0-6.9,4.9-13.8,4.9c-6.9,0-6.9-4.9-13.8-4.9s-6.9,4.9-13.8,4.9
		c-6.9,0-6.9-4.9-13.8-4.9c-6.9,0-6.9,4.9-13.8,4.9c-6.9,0-6.9-4.9-13.8-4.9c-6.9,0-6.9,4.9-13.8,4.9c-6.9,0-6.9-4.9-13.8-4.9
		c-6.9,0-6.9,4.9-13.8,4.9c-6.9,0-6.9-4.9-13.8-4.9"/>
	<path class="st0" d="M195.5,81.4c-6.9,0-6.9-4.9-13.8-4.9c-6.9,0-6.9,4.9-13.8,4.9c-6.9,0-6.9-4.9-13.8-4.9s-6.9,4.9-13.8,4.9
		c-6.9,0-6.9-4.9-13.8-4.9c-6.9,0-6.9,4.9-13.8,4.9c-6.9,0-6.9-4.9-13.8-4.9c-6.9,0-6.9,4.9-13.8,4.9c-6.9,0-6.9-4.9-13.8-4.9
		c-6.9,0-6.9,4.9-13.8,4.9c-6.9,0-6.9-4.9-13.8-4.9"/>
	<polygon class="st1" points="93.9,105.2 25.4,105.2 59.7,1.4 	"/>
	<rect x="21.6" y="75.1" class="st2" width="7.7" height="36.8"/>
	<path class="st3" d="M48.8,66.9c0,12.9-10.5,23.3-23.3,23.3c-12.9,0-23.3-10.5-23.3-23.3c0-12.9,10.5-23.3,23.3-23.3
		C38.3,43.6,48.8,54,48.8,66.9"/>
	<rect x="80.3" y="96.3" class="st2" width="5.5" height="10.6"/>
	<polygon class="st4" points="106.5,101.9 59.7,101.9 83.1,82.1 	"/>
	<polygon class="st4" points="105.3,82.1 60.8,82.1 83.1,63.4 	"/>
	<polygon class="st4" points="104.2,63.3 61.9,63.3 83.1,45.5 	"/>
	<rect x="192.1" y="46.8" class="st2" width="6.9" height="56.8"/>
	<path class="st2" d="M199.3,47.9h-7.1c-1.4,0-2.6-1.2-2.6-2.6v-1.9h12.3v1.9C201.8,46.8,200.7,47.9,199.3,47.9"/>
	<path class="st4" d="M175,40.3h1.8v3.2h18.7c-2.4-5.6-8-9.6-14.4-9.6c-6.5,0-12,3.9-14.4,9.6h8.4V40.3z"/>
	<path class="st4" d="M216,40.3h-1.8v3.2h-18.7c2.4-5.6,8-9.6,14.4-9.6c6.5,0,12,3.9,14.4,9.6H216V40.3z"/>
	<path class="st4" d="M185.1,25.7l1.1,1.3l-2.4,2l12,14.4c2.8-5.4,2.2-12.2-1.9-17.2c-4.2-5-10.7-6.7-16.6-5l5.4,6.4L185.1,25.7z"/>
	<path class="st4" d="M195.8,43.5c-2.8-5.4-2.2-12.2,1.9-17.2c4.2-5,10.7-6.7,16.6-5L195.8,43.5z"/>
	<path class="st2" d="M208.5,106.1c-3.7-2-8.2-3.1-13-3.1c-4.8,0-9.3,1.2-13,3.1H208.5z"/>
</g>
</svg>
