<?xml version="1.0" encoding="utf-8"?>
<!-- Generator: Adobe Illustrator 21.1.0, SVG Export Plug-In . SVG Version: 6.00 Build 0)  -->
<svg version="1.1" id="Capa_1" xmlns="http://www.w3.org/2000/svg" xmlns:xlink="http://www.w3.org/1999/xlink" x="0px" y="0px"
	 viewBox="0 0 227.4 117" style="enable-background:new 0 0 227.4 117;" xml:space="preserve">
<style type="text/css">
	.st0{fill:#181716;}
	.st1{fill:#FFFFFF;}
	.st2{fill:#231F20;}
	.st3{fill:#89BC6D;}
	.st4{fill:#AECF98;}
	.st5{fill:#E1ECD8;}
</style>
<path class="st0" d="M105,26.8c-24.9,0-45.1,20.2-45.1,45.1S80.1,117,105,117c24.9,0,45.1-20.2,45.1-45.1S129.9,26.8,105,26.8
	 M105,110.3c-21.2,0-38.4-17.2-38.4-38.4c0-21.2,17.2-38.4,38.4-38.4c21.2,0,38.4,17.2,38.4,38.4C143.4,93.1,126.2,110.3,105,110.3"
	/>
<path class="st0" d="M105,67.1c-2.6,0-4.8,2.1-4.8,4.8c0,2.6,2.1,4.8,4.8,4.8c2.6,0,4.8-2.1,4.8-4.8C109.8,69.3,107.6,67.1,105,67.1
	"/>
<rect x="128.4" y="27" transform="matrix(0.5468 -0.8373 0.8373 0.5468 33.0163 125.8701)" class="st0" width="8.7" height="10.8"/>
<rect x="100.7" y="14.9" class="st0" width="8.5" height="13.3"/>
<rect x="97.6" y="9.5" class="st0" width="14.8" height="7.8"/>
<path class="st0" d="M105-0.5c-7.2,0-13.1,5.9-13.1,13.1c0,7.2,5.9,13.1,13.1,13.1c7.2,0,13.1-5.9,13.1-13.1
	C118.1,5.4,112.2-0.5,105-0.5 M105,23.2c-5.9,0-10.6-4.8-10.6-10.6C94.4,6.7,99.1,2,105,2c5.9,0,10.6,4.8,10.6,10.6
	C115.6,18.4,110.9,23.2,105,23.2"/>
<path class="st0" d="M102,68.3c-2,1.7-2.3,4.7-0.6,6.7c1.7,2,4.7,2.3,6.7,0.6c2-1.7,2.3-4.7,0.6-6.7C107,66.8,104,66.6,102,68.3"/>
<polygon class="st0" points="106.2,68.9 101.9,72.5 82,44.7 "/>
<path class="st1" d="M105,36.9v26.6c4.7,0,8.4,3.8,8.4,8.5c0,4.7-3.8,8.5-8.5,8.5c-4.7,0-8.5-3.8-8.5-8.5c0-0.7,0.1-1.5,0.3-2.1
	L80.2,47.1c-6.4,6.3-10.3,15.1-10.3,24.8c0,19.4,15.7,35.1,35.1,35.1c19.4,0,35.1-15.7,35.1-35.1C140,52.6,124.4,36.9,105,36.9"/>
<rect x="201.9" y="83.5" class="st2" width="5.3" height="10.4"/>
<polygon class="st3" points="227.4,88.9 181.8,88.9 204.6,69.6 "/>
<polygon class="st3" points="226.3,69.6 182.9,69.6 204.6,51.3 "/>
<polygon class="st3" points="225.2,51.3 184,51.3 204.6,33.9 "/>
<path class="st4" d="M24.5,55.6c0.5,1.9,0.1,4.5-1.6,4.5c-1.8,0-3.9-0.7-4.5-2.7c-0.5-1.9,0.5-3.9,2.2-4.4
	C22.4,52.6,23.9,53.7,24.5,55.6"/>
<path class="st2" d="M24.4,54.7c0,0-2.1,1.3-4.1,1.9c0-0.2-0.9-0.5-1,0.2c0,0.7,0.8,1.3,0.8,1.3l-0.9,0.7c0,0-2.5-1.5-1.4-4
	c0.3-0.7,1.3-2,2.9-2.1C23.3,52.7,24.4,54.7,24.4,54.7"/>
<path class="st2" d="M17.6,57.2c0,0-3.4-0.9-4.9,1c-1.5,1.9-1.2,2.3-2,2.3c1.2,0.6,2.7,0.7,4-0.8C16,58.3,15.9,57.5,17.6,57.2"/>
<path class="st5" d="M23.7,65.5l1.6,1.7l2.6-2.5c0,0,0.7-0.8,1.3-0.3c0.5,0.5,0.5,1.1-0.1,2.2c-0.6,1.1-3.5,4-3.7,4.1
	c-0.2,0.1-0.5,0.3-0.9-0.1c-0.4-0.3-2.1-2.9-2.1-2.9L23.7,65.5z"/>
<path class="st5" d="M18.9,60.4c3.2,0,4.9,2.8,5.3,6.1c0.3,2.6-1.3,6.5-1.6,11.7c-0.6,1.8-1.9,2.2-2.7,2.2s-3-2-2.5-3.3
	c0.5-1.3,0.1-7.4-0.5-9.8C16.4,64.9,17.3,60.4,18.9,60.4"/>
<path class="st5" d="M15.6,74.3c-0.2-0.1-0.5-0.5-0.8-0.8l-4.1-4.9c-0.4-0.4-0.1-1.1,0.2-1.3l6.2-5.8c0.5-0.5,1.8-0.4,2.3,0.1
	c0.5,0.5,0.7,1.8,0.1,2.3l-6.2,4.6L17,73c0.5,0.6,0.3,1-0.2,1.4C16.5,74.7,16,74.7,15.6,74.3"/>
<path class="st2" d="M32,98l-6.8-11.4c0,0-7.4-4.6-7.6-7.2c-0.1-0.9,1.2-3.2,2.1-3c2.9,0.7,8.4,7.9,8.4,7.9c0.1,0.1,0.2,0.2,0.3,0.4
	l5,10.9l1.5,0.4l0.2,0.4L32,98z"/>
<path class="st2" d="M0.3,94.4l0.2-3.5L13,87c0,0,1.3-2.8,2.9-6c0.6-1.2-0.2-2.9,1.5-4.1c1.8-1.3,5,0.6,5.1,1.5
	c0.3,2.3-6.8,10.9-6.8,10.9c-0.1,0.2-0.4,0.6-1.3,0.7L1.6,93.2l-0.9,1.2L0.3,94.4z"/>
<polygon class="st4" points="28.4,92 31.2,96.8 33.3,95.6 31,90.5 "/>
<polygon class="st4" points="1.8,93.1 7.9,91.6 7.5,88.7 1.7,90.5 "/>
<path class="st4" d="M17,73l-2.6-3.2l-1.7,1.2l2,2.4c0.3,0.3,0.6,0.7,0.8,0.8c0.4,0.4,0.9,0.4,1.3,0.1C17.3,74.1,17.5,73.6,17,73"/>
<path class="st4" d="M26.7,69.3c0.3-0.3,0.6-0.7,0.9-1c0.6-0.7,1.2-1.4,1.4-1.8c0.6-1.1,0.6-1.7,0.1-2.2c-0.5-0.5-1.3,0.3-1.3,0.3
	l-1.5,1.4l-0.7,0.6L26.7,69.3z"/>
<path class="st2" d="M190.7,97.6c-4.6,0-8.3-3.7-8.3-8.3c0-4.6,3.7-8.3,8.3-8.3s8.3,3.7,8.3,8.3C199,93.9,195.3,97.6,190.7,97.6
	 M190.7,82.7c-3.6,0-6.6,3-6.6,6.6c0,3.6,3,6.6,6.6,6.6c3.6,0,6.6-3,6.6-6.6C197.3,85.6,194.3,82.7,190.7,82.7"/>
<path class="st3" d="M173.4,84.4l0.8-6.1l-8.6-1.8c0,0,1.3-3,2.2-3.3c2.2-0.8,8.9,2.8,8.9,2.8c0.3,0.1,0.8,0.4,0.9,0.6
	c0.1,0.2,0.2,0.8,0.1,1.1l-2.3,6.6l0.9,1.6l-3.4-0.1l0.3-1L173.4,84.4z"/>
<path class="st2" d="M160.9,97.6c-4.6,0-8.3-3.7-8.3-8.3c0-4.6,3.7-8.3,8.3-8.3c4.6,0,8.3,3.7,8.3,8.3
	C169.2,93.9,165.5,97.6,160.9,97.6 M160.9,82.7c-3.6,0-6.6,3-6.6,6.6c0,3.6,3,6.6,6.6,6.6c3.6,0,6.6-3,6.6-6.6
	C167.4,85.6,164.5,82.7,160.9,82.7"/>
<path class="st2" d="M173.8,94.1c-0.4,0-0.6-0.3-0.7-0.7c0-0.4,0.3-0.7,0.6-0.7l2.2-0.1c0.4,0,0.7,0.3,0.7,0.6
	c0,0.4-0.3,0.7-0.6,0.7L173.8,94.1L173.8,94.1z"/>
<path class="st2" d="M163.9,77c-0.1,0.5,0.2,0.9,0.7,0.9h0.9c0.5,0,1-0.1,1.1-0.2c0.1-0.1,0.6-0.2,1.1-0.2h1.8
	c0.5,0,0.9-0.3,0.9-0.7c0-0.4-0.4-0.7-0.9-0.7H165C164.6,76.1,164.1,76.5,163.9,77L163.9,77z"/>
<path class="st1" d="M190.7,87.4c-0.1,0-0.1,0-0.2,0L183.7,74c0,0,0-0.1-0.1-0.1c0-0.2,0-0.4,0.1-0.6c0.5-0.9,0.7-1.7,0.3-2.2
	c-0.2-0.3-0.6-0.7-1.4-0.7h-1.8c-0.4,0-0.7,0.3-0.7,0.7c0,0.4,0.3,0.7,0.7,0.7h1.8c0.2,0,0.3,0,0.3,0c0,0.1,0,0.4-0.3,0.9
	c-0.5,0.8-0.2,1.8,0,2.2c0,0.1,0.1,0.1,0.2,0.2l0.7,1.4l-15.8,2.1c-0.1,0-0.2,0.1-0.3,0.1c-0.1,0-0.1,0-0.2,0
	c-0.3,0-0.5,0.1-0.6,0.3l-5,8.6c-0.2-0.1-0.4-0.1-0.6-0.1c-1,0-1.9,0.8-1.9,1.9c0,1,0.8,1.9,1.9,1.9c0.7,0,1.3-0.4,1.6-1h9
	c0.4,1.3,1.7,2.3,3.1,2.3c1.8,0,3.3-1.5,3.3-3.3c0-0.2,0-0.3,0-0.5c0.1-0.1,0.2-0.2,0.2-0.4l7.5-7.7l3.8,7.4
	c-0.3,0.3-0.5,0.8-0.5,1.3c0,1,0.8,1.9,1.9,1.9c1,0,1.9-0.8,1.9-1.9C192.6,88.2,191.7,87.4,190.7,87.4 M162.7,88.8
	c0-0.2-0.1-0.3-0.2-0.5l4.5-7.8l4.3,8.2H162.7z M174.7,91.2c-0.7,0-1.4-0.4-1.7-1h1.3c0.7,0,1.5-0.1,2.3-0.4
	C176.3,90.6,175.5,91.2,174.7,91.2 M172.7,88.8c0.2-0.9,1-1.6,1.9-1.6c0.8,0,1.4,0.5,1.7,1.1c-0.4,0.3-1,0.5-2.2,0.5H172.7z
	 M177.3,87.3c-0.6-0.8-1.5-1.3-2.6-1.3c-1.1,0-2.1,0.6-2.7,1.4l-4-7.6l16-2.1l0.9,1.8L177.3,87.3z"/>
<path class="st4" d="M172.7,59.2c0.1,1.8,1.9,3.1,3.6,3.5c1.9,0.4,2.4-1.9,2.3-3.7c-0.1-1.8-1.5-3.1-3.2-3.1
	C173.8,55.9,172.7,57.4,172.7,59.2"/>
<path class="st2" d="M173.8,62c0,0,2.3,1.7,0.4,5.6c-1.9,3.8-5.4,7.8-5.4,7.8l-3.9-1.3c0,0,2-9.8,6.4-12.2
	C171.5,61.5,172.7,61.2,173.8,62"/>
<path class="st3" d="M165,73.7c2.3-2.1,5,1.3,5,1.3l4.6,5.6c0.3,0.4,0.4,1,0.4,1l0.7,9.4l0.8,1.3l0,0.2l-2.9,0.1l-0.1-0.9l-1.5-9
	l-5.6-4.8C166.3,77.7,163.2,75.3,165,73.7"/>
<path class="st2" d="M180.8,72.1c0.4,0,0.7-0.2,0.8-0.6c0.1-0.5-0.1-1-0.6-1.1l-5.7-1.4l-1.4-5.7c-0.1-0.5-0.5-1-1.6-0.9
	c-0.5,0.1-1.4,0.7-1.1,1.9l1.9,6.1c0.1,0.3,0.3,0.6,0.6,0.7l6.8,1.1C180.6,72.1,180.7,72.1,180.8,72.1"/>
<path class="st4" d="M181,70.4l-0.8-0.2l-0.4,1.8l0.7,0.1c0.1,0,0.2,0,0.2,0c0.4,0,0.7-0.2,0.8-0.6C181.7,71,181.5,70.5,181,70.4"/>
<path class="st2" d="M178.5,56.5c0,0,0.4,0.9-0.5,1.1c-0.9,0.3-2.1-0.1-2.1-0.1s-0.6,0.1-0.3,1.3c0,0.1-0.2,0.1-0.2,0.1
	c-0.4-0.3-0.8-0.3-0.8,0.1c-0.3,1.1,0.2,1.3,0.2,1.3l-0.5,1.2c0,0-1.5-1.1-1.6-2.7c-0.1-2.1,1-3.1,2.2-3.3c1-0.2,1.5-0.1,2.6,0.4
	c0.1,0,0.4,0.2,0.6,0.3C178.1,56.4,178.5,56.4,178.5,56.5"/>
</svg>
