<?xml version="1.0" encoding="utf-8"?>
<!-- Generator: Adobe Illustrator 21.1.0, SVG Export Plug-In . SVG Version: 6.00 Build 0)  -->
<svg version="1.1" id="Capa_1" xmlns="http://www.w3.org/2000/svg" xmlns:xlink="http://www.w3.org/1999/xlink" x="0px" y="0px"
	 viewBox="0 0 212.9 122" style="enable-background:new 0 0 212.9 122;" xml:space="preserve">
<style type="text/css">
	.st0{fill:#89BC6D;}
	.st1{fill:#9CC683;}
	.st2{fill:#231F20;}
	.st3{fill:#FFFFFF;}
	.st4{fill:#AECF98;}
	.st5{fill:#181716;}
	.st6{fill:#C1D9AE;}
	.st7{fill:#E1ECD8;}
	.st8{fill:none;stroke:#181716;stroke-width:1.841;stroke-miterlimit:10;}
	.st9{fill:none;stroke:#181716;stroke-width:1.841;stroke-linecap:round;stroke-miterlimit:10;}
</style>
<polygon class="st0" points="102.2,90.5 42.4,90.5 72.3,-0.1 "/>
<polygon class="st1" points="71.1,90.5 32.5,90.5 51.8,32 "/>
<polygon class="st1" points="212.9,90.5 182.6,90.5 197.8,44.6 "/>
<path class="st2" d="M41.9,94.2c-5,0-9.1-4.1-9.1-9.1c0-5,4.1-9.1,9.1-9.1c5,0,9.1,4.1,9.1,9.1C51,90.1,46.9,94.2,41.9,94.2
	 M41.9,77.9c-4,0-7.2,3.2-7.2,7.2c0,4,3.2,7.2,7.2,7.2c4,0,7.2-3.2,7.2-7.2C49.1,81.1,45.8,77.9,41.9,77.9"/>
<path class="st0" d="M22.9,79.7l0.9-6.7l-9.4-2c0,0,1.4-3.3,2.4-3.6c2.4-0.8,9.7,3.1,9.7,3.1c0.3,0.1,0.8,0.4,1,0.7
	c0.1,0.3,0.3,0.9,0.1,1.2l-2.5,7.2l1,1.7l-3.7-0.1l0.3-1.1L22.9,79.7z"/>
<path class="st2" d="M9.1,94.2c-5,0-9.1-4.1-9.1-9.1c0-5,4.1-9.1,9.1-9.1s9.1,4.1,9.1,9.1C18.3,90.1,14.2,94.2,9.1,94.2 M9.1,77.9
	c-4,0-7.2,3.2-7.2,7.2c0,4,3.2,7.2,7.2,7.2c4,0,7.2-3.2,7.2-7.2C16.4,81.1,13.1,77.9,9.1,77.9"/>
<path class="st2" d="M23.3,90.4c-0.4,0-0.7-0.3-0.7-0.7c0-0.4,0.3-0.7,0.7-0.7l2.5-0.1c0.4,0,0.7,0.3,0.7,0.7c0,0.4-0.3,0.7-0.7,0.8
	L23.3,90.4L23.3,90.4z"/>
<path class="st2" d="M12.5,71.6c-0.1,0.5,0.2,1,0.7,1h1c0.5,0,1.1-0.1,1.2-0.2c0.1-0.1,0.7-0.2,1.2-0.2h1.9c0.5,0,1-0.3,1-0.7
	c0-0.4-0.4-0.7-1-0.7h-4.8C13.2,70.6,12.6,71,12.5,71.6L12.5,71.6z"/>
<path class="st3" d="M41.9,83c-0.1,0-0.1,0-0.2,0l-7.5-14.7c0,0,0-0.1-0.1-0.1c0-0.2,0-0.4,0.1-0.7c0.6-1,0.7-1.8,0.4-2.4
	c-0.2-0.3-0.6-0.7-1.6-0.7h-2c-0.4,0-0.7,0.3-0.7,0.7c0,0.4,0.3,0.7,0.7,0.7h2c0.2,0,0.3,0,0.3,0c0,0.1-0.1,0.4-0.4,0.9
	c-0.5,0.9-0.3,1.9,0,2.4c0,0.1,0.1,0.1,0.2,0.2l0.8,1.6l-17.3,2.3c-0.1,0-0.3,0.1-0.4,0.2c-0.1,0-0.2,0-0.2,0
	c-0.3,0-0.5,0.1-0.6,0.4l-5.5,9.4C9.6,83.1,9.4,83,9.1,83c-1.1,0-2,0.9-2,2c0,1.1,0.9,2,2,2c0.8,0,1.4-0.4,1.8-1.1h9.9
	c0.4,1.5,1.8,2.6,3.4,2.6c2,0,3.6-1.6,3.6-3.6c0-0.2,0-0.4,0-0.6c0.1-0.1,0.2-0.3,0.2-0.4l8.2-8.5l4.1,8.1c-0.3,0.4-0.5,0.8-0.5,1.4
	c0,1.1,0.9,2,2,2c1.1,0,2-0.9,2-2C43.9,83.9,43,83,41.9,83 M11.1,84.6c0-0.2-0.1-0.3-0.2-0.5l4.9-8.5l4.7,9H11.1z M24.3,87.2
	c-0.8,0-1.5-0.5-1.9-1.1h1.4c0.8,0,1.7-0.1,2.5-0.4C26,86.5,25.2,87.2,24.3,87.2 M22.2,84.6c0.2-1,1.1-1.7,2.1-1.7
	c0.8,0,1.6,0.5,1.9,1.2c-0.4,0.3-1.1,0.5-2.4,0.5H22.2z M27.1,82.9c-0.7-0.9-1.7-1.5-2.9-1.5C23,81.4,22,82,21.3,83L17,74.6
	l17.5-2.3l1,2L27.1,82.9z"/>
<path class="st4" d="M22.2,52.1c0.1,2,2.1,3.4,3.9,3.8c2.1,0.5,2.7-2.1,2.6-4.1c-0.1-2-1.6-3.4-3.5-3.4
	C23.3,48.5,22.1,50.1,22.2,52.1"/>
<path class="st2" d="M23.4,55.2c0,0,2.5,1.9,0.4,6.1s-5.9,8.5-5.9,8.5l-4.3-1.4c0,0,2.2-10.7,7-13.4C20.8,54.6,22.1,54.2,23.4,55.2"
	/>
<path class="st0" d="M13.6,68c2.5-2.3,5.4,1.4,5.4,1.4l5,6.1c0.3,0.4,0.4,1.1,0.4,1.1l0.8,10.3l0.9,1.4l0,0.2L23,88.6l-0.1-1
	l-1.6-9.9l-6.1-5.3C15.1,72.3,11.7,69.7,13.6,68"/>
<path class="st2" d="M30.9,66.2c0.4,0,0.8-0.3,0.9-0.7c0.1-0.5-0.1-1-0.7-1.2L25,62.8l-1.5-6.3c-0.1-0.5-0.5-1.1-1.7-1
	c-0.5,0.1-1.6,0.8-1.3,2l2.1,6.7c0.1,0.3,0.3,0.6,0.7,0.7l7.4,1.2C30.8,66.2,30.9,66.2,30.9,66.2"/>
<path class="st4" d="M31.2,64.4l-0.9-0.2l-0.4,1.9l0.8,0.1c0.1,0,0.2,0,0.3,0c0.4,0,0.8-0.3,0.9-0.7C32,65,31.7,64.5,31.2,64.4"/>
<path class="st2" d="M28.5,49.2c0,0,0.4,1-0.6,1.2c-1,0.3-2.3-0.1-2.3-0.1s-0.6,0.1-0.3,1.5c0,0.1-0.2,0.2-0.2,0.2
	c-0.4-0.3-0.8-0.4-0.9,0.1c-0.3,1.2,0.2,1.4,0.2,1.4l-0.6,1.3c0,0-1.7-1.2-1.8-3c-0.1-2.3,1.1-3.4,2.4-3.6c1.1-0.2,1.7-0.1,2.8,0.4
	c0.1,0,0.5,0.2,0.7,0.3C28,49.1,28.4,49.1,28.5,49.2"/>
<path class="st2" d="M195.2,94.2c-3.7,0-6.8-3-6.8-6.8c0-3.7,3-6.8,6.8-6.8c3.7,0,6.8,3,6.8,6.8C201.9,91.2,198.9,94.2,195.2,94.2
	 M195.2,82.1c-2.9,0-5.3,2.4-5.3,5.3c0,2.9,2.4,5.3,5.3,5.3s5.3-2.4,5.3-5.3C200.4,84.5,198.1,82.1,195.2,82.1"/>
<path class="st0" d="M183.9,84.4l-0.6-0.8l1.4-6.9c0.1-0.5-0.1-1.1-0.5-1.4c-0.3-0.4-1.1-0.7-1.6-0.6l-7.4,1.1l0.4,3l6.2-0.8l-1,7.2
	L183.9,84.4z"/>
<path class="st2" d="M169,94.2c-3.7,0-6.8-3-6.8-6.8c0-3.7,3-6.8,6.8-6.8c3.7,0,6.8,3,6.8,6.8C175.8,91.2,172.7,94.2,169,94.2
	 M169,82.1c-2.9,0-5.3,2.4-5.3,5.3c0,2.9,2.4,5.3,5.3,5.3s5.3-2.4,5.3-5.3C174.3,84.5,171.9,82.1,169,82.1"/>
<path class="st3" d="M195.2,85.9c-0.1,0-0.2,0-0.2,0l-2.1-2.5l-4.8-8.5c0-0.1,0-0.1,0-0.2c0-0.1-0.1-0.5,0-0.7
	c0.4-0.6,0.6-1.6,0.2-2.3c-0.2-0.3-0.6-0.8-1.4-0.8c-1.2,0-3.5,0.9-3.8,1c-0.4,0.2-0.6,0.6-0.4,1c0.2,0.4,0.6,0.6,1,0.4
	c0.9-0.4,2.5-0.9,3.2-0.9c0.1,0,0.1,0,0.1,0c0,0.1,0,0.4-0.2,0.7c-0.4,0.8-0.3,1.6-0.1,1.9c0,0.1,0,0.3,0.1,0.4l1.8,3.2l-11.8,2.1
	l-0.7-1.3c-0.2-0.4-0.6-0.5-1-0.3c-0.4,0.2-0.5,0.6-0.3,1l0.5,0.9c0,0,0,0-0.1,0l-5.1,5.2c-0.3-0.2-0.6-0.4-1-0.4
	c-0.8,0-1.5,0.7-1.5,1.5c0,0.8,0.7,1.5,1.5,1.5c0,0,0.1,0,0.1,0c0,0,0,0,0.1,0h12.1c2.5,0,3.1-0.9,3.6-2c0.3-0.5,2.5-3.9,4.5-6.6
	l2.2,3.8c0,0,0,0.1,0.1,0.1l2.1,2.6c-0.1,0.2-0.1,0.3-0.1,0.5c0,0.8,0.7,1.5,1.5,1.5c0.8,0,1.5-0.7,1.5-1.5
	C196.7,86.6,196,85.9,195.2,85.9 M175.8,82.5l2.6,4.9H171L175.8,82.5z M183.5,86.2c0,0,0,0.1-0.1,0.1c-0.3,0.8-0.5,1.1-2.2,1.1H180
	c0-0.1,0-0.2-0.1-0.3l-2.6-5l10.1-1.8C185.5,83.1,183.6,86,183.5,86.2"/>
<path class="st2" d="M181.2,87.4c0,1.1,0.9,2,2,2c1.1,0,2-0.9,2-2c0-1.1-0.9-2-2-2C182.1,85.3,181.2,86.3,181.2,87.4"/>
<path class="st2" d="M183.9,91.8c-0.4,0-0.7-0.2-0.7-0.6c-0.1-0.4,0.2-0.8,0.6-0.9l1.8-0.4c0.4-0.1,0.8,0.2,0.9,0.6
	c0.1,0.4-0.2,0.8-0.6,0.9l-1.8,0.4C184,91.8,183.9,91.8,183.9,91.8"/>
<path class="st3" d="M171.9,79.3c-0.1,0.5,0.2,1.1,0.8,1.1h1c0.6,0,1.1-0.1,1.3-0.3c0.1-0.1,0.7-0.3,1.3-0.3h2c0.6,0,1-0.3,1-0.8
	c0-0.4-0.5-0.8-1-0.8h-5C172.6,78.4,172,78.8,171.9,79.3L171.9,79.3z"/>
<path class="st3" d="M190.8,77.5c0.2-0.7,1-1.2,2.6-0.8c0.1,0.2,0.4,1.7-0.9,2.8C192.1,79.5,190.4,78.6,190.8,77.5"/>
<path class="st3" d="M177,66.4c0,0,2.5,1.1,2.2,5.1c-0.4,4-0.9,6.1-0.9,6.1l-4.5-0.4c0,0-1.2-5.5,1-10.1
	C174.9,66.6,175.7,66,177,66.4"/>
<path class="st3" d="M183.9,73.2c0.3-0.1,0.6-0.4,0.6-0.8c0-0.5-0.3-1-0.8-0.9l-4.9,0.6l-1.6-4.4c-0.2-0.4-0.9-1.3-1.9-0.9
	c-1.1,0.5-0.9,1.7-0.7,2.1l2.7,4.8c0.1,0.3,1.1,0.7,1.7,0.4L183.9,73.2z"/>
<path class="st4" d="M175.3,63.1c0.2,1.8,2,3,3.7,3.3c1.9,0.3,2.3-2,2.2-3.8c-0.2-1.8-1.6-3-3.3-2.9
	C176.2,59.8,175.1,61.3,175.3,63.1"/>
<path class="st2" d="M181.5,59.6c0,0-0.1,1.4-1,1.7c-0.9,0.3-1.3,0.2-1.3,0.2s-0.8-0.1-1.1,1.1c-0.6-0.2-0.8-0.1-0.9,0.4
	c-0.2,1.1,0.2,1.3,0.2,1.3l-0.9,0.9c0,0-1.3-1-1.3-2.3c-0.1-1.6,0.9-3.1,2-3.4C178.4,59.3,180.6,60.1,181.5,59.6"/>
<path class="st0" d="M182.7,89.9l-1.5-7.3c0,0-6.4-2.4-7.3-4.3c-1.1-2.3,1.1-2.4,2-2.4c1.9,0,7,4.4,7,4.4c0.3,0.2,0.6,0.5,0.7,0.8
	l0.9,7l1.1,0.6l0.1,0.5L182.7,89.9z"/>
<path class="st4" d="M183.7,71.6l-0.8,0.1l0.2,1.7l0.9-0.2c0.3-0.1,0.6-0.4,0.6-0.8C184.5,72,184.4,71.4,183.7,71.6"/>
<path class="st5" d="M171.8,122v-3.8c0-8.8-6-13.8-15.9-15.9L115.6,97l-42.3,5.6c-8.2,2.3-15.9,7.1-15.9,15.9v3.4H171.8z"/>
<polygon class="st6" points="130.4,99.5 114.4,102 98.3,100.6 99.9,61.2 129.1,61.2 "/>
<path class="st7" d="M114.9,5.2c-0.2,0-0.4,0-0.5,0c-0.2,0-0.4,0-0.5,0C91.1,5,82.2,23,83.5,45.9c1.3,22.4,9.9,46.2,30.7,46.7v0
	c0,0,0.1,0,0.1,0c0,0,0.1,0,0.1,0v0c20.8-0.4,29.4-24.2,30.7-46.7C146.5,23,137.6,5,114.9,5.2"/>
<circle class="st8" cx="128.3" cy="62" r="9.3"/>
<path class="st9" d="M126.2,75.9c-1.5,5.4-6.4,9.3-12.3,9.3c-5.8,0-10.8-3.9-12.3-9.3"/>
<path class="st9" d="M133.3,62.3c-0.9,1.5-2.5,2.4-4.4,2.4c-1.9,0-3.5-1-4.4-2.4"/>
<path class="st9" d="M105,62.3c-0.9,1.5-2.5,2.4-4.4,2.4c-1.9,0-3.5-1-4.4-2.4"/>
<line class="st8" x1="110.2" y1="62" x2="119" y2="62"/>
<path class="st3" d="M108.8,116.3l-11.2-16c-0.5-0.7,0.1-1.5,0.9-1.4l15.4,3L108.8,116.3z"/>
<path class="st3" d="M119.4,116.3L131,99.8c0.3-0.5-0.1-1.1-0.6-1l-16.1,3.1L119.4,116.3z"/>
<path class="st5" d="M141.1,15.7V2.4h-31.2C95,2.4,83,14.4,83,29.3v13.9h31.1c14.9,0,27-12.1,27-27L141.1,15.7L141.1,15.7z"/>
<path class="st5" d="M138.9,16.6c-2,3.8-4,8.1-4,12.7v13.9h10.4C145.5,32.7,143.5,23.4,138.9,16.6"/>
<path class="st7" d="M90.4,64.5c1.5,6.2,0.8,11.7-1.6,12.3c-2.4,0.6-5.6-4-7.2-10.2c-1.5-6.2-0.8-11.7,1.6-12.3
	C85.7,53.7,88.9,58.2,90.4,64.5"/>
<path class="st7" d="M138.5,64.5c-1.5,6.2-0.8,11.7,1.6,12.3c2.4,0.6,5.6-4,7.2-10.2c1.5-6.2,0.8-11.7-1.6-12.3
	C143.2,53.7,140,58.2,138.5,64.5"/>
<circle class="st8" cx="100.9" cy="62" r="9.3"/>
</svg>
