<?xml version="1.0" encoding="utf-8"?>
<!-- Generator: Adobe Illustrator 21.1.0, SVG Export Plug-In . SVG Version: 6.00 Build 0)  -->
<svg version="1.1" id="Capa_1" xmlns="http://www.w3.org/2000/svg" xmlns:xlink="http://www.w3.org/1999/xlink" x="0px" y="0px"
	 viewBox="0 0 232.8 45.9" style="enable-background:new 0 0 232.8 45.9;" xml:space="preserve">
<style type="text/css">
	.st0{fill:#89BC6D;}
	.st1{fill:#72B358;}
	.st2{fill:#3AA336;}
	.st3{fill:#E1ECD8;}
	.st4{fill:#231F20;}
	.st5{fill:#AECF98;}
	.st6{fill:#FFFFFF;}
	.st7{fill:#181716;}
</style>
<path class="st0" d="M187.1,24.5L187.1,24.5c-1.6-0.1-2.9-1.1-3.3-2.6c-1.4-4.8-5.8-8.2-11.1-8.2h-10.6c-6.1,0-11,4.7-11.5,10.6
	c0,0.3,0,0.2,0,0.2c-3.2,0-4.1,2.4-4.1,7.8v2.9h9.9h13.5h0.9h15.7h12.2v-0.9C198.8,29.1,192.3,24.8,187.1,24.5 M164.1,24.5h-11.2
	c0-4.9,3.9-8.8,8.8-8.8h2.4V24.5z M168.1,24.5v-8.8h5.1c4.9,0,8.8,3.9,8.8,8.8H168.1z"/>
<path class="st1" d="M150.6,39.4c0,3,2.4,5.4,5.4,5.4c3,0,5.4-2.4,5.4-5.4c0-3-2.4-5.4-5.4-5.4C153,34,150.6,36.4,150.6,39.4"/>
<path class="st2" d="M153.6,41.7c1.3,1.3,3.4,1.3,4.7,0c1.3-1.3,1.3-3.4,0-4.7c-1.3-1.3-3.4-1.3-4.7,0
	C152.3,38.3,152.3,40.4,153.6,41.7"/>
<path class="st1" d="M183.6,39.4c0,3,2.4,5.4,5.4,5.4c3,0,5.4-2.4,5.4-5.4c0-3-2.4-5.4-5.4-5.4C186,34,183.6,36.4,183.6,39.4"/>
<path class="st2" d="M186.6,41.7c1.3,1.3,3.4,1.3,4.7,0c1.3-1.3,1.3-3.4,0-4.7c-1.3-1.3-3.4-1.3-4.7,0
	C185.3,38.3,185.3,40.4,186.6,41.7"/>
<path class="st3" d="M125.3,23.5l-4.4-18.2c-0.4-1.7-1.9-2.8-3.6-2.8H55.5c-2,0-3.7,1.7-3.7,3.7V36h73.6V24.4
	C125.4,24.1,125.4,23.8,125.3,23.5 M70.7,21.8H58.4c-1.7,0-3.1-1.4-3.1-3.1V9.3c0-1.6,1.3-2.9,2.9-2.9h12.5V21.8z M88.2,21.8H72.8
	V6.4h15.4V21.8z M106.3,21.8H90.9V6.4h15.4V21.8z M108.9,21.8V6.4h6.5c1.3,0,2.5,0.9,2.8,2.2l3.2,13.2H108.9z"/>
<rect x="51.8" y="36" class="st4" width="73.6" height="2.2"/>
<path class="st5" d="M55.3,38.8c0,3.3,2.7,5.9,5.9,5.9c3.3,0,5.9-2.7,5.9-5.9c0-3.3-2.7-5.9-5.9-5.9C58,32.8,55.3,35.5,55.3,38.8"/>
<path class="st4" d="M58.6,41.4c1.4,1.4,3.8,1.4,5.2,0c1.4-1.4,1.4-3.8,0-5.2c-1.4-1.4-3.8-1.4-5.2,0C57.2,37.6,57.2,39.9,58.6,41.4
	"/>
<path class="st5" d="M109.4,38.8c0,3.3,2.7,5.9,5.9,5.9c3.3,0,5.9-2.7,5.9-5.9c0-3.3-2.7-5.9-5.9-5.9
	C112.1,32.8,109.4,35.5,109.4,38.8"/>
<path class="st4" d="M112.8,41.4c1.4,1.4,3.8,1.4,5.2,0c1.4-1.4,1.4-3.8,0-5.2c-1.4-1.4-3.8-1.4-5.2,0
	C111.3,37.6,111.3,39.9,112.8,41.4"/>
<path class="st4" d="M135.7,45.9c-3.6,0-6.6-3-6.6-6.6c0-3.6,3-6.6,6.6-6.6c3.6,0,6.6,3,6.6,6.6C142.3,42.9,139.4,45.9,135.7,45.9
	 M135.7,34.2c-2.8,0-5.1,2.3-5.1,5.1c0,2.8,2.3,5.1,5.1,5.1c2.8,0,5.1-2.3,5.1-5.1C140.9,36.5,138.6,34.2,135.7,34.2"/>
<path class="st0" d="M124.8,36.4l-0.6-0.8l1.4-6.7c0.1-0.5-0.1-1-0.4-1.4c-0.3-0.4-1.1-0.7-1.6-0.6l-7.2,1l0.3,2.9l6-0.8l-1,7
	L124.8,36.4z"/>
<path class="st4" d="M110.3,45.9c-3.6,0-6.6-3-6.6-6.6c0-3.6,3-6.6,6.6-6.6c3.6,0,6.6,3,6.6,6.6C116.9,42.9,114,45.9,110.3,45.9
	 M110.3,34.2c-2.8,0-5.1,2.3-5.1,5.1c0,2.8,2.3,5.1,5.1,5.1c2.8,0,5.1-2.3,5.1-5.1C115.5,36.5,113.1,34.2,110.3,34.2"/>
<path class="st6" d="M135.7,37.8c-0.1,0-0.2,0-0.2,0l-2-2.5l-4.7-8.2c0-0.1,0-0.1,0-0.2c0-0.1-0.1-0.5,0-0.7
	c0.4-0.6,0.6-1.5,0.2-2.2c-0.2-0.3-0.5-0.7-1.4-0.7c-1.2,0-3.5,0.9-3.7,1c-0.4,0.2-0.6,0.6-0.4,1c0.2,0.4,0.6,0.6,1,0.4
	c0.9-0.3,2.5-0.9,3.2-0.9c0.1,0,0.1,0,0.1,0c0,0.1,0,0.4-0.2,0.7c-0.4,0.7-0.3,1.5-0.1,1.9c0,0.1,0,0.2,0.1,0.4l1.7,3.1l-11.4,2
	l-0.6-1.2c-0.2-0.4-0.6-0.5-1-0.3c-0.4,0.2-0.5,0.6-0.3,1l0.5,0.9c0,0,0,0-0.1,0l-4.9,5c-0.3-0.2-0.6-0.4-0.9-0.4
	c-0.8,0-1.5,0.7-1.5,1.5c0,0.8,0.7,1.5,1.5,1.5c0,0,0.1,0,0.1,0c0,0,0,0,0.1,0h11.7c2.4,0,3-0.9,3.5-2c0.3-0.4,2.4-3.8,4.4-6.4
	l2.1,3.7c0,0,0,0.1,0.1,0.1l2.1,2.5c-0.1,0.2-0.1,0.3-0.1,0.5c0,0.8,0.7,1.5,1.5,1.5c0.8,0,1.5-0.7,1.5-1.5
	C137.2,38.5,136.5,37.8,135.7,37.8 M117,34.5l2.5,4.8h-7.2L117,34.5z M124.4,38.1c0,0,0,0.1-0.1,0.1c-0.3,0.7-0.5,1.1-2.2,1.1H121
	c0-0.1,0-0.2-0.1-0.3l-2.5-4.9l9.8-1.7C126.3,35,124.5,37.9,124.4,38.1"/>
<path class="st4" d="M122.2,39.2c0,1.1,0.9,2,2,2c1.1,0,2-0.9,2-2c0-1.1-0.9-2-2-2C123.1,37.3,122.2,38.1,122.2,39.2"/>
<path class="st4" d="M124.8,43.5c-0.3,0-0.6-0.2-0.7-0.6c-0.1-0.4,0.2-0.8,0.6-0.9l1.8-0.4c0.4-0.1,0.8,0.2,0.9,0.6
	c0.1,0.4-0.2,0.8-0.6,0.9l-1.8,0.4C124.9,43.5,124.8,43.5,124.8,43.5"/>
<path class="st6" d="M113.1,31.4c-0.1,0.5,0.2,1.1,0.7,1.1h1c0.5,0,1.1-0.1,1.2-0.2c0.1-0.1,0.7-0.2,1.2-0.2h2c0.5,0,1-0.3,1-0.7
	c0-0.4-0.4-0.7-1-0.7h-4.9C113.8,30.5,113.2,30.9,113.1,31.4L113.1,31.4z"/>
<path class="st6" d="M131.5,29.6c0.2-0.7,1-1.2,2.5-0.8c0.1,0.2,0.4,1.7-0.9,2.8C132.8,31.6,131.2,30.7,131.5,29.6"/>
<path class="st6" d="M118.1,18.8c0,0,2.5,1,2.1,4.9c-0.4,3.9-0.9,5.9-0.9,5.9l-4.4-0.4c0,0-1.1-5.3,1-9.8
	C116.1,19.1,116.8,18.5,118.1,18.8"/>
<path class="st6" d="M124.8,25.5c0.3-0.1,0.6-0.4,0.6-0.7c0-0.4-0.2-1-0.8-0.8l-4.8,0.6l-1.5-4.2c-0.2-0.4-0.9-1.2-1.8-0.8
	c-1.1,0.4-0.8,1.6-0.7,2l2.6,4.6c0.1,0.3,1.1,0.7,1.6,0.4L124.8,25.5z"/>
<path class="st5" d="M116.4,15.6c0.2,1.7,2,2.9,3.6,3.2c1.8,0.3,2.3-2,2.1-3.7c-0.2-1.7-1.6-3-3.2-2.8
	C117.3,12.5,116.3,13.9,116.4,15.6"/>
<path class="st4" d="M122.4,12.3c0,0-0.1,1.4-1,1.7c-0.9,0.3-1.3,0.2-1.3,0.2s-0.8-0.1-1.1,1.1c-0.6-0.2-0.8-0.1-0.9,0.3
	c-0.2,1.1,0.2,1.3,0.2,1.3l-0.9,0.9c0,0-1.2-1-1.3-2.2c-0.1-1.6,0.8-3,2-3.3C119.4,12,121.6,12.7,122.4,12.3"/>
<path class="st0" d="M123.6,41.6l-1.5-7.1c0,0-6.2-2.3-7.1-4.2c-1.1-2.2,1.1-2.3,1.9-2.3c1.9,0,6.8,4.3,6.8,4.3
	c0.3,0.2,0.6,0.5,0.7,0.8l0.9,6.8l1.1,0.6l0.1,0.4L123.6,41.6z"/>
<path class="st5" d="M124.6,23.9l-0.8,0.1l0.2,1.6l0.8-0.2c0.3-0.1,0.6-0.4,0.6-0.7C125.4,24.3,125.2,23.7,124.6,23.9"/>
<path class="st4" d="M223.9,45.9c-4.9,0-8.9-4-8.9-8.9c0-4.9,4-8.9,8.9-8.9c4.9,0,8.9,4,8.9,8.9C232.8,41.9,228.8,45.9,223.9,45.9
	 M223.9,30c-3.9,0-7,3.1-7,7c0,3.9,3.1,7,7,7c3.9,0,7-3.1,7-7C230.9,33.1,227.8,30,223.9,30"/>
<path class="st0" d="M205.5,31.8l0.9-6.5l-9.1-1.9c0,0,1.4-3.2,2.4-3.5c2.3-0.8,9.5,3,9.5,3c0.3,0.1,0.8,0.4,0.9,0.7
	c0.1,0.3,0.3,0.9,0.1,1.1l-2.4,7l0.9,1.7l-3.6-0.1l0.3-1L205.5,31.8z"/>
<path class="st4" d="M192.1,45.9c-4.9,0-8.9-4-8.9-8.9c0-4.9,4-8.9,8.9-8.9c4.9,0,8.9,4,8.9,8.9C201,41.9,197,45.9,192.1,45.9
	 M192.1,30c-3.9,0-7,3.1-7,7c0,3.9,3.1,7,7,7c3.9,0,7-3.1,7-7C199.1,33.1,196,30,192.1,30"/>
<path class="st4" d="M205.9,42.1c-0.4,0-0.7-0.3-0.7-0.7c0-0.4,0.3-0.7,0.7-0.7l2.4-0.1c0.4,0,0.7,0.3,0.7,0.7
	c0,0.4-0.3,0.7-0.7,0.7L205.9,42.1L205.9,42.1z"/>
<path class="st4" d="M195.4,23.9c-0.1,0.5,0.2,0.9,0.7,0.9h0.9c0.5,0,1-0.1,1.2-0.2c0.1-0.1,0.7-0.2,1.2-0.2h1.9
	c0.5,0,0.9-0.3,0.9-0.7c0-0.4-0.4-0.7-0.9-0.7h-4.7C196.1,23,195.5,23.4,195.4,23.9L195.4,23.9z"/>
<path class="st6" d="M223.9,35c-0.1,0-0.1,0-0.2,0l-7.3-14.3c0,0,0-0.1-0.1-0.1c0-0.2,0-0.4,0.1-0.6c0.6-1,0.7-1.8,0.4-2.3
	c-0.2-0.3-0.6-0.7-1.5-0.7h-1.9c-0.4,0-0.7,0.3-0.7,0.7c0,0.4,0.3,0.7,0.7,0.7h1.9c0.2,0,0.3,0,0.3,0c0,0.1-0.1,0.4-0.4,0.9
	c-0.5,0.9-0.3,1.9,0,2.3c0,0.1,0.1,0.1,0.2,0.2l0.8,1.5l-16.9,2.2c-0.1,0-0.3,0.1-0.4,0.2c-0.1,0-0.2,0-0.2,0
	c-0.3,0-0.5,0.1-0.6,0.4l-5.3,9.2c-0.2-0.1-0.4-0.1-0.6-0.1c-1.1,0-2,0.9-2,2c0,1.1,0.9,2,2,2c0.8,0,1.4-0.4,1.7-1.1h9.6
	c0.4,1.4,1.8,2.5,3.3,2.5c1.9,0,3.5-1.6,3.5-3.5c0-0.2,0-0.4,0-0.5c0.1-0.1,0.2-0.3,0.2-0.4l8-8.2l4,7.9c-0.3,0.4-0.5,0.8-0.5,1.3
	c0,1.1,0.9,2,2,2c1.1,0,2-0.9,2-2C225.9,35.9,225,35,223.9,35 M194.1,36.5c0-0.2-0.1-0.3-0.2-0.5l4.8-8.3l4.5,8.8H194.1z M206.8,39
	c-0.8,0-1.5-0.4-1.8-1.1h1.4c0.7,0,1.6-0.1,2.4-0.4C208.5,38.4,207.7,39,206.8,39 M204.8,36.5c0.2-0.9,1-1.7,2-1.7
	c0.8,0,1.5,0.5,1.9,1.2c-0.4,0.3-1.1,0.5-2.3,0.5H204.8z M209.6,34.9c-0.6-0.9-1.6-1.4-2.8-1.4c-1.2,0-2.2,0.6-2.9,1.5l-4.2-8.1
	l17-2.2l1,1.9L209.6,34.9z"/>
<path class="st5" d="M204.8,4.9c0.1,1.9,2,3.3,3.8,3.7c2,0.4,2.6-2.1,2.5-4c-0.1-1.9-1.6-3.3-3.4-3.3C205.9,1.5,204.7,3,204.8,4.9"
	/>
<path class="st4" d="M206,7.9c0,0,2.4,1.9,0.4,5.9c-2,4.1-5.8,8.3-5.8,8.3l-4.2-1.4c0,0,2.2-10.4,6.8-13C203.4,7.4,204.7,7,206,7.9"
	/>
<path class="st0" d="M196.5,20.4c2.5-2.3,5.3,1.4,5.3,1.4l4.9,5.9c0.3,0.4,0.4,1,0.4,1l0.7,10l0.9,1.4l0,0.2l-3.1,0.1l-0.1-1
	l-1.6-9.6l-5.9-5.2C198,24.6,194.6,22.1,196.5,20.4"/>
<path class="st4" d="M213.3,18.7c0.4,0,0.8-0.3,0.9-0.7c0.1-0.5-0.1-1-0.6-1.2l-6.1-1.5l-1.4-6.1c-0.1-0.5-0.5-1.1-1.7-0.9
	c-0.5,0.1-1.5,0.7-1.2,2l2,6.5c0.1,0.3,0.3,0.6,0.7,0.7l7.2,1.2C213.1,18.7,213.2,18.7,213.3,18.7"/>
<path class="st5" d="M213.6,16.9l-0.9-0.2l-0.4,1.9l0.7,0.1c0.1,0,0.2,0,0.3,0c0.4,0,0.8-0.3,0.9-0.7
	C214.4,17.5,214.1,17,213.6,16.9"/>
<path class="st4" d="M210.9,2.1c0,0,0.4,0.9-0.6,1.2c-1,0.3-2.2-0.1-2.2-0.1s-0.6,0.1-0.3,1.4c0,0.1-0.2,0.2-0.2,0.2
	c-0.4-0.3-0.8-0.4-0.9,0.1c-0.3,1.2,0.2,1.4,0.2,1.4l-0.6,1.3c0,0-1.6-1.2-1.7-2.9c-0.1-2.2,1.1-3.3,2.3-3.5c1-0.2,1.6-0.1,2.7,0.4
	c0.1,0,0.4,0.2,0.7,0.3C210.5,2,210.9,2,210.9,2.1"/>
<path class="st7" d="M37.3,45.9c-4.2,0-7.6-3.4-7.6-7.6c0-4.2,3.4-7.6,7.6-7.6c4.2,0,7.6,3.4,7.6,7.6C44.9,42.5,41.5,45.9,37.3,45.9
	 M37.3,32.3c-3.3,0-5.9,2.7-5.9,5.9c0,3.3,2.7,5.9,5.9,5.9c3.3,0,5.9-2.7,5.9-5.9C43.2,35,40.6,32.3,37.3,32.3"/>
<path class="st5" d="M20.8,34.7l4-7.7c0.1-0.2,0-0.8-0.1-1c-0.1-0.2-0.6-0.6-0.8-0.6c0,0-6.5-3.4-8.6-2.7c-0.9,0.3-2.1,3.2-2.1,3.2
	l8.8,1.6L19.1,34L20.8,34.7z"/>
<path class="st7" d="M8.5,45.9c-4.2,0-7.6-3.4-7.6-7.6c0-4.2,3.4-7.6,7.6-7.6c4.2,0,7.6,3.4,7.6,7.6C16.1,42.5,12.7,45.9,8.5,45.9
	 M8.5,32.3c-3.3,0-5.9,2.7-5.9,5.9c0,3.3,2.7,5.9,5.9,5.9c3.3,0,5.9-2.7,5.9-5.9C14.4,35,11.8,32.3,8.5,32.3"/>
<path class="st7" d="M23.1,43.1c-0.3,0-0.6-0.2-0.6-0.5c-0.1-0.3,0.2-0.7,0.5-0.7l2.1-0.4c0.3-0.1,0.7,0.2,0.7,0.5
	c0.1,0.3-0.2,0.7-0.5,0.7L23.2,43C23.2,43.1,23.2,43.1,23.1,43.1"/>
<path class="st7" d="M11.5,26.5c-0.1,0.5,0.2,0.8,0.6,0.8h0.8c0.5,0,0.9-0.1,1.1-0.2c0.1-0.1,0.6-0.2,1.1-0.2h1.6
	c0.5,0,0.8-0.3,0.8-0.6c0-0.3-0.4-0.6-0.8-0.6h-4.2C12,25.6,11.6,26,11.5,26.5L11.5,26.5z"/>
<path class="st6" d="M37.3,36.6c-0.2,0-0.3,0-0.5,0.1l-2.4-2.9l-3.8-10c0-0.1,0-0.2-0.1-0.3c0,0-0.3-0.5,0-0.9
	c0.4-0.7,0.6-1.7,0.2-2.4c-0.2-0.3-0.6-0.8-1.4-0.8c-1.4,0-4,1.1-4.3,1.2c-0.3,0.1-0.5,0.5-0.3,0.8c0.1,0.3,0.5,0.5,0.8,0.3
	c0.7-0.3,2.9-1.1,3.8-1.1c0.3,0,0.3,0.1,0.3,0.1c0.1,0.2,0.1,0.7-0.2,1.1c-0.4,0.7-0.3,1.4-0.1,1.9c0,0.1,0,0.1,0,0.2l0.8,2.2
	c0,0-0.1,0-0.1,0.1c-2.8,2.7-7.9,7-9.5,7h-3L15,28.2c-0.1-0.2-0.3-0.3-0.5-0.3c-0.2,0-0.4,0.1-0.6,0.3l-5.7,9.8
	c-0.1,0.2-0.1,0.4,0,0.6c0.1,0.2,0.3,0.3,0.5,0.3c0.4,0,9.2,0.6,12.6,0.6c2.7,0,3.4-1.1,4-2.3l5.6-9.5l2.6,6.7
	c0,0.1,0.1,0.1,0.1,0.2l2.4,2.9c-0.1,0.2-0.2,0.5-0.2,0.8c0,0.9,0.8,1.7,1.7,1.7c0.9,0,1.7-0.8,1.7-1.7C39,37.3,38.2,36.6,37.3,36.6
	 M9.8,37.6l4.6-7.9l4.2,8.3C15.6,38,11.6,37.8,9.8,37.6 M24,36.5C24,36.5,24,36.6,24,36.5c-0.4,1-0.7,1.7-2.8,1.7
	c-0.3,0-0.7,0-1.1,0c0,0,0,0,0,0l-1.8-3.6h2.4c1.7,0,4.9-2.5,7.3-4.5L24,36.5z"/>
<path class="st6" d="M22,35.3L22,35.3L22,35.3c-0.1,0-0.1,0-0.2,0c-0.2,0-0.5,0-0.7,0.1L8.7,36.6c-0.1,0-0.1,0-0.2,0
	c-0.9,0-1.7,0.8-1.7,1.7c0,0.9,0.7,1.6,1.5,1.7l0,0L21,41c0.3,0.1,0.6,0.1,0.9,0.1c1.6,0,2.9-1.3,2.9-2.9
	C24.8,36.6,23.5,35.3,22,35.3"/>
<path class="st5" d="M17.2,7.2c0.1,1.7,2,2.9,3.6,3.3c1.8,0.4,2.3-1.9,2.3-3.6c-0.1-1.7-1.4-3-3.1-3C18.4,3.9,17.2,5.4,17.2,7.2"/>
<path class="st5" d="M25.3,40.9l-0.1-0.5l-1.4-0.8l-2.1-8.4c0,0-0.1-0.5-0.4-0.9l-4.5-5.8c0,0-2.1-3.2-4.3-1.2
	c-1.7,1.5,1.3,3.8,1.3,3.8l5.5,4.7l2.6,8.6l0.4,1.3L25.3,40.9z"/>
<path d="M16.9,22.7c0.9-1.6,2.3-4.3,3.1-6.9c1.2-4-1.3-5.2-1.3-5.2c-1.2-0.6-2.3-0.1-2.4,0.2c-2.6,3.5-3.7,10-4,12.1
	c0,0.1-0.1,0.3-0.1,0.6c-0.6,1.4,0.4,2.7,1.5,3.7c1.1,1-0.1,4.1-0.2,4.6c0.3,0.2,1,0.1,1,0.1s1.3-0.3,1.8-1.2
	c0.6-0.9,1.9-2.9,2.5-3.1c0.6-0.2,1.3,1,1.3,1s0.3-0.1,0.6-0.4c0.3-0.5,0.1-1.1,0.1-1.8c0.1-0.7,1.6-1.8,2.7-1.3
	C21.1,23.8,17.6,22.8,16.9,22.7"/>
<path class="st5" d="M25.6,21.7c0.4,0,0.7-0.2,0.8-0.6c0.1-0.4-0.1-0.9-0.6-1.1l-5.5-2.2L19,12.2c-0.1-0.5-0.5-1-1.5-0.8
	c-0.5,0.1-0.9,0.7-0.8,1.1l1.6,6.6c0.1,0.3,0.3,0.5,0.6,0.6l6.5,1.9C25.4,21.6,25.5,21.7,25.6,21.7"/>
<path class="st7" d="M37.9,29.9h-3.8c-0.2,0-0.3-0.1-0.4-0.3l-1.7-3.8c-0.1-0.1,0-0.3,0-0.4c0.1-0.1,0.2-0.2,0.4-0.2h5
	c0.2,0,0.4,0.2,0.4,0.4c0,0.2-0.2,0.4-0.4,0.4h-4.4l1.3,3h3.2l0.8-3.9c0-0.2,0.2-0.3,0.4-0.3h0.8c0.2,0,0.4,0.2,0.4,0.4
	c0,0.2-0.2,0.4-0.4,0.4h-0.5l-0.8,3.9C38.3,29.7,38.2,29.9,37.9,29.9"/>
<path class="st7" d="M37.1,27.8h-2.5c-0.2,0-0.4-0.2-0.4-0.4s0.2-0.4,0.4-0.4h2.5c0.2,0,0.4,0.2,0.4,0.4S37.3,27.8,37.1,27.8"/>
<path class="st7" d="M22.9,5.4c0,0-1.6,1.5-3.2,1.9c0-0.2-0.7-0.5-0.8,0.1c-0.1,0.6,0.6,1.1,0.6,1.1l-1,0.8c0,0-3.4-2-0.8-4.4
	C20.6,2.1,22.9,5.4,22.9,5.4"/>
<path class="st7" d="M17.1,8.2c0,0-2.8-0.7-4,0.8c-1.2,1.5-1,1.9-1.6,1.9c1,0.5,2.2,0.6,3.3-0.6C15.8,9.1,15.7,8.4,17.1,8.2"/>
</svg>
