<?xml version="1.0" encoding="utf-8"?>
<!-- Generator: Adobe Illustrator 21.1.0, SVG Export Plug-In . SVG Version: 6.00 Build 0)  -->
<svg version="1.1" id="Capa_1" xmlns="http://www.w3.org/2000/svg" xmlns:xlink="http://www.w3.org/1999/xlink" x="0px" y="0px"
	 viewBox="0 0 1440 1451.3" style="enable-background:new 0 0 1440 1451.3;" xml:space="preserve">
<style type="text/css">
	.st0{fill:#F4F4F4;}
	.st1{fill:#181716;}
	.st2{fill:#C1D9AE;}
	.st3{fill:#FBE2E0;}
	.st4{fill:#F8D2D0;}
	.st5{fill:none;stroke:#F0A0A0;stroke-width:6.0028;stroke-linecap:round;stroke-miterlimit:10;}
	.st6{fill:#F0A0A0;}
	.st7{fill:#3AA336;}
	.st8{fill:none;}
	.st9{font-family:'Platform'; font-weight: 300; letter-spacing: 1px;}
	.st10{font-size:24.0054px;}
	.st11{font-size:33.0075px;}
	.st12{fill:none;stroke:#181716;stroke-width:1.5003;stroke-miterlimit:10;}
@font-face {
  font-family: 'Platform';
  src: url('../fonts/Platform-Regular.eot');
  src: url('../fonts/Platform-Regular.eot?#iefix') format('embedded-opentype'),
  url('../fonts/Platform-Regular.woff') format('woff'),
  url('../fonts/Platform-Regular.ttf') format('truetype'),
  url('../fonts/Platform-Regular.otf') format('opentype'),
  url('../fonts/Platform-Regular.svg#Platform-Regular') format('svg');
  font-weight: 300;
  font-style: normal;
}
</style>
<g id="bg">
	<rect y="0" class="st0" width="1440" height="1452.7"/>
	<rect y="1245.3" class="st1" width="1440" height="207.3"/>
</g>
<g id="Cos">
	<g>
		<g>
			<path class="st2" d="M721.7,57.2c-0.4,0-0.7,0-1,0s-0.7,0-1,0c-44.9-0.4-62.4,35.1-59.8,80.4c2.5,44.3,19.6,91.2,60.6,92.1l0,0
				c0.1,0,0.2,0,0.3,0s0.2,0,0.3,0l0,0c41-0.9,58.1-47.8,60.6-92.1C784.1,92.3,766.6,56.8,721.7,57.2z"/>
			<g>
				
					<ellipse transform="matrix(0.1335 -0.991 0.991 0.1335 521.897 906.5344)" class="st2" cx="779.4" cy="154.8" rx="23.8" ry="8"/>
				<ellipse transform="matrix(0.991 -0.1335 0.1335 0.991 -14.739 89.7493)" class="st2" cx="661.9" cy="154.8" rx="8" ry="23.8"/>
			</g>
			<rect x="685.5" y="197.4" class="st2" width="70.1" height="73.1"/>
			<g>
				<path class="st2" d="M733.5,303.5l-48.1-73.8l0,0c0,20.9-16.9,37.8-37.8,37.8l0,0L733.5,303.5z"/>
				<path class="st2" d="M707.8,303.5l48.1-73.8l0,0c0,20.9,16.9,37.8,37.8,37.8l0,0L707.8,303.5z"/>
			</g>
		</g>
		<g>
			<rect x="631" y="267.2" class="st2" width="178.7" height="281.4"/>
			<path class="st2" d="M603.6,305.7H837v86.2c0,35.4-28.7,64-64,64H667.7c-35.4,0-64-28.7-64-64v-86.2H603.6z"/>
			<path class="st2" d="M557.8,389h325.1v-59.3c0-34.5-28-62.4-62.4-62.4H620.2c-34.5,0-62.4,28-62.4,62.4V389z"/>
			<path class="st2" d="M809.7,548.6h-89.4v196.1h127.1c0,0,0-24.5,0-74.5C847.4,622.3,809.7,548.6,809.7,548.6z"/>
			<path class="st2" d="M631,548.6h89.4v196.1H593.2c0,0,0-24.5,0-74.5C593.2,622.3,631,548.6,631,548.6z"/>
			<g>
				<path class="st2" d="M805.7,995.8c0,19.3-77.1,0-77.1,0v-251c0,0,118.8-29.7,118.8,0C847.4,851.5,805.7,966.7,805.7,995.8z"/>
				<path class="st2" d="M784.5,1310.6h-41l-14.9-314.8h76.9c0,0,6.4,92.3,6.4,123.2C811.8,1205.6,784.5,1310.6,784.5,1310.6z"/>
				<path class="st2" d="M792.3,1405.6c-0.1,2.3-2.4,6-4.9,9.3c-3.8,5-9.7,7.8-15.9,7.8h-29.7c-7,0-12.4-6.1-11.4-13.1l13.1-99h41
					C784.4,1310.6,793.4,1376.4,792.3,1405.6z"/>
			</g>
			<g>
				<path class="st2" d="M635,995.8c0,19.3,77.1,0,77.1,0v-251c0,0-118.8-29.7-118.8,0C593.2,851.5,635,966.7,635,995.8z"/>
				<path class="st2" d="M656.1,1310.6h41L712,995.8h-76.9c0,0-6.4,92.3-6.4,123.2C628.8,1205.6,656.1,1310.6,656.1,1310.6z"/>
				<path class="st2" d="M648.3,1405.6c0.1,2.3,2.4,6,4.9,9.3c3.8,5,9.7,7.8,15.9,7.8h29.7c7,0,12.4-6.1,11.4-13.1l-13.1-99h-41
					C656.2,1310.6,647.3,1376.4,648.3,1405.6z"/>
			</g>
			<polygon class="st2" points="903.3,538.2 857.4,543.6 829.6,326.2 882.7,320 			"/>
			<path class="st2" d="M918.1,722.9l-27,3.1l-33.7-182.5c0,0,42.4-39.8,43.8-27.7c2.5,21.5,8.9,43.4,12.1,73.1
				C916.9,622.3,918.1,722.9,918.1,722.9z"/>
			<path class="st2" d="M918.1,722.9v41.4c0,8.9-2.7,17.6-7.9,24.9L877.3,836c-2.7,3.9-8,4.9-11.9,2.3l0,0c-3.7-2.4-5-7.1-3.1-11.1
				l20.4-42.3l-2.8-15.3l-14.6,28.8c-0.7,1.3-2.2,2-3.7,1.6l0,0c-1.5-0.4-2.5-1.9-2.3-3.4l3.1-27.7c0.8-7.2,3.3-14.1,7.4-20.1
				l21.2-22.9L918.1,722.9z"/>
			<g>
				<polygon class="st2" points="537.9,538.2 583.8,543.6 611.7,326.2 558.5,320 				"/>
				<path class="st2" d="M523.1,722.9l27,3.1l33.7-182.5c0,0-42.4-39.8-43.8-27.7c-2.5,21.5-8.9,43.4-12.1,73.1
					C524.3,622.3,523.1,722.9,523.1,722.9z"/>
				<path class="st2" d="M523.1,722.9v41.4c0,8.9,2.7,17.6,7.9,24.9l32.9,46.8c2.7,3.9,8,4.9,11.9,2.3l0,0c3.7-2.4,5-7.1,3.1-11.1
					L558.5,785l2.8-15.3l14.6,28.8c0.7,1.3,2.2,2,3.7,1.6l0,0c1.5-0.4,2.5-1.9,2.3-3.4l-3.1-27.7c-0.8-7.2-3.3-14.1-7.4-20.1
					L550.1,726L523.1,722.9z"/>
			</g>
		</g>
	</g>
	<g>
		<g>
			<path class="st3" d="M738.1,273.9L738.1,273.9c3.9-2.5,8.4-3.9,13.1-3.9h6.3c7.9,0.5,12.9,3.1,16,7.1
				c21.4,27.7,48.6,65,55.8,114.3c1.7,11.9-15.2,35.7-19.8,39.1c-55.8,41.5-87.2-27.9-87.2-27.9l5-109.7
				C727.6,285.2,731.7,278.1,738.1,273.9z"/>
			<circle class="st3" cx="774.7" cy="396.6" r="54.6"/>
		</g>
		<g>
			<path class="st3" d="M703.9,273.9L703.9,273.9c-3.9-2.5-8.4-3.9-13.1-3.9h-6.3c-7.9,0.5-12.9,3.1-16,7.1
				c-21.4,27.7-48.6,65-55.8,114.3c-1.7,11.9,15.2,35.7,19.8,39.1c55.8,41.5,87.2-27.9,87.2-27.9l17.6-99L714.8,293
				C714.4,285.2,710.3,278.1,703.9,273.9z"/>
			<circle class="st3" cx="667.3" cy="396.6" r="54.6"/>
		</g>
	</g>
	<path class="st4" d="M720.6,716.3L720.6,716.3c-30.3,0-54.9-24.6-54.9-54.9v-61.7c0-30.3,24.6-54.9,54.9-54.9l0,0
		c30.3,0,54.9,24.6,54.9,54.9v61.7C775.5,691.7,750.9,716.3,720.6,716.3z"/>
	<g>
		<g>
			<g>
				<circle class="st4" cx="688.2" cy="395.2" r="22.4"/>
				<circle class="st4" cx="658.4" cy="406.1" r="24.4"/>
				<circle class="st4" cx="697.1" cy="330.4" r="13.5"/>
				<rect x="680.8" y="330.4" class="st4" width="29.9" height="61"/>
				<path class="st4" d="M634.9,399.5c13.2-52.4,53.6-79.5,53.6-79.5l5.4,70.4C694,390.3,631.3,413.9,634.9,399.5z"/>
			</g>
			<g>
				<circle class="st4" cx="753.8" cy="395.2" r="22.4"/>
				<circle class="st4" cx="783.6" cy="406.1" r="24.4"/>
				<circle class="st4" cx="744.9" cy="330.4" r="13.5"/>
				<rect x="731.4" y="330.4" class="st4" width="29.9" height="61"/>
				<path class="st4" d="M807.1,399.5c-13.2-52.4-53.6-79.5-53.6-79.5l-5.4,70.4C748,390.3,810.8,413.9,807.1,399.5z"/>
			</g>
		</g>
		<rect x="713.5" y="269.5" class="st4" width="14.9" height="56.1"/>
		<g>
			
				<rect x="731.2" y="314" transform="matrix(0.7071 -0.7071 0.7071 0.7071 -25.5209 622.4834)" class="st4" width="14.9" height="56.1"/>
			
				<rect x="675.3" y="334.6" transform="matrix(0.7071 -0.7071 0.7071 0.7071 -35.8592 597.5626)" class="st4" width="56.1" height="14.9"/>
		</g>
	</g>
	<g>
		<path class="st5" d="M888.7,761.7c0,0,20.9-17.7,20.3-35.7c-1.6-43.9,1.6-76-1.6-100.3c-8-60.9-24.9-73-27.9-100.5
			c-2.6-23.1,5-164.8-13-199.7c-19.1-36.9-65.2-41.5-97.4-33c-22.8,6-28.3,24.1-30.4,35.6c-1.6,8.8-1.8,16.5,2.7,35.8"/>
		<path class="st5" d="M819.9,291.4c23.7,6.2,25.7,29.3,27.5,56.9s33.3,135.3,30.9,171.2s-1.1,91.7,6.5,115.8s21.6,54.8,23.8,80.9"
			/>
		<path class="st5" d="M553.6,761.7c0,0-20.9-17.7-20.3-35.7c1.6-43.9-1.6-76,1.6-100.3c8-60.9,24.9-73,27.9-100.5
			c2.6-23.1-5-164.8,13-199.7c19.1-36.9,65.2-41.5,97.4-33c22.8,6,47.4,21.8,51.6,35.6c2.6,8.6,8.6,16.5,4.2,35.8"/>
		<path class="st5" d="M622.4,291.4c-23.7,6.2-25.7,29.3-27.5,56.9S561.6,483.6,564,519.5c2.4,35.9,1.1,91.7-6.5,115.8
			s-21.6,54.8-23.8,80.9"/>
		<path class="st5" d="M769.1,292.5c0,0-23.1-47.7-24.2-62.9c-1.1-15.2,13.1-41.3,23.2-68.4c5.7-15.3,5-30.2,3.3-40.3
			c-1.3-7.6-6.4-14-13.5-16.9l-4.6-1.9"/>
		<line class="st5" x1="744.9" y1="226.2" x2="750.7" y2="301.9"/>
		<path class="st5" d="M671.8,291.7c0,0,23.1-46.8,24.2-62s-13.1-41.3-23.2-68.4c-6.5-17.4-4.7-34.3-2.5-44.1
			c1.2-5.4,4.3-10.1,8.7-13.3l4.8-3.5"/>
		<line class="st5" x1="696" y1="226.2" x2="690.2" y2="298.5"/>
		<path class="st5" d="M724.7,412.1c0,0-3.9,223.5,0.4,234.6c4.3,11.1,78.3,67.9,82.1,115c8.8,108-27.9,228.6-29.6,234.1
			c-6.6,21.4,19,145.2,13.3,195.2s-26.4,117.2-29.7,141.5c-3.2,24.3-5.6,54.3-5.6,54.3"/>
		<path class="st5" d="M753.8,677.3c13,13.8,18.6,46.7,16.4,84.3c-2.1,37.6,8.4,197.7,2.4,249.2c-6,51.5-18.1,154.4-14.2,193
			c3.9,38.6,7.1,90.2,2.9,128.7"/>
		<path class="st5" d="M723.6,643.3c-4.3,11.1-86.7,71.3-90.5,118.4c-8.8,108,27.9,228.6,29.6,234.1c6.6,21.4-19,145.2-13.3,195.2
			s26.4,117.2,29.7,141.5c3.2,24.3,5.6,54.3,5.6,54.3"/>
		<path class="st5" d="M687,679.5c-13,13.8-19,44.6-16.9,82.2c2.1,37.6-8.4,197.7-2.4,249.2s18.1,154.4,14.2,193
			c-3.9,38.6-7.1,90.2-2.9,128.7"/>
	</g>
	<path class="st6" d="M726.1,340.9c0,0,4.3,6.4,3.8,7.8c-0.4,1.4-3.7,2.6-7.2,11c-2.3,5.8,0.9,11.3-0.6,12.4
		c-1.6,1.1-5.7,7.9-6.9,10.2c-8.9,16.7,4,34.6,13.3,41.2c9.3,6.5,18.4,6.7,24.3,9.3c8.2,3.5,19,5.8,25.3-5.3c0,0,4.1-8.5-1-24.1
		c-2.9-8.9-6.4-15.4-8.1-17.8c-5.5-7.7-11.2-11.2-13.8-12.6c-1.4-0.7-0.8-3.8,2-5c2.8-1.3,6-0.3,6-0.3l1-4c0,0-3.9-1.3-5.8-0.9
		c-1.9,0.3,2.1-4.2,2.3-7.3c0,0-2.7-2.3-4.4-1.7c0,0-1,3.7-3.5,7.7c0,0,1-9.6-5.9-14.6c0,0,1.6-8.1,2.1-8.8c0,0-3.2-1.7-4.5-1.4
		c0,0-1.9,8.1-2.2,8.3c-0.3,0.2-0.9,1.2-1.5,0.2s-0.8-9.6-0.8-9.6l-4.4,0.5c0,0,1.9,9.3,0.7,9.8c-0.4,0.2-0.8,0.8-1.6,0.1
		c-2.1-1.8-4.3-6.9-4.3-7.3C730.3,338.1,726.1,340.9,726.1,340.9z"/>
	<g>
		<circle class="st7" cx="687.3" cy="99.7" r="13.6"/>
		<circle class="st7" cx="707.6" cy="88.1" r="14.7"/>
		<circle class="st7" cx="730.2" cy="86.7" r="16.3"/>
		<circle class="st7" cx="681.1" cy="105.2" r="8.1"/>
		<circle class="st7" cx="760.6" cy="105.2" r="8.1"/>
		<circle class="st7" cx="749.6" cy="93.7" r="11"/>
		<rect x="681.1" y="99.7" class="st7" width="79.6" height="13.6"/>
		<rect x="706.6" y="90.7" class="st7" width="14.3" height="17.6"/>
	</g>
	<g>
		<rect x="118.2" y="171" class="st8" width="380.7" height="354.3"/>
		<text transform="matrix(1 0 0 1 118.1755 188.5543)" class="st1 st9 st10">Mental health problems</text>
	</g>
	<g>
		<rect x="118.2" y="112.9" class="st8" width="283.7" height="41.9"/>
		<text transform="matrix(1 0 0 1 118.176 137.0694)" class="st1 st9 st11">Head</text>
	</g>
	<line class="st12" x1="730.6" y1="90.6" x2="118.2" y2="88.9"/>
	<g>
		<rect x="118.2" y="824.5" class="st8" width="538.6" height="474.6"/>
		<text transform="matrix(1 0 0 1 118.1755 842.0073)" class="st1 st9 st10">Nuisance, stress</text>
		<text transform="matrix(1 0 0 1 118.1755 878.0073)" class="st1 st9 st10">Worse general health</text>
		<text transform="matrix(1 0 0 1 118.1755 914.0073)" class="st1 st9 st10">Increase in mortality</text>
	</g>
	<g>
		<rect x="118.2" y="766.4" class="st8" width="283.7" height="57.7"/>
		<text transform="matrix(1 0 0 1 118.175 790.5229)" class="st1 st9 st11">GENERAL/OTHERS</text>
	</g>
	<line class="st12" x1="614.4" y1="744" x2="118.2" y2="742.3"/>
	<g>
		<circle class="st7" cx="106.8" cy="834" r="5.5"/>
	</g>
	<circle class="st7" cx="106.8" cy="870" r="5.5"/>
	<circle class="st7" cx="106.8" cy="905.9" r="5.5"/>
	<circle class="st7" cx="106.8" cy="180.6" r="5.5"/>
</g>
</svg>
