<?xml version="1.0" encoding="utf-8"?>
<!-- Generator: Adobe Illustrator 19.0.0, SVG Export Plug-In . SVG Version: 6.00 Build 0)  -->
<svg version="1.1" id="Capa_1" xmlns="http://www.w3.org/2000/svg" xmlns:xlink="http://www.w3.org/1999/xlink" x="0px" y="0px"
	 viewBox="570 -225.3 1440 1451.3" style="enable-background:new 570 -225.3 1440 1451.3;" xml:space="preserve">
<style type="text/css">
	.st0{fill:#F4F4F4;}
	.st1{fill:#181716;}
	.st2{fill:#C1D9AE;}
	.st3{fill:#FBE2E0;}
	.st4{fill:#F8D2D0;}
	.st5{fill:none;stroke:#F0A0A0;stroke-width:6.0028;stroke-linecap:round;stroke-miterlimit:10;}
	.st6{fill:#F0A0A0;}
	.st7{fill:#3AA336;}
	.st8{fill:none;}
	.st9{enable-background:new    ;}
	.st10{fill:none;stroke:#181716;stroke-width:1.5003;stroke-miterlimit:10;}
</style>
<g id="bg">
	<rect x="570" y="-226" class="st0" width="1440" height="1452.7"/>
	<rect x="570" y="1019.3" class="st1" width="1440" height="207.3"/>
</g>
<g id="cos_1_">
	<g>
		<g>
			<path class="st2" d="M1291.6-169c-0.4,0-0.7,0-1,0s-0.7,0-1,0c-44.9-0.4-62.4,35.1-59.8,80.4c2.5,44.3,19.6,91.2,60.6,92.1l0,0
				c0.1,0,0.2,0,0.3,0s0.2,0,0.3,0l0,0c41-0.9,58.1-47.8,60.6-92.1C1354-133.9,1336.6-169.4,1291.6-169z"/>
			<g>
				
					<ellipse transform="matrix(-0.1335 0.991 -0.991 -0.1335 1458.7888 -1418.2954)" class="st2" cx="1349.4" cy="-71.4" rx="23.8" ry="8"/>
				
					<ellipse transform="matrix(-0.991 0.1335 -0.1335 -0.991 2443.3459 -306.5164)" class="st2" cx="1231.9" cy="-71.3" rx="8" ry="23.8"/>
			</g>
			<rect x="1255.5" y="-28.8" class="st2" width="70.1" height="73.1"/>
			<g>
				<path class="st2" d="M1303.5,77.3l-48.1-73.8l0,0c0,20.9-16.9,37.8-37.8,37.8l0,0L1303.5,77.3z"/>
				<path class="st2" d="M1277.7,77.3l48.1-73.8l0,0c0,20.9,16.9,37.8,37.8,37.8l0,0L1277.7,77.3z"/>
			</g>
		</g>
		<g>
			<rect x="1201" y="41" class="st2" width="178.7" height="281.4"/>
			<path class="st2" d="M1173.6,79.5H1407v86.2c0,35.4-28.7,64-64,64h-105.4c-35.4,0-64-28.7-64-64V79.5z"/>
			<path class="st2" d="M1127.7,162.8h325.1v-59.3c0-34.5-28-62.4-62.4-62.4h-200.2c-34.5,0-62.4,28-62.4,62.4L1127.7,162.8
				L1127.7,162.8z"/>
			<path class="st2" d="M1379.6,322.4h-89.4v196.1h127.1c0,0,0-24.5,0-74.5C1417.4,396.1,1379.6,322.4,1379.6,322.4z"/>
			<path class="st2" d="M1200.9,322.4h89.4v196.1h-127.1c0,0,0-24.5,0-74.5C1163.2,396.1,1200.9,322.4,1200.9,322.4z"/>
			<g>
				<path class="st2" d="M1375.6,769.6c0,19.3-77.1,0-77.1,0v-251c0,0,118.8-29.7,118.8,0C1417.4,625.3,1375.6,740.5,1375.6,769.6z"
					/>
				<path class="st2" d="M1354.5,1084.4h-41l-14.9-314.8h76.9c0,0,6.4,92.3,6.4,123.2C1381.8,979.4,1354.5,1084.4,1354.5,1084.4z"/>
				<path class="st2" d="M1362.3,1179.4c-0.1,2.3-2.4,6-4.9,9.3c-3.8,5-9.7,7.8-15.9,7.8h-29.7c-7,0-12.4-6.1-11.4-13.1l13.1-99h41
					C1354.4,1084.4,1363.3,1150.2,1362.3,1179.4z"/>
			</g>
			<g>
				<path class="st2" d="M1204.9,769.6c0,19.3,77.1,0,77.1,0v-251c0,0-118.8-29.7-118.8,0C1163.2,625.3,1204.9,740.5,1204.9,769.6z"
					/>
				<path class="st2" d="M1226.1,1084.4h41l14.9-314.8h-76.9c0,0-6.4,92.3-6.4,123.2C1198.8,979.4,1226.1,1084.4,1226.1,1084.4z"/>
				<path class="st2" d="M1218.3,1179.4c0.1,2.3,2.4,6,4.9,9.3c3.8,5,9.7,7.8,15.9,7.8h29.7c7,0,12.4-6.1,11.4-13.1l-13.1-99h-41
					C1226.2,1084.4,1217.2,1150.2,1218.3,1179.4z"/>
			</g>
			<polygon class="st2" points="1473.3,312 1427.4,317.4 1399.5,100 1452.7,93.8 			"/>
			<path class="st2" d="M1488.1,496.7l-27,3.1l-33.7-182.5c0,0,42.4-39.8,43.8-27.7c2.5,21.5,8.9,43.4,12.1,73.1
				C1486.9,396.1,1488.1,496.7,1488.1,496.7z"/>
			<path class="st2" d="M1488.1,496.7v41.4c0,8.9-2.7,17.6-7.9,24.9l-32.9,46.8c-2.7,3.9-8,4.9-11.9,2.3l0,0
				c-3.7-2.4-5-7.1-3.1-11.1l20.4-42.3l-2.8-15.3l-14.6,28.8c-0.7,1.3-2.2,2-3.7,1.6l0,0c-1.5-0.4-2.5-1.9-2.3-3.4l3.1-27.7
				c0.8-7.2,3.3-14.1,7.4-20.1l21.2-22.9L1488.1,496.7z"/>
			<g>
				<polygon class="st2" points="1107.9,312 1153.8,317.4 1181.6,100 1128.5,93.8 				"/>
				<path class="st2" d="M1093.1,496.7l27,3.1l33.7-182.5c0,0-42.4-39.8-43.8-27.7c-2.5,21.5-8.9,43.4-12.1,73.1
					C1094.3,396.1,1093.1,496.7,1093.1,496.7z"/>
				<path class="st2" d="M1093.1,496.7v41.4c0,8.9,2.7,17.6,7.9,24.9l32.9,46.8c2.7,3.9,8,4.9,11.9,2.3l0,0c3.7-2.4,5-7.1,3.1-11.1
					l-20.4-42.3l2.8-15.3l14.6,28.8c0.7,1.3,2.2,2,3.7,1.6l0,0c1.5-0.4,2.5-1.9,2.3-3.4l-3.1-27.7c-0.8-7.2-3.3-14.1-7.4-20.1
					l-21.2-22.9L1093.1,496.7z"/>
			</g>
		</g>
	</g>
	<g>
		<g>
			<path class="st3" d="M1308.1,47.7L1308.1,47.7c3.9-2.5,8.4-3.9,13.1-3.9h6.3c7.9,0.5,12.9,3.1,16,7.1
				c21.4,27.7,48.6,65,55.8,114.3c1.7,11.9-15.2,35.7-19.8,39.1c-55.8,41.5-87.2-27.9-87.2-27.9l5-109.7
				C1297.6,59,1301.6,51.9,1308.1,47.7z"/>
			<circle class="st3" cx="1344.7" cy="170.4" r="54.6"/>
		</g>
		<g>
			<path class="st3" d="M1273.8,47.7L1273.8,47.7c-3.9-2.5-8.4-3.9-13.1-3.9h-6.3c-7.9,0.5-12.9,3.1-16,7.1
				c-21.4,27.7-48.6,65-55.8,114.3c-1.7,11.9,15.2,35.7,19.8,39.1c55.8,41.5,87.2-27.9,87.2-27.9l17.6-99l-22.5-10.6
				C1284.4,59,1280.3,51.9,1273.8,47.7z"/>
			<circle class="st3" cx="1237.3" cy="170.4" r="54.6"/>
		</g>
	</g>
	<path class="st4" d="M1290.6,490.1L1290.6,490.1c-30.3,0-54.9-24.6-54.9-54.9v-61.7c0-30.3,24.6-54.9,54.9-54.9l0,0
		c30.3,0,54.9,24.6,54.9,54.9v61.7C1345.5,465.5,1320.9,490.1,1290.6,490.1z"/>
	<g>
		<g>
			<g>
				<circle class="st4" cx="1258.2" cy="169.1" r="22.4"/>
				<circle class="st4" cx="1228.4" cy="179.9" r="24.4"/>
				<circle class="st4" cx="1267.1" cy="104.2" r="13.5"/>
				<rect x="1250.8" y="104.2" class="st4" width="29.9" height="61"/>
				<path class="st4" d="M1204.9,173.3c13.2-52.4,53.6-79.5,53.6-79.5l5.4,70.4C1264,164.1,1201.2,187.8,1204.9,173.3z"/>
			</g>
			<g>
				<circle class="st4" cx="1323.7" cy="169.1" r="22.4"/>
				<circle class="st4" cx="1353.6" cy="179.9" r="24.4"/>
				<circle class="st4" cx="1314.9" cy="104.2" r="13.5"/>
				<rect x="1301.3" y="104.2" class="st4" width="29.9" height="61"/>
				<path class="st4" d="M1377.1,173.3c-13.2-52.4-53.6-79.5-53.6-79.5l-5.4,70.4C1318,164.1,1380.7,187.8,1377.1,173.3z"/>
			</g>
		</g>
		<rect x="1283.5" y="43.3" class="st4" width="14.9" height="56.1"/>
		<g>
			
				<rect x="1301.2" y="87.8" transform="matrix(0.7071 -0.7071 0.7071 0.7071 301.3832 959.253)" class="st4" width="14.9" height="56.1"/>
			
				<rect x="1265.9" y="87.8" transform="matrix(-0.7071 -0.7071 0.7071 -0.7071 2091.8228 1098.1621)" class="st4" width="14.9" height="56.1"/>
		</g>
	</g>
	<g>
		<path class="st5" d="M1458.7,535.5c0,0,20.9-17.7,20.3-35.7c-1.6-43.9,1.6-76-1.6-100.3c-8-60.9-24.9-73-27.9-100.5
			c-2.6-23.1,5-164.8-13-199.7c-19.1-36.9-65.2-41.5-97.4-33c-22.8,6-28.3,24.1-30.4,35.6c-1.6,8.8-1.8,16.5,2.7,35.8"/>
		<path class="st5" d="M1389.9,65.2c23.7,6.2,25.7,29.3,27.5,56.9s33.3,135.3,30.9,171.2c-2.4,35.9-1.1,91.7,6.5,115.8
			s21.6,54.8,23.8,80.9"/>
		<path class="st5" d="M1123.5,535.5c0,0-20.9-17.7-20.3-35.7c1.6-43.9-1.6-76,1.6-100.3c8-60.9,24.9-73,27.9-100.5
			c2.6-23.1-5-164.8,13-199.7c19.1-36.9,65.2-41.5,97.4-33c22.8,6,47.4,21.8,51.6,35.6c2.6,8.6,8.6,16.5,4.2,35.8"/>
		<path class="st5" d="M1192.4,65.2c-23.7,6.2-25.7,29.3-27.5,56.9s-33.3,135.3-30.9,171.2c2.4,35.9,1.1,91.7-6.5,115.8
			s-21.6,54.8-23.8,80.9"/>
		<path class="st5" d="M1339,66.4c0,0-23.1-47.7-24.2-62.9c-1.1-15.2,13.1-41.3,23.2-68.4c5.7-15.3,5-30.2,3.3-40.3
			c-1.3-7.6-6.4-14-13.5-16.9l-4.6-1.9"/>
		<line class="st5" x1="1314.9" y1="0.1" x2="1320.7" y2="75.7"/>
		<path class="st5" d="M1241.8,65.5c0,0,23.1-46.8,24.2-62s-13.1-41.3-23.2-68.4c-6.5-17.4-4.7-34.3-2.5-44.1
			c1.2-5.4,4.3-10.1,8.7-13.3l4.8-3.5"/>
		<line class="st5" x1="1265.9" y1="0.1" x2="1260.1" y2="72.3"/>
		<path class="st5" d="M1294.7,185.9c0,0-3.9,223.5,0.4,234.6c4.3,11.1,78.3,67.9,82.1,115c8.8,108-27.9,228.6-29.6,234.1
			c-6.6,21.4,19,145.2,13.3,195.2s-26.4,117.2-29.7,141.5c-3.2,24.3-5.6,54.3-5.6,54.3"/>
		<path class="st5" d="M1323.7,451.1c13,13.8,18.6,46.7,16.4,84.3c-2.1,37.6,8.4,197.7,2.4,249.2s-18.1,154.4-14.2,193
			c3.9,38.6,7.1,90.2,2.9,128.7"/>
		<path class="st5" d="M1293.6,417.1c-4.3,11.1-86.7,71.3-90.5,118.4c-8.8,108,27.9,228.6,29.6,234.1c6.6,21.4-19,145.2-13.3,195.2
			c5.7,50,26.4,117.2,29.7,141.5c3.2,24.3,5.6,54.3,5.6,54.3"/>
		<path class="st5" d="M1256.9,453.3c-13,13.8-19,44.6-16.9,82.2c2.1,37.6-8.4,197.7-2.4,249.2s18.1,154.4,14.2,193
			c-3.9,38.6-7.1,90.2-2.9,128.7"/>
	</g>
	<path class="st6" d="M1296.1,114.7c0,0,4.3,6.4,3.8,7.8c-0.4,1.4-3.7,2.6-7.2,11c-2.3,5.8,0.9,11.3-0.6,12.4
		c-1.6,1.1-5.7,7.9-6.9,10.2c-8.9,16.7,4,34.6,13.3,41.2c9.3,6.5,18.4,6.7,24.3,9.3c8.2,3.5,19,5.8,25.3-5.3c0,0,4.1-8.5-1-24.1
		c-2.9-8.9-6.4-15.4-8.1-17.8c-5.5-7.7-11.2-11.2-13.8-12.6c-1.4-0.7-0.8-3.8,2-5c2.8-1.3,6-0.3,6-0.3l1-4c0,0-3.9-1.3-5.8-0.9
		c-1.9,0.3,2.1-4.2,2.3-7.3c0,0-2.7-2.3-4.4-1.7c0,0-1,3.7-3.5,7.7c0,0,1-9.6-5.9-14.6c0,0,1.6-8.1,2.1-8.8c0,0-3.2-1.7-4.5-1.4
		c0,0-1.9,8.1-2.2,8.3c-0.3,0.2-0.9,1.2-1.5,0.2c-0.6-1-0.8-9.6-0.8-9.6l-4.4,0.5c0,0,1.9,9.3,0.7,9.8c-0.4,0.2-0.8,0.8-1.6,0.1
		c-2.1-1.8-4.3-6.9-4.3-7.3C1300.3,111.9,1296.1,114.7,1296.1,114.7z"/>
	<g>
		<circle class="st7" cx="1257.3" cy="-126.5" r="13.6"/>
		<circle class="st7" cx="1277.6" cy="-138.1" r="14.7"/>
		<circle class="st7" cx="1300.2" cy="-139.5" r="16.3"/>
		<circle class="st7" cx="1251" cy="-121" r="8.1"/>
		<circle class="st7" cx="1330.6" cy="-121" r="8.1"/>
		<circle class="st7" cx="1319.6" cy="-132.5" r="11"/>
		<rect x="1251" y="-126.5" class="st7" width="79.6" height="13.6"/>
		<rect x="1276.5" y="-135.5" class="st7" width="14.3" height="17.6"/>
	</g>
	<g>
		<rect x="688.1" y="-55.2" class="st8" width="380.7" height="354.3"/>
		<g class="st9">
			<path class="st1" d="M698.6-49.8c0,0.7-0.1,1.4-0.4,2c-0.2,0.6-0.6,1.1-1,1.5s-0.9,0.7-1.5,0.9c-0.6,0.2-1.3,0.3-2,0.3h-1.9v7.5
				h-2.4v-16.6h4.3c1.6,0,2.8,0.4,3.6,1.1S698.6-51.3,698.6-49.8z M691.8-52.2v5.1h1.8c0.8,0,1.5-0.2,1.9-0.7
				c0.4-0.5,0.6-1.1,0.6-1.9c0-0.8-0.2-1.4-0.6-1.8c-0.4-0.4-1.1-0.7-1.9-0.7H691.8z"/>
			<path class="st1" d="M705.4-48.2h-0.6c-0.8,0-1.4,0.2-1.7,0.6c-0.4,0.4-0.5,1-0.5,1.8v8.1h-2.3v-12.8h2.3v1.2
				c0.2-0.4,0.6-0.7,1-0.9s1.1-0.4,1.8-0.3V-48.2z"/>
			<path class="st1" d="M705.7-44.1c0-1,0.2-1.9,0.5-2.7c0.3-0.8,0.8-1.5,1.4-2.1c0.6-0.6,1.3-1.1,2.1-1.4c0.8-0.3,1.7-0.5,2.6-0.5
				c1,0,1.8,0.2,2.7,0.5s1.5,0.8,2.1,1.4c0.6,0.6,1,1.3,1.4,2.1c0.3,0.8,0.5,1.7,0.5,2.7s-0.2,1.8-0.5,2.7c-0.3,0.8-0.8,1.5-1.4,2.1
				c-0.6,0.6-1.3,1-2.1,1.4c-0.8,0.3-1.7,0.5-2.6,0.5c-1,0-1.8-0.2-2.7-0.5c-0.8-0.3-1.5-0.8-2.1-1.4c-0.6-0.6-1-1.3-1.4-2.1
				C705.9-42.2,705.7-43.1,705.7-44.1z M708-44.1c0,0.7,0.1,1.3,0.3,1.8c0.2,0.6,0.5,1,0.9,1.4c0.4,0.4,0.8,0.7,1.4,1
				c0.5,0.2,1.1,0.3,1.7,0.3c0.6,0,1.2-0.1,1.8-0.3c0.5-0.2,1-0.5,1.4-1c0.4-0.4,0.7-0.9,0.9-1.4c0.2-0.6,0.3-1.2,0.3-1.8
				c0-0.7-0.1-1.3-0.3-1.8c-0.2-0.6-0.5-1-0.9-1.5s-0.8-0.7-1.4-1c-0.5-0.2-1.1-0.3-1.7-0.3c-0.6,0-1.2,0.1-1.8,0.3
				c-0.5,0.2-1,0.5-1.4,1c-0.4,0.4-0.7,0.9-0.9,1.5C708.1-45.3,708-44.7,708-44.1z"/>
			<path class="st1" d="M722.9-37.6h-2.2v-17.5h2.3v6.5c0.2-0.2,0.4-0.5,0.7-0.7c0.3-0.2,0.6-0.5,1-0.6c0.4-0.2,0.8-0.3,1.3-0.5
				c0.5-0.1,1-0.2,1.5-0.2c1,0,1.8,0.2,2.6,0.5c0.8,0.3,1.5,0.8,2,1.3c0.6,0.6,1,1.3,1.3,2.1c0.3,0.8,0.5,1.7,0.5,2.7
				c0,0.9-0.2,1.8-0.5,2.6s-0.8,1.5-1.3,2.1c-0.6,0.6-1.3,1.1-2.1,1.4c-0.8,0.3-1.7,0.5-2.7,0.5c-0.6,0-1.1-0.1-1.5-0.2
				s-0.9-0.3-1.3-0.5s-0.7-0.4-1-0.6c-0.3-0.2-0.5-0.4-0.6-0.6V-37.6z M722.9-44.1c0,0.7,0.1,1.3,0.3,1.8c0.2,0.6,0.5,1,0.9,1.5
				s0.8,0.7,1.4,0.9c0.5,0.2,1.1,0.3,1.8,0.3s1.2-0.1,1.8-0.3c0.5-0.2,1-0.5,1.4-0.9s0.7-0.9,0.9-1.5c0.2-0.6,0.3-1.2,0.3-1.8
				c0-0.7-0.1-1.3-0.3-1.8c-0.2-0.6-0.5-1-0.9-1.5c-0.4-0.4-0.8-0.7-1.4-1c-0.5-0.2-1.1-0.3-1.8-0.3c-0.7,0-1.2,0.1-1.8,0.3
				c-0.5,0.2-1,0.6-1.4,1s-0.7,0.9-0.9,1.5C723-45.3,722.9-44.7,722.9-44.1z"/>
			<path class="st1" d="M737.9-37.6h-2.3v-17.5h2.3V-37.6z"/>
			<path class="st1" d="M742-43.4c0.1,1.2,0.5,2.2,1.2,2.9c0.7,0.7,1.7,1,2.9,1c1,0,1.8-0.2,2.5-0.7s1.1-1.1,1.5-1.8l1.8,0.9
				c-0.2,0.5-0.5,1-0.8,1.4c-0.3,0.4-0.8,0.8-1.2,1.2c-0.5,0.3-1,0.6-1.6,0.8c-0.6,0.2-1.3,0.3-2.1,0.3c-1,0-1.8-0.2-2.6-0.5
				c-0.8-0.3-1.5-0.8-2.1-1.3s-1-1.3-1.3-2.1c-0.3-0.8-0.5-1.7-0.5-2.7c0-1,0.2-1.9,0.5-2.7c0.3-0.8,0.7-1.5,1.3-2.1
				c0.6-0.6,1.2-1.1,2-1.4c0.8-0.3,1.6-0.5,2.5-0.5c0.9,0,1.8,0.1,2.6,0.4c0.8,0.3,1.4,0.7,2,1.3s1,1.2,1.3,2
				c0.3,0.8,0.5,1.6,0.5,2.6c0,0.1,0,0.3,0,0.5c0,0.2,0,0.4,0,0.6H742z M745.9-48.7c-1.1,0-1.9,0.3-2.6,0.9
				c-0.7,0.6-1.1,1.5-1.2,2.6h7.8c-0.1-1.1-0.5-1.9-1.2-2.5C747.9-48.4,747-48.7,745.9-48.7z"/>
			<path class="st1" d="M762.8-37.6h-2.3v-8.2c0-0.8-0.2-1.5-0.5-2c-0.4-0.5-0.9-0.7-1.6-0.7c-0.8,0-1.3,0.3-1.7,0.8
				c-0.4,0.5-0.6,1.2-0.6,2.1v8.1h-2.3v-12.8h2.3v1.2c0.1-0.1,0.2-0.3,0.4-0.4c0.2-0.2,0.4-0.3,0.6-0.4c0.2-0.1,0.5-0.2,0.8-0.3
				s0.7-0.1,1.1-0.1c0.8,0,1.5,0.2,2,0.5c0.5,0.3,0.9,0.7,1.1,1.2c0.3-0.5,0.7-0.9,1.2-1.2c0.5-0.3,1.2-0.5,2.1-0.5
				c0.7,0,1.4,0.1,1.9,0.3c0.5,0.2,1,0.6,1.3,1s0.6,0.9,0.7,1.4c0.2,0.5,0.2,1.1,0.2,1.7v8.5h-2.3v-8.3c0-0.8-0.2-1.5-0.5-2
				c-0.4-0.5-0.9-0.7-1.7-0.7c-0.7,0-1.3,0.2-1.7,0.7s-0.6,1.1-0.6,1.9V-37.6z"/>
			<path class="st1" d="M773.6-43.4c0.1,1.2,0.5,2.2,1.2,2.9c0.7,0.7,1.7,1,2.9,1c1,0,1.8-0.2,2.5-0.7s1.1-1.1,1.5-1.8l1.8,0.9
				c-0.2,0.5-0.5,1-0.8,1.4c-0.3,0.4-0.8,0.8-1.2,1.2c-0.5,0.3-1,0.6-1.6,0.8c-0.6,0.2-1.3,0.3-2.1,0.3c-1,0-1.8-0.2-2.6-0.5
				c-0.8-0.3-1.5-0.8-2.1-1.3s-1-1.3-1.3-2.1c-0.3-0.8-0.5-1.7-0.5-2.7c0-1,0.2-1.9,0.5-2.7c0.3-0.8,0.7-1.5,1.3-2.1
				c0.6-0.6,1.2-1.1,2-1.4c0.8-0.3,1.6-0.5,2.5-0.5c0.9,0,1.8,0.1,2.6,0.4c0.8,0.3,1.4,0.7,2,1.3s1,1.2,1.3,2
				c0.3,0.8,0.5,1.6,0.5,2.6c0,0.1,0,0.3,0,0.5c0,0.2,0,0.4,0,0.6H773.6z M777.5-48.7c-1.1,0-1.9,0.3-2.6,0.9
				c-0.7,0.6-1.1,1.5-1.2,2.6h7.8c-0.1-1.1-0.5-1.9-1.2-2.5C779.5-48.4,778.6-48.7,777.5-48.7z"/>
			<path class="st1" d="M787.2-47.3c0,0.8,0.4,1.3,1.3,1.6c0.3,0.1,0.7,0.2,1,0.3s0.7,0.2,1,0.3c0.9,0.3,1.6,0.8,2.1,1.3
				c0.5,0.6,0.7,1.3,0.7,2.4c0,0.6-0.1,1.2-0.3,1.7c-0.2,0.5-0.5,0.9-0.9,1.2c-0.4,0.3-0.9,0.6-1.4,0.7c-0.5,0.2-1.1,0.2-1.7,0.2
				c-0.8,0-1.5-0.1-2.1-0.3c-0.6-0.2-1-0.5-1.3-0.9c-0.3-0.4-0.6-0.8-0.7-1.3s-0.2-1-0.2-1.6h2.2c0,0.3,0,0.6,0.1,0.9
				c0.1,0.3,0.2,0.5,0.4,0.7s0.4,0.4,0.6,0.5s0.6,0.2,1,0.2c0.6,0,1-0.1,1.5-0.4c0.4-0.3,0.6-0.7,0.6-1.3c0-0.5-0.1-0.9-0.4-1.2
				c-0.3-0.3-0.6-0.5-1.1-0.7c-0.4-0.1-0.7-0.2-1.1-0.3c-0.4-0.1-0.8-0.2-1.2-0.4c-0.8-0.4-1.4-0.8-1.8-1.4c-0.4-0.6-0.5-1.2-0.5-2
				c0-0.5,0.1-1,0.3-1.4c0.2-0.4,0.5-0.8,0.8-1.1c0.4-0.3,0.8-0.5,1.3-0.7c0.5-0.2,1-0.3,1.6-0.3c1.3,0,2.3,0.4,3,1.1
				c0.6,0.7,1,1.7,1,2.8h-2.1c0-0.7-0.2-1.2-0.5-1.5s-0.8-0.6-1.4-0.6c-0.5,0-1,0.1-1.3,0.4S787.2-47.8,787.2-47.3z"/>
			<path class="st1" d="M809.1-39.5c-0.2,0.2-0.4,0.5-0.7,0.7c-0.3,0.3-0.6,0.5-1,0.7c-0.4,0.2-0.8,0.4-1.3,0.5s-1,0.2-1.5,0.2
				c-1,0-1.8-0.2-2.7-0.5c-0.8-0.3-1.5-0.8-2.1-1.4s-1-1.3-1.3-2.1c-0.3-0.8-0.5-1.7-0.5-2.7c0-0.9,0.2-1.8,0.5-2.6
				c0.3-0.8,0.8-1.5,1.3-2.1c0.6-0.6,1.3-1.1,2.1-1.4s1.7-0.5,2.6-0.5c1,0,1.9,0.2,2.6,0.6c0.7,0.4,1.3,0.8,1.7,1.3v-6.3h2.3v17.5
				h-2.2V-39.5z M800.4-44.1c0,0.7,0.1,1.3,0.3,1.8c0.2,0.6,0.5,1,0.9,1.5c0.4,0.4,0.8,0.7,1.4,0.9c0.5,0.2,1.1,0.3,1.7,0.3
				c0.6,0,1.2-0.1,1.8-0.3c0.5-0.2,1-0.5,1.4-0.9c0.4-0.4,0.7-0.9,0.9-1.5c0.2-0.6,0.3-1.2,0.3-1.8c0-0.7-0.1-1.3-0.3-1.8
				c-0.2-0.6-0.5-1-0.9-1.5c-0.4-0.4-0.8-0.7-1.4-1c-0.5-0.2-1.1-0.3-1.8-0.3c-0.6,0-1.2,0.1-1.8,0.3c-0.5,0.2-1,0.6-1.4,1
				c-0.4,0.4-0.7,0.9-0.9,1.5C800.5-45.3,800.4-44.7,800.4-44.1z"/>
			<path class="st1" d="M815.4-43.4c0.1,1.2,0.5,2.2,1.2,2.9c0.7,0.7,1.7,1,2.9,1c1,0,1.8-0.2,2.5-0.7s1.1-1.1,1.5-1.8l1.8,0.9
				c-0.2,0.5-0.5,1-0.8,1.4c-0.3,0.4-0.8,0.8-1.2,1.2c-0.5,0.3-1,0.6-1.6,0.8c-0.6,0.2-1.3,0.3-2.1,0.3c-1,0-1.8-0.2-2.6-0.5
				c-0.8-0.3-1.5-0.8-2.1-1.3s-1-1.3-1.3-2.1c-0.3-0.8-0.5-1.7-0.5-2.7c0-1,0.2-1.9,0.5-2.7c0.3-0.8,0.7-1.5,1.3-2.1
				c0.6-0.6,1.2-1.1,2-1.4c0.8-0.3,1.6-0.5,2.5-0.5c0.9,0,1.8,0.1,2.6,0.4c0.8,0.3,1.4,0.7,2,1.3s1,1.2,1.3,2
				c0.3,0.8,0.5,1.6,0.5,2.6c0,0.1,0,0.3,0,0.5c0,0.2,0,0.4,0,0.6H815.4z M819.2-48.7c-1.1,0-1.9,0.3-2.6,0.9
				c-0.7,0.6-1.1,1.5-1.2,2.6h7.8c-0.1-1.1-0.5-1.9-1.2-2.5C821.3-48.4,820.4-48.7,819.2-48.7z"/>
			<path class="st1" d="M832.7-47.3c0,0.8,0.4,1.3,1.3,1.6c0.3,0.1,0.7,0.2,1,0.3s0.7,0.2,1,0.3c0.9,0.3,1.6,0.8,2.1,1.3
				c0.5,0.6,0.7,1.3,0.7,2.4c0,0.6-0.1,1.2-0.3,1.7c-0.2,0.5-0.5,0.9-0.9,1.2c-0.4,0.3-0.9,0.6-1.4,0.7c-0.5,0.2-1.1,0.2-1.7,0.2
				c-0.8,0-1.5-0.1-2.1-0.3c-0.6-0.2-1-0.5-1.3-0.9c-0.3-0.4-0.6-0.8-0.7-1.3s-0.2-1-0.2-1.6h2.2c0,0.3,0,0.6,0.1,0.9
				c0.1,0.3,0.2,0.5,0.4,0.7s0.4,0.4,0.6,0.5s0.6,0.2,1,0.2c0.6,0,1-0.1,1.5-0.4c0.4-0.3,0.6-0.7,0.6-1.3c0-0.5-0.1-0.9-0.4-1.2
				c-0.3-0.3-0.6-0.5-1.1-0.7c-0.4-0.1-0.7-0.2-1.1-0.3c-0.4-0.1-0.8-0.2-1.2-0.4c-0.8-0.4-1.4-0.8-1.8-1.4c-0.4-0.6-0.5-1.2-0.5-2
				c0-0.5,0.1-1,0.3-1.4c0.2-0.4,0.5-0.8,0.8-1.1c0.4-0.3,0.8-0.5,1.3-0.7c0.5-0.2,1-0.3,1.6-0.3c1.3,0,2.3,0.4,3,1.1
				c0.6,0.7,1,1.7,1,2.8h-2.1c0-0.7-0.2-1.2-0.5-1.5s-0.8-0.6-1.4-0.6c-0.5,0-1,0.1-1.3,0.4S832.7-47.8,832.7-47.3z"/>
			<path class="st1" d="M840-41.7c0-0.6,0.1-1.2,0.3-1.7c0.2-0.5,0.5-1,0.9-1.3c0.4-0.4,0.8-0.7,1.4-0.9c0.5-0.2,1.1-0.3,1.8-0.3
				c0.7,0,1.2,0.1,1.7,0.3c0.4,0.2,0.8,0.4,1,0.6v-1.1c0-0.8-0.2-1.5-0.6-1.9c-0.4-0.4-0.9-0.7-1.7-0.7c-0.8,0-1.3,0.2-1.6,0.6
				c-0.3,0.4-0.5,0.9-0.5,1.4h-2.1c0-0.6,0.1-1.1,0.3-1.6c0.2-0.5,0.5-0.9,0.8-1.2c0.4-0.3,0.8-0.6,1.3-0.8c0.5-0.2,1.2-0.3,1.9-0.3
				c0.8,0,1.5,0.1,2.1,0.3c0.6,0.2,1,0.5,1.4,0.9c0.4,0.4,0.6,0.9,0.8,1.5c0.2,0.6,0.3,1.2,0.3,1.9v8.3h-2v-1
				c-0.3,0.4-0.7,0.6-1.2,0.9c-0.5,0.2-1.1,0.3-1.7,0.3c-0.6,0-1.2-0.1-1.7-0.3c-0.5-0.2-1-0.5-1.4-0.9c-0.4-0.4-0.7-0.8-0.9-1.4
				C840.1-40.5,840-41.1,840-41.7z M842.2-41.8c0,0.7,0.2,1.3,0.7,1.7c0.4,0.5,1,0.7,1.7,0.7c0.7,0,1.3-0.2,1.8-0.7
				c0.5-0.5,0.7-1,0.7-1.7c0-0.7-0.2-1.3-0.7-1.7s-1.1-0.7-1.8-0.7c-0.7,0-1.3,0.2-1.7,0.7C842.5-43,842.2-42.5,842.2-41.8z"/>
			<path class="st1" d="M853.9-37.6h-2.3v-17.5h2.3V-37.6z"/>
			<path class="st1" d="M858.4-42.3c0,0.9,0.2,1.5,0.5,2c0.4,0.5,0.9,0.7,1.7,0.7s1.3-0.3,1.7-0.8c0.4-0.5,0.6-1.2,0.6-2v-8.2h2.3
				v12.8H863v-1.2c-0.2,0.3-0.5,0.6-1,0.9s-1.1,0.4-1.9,0.4c-0.7,0-1.3-0.1-1.8-0.3s-0.9-0.6-1.2-1c-0.3-0.4-0.6-0.9-0.7-1.4
				c-0.1-0.5-0.2-1.1-0.2-1.8v-8.5h2.3V-42.3z"/>
			<path class="st1" d="M870.3-50.5h2.4v1.9h-2.4v7.3c0,0.6,0.1,1,0.3,1.3c0.2,0.3,0.6,0.4,1.2,0.4h0.9v1.9c-0.1,0-0.3,0-0.5,0.1
				s-0.6,0.1-0.9,0.1c-1.2,0-2-0.3-2.5-0.8s-0.7-1.4-0.7-2.4v-7.8h-1.3v-1.9h1.3v-2h2.3V-50.5z"/>
			<path class="st1" d="M887-37.6h-2.3v-8.2c0-0.8-0.2-1.5-0.5-2c-0.4-0.5-0.9-0.7-1.6-0.7c-0.8,0-1.3,0.3-1.7,0.8
				c-0.4,0.5-0.6,1.2-0.6,2.1v8.1H878v-12.8h2.3v1.2c0.1-0.1,0.2-0.3,0.4-0.4s0.4-0.3,0.6-0.4c0.2-0.1,0.5-0.2,0.8-0.3
				c0.3-0.1,0.7-0.1,1.1-0.1c0.8,0,1.5,0.2,2,0.5c0.5,0.3,0.9,0.7,1.1,1.2c0.3-0.5,0.7-0.9,1.2-1.2c0.5-0.3,1.2-0.5,2.1-0.5
				c0.7,0,1.4,0.1,1.9,0.3c0.5,0.2,1,0.6,1.3,1s0.6,0.9,0.7,1.4c0.2,0.5,0.2,1.1,0.2,1.7v8.5h-2.3v-8.3c0-0.8-0.2-1.5-0.5-2
				c-0.4-0.5-0.9-0.7-1.7-0.7c-0.7,0-1.3,0.2-1.7,0.7s-0.6,1.1-0.6,1.9V-37.6z"/>
			<path class="st1" d="M897.7-43.4c0.1,1.2,0.5,2.2,1.2,2.9c0.7,0.7,1.7,1,2.9,1c1,0,1.8-0.2,2.5-0.7s1.1-1.1,1.5-1.8l1.8,0.9
				c-0.2,0.5-0.5,1-0.8,1.4c-0.3,0.4-0.8,0.8-1.2,1.2c-0.5,0.3-1,0.6-1.6,0.8s-1.3,0.3-2.1,0.3c-1,0-1.8-0.2-2.6-0.5
				c-0.8-0.3-1.5-0.8-2.1-1.3s-1-1.3-1.3-2.1c-0.3-0.8-0.5-1.7-0.5-2.7c0-1,0.2-1.9,0.5-2.7c0.3-0.8,0.7-1.5,1.3-2.1
				c0.6-0.6,1.2-1.1,2-1.4c0.8-0.3,1.6-0.5,2.5-0.5c0.9,0,1.8,0.1,2.6,0.4c0.8,0.3,1.4,0.7,2,1.3c0.5,0.5,1,1.2,1.3,2
				c0.3,0.8,0.5,1.6,0.5,2.6c0,0.1,0,0.3,0,0.5c0,0.2,0,0.4,0,0.6H897.7z M901.6-48.7c-1.1,0-1.9,0.3-2.6,0.9
				c-0.7,0.6-1.1,1.5-1.2,2.6h7.8c-0.1-1.1-0.5-1.9-1.2-2.5C903.7-48.4,902.7-48.7,901.6-48.7z"/>
			<path class="st1" d="M916.5-45.9c0-0.9-0.2-1.5-0.6-2c-0.4-0.5-0.9-0.7-1.7-0.7c-0.8,0-1.4,0.3-1.8,0.8s-0.6,1.2-0.6,2v8.2h-2.3
				v-12.8h2.3v1.2c0.1-0.1,0.2-0.3,0.4-0.4s0.4-0.3,0.6-0.4c0.2-0.1,0.5-0.2,0.8-0.3s0.7-0.1,1.1-0.1c0.7,0,1.4,0.1,1.9,0.4
				s0.9,0.6,1.2,1s0.6,0.9,0.7,1.4c0.1,0.5,0.2,1.1,0.2,1.8v8.5h-2.3V-45.9z"/>
			<path class="st1" d="M923.5-50.5h2.4v1.9h-2.4v7.3c0,0.6,0.1,1,0.3,1.3c0.2,0.3,0.6,0.4,1.2,0.4h0.9v1.9c-0.1,0-0.3,0-0.5,0.1
				s-0.6,0.1-0.9,0.1c-1.2,0-2-0.3-2.5-0.8s-0.7-1.4-0.7-2.4v-7.8h-1.3v-1.9h1.3v-2h2.3V-50.5z"/>
			<path class="st1" d="M926.8-41.7c0-0.6,0.1-1.2,0.3-1.7c0.2-0.5,0.5-1,0.9-1.3c0.4-0.4,0.8-0.7,1.4-0.9c0.5-0.2,1.1-0.3,1.8-0.3
				c0.7,0,1.2,0.1,1.7,0.3c0.4,0.2,0.8,0.4,1,0.6v-1.1c0-0.8-0.2-1.5-0.6-1.9c-0.4-0.4-0.9-0.7-1.7-0.7c-0.8,0-1.3,0.2-1.6,0.6
				c-0.3,0.4-0.5,0.9-0.5,1.4h-2.1c0-0.6,0.1-1.1,0.3-1.6c0.2-0.5,0.5-0.9,0.8-1.2c0.4-0.3,0.8-0.6,1.3-0.8c0.5-0.2,1.2-0.3,1.9-0.3
				c0.8,0,1.5,0.1,2.1,0.3c0.6,0.2,1,0.5,1.4,0.9c0.4,0.4,0.6,0.9,0.8,1.5c0.2,0.6,0.3,1.2,0.3,1.9v8.3h-2v-1
				c-0.3,0.4-0.7,0.6-1.2,0.9c-0.5,0.2-1.1,0.3-1.7,0.3c-0.6,0-1.2-0.1-1.7-0.3c-0.5-0.2-1-0.5-1.4-0.9c-0.4-0.4-0.7-0.8-0.9-1.4
				C926.9-40.5,926.8-41.1,926.8-41.7z M929-41.8c0,0.7,0.2,1.3,0.7,1.7c0.4,0.5,1,0.7,1.7,0.7c0.7,0,1.3-0.2,1.8-0.7
				c0.5-0.5,0.7-1,0.7-1.7c0-0.7-0.2-1.3-0.7-1.7s-1.1-0.7-1.8-0.7c-0.7,0-1.3,0.2-1.7,0.7C929.2-43,929-42.5,929-41.8z"/>
			<path class="st1" d="M940.7-37.6h-2.3v-17.5h2.3V-37.6z"/>
		</g>
	</g>
	<g>
		<rect x="688.1" y="-113.3" class="st8" width="283.7" height="41.9"/>
		<g class="st9">
			<path class="st1" d="M708.3-91.7c-0.4,0.4-0.8,0.7-1.3,1.1c-0.5,0.4-1.1,0.7-1.7,1c-0.6,0.3-1.3,0.5-2.1,0.7s-1.6,0.3-2.4,0.3
				c-1.8,0-3.4-0.3-4.8-0.9c-1.5-0.6-2.7-1.4-3.7-2.5s-1.8-2.3-2.4-3.7c-0.6-1.5-0.8-3-0.8-4.8c0-1.7,0.3-3.3,0.9-4.8
				s1.4-2.7,2.4-3.8c1-1.1,2.3-1.9,3.7-2.5c1.4-0.6,3-0.9,4.8-0.9c1.5,0,2.9,0.2,4.1,0.7s2.3,1.1,3.3,1.9l-1.9,2.4
				c-0.7-0.6-1.5-1.1-2.4-1.4s-1.9-0.6-3.1-0.6c-1.3,0-2.4,0.2-3.4,0.7c-1,0.4-1.9,1.1-2.6,1.8s-1.3,1.7-1.7,2.8
				c-0.4,1.1-0.6,2.3-0.6,3.5c0,1.3,0.2,2.5,0.6,3.6c0.4,1.1,1,2,1.7,2.8c0.7,0.8,1.6,1.4,2.7,1.8s2.2,0.7,3.4,0.7
				c1.3,0,2.4-0.2,3.3-0.7c0.9-0.5,1.7-1,2.3-1.5L708.3-91.7z"/>
			<path class="st1" d="M723.6-96.6H715l-2.8,7.5H709l8.6-22.8h3.4l9,22.8h-3.4L723.6-96.6z M716.1-99.4h6.5l-3.3-8.4L716.1-99.4z"
				/>
			<path class="st1" d="M744.3-105.8c0,1-0.2,1.9-0.5,2.7s-0.8,1.5-1.4,2c-0.6,0.5-1.3,1-2.1,1.3c-0.8,0.3-1.7,0.4-2.7,0.4h-2.7
				v10.3h-3.2V-112h5.9c2.1,0,3.8,0.5,5,1.5C743.7-109.4,744.3-107.8,744.3-105.8z M734.9-109.2v7h2.5c1.2,0,2-0.3,2.6-1
				c0.6-0.6,0.9-1.5,0.9-2.6c0-1.1-0.3-1.9-0.9-2.5c-0.6-0.6-1.5-0.9-2.6-0.9H734.9z"/>
		</g>
	</g>
	<line class="st10" x1="1300.6" y1="-135.6" x2="688.1" y2="-137.3"/>
	<g>
		<rect x="688.1" y="598.3" class="st8" width="538.6" height="474.6"/>
		<g class="st9">
			<path class="st1" d="M699.4,615.8h-2.3l-5.5-13.5v13.5h-2.2v-16.6h3.4l5.5,13.8l5.5-13.8h3.3v16.6h-2.3v-13.5L699.4,615.8z"/>
			<path class="st1" d="M709.1,609.4c0-1,0.2-1.9,0.5-2.7c0.3-0.8,0.8-1.5,1.4-2.1c0.6-0.6,1.3-1.1,2.1-1.4c0.8-0.3,1.7-0.5,2.6-0.5
				c1,0,1.8,0.2,2.7,0.5s1.5,0.8,2.1,1.4c0.6,0.6,1,1.3,1.4,2.1c0.3,0.8,0.5,1.7,0.5,2.7s-0.2,1.8-0.5,2.7c-0.3,0.8-0.8,1.5-1.4,2.1
				c-0.6,0.6-1.3,1-2.1,1.4c-0.8,0.3-1.7,0.5-2.6,0.5c-1,0-1.8-0.2-2.7-0.5c-0.8-0.3-1.5-0.8-2.1-1.4c-0.6-0.6-1-1.3-1.4-2.1
				C709.2,611.3,709.1,610.4,709.1,609.4z M711.4,609.4c0,0.7,0.1,1.3,0.3,1.8c0.2,0.6,0.5,1,0.9,1.4c0.4,0.4,0.8,0.7,1.4,1
				c0.5,0.2,1.1,0.3,1.7,0.3c0.6,0,1.2-0.1,1.8-0.3c0.5-0.2,1-0.5,1.4-1c0.4-0.4,0.7-0.9,0.9-1.4c0.2-0.6,0.3-1.2,0.3-1.8
				c0-0.7-0.1-1.3-0.3-1.8c-0.2-0.6-0.5-1-0.9-1.5s-0.8-0.7-1.4-1c-0.5-0.2-1.1-0.3-1.7-0.3c-0.6,0-1.2,0.1-1.8,0.3
				c-0.5,0.2-1,0.5-1.4,1c-0.4,0.4-0.7,0.9-0.9,1.5C711.5,608.1,711.4,608.7,711.4,609.4z"/>
			<path class="st1" d="M726.3,615.8h-2.3v-17.5h2.3V615.8z"/>
			<path class="st1" d="M730.4,610.1c0.1,1.2,0.5,2.2,1.2,2.9c0.7,0.7,1.7,1,2.9,1c1,0,1.8-0.2,2.5-0.7s1.1-1.1,1.5-1.8l1.8,0.9
				c-0.2,0.5-0.5,1-0.8,1.4c-0.3,0.4-0.8,0.8-1.2,1.2c-0.5,0.3-1,0.6-1.6,0.8c-0.6,0.2-1.3,0.3-2.1,0.3c-1,0-1.8-0.2-2.6-0.5
				c-0.8-0.3-1.5-0.8-2.1-1.3s-1-1.3-1.3-2.1c-0.3-0.8-0.5-1.7-0.5-2.7c0-1,0.2-1.9,0.5-2.7c0.3-0.8,0.7-1.5,1.3-2.1
				c0.6-0.6,1.2-1.1,2-1.4c0.8-0.3,1.6-0.5,2.5-0.5c0.9,0,1.8,0.1,2.6,0.4c0.8,0.3,1.4,0.7,2,1.3s1,1.2,1.3,2
				c0.3,0.8,0.5,1.6,0.5,2.6c0,0.1,0,0.3,0,0.5c0,0.2,0,0.4,0,0.6H730.4z M734.3,604.7c-1.1,0-1.9,0.3-2.6,0.9
				c-0.7,0.6-1.1,1.5-1.2,2.6h7.8c-0.1-1.1-0.5-1.9-1.2-2.5C736.4,605,735.5,604.7,734.3,604.7z M733.8,598.7l1.8,3.2h-2.2l-1.9-3.2
				H733.8z"/>
			<path class="st1" d="M744.1,606.2c0,0.8,0.4,1.3,1.3,1.6c0.3,0.1,0.7,0.2,1,0.3s0.7,0.2,1,0.3c0.9,0.3,1.6,0.8,2.1,1.3
				c0.5,0.6,0.7,1.3,0.7,2.4c0,0.6-0.1,1.2-0.3,1.7c-0.2,0.5-0.5,0.9-0.9,1.2c-0.4,0.3-0.9,0.6-1.4,0.7c-0.5,0.2-1.1,0.2-1.7,0.2
				c-0.8,0-1.5-0.1-2.1-0.3c-0.6-0.2-1-0.5-1.3-0.9c-0.3-0.4-0.6-0.8-0.7-1.3s-0.2-1-0.2-1.6h2.2c0,0.3,0,0.6,0.1,0.9
				c0.1,0.3,0.2,0.5,0.4,0.7s0.4,0.4,0.6,0.5s0.6,0.2,1,0.2c0.6,0,1-0.1,1.5-0.4c0.4-0.3,0.6-0.7,0.6-1.3c0-0.5-0.1-0.9-0.4-1.2
				c-0.3-0.3-0.6-0.5-1.1-0.7c-0.4-0.1-0.7-0.2-1.1-0.3c-0.4-0.1-0.8-0.2-1.2-0.4c-0.8-0.4-1.4-0.8-1.8-1.4c-0.4-0.6-0.5-1.2-0.5-2
				c0-0.5,0.1-1,0.3-1.4c0.2-0.4,0.5-0.8,0.8-1.1c0.4-0.3,0.8-0.5,1.3-0.7c0.5-0.2,1-0.3,1.6-0.3c1.3,0,2.3,0.4,3,1.1
				c0.6,0.7,1,1.7,1,2.8h-2.1c0-0.7-0.2-1.2-0.5-1.5s-0.8-0.6-1.4-0.6c-0.5,0-1,0.1-1.3,0.4S744.1,605.7,744.1,606.2z"/>
			<path class="st1" d="M754.4,603h2.4v1.9h-2.4v7.3c0,0.6,0.1,1,0.3,1.3c0.2,0.3,0.6,0.4,1.2,0.4h0.9v1.9c-0.1,0-0.3,0-0.5,0.1
				s-0.6,0.1-0.9,0.1c-1.2,0-2-0.3-2.5-0.8s-0.7-1.4-0.7-2.4v-7.8h-1.3V603h1.3v-2h2.3V603z"/>
			<path class="st1" d="M759.5,601.7c-0.4,0-0.8-0.1-1.1-0.4c-0.3-0.3-0.4-0.7-0.4-1.1c0-0.4,0.1-0.8,0.4-1.1
				c0.3-0.3,0.7-0.4,1.1-0.4c0.4,0,0.8,0.1,1.1,0.4c0.3,0.3,0.5,0.6,0.5,1.1c0,0.4-0.2,0.8-0.5,1.1
				C760.3,601.6,759.9,601.7,759.5,601.7z M760.7,615.8h-2.3V603h2.3V615.8z"/>
			<path class="st1" d="M764.8,610.1c0.1,1.2,0.5,2.2,1.2,2.9c0.7,0.7,1.7,1,2.9,1c1,0,1.8-0.2,2.5-0.7s1.1-1.1,1.5-1.8l1.8,0.9
				c-0.2,0.5-0.5,1-0.8,1.4c-0.3,0.4-0.8,0.8-1.2,1.2c-0.5,0.3-1,0.6-1.6,0.8c-0.6,0.2-1.3,0.3-2.1,0.3c-1,0-1.8-0.2-2.6-0.5
				c-0.8-0.3-1.5-0.8-2.1-1.3s-1-1.3-1.3-2.1c-0.3-0.8-0.5-1.7-0.5-2.7c0-1,0.2-1.9,0.5-2.7c0.3-0.8,0.7-1.5,1.3-2.1
				c0.6-0.6,1.2-1.1,2-1.4c0.8-0.3,1.6-0.5,2.5-0.5c0.9,0,1.8,0.1,2.6,0.4c0.8,0.3,1.4,0.7,2,1.3s1,1.2,1.3,2
				c0.3,0.8,0.5,1.6,0.5,2.6c0,0.1,0,0.3,0,0.5c0,0.2,0,0.4,0,0.6H764.8z M768.7,604.7c-1.1,0-1.9,0.3-2.6,0.9
				c-0.7,0.6-1.1,1.5-1.2,2.6h7.8c-0.1-1.1-0.5-1.9-1.2-2.5C770.7,605,769.8,604.7,768.7,604.7z"/>
			<path class="st1" d="M778.4,606.2c0,0.8,0.4,1.3,1.3,1.6c0.3,0.1,0.7,0.2,1,0.3s0.7,0.2,1,0.3c0.9,0.3,1.6,0.8,2.1,1.3
				c0.5,0.6,0.7,1.3,0.7,2.4c0,0.6-0.1,1.2-0.3,1.7c-0.2,0.5-0.5,0.9-0.9,1.2c-0.4,0.3-0.9,0.6-1.4,0.7c-0.5,0.2-1.1,0.2-1.7,0.2
				c-0.8,0-1.5-0.1-2.1-0.3c-0.6-0.2-1-0.5-1.3-0.9c-0.3-0.4-0.6-0.8-0.7-1.3s-0.2-1-0.2-1.6h2.2c0,0.3,0,0.6,0.1,0.9
				c0.1,0.3,0.2,0.5,0.4,0.7s0.4,0.4,0.6,0.5s0.6,0.2,1,0.2c0.6,0,1-0.1,1.5-0.4c0.4-0.3,0.6-0.7,0.6-1.3c0-0.5-0.1-0.9-0.4-1.2
				c-0.3-0.3-0.6-0.5-1.1-0.7c-0.4-0.1-0.7-0.2-1.1-0.3c-0.4-0.1-0.8-0.2-1.2-0.4c-0.8-0.4-1.4-0.8-1.8-1.4c-0.4-0.6-0.5-1.2-0.5-2
				c0-0.5,0.1-1,0.3-1.4c0.2-0.4,0.5-0.8,0.8-1.1c0.4-0.3,0.8-0.5,1.3-0.7c0.5-0.2,1-0.3,1.6-0.3c1.3,0,2.3,0.4,3,1.1
				c0.6,0.7,1,1.7,1,2.8h-2.1c0-0.7-0.2-1.2-0.5-1.5s-0.8-0.6-1.4-0.6c-0.5,0-1,0.1-1.3,0.4S778.4,605.7,778.4,606.2z"/>
			<path class="st1" d="M786.7,615.9c-0.4-0.1-0.7-0.3-0.9-0.6s-0.3-0.6-0.3-1c0-0.5,0.1-0.8,0.4-1.1c0.3-0.3,0.7-0.4,1.2-0.4
				c0.5,0,0.8,0.2,1.1,0.5c0.3,0.3,0.4,0.7,0.4,1.2c0,0.3,0,0.5-0.1,0.8c-0.1,0.2-0.2,0.5-0.3,0.8l-1.1,2.4h-1.7L786.7,615.9z"/>
			<path class="st1" d="M795.9,610.1c0.1,1.2,0.5,2.2,1.2,2.9c0.7,0.7,1.7,1,2.9,1c1,0,1.8-0.2,2.5-0.7s1.1-1.1,1.5-1.8l1.8,0.9
				c-0.2,0.5-0.5,1-0.8,1.4c-0.3,0.4-0.8,0.8-1.2,1.2c-0.5,0.3-1,0.6-1.6,0.8c-0.6,0.2-1.3,0.3-2.1,0.3c-1,0-1.8-0.2-2.6-0.5
				c-0.8-0.3-1.5-0.8-2.1-1.3s-1-1.3-1.3-2.1c-0.3-0.8-0.5-1.7-0.5-2.7c0-1,0.2-1.9,0.5-2.7c0.3-0.8,0.7-1.5,1.3-2.1
				c0.6-0.6,1.2-1.1,2-1.4c0.8-0.3,1.6-0.5,2.5-0.5c0.9,0,1.8,0.1,2.6,0.4c0.8,0.3,1.4,0.7,2,1.3s1,1.2,1.3,2
				c0.3,0.8,0.5,1.6,0.5,2.6c0,0.1,0,0.3,0,0.5c0,0.2,0,0.4,0,0.6H795.9z M799.8,604.7c-1.1,0-1.9,0.3-2.6,0.9
				c-0.7,0.6-1.1,1.5-1.2,2.6h7.8c-0.1-1.1-0.5-1.9-1.2-2.5C801.8,605,800.9,604.7,799.8,604.7z"/>
			<path class="st1" d="M809.5,606.2c0,0.8,0.4,1.3,1.3,1.6c0.3,0.1,0.7,0.2,1,0.3s0.7,0.2,1,0.3c0.9,0.3,1.6,0.8,2.1,1.3
				c0.5,0.6,0.7,1.3,0.7,2.4c0,0.6-0.1,1.2-0.3,1.7c-0.2,0.5-0.5,0.9-0.9,1.2c-0.4,0.3-0.9,0.6-1.4,0.7c-0.5,0.2-1.1,0.2-1.7,0.2
				c-0.8,0-1.5-0.1-2.1-0.3c-0.6-0.2-1-0.5-1.3-0.9c-0.3-0.4-0.6-0.8-0.7-1.3s-0.2-1-0.2-1.6h2.2c0,0.3,0,0.6,0.1,0.9
				c0.1,0.3,0.2,0.5,0.4,0.7s0.4,0.4,0.6,0.5s0.6,0.2,1,0.2c0.6,0,1-0.1,1.5-0.4c0.4-0.3,0.6-0.7,0.6-1.3c0-0.5-0.1-0.9-0.4-1.2
				c-0.3-0.3-0.6-0.5-1.1-0.7c-0.4-0.1-0.7-0.2-1.1-0.3c-0.4-0.1-0.8-0.2-1.2-0.4c-0.8-0.4-1.4-0.8-1.8-1.4c-0.4-0.6-0.5-1.2-0.5-2
				c0-0.5,0.1-1,0.3-1.4c0.2-0.4,0.5-0.8,0.8-1.1c0.4-0.3,0.8-0.5,1.3-0.7c0.5-0.2,1-0.3,1.6-0.3c1.3,0,2.3,0.4,3,1.1
				c0.6,0.7,1,1.7,1,2.8h-2.1c0-0.7-0.2-1.2-0.5-1.5s-0.8-0.6-1.4-0.6c-0.5,0-1,0.1-1.3,0.4S809.5,605.7,809.5,606.2z"/>
			<path class="st1" d="M819.9,603h2.4v1.9h-2.4v7.3c0,0.6,0.1,1,0.3,1.3c0.2,0.3,0.6,0.4,1.2,0.4h0.9v1.9c-0.1,0-0.3,0-0.5,0.1
				s-0.6,0.1-0.9,0.1c-1.2,0-2-0.3-2.5-0.8s-0.7-1.4-0.7-2.4v-7.8h-1.3V603h1.3v-2h2.3V603z"/>
			<path class="st1" d="M829,605.3h-0.6c-0.8,0-1.4,0.2-1.7,0.6c-0.4,0.4-0.5,1-0.5,1.8v8.1h-2.3V603h2.3v1.2c0.2-0.4,0.6-0.7,1-0.9
				s1.1-0.4,1.8-0.3V605.3z"/>
			<path class="st1" d="M831.6,610.1c0.1,1.2,0.5,2.2,1.2,2.9c0.7,0.7,1.7,1,2.9,1c1,0,1.8-0.2,2.5-0.7c0.6-0.5,1.1-1.1,1.5-1.8
				l1.8,0.9c-0.2,0.5-0.5,1-0.8,1.4c-0.3,0.4-0.8,0.8-1.2,1.2c-0.5,0.3-1,0.6-1.6,0.8c-0.6,0.2-1.3,0.3-2.1,0.3
				c-1,0-1.8-0.2-2.6-0.5c-0.8-0.3-1.5-0.8-2.1-1.3s-1-1.3-1.3-2.1c-0.3-0.8-0.5-1.7-0.5-2.7c0-1,0.2-1.9,0.5-2.7
				c0.3-0.8,0.7-1.5,1.3-2.1c0.6-0.6,1.2-1.1,2-1.4c0.8-0.3,1.6-0.5,2.5-0.5c0.9,0,1.8,0.1,2.6,0.4c0.8,0.3,1.4,0.7,2,1.3
				s1,1.2,1.3,2c0.3,0.8,0.5,1.6,0.5,2.6c0,0.1,0,0.3,0,0.5c0,0.2,0,0.4,0,0.6H831.6z M835.5,604.7c-1.1,0-1.9,0.3-2.6,0.9
				c-0.7,0.6-1.1,1.5-1.2,2.6h7.8c-0.1-1.1-0.5-1.9-1.2-2.5C837.6,605,836.6,604.7,835.5,604.7z M835,598.7l1.8,3.2h-2.2l-1.9-3.2
				H835z"/>
			<path class="st1" d="M845.3,606.2c0,0.8,0.4,1.3,1.3,1.6c0.3,0.1,0.7,0.2,1,0.3s0.7,0.2,1,0.3c0.9,0.3,1.6,0.8,2.1,1.3
				c0.5,0.6,0.7,1.3,0.7,2.4c0,0.6-0.1,1.2-0.3,1.7c-0.2,0.5-0.5,0.9-0.9,1.2c-0.4,0.3-0.9,0.6-1.4,0.7c-0.5,0.2-1.1,0.2-1.7,0.2
				c-0.8,0-1.5-0.1-2.1-0.3c-0.6-0.2-1-0.5-1.3-0.9c-0.3-0.4-0.6-0.8-0.7-1.3c-0.1-0.5-0.2-1-0.2-1.6h2.2c0,0.3,0,0.6,0.1,0.9
				c0.1,0.3,0.2,0.5,0.4,0.7s0.4,0.4,0.6,0.5c0.3,0.1,0.6,0.2,1,0.2c0.6,0,1-0.1,1.5-0.4c0.4-0.3,0.6-0.7,0.6-1.3
				c0-0.5-0.1-0.9-0.4-1.2c-0.3-0.3-0.6-0.5-1.1-0.7c-0.4-0.1-0.7-0.2-1.1-0.3c-0.4-0.1-0.8-0.2-1.2-0.4c-0.8-0.4-1.4-0.8-1.8-1.4
				c-0.4-0.6-0.5-1.2-0.5-2c0-0.5,0.1-1,0.3-1.4c0.2-0.4,0.5-0.8,0.8-1.1c0.4-0.3,0.8-0.5,1.3-0.7c0.5-0.2,1-0.3,1.6-0.3
				c1.3,0,2.3,0.4,3,1.1c0.6,0.7,1,1.7,1,2.8H849c0-0.7-0.2-1.2-0.5-1.5c-0.3-0.4-0.8-0.6-1.4-0.6c-0.5,0-1,0.1-1.3,0.4
				C845.4,605.3,845.3,605.7,845.3,606.2z"/>
		</g>
		<g class="st9">
			<path class="st1" d="M698.6,639.7c0,0.7-0.1,1.4-0.4,2c-0.2,0.6-0.6,1.1-1,1.5s-0.9,0.7-1.5,0.9c-0.6,0.2-1.3,0.3-2,0.3h-1.9v7.5
				h-2.4v-16.6h4.3c1.6,0,2.8,0.4,3.6,1.1S698.6,638.2,698.6,639.7z M691.8,637.2v5.1h1.8c0.8,0,1.5-0.2,1.9-0.7
				c0.4-0.5,0.6-1.1,0.6-1.9c0-0.8-0.2-1.4-0.6-1.8c-0.4-0.4-1.1-0.7-1.9-0.7H691.8z"/>
			<path class="st1" d="M701.5,637.7c-0.4,0-0.8-0.1-1.1-0.4c-0.3-0.3-0.4-0.7-0.4-1.1c0-0.4,0.1-0.8,0.4-1.1
				c0.3-0.3,0.7-0.4,1.1-0.4c0.4,0,0.8,0.1,1.1,0.4c0.3,0.3,0.5,0.6,0.5,1.1c0,0.4-0.2,0.8-0.5,1.1
				C702.3,637.6,701.9,637.7,701.5,637.7z M702.7,651.8h-2.3V639h2.3V651.8z"/>
			<path class="st1" d="M707.7,639h2.4v1.9h-2.4v7.3c0,0.6,0.1,1,0.3,1.3c0.2,0.3,0.6,0.4,1.2,0.4h0.9v1.9c-0.1,0-0.3,0-0.5,0.1
				s-0.6,0.1-0.9,0.1c-1.2,0-2-0.3-2.5-0.8s-0.7-1.4-0.7-2.4v-7.8h-1.3V639h1.3v-2h2.3V639z"/>
			<path class="st1" d="M714,652.1c0,0.6-0.1,1.1-0.2,1.6c-0.1,0.5-0.3,0.9-0.6,1.2c-0.3,0.3-0.7,0.6-1.1,0.8
				c-0.5,0.2-1.1,0.3-1.7,0.3h-0.7v-2h0.5c0.4,0,0.6-0.1,0.8-0.2c0.2-0.1,0.4-0.2,0.5-0.4c0.1-0.2,0.2-0.4,0.2-0.6
				c0-0.2,0.1-0.5,0.1-0.8V639h2.3V652.1z M712.8,637.7c-0.4,0-0.8-0.1-1.1-0.4c-0.3-0.3-0.4-0.7-0.4-1.1c0-0.4,0.1-0.8,0.4-1.1
				c0.3-0.3,0.7-0.4,1.1-0.4c0.4,0,0.8,0.1,1.1,0.4c0.3,0.3,0.5,0.6,0.5,1.1c0,0.4-0.2,0.8-0.5,1.1
				C713.6,637.6,713.2,637.7,712.8,637.7z"/>
			<path class="st1" d="M715.7,645.4c0-1,0.2-1.9,0.5-2.7c0.3-0.8,0.8-1.5,1.4-2.1c0.6-0.6,1.3-1.1,2.1-1.4c0.8-0.3,1.7-0.5,2.6-0.5
				c1,0,1.8,0.2,2.7,0.5s1.5,0.8,2.1,1.4c0.6,0.6,1,1.3,1.4,2.1c0.3,0.8,0.5,1.7,0.5,2.7s-0.2,1.8-0.5,2.7c-0.3,0.8-0.8,1.5-1.4,2.1
				c-0.6,0.6-1.3,1-2.1,1.4c-0.8,0.3-1.7,0.5-2.6,0.5c-1,0-1.8-0.2-2.7-0.5c-0.8-0.3-1.5-0.8-2.1-1.4c-0.6-0.6-1-1.3-1.4-2.1
				C715.9,647.3,715.7,646.4,715.7,645.4z M718,645.4c0,0.7,0.1,1.3,0.3,1.8c0.2,0.6,0.5,1,0.9,1.4c0.4,0.4,0.8,0.7,1.4,1
				c0.5,0.2,1.1,0.3,1.7,0.3c0.6,0,1.2-0.1,1.8-0.3c0.5-0.2,1-0.5,1.4-1c0.4-0.4,0.7-0.9,0.9-1.4c0.2-0.6,0.3-1.2,0.3-1.8
				c0-0.7-0.1-1.3-0.3-1.8c-0.2-0.6-0.5-1-0.9-1.5s-0.8-0.7-1.4-1c-0.5-0.2-1.1-0.3-1.7-0.3c-0.6,0-1.2,0.1-1.8,0.3
				c-0.5,0.2-1,0.5-1.4,1c-0.4,0.4-0.7,0.9-0.9,1.5C718.1,644.1,718,644.7,718,645.4z"/>
			<path class="st1" d="M735.8,641.3h-0.6c-0.8,0-1.4,0.2-1.7,0.6c-0.4,0.4-0.5,1-0.5,1.8v8.1h-2.3V639h2.3v1.2
				c0.2-0.4,0.6-0.7,1-0.9s1.1-0.4,1.8-0.3V641.3z"/>
			<path class="st1" d="M742.9,646.1c0.1,1.2,0.5,2.2,1.2,2.9c0.7,0.7,1.7,1,2.9,1c1,0,1.8-0.2,2.5-0.7s1.1-1.1,1.5-1.8l1.8,0.9
				c-0.2,0.5-0.5,1-0.8,1.4c-0.3,0.4-0.8,0.8-1.2,1.2c-0.5,0.3-1,0.6-1.6,0.8c-0.6,0.2-1.3,0.3-2.1,0.3c-1,0-1.8-0.2-2.6-0.5
				c-0.8-0.3-1.5-0.8-2.1-1.3s-1-1.3-1.3-2.1c-0.3-0.8-0.5-1.7-0.5-2.7c0-1,0.2-1.9,0.5-2.7c0.3-0.8,0.7-1.5,1.3-2.1
				c0.6-0.6,1.2-1.1,2-1.4c0.8-0.3,1.6-0.5,2.5-0.5c0.9,0,1.8,0.1,2.6,0.4c0.8,0.3,1.4,0.7,2,1.3s1,1.2,1.3,2
				c0.3,0.8,0.5,1.6,0.5,2.6c0,0.1,0,0.3,0,0.5c0,0.2,0,0.4,0,0.6H742.9z M746.8,640.7c-1.1,0-1.9,0.3-2.6,0.9
				c-0.7,0.6-1.1,1.5-1.2,2.6h7.8c-0.1-1.1-0.5-1.9-1.2-2.5C748.8,641,747.9,640.7,746.8,640.7z"/>
			<path class="st1" d="M756.5,642.2c0,0.8,0.4,1.3,1.3,1.6c0.3,0.1,0.7,0.2,1,0.3s0.7,0.2,1,0.3c0.9,0.3,1.6,0.8,2.1,1.3
				c0.5,0.6,0.7,1.3,0.7,2.4c0,0.6-0.1,1.2-0.3,1.7c-0.2,0.5-0.5,0.9-0.9,1.2c-0.4,0.3-0.9,0.6-1.4,0.7c-0.5,0.2-1.1,0.2-1.7,0.2
				c-0.8,0-1.5-0.1-2.1-0.3c-0.6-0.2-1-0.5-1.3-0.9c-0.3-0.4-0.6-0.8-0.7-1.3s-0.2-1-0.2-1.6h2.2c0,0.3,0,0.6,0.1,0.9
				c0.1,0.3,0.2,0.5,0.4,0.7s0.4,0.4,0.6,0.5s0.6,0.2,1,0.2c0.6,0,1-0.1,1.5-0.4c0.4-0.3,0.6-0.7,0.6-1.3c0-0.5-0.1-0.9-0.4-1.2
				c-0.3-0.3-0.6-0.5-1.1-0.7c-0.4-0.1-0.7-0.2-1.1-0.3c-0.4-0.1-0.8-0.2-1.2-0.4c-0.8-0.4-1.4-0.8-1.8-1.4c-0.4-0.6-0.5-1.2-0.5-2
				c0-0.5,0.1-1,0.3-1.4c0.2-0.4,0.5-0.8,0.8-1.1c0.4-0.3,0.8-0.5,1.3-0.7c0.5-0.2,1-0.3,1.6-0.3c1.3,0,2.3,0.4,3,1.1
				c0.6,0.7,1,1.7,1,2.8h-2.1c0-0.7-0.2-1.2-0.5-1.5s-0.8-0.6-1.4-0.6c-0.5,0-1,0.1-1.3,0.4S756.5,641.7,756.5,642.2z"/>
			<path class="st1" d="M766.9,639h2.4v1.9h-2.4v7.3c0,0.6,0.1,1,0.3,1.3c0.2,0.3,0.6,0.4,1.2,0.4h0.9v1.9c-0.1,0-0.3,0-0.5,0.1
				s-0.6,0.1-0.9,0.1c-1.2,0-2-0.3-2.5-0.8s-0.7-1.4-0.7-2.4v-7.8h-1.3V639h1.3v-2h2.3V639z"/>
			<path class="st1" d="M770.2,647.7c0-0.6,0.1-1.2,0.3-1.7c0.2-0.5,0.5-1,0.9-1.3c0.4-0.4,0.8-0.7,1.4-0.9s1.1-0.3,1.8-0.3
				c0.7,0,1.2,0.1,1.7,0.3c0.4,0.2,0.8,0.4,1,0.6v-1.1c0-0.8-0.2-1.5-0.6-1.9c-0.4-0.4-0.9-0.7-1.7-0.7c-0.8,0-1.3,0.2-1.6,0.6
				c-0.3,0.4-0.5,0.9-0.5,1.4h-2.1c0-0.6,0.1-1.1,0.3-1.6c0.2-0.5,0.5-0.9,0.8-1.2c0.4-0.3,0.8-0.6,1.3-0.8c0.5-0.2,1.2-0.3,1.9-0.3
				c0.8,0,1.5,0.1,2.1,0.3c0.6,0.2,1,0.5,1.4,0.9c0.4,0.4,0.6,0.9,0.8,1.5s0.3,1.2,0.3,1.9v8.3h-2v-1c-0.3,0.4-0.7,0.6-1.2,0.9
				c-0.5,0.2-1.1,0.3-1.7,0.3c-0.6,0-1.2-0.1-1.7-0.3c-0.5-0.2-1-0.5-1.4-0.9s-0.7-0.8-0.9-1.4C770.3,649,770.2,648.4,770.2,647.7z
				 M772.4,647.7c0,0.7,0.2,1.3,0.7,1.7c0.4,0.5,1,0.7,1.7,0.7c0.7,0,1.3-0.2,1.8-0.7c0.5-0.5,0.7-1,0.7-1.7c0-0.7-0.2-1.3-0.7-1.7
				s-1.1-0.7-1.8-0.7s-1.3,0.2-1.7,0.7C772.6,646.4,772.4,647,772.4,647.7z"/>
			<path class="st1" d="M784.2,639h2.4v1.9h-2.4v7.3c0,0.6,0.1,1,0.3,1.3c0.2,0.3,0.6,0.4,1.2,0.4h0.9v1.9c-0.1,0-0.3,0-0.5,0.1
				s-0.6,0.1-0.9,0.1c-1.2,0-2-0.3-2.5-0.8s-0.7-1.4-0.7-2.4v-7.8h-1.3V639h1.3v-2h2.3V639z"/>
			<path class="st1" d="M802.2,649.9c-0.2,0.2-0.4,0.5-0.7,0.7c-0.3,0.3-0.6,0.5-1,0.7c-0.4,0.2-0.8,0.4-1.3,0.5s-1,0.2-1.5,0.2
				c-1,0-1.8-0.2-2.7-0.5c-0.8-0.3-1.5-0.8-2.1-1.4s-1-1.3-1.3-2.1c-0.3-0.8-0.5-1.7-0.5-2.7c0-0.9,0.2-1.8,0.5-2.6
				c0.3-0.8,0.8-1.5,1.3-2.1c0.6-0.6,1.3-1.1,2.1-1.4s1.7-0.5,2.6-0.5c1,0,1.9,0.2,2.6,0.6c0.7,0.4,1.3,0.8,1.7,1.3v-6.3h2.3v17.5
				h-2.2V649.9z M793.6,645.4c0,0.7,0.1,1.3,0.3,1.8c0.2,0.6,0.5,1,0.9,1.5c0.4,0.4,0.8,0.7,1.4,0.9c0.5,0.2,1.1,0.3,1.7,0.3
				c0.6,0,1.2-0.1,1.8-0.3c0.5-0.2,1-0.5,1.4-0.9c0.4-0.4,0.7-0.9,0.9-1.5c0.2-0.6,0.3-1.2,0.3-1.8c0-0.7-0.1-1.3-0.3-1.8
				c-0.2-0.6-0.5-1-0.9-1.5c-0.4-0.4-0.8-0.7-1.4-1c-0.5-0.2-1.1-0.3-1.8-0.3c-0.6,0-1.2,0.1-1.8,0.3c-0.5,0.2-1,0.6-1.4,1
				c-0.4,0.4-0.7,0.9-0.9,1.5C793.7,644.1,793.6,644.7,793.6,645.4z"/>
			<path class="st1" d="M808.5,646.1c0.1,1.2,0.5,2.2,1.2,2.9c0.7,0.7,1.7,1,2.9,1c1,0,1.8-0.2,2.5-0.7s1.1-1.1,1.5-1.8l1.8,0.9
				c-0.2,0.5-0.5,1-0.8,1.4c-0.3,0.4-0.8,0.8-1.2,1.2c-0.5,0.3-1,0.6-1.6,0.8c-0.6,0.2-1.3,0.3-2.1,0.3c-1,0-1.8-0.2-2.6-0.5
				c-0.8-0.3-1.5-0.8-2.1-1.3s-1-1.3-1.3-2.1c-0.3-0.8-0.5-1.7-0.5-2.7c0-1,0.2-1.9,0.5-2.7c0.3-0.8,0.7-1.5,1.3-2.1
				c0.6-0.6,1.2-1.1,2-1.4c0.8-0.3,1.6-0.5,2.5-0.5c0.9,0,1.8,0.1,2.6,0.4c0.8,0.3,1.4,0.7,2,1.3s1,1.2,1.3,2
				c0.3,0.8,0.5,1.6,0.5,2.6c0,0.1,0,0.3,0,0.5c0,0.2,0,0.4,0,0.6H808.5z M812.4,640.7c-1.1,0-1.9,0.3-2.6,0.9
				c-0.7,0.6-1.1,1.5-1.2,2.6h7.8c-0.1-1.1-0.5-1.9-1.2-2.5C814.4,641,813.5,640.7,812.4,640.7z"/>
			<path class="st1" d="M825.8,642.2c0,0.8,0.4,1.3,1.3,1.6c0.3,0.1,0.7,0.2,1,0.3s0.7,0.2,1,0.3c0.9,0.3,1.6,0.8,2.1,1.3
				c0.5,0.6,0.7,1.3,0.7,2.4c0,0.6-0.1,1.2-0.3,1.7c-0.2,0.5-0.5,0.9-0.9,1.2c-0.4,0.3-0.9,0.6-1.4,0.7c-0.5,0.2-1.1,0.2-1.7,0.2
				c-0.8,0-1.5-0.1-2.1-0.3c-0.6-0.2-1-0.5-1.3-0.9c-0.3-0.4-0.6-0.8-0.7-1.3s-0.2-1-0.2-1.6h2.2c0,0.3,0,0.6,0.1,0.9
				c0.1,0.3,0.2,0.5,0.4,0.7s0.4,0.4,0.6,0.5s0.6,0.2,1,0.2c0.6,0,1-0.1,1.5-0.4c0.4-0.3,0.6-0.7,0.6-1.3c0-0.5-0.1-0.9-0.4-1.2
				c-0.3-0.3-0.6-0.5-1.1-0.7c-0.4-0.1-0.7-0.2-1.1-0.3c-0.4-0.1-0.8-0.2-1.2-0.4c-0.8-0.4-1.4-0.8-1.8-1.4c-0.4-0.6-0.5-1.2-0.5-2
				c0-0.5,0.1-1,0.3-1.4c0.2-0.4,0.5-0.8,0.8-1.1c0.4-0.3,0.8-0.5,1.3-0.7c0.5-0.2,1-0.3,1.6-0.3c1.3,0,2.3,0.4,3,1.1
				c0.6,0.7,1,1.7,1,2.8h-2.1c0-0.7-0.2-1.2-0.5-1.5s-0.8-0.6-1.4-0.6c-0.5,0-1,0.1-1.3,0.4S825.8,641.7,825.8,642.2z"/>
			<path class="st1" d="M833.2,647.7c0-0.6,0.1-1.2,0.3-1.7c0.2-0.5,0.5-1,0.9-1.3c0.4-0.4,0.8-0.7,1.4-0.9s1.1-0.3,1.8-0.3
				c0.7,0,1.2,0.1,1.7,0.3c0.4,0.2,0.8,0.4,1,0.6v-1.1c0-0.8-0.2-1.5-0.6-1.9c-0.4-0.4-0.9-0.7-1.7-0.7c-0.8,0-1.3,0.2-1.6,0.6
				c-0.3,0.4-0.5,0.9-0.5,1.4h-2.1c0-0.6,0.1-1.1,0.3-1.6c0.2-0.5,0.5-0.9,0.8-1.2c0.4-0.3,0.8-0.6,1.3-0.8c0.5-0.2,1.2-0.3,1.9-0.3
				c0.8,0,1.5,0.1,2.1,0.3c0.6,0.2,1,0.5,1.4,0.9c0.4,0.4,0.6,0.9,0.8,1.5c0.2,0.6,0.3,1.2,0.3,1.9v8.3h-2v-1
				c-0.3,0.4-0.7,0.6-1.2,0.9c-0.5,0.2-1.1,0.3-1.7,0.3c-0.6,0-1.2-0.1-1.7-0.3c-0.5-0.2-1-0.5-1.4-0.9s-0.7-0.8-0.9-1.4
				C833.3,649,833.2,648.4,833.2,647.7z M835.4,647.7c0,0.7,0.2,1.3,0.7,1.7c0.4,0.5,1,0.7,1.7,0.7c0.7,0,1.3-0.2,1.8-0.7
				c0.5-0.5,0.7-1,0.7-1.7c0-0.7-0.2-1.3-0.7-1.7s-1.1-0.7-1.8-0.7c-0.7,0-1.3,0.2-1.7,0.7C835.6,646.4,835.4,647,835.4,647.7z"/>
			<path class="st1" d="M847,651.8h-2.3v-17.5h2.3V651.8z"/>
			<path class="st1" d="M851.6,647.2c0,0.9,0.2,1.5,0.5,2c0.4,0.5,0.9,0.7,1.7,0.7s1.3-0.3,1.7-0.8c0.4-0.5,0.6-1.2,0.6-2V639h2.3
				v12.8h-2.3v-1.2c-0.2,0.3-0.5,0.6-1,0.9s-1.1,0.4-1.9,0.4c-0.7,0-1.3-0.1-1.8-0.3s-0.9-0.6-1.2-1c-0.3-0.4-0.6-0.9-0.7-1.4
				c-0.1-0.5-0.2-1.1-0.2-1.8V639h2.3V647.2z"/>
			<path class="st1" d="M863.5,639h2.4v1.9h-2.4v7.3c0,0.6,0.1,1,0.3,1.3c0.2,0.3,0.6,0.4,1.2,0.4h0.9v1.9c-0.1,0-0.3,0-0.5,0.1
				s-0.6,0.1-0.9,0.1c-1.2,0-2-0.3-2.5-0.8s-0.7-1.4-0.7-2.4v-7.8h-1.3V639h1.3v-2h2.3V639z"/>
			<path class="st1" d="M881.5,639h2.2v10.7c0,1.2-0.2,2.2-0.5,3.1c-0.3,0.8-0.8,1.5-1.4,2c-0.6,0.5-1.3,0.9-2.1,1.1
				c-0.8,0.2-1.7,0.3-2.6,0.3c-1.1,0-2.1-0.1-3-0.4c-0.9-0.3-1.6-0.6-2.1-0.9l0.9-1.8c0.4,0.3,1,0.5,1.7,0.8
				c0.7,0.3,1.5,0.4,2.5,0.4c0.6,0,1.2-0.1,1.7-0.2s1-0.4,1.4-0.7c0.4-0.3,0.7-0.7,1-1.2c0.2-0.5,0.3-1.1,0.3-1.7V650
				c-0.1,0.2-0.3,0.5-0.6,0.7c-0.2,0.2-0.6,0.5-0.9,0.7s-0.8,0.4-1.2,0.5s-1,0.2-1.6,0.2c-1,0-1.8-0.2-2.7-0.5
				c-0.8-0.3-1.5-0.8-2.1-1.3s-1-1.3-1.4-2.1c-0.3-0.8-0.5-1.7-0.5-2.7c0-0.9,0.2-1.8,0.5-2.6c0.3-0.8,0.8-1.5,1.4-2.1
				c0.6-0.6,1.3-1.1,2.1-1.4c0.8-0.3,1.7-0.5,2.6-0.5c1,0,1.9,0.2,2.6,0.6s1.4,0.8,1.8,1.4V639z M872.8,645.4c0,0.7,0.1,1.3,0.3,1.8
				c0.2,0.6,0.5,1,0.9,1.5c0.4,0.4,0.8,0.7,1.4,0.9c0.5,0.2,1.1,0.3,1.7,0.3c0.6,0,1.2-0.1,1.8-0.3c0.5-0.2,1-0.5,1.4-0.9
				c0.4-0.4,0.7-0.9,0.9-1.5c0.2-0.6,0.3-1.2,0.3-1.8c0-0.7-0.1-1.3-0.3-1.8c-0.2-0.6-0.5-1-0.9-1.5s-0.8-0.7-1.4-1
				c-0.5-0.2-1.1-0.3-1.8-0.3c-0.6,0-1.2,0.1-1.8,0.3c-0.5,0.2-1,0.6-1.4,1s-0.7,0.9-0.9,1.5C872.9,644.1,872.8,644.7,872.8,645.4z"
				/>
			<path class="st1" d="M887.8,646.1c0.1,1.2,0.5,2.2,1.2,2.9c0.7,0.7,1.7,1,2.9,1c1,0,1.8-0.2,2.5-0.7s1.1-1.1,1.5-1.8l1.8,0.9
				c-0.2,0.5-0.5,1-0.8,1.4c-0.3,0.4-0.8,0.8-1.2,1.2c-0.5,0.3-1,0.6-1.6,0.8s-1.3,0.3-2.1,0.3c-1,0-1.8-0.2-2.6-0.5
				c-0.8-0.3-1.5-0.8-2.1-1.3s-1-1.3-1.3-2.1c-0.3-0.8-0.5-1.7-0.5-2.7c0-1,0.2-1.9,0.5-2.7c0.3-0.8,0.7-1.5,1.3-2.1
				c0.6-0.6,1.2-1.1,2-1.4c0.8-0.3,1.6-0.5,2.5-0.5c0.9,0,1.8,0.1,2.6,0.4c0.8,0.3,1.4,0.7,2,1.3c0.5,0.5,1,1.2,1.3,2
				c0.3,0.8,0.5,1.6,0.5,2.6c0,0.1,0,0.3,0,0.5c0,0.2,0,0.4,0,0.6H887.8z M891.7,640.7c-1.1,0-1.9,0.3-2.6,0.9
				c-0.7,0.6-1.1,1.5-1.2,2.6h7.8c-0.1-1.1-0.5-1.9-1.2-2.5C893.7,641,892.8,640.7,891.7,640.7z"/>
			<path class="st1" d="M906.5,643.6c0-0.9-0.2-1.5-0.6-2c-0.4-0.5-0.9-0.7-1.7-0.7c-0.8,0-1.4,0.3-1.8,0.8s-0.6,1.2-0.6,2v8.2h-2.3
				V639h2.3v1.2c0.1-0.1,0.2-0.3,0.4-0.4s0.4-0.3,0.6-0.4c0.2-0.1,0.5-0.2,0.8-0.3s0.7-0.1,1.1-0.1c0.7,0,1.4,0.1,1.9,0.4
				s0.9,0.6,1.2,1s0.6,0.9,0.7,1.4c0.1,0.5,0.2,1.1,0.2,1.8v8.5h-2.3V643.6z"/>
			<path class="st1" d="M912.9,646.1c0.1,1.2,0.5,2.2,1.2,2.9c0.7,0.7,1.7,1,2.9,1c1,0,1.8-0.2,2.5-0.7s1.1-1.1,1.5-1.8l1.8,0.9
				c-0.2,0.5-0.5,1-0.8,1.4c-0.3,0.4-0.8,0.8-1.2,1.2c-0.5,0.3-1,0.6-1.6,0.8s-1.3,0.3-2.1,0.3c-1,0-1.8-0.2-2.6-0.5
				c-0.8-0.3-1.5-0.8-2.1-1.3s-1-1.3-1.3-2.1c-0.3-0.8-0.5-1.7-0.5-2.7c0-1,0.2-1.9,0.5-2.7c0.3-0.8,0.7-1.5,1.3-2.1
				c0.6-0.6,1.2-1.1,2-1.4c0.8-0.3,1.6-0.5,2.5-0.5c0.9,0,1.8,0.1,2.6,0.4c0.8,0.3,1.4,0.7,2,1.3c0.5,0.5,1,1.2,1.3,2
				c0.3,0.8,0.5,1.6,0.5,2.6c0,0.1,0,0.3,0,0.5c0,0.2,0,0.4,0,0.6H912.9z M916.7,640.7c-1.1,0-1.9,0.3-2.6,0.9
				c-0.7,0.6-1.1,1.5-1.2,2.6h7.8c-0.1-1.1-0.5-1.9-1.2-2.5C918.8,641,917.9,640.7,916.7,640.7z"/>
			<path class="st1" d="M929.8,641.3h-0.6c-0.8,0-1.4,0.2-1.7,0.6c-0.4,0.4-0.5,1-0.5,1.8v8.1h-2.3V639h2.3v1.2
				c0.2-0.4,0.6-0.7,1-0.9s1.1-0.4,1.8-0.3V641.3z"/>
			<path class="st1" d="M930.4,647.7c0-0.6,0.1-1.2,0.3-1.7c0.2-0.5,0.5-1,0.9-1.3c0.4-0.4,0.8-0.7,1.4-0.9c0.5-0.2,1.1-0.3,1.8-0.3
				c0.7,0,1.2,0.1,1.7,0.3c0.4,0.2,0.8,0.4,1,0.6v-1.1c0-0.8-0.2-1.5-0.6-1.9c-0.4-0.4-0.9-0.7-1.7-0.7c-0.8,0-1.3,0.2-1.6,0.6
				c-0.3,0.4-0.5,0.9-0.5,1.4h-2.1c0-0.6,0.1-1.1,0.3-1.6c0.2-0.5,0.5-0.9,0.8-1.2c0.4-0.3,0.8-0.6,1.3-0.8c0.5-0.2,1.2-0.3,1.9-0.3
				c0.8,0,1.5,0.1,2.1,0.3c0.6,0.2,1,0.5,1.4,0.9c0.4,0.4,0.6,0.9,0.8,1.5c0.2,0.6,0.3,1.2,0.3,1.9v8.3h-2v-1
				c-0.3,0.4-0.7,0.6-1.2,0.9c-0.5,0.2-1.1,0.3-1.7,0.3c-0.6,0-1.2-0.1-1.7-0.3c-0.5-0.2-1-0.5-1.4-0.9c-0.4-0.4-0.7-0.8-0.9-1.4
				C930.5,649,930.4,648.4,930.4,647.7z M932.6,647.7c0,0.7,0.2,1.3,0.7,1.7c0.4,0.5,1,0.7,1.7,0.7c0.7,0,1.3-0.2,1.8-0.7
				c0.5-0.5,0.7-1,0.7-1.7c0-0.7-0.2-1.3-0.7-1.7s-1.1-0.7-1.8-0.7c-0.7,0-1.3,0.2-1.7,0.7C932.8,646.4,932.6,647,932.6,647.7z"/>
			<path class="st1" d="M944.3,651.8H942v-17.5h2.3V651.8z"/>
		</g>
		<g class="st9">
			<path class="st1" d="M698.7,682.4h-6.2l-2.1,5.4h-2.3l6.2-16.6h2.5l6.5,16.6h-2.5L698.7,682.4z M693.2,680.3h4.7l-2.4-6.1
				L693.2,680.3z"/>
			<path class="st1" d="M706.4,683.2c0,0.9,0.2,1.5,0.5,2c0.4,0.5,0.9,0.7,1.7,0.7s1.3-0.3,1.7-0.8c0.4-0.5,0.6-1.2,0.6-2V675h2.3
				v12.8H711v-1.2c-0.2,0.3-0.5,0.6-1,0.9s-1.1,0.4-1.9,0.4c-0.7,0-1.3-0.1-1.8-0.3c-0.5-0.2-0.9-0.6-1.2-1
				c-0.3-0.4-0.6-0.9-0.7-1.4c-0.1-0.5-0.2-1.1-0.2-1.8V675h2.3V683.2z"/>
			<path class="st1" d="M726,675h2.2v10.7c0,1.2-0.2,2.2-0.5,3.1c-0.3,0.8-0.8,1.5-1.4,2c-0.6,0.5-1.3,0.9-2.1,1.1
				c-0.8,0.2-1.7,0.3-2.6,0.3c-1.1,0-2.1-0.1-3-0.4c-0.9-0.3-1.6-0.6-2.1-0.9l0.9-1.8c0.4,0.3,1,0.5,1.7,0.8
				c0.7,0.3,1.5,0.4,2.5,0.4c0.6,0,1.2-0.1,1.7-0.2c0.5-0.1,1-0.4,1.4-0.7c0.4-0.3,0.7-0.7,1-1.2c0.2-0.5,0.3-1.1,0.3-1.7V686
				c-0.1,0.2-0.3,0.5-0.6,0.7c-0.2,0.2-0.6,0.5-0.9,0.7c-0.4,0.2-0.8,0.4-1.2,0.5c-0.5,0.1-1,0.2-1.6,0.2c-1,0-1.8-0.2-2.7-0.5
				c-0.8-0.3-1.5-0.8-2.1-1.3c-0.6-0.6-1-1.3-1.4-2.1c-0.3-0.8-0.5-1.7-0.5-2.7c0-0.9,0.2-1.8,0.5-2.6c0.3-0.8,0.8-1.5,1.4-2.1
				c0.6-0.6,1.3-1.1,2.1-1.4s1.7-0.5,2.6-0.5c1,0,1.9,0.2,2.6,0.6s1.4,0.8,1.8,1.4V675z M717.3,681.4c0,0.7,0.1,1.3,0.3,1.8
				c0.2,0.6,0.5,1,0.9,1.5c0.4,0.4,0.8,0.7,1.4,0.9c0.5,0.2,1.1,0.3,1.7,0.3c0.6,0,1.2-0.1,1.8-0.3c0.5-0.2,1-0.5,1.4-0.9
				c0.4-0.4,0.7-0.9,0.9-1.5c0.2-0.6,0.3-1.2,0.3-1.8c0-0.7-0.1-1.3-0.3-1.8c-0.2-0.6-0.5-1-0.9-1.5c-0.4-0.4-0.8-0.7-1.4-1
				c-0.5-0.2-1.1-0.3-1.8-0.3c-0.6,0-1.2,0.1-1.8,0.3c-0.5,0.2-1,0.6-1.4,1c-0.4,0.4-0.7,0.9-0.9,1.5
				C717.4,680.1,717.3,680.7,717.3,681.4z"/>
			<path class="st1" d="M739.5,687.8h-2.3v-8.2c0-0.8-0.2-1.5-0.5-2c-0.4-0.5-0.9-0.7-1.6-0.7c-0.8,0-1.3,0.3-1.7,0.8
				c-0.4,0.5-0.6,1.2-0.6,2.1v8.1h-2.3V675h2.3v1.2c0.1-0.1,0.2-0.3,0.4-0.4c0.2-0.2,0.4-0.3,0.6-0.4c0.2-0.1,0.5-0.2,0.8-0.3
				s0.7-0.1,1.1-0.1c0.8,0,1.5,0.2,2,0.5c0.5,0.3,0.9,0.7,1.1,1.2c0.3-0.5,0.7-0.9,1.2-1.2c0.5-0.3,1.2-0.5,2.1-0.5
				c0.7,0,1.4,0.1,1.9,0.3c0.5,0.2,1,0.6,1.3,1s0.6,0.9,0.7,1.4c0.2,0.5,0.2,1.1,0.2,1.7v8.5h-2.3v-8.3c0-0.8-0.2-1.5-0.5-2
				c-0.4-0.5-0.9-0.7-1.7-0.7c-0.7,0-1.3,0.2-1.7,0.7s-0.6,1.1-0.6,1.9V687.8z"/>
			<path class="st1" d="M750.3,682.1c0.1,1.2,0.5,2.2,1.2,2.9c0.7,0.7,1.7,1,2.9,1c1,0,1.8-0.2,2.5-0.7s1.1-1.1,1.5-1.8l1.8,0.9
				c-0.2,0.5-0.5,1-0.8,1.4c-0.3,0.4-0.8,0.8-1.2,1.2c-0.5,0.3-1,0.6-1.6,0.8c-0.6,0.2-1.3,0.3-2.1,0.3c-1,0-1.8-0.2-2.6-0.5
				c-0.8-0.3-1.5-0.8-2.1-1.3s-1-1.3-1.3-2.1c-0.3-0.8-0.5-1.7-0.5-2.7c0-1,0.2-1.9,0.5-2.7c0.3-0.8,0.7-1.5,1.3-2.1
				c0.6-0.6,1.2-1.1,2-1.4c0.8-0.3,1.6-0.5,2.5-0.5c0.9,0,1.8,0.1,2.6,0.4c0.8,0.3,1.4,0.7,2,1.3s1,1.2,1.3,2
				c0.3,0.8,0.5,1.6,0.5,2.6c0,0.1,0,0.3,0,0.5c0,0.2,0,0.4,0,0.6H750.3z M754.2,676.7c-1.1,0-1.9,0.3-2.6,0.9
				c-0.7,0.6-1.1,1.5-1.2,2.6h7.8c-0.1-1.1-0.5-1.9-1.2-2.5C756.2,677,755.3,676.7,754.2,676.7z"/>
			<path class="st1" d="M769,679.6c0-0.9-0.2-1.5-0.6-2c-0.4-0.5-0.9-0.7-1.7-0.7c-0.8,0-1.4,0.3-1.8,0.8c-0.4,0.5-0.6,1.2-0.6,2
				v8.2h-2.3V675h2.3v1.2c0.1-0.1,0.2-0.3,0.4-0.4c0.2-0.2,0.4-0.3,0.6-0.4c0.2-0.1,0.5-0.2,0.8-0.3c0.3-0.1,0.7-0.1,1.1-0.1
				c0.7,0,1.4,0.1,1.9,0.4c0.5,0.2,0.9,0.6,1.2,1c0.3,0.4,0.6,0.9,0.7,1.4c0.1,0.5,0.2,1.1,0.2,1.8v8.5H769V679.6z"/>
			<path class="st1" d="M776,675h2.4v1.9H776v7.3c0,0.6,0.1,1,0.3,1.3c0.2,0.3,0.6,0.4,1.2,0.4h0.9v1.9c-0.1,0-0.3,0-0.5,0.1
				s-0.6,0.1-0.9,0.1c-1.2,0-2-0.3-2.5-0.8s-0.7-1.4-0.7-2.4v-7.8h-1.3V675h1.3v-2h2.3V675z"/>
			<path class="st1" d="M794.1,685.9c-0.2,0.2-0.4,0.5-0.7,0.7c-0.3,0.3-0.6,0.5-1,0.7c-0.4,0.2-0.8,0.4-1.3,0.5s-1,0.2-1.5,0.2
				c-1,0-1.8-0.2-2.7-0.5c-0.8-0.3-1.5-0.8-2.1-1.4s-1-1.3-1.3-2.1c-0.3-0.8-0.5-1.7-0.5-2.7c0-0.9,0.2-1.8,0.5-2.6
				c0.3-0.8,0.8-1.5,1.3-2.1c0.6-0.6,1.3-1.1,2.1-1.4s1.7-0.5,2.6-0.5c1,0,1.9,0.2,2.6,0.6c0.7,0.4,1.3,0.8,1.7,1.3v-6.3h2.3v17.5
				h-2.2V685.9z M785.4,681.4c0,0.7,0.1,1.3,0.3,1.8c0.2,0.6,0.5,1,0.9,1.5c0.4,0.4,0.8,0.7,1.4,0.9c0.5,0.2,1.1,0.3,1.7,0.3
				c0.6,0,1.2-0.1,1.8-0.3c0.5-0.2,1-0.5,1.4-0.9c0.4-0.4,0.7-0.9,0.9-1.5c0.2-0.6,0.3-1.2,0.3-1.8c0-0.7-0.1-1.3-0.3-1.8
				c-0.2-0.6-0.5-1-0.9-1.5c-0.4-0.4-0.8-0.7-1.4-1c-0.5-0.2-1.1-0.3-1.8-0.3c-0.6,0-1.2,0.1-1.8,0.3c-0.5,0.2-1,0.6-1.4,1
				c-0.4,0.4-0.7,0.9-0.9,1.5C785.5,680.1,785.4,680.7,785.4,681.4z"/>
			<path class="st1" d="M800.4,682.1c0.1,1.2,0.5,2.2,1.2,2.9c0.7,0.7,1.7,1,2.9,1c1,0,1.8-0.2,2.5-0.7s1.1-1.1,1.5-1.8l1.8,0.9
				c-0.2,0.5-0.5,1-0.8,1.4c-0.3,0.4-0.8,0.8-1.2,1.2c-0.5,0.3-1,0.6-1.6,0.8c-0.6,0.2-1.3,0.3-2.1,0.3c-1,0-1.8-0.2-2.6-0.5
				c-0.8-0.3-1.5-0.8-2.1-1.3s-1-1.3-1.3-2.1c-0.3-0.8-0.5-1.7-0.5-2.7c0-1,0.2-1.9,0.5-2.7c0.3-0.8,0.7-1.5,1.3-2.1
				c0.6-0.6,1.2-1.1,2-1.4c0.8-0.3,1.6-0.5,2.5-0.5c0.9,0,1.8,0.1,2.6,0.4c0.8,0.3,1.4,0.7,2,1.3s1,1.2,1.3,2
				c0.3,0.8,0.5,1.6,0.5,2.6c0,0.1,0,0.3,0,0.5c0,0.2,0,0.4,0,0.6H800.4z M804.3,676.7c-1.1,0-1.9,0.3-2.6,0.9
				c-0.7,0.6-1.1,1.5-1.2,2.6h7.8c-0.1-1.1-0.5-1.9-1.2-2.5C806.3,677,805.4,676.7,804.3,676.7z"/>
			<path class="st1" d="M818.2,687.8h-2.3v-17.5h2.3V687.8z"/>
			<path class="st1" d="M820,683.7c0-0.6,0.1-1.2,0.3-1.7c0.2-0.5,0.5-1,0.9-1.3c0.4-0.4,0.8-0.7,1.4-0.9s1.1-0.3,1.8-0.3
				c0.7,0,1.2,0.1,1.7,0.3c0.4,0.2,0.8,0.4,1,0.6v-1.1c0-0.8-0.2-1.5-0.6-1.9c-0.4-0.4-0.9-0.7-1.7-0.7c-0.8,0-1.3,0.2-1.6,0.6
				c-0.3,0.4-0.5,0.9-0.5,1.4h-2.1c0-0.6,0.1-1.1,0.3-1.6c0.2-0.5,0.5-0.9,0.8-1.2c0.4-0.3,0.8-0.6,1.3-0.8c0.5-0.2,1.2-0.3,1.9-0.3
				c0.8,0,1.5,0.1,2.1,0.3c0.6,0.2,1,0.5,1.4,0.9c0.4,0.4,0.6,0.9,0.8,1.5s0.3,1.2,0.3,1.9v8.3h-2v-1c-0.3,0.4-0.7,0.6-1.2,0.9
				c-0.5,0.2-1.1,0.3-1.7,0.3c-0.6,0-1.2-0.1-1.7-0.3c-0.5-0.2-1-0.5-1.4-0.9s-0.7-0.8-0.9-1.4C820.1,685,820,684.4,820,683.7z
				 M822.2,683.7c0,0.7,0.2,1.3,0.7,1.7c0.4,0.5,1,0.7,1.7,0.7c0.7,0,1.3-0.2,1.8-0.7c0.5-0.5,0.7-1,0.7-1.7c0-0.7-0.2-1.3-0.7-1.7
				s-1.1-0.7-1.8-0.7s-1.3,0.2-1.7,0.7C822.4,682.4,822.2,683,822.2,683.7z"/>
			<path class="st1" d="M844.2,687.8h-2.3v-8.2c0-0.8-0.2-1.5-0.5-2c-0.4-0.5-0.9-0.7-1.6-0.7c-0.8,0-1.3,0.3-1.7,0.8
				c-0.4,0.5-0.6,1.2-0.6,2.1v8.1h-2.3V675h2.3v1.2c0.1-0.1,0.2-0.3,0.4-0.4c0.2-0.2,0.4-0.3,0.6-0.4s0.5-0.2,0.8-0.3
				s0.7-0.1,1.1-0.1c0.8,0,1.5,0.2,2,0.5c0.5,0.3,0.9,0.7,1.1,1.2c0.3-0.5,0.7-0.9,1.2-1.2c0.5-0.3,1.2-0.5,2.1-0.5
				c0.7,0,1.4,0.1,1.9,0.3c0.5,0.2,1,0.6,1.3,1s0.6,0.9,0.7,1.4c0.2,0.5,0.2,1.1,0.2,1.7v8.5h-2.3v-8.3c0-0.8-0.2-1.5-0.5-2
				c-0.4-0.5-0.9-0.7-1.7-0.7c-0.7,0-1.3,0.2-1.7,0.7s-0.6,1.1-0.6,1.9V687.8z"/>
			<path class="st1" d="M852.7,681.4c0-1,0.2-1.9,0.5-2.7c0.3-0.8,0.8-1.5,1.4-2.1c0.6-0.6,1.3-1.1,2.1-1.4c0.8-0.3,1.7-0.5,2.6-0.5
				c1,0,1.8,0.2,2.7,0.5s1.5,0.8,2.1,1.4c0.6,0.6,1,1.3,1.4,2.1c0.3,0.8,0.5,1.7,0.5,2.7s-0.2,1.8-0.5,2.7c-0.3,0.8-0.8,1.5-1.4,2.1
				s-1.3,1-2.1,1.4s-1.7,0.5-2.6,0.5c-1,0-1.8-0.2-2.7-0.5c-0.8-0.3-1.5-0.8-2.1-1.4s-1-1.3-1.4-2.1S852.7,682.4,852.7,681.4z
				 M855,681.4c0,0.7,0.1,1.3,0.3,1.8c0.2,0.6,0.5,1,0.9,1.4c0.4,0.4,0.8,0.7,1.4,1c0.5,0.2,1.1,0.3,1.7,0.3c0.6,0,1.2-0.1,1.8-0.3
				c0.5-0.2,1-0.5,1.4-1s0.7-0.9,0.9-1.4c0.2-0.6,0.3-1.2,0.3-1.8c0-0.7-0.1-1.3-0.3-1.8c-0.2-0.6-0.5-1-0.9-1.5
				c-0.4-0.4-0.8-0.7-1.4-1c-0.5-0.2-1.1-0.3-1.7-0.3c-0.6,0-1.2,0.1-1.8,0.3c-0.5,0.2-1,0.5-1.4,1s-0.7,0.9-0.9,1.5
				C855.1,680.1,855,680.7,855,681.4z"/>
			<path class="st1" d="M872.8,677.3h-0.6c-0.8,0-1.4,0.2-1.7,0.6c-0.4,0.4-0.5,1-0.5,1.8v8.1h-2.3V675h2.3v1.2
				c0.2-0.4,0.6-0.7,1-0.9s1.1-0.4,1.8-0.3V677.3z"/>
			<path class="st1" d="M877.2,675h2.4v1.9h-2.4v7.3c0,0.6,0.1,1,0.3,1.3c0.2,0.3,0.6,0.4,1.2,0.4h0.9v1.9c-0.1,0-0.3,0-0.5,0.1
				s-0.6,0.1-0.9,0.1c-1.2,0-2-0.3-2.5-0.8s-0.7-1.4-0.7-2.4v-7.8h-1.3V675h1.3v-2h2.3V675z"/>
			<path class="st1" d="M880.5,683.7c0-0.6,0.1-1.2,0.3-1.7c0.2-0.5,0.5-1,0.9-1.3c0.4-0.4,0.8-0.7,1.4-0.9c0.5-0.2,1.1-0.3,1.8-0.3
				c0.7,0,1.2,0.1,1.7,0.3c0.4,0.2,0.8,0.4,1,0.6v-1.1c0-0.8-0.2-1.5-0.6-1.9c-0.4-0.4-0.9-0.7-1.7-0.7c-0.8,0-1.3,0.2-1.6,0.6
				c-0.3,0.4-0.5,0.9-0.5,1.4H881c0-0.6,0.1-1.1,0.3-1.6c0.2-0.5,0.5-0.9,0.8-1.2c0.4-0.3,0.8-0.6,1.3-0.8c0.5-0.2,1.2-0.3,1.9-0.3
				c0.8,0,1.5,0.1,2.1,0.3c0.6,0.2,1,0.5,1.4,0.9c0.4,0.4,0.6,0.9,0.8,1.5c0.2,0.6,0.3,1.2,0.3,1.9v8.3h-2v-1
				c-0.3,0.4-0.7,0.6-1.2,0.9c-0.5,0.2-1.1,0.3-1.7,0.3c-0.6,0-1.2-0.1-1.7-0.3c-0.5-0.2-1-0.5-1.4-0.9c-0.4-0.4-0.7-0.8-0.9-1.4
				C880.6,685,880.5,684.4,880.5,683.7z M882.7,683.7c0,0.7,0.2,1.3,0.7,1.7c0.4,0.5,1,0.7,1.7,0.7c0.7,0,1.3-0.2,1.8-0.7
				c0.5-0.5,0.7-1,0.7-1.7c0-0.7-0.2-1.3-0.7-1.7s-1.1-0.7-1.8-0.7c-0.7,0-1.3,0.2-1.7,0.7C882.9,682.4,882.7,683,882.7,683.7z"/>
			<path class="st1" d="M894.4,687.8h-2.3v-17.5h2.3V687.8z"/>
			<path class="st1" d="M897.8,673.7c-0.4,0-0.8-0.1-1.1-0.4s-0.4-0.7-0.4-1.1c0-0.4,0.1-0.8,0.4-1.1s0.7-0.4,1.1-0.4
				c0.4,0,0.8,0.1,1.1,0.4s0.5,0.6,0.5,1.1c0,0.4-0.2,0.8-0.5,1.1S898.2,673.7,897.8,673.7z M899,687.8h-2.3V675h2.3V687.8z"/>
			<path class="st1" d="M904,675h2.4v1.9H904v7.3c0,0.6,0.1,1,0.3,1.3c0.2,0.3,0.6,0.4,1.2,0.4h0.9v1.9c-0.1,0-0.3,0-0.5,0.1
				s-0.6,0.1-0.9,0.1c-1.2,0-2-0.3-2.5-0.8s-0.7-1.4-0.7-2.4v-7.8h-1.3V675h1.3v-2h2.3V675z"/>
			<path class="st1" d="M907.3,683.7c0-0.6,0.1-1.2,0.3-1.7c0.2-0.5,0.5-1,0.9-1.3c0.4-0.4,0.8-0.7,1.4-0.9c0.5-0.2,1.1-0.3,1.8-0.3
				c0.7,0,1.2,0.1,1.7,0.3c0.4,0.2,0.8,0.4,1,0.6v-1.1c0-0.8-0.2-1.5-0.6-1.9c-0.4-0.4-0.9-0.7-1.7-0.7c-0.8,0-1.3,0.2-1.6,0.6
				c-0.3,0.4-0.5,0.9-0.5,1.4h-2.1c0-0.6,0.1-1.1,0.3-1.6c0.2-0.5,0.5-0.9,0.8-1.2c0.4-0.3,0.8-0.6,1.3-0.8c0.5-0.2,1.2-0.3,1.9-0.3
				c0.8,0,1.5,0.1,2.1,0.3c0.6,0.2,1,0.5,1.4,0.9c0.4,0.4,0.6,0.9,0.8,1.5c0.2,0.6,0.3,1.2,0.3,1.9v8.3h-2v-1
				c-0.3,0.4-0.7,0.6-1.2,0.9c-0.5,0.2-1.1,0.3-1.7,0.3c-0.6,0-1.2-0.1-1.7-0.3c-0.5-0.2-1-0.5-1.4-0.9c-0.4-0.4-0.7-0.8-0.9-1.4
				C907.4,685,907.3,684.4,907.3,683.7z M909.5,683.7c0,0.7,0.2,1.3,0.7,1.7c0.4,0.5,1,0.7,1.7,0.7c0.7,0,1.3-0.2,1.8-0.7
				c0.5-0.5,0.7-1,0.7-1.7c0-0.7-0.2-1.3-0.7-1.7s-1.1-0.7-1.8-0.7c-0.7,0-1.3,0.2-1.7,0.7C909.7,682.4,909.5,683,909.5,683.7z"/>
			<path class="st1" d="M921.3,675h2.4v1.9h-2.4v7.3c0,0.6,0.1,1,0.3,1.3c0.2,0.3,0.6,0.4,1.2,0.4h0.9v1.9c-0.1,0-0.3,0-0.5,0.1
				s-0.6,0.1-0.9,0.1c-1.2,0-2-0.3-2.5-0.8s-0.7-1.4-0.7-2.4v-7.8h-1.3V675h1.3v-2h2.3V675z"/>
		</g>
	</g>
	<g>
		<rect x="688.1" y="540.2" class="st8" width="283.7" height="57.7"/>
		<g class="st9">
			<path class="st1" d="M710.2,564.3H707v-1.7c-0.6,0.6-1.5,1-2.6,1.5c-1.1,0.4-2.3,0.6-3.8,0.6c-1.7,0-3.3-0.3-4.7-0.9
				c-1.4-0.6-2.7-1.4-3.7-2.4c-1-1-1.8-2.3-2.4-3.7s-0.9-3.1-0.9-4.8c0-1.7,0.3-3.3,0.9-4.7s1.4-2.7,2.4-3.8c1-1.1,2.3-1.9,3.7-2.5
				c1.4-0.6,3-0.9,4.7-0.9c1.1,0,2.2,0.1,3.1,0.3c0.9,0.2,1.8,0.5,2.5,0.9c0.7,0.4,1.4,0.8,1.9,1.3c0.5,0.5,1,1,1.4,1.5l-2.4,2
				c-0.3-0.4-0.7-0.7-1.1-1.1c-0.4-0.4-0.9-0.7-1.4-1c-0.5-0.3-1.1-0.5-1.8-0.7c-0.7-0.2-1.4-0.3-2.2-0.3c-1.2,0-2.3,0.2-3.3,0.7
				c-1,0.4-1.9,1.1-2.6,1.8c-0.7,0.8-1.3,1.7-1.7,2.8c-0.4,1.1-0.6,2.3-0.6,3.6c0,1.3,0.2,2.5,0.6,3.6c0.4,1.1,1,2,1.7,2.8
				c0.7,0.8,1.6,1.4,2.6,1.8c1,0.4,2.2,0.6,3.4,0.6c1.4,0,2.6-0.2,3.6-0.7c1-0.4,1.9-1,2.6-1.7v-4h-4.2v-2.8h7.4V564.3z"/>
			<path class="st1" d="M713.6,564.3v-22.8h9.9v3h-6.7v6.6h6.5v3h-6.5v7.2h6.8v3H713.6z"/>
			<path class="st1" d="M729.7,547v17.3h-3.2v-22.8h3.3l11.6,17.5v-17.5h3.2v22.8h-3.3L729.7,547z"/>
			<path class="st1" d="M748.2,564.3v-22.8h9.9v3h-6.7v6.6h6.5v3h-6.5v7.2h6.8v3H748.2z"/>
			<path class="st1" d="M773.8,547.7c0,1.4-0.3,2.6-0.9,3.6c-0.6,1-1.5,1.7-2.6,2.2l5.7,10.9h-3.5l-5.4-10.3h-2.7v10.3h-3.2v-22.8
				h5.9c2.1,0,3.8,0.5,5,1.6C773.2,544.1,773.8,545.6,773.8,547.7z M764.4,544.3v7h2.5c1.2,0,2-0.3,2.6-1c0.6-0.6,0.9-1.5,0.9-2.6
				c0-1.1-0.3-1.9-0.9-2.5c-0.6-0.6-1.5-0.9-2.6-0.9H764.4z"/>
			<path class="st1" d="M791.1,556.8h-8.6l-2.8,7.5h-3.2l8.6-22.8h3.4l9,22.8h-3.4L791.1,556.8z M783.6,554h6.5l-3.3-8.4L783.6,554z
				"/>
			<path class="st1" d="M799.2,564.3v-22.8h3.2v19.8h6.6v3H799.2z"/>
			<path class="st1" d="M812.2,570.1h-2.9l11.8-29.9h2.9L812.2,570.1z"/>
			<path class="st1" d="M836.4,556.8h-8.6l-2.8,7.5h-3.2l8.6-22.8h3.4l9,22.8h-3.4L836.4,556.8z M828.9,554h6.5l-3.3-8.4L828.9,554z
				"/>
			<path class="st1" d="M844.5,564.3v-22.8h3.2v19.8h6.6v3H844.5z"/>
			<path class="st1" d="M861.1,544.5v19.8h-3.2v-19.8h-4.7v-3h12.6v3H861.1z"/>
			<path class="st1" d="M880.7,547.7c0,1.4-0.3,2.6-0.9,3.6c-0.6,1-1.5,1.7-2.6,2.2l5.7,10.9h-3.5l-5.4-10.3h-2.7v10.3h-3.2v-22.8
				h5.9c2.1,0,3.8,0.5,5,1.6S880.7,545.6,880.7,547.7z M871.3,544.3v7h2.5c1.2,0,2-0.3,2.6-1c0.6-0.6,0.9-1.5,0.9-2.6
				c0-1.1-0.3-1.9-0.9-2.5c-0.6-0.6-1.5-0.9-2.6-0.9H871.3z"/>
			<path class="st1" d="M884.4,564.3v-22.8h9.9v3h-6.7v6.6h6.5v3h-6.5v7.2h6.8v3H884.4z"/>
			<path class="st1" d="M900.1,546.9c0,0.8,0.2,1.4,0.6,1.9s0.9,0.9,1.6,1.3c0.7,0.3,1.4,0.6,2.1,0.9c0.7,0.3,1.4,0.6,2.1,1
				c1.2,0.6,2.2,1.4,2.9,2.3c0.7,1,1,2.2,1,3.7c0,1-0.2,1.9-0.5,2.7s-0.8,1.5-1.4,2.1c-0.6,0.6-1.3,1-2.2,1.4s-1.8,0.5-2.9,0.5
				c-1.3,0-2.4-0.2-3.4-0.6c-0.9-0.4-1.6-0.9-2.2-1.6c-0.5-0.7-0.9-1.4-1.2-2.3c-0.2-0.9-0.3-1.8-0.3-2.7h3.1c0,0.6,0.1,1.2,0.2,1.7
				c0.1,0.5,0.4,1,0.7,1.4c0.3,0.4,0.7,0.7,1.2,0.9c0.5,0.2,1.1,0.3,1.8,0.3c1.1,0,2-0.3,2.7-0.9c0.7-0.6,1.1-1.5,1.1-2.7
				c0-0.9-0.2-1.7-0.7-2.2s-1-1-1.8-1.4c-0.7-0.4-1.5-0.7-2.3-1c-0.8-0.3-1.5-0.6-2.3-1c-1-0.6-1.8-1.3-2.4-2.2
				c-0.6-0.9-0.8-2.1-0.8-3.4c0-0.8,0.1-1.6,0.4-2.3c0.3-0.7,0.7-1.4,1.3-1.9c0.6-0.5,1.2-1,2-1.3c0.8-0.3,1.7-0.5,2.7-0.5
				c1.2,0,2.2,0.2,3.1,0.5s1.5,0.8,2,1.4c0.5,0.6,0.9,1.3,1.1,2s0.3,1.6,0.3,2.4h-3c0-1-0.3-1.9-0.9-2.6c-0.6-0.7-1.4-1-2.5-1
				c-1.1,0-1.9,0.3-2.4,0.9C900.4,545.3,900.1,546.1,900.1,546.9z"/>
		</g>
	</g>
	<line class="st10" x1="1184.3" y1="517.8" x2="688.1" y2="516.1"/>
	<g>
		<circle class="st7" cx="676.8" cy="607.8" r="5.5"/>
	</g>
	<circle class="st7" cx="676.8" cy="643.8" r="5.5"/>
	<circle class="st7" cx="676.8" cy="679.7" r="5.5"/>
	<circle class="st7" cx="676.8" cy="-45.6" r="5.5"/>
</g>
</svg>
