<?xml version="1.0" encoding="utf-8"?>
<!-- Generator: Adobe Illustrator 21.1.0, SVG Export Plug-In . SVG Version: 6.00 Build 0)  -->
<svg version="1.1" id="Capa_1" xmlns="http://www.w3.org/2000/svg" xmlns:xlink="http://www.w3.org/1999/xlink" x="0px" y="0px"
	 viewBox="0 0 1440 1451.3" style="enable-background:new 0 0 1440 1451.3;" xml:space="preserve">
<style type="text/css">
	.st0{fill:#F4F4F4;}
	.st1{fill:#181716;}
	.st2{fill:#C3E4F9;}
	.st3{fill:#FBE2E0;}
	.st4{fill:#75C6F0;}
	.st5{fill:none;stroke:#34B7EB;stroke-width:6.0014;stroke-miterlimit:10;}
	.st6{fill:#34B7EB;}
	.st7{fill:none;}
	.st8{font-family:'Platform'; font-weight: 300; letter-spacing: 1px;}
	.st9{font-size:24.0054px;}
	.st10{letter-spacing:1;}
	.st11{font-size:33.0075px;}
	.st12{fill:none;stroke:#181716;stroke-width:1.5003;stroke-miterlimit:10;}
@font-face {
  font-family: 'Platform';
  src: url('../fonts/Platform-Regular.eot');
  src: url('../fonts/Platform-Regular.eot?#iefix') format('embedded-opentype'),
  url('../fonts/Platform-Regular.woff') format('woff'),
  url('../fonts/Platform-Regular.ttf') format('truetype'),
  url('../fonts/Platform-Regular.otf') format('opentype'),
  url('../fonts/Platform-Regular.svg#Platform-Regular') format('svg');
  font-weight: 300;
  font-style: normal;
}
</style>
<g id="bg">
	<rect y="0" class="st0" width="1440" height="1452.7"/>
	<rect y="1245.3" class="st1" width="1440" height="207.3"/>
</g>
<g id="cos">
	<g>
		<g>
			<path class="st2" d="M722.4,56.8c-0.4,0-0.7,0-1,0c-0.3,0-0.7,0-1,0c-44.9-0.4-62.4,35.1-59.8,80.4c2.5,44.3,19.6,91.2,60.6,92.1
				v0c0.1,0,0.2,0,0.3,0c0.1,0,0.2,0,0.3,0v0c41-0.9,58.1-47.8,60.6-92.1C784.8,92,767.4,56.4,722.4,56.8z"/>
			<g>
				
					<ellipse transform="matrix(0.1335 -0.9911 0.9911 0.1335 522.8825 906.9845)" class="st2" cx="780.1" cy="154.5" rx="23.8" ry="8"/>
				
					<ellipse transform="matrix(0.9911 -0.1335 0.1335 0.9911 -14.69 89.8308)" class="st2" cx="662.6" cy="154.5" rx="8" ry="23.8"/>
			</g>
			<rect x="686.3" y="197.1" class="st2" width="70.1" height="73.1"/>
			<g>
				<path class="st2" d="M734.2,303.2l-48.1-73.8v0c0,20.9-16.9,37.8-37.8,37.8h0L734.2,303.2z"/>
				<path class="st2" d="M708.5,303.2l48.1-73.8v0c0,20.9,16.9,37.8,37.8,37.8h0L708.5,303.2z"/>
			</g>
		</g>
		<g>
			<rect x="631.7" y="266.9" class="st2" width="178.7" height="281.4"/>
			<path class="st2" d="M604.4,305.4h233.4v86.2c0,35.4-28.7,64-64,64H668.4c-35.4,0-64-28.7-64-64V305.4z"/>
			<path class="st2" d="M558.5,388.6h325.1v-59.3c0-34.5-28-62.4-62.4-62.4H621c-34.5,0-62.4,28-62.4,62.4V388.6z"/>
			<path class="st2" d="M810.4,548.3h-89.4v196.1h127.1c0,0,0-24.5,0-74.5C848.1,621.9,810.4,548.3,810.4,548.3z"/>
			<path class="st2" d="M631.7,548.3h89.4v196.1H594c0,0,0-24.5,0-74.5C594,621.9,631.7,548.3,631.7,548.3z"/>
			<g>
				<path class="st2" d="M806.4,995.4c0,19.3-77.1,0-77.1,0v-251c0,0,118.8-29.7,118.8,0C848.1,851.2,806.4,966.4,806.4,995.4z"/>
				<path class="st2" d="M785.2,1310.3h-41l-14.9-314.8h76.9c0,0,6.4,92.3,6.4,123.2C812.6,1205.3,785.2,1310.3,785.2,1310.3z"/>
				<path class="st2" d="M793.1,1405.3c-0.1,2.3-2.4,6-4.9,9.3c-3.8,5-9.7,7.8-15.9,7.8h-29.7c-7,0-12.4-6.1-11.4-13.1l13.1-99h41
					C785.2,1310.3,794.1,1376,793.1,1405.3z"/>
			</g>
			<g>
				<path class="st2" d="M635.7,995.4c0,19.3,77.1,0,77.1,0v-251c0,0-118.8-29.7-118.8,0C594,851.2,635.7,966.4,635.7,995.4z"/>
				<path class="st2" d="M656.9,1310.3h41l14.9-314.8h-76.9c0,0-6.4,92.3-6.4,123.2C629.5,1205.3,656.9,1310.3,656.9,1310.3z"/>
				<path class="st2" d="M649.1,1405.3c0.1,2.3,2.4,6,4.9,9.3c3.8,5,9.7,7.8,15.9,7.8h29.7c7,0,12.4-6.1,11.4-13.1l-13.1-99h-41
					C657,1310.3,648,1376,649.1,1405.3z"/>
			</g>
			<polygon class="st2" points="904.1,537.9 858.2,543.2 830.3,325.9 883.5,319.7 			"/>
			<path class="st2" d="M918.9,722.6l-27,3.1l-33.7-182.5c0,0,42.4-39.8,43.8-27.7c2.5,21.5,8.9,43.4,12.1,73.1
				C917.7,621.9,918.9,722.6,918.9,722.6z"/>
			<path class="st2" d="M918.9,722.6V764c0,8.9-2.7,17.6-7.9,24.9l-32.9,46.8c-2.7,3.9-8,4.9-11.9,2.3v0c-3.7-2.4-5-7.1-3.1-11.1
				l20.4-42.3l-2.8-15.3l-14.6,28.8c-0.7,1.3-2.2,2-3.7,1.6l0,0c-1.5-0.4-2.5-1.9-2.3-3.4l3.1-27.7c0.8-7.2,3.3-14.1,7.4-20.1
				l21.2-22.9L918.9,722.6z"/>
			<g>
				<polygon class="st2" points="538.7,537.9 584.6,543.2 612.4,325.9 559.3,319.7 				"/>
				<path class="st2" d="M523.9,722.6l27,3.1l33.7-182.5c0,0-42.4-39.8-43.8-27.7c-2.5,21.5-8.9,43.4-12.1,73.1
					C525.1,621.9,523.9,722.6,523.9,722.6z"/>
				<path class="st2" d="M523.9,722.6V764c0,8.9,2.7,17.6,7.9,24.9l32.9,46.8c2.7,3.9,8,4.9,11.9,2.3v0c3.7-2.4,5-7.1,3.1-11.1
					l-20.4-42.3l2.8-15.3l14.6,28.8c0.7,1.3,2.2,2,3.7,1.6l0,0c1.5-0.4,2.5-1.9,2.3-3.4l-3.1-27.7c-0.8-7.2-3.3-14.1-7.4-20.1
					l-21.2-22.9L523.9,722.6z"/>
			</g>
		</g>
	</g>
	<g>
		<g>
			<path class="st3" d="M738.9,273.6L738.9,273.6c3.9-2.5,8.4-3.9,13.1-3.9h6.3c7.9,0.5,12.9,3.1,16,7.1
				c21.4,27.7,48.6,65,55.8,114.3c1.7,11.9-15.2,35.7-19.8,39.1c-55.8,41.5-87.2-27.9-87.2-27.9l5-109.7
				C728.4,284.8,732.4,277.8,738.9,273.6z"/>
			<circle class="st3" cx="775.5" cy="396.3" r="54.6"/>
		</g>
		<g>
			<path class="st3" d="M704.6,273.6L704.6,273.6c-3.9-2.5-8.4-3.9-13.1-3.9h-6.3c-7.9,0.5-12.9,3.1-16,7.1
				c-21.4,27.7-48.6,65-55.8,114.3c-1.7,11.9,15.2,35.7,19.8,39.1c55.8,41.5,87.2-27.9,87.2-27.9l17.6-99l-22.5-10.6
				C715.1,284.8,711.1,277.8,704.6,273.6z"/>
			<circle class="st3" cx="668.1" cy="396.3" r="54.6"/>
		</g>
	</g>
	<path class="st4" d="M721.4,716L721.4,716c-30.3,0-54.9-24.6-54.9-54.9v-61.7c0-30.3,24.6-54.9,54.9-54.9h0
		c30.3,0,54.9,24.6,54.9,54.9v61.7C776.3,691.4,751.7,716,721.4,716z"/>
	<g>
		<g>
			<g>
				<circle class="st4" cx="689" cy="394.9" r="22.4"/>
				<circle class="st4" cx="659.2" cy="405.7" r="24.4"/>
				<circle class="st4" cx="697.9" cy="330.1" r="13.5"/>
				<rect x="681.5" y="330.1" class="st4" width="29.9" height="61"/>
				<path class="st4" d="M635.7,399.1c13.2-52.4,53.6-79.5,53.6-79.5l5.4,70.4C694.8,390,632,413.6,635.7,399.1z"/>
			</g>
			<g>
				<circle class="st4" cx="754.5" cy="394.9" r="22.4"/>
				<circle class="st4" cx="784.3" cy="405.7" r="24.4"/>
				<circle class="st4" cx="745.6" cy="330.1" r="13.5"/>
				
					<rect x="732.1" y="330.1" transform="matrix(-1 4.449939e-11 -4.449939e-11 -1 1494.0959 721.1439)" class="st4" width="29.9" height="61"/>
				<path class="st4" d="M807.9,399.1c-13.2-52.4-53.6-79.5-53.6-79.5l-5.4,70.4C748.8,390,811.5,413.6,807.9,399.1z"/>
			</g>
		</g>
		<rect x="714.3" y="269.2" class="st4" width="14.9" height="56.1"/>
		<g>
			
				<rect x="731.9" y="313.7" transform="matrix(0.7071 -0.7071 0.7071 0.7071 -25.0692 622.9266)" class="st4" width="14.9" height="56.1"/>
			
				<rect x="696.7" y="313.7" transform="matrix(-0.7071 -0.7071 0.7071 -0.7071 960.3918 1081.2563)" class="st4" width="14.9" height="56.1"/>
		</g>
	</g>
	<g>
		<path class="st5" d="M889.5,761.4c0,0,20.9-17.7,20.3-35.7c-1.6-43.9,1.6-76-1.6-100.3c-8-60.9-24.9-73-27.9-100.5
			c-2.6-23.1,5-164.8-13-199.7c-19.1-36.9-65.2-41.5-97.4-33c-22.8,6-28.3,24.1-30.4,35.6c-1.6,8.8-1.8,16.5,2.7,35.8"/>
		<path class="st5" d="M820.6,291.1c23.7,6.2,25.7,29.3,27.5,56.9s33.3,135.3,30.9,171.2s-1.1,91.7,6.5,115.8
			c7.6,24.1,21.6,54.8,23.8,80.9"/>
		<path class="st5" d="M554.3,761.4c0,0-20.9-17.7-20.3-35.7c1.6-43.9-1.6-76,1.6-100.3c8-60.9,24.9-73,27.9-100.5
			c2.6-23.1-5-164.8,13-199.7c19.1-36.9,65.2-41.5,97.4-33c22.8,6,47.4,21.8,51.6,35.6c2.6,8.6,8.6,16.5,4.2,35.8"/>
		<path class="st5" d="M623.2,291.1c-23.7,6.2-25.7,29.3-27.5,56.9s-33.3,135.3-30.9,171.2c2.4,35.9,1.1,91.7-6.5,115.8
			c-7.6,24.1-21.6,54.8-23.8,80.9"/>
		<path class="st5" d="M769.8,292.2c0,0-23.1-47.7-24.2-62.9c-1.1-15.2,13.1-41.3,23.2-68.4c5.7-15.3,5-30.2,3.3-40.3
			c-1.3-7.6-6.4-14-13.5-16.9l-4.6-1.9"/>
		<line class="st5" x1="745.6" y1="225.9" x2="751.5" y2="301.5"/>
		<path class="st5" d="M672.6,291.4c0,0,23.1-46.8,24.2-62s-13.1-41.3-23.2-68.4c-6.5-17.4-4.7-34.3-2.5-44.1
			c1.2-5.4,4.3-10.1,8.7-13.3l4.8-3.5"/>
		<line class="st5" x1="696.7" y1="225.9" x2="690.9" y2="298.1"/>
		<path class="st5" d="M725.5,411.8c0,0-3.9,223.5,0.4,234.6c4.3,11.1,78.3,67.9,82.1,115c8.8,108-27.9,228.6-29.6,234.1
			c-6.6,21.4,19,145.2,13.3,195.2s-26.4,117.2-29.7,141.5c-3.2,24.3-5.6,54.3-5.6,54.3"/>
		<path class="st5" d="M754.5,677c13,13.8,18.6,46.7,16.4,84.3c-2.1,37.6,8.4,197.7,2.4,249.2c-6,51.5-18.1,154.4-14.2,193
			c3.9,38.6,7.1,90.2,2.9,128.7"/>
		<path class="st5" d="M724.4,643c-4.3,11.1-86.7,71.3-90.5,118.4c-8.8,108,27.9,228.6,29.6,234.1c6.6,21.4-19,145.2-13.3,195.2
			s26.4,117.2,29.7,141.5c3.2,24.3,5.6,54.3,5.6,54.3"/>
		<path class="st5" d="M687.7,679.1c-13,13.8-19,44.6-16.9,82.2c2.1,37.6-8.4,197.7-2.4,249.2s18.1,154.4,14.2,193
			c-3.9,38.6-7.1,90.2-2.9,128.7"/>
	</g>
	<path class="st6" d="M726.9,340.5c0,0,4.3,6.4,3.8,7.8c-0.4,1.4-3.7,2.6-7.2,11c-2.3,5.8,0.9,11.3-0.6,12.4
		c-1.6,1.1-5.7,7.9-6.9,10.2c-8.9,16.7,4,34.6,13.3,41.2c9.3,6.5,18.4,6.7,24.3,9.3c8.2,3.5,19,5.8,25.3-5.3c0,0,4.1-8.5-1-24.1
		c-2.9-8.9-6.4-15.4-8.1-17.8c-5.5-7.7-11.2-11.2-13.8-12.6c-1.4-0.7-0.8-3.8,2-5c2.8-1.3,6-0.3,6-0.3l1-4c0,0-3.9-1.3-5.8-0.9
		c-1.9,0.3,2.1-4.2,2.3-7.3c0,0-2.7-2.3-4.4-1.7c0,0-1,3.7-3.5,7.7c0,0,1-9.6-5.9-14.6c0,0,1.6-8.1,2.1-8.8c0,0-3.2-1.7-4.5-1.4
		c0,0-1.9,8.1-2.2,8.3c-0.3,0.2-0.9,1.2-1.5,0.2c-0.6-1-0.8-9.6-0.8-9.6l-4.4,0.5c0,0,1.9,9.3,0.7,9.8c-0.4,0.2-0.8,0.8-1.6,0.1
		c-2.1-1.8-4.3-6.9-4.3-7.3C731.1,337.8,726.9,340.5,726.9,340.5z"/>
	<g>
		<circle class="st6" cx="688.1" cy="99.4" r="13.6"/>
		<circle class="st6" cx="708.4" cy="87.8" r="14.7"/>
		<circle class="st6" cx="731" cy="86.3" r="16.3"/>
		<circle class="st6" cx="681.8" cy="104.9" r="8.1"/>
		<circle class="st6" cx="761.4" cy="104.9" r="8.1"/>
		<circle class="st6" cx="750.4" cy="93.4" r="11"/>
		<rect x="681.8" y="99.4" class="st6" width="79.6" height="13.6"/>
		<rect x="707.3" y="90.3" class="st6" width="14.3" height="17.6"/>
	</g>
	<g>
		<rect x="118.9" y="170.7" class="st7" width="380.7" height="354.3"/>
		<text transform="matrix(1 0 0 1 118.9348 188.2323)"><tspan x="0" y="0" class="st1 st8 st9 st10">Demencia</tspan><tspan x="0" y="36" class="st1 st8 st9 st10">Enfermedades </tspan><tspan x="0" y="60" class="st1 st8 st9 st10">neurodegenerativas</tspan><tspan x="0" y="96" class="st1 st8 st9 st10">Problemas de salud mental</tspan><tspan x="0" y="132" class="st1 st8 st9 st10">Ictus</tspan><tspan x="0" y="168" class="st1 st8 st9 st10">Autismo y problemas de </tspan><tspan x="0" y="192" class="st1 st8 st9 st10">conducta en niños</tspan></text>
	</g>
	<g>
		<rect x="118.9" y="112.6" class="st7" width="283.7" height="138.5"/>
		<text transform="matrix(1 0 0 1 118.9343 136.7484)" class="st1 st8 st11 st10">Cabeza</text>
	</g>
	<line class="st12" x1="731.4" y1="90.2" x2="118.9" y2="88.5"/>
	<g>
		<rect x="961.7" y="840.7" class="st7" width="360.9" height="195.4"/>
		<text transform="matrix(1 0 0 1 1076.2153 858.2489)"><tspan x="0" y="0" class="st1 st8 st9 st10">Nacimiento prematuro</tspan><tspan x="-4.2" y="36" class="st1 st8 st9 st10">Peso reducido al nacer </tspan><tspan x="114.3" y="72" class="st1 st8 st9 st10">Preclampsia</tspan><tspan x="-56.2" y="108" class="st1 st8 st9 st10">Reducción en la calidad del </tspan><tspan x="150.6" y="132" class="st1 st8 st9 st10">esperma</tspan></text>
	</g>
	<g>
		<rect x="955.9" y="745.1" class="st7" width="366.7" height="123.5"/>
		<text transform="matrix(1 0 0 1 962.1011 769.1993)"><tspan x="0" y="0" class="st1 st8 st11">Aparato reproductor</tspan><tspan x="269.9" y="37.5" class="st1 st8 st11">y feto</tspan></text>
	</g>
	<g>
		<rect x="118.9" y="824.1" class="st7" width="538.6" height="474.6"/>
		<text transform="matrix(1 0 0 1 118.9348 841.6852)"><tspan x="0" y="0" class="st1 st8 st9 st10">Diabetes</tspan><tspan x="0" y="36" class="st1 st8 st9 st10">Inflamación sistémica</tspan><tspan x="0" y="72" class="st1 st8 st9 st10">Incremento de la mortalidad</tspan></text>
	</g>
	<g>
		<rect x="118.9" y="766.1" class="st7" width="283.7" height="57.7"/>
		<text transform="matrix(1 0 0 1 118.9343 790.2008)" class="st1 st8 st11 st10">General/Otros</text>
	</g>
	<line class="st12" x1="615.1" y1="743.7" x2="118.9" y2="742"/>
	<circle class="st6" cx="107.6" cy="871.1" r="5.5"/>
	<circle class="st6" cx="107.6" cy="907.3" r="5.5"/>
	<circle class="st6" cx="107.6" cy="833.7" r="5.5"/>
	<circle class="st6" cx="1335.1" cy="850.6" r="5.5"/>
	<circle class="st6" cx="1335.1" cy="888.1" r="5.5"/>
	<circle class="st6" cx="1335.1" cy="958.1" r="5.5"/>
	<circle class="st6" cx="1335.1" cy="924.2" r="5.5"/>
	<circle class="st6" cx="107.6" cy="349.7" r="5.5"/>
	<circle class="st6" cx="107.6" cy="216.9" r="5.5"/>
	<circle class="st6" cx="107.6" cy="180.2" r="5.5"/>
	<circle class="st6" cx="107.6" cy="313" r="5.5"/>
	<circle class="st6" cx="107.6" cy="276.4" r="5.5"/>
	<circle class="st6" cx="1335.1" cy="182.8" r="5.5"/>
	<circle class="st6" cx="1335.1" cy="243" r="5.5"/>
	<circle class="st6" cx="1335.1" cy="278.9" r="5.5"/>
	<circle class="st6" cx="1335.1" cy="314.7" r="5.5"/>
	<circle class="st6" cx="1335.1" cy="350.8" r="5.5"/>
	<circle class="st6" cx="1335.1" cy="1162.6" r="5.5"/>
	<g>
		<rect x="964.8" y="171.5" class="st7" width="357.8" height="214.7"/>
		<text transform="matrix(1 0 0 1 1084.3518 189.058)"><tspan x="0" y="0" class="st1 st8 st9 st10">Enfermedad Pulmonar </tspan><tspan x="-60.4" y="24" class="st1 st8 st9 st10">Obstructiva Crónica (EPOC)</tspan><tspan x="179.3" y="60" class="st1 st8 st9 st10">Asma</tspan><tspan x="-64.7" y="96" class="st1 st8 st9 st10">Enfermedades respiratorias </tspan><tspan x="127.7" y="132" class="st1 st8 st9 st10">Neumonía</tspan><tspan x="38" y="168" class="st1 st8 st9 st10">Cáncer de pulmón</tspan></text>
	</g>
	<g>
		<rect x="937.4" y="113.6" class="st7" width="385.2" height="138.5"/>
		<text transform="matrix(1 0 0 1 949.4915 137.6847)" class="st1 st8 st11 st10">Aparato respiratorio  </text>
	</g>
	<polyline class="st12" points="1322.6,91.2 959.8,89.7 780.1,361.7 	"/>
	<circle class="st6" cx="1335.1" cy="528.6" r="5.5"/>
	<circle class="st6" cx="1334.9" cy="563.7" r="5.5"/>
	<circle class="st6" cx="1334.9" cy="599.6" r="5.5"/>
	<circle class="st6" cx="1334.9" cy="635.5" r="5.5"/>
	<g>
		<rect x="965.7" y="517.1" class="st7" width="357.8" height="151.9"/>
		<text transform="matrix(1 0 0 1 1098.6406 534.6368)"><tspan x="0" y="0" class="st1 st8 st9 st10">Infarto de miocardio </tspan><tspan x="139.6" y="36" class="st1 st8 st9 st10">Arritmia</tspan><tspan x="-59.7" y="72" class="st1 st8 st9 st10">Fallo congestivo cardíaco</tspan><tspan x="-126.6" y="108" class="st1 st8 st9 st10">Enfermedades cardiovasculares</tspan></text>
	</g>
	<g>
		<rect x="938.3" y="458.3" class="st7" width="385.2" height="321.3"/>
		<text transform="matrix(1 0 0 1 1162.0898 482.4579)" class="st1 st8 st11 st10">Corazón</text>
	</g>
	<polyline class="st12" points="1323.5,436 960.7,434.6 759.9,393.2 	"/>
	<g>
		<rect x="964.8" y="1151.2" class="st7" width="357.8" height="133.5"/>
		<text transform="matrix(1 0 0 1 1015.4119 1168.7545)" class="st1 st8 st9 st10">Trombosis venosa profunda</text>
	</g>
	<g>
		<rect x="937.4" y="1092.8" class="st7" width="385.2" height="59.8"/>
		<text transform="matrix(1 0 0 1 1181.7615 1116.9142)" class="st1 st8 st11 st10">Arterias  </text>
	</g>
	<line class="st12" x1="1322.6" y1="1069" x2="778.4" y2="1067.3"/>
	<polyline class="st12" points="754.5,602.1 936.9,722.2 1322.6,721 	"/>
</g>
</svg>
