<?xml version="1.0" encoding="utf-8"?>
<!-- Generator: Adobe Illustrator 19.0.0, SVG Export Plug-In . SVG Version: 6.00 Build 0)  -->
<svg version="1.1" id="Capa_1" xmlns="http://www.w3.org/2000/svg" xmlns:xlink="http://www.w3.org/1999/xlink" x="0px" y="0px"
	 viewBox="570 -225.3 1440 1451.3" style="enable-background:new 570 -225.3 1440 1451.3;" xml:space="preserve">
<style type="text/css">
	.st0{fill:#F4F4F4;}
	.st1{fill:#181716;}
	.st2{fill:#FCD7A6;}
	.st3{fill:#FBE2E0;}
	.st4{fill:#F29700;}
	.st5{fill:#F8D2D0;}
	.st6{fill:none;stroke:#F0A0A0;stroke-width:6.0028;stroke-linecap:round;stroke-miterlimit:10;}
	.st7{fill:#F0A0A0;}
	.st8{fill:none;}
	.st9{font-family:'PlatformWeb-Regular';}
	.st10{font-size:24.0054px;}
	.st11{font-size:33.0075px;}
	.st12{fill:none;stroke:#181716;stroke-width:1.5003;stroke-miterlimit:10;}
</style>
<g id="bg">
	<rect x="570" y="-226" class="st0" width="1440" height="1452.7"/>
	<rect x="570" y="1019.3" class="st1" width="1440" height="207.3"/>
</g>
<g id="Cos">
	<g>
		<g>
			<path class="st2" d="M1291.9-169.2c-0.4,0-0.7,0-1,0s-0.7,0-1,0c-44.9-0.4-62.4,35.1-59.8,80.4c2.5,44.3,19.6,91.2,60.6,92.1l0,0
				c0.1,0,0.2,0,0.3,0s0.2,0,0.3,0l0,0c41-0.9,58.1-47.8,60.6-92.1C1354.3-134,1336.8-169.6,1291.9-169.2z"/>
			<g>
				
					<ellipse transform="matrix(-0.1335 0.991 -0.991 -0.1335 1458.9559 -1418.7792)" class="st2" cx="1349.7" cy="-71.6" rx="23.8" ry="8"/>
				
					<ellipse transform="matrix(-0.991 0.1335 -0.1335 -0.991 2443.7334 -306.7161)" class="st2" cx="1232.1" cy="-71.4" rx="8" ry="23.8"/>
			</g>
			<rect x="1255.8" y="-28.9" class="st2" width="70.1" height="73.1"/>
			<g>
				<path class="st2" d="M1303.7,77.2l-48.1-73.8l0,0c0,20.9-16.9,37.8-37.8,37.8l0,0L1303.7,77.2z"/>
				<path class="st2" d="M1278,77.2l48.1-73.8l0,0c0,20.9,16.9,37.8,37.8,37.8l0,0L1278,77.2z"/>
			</g>
		</g>
		<g>
			<rect x="1201.2" y="40.9" class="st2" width="178.7" height="281.4"/>
			<path class="st2" d="M1173.8,79.4h233.4v86.2c0,35.4-28.7,64-64,64h-105.3c-35.4,0-64-28.7-64-64L1173.8,79.4L1173.8,79.4z"/>
			<path class="st2" d="M1128,162.6h325.1v-59.3c0-34.5-28-62.4-62.4-62.4h-200.3c-34.5,0-62.4,28-62.4,62.4V162.6z"/>
			<path class="st2" d="M1379.9,322.3h-89.4v196.1h127.1c0,0,0-24.5,0-74.5C1417.6,395.9,1379.9,322.3,1379.9,322.3z"/>
			<path class="st2" d="M1201.2,322.3h89.4v196.1h-127.1c0,0,0-24.5,0-74.5C1163.5,395.9,1201.2,322.3,1201.2,322.3z"/>
			<g>
				<path class="st2" d="M1375.9,769.4c0,19.3-77.1,0-77.1,0v-251c0,0,118.8-29.7,118.8,0C1417.6,625.2,1375.9,740.3,1375.9,769.4z"
					/>
				<path class="st2" d="M1354.7,1084.3h-41l-14.9-314.8h76.9c0,0,6.4,92.3,6.4,123.2C1382.1,979.3,1354.7,1084.3,1354.7,1084.3z"/>
				<path class="st2" d="M1362.5,1179.3c-0.1,2.3-2.4,6-4.9,9.3c-3.8,5-9.7,7.8-15.9,7.8H1312c-7,0-12.4-6.1-11.4-13.1l13.1-99h41
					C1354.6,1084.3,1363.6,1150,1362.5,1179.3z"/>
			</g>
			<g>
				<path class="st2" d="M1205.2,769.4c0,19.3,77.1,0,77.1,0v-251c0,0-118.8-29.7-118.8,0C1163.5,625.2,1205.2,740.3,1205.2,769.4z"
					/>
				<path class="st2" d="M1226.4,1084.3h41l14.9-314.8h-76.9c0,0-6.4,92.3-6.4,123.2C1199,979.3,1226.4,1084.3,1226.4,1084.3z"/>
				<path class="st2" d="M1218.5,1179.3c0.1,2.3,2.4,6,4.9,9.3c3.8,5,9.7,7.8,15.9,7.8h29.7c7,0,12.4-6.1,11.4-13.1l-13.1-99h-41
					C1226.4,1084.3,1217.5,1150,1218.5,1179.3z"/>
			</g>
			<polygon class="st2" points="1473.5,311.9 1427.6,317.2 1399.8,99.9 1452.9,93.7 			"/>
			<path class="st2" d="M1488.3,496.6l-27,3.1l-33.7-182.5c0,0,42.4-39.8,43.8-27.7c2.5,21.5,8.9,43.4,12.1,73.1
				C1487.1,395.9,1488.3,496.6,1488.3,496.6z"/>
			<path class="st2" d="M1488.3,496.6V538c0,8.9-2.7,17.6-7.9,24.9l-32.9,46.8c-2.7,3.9-8,4.9-11.9,2.3l0,0c-3.7-2.4-5-7.1-3.1-11.1
				l20.4-42.3l-2.8-15.3l-14.6,28.8c-0.7,1.3-2.2,2-3.7,1.6l0,0c-1.5-0.4-2.5-1.9-2.3-3.4l3.1-27.7c0.8-7.2,3.3-14.1,7.4-20.1
				l21.2-22.9L1488.3,496.6z"/>
			<g>
				<polygon class="st2" points="1108.1,311.9 1154,317.2 1181.9,99.9 1128.7,93.7 				"/>
				<path class="st2" d="M1093.3,496.6l27,3.1l33.7-182.5c0,0-42.4-39.8-43.8-27.7c-2.5,21.5-8.9,43.4-12.1,73.1
					C1094.6,395.9,1093.3,496.6,1093.3,496.6z"/>
				<path class="st2" d="M1093.3,496.6V538c0,8.9,2.7,17.6,7.9,24.9l32.9,46.8c2.7,3.9,8,4.9,11.9,2.3l0,0c3.7-2.4,5-7.1,3.1-11.1
					l-20.4-42.3l2.8-15.3l14.6,28.8c0.7,1.3,2.2,2,3.7,1.6l0,0c1.5-0.4,2.5-1.9,2.3-3.4l-3.1-27.7c-0.8-7.2-3.3-14.1-7.4-20.1
					l-21.2-22.9L1093.3,496.6z"/>
			</g>
		</g>
	</g>
	<g>
		<g>
			<path class="st3" d="M1308.4,47.6L1308.4,47.6c3.9-2.5,8.4-3.9,13.1-3.9h6.3c7.9,0.5,12.9,3.1,16,7.1
				c21.4,27.7,48.6,65,55.8,114.3c1.7,11.9-15.2,35.7-19.8,39.1c-55.8,41.5-87.2-27.9-87.2-27.9l5-109.7
				C1297.9,58.8,1301.9,51.8,1308.4,47.6z"/>
			<circle class="st3" cx="1344.9" cy="170.3" r="54.6"/>
		</g>
		<g>
			<path class="st3" d="M1274.1,47.6L1274.1,47.6c-3.9-2.5-8.4-3.9-13.1-3.9h-6.3c-7.9,0.5-12.9,3.1-16,7.1
				c-21.4,27.7-48.6,65-55.8,114.3c-1.7,11.9,15.2,35.7,19.8,39.1c55.8,41.5,87.2-27.9,87.2-27.9l17.6-99L1285,66.5
				C1284.6,58.8,1280.6,51.8,1274.1,47.6z"/>
			<circle class="st3" cx="1237.5" cy="170.3" r="54.6"/>
		</g>
	</g>
	<path class="st4" d="M1290.8,490L1290.8,490c-30.3,0-54.9-24.6-54.9-54.9v-61.7c0-30.3,24.6-54.9,54.9-54.9l0,0
		c30.3,0,54.9,24.6,54.9,54.9v61.7C1345.7,465.4,1321.1,490,1290.8,490z"/>
	<g>
		<g>
			<g>
				<circle class="st5" cx="1258.5" cy="168.9" r="22.4"/>
				<circle class="st5" cx="1228.7" cy="179.7" r="24.4"/>
				<circle class="st5" cx="1267.4" cy="104.1" r="13.5"/>
				<rect x="1251" y="104.1" class="st5" width="29.9" height="61"/>
				<path class="st5" d="M1205.1,173.1c13.2-52.4,53.6-79.5,53.6-79.5l5.4,70.4C1264.2,164,1201.5,187.6,1205.1,173.1z"/>
			</g>
			<g>
				<circle class="st5" cx="1324" cy="168.9" r="22.4"/>
				<circle class="st5" cx="1353.8" cy="179.7" r="24.4"/>
				<circle class="st5" cx="1315.1" cy="104.1" r="13.5"/>
				<rect x="1301.5" y="104" class="st5" width="29.9" height="61"/>
				<path class="st5" d="M1377.3,173.1c-13.2-52.4-53.6-79.5-53.6-79.5l-5.4,70.4C1318.2,164,1381,187.6,1377.3,173.1z"/>
			</g>
		</g>
		<rect x="1283.8" y="43.2" class="st5" width="14.9" height="56.1"/>
		<g>
			
				<rect x="1301.5" y="87.7" transform="matrix(0.7071 -0.7071 0.7071 0.7071 301.5324 959.4333)" class="st5" width="14.9" height="56.1"/>
			
				<rect x="1266.2" y="87.7" transform="matrix(-0.7071 -0.7071 0.7071 -0.7071 2092.3877 1098.153)" class="st5" width="14.9" height="56.1"/>
		</g>
	</g>
	<g>
		<path class="st6" d="M1458.9,535.3c0,0,20.9-17.7,20.3-35.7c-1.6-43.9,1.6-76-1.6-100.3c-8-60.9-24.9-73-27.9-100.5
			c-2.6-23.1,5-164.8-13-199.7c-19.1-36.9-65.2-41.5-97.4-33c-22.8,6-28.3,24.1-30.4,35.6c-1.6,8.8-1.8,16.5,2.7,35.8"/>
		<path class="st6" d="M1390.1,65.1c23.7,6.2,25.7,29.3,27.5,56.9s33.3,135.3,30.9,171.2c-2.4,35.9-1.1,91.7,6.5,115.8
			s21.6,54.8,23.8,80.9"/>
		<path class="st6" d="M1123.8,535.3c0,0-20.9-17.7-20.3-35.7c1.6-43.9-1.6-76,1.6-100.3c8-60.9,24.9-73,27.9-100.5
			c2.6-23.1-5-164.8,13-199.7c19.1-36.9,65.2-41.5,97.4-33c22.8,6,47.4,21.8,51.6,35.6c2.6,8.6,8.6,16.5,4.2,35.8"/>
		<path class="st6" d="M1192.6,65.1c-23.7,6.2-25.7,29.3-27.5,56.9s-33.3,135.3-30.9,171.2c2.4,35.9,1.1,91.7-6.5,115.8
			c-7.6,24.1-21.6,54.8-23.8,80.9"/>
		<path class="st6" d="M1339.3,66.2c0,0-23.1-47.7-24.2-62.9s13.1-41.3,23.2-68.4c5.7-15.3,5-30.2,3.3-40.3
			c-1.3-7.6-6.4-14-13.5-16.9l-4.6-1.9"/>
		<line class="st6" x1="1315.1" y1="-0.1" x2="1320.9" y2="75.5"/>
		<path class="st6" d="M1242,65.4c0,0,23.1-46.8,24.2-62c1.1-15.2-13.1-41.3-23.2-68.4c-6.5-17.4-4.7-34.3-2.5-44.1
			c1.2-5.4,4.3-10.1,8.7-13.3l4.8-3.5"/>
		<line class="st6" x1="1266.2" y1="-0.1" x2="1260.4" y2="72.1"/>
		<path class="st6" d="M1294.9,185.8c0,0-3.9,223.5,0.4,234.6c4.3,11.1,78.3,67.9,82.1,115c8.8,108-27.9,228.6-29.6,234.1
			c-6.6,21.4,19,145.2,13.3,195.2c-5.7,50-26.4,117.2-29.7,141.5c-3.2,24.3-5.6,54.3-5.6,54.3"/>
		<path class="st6" d="M1324,451c13,13.8,18.6,46.7,16.4,84.3s8.4,197.7,2.4,249.2s-18.1,154.4-14.2,193
			c3.9,38.6,7.1,90.2,2.9,128.7"/>
		<path class="st6" d="M1293.8,417c-4.3,11.1-86.7,71.3-90.5,118.4c-8.8,108,27.9,228.6,29.6,234.1c6.6,21.4-19,145.2-13.3,195.2
			s26.4,117.2,29.7,141.5c3.2,24.3,5.6,54.3,5.6,54.3"/>
		<path class="st6" d="M1257.2,453.1c-13,13.8-19,44.6-16.9,82.2c2.1,37.6-8.4,197.7-2.4,249.2s18.1,154.4,14.2,193
			c-3.9,38.6-7.1,90.2-2.9,128.7"/>
	</g>
	<path class="st7" d="M1296.4,114.5c0,0,4.3,6.4,3.8,7.8c-0.4,1.4-3.7,2.6-7.2,11c-2.3,5.8,0.9,11.3-0.6,12.4
		c-1.6,1.1-5.7,7.9-6.9,10.2c-8.9,16.7,4,34.6,13.3,41.2c9.3,6.5,18.4,6.7,24.3,9.3c8.2,3.5,19,5.8,25.3-5.3c0,0,4.1-8.5-1-24.1
		c-2.9-8.9-6.4-15.4-8.1-17.8c-5.5-7.7-11.2-11.2-13.8-12.6c-1.4-0.7-0.8-3.8,2-5c2.8-1.3,6-0.3,6-0.3l1-4c0,0-3.9-1.3-5.8-0.9
		c-1.9,0.3,2.1-4.2,2.3-7.3c0,0-2.7-2.3-4.4-1.7c0,0-1,3.7-3.5,7.7c0,0,1-9.6-5.9-14.6c0,0,1.6-8.1,2.1-8.8c0,0-3.2-1.7-4.5-1.4
		c0,0-1.9,8.1-2.2,8.3c-0.3,0.2-0.9,1.2-1.5,0.2c-0.6-1-0.8-9.6-0.8-9.6l-4.4,0.5c0,0,1.9,9.3,0.7,9.8c-0.4,0.2-0.8,0.8-1.6,0.1
		c-2.1-1.8-4.3-6.9-4.3-7.3C1300.5,111.8,1296.4,114.5,1296.4,114.5z"/>
	<g>
		<circle class="st4" cx="1257.6" cy="-126.6" r="13.6"/>
		<circle class="st4" cx="1277.8" cy="-138.3" r="14.7"/>
		<circle class="st4" cx="1300.5" cy="-139.7" r="16.3"/>
		<circle class="st4" cx="1251.3" cy="-121.2" r="8.1"/>
		<circle class="st4" cx="1330.9" cy="-121.2" r="8.1"/>
		<circle class="st4" cx="1319.9" cy="-132.6" r="11"/>
		<rect x="1251.3" y="-126.6" class="st4" width="79.6" height="13.6"/>
		<rect x="1276.8" y="-135.7" class="st4" width="14.3" height="17.6"/>
	</g>
	<g>
		<g>
			<rect x="1531.1" y="614.7" class="st8" width="360.9" height="195.4"/>
			<text transform="matrix(1 0 0 1 1724.2969 632.2349)" class="st1 st9 st10">Premature birth</text>
		</g>
		<g>
			<rect x="1525.3" y="519.1" class="st8" width="366.7" height="123.5"/>
			<text transform="matrix(1 0 0 1 1567.1555 543.1854)" class="st1 st9 st11">REPRODUCTIVE SYSTEM</text>
			<text transform="matrix(1 0 0 1 1731.854 580.6854)" class="st1 st9 st11">AND FETUS</text>
		</g>
		<g>
			<rect x="688.4" y="598.1" class="st8" width="538.6" height="128.5"/>
			<text transform="matrix(1 0 0 1 688.4001 615.6713)" class="st9 st10">Injuries from work and traffic accidents</text>
			<text transform="matrix(1 0 0 1 688.4001 651.6713)" class="st1 st9 st10">Increase in mortality</text>
		</g>
		<g>
			<rect x="688.4" y="540.1" class="st8" width="283.7" height="57.7"/>
			<text transform="matrix(1 0 0 1 688.3997 564.1868)" class="st1 st9 st11">GENERAL/OTHERS</text>
		</g>
		<line class="st12" x1="1184.6" y1="517.7" x2="688.4" y2="516"/>
		<circle class="st4" cx="677.1" cy="645.1" r="5.5"/>
		<circle class="st4" cx="677.1" cy="607.7" r="5.5"/>
		<circle class="st4" cx="1904.6" cy="624.6" r="5.5"/>
		<polyline class="st12" points="1324,376.1 1506.4,496.2 1892.1,495 		"/>
	</g>
	<g>
		<rect x="688.1" y="-55.3" class="st8" width="380.7" height="427.2"/>
		<text transform="matrix(1 0 0 1 688.1101 -37.7817)" class="st9 st10">Reduction of cognitive </text>
		<text transform="matrix(1 0 0 1 688.1101 -11.7817)" class="st9 st10">performance</text>
	</g>
	<g>
		<rect x="688.1" y="-113.4" class="st8" width="283.7" height="138.5"/>
		<text transform="matrix(1 0 0 1 688.1096 -89.2656)" class="st1 st9 st11">HEAD</text>
	</g>
	<line class="st12" x1="1300.6" y1="-135.8" x2="688.1" y2="-137.5"/>
	<circle class="st4" cx="676.8" cy="-45.8" r="5.5"/>
</g>
</svg>
