<?xml version="1.0" encoding="utf-8"?>
<!-- Generator: Adobe Illustrator 21.1.0, SVG Export Plug-In . SVG Version: 6.00 Build 0)  -->
<svg version="1.1" id="Capa_1" xmlns="http://www.w3.org/2000/svg" xmlns:xlink="http://www.w3.org/1999/xlink" x="0px" y="0px"
	 viewBox="0 0 1440 1451.3" style="enable-background:new 0 0 1440 1451.3;" xml:space="preserve">
<style type="text/css">
	.st0{fill:#F4F4F4;}
	.st1{fill:#181716;}
	.st2{fill:#FCD7A6;}
	.st3{fill:#FBE2E0;}
	.st4{fill:#F29700;}
	.st5{fill:#F8D2D0;}
	.st6{fill:none;stroke:#F0A0A0;stroke-width:6.0028;stroke-linecap:round;stroke-miterlimit:10;}
	.st7{fill:#F0A0A0;}
	.st8{fill:none;}
	.st9{font-family:'Platform'; font-weight: 300; letter-spacing: 1px;}
	.st10{font-size:24.0054px;}
	.st11{letter-spacing:1;}
	.st12{font-size:33.0075px;}
	.st13{fill:none;stroke:#181716;stroke-width:1.5003;stroke-miterlimit:10;}
@font-face {
  font-family: 'Platform';
  src: url('../fonts/Platform-Regular.eot');
  src: url('../fonts/Platform-Regular.eot?#iefix') format('embedded-opentype'),
  url('../fonts/Platform-Regular.woff') format('woff'),
  url('../fonts/Platform-Regular.ttf') format('truetype'),
  url('../fonts/Platform-Regular.otf') format('opentype'),
  url('../fonts/Platform-Regular.svg#Platform-Regular') format('svg');
  font-weight: 300;
  font-style: normal;
}
</style>
<g id="bg">
	<rect y="0" class="st0" width="1440" height="1452.7"/>
	<rect y="1245.3" class="st1" width="1440" height="207.3"/>
</g>
<g id="cos">
	<g>
		<g>
			<path class="st2" d="M723.1,56.4c-0.4,0-0.7,0-1,0c-0.3,0-0.7,0-1,0c-44.9-0.4-62.4,35.1-59.8,80.4c2.5,44.3,19.6,91.2,60.6,92.1
				v0c0.1,0,0.2,0,0.3,0c0.1,0,0.2,0,0.3,0v0c41-0.9,58.1-47.8,60.6-92.1C785.6,91.6,768.1,56,723.1,56.4z"/>
			<g>
				
					<ellipse transform="matrix(0.1335 -0.9911 0.9911 0.1335 523.932 907.3301)" class="st2" cx="780.8" cy="154.1" rx="23.8" ry="8"/>
				
					<ellipse transform="matrix(0.9911 -0.1335 0.1335 0.9911 -14.6265 89.9234)" class="st2" cx="663.4" cy="154.1" rx="8" ry="23.8"/>
			</g>
			<rect x="687" y="196.7" class="st2" width="70.1" height="73.1"/>
			<g>
				<path class="st2" d="M735,302.8l-48.1-73.8v0c0,20.9-16.9,37.8-37.8,37.8h0L735,302.8z"/>
				<path class="st2" d="M709.2,302.8l48.1-73.8v0c0,20.9,16.9,37.8,37.8,37.8l0,0L709.2,302.8z"/>
			</g>
		</g>
		<g>
			<rect x="632.5" y="266.5" class="st2" width="178.7" height="281.4"/>
			<path class="st2" d="M605.1,304.9h233.4v86.2c0,35.4-28.7,64-64,64H669.1c-35.4,0-64-28.7-64-64V304.9z"/>
			<path class="st2" d="M559.3,388.2h325.1v-59.3c0-34.5-28-62.4-62.4-62.4H621.7c-34.5,0-62.4,28-62.4,62.4V388.2z"/>
			<path class="st2" d="M811.2,547.9h-89.4V744h127.1c0,0,0-24.5,0-74.5C848.9,621.5,811.2,547.9,811.2,547.9z"/>
			<path class="st2" d="M632.4,547.9h89.4V744H594.7c0,0,0-24.5,0-74.5C594.7,621.5,632.4,547.9,632.4,547.9z"/>
			<g>
				<path class="st2" d="M807.1,995c0,19.3-77.1,0-77.1,0V744c0,0,118.8-29.7,118.8,0C848.9,850.8,807.1,965.9,807.1,995z"/>
				<path class="st2" d="M786,1309.9h-41L730,995h76.9c0,0,6.4,92.3,6.4,123.2C813.3,1204.9,786,1309.9,786,1309.9z"/>
				<path class="st2" d="M793.8,1404.8c-0.1,2.3-2.4,6-4.9,9.3c-3.8,5-9.7,7.8-15.9,7.8h-29.7c-7,0-12.4-6.1-11.4-13.1l13.1-99h41
					C785.9,1309.9,794.8,1375.6,793.8,1404.8z"/>
			</g>
			<g>
				<path class="st2" d="M636.5,995c0,19.3,77.1,0,77.1,0V744c0,0-118.8-29.7-118.8,0C594.7,850.8,636.5,965.9,636.5,995z"/>
				<path class="st2" d="M657.6,1309.9h41L713.5,995h-76.9c0,0-6.4,92.3-6.4,123.2C630.3,1204.9,657.6,1309.9,657.6,1309.9z"/>
				<path class="st2" d="M649.8,1404.8c0.1,2.3,2.4,6,4.9,9.3c3.8,5,9.7,7.8,15.9,7.8h29.7c7,0,12.4-6.1,11.4-13.1l-13.1-99h-41
					C657.7,1309.9,648.8,1375.6,649.8,1404.8z"/>
			</g>
			<polygon class="st2" points="904.8,537.5 858.9,542.8 831,325.4 884.2,319.3 			"/>
			<path class="st2" d="M919.6,722.1l-27,3.1l-33.7-182.5c0,0,42.4-39.8,43.8-27.7c2.5,21.5,8.9,43.4,12.1,73.1
				C918.4,621.5,919.6,722.1,919.6,722.1z"/>
			<path class="st2" d="M919.6,722.1v41.4c0,8.9-2.7,17.6-7.9,24.9l-32.9,46.8c-2.7,3.9-8,4.9-11.9,2.3l0,0c-3.7-2.4-5-7.1-3.1-11.1
				l20.4-42.3l-2.8-15.3l-14.6,28.8c-0.7,1.3-2.2,2-3.7,1.6l0,0c-1.5-0.4-2.5-1.9-2.3-3.4l3.1-27.7c0.8-7.2,3.3-14.1,7.4-20.1
				l21.2-22.9L919.6,722.1z"/>
			<g>
				<polygon class="st2" points="539.4,537.5 585.3,542.8 613.1,325.4 560,319.3 				"/>
				<path class="st2" d="M524.6,722.1l27,3.1l33.7-182.5c0,0-42.4-39.8-43.8-27.7c-2.5,21.5-8.9,43.4-12.1,73.1
					C525.8,621.5,524.6,722.1,524.6,722.1z"/>
				<path class="st2" d="M524.6,722.1v41.4c0,8.9,2.7,17.6,7.9,24.9l32.9,46.8c2.7,3.9,8,4.9,11.9,2.3l0,0c3.7-2.4,5-7.1,3.1-11.1
					L560,784.2l2.8-15.3l14.6,28.8c0.7,1.3,2.2,2,3.7,1.6l0,0c1.5-0.4,2.5-1.9,2.3-3.4l-3.1-27.7c-0.8-7.2-3.3-14.1-7.4-20.1
					l-21.2-22.9L524.6,722.1z"/>
			</g>
		</g>
	</g>
	<g>
		<g>
			<path class="st3" d="M739.6,273.1L739.6,273.1c3.9-2.5,8.4-3.9,13.1-3.9h6.3c7.9,0.5,12.9,3.1,16,7.1
				c21.4,27.7,48.6,65,55.8,114.3c1.7,11.9-15.2,35.7-19.8,39.1c-55.8,41.5-87.2-27.9-87.2-27.9l5-109.7
				C729.1,284.4,733.2,277.4,739.6,273.1z"/>
			<circle class="st3" cx="776.2" cy="395.9" r="54.6"/>
		</g>
		<g>
			<path class="st3" d="M705.4,273.1L705.4,273.1c-3.9-2.5-8.4-3.9-13.1-3.9H686c-7.9,0.5-12.9,3.1-16,7.1
				c-21.4,27.7-48.6,65-55.8,114.3c-1.7,11.9,15.2,35.7,19.8,39.1c55.8,41.5,87.2-27.9,87.2-27.9l17.6-99l-22.5-10.6
				C715.9,284.4,711.8,277.4,705.4,273.1z"/>
			<circle class="st3" cx="668.8" cy="395.9" r="54.6"/>
		</g>
	</g>
	<path class="st4" d="M722.1,715.5L722.1,715.5c-30.3,0-54.9-24.6-54.9-54.9v-61.7c0-30.3,24.6-54.9,54.9-54.9h0
		c30.3,0,54.9,24.6,54.9,54.9v61.7C777,691,752.4,715.5,722.1,715.5z"/>
	<g>
		<g>
			<g>
				<circle class="st5" cx="689.7" cy="394.5" r="22.4"/>
				<circle class="st5" cx="659.9" cy="405.3" r="24.4"/>
				<circle class="st5" cx="698.6" cy="329.6" r="13.5"/>
				<rect x="682.3" y="329.6" class="st5" width="29.9" height="61"/>
				<path class="st5" d="M636.4,398.7c13.2-52.4,53.6-79.5,53.6-79.5l5.4,70.4C695.5,389.5,632.7,413.2,636.4,398.7z"/>
			</g>
			<g>
				<circle class="st5" cx="755.3" cy="394.5" r="22.4"/>
				<circle class="st5" cx="785.1" cy="405.3" r="24.4"/>
				<circle class="st5" cx="746.4" cy="329.6" r="13.5"/>
				
					<rect x="732.8" y="329.6" transform="matrix(-1 4.449939e-11 -4.449939e-11 -1 1495.5409 720.2891)" class="st5" width="29.9" height="61"/>
				<path class="st5" d="M808.6,398.7c-13.2-52.4-53.6-79.5-53.6-79.5l-5.4,70.4C749.5,389.5,812.2,413.2,808.6,398.7z"/>
			</g>
		</g>
		<rect x="715" y="268.8" class="st5" width="14.9" height="56.1"/>
		<g>
			
				<rect x="732.7" y="313.3" transform="matrix(0.7071 -0.7071 0.7071 0.7071 -24.5555 623.3123)" class="st5" width="14.9" height="56.1"/>
			
				<rect x="697.4" y="313.3" transform="matrix(-0.7071 -0.7071 0.7071 -0.7071 961.9272 1081.0376)" class="st5" width="14.9" height="56.1"/>
		</g>
	</g>
	<g>
		<path class="st6" d="M890.2,760.9c0,0,20.9-17.7,20.3-35.7c-1.6-43.9,1.6-76-1.6-100.3c-8-60.9-24.9-73-27.9-100.5
			c-2.6-23.1,5-164.8-13-199.7c-19.1-36.9-65.2-41.5-97.4-33c-22.8,6-28.3,24.1-30.4,35.6c-1.6,8.8-1.8,16.5,2.7,35.8"/>
		<path class="st6" d="M821.4,290.7c23.7,6.2,25.7,29.3,27.5,56.9c1.8,27.6,33.3,135.3,30.9,171.2c-2.4,35.9-1.1,91.7,6.5,115.8
			c7.6,24.1,21.6,54.8,23.8,80.9"/>
		<path class="st6" d="M555.1,760.9c0,0-20.9-17.7-20.3-35.7c1.6-43.9-1.6-76,1.6-100.3c8-60.9,24.9-73,27.9-100.5
			c2.6-23.1-5-164.8,13-199.7c19.1-36.9,65.2-41.5,97.4-33c22.8,6,47.4,21.8,51.6,35.6c2.6,8.6,8.6,16.5,4.2,35.8"/>
		<path class="st6" d="M623.9,290.7c-23.7,6.2-25.7,29.3-27.5,56.9c-1.8,27.6-33.3,135.3-30.9,171.2c2.4,35.9,1.1,91.7-6.5,115.8
			c-7.6,24.1-21.6,54.8-23.8,80.9"/>
		<path class="st6" d="M770.5,291.8c0,0-23.1-47.7-24.2-62.9s13.1-41.3,23.2-68.4c5.7-15.3,5-30.2,3.3-40.3
			c-1.3-7.6-6.4-14-13.5-16.9l-4.6-1.9"/>
		<line class="st6" x1="746.4" y1="225.5" x2="752.2" y2="301.1"/>
		<path class="st6" d="M673.3,290.9c0,0,23.1-46.8,24.2-62c1.1-15.2-13.1-41.3-23.2-68.4c-6.5-17.4-4.7-34.3-2.5-44.1
			c1.2-5.4,4.3-10.1,8.7-13.3l4.8-3.5"/>
		<line class="st6" x1="697.5" y1="225.5" x2="691.6" y2="297.7"/>
		<path class="st6" d="M726.2,411.4c0,0-3.9,223.5,0.4,234.6c4.3,11.1,78.3,67.9,82.1,115c8.8,108-27.9,228.6-29.6,234.1
			c-6.6,21.4,19,145.2,13.3,195.2s-26.4,117.2-29.7,141.5c-3.2,24.3-5.6,54.3-5.6,54.3"/>
		<path class="st6" d="M755.3,676.6c13,13.8,18.6,46.7,16.4,84.3s8.4,197.7,2.4,249.2s-18.1,154.4-14.2,193
			c3.9,38.6,7.1,90.2,2.9,128.7"/>
		<path class="st6" d="M725.1,642.6c-4.3,11.1-86.7,71.3-90.5,118.4c-8.8,108,27.9,228.6,29.6,234.1c6.6,21.4-19,145.2-13.3,195.2
			s26.4,117.2,29.7,141.5c3.2,24.3,5.6,54.3,5.6,54.3"/>
		<path class="st6" d="M688.5,678.7c-13,13.8-19,44.6-16.9,82.2c2.1,37.6-8.4,197.7-2.4,249.2c6,51.5,18.1,154.4,14.2,193
			c-3.9,38.6-7.1,90.2-2.9,128.7"/>
	</g>
	<path class="st7" d="M727.6,340.1c0,0,4.3,6.4,3.8,7.8c-0.4,1.4-3.7,2.6-7.2,11c-2.3,5.8,0.9,11.3-0.6,12.4
		c-1.6,1.1-5.7,7.9-6.9,10.2c-8.9,16.7,4,34.6,13.3,41.2c9.3,6.5,18.4,6.7,24.3,9.3c8.2,3.5,19,5.8,25.3-5.3c0,0,4.1-8.5-1-24.1
		c-2.9-8.9-6.4-15.4-8.1-17.8c-5.5-7.7-11.2-11.2-13.8-12.6c-1.4-0.7-0.8-3.8,2-5c2.8-1.3,6-0.3,6-0.3l1-4c0,0-3.9-1.3-5.8-0.9
		c-1.9,0.3,2.1-4.2,2.3-7.3c0,0-2.7-2.3-4.4-1.7c0,0-1,3.7-3.5,7.7c0,0,1-9.6-5.9-14.6c0,0,1.6-8.1,2.1-8.8c0,0-3.2-1.7-4.5-1.4
		c0,0-1.9,8.1-2.2,8.3c-0.3,0.2-0.9,1.2-1.5,0.2c-0.6-1-0.8-9.6-0.8-9.6l-4.4,0.5c0,0,1.9,9.3,0.7,9.8c-0.4,0.2-0.8,0.8-1.6,0.1
		c-2.1-1.8-4.3-6.9-4.3-7.3C731.8,337.4,727.6,340.1,727.6,340.1z"/>
	<g>
		<circle class="st4" cx="688.8" cy="98.9" r="13.6"/>
		<circle class="st4" cx="709.1" cy="87.3" r="14.7"/>
		<circle class="st4" cx="731.7" cy="85.9" r="16.3"/>
		<circle class="st4" cx="682.6" cy="104.4" r="8.1"/>
		<circle class="st4" cx="762.1" cy="104.4" r="8.1"/>
		<circle class="st4" cx="751.1" cy="93" r="11"/>
		<rect x="682.6" y="98.9" class="st4" width="79.6" height="13.6"/>
		<rect x="708" y="89.9" class="st4" width="14.3" height="17.6"/>
	</g>
	<g>
		<g>
			<rect x="962.4" y="840.3" class="st8" width="360.9" height="195.4"/>
			<text transform="matrix(1 0 0 1 1076.938 857.8214)" class="st1 st9 st10 st11">Nacimiento prematuro</text>
		</g>
		<g>
			<rect x="956.6" y="744.6" class="st8" width="366.7" height="123.5"/>
			<text transform="matrix(1 0 0 1 962.8237 768.7719)"><tspan x="0" y="0" class="st1 st9 st12">Aparato reproductor</tspan><tspan x="269.9" y="37.5" class="st1 st9 st12">y feto</tspan></text>
		</g>
		<g>
			<rect x="119.7" y="823.7" class="st8" width="538.6" height="128.5"/>
			<text transform="matrix(1 0 0 1 119.6575 841.2577)"><tspan x="0" y="0" class="st9 st10">Lesiones por accidentes de</tspan><tspan x="0" y="24" class="st9 st10">trabajo y de tráfico</tspan><tspan x="0" y="60" class="st1 st9 st10 st11">Incremento de la mortalidad</tspan></text>
		</g>
		<g>
			<rect x="119.7" y="765.6" class="st8" width="283.7" height="57.7"/>
			<text transform="matrix(1 0 0 1 119.657 789.7733)" class="st1 st9 st12 st11">General/Otros</text>
		</g>
		<line class="st13" x1="615.8" y1="743.3" x2="119.7" y2="741.6"/>
		<circle class="st4" cx="108.3" cy="893.4" r="5.5"/>
		<circle class="st4" cx="108.3" cy="833.3" r="5.5"/>
		<circle class="st4" cx="1335.8" cy="850.2" r="5.5"/>
		<polyline class="st13" points="755.3,601.7 937.6,721.7 1323.3,720.6 		"/>
	</g>
	<g>
		<rect x="119.4" y="170.3" class="st8" width="380.7" height="427.2"/>
		<text transform="matrix(1 0 0 1 119.3674 187.8048)"><tspan x="0" y="0" class="st9 st10 st11">Reducción del rendimiento </tspan><tspan x="0" y="24" class="st9 st10 st11">cognitivo</tspan></text>
	</g>
	<g>
		<rect x="119.4" y="112.2" class="st8" width="283.7" height="138.5"/>
		<text transform="matrix(1 0 0 1 119.3669 136.3209)" class="st1 st9 st12 st11">Cabeza</text>
	</g>
	<line class="st13" x1="731.8" y1="89.8" x2="119.4" y2="88.1"/>
	<circle class="st4" cx="108" cy="179.8" r="5.5"/>
</g>
</svg>
