<?xml version="1.0" encoding="utf-8"?>
<!-- Generator: Adobe Illustrator 21.1.0, SVG Export Plug-In . SVG Version: 6.00 Build 0)  -->
<svg version="1.1" id="Capa_1" xmlns="http://www.w3.org/2000/svg" xmlns:xlink="http://www.w3.org/1999/xlink" x="0px" y="0px"
	 viewBox="0 0 1440 1451.3" style="enable-background:new 0 0 1440 1451.3;" xml:space="preserve">
<style type="text/css">
	.st0{fill:#F4F4F4;}
	.st1{fill:#181716;}
	.st2{fill:#FCD7A6;}
	.st3{fill:#FBE2E0;}
	.st4{fill:#F29700;}
	.st5{fill:#F8D2D0;}
	.st6{fill:none;stroke:#F0A0A0;stroke-width:6.0028;stroke-lineCap:round;stroke-miterlimit:10;}
	.st7{fill:#F0A0A0;}
	.st8{fill:none;}
	.st9{font-family:'Platform'; font-weight: 300; letter-spacing: 1px;}
	.st10{font-size:24.0054px;}
	.st11{letter-spacing:1;}
	.st12{font-size:33.0075px;}
	.st13{fill:none;stroke:#181716;stroke-width:1.5003;stroke-miterlimit:10;}
@font-face {
  font-family: 'Platform';
  src: url('../fonts/Platform-Regular.eot');
  src: url('../fonts/Platform-Regular.eot?#iefix') format('embedded-opentype'),
  url('../fonts/Platform-Regular.woff') format('woff'),
  url('../fonts/Platform-Regular.ttf') format('truetype'),
  url('../fonts/Platform-Regular.otf') format('opentype'),
  url('../fonts/Platform-Regular.svg#Platform-Regular') format('svg');
  font-weight: 300;
  font-style: normal;
}
</style>
<g id="bg">
	<rect y="0" class="st0" width="1440" height="1452.7"/>
	<rect y="1245.3" class="st1" width="1440" height="207.3"/>
</g>
<g id="cos_1_">
	<g>
		<g>
			<path class="st2" d="M722.1,57c-0.4,0-0.7,0-1,0c-0.3,0-0.7,0-1,0c-44.9-0.4-62.4,35.1-59.8,80.4c2.5,44.3,19.6,91.2,60.6,92.1v0
				c0.1,0,0.2,0,0.3,0c0.1,0,0.2,0,0.3,0v0c41-0.9,58.1-47.8,60.6-92.1C784.6,92.1,767.1,56.6,722.1,57z"/>
			<g>
				
					<ellipse transform="matrix(0.1335 -0.9911 0.9911 0.1335 522.519 906.8223)" class="st2" cx="779.8" cy="154.6" rx="23.8" ry="8"/>
				
					<ellipse transform="matrix(0.9911 -0.1335 0.1335 0.9911 -14.7094 89.7953)" class="st2" cx="662.4" cy="154.6" rx="8" ry="23.8"/>
			</g>
			<rect x="686" y="197.2" class="st2" width="70.1" height="73.1"/>
			<g>
				<path class="st2" d="M734,303.3l-48.1-73.8v0c0,20.9-16.9,37.8-37.8,37.8l0,0L734,303.3z"/>
				<path class="st2" d="M708.2,303.3l48.1-73.8v0c0,20.9,16.9,37.8,37.8,37.8h0L708.2,303.3z"/>
			</g>
		</g>
		<g>
			<rect x="631.5" y="267" class="st2" width="178.7" height="281.4"/>
			<path class="st2" d="M604.1,305.5h233.4v86.2c0,35.4-28.7,64-64,64H668.1c-35.4,0-64-28.7-64-64V305.5z"/>
			<path class="st2" d="M558.3,388.8h325.1v-59.3c0-34.5-28-62.4-62.4-62.4H620.7c-34.5,0-62.4,28-62.4,62.4V388.8z"/>
			<path class="st2" d="M810.2,548.4h-89.4v196.1h127.1c0,0,0-24.5,0-74.5C847.9,622.1,810.2,548.4,810.2,548.4z"/>
			<path class="st2" d="M631.4,548.4h89.4v196.1H593.7c0,0,0-24.5,0-74.5C593.7,622.1,631.4,548.4,631.4,548.4z"/>
			<g>
				<path class="st2" d="M806.1,995.6c0,19.3-77.1,0-77.1,0v-251c0,0,118.8-29.7,118.8,0C847.9,851.3,806.1,966.5,806.1,995.6z"/>
				<path class="st2" d="M785,1310.4h-41L729,995.6h76.9c0,0,6.4,92.3,6.4,123.2C812.3,1205.4,785,1310.4,785,1310.4z"/>
				<path class="st2" d="M792.8,1405.4c-0.1,2.3-2.4,6-4.9,9.3c-3.8,5-9.7,7.8-15.9,7.8h-29.7c-7,0-12.4-6.1-11.4-13.1l13.1-99h41
					C784.9,1310.4,793.8,1376.2,792.8,1405.4z"/>
			</g>
			<g>
				<path class="st2" d="M635.5,995.6c0,19.3,77.1,0,77.1,0v-251c0,0-118.8-29.7-118.8,0C593.7,851.3,635.5,966.5,635.5,995.6z"/>
				<path class="st2" d="M656.6,1310.4h41l14.9-314.8h-76.9c0,0-6.4,92.3-6.4,123.2C629.3,1205.4,656.6,1310.4,656.6,1310.4z"/>
				<path class="st2" d="M648.8,1405.4c0.1,2.3,2.4,6,4.9,9.3c3.8,5,9.7,7.8,15.9,7.8h29.7c7,0,12.4-6.1,11.4-13.1l-13.1-99h-41
					C656.7,1310.4,647.8,1376.2,648.8,1405.4z"/>
			</g>
			<polygon class="st2" points="903.8,538 857.9,543.4 830.1,326 883.2,319.8 			"/>
			<path class="st2" d="M918.6,722.7l-27,3.1l-33.7-182.5c0,0,42.4-39.8,43.8-27.7c2.5,21.5,8.9,43.4,12.1,73.1
				C917.4,622.1,918.6,722.7,918.6,722.7z"/>
			<path class="st2" d="M918.6,722.7v41.4c0,8.9-2.7,17.6-7.9,24.9l-32.9,46.8c-2.7,3.9-8,4.9-11.9,2.3h0c-3.7-2.4-5-7.1-3.1-11.1
				l20.4-42.3l-2.8-15.3l-14.6,28.8c-0.7,1.3-2.2,2-3.7,1.6l0,0c-1.5-0.4-2.5-1.9-2.3-3.4l3.1-27.7c0.8-7.2,3.3-14.1,7.4-20.1
				l21.2-22.9L918.6,722.7z"/>
			<g>
				<polygon class="st2" points="538.4,538 584.3,543.4 612.1,326 559,319.8 				"/>
				<path class="st2" d="M523.6,722.7l27,3.1l33.7-182.5c0,0-42.4-39.8-43.8-27.7c-2.5,21.5-8.9,43.4-12.1,73.1
					C524.8,622.1,523.6,722.7,523.6,722.7z"/>
				<path class="st2" d="M523.6,722.7v41.4c0,8.9,2.7,17.6,7.9,24.9l32.9,46.8c2.7,3.9,8,4.9,11.9,2.3l0,0c3.7-2.4,5-7.1,3.1-11.1
					L559,784.8l2.8-15.3l14.6,28.8c0.7,1.3,2.2,2,3.7,1.6l0,0c1.5-0.4,2.5-1.9,2.3-3.4l-3.1-27.7c-0.8-7.2-3.3-14.1-7.4-20.1
					l-21.2-22.9L523.6,722.7z"/>
			</g>
		</g>
	</g>
	<g>
		<g>
			<path class="st3" d="M738.6,273.7L738.6,273.7c3.9-2.5,8.4-3.9,13.1-3.9h6.3c7.9,0.5,12.9,3.1,16,7.1
				c21.4,27.7,48.6,65,55.8,114.3c1.7,11.9-15.2,35.7-19.8,39.1c-55.8,41.5-87.2-27.9-87.2-27.9l5-109.7
				C728.1,285,732.2,277.9,738.6,273.7z"/>
			<circle class="st3" cx="775.2" cy="396.4" r="54.6"/>
		</g>
		<g>
			<path class="st3" d="M704.4,273.7L704.4,273.7c-3.9-2.5-8.4-3.9-13.1-3.9H685c-7.9,0.5-12.9,3.1-16,7.1
				c-21.4,27.7-48.6,65-55.8,114.3c-1.7,11.9,15.2,35.7,19.8,39.1c55.8,41.5,87.2-27.9,87.2-27.9l17.6-99l-22.5-10.6
				C714.9,285,710.8,277.9,704.4,273.7z"/>
			<circle class="st3" cx="667.8" cy="396.4" r="54.6"/>
		</g>
	</g>
	<path class="st4" d="M721.1,716.1L721.1,716.1c-30.3,0-54.9-24.6-54.9-54.9v-61.7c0-30.3,24.6-54.9,54.9-54.9h0
		c30.3,0,54.9,24.6,54.9,54.9v61.7C776,691.5,751.4,716.1,721.1,716.1z"/>
	<g>
		<g>
			<g>
				<circle class="st5" cx="688.7" cy="395.1" r="22.4"/>
				<circle class="st5" cx="658.9" cy="405.9" r="24.4"/>
				<circle class="st5" cx="697.6" cy="330.2" r="13.5"/>
				<rect x="681.3" y="330.2" class="st5" width="29.9" height="61"/>
				<path class="st5" d="M635.4,399.3c13.2-52.4,53.6-79.5,53.6-79.5l5.4,70.4C694.5,390.1,631.8,413.8,635.4,399.3z"/>
			</g>
			<g>
				<circle class="st5" cx="754.3" cy="395.1" r="22.4"/>
				<circle class="st5" cx="784.1" cy="405.9" r="24.4"/>
				<circle class="st5" cx="745.4" cy="330.2" r="13.5"/>
				
					<rect x="731.8" y="330.2" transform="matrix(-1 4.449939e-11 -4.449939e-11 -1 1493.547 721.3973)" class="st5" width="29.9" height="61"/>
				<path class="st5" d="M807.6,399.3c-13.2-52.4-53.6-79.5-53.6-79.5l-5.4,70.4C748.5,390.1,811.2,413.8,807.6,399.3z"/>
			</g>
		</g>
		<rect x="714" y="269.3" class="st5" width="14.9" height="56.1"/>
		<g>
			
				<rect x="731.7" y="313.8" transform="matrix(0.7071 -0.7071 0.7071 0.7071 -25.2392 622.7696)" class="st5" width="14.9" height="56.1"/>
			
				<rect x="696.4" y="313.8" transform="matrix(-0.7071 -0.7071 0.7071 -0.7071 959.8336 1081.2786)" class="st5" width="14.9" height="56.1"/>
		</g>
	</g>
	<g>
		<path class="st6" d="M889.2,761.5c0,0,20.9-17.7,20.3-35.7c-1.6-43.9,1.6-76-1.6-100.3c-8-60.9-24.9-73-27.9-100.5
			c-2.6-23.1,5-164.8-13-199.7c-19.1-36.9-65.2-41.5-97.4-33c-22.8,6-28.3,24.1-30.4,35.6c-1.6,8.8-1.8,16.5,2.7,35.8"/>
		<path class="st6" d="M820.4,291.2c23.7,6.2,25.7,29.3,27.5,56.9c1.8,27.6,33.3,135.3,30.9,171.2c-2.4,35.9-1.1,91.7,6.5,115.8
			c7.6,24.1,21.6,54.8,23.8,80.9"/>
		<path class="st6" d="M554.1,761.5c0,0-20.9-17.7-20.3-35.7c1.6-43.9-1.6-76,1.6-100.3c8-60.9,24.9-73,27.9-100.5
			c2.6-23.1-5-164.8,13-199.7c19.1-36.9,65.2-41.5,97.4-33c22.8,6,47.4,21.8,51.6,35.6c2.6,8.6,8.6,16.5,4.2,35.8"/>
		<path class="st6" d="M622.9,291.2c-23.7,6.2-25.7,29.3-27.5,56.9c-1.8,27.6-33.3,135.3-30.9,171.2c2.4,35.9,1.1,91.7-6.5,115.8
			c-7.6,24.1-21.6,54.8-23.8,80.9"/>
		<path class="st6" d="M769.5,292.4c0,0-23.1-47.7-24.2-62.9s13.1-41.3,23.2-68.4c5.7-15.3,5-30.2,3.3-40.3
			c-1.3-7.6-6.4-14-13.5-16.9l-4.6-1.9"/>
		<line class="st6" x1="745.4" y1="226.1" x2="751.2" y2="301.7"/>
		<path class="st6" d="M672.3,291.5c0,0,23.1-46.8,24.2-62s-13.1-41.3-23.2-68.4c-6.5-17.4-4.7-34.3-2.5-44.1
			c1.2-5.4,4.3-10.1,8.7-13.3l4.8-3.5"/>
		<line class="st6" x1="696.5" y1="226.1" x2="690.6" y2="298.3"/>
		<path class="st6" d="M725.2,411.9c0,0-3.9,223.5,0.4,234.6c4.3,11.1,78.3,67.9,82.1,115c8.8,108-27.9,228.6-29.6,234.1
			c-6.6,21.4,19,145.2,13.3,195.2c-5.7,50-26.4,117.2-29.7,141.5c-3.2,24.3-5.6,54.3-5.6,54.3"/>
		<path class="st6" d="M754.3,677.1c13,13.8,18.6,46.7,16.4,84.3c-2.1,37.6,8.4,197.7,2.4,249.2c-6,51.5-18.1,154.4-14.2,193
			c3.9,38.6,7.1,90.2,2.9,128.7"/>
		<path class="st6" d="M724.1,643.1c-4.3,11.1-86.7,71.3-90.5,118.4c-8.8,108,27.9,228.6,29.6,234.1c6.6,21.4-19,145.2-13.3,195.2
			c5.7,50,26.4,117.2,29.7,141.5c3.2,24.3,5.6,54.3,5.6,54.3"/>
		<path class="st6" d="M687.5,679.3c-13,13.8-19,44.6-16.9,82.2c2.1,37.6-8.4,197.7-2.4,249.2c6,51.5,18.1,154.4,14.2,193
			c-3.9,38.6-7.1,90.2-2.9,128.7"/>
	</g>
	<path class="st7" d="M726.6,340.7c0,0,4.3,6.4,3.8,7.8c-0.4,1.4-3.7,2.6-7.2,11c-2.3,5.8,0.9,11.3-0.6,12.4
		c-1.6,1.1-5.7,7.9-6.9,10.2c-8.9,16.7,4,34.6,13.3,41.2c9.3,6.5,18.4,6.7,24.3,9.3c8.2,3.5,19,5.8,25.3-5.3c0,0,4.1-8.5-1-24.1
		c-2.9-8.9-6.4-15.4-8.1-17.8c-5.5-7.7-11.2-11.2-13.8-12.6c-1.4-0.7-0.8-3.8,2-5c2.8-1.3,6-0.3,6-0.3l1-4c0,0-3.9-1.3-5.8-0.9
		c-1.9,0.3,2.1-4.2,2.3-7.3c0,0-2.7-2.3-4.4-1.7c0,0-1,3.7-3.5,7.7c0,0,1-9.6-5.9-14.6c0,0,1.6-8.1,2.1-8.8c0,0-3.2-1.7-4.5-1.4
		c0,0-1.9,8.1-2.2,8.3c-0.3,0.2-0.9,1.2-1.5,0.2c-0.6-1-0.8-9.6-0.8-9.6l-4.4,0.5c0,0,1.9,9.3,0.7,9.8c-0.4,0.2-0.8,0.8-1.6,0.1
		c-2.1-1.8-4.3-6.9-4.3-7.3C730.8,337.9,726.6,340.7,726.6,340.7z"/>
	<g>
		<circle class="st4" cx="687.8" cy="99.5" r="13.6"/>
		<circle class="st4" cx="708.1" cy="87.9" r="14.7"/>
		<circle class="st4" cx="730.7" cy="86.5" r="16.3"/>
		<circle class="st4" cx="681.6" cy="105" r="8.1"/>
		<circle class="st4" cx="761.1" cy="105" r="8.1"/>
		<circle class="st4" cx="750.1" cy="93.5" r="11"/>
		<rect x="681.6" y="99.5" class="st4" width="79.6" height="13.6"/>
		<rect x="707" y="90.5" class="st4" width="14.3" height="17.6"/>
	</g>
	<g>
		<g>
			<rect x="961.4" y="840.8" class="st8" width="360.9" height="195.4"/>
			<text transform="matrix(1 0 0 1 1097.5444 858.3756)" class="st1 st9 st10 st11">Naixement prematur </text>
		</g>
		<g>
			<rect x="955.6" y="745.2" class="st8" width="366.7" height="123.5"/>
			<text transform="matrix(1 0 0 1 970.3101 769.326)"><tspan x="0" y="0" class="st1 st9 st12">Aparell reproductor i </tspan><tspan x="271.7" y="37.5" class="st1 st9 st12">fetus</tspan></text>
		</g>
		<g>
			<rect x="118.7" y="824.3" class="st8" width="538.6" height="128.5"/>
			<text transform="matrix(1 0 0 1 118.6606 841.8119)"><tspan x="0" y="0" class="st9 st10">Lesions per accidents de feina i trànsit</tspan><tspan x="0" y="36" class="st1 st9 st10 st11">Augment de la mortalitat</tspan></text>
		</g>
		<g>
			<rect x="118.7" y="766.2" class="st8" width="283.7" height="57.7"/>
			<text transform="matrix(1 0 0 1 118.6602 790.3275)" class="st1 st9 st12 st11">General / Altres           </text>
		</g>
		<line class="st13" x1="614.8" y1="743.8" x2="118.7" y2="742.1"/>
		<circle class="st4" cx="107.3" cy="871.2" r="5.5"/>
		<circle class="st4" cx="107.3" cy="833.8" r="5.5"/>
		<circle class="st4" cx="1334.8" cy="850.7" r="5.5"/>
		<polyline class="st13" points="754.3,602.3 936.6,722.3 1322.3,721.1 		"/>
	</g>
	<g>
		<rect x="118.4" y="170.8" class="st8" width="380.7" height="427.2"/>
		<text transform="matrix(1 0 0 1 118.3706 188.359)" class="st9 st10 st11">Reducció del rendiment cognitiu</text>
	</g>
	<g>
		<rect x="118.4" y="112.7" class="st8" width="283.7" height="138.5"/>
		<text transform="matrix(1 0 0 1 118.3701 136.8751)" class="st1 st9 st12 st11">Cap</text>
	</g>
	<line class="st13" x1="730.8" y1="90.4" x2="118.4" y2="88.7"/>
	<circle class="st4" cx="107" cy="180.4" r="5.5"/>
</g>
</svg>
