<?xml version="1.0" encoding="utf-8"?>
<!-- Generator: Adobe Illustrator 19.0.0, SVG Export Plug-In . SVG Version: 6.00 Build 0)  -->
<svg version="1.1" id="Capa_1" xmlns="http://www.w3.org/2000/svg" xmlns:xlink="http://www.w3.org/1999/xlink" x="0px" y="0px"
	 viewBox="570 -225.3 1440 1451.3" style="enable-background:new 570 -225.3 1440 1451.3;" xml:space="preserve">
<style type="text/css">
	.st0{fill:#F4F4F4;}
	.st1{fill:#181716;}
	.st2{fill:#6E6E6D;}
	.st3{fill:#9B9B9B;}
	.st4{fill:none;stroke:#181716;stroke-width:6.0014;stroke-miterlimit:10;}
	.st5{fill:none;}
	.st6{font-family:'PlatformWeb-Regular';}
	.st7{font-size:33.0075px;}
	.st8{fill:none;stroke:#181716;stroke-width:1.5003;stroke-miterlimit:10;}
	.st9{font-size:24.0054px;}
	.st10{fill:#004F9F;}
	.st11{fill:#BB94C2;}
	.st12{fill:#F29700;}
	.st13{fill:#34B7EB;}
	.st14{fill:#3AA336;}
</style>
<g id="bg">
	<rect x="570" y="-226" class="st0" width="1440" height="1452.7"/>
	<rect x="570" y="1019.3" class="st1" width="1440" height="207.3"/>
</g>
<g id="cos2">
	<g>
		<g>
			<g>
				<path class="st2" d="M1292.8-169.8c-0.4,0-0.7,0-1,0c-0.3,0-0.7,0-1,0c-44.9-0.4-62.4,35.1-59.8,80.4
					c2.5,44.3,19.6,91.2,60.6,92.1l0,0c0.1,0,0.2,0,0.3,0c0.1,0,0.2,0,0.3,0l0,0c41-0.9,58.1-47.8,60.6-92.1
					C1355.2-134.6,1337.7-170.2,1292.8-169.8z"/>
				<g>
					
						<ellipse transform="matrix(0.991 0.1335 -0.1335 0.991 2.451 -180.961)" class="st2" cx="1350.6" cy="-72.2" rx="8" ry="23.8"/>
					
						<ellipse transform="matrix(0.1335 0.991 -0.991 0.1335 997.0745 -1284.5289)" class="st2" cx="1233.1" cy="-72.1" rx="23.8" ry="8"/>
				</g>
				<rect x="1256.7" y="-29.5" class="st2" width="70.1" height="73.1"/>
				<g>
					<path class="st2" d="M1304.6,76.6l-48.1-73.8l0,0c0,20.9-16.9,37.8-37.8,37.8l0,0L1304.6,76.6z"/>
					<path class="st2" d="M1278.9,76.6L1327,2.8l0,0c0,20.9,16.9,37.8,37.8,37.8l0,0L1278.9,76.6z"/>
				</g>
			</g>
			<g>
				<rect x="1202.1" y="40.3" class="st2" width="178.7" height="281.4"/>
				<path class="st2" d="M1174.8,78.8h233.4V165c0,35.4-28.7,64-64,64h-105.4c-35.4,0-64-28.7-64-64V78.8z"/>
				<path class="st2" d="M1128.9,162H1454v-59.3c0-34.5-28-62.4-62.4-62.4h-200.3c-34.5,0-62.4,28-62.4,62.4L1128.9,162L1128.9,162z
					"/>
				<path class="st2" d="M1380.8,321.7h-89.4v196.1h127.1c0,0,0-24.5,0-74.5C1418.5,395.3,1380.8,321.7,1380.8,321.7z"/>
				<path class="st2" d="M1202.1,321.7h89.4v196.1h-127.1c0,0,0-24.5,0-74.5C1164.4,395.3,1202.1,321.7,1202.1,321.7z"/>
				<g>
					<path class="st2" d="M1376.8,768.8c0,19.3-77.1,0-77.1,0v-251c0,0,118.8-29.7,118.8,0C1418.5,624.6,1376.8,739.7,1376.8,768.8z
						"/>
					<path class="st2" d="M1355.6,1083.7h-41l-14.9-314.8h76.9c0,0,6.4,92.3,6.4,123.2C1383,978.7,1355.6,1083.7,1355.6,1083.7z"/>
					<path class="st2" d="M1363.5,1178.7c-0.1,2.3-2.4,6-4.9,9.3c-3.8,5-9.7,7.8-15.9,7.8H1313c-7,0-12.4-6.1-11.4-13.1l13.1-99h41
						C1355.6,1083.7,1364.5,1149.4,1363.5,1178.7z"/>
				</g>
				<g>
					<path class="st2" d="M1206.1,768.8c0,19.3,77.1,0,77.1,0v-251c0,0-118.8-29.7-118.8,0C1164.4,624.6,1206.1,739.7,1206.1,768.8z
						"/>
					<path class="st2" d="M1227.3,1083.7h41l14.9-314.8h-76.9c0,0-6.4,92.3-6.4,123.2C1199.9,978.7,1227.3,1083.7,1227.3,1083.7z"/>
					<path class="st2" d="M1219.5,1178.7c0.1,2.3,2.4,6,4.9,9.3c3.8,5,9.7,7.8,15.9,7.8h29.7c7,0,12.4-6.1,11.4-13.1l-13.1-99h-41
						C1227.4,1083.7,1218.4,1149.4,1219.5,1178.7z"/>
				</g>
				<polygon class="st2" points="1474.5,311.3 1428.6,316.6 1400.7,99.3 1453.9,93.1 				"/>
				<path class="st2" d="M1489.3,496l-27,3.1l-33.7-182.5c0,0,42.4-39.8,43.8-27.7c2.5,21.5,8.9,43.4,12.1,73.1
					C1488.1,395.3,1489.3,496,1489.3,496z"/>
				<path class="st2" d="M1489.3,496v41.4c0,8.9-2.7,17.6-7.9,24.9l-32.9,46.8c-2.7,3.9-8,4.9-11.9,2.3l0,0c-3.7-2.4-5-7.1-3.1-11.1
					l20.4-42.3l-2.8-15.3l-14.6,28.8c-0.7,1.3-2.2,2-3.7,1.6l0,0c-1.5-0.4-2.5-1.9-2.3-3.4l3.1-27.7c0.8-7.2,3.3-14.1,7.4-20.1
					l21.2-22.9L1489.3,496z"/>
				<g>
					<polygon class="st2" points="1109.1,311.3 1155,316.6 1182.8,99.3 1129.7,93.1 					"/>
					<path class="st2" d="M1094.3,496l27,3.1l33.7-182.5c0,0-42.4-39.8-43.8-27.7c-2.5,21.5-8.9,43.4-12.1,73.1
						C1095.5,395.3,1094.3,496,1094.3,496z"/>
					<path class="st2" d="M1094.3,496v41.4c0,8.9,2.7,17.6,7.9,24.9l32.9,46.8c2.7,3.9,8,4.9,11.9,2.3l0,0c3.7-2.4,5-7.1,3.1-11.1
						l-20.4-42.3l2.8-15.3l14.6,28.8c0.7,1.3,2.2,2,3.7,1.6l0,0c1.5-0.4,2.5-1.9,2.3-3.4L1150,542c-0.8-7.2-3.3-14.1-7.4-20.1
						l-21.2-22.9L1094.3,496z"/>
				</g>
			</g>
		</g>
		<g>
			<g>
				<path class="st3" d="M1309.3,47L1309.3,47c3.9-2.5,8.4-3.9,13.1-3.9h6.3c7.9,0.5,12.9,3.1,16,7.1c21.4,27.7,48.6,65,55.8,114.3
					c1.7,11.9-15.2,35.7-19.8,39.1c-55.8,41.5-87.2-27.9-87.2-27.9l5-109.7C1298.8,58.2,1302.8,51.2,1309.3,47z"/>
				<circle class="st3" cx="1345.9" cy="169.7" r="54.6"/>
			</g>
			<g>
				<path class="st3" d="M1275,47L1275,47c-3.9-2.5-8.4-3.9-13.1-3.9h-6.3c-7.9,0.5-12.9,3.1-16,7.1c-21.4,27.7-48.6,65-55.8,114.3
					c-1.7,11.9,15.2,35.7,19.8,39.1c55.8,41.5,87.2-27.9,87.2-27.9l17.6-99l-22.5-10.6C1285.5,58.2,1281.5,51.2,1275,47z"/>
				<circle class="st3" cx="1238.4" cy="169.7" r="54.6"/>
			</g>
		</g>
		<path class="st3" d="M1291.8,489.4L1291.8,489.4c-30.3,0-54.9-24.6-54.9-54.9v-61.7c0-30.3,24.6-54.9,54.9-54.9l0,0
			c30.3,0,54.9,24.6,54.9,54.9v61.7C1346.6,464.8,1322.1,489.4,1291.8,489.4z"/>
		<g>
			<g>
				<g>
					<circle class="st2" cx="1259.4" cy="168.3" r="22.4"/>
					<circle class="st2" cx="1229.6" cy="179.1" r="24.4"/>
					<circle class="st2" cx="1268.3" cy="103.5" r="13.5"/>
					<rect x="1251.9" y="103.5" class="st2" width="29.9" height="61"/>
					<path class="st2" d="M1206.1,172.5c13.2-52.4,53.6-79.5,53.6-79.5l5.4,70.4C1265.1,163.4,1202.4,187,1206.1,172.5z"/>
				</g>
				<g>
					<circle class="st2" cx="1324.9" cy="168.3" r="22.4"/>
					<circle class="st2" cx="1354.7" cy="179.1" r="24.4"/>
					<circle class="st2" cx="1316" cy="103.5" r="13.5"/>
					<rect x="1302.5" y="103.4" class="st2" width="29.9" height="61"/>
					<path class="st2" d="M1378.2,172.5c-13.2-52.4-53.6-79.5-53.6-79.5l-5.4,70.4C1319.2,163.4,1381.9,187,1378.2,172.5z"/>
				</g>
			</g>
			<rect x="1284.7" y="42.6" class="st2" width="14.9" height="56.1"/>
			<g>
				
					<rect x="1302.4" y="87.1" transform="matrix(-0.7071 0.7071 -0.7071 -0.7071 2317.4202 -729.6315)" class="st2" width="14.9" height="56.1"/>
				
					<rect x="1267.1" y="87.1" transform="matrix(0.7071 0.7071 -0.7071 0.7071 454.7012 -867.5349)" class="st2" width="14.9" height="56.1"/>
			</g>
		</g>
		<g>
			<path class="st4" d="M1459.9,534.8c0,0,20.9-17.7,20.3-35.7c-1.6-43.9,1.6-76-1.6-100.3c-8-60.9-24.9-73-27.9-100.5
				c-2.6-23.1,5-164.8-13-199.7c-19.1-36.9-65.2-41.5-97.4-33c-22.8,6-28.3,24.1-30.4,35.6c-1.6,8.8-1.8,16.5,2.7,35.8"/>
			<path class="st4" d="M1391,64.5c23.7,6.2,25.7,29.3,27.5,56.9s33.3,135.3,30.9,171.2s-1.1,91.7,6.5,115.8s21.6,54.8,23.8,80.9"/>
			<path class="st4" d="M1124.7,534.8c0,0-20.9-17.7-20.3-35.7c1.6-43.9-1.6-76,1.6-100.3c8-60.9,24.9-73,27.9-100.5
				c2.6-23.1-5-164.8,13-199.7c19.1-36.9,65.2-41.5,97.4-33c22.8,6,47.4,21.8,51.6,35.6c2.6,8.6,8.6,16.5,4.2,35.8"/>
			<path class="st4" d="M1193.6,64.5c-23.7,6.2-25.7,29.3-27.5,56.9s-33.3,135.3-30.9,171.2c2.4,35.9,1.1,91.7-6.5,115.8
				s-21.6,54.8-23.8,80.9"/>
			<path class="st4" d="M1340.2,65.6c0,0-23.1-47.7-24.2-62.9c-1.1-15.2,13.1-41.3,23.2-68.4c5.7-15.3,5-30.2,3.3-40.3
				c-1.3-7.6-6.4-14-13.5-16.9l-4.6-1.9"/>
			<line class="st4" x1="1316" y1="-0.7" x2="1321.9" y2="74.9"/>
			<path class="st4" d="M1242.9,64.8c0,0,23.1-46.8,24.2-62c1.1-15.2-13.1-41.3-23.2-68.4c-6.5-17.4-4.7-34.3-2.5-44.1
				c1.2-5.4,4.3-10.1,8.7-13.3l4.8-3.5"/>
			<line class="st4" x1="1267.1" y1="-0.7" x2="1261.3" y2="71.5"/>
			<path class="st4" d="M1295.9,185.2c0,0-3.9,223.5,0.4,234.6c4.3,11.1,78.3,67.9,82.1,115c8.8,108-27.9,228.6-29.6,234.1
				c-6.6,21.4,19,145.2,13.3,195.2c-5.7,50-26.4,117.2-29.7,141.5c-3.2,24.3-5.6,54.3-5.6,54.3"/>
			<path class="st4" d="M1324.9,450.4c13,13.8,18.6,46.7,16.4,84.3c-2.1,37.6,8.4,197.7,2.4,249.2s-18.1,154.4-14.2,193
				c3.9,38.6,7.1,90.2,2.9,128.7"/>
			<path class="st4" d="M1294.7,416.4c-4.3,11.1-86.7,71.3-90.5,118.4c-8.8,108,27.9,228.6,29.6,234.1c6.6,21.4-19,145.2-13.3,195.2
				s26.4,117.2,29.7,141.5c3.2,24.3,5.6,54.3,5.6,54.3"/>
			<path class="st4" d="M1258.1,452.5c-13,13.8-19,44.6-16.9,82.2s-8.4,197.7-2.4,249.2s18.1,154.4,14.2,193
				c-3.9,38.6-7.1,90.2-2.9,128.7"/>
		</g>
		<path class="st1" d="M1297.3,113.9c0,0,4.3,6.4,3.8,7.8c-0.4,1.4-3.7,2.6-7.2,11c-2.3,5.8,0.9,11.3-0.6,12.4
			c-1.6,1.1-5.7,7.9-6.9,10.2c-8.9,16.7,4,34.6,13.3,41.2c9.3,6.5,18.4,6.7,24.3,9.3c8.2,3.5,19,5.8,25.3-5.3c0,0,4.1-8.5-1-24.1
			c-2.9-8.9-6.4-15.4-8.1-17.8c-5.5-7.7-11.2-11.2-13.8-12.6c-1.4-0.7-0.8-3.8,2-5c2.8-1.3,6-0.3,6-0.3l1-4c0,0-3.9-1.3-5.8-0.9
			c-1.9,0.3,2.1-4.2,2.3-7.3c0,0-2.7-2.3-4.4-1.7c0,0-1,3.7-3.5,7.7c0,0,1-9.6-5.9-14.6c0,0,1.6-8.1,2.1-8.8c0,0-3.2-1.7-4.5-1.4
			c0,0-1.9,8.1-2.2,8.3c-0.3,0.2-0.9,1.2-1.5,0.2s-0.8-9.6-0.8-9.6l-4.4,0.5c0,0,1.9,9.3,0.7,9.8c-0.4,0.2-0.8,0.8-1.6,0.1
			c-2.1-1.8-4.3-6.9-4.3-7.3C1301.5,111.2,1297.3,113.9,1297.3,113.9z"/>
		<g>
			<circle class="st3" cx="1258.5" cy="-127.2" r="13.6"/>
			<circle class="st3" cx="1278.8" cy="-138.8" r="14.7"/>
			<circle class="st3" cx="1301.4" cy="-140.3" r="16.3"/>
			<circle class="st3" cx="1252.2" cy="-121.7" r="8.1"/>
			<circle class="st3" cx="1331.8" cy="-121.7" r="8.1"/>
			<circle class="st3" cx="1320.8" cy="-133.2" r="11"/>
			<rect x="1252.2" y="-127.2" class="st3" width="79.6" height="13.6"/>
			<rect x="1277.7" y="-136.3" class="st3" width="14.3" height="17.6"/>
		</g>
	</g>
	<g>
		<rect x="689.3" y="-114" class="st5" width="283.7" height="41.9"/>
		<text transform="matrix(1 0 0 1 689.3237 -89.8569)" class="st1 st6 st7">CABEZA</text>
	</g>
	<line class="st8" x1="1301.8" y1="-136.4" x2="689.3" y2="-138.1"/>
	<g>
		<rect x="1532.1" y="614.1" class="st5" width="360.9" height="195.4"/>
		<text transform="matrix(1 0 0 1 1657.6045 631.6448)" class="st1 st6 st9">Nacimiento prematuro</text>
		<text transform="matrix(1 0 0 1 1652.4044 667.6448)" class="st1 st6 st9">Peso reducido al nacer </text>
		<text transform="matrix(1 0 0 1 1758.9036 703.6448)" class="st1 st6 st9">Preclampsia</text>
		<text transform="matrix(1 0 0 1 1604.4047 739.6448)" class="st1 st6 st9">Reducción en la calidad del </text>
		<text transform="matrix(1 0 0 1 1786.2024 763.6448)" class="st1 st6 st9">esperma</text>
	</g>
	<g>
		<rect x="1526.3" y="518.5" class="st5" width="366.7" height="123.5"/>
		<text transform="matrix(1 0 0 1 1553.4907 542.595)" class="st1 st6 st7">APARATO REPRODUCTOR</text>
		<text transform="matrix(1 0 0 1 1794.3885 580.095)" class="st1 st6 st7">Y FETO</text>
	</g>
	<g>
		<rect x="689.3" y="563" class="st5" width="283.7" height="57.7"/>
		<text transform="matrix(1 0 0 1 689.3228 587.1719)" class="st1 st6 st7">GENERAL/OTROS</text>
	</g>
	<line class="st8" x1="1185.5" y1="540.7" x2="689.3" y2="539"/>
	<g>
		<g>
			<rect x="689.3" y="621.1" class="st5" width="538.6" height="474.6"/>
			<text transform="matrix(1 0 0 1 689.3232 638.6564)" class="st1 st6 st9">Obesidad</text>
			<text transform="matrix(1 0 0 1 689.3232 674.6564)" class="st1 st6 st9">Diabetes</text>
			<text transform="matrix(1 0 0 1 689.3232 710.6564)" class="st1 st6 st9">Síndrome metabólico</text>
			<text transform="matrix(1 0 0 1 689.3232 746.6564)" class="st1 st6 st9">Molestias, estrés</text>
			<text transform="matrix(1 0 0 1 689.3232 782.6564)" class="st1 st6 st9">Trastorno del sueño</text>
			<text transform="matrix(1 0 0 1 689.3232 818.6564)" class="st6 st9">Lesiones por accidentes de trabajo y de tráfico</text>
			<text transform="matrix(1 0 0 1 689.3232 854.6564)" class="st1 st6 st9">Cáncer de colon</text>
			<text transform="matrix(1 0 0 1 689.3232 890.7563)" class="st1 st6 st9">Inflamación sistémica</text>
			<text transform="matrix(1 0 0 1 689.3232 926.7563)" class="st1 st6 st9">Peor estado de salud general</text>
			<text transform="matrix(1 0 0 1 689.3232 962.7563)" class="st1 st6 st9">Incremento de la mortalidad</text>
		</g>
		<circle class="st10" cx="678" cy="775.4" r="5.5"/>
		<circle class="st11" cx="678" cy="630.9" r="5.5"/>
		<circle class="st12" cx="678" cy="809.9" r="5.5"/>
		<g>
			<circle class="st13" cx="678" cy="667.6" r="5.5"/>
			<circle class="st11" cx="664" cy="667.6" r="5.5"/>
		</g>
		<g>
			<circle class="st10" cx="678" cy="739.7" r="5.5"/>
			<circle class="st14" cx="664.2" cy="739.7" r="5.5"/>
		</g>
		<circle class="st14" cx="678" cy="917.4" r="5.5"/>
		<g>
			<circle class="st12" cx="651.6" cy="953.1" r="5.5"/>
			<ellipse class="st11" cx="638.5" cy="953.1" rx="5.5" ry="5.5"/>
			<circle class="st14" cx="625.5" cy="953.1" r="5.5"/>
			<circle class="st10" cx="664.8" cy="953.1" r="5.5"/>
			<circle class="st13" cx="678" cy="953.1" r="5.5"/>
		</g>
		<circle class="st11" cx="678" cy="701.9" r="5.5"/>
		<circle class="st11" cx="678" cy="844.8" r="5.5"/>
		<circle class="st13" cx="678" cy="881.8" r="5.5"/>
	</g>
	<circle class="st13" cx="1905.5" cy="624" r="5.5"/>
	<circle class="st13" cx="1905.5" cy="661.5" r="5.5"/>
	<circle class="st13" cx="1905.5" cy="731.5" r="5.5"/>
	<circle class="st12" cx="1919.3" cy="624" r="5.5"/>
	<circle class="st13" cx="1905.5" cy="697.6" r="5.5"/>
	<g>
		<g>
			<rect x="689.3" y="-55.9" class="st5" width="380.7" height="427.2"/>
			<text transform="matrix(1 0 0 1 689.3232 -38.3722)" class="st1 st6 st9">Demencia</text>
			<text transform="matrix(1 0 0 1 689.3232 -2.372)" class="st1 st6 st9">Deterioro cognitivo</text>
			<text transform="matrix(1 0 0 1 689.3232 33.628)" class="st1 st6 st9">Enfermedades </text>
			<text transform="matrix(1 0 0 1 689.3232 57.628)" class="st1 st6 st9">neurodegenerativas</text>
			<text transform="matrix(1 0 0 1 689.3232 93.628)" class="st1 st6 st9">Problemas de salud mental</text>
			<text transform="matrix(1 0 0 1 689.3232 129.628)" class="st1 st6 st9">Ictus</text>
			<text transform="matrix(1 0 0 1 689.3232 165.628)" class="st1 st6 st9">Enfermedades cerebrovasculares</text>
			<text transform="matrix(1 0 0 1 689.3232 201.7281)" class="st1 st6 st9">Autismo y problemas de </text>
			<text transform="matrix(1 0 0 1 689.3232 225.728)" class="st1 st6 st9">conducta en niños</text>
			<text transform="matrix(1 0 0 1 689.3232 261.728)" class="st6 st9">Tinnitus o sordera</text>
			<text transform="matrix(1 0 0 1 689.3232 297.728)" class="st6 st9">Reducción del rendimiento </text>
			<text transform="matrix(1 0 0 1 689.3232 321.728)" class="st6 st9">cognitivo</text>
		</g>
		<circle class="st13" cx="678" cy="194.1" r="5.5"/>
		<circle class="st10" cx="678" cy="253.8" r="5.5"/>
		<circle class="st12" cx="678" cy="290.1" r="5.5"/>
		<g>
			<circle class="st13" cx="678" cy="121.6" r="5.5"/>
			<circle class="st11" cx="650.3" cy="121.6" r="5.5"/>
			<circle class="st10" cx="664.2" cy="121.6" r="5.5"/>
		</g>
		<g>
			<circle class="st13" cx="678" cy="-46.4" r="5.5"/>
			<circle class="st11" cx="664.2" cy="-46.4" r="5.5"/>
		</g>
		<g>
			<circle class="st13" cx="678" cy="25.7" r="5.5"/>
			<circle class="st11" cx="664.2" cy="25.7" r="5.5"/>
		</g>
		<g>
			<circle class="st10" cx="678" cy="157.9" r="5.5"/>
			<circle class="st11" cx="664.2" cy="157.9" r="5.5"/>
		</g>
		<g>
			<circle class="st10" cx="678" cy="-9.7" r="5.5"/>
			<circle class="st11" cx="664.2" cy="-9.7" r="5.5"/>
		</g>
		<circle class="st14" cx="650.3" cy="85.5" r="5.5"/>
		<circle class="st11" cx="664.2" cy="85.5" r="5.5"/>
		<circle class="st13" cx="678" cy="85.5" r="5.5"/>
	</g>
	<circle class="st13" cx="1905.5" cy="-43.8" r="5.5"/>
	<circle class="st13" cx="1905.5" cy="16.2" r="5.5"/>
	<g>
		<circle class="st11" cx="1919.3" cy="52.3" r="5.5"/>
		<circle class="st13" cx="1905.5" cy="52" r="5.5"/>
	</g>
	<circle class="st13" cx="1905.5" cy="124.2" r="5.5"/>
	<circle class="st13" cx="1905.5" cy="88.2" r="5.5"/>
	<circle class="st11" cx="1919.3" cy="935.9" r="5.5"/>
	<circle class="st10" cx="1905.5" cy="935.9" r="5.5"/>
	<circle class="st13" cx="1905.5" cy="972.5" r="5.5"/>
	<circle class="st11" cx="678" cy="462.1" r="5.5"/>
	<g>
		<rect x="1535.2" y="-55.1" class="st5" width="357.8" height="214.7"/>
		<text transform="matrix(1 0 0 1 1664.7407 -37.5464)" class="st1 st6 st9">Enfermedad Pulmonar </text>
		<text transform="matrix(1 0 0 1 1616.5149 -13.5463)" class="st1 st6 st9">Obstructiva Crónica (EPOC)</text>
		<text transform="matrix(1 0 0 1 1819.5906 22.4537)" class="st1 st6 st9">Asma</text>
		<text transform="matrix(1 0 0 1 1613.4795 58.4537)" class="st1 st6 st9">Enfermedades respiratorias </text>
		<text transform="matrix(1 0 0 1 1773.5171 94.4537)" class="st1 st6 st9">Neumonía</text>
		<text transform="matrix(1 0 0 1 1692.8436 130.4537)" class="st1 st6 st9">Cáncer de pulmón</text>
	</g>
	<g>
		<rect x="1507.8" y="-113" class="st5" width="385.2" height="138.5"/>
		<text transform="matrix(1 0 0 1 1569.9475 -88.9198)" class="st1 st6 st7">APARATO RESPIRATORIO</text>
	</g>
	<polyline class="st8" points="1893,-135.4 1530.2,-136.9 1350.5,135.1 	"/>
	<g>
		<rect x="689.3" y="452.3" class="st5" width="357.8" height="48.9"/>
		<text transform="matrix(1 0 0 1 689.3223 469.8131)" class="st1 st6 st9">Cáncer de mama </text>
	</g>
	<g>
		<rect x="689.3" y="392.9" class="st5" width="385.2" height="138.5"/>
		<text transform="matrix(1 0 0 1 689.3213 416.9849)" class="st1 st6 st7">PECHO</text>
	</g>
	<polyline class="st8" points="689.3,370.5 1052.2,369 1202.1,178 	"/>
	<circle class="st10" cx="1919.1" cy="408.9" r="5.5"/>
	<circle class="st11" cx="1932.9" cy="408.9" r="5.5"/>
	<circle class="st10" cx="1919.3" cy="302" r="5.5"/>
	<circle class="st11" cx="1933.1" cy="302" r="5.5"/>
	<circle class="st13" cx="1905.5" cy="302" r="5.5"/>
	<circle class="st13" cx="1905.2" cy="337" r="5.5"/>
	<circle class="st13" cx="1905.2" cy="373" r="5.5"/>
	<circle class="st13" cx="1905.2" cy="408.9" r="5.5"/>
	<g>
		<rect x="1536" y="290.5" class="st5" width="357.8" height="151.9"/>
		<text transform="matrix(1 0 0 1 1680.2318 308.0325)" class="st1 st6 st9">Infarto de miocardio</text>
		<text transform="matrix(1 0 0 1 1801.6282 344.0325)" class="st1 st6 st9">Arritmia</text>
		<text transform="matrix(1 0 0 1 1625.1714 380.0325)" class="st1 st6 st9">Fallo congestivo cardíaco</text>
		<text transform="matrix(1 0 0 1 1567.3596 416.0325)" class="st1 st6 st9">Enfermedades cardiovasculares</text>
	</g>
	<g>
		<rect x="1508.6" y="231.7" class="st5" width="385.2" height="321.3"/>
		<text transform="matrix(1 0 0 1 1727.4777 255.8536)" class="st1 st6 st7">CORAZÓN</text>
	</g>
	<polyline class="st8" points="1893.9,209.3 1531.1,208 1330.3,166.5 	"/>
	<g>
		<rect x="1535.2" y="924.6" class="st5" width="357.8" height="133.5"/>
		<text transform="matrix(1 0 0 1 1749.9458 942.1502)" class="st1 st6 st9">Hipertensión</text>
		<text transform="matrix(1 0 0 1 1609.8474 978.1503)" class="st1 st6 st9">Trombosis venosa profunda</text>
	</g>
	<g>
		<rect x="1507.8" y="866.2" class="st5" width="385.2" height="59.8"/>
		<text transform="matrix(1 0 0 1 1757.1505 890.3101)" class="st1 st6 st7">ARTERIAS</text>
	</g>
	<line class="st8" x1="1893" y1="842.4" x2="1348.8" y2="840.7"/>
	<polyline class="st8" points="1324.9,375.5 1507.3,495.6 1893,494.4 	"/>
</g>
</svg>
