<?xml version="1.0" encoding="utf-8"?>
<!-- Generator: Adobe Illustrator 19.0.0, SVG Export Plug-In . SVG Version: 6.00 Build 0)  -->
<svg version="1.1" id="Capa_1" xmlns="http://www.w3.org/2000/svg" xmlns:xlink="http://www.w3.org/1999/xlink" x="0px" y="0px"
	 viewBox="570 -225.3 1440 1451.3" style="enable-background:new 570 -225.3 1440 1451.3;" xml:space="preserve">
<style type="text/css">
	.st0{fill:#F4F4F4;}
	.st1{fill:#181716;}
	.st2{fill:#A5B0DB;}
	.st3{fill:#FBE2E0;}
	.st4{fill:#F8D2D0;}
	.st5{fill:none;stroke:#004F9F;stroke-width:6.0014;stroke-miterlimit:10;}
	.st6{fill:#004F9F;}
	.st7{fill:none;}
	.st8{font-family:'PlatformWeb-Regular';}
	.st9{font-size:24.0054px;}
	.st10{font-size:33.0075px;}
	.st11{fill:none;stroke:#181716;stroke-width:1.5003;stroke-miterlimit:10;}
</style>
<g id="bg">
	<rect x="570" y="-226" class="st0" width="1440" height="1452.7"/>
	<rect x="570" y="1019.3" class="st1" width="1440" height="207.3"/>
</g>
<g id="cos">
	<g>
		<g>
			<path class="st2" d="M1292.2-169.3c-0.4,0-0.7,0-1,0s-0.7,0-1,0c-44.9-0.4-62.4,35.1-59.8,80.4c2.5,44.3,19.6,91.2,60.6,92.1l0,0
				c0.1,0,0.2,0,0.3,0c0.1,0,0.2,0,0.3,0l0,0c41-0.9,58.1-47.8,60.6-92.1C1354.6-134.1,1337.1-169.7,1292.2-169.3z"/>
			<g>
				<ellipse transform="matrix(0.991 0.1335 -0.1335 0.991 2.5097 -180.8737)" class="st2" cx="1350" cy="-71.7" rx="8" ry="23.8"/>
				
					<ellipse transform="matrix(0.1335 0.991 -0.991 0.1335 997.0641 -1283.5281)" class="st2" cx="1232.5" cy="-71.6" rx="23.8" ry="8"/>
			</g>
			<rect x="1256.1" y="-29" class="st2" width="70.1" height="73.1"/>
			<g>
				<path class="st2" d="M1304,77.1l-48.1-73.8l0,0c0,20.9-16.9,37.8-37.8,37.8l0,0L1304,77.1z"/>
				<path class="st2" d="M1278.3,77.1l48.1-73.8l0,0c0,20.9,16.9,37.8,37.8,37.8l0,0L1278.3,77.1z"/>
			</g>
		</g>
		<g>
			<rect x="1201.5" y="40.8" class="st2" width="178.7" height="281.4"/>
			<path class="st2" d="M1174.2,79.3h233.4v86.2c0,35.4-28.7,64-64,64h-105.4c-35.4,0-64-28.7-64-64V79.3z"/>
			<path class="st2" d="M1128.3,162.5h325.1v-59.3c0-34.5-28-62.4-62.4-62.4h-200.3c-34.5,0-62.4,28-62.4,62.4L1128.3,162.5
				L1128.3,162.5z"/>
			<path class="st2" d="M1380.2,322.2h-89.4v196.1h127.1c0,0,0-24.5,0-74.5C1417.9,395.8,1380.2,322.2,1380.2,322.2z"/>
			<path class="st2" d="M1201.5,322.2h89.4v196.1h-127.1c0,0,0-24.5,0-74.5C1163.8,395.8,1201.5,322.2,1201.5,322.2z"/>
			<g>
				<path class="st2" d="M1376.2,769.3c0,19.3-77.1,0-77.1,0v-251c0,0,118.8-29.7,118.8,0C1417.9,625.1,1376.2,740.2,1376.2,769.3z"
					/>
				<path class="st2" d="M1355,1084.2h-41l-14.9-314.8h76.9c0,0,6.4,92.3,6.4,123.2C1382.4,979.2,1355,1084.2,1355,1084.2z"/>
				<path class="st2" d="M1362.8,1179.2c-0.1,2.3-2.4,6-4.9,9.3c-3.8,5-9.7,7.8-15.9,7.8h-29.7c-7,0-12.4-6.1-11.4-13.1l13.1-99h41
					C1355,1084.2,1363.9,1149.9,1362.8,1179.2z"/>
			</g>
			<g>
				<path class="st2" d="M1205.5,769.3c0,19.3,77.1,0,77.1,0v-251c0,0-118.8-29.7-118.8,0C1163.8,625.1,1205.5,740.2,1205.5,769.3z"
					/>
				<path class="st2" d="M1226.7,1084.2h41l14.9-314.8h-76.9c0,0-6.4,92.3-6.4,123.2C1199.3,979.2,1226.7,1084.2,1226.7,1084.2z"/>
				<path class="st2" d="M1218.9,1179.2c0.1,2.3,2.4,6,4.9,9.3c3.8,5,9.7,7.8,15.9,7.8h29.7c7,0,12.4-6.1,11.4-13.1l-13.1-99h-41
					C1226.8,1084.2,1217.8,1149.9,1218.9,1179.2z"/>
			</g>
			<polygon class="st2" points="1473.9,311.8 1427.9,317.1 1400.1,99.8 1453.3,93.6 			"/>
			<path class="st2" d="M1488.7,496.5l-27,3.1L1428,317.1c0,0,42.4-39.8,43.8-27.7c2.5,21.5,8.9,43.4,12.1,73.1
				C1487.4,395.8,1488.7,496.5,1488.7,496.5z"/>
			<path class="st2" d="M1488.7,496.5v41.4c0,8.9-2.7,17.6-7.9,24.9l-32.9,46.8c-2.7,3.9-8,4.9-11.9,2.3l0,0
				c-3.7-2.4-5-7.1-3.1-11.1l20.4-42.3l-2.8-15.3l-14.6,28.8c-0.7,1.3-2.2,2-3.7,1.6l0,0c-1.5-0.4-2.5-1.9-2.3-3.4l3.1-27.7
				c0.8-7.2,3.3-14.1,7.4-20.1l21.2-22.9L1488.7,496.5z"/>
			<g>
				<polygon class="st2" points="1108.5,311.8 1154.4,317.1 1182.2,99.8 1129.1,93.6 				"/>
				<path class="st2" d="M1093.7,496.5l27,3.1l33.7-182.5c0,0-42.4-39.8-43.8-27.7c-2.5,21.5-8.9,43.4-12.1,73.1
					C1094.9,395.8,1093.7,496.5,1093.7,496.5z"/>
				<path class="st2" d="M1093.7,496.5v41.4c0,8.9,2.7,17.6,7.9,24.9l32.9,46.8c2.7,3.9,8,4.9,11.9,2.3l0,0c3.7-2.4,5-7.1,3.1-11.1
					l-20.4-42.3l2.8-15.3l14.6,28.8c0.7,1.3,2.2,2,3.7,1.6l0,0c1.5-0.4,2.5-1.9,2.3-3.4l-3.1-27.7c-0.8-7.2-3.3-14.1-7.4-20.1
					l-21.2-22.9L1093.7,496.5z"/>
			</g>
		</g>
	</g>
	<g>
		<g>
			<path class="st3" d="M1308.7,47.5L1308.7,47.5c3.9-2.5,8.4-3.9,13.1-3.9h6.3c7.9,0.5,12.9,3.1,16,7.1
				c21.4,27.7,48.6,65,55.8,114.3c1.7,11.9-15.2,35.7-19.8,39.1c-55.8,41.5-87.2-27.9-87.2-27.9l5-109.7
				C1298.2,58.7,1302.2,51.7,1308.7,47.5z"/>
			<circle class="st3" cx="1345.3" cy="170.2" r="54.6"/>
		</g>
		<g>
			<path class="st3" d="M1274.4,47.5L1274.4,47.5c-3.9-2.5-8.4-3.9-13.1-3.9h-6.3c-7.9,0.5-12.9,3.1-16,7.1
				c-21.4,27.7-48.6,65-55.8,114.3c-1.7,11.9,15.2,35.7,19.8,39.1c55.8,41.5,87.2-27.9,87.2-27.9l17.6-99l-22.5-10.6
				C1284.9,58.7,1280.9,51.7,1274.4,47.5z"/>
			<circle class="st3" cx="1237.8" cy="170.2" r="54.6"/>
		</g>
	</g>
	<path class="st4" d="M1291.2,489.9L1291.2,489.9c-30.3,0-54.9-24.6-54.9-54.9v-61.7c0-30.3,24.6-54.9,54.9-54.9l0,0
		c30.3,0,54.9,24.6,54.9,54.9V435C1346,465.3,1321.5,489.9,1291.2,489.9z"/>
	<g>
		<g>
			<g>
				<circle class="st4" cx="1258.8" cy="168.8" r="22.4"/>
				<circle class="st4" cx="1229" cy="179.6" r="24.4"/>
				<circle class="st4" cx="1267.7" cy="104" r="13.5"/>
				<rect x="1251.3" y="104" class="st4" width="29.9" height="61"/>
				<path class="st4" d="M1205.5,173c13.2-52.4,53.6-79.5,53.6-79.5l5.4,70.4C1264.5,163.9,1201.8,187.5,1205.5,173z"/>
			</g>
			<g>
				<circle class="st4" cx="1324.3" cy="168.8" r="22.4"/>
				<circle class="st4" cx="1354.1" cy="179.6" r="24.4"/>
				<circle class="st4" cx="1315.4" cy="104" r="13.5"/>
				<rect x="1301.9" y="103.9" class="st4" width="29.9" height="61"/>
				<path class="st4" d="M1377.6,173c-13.2-52.4-53.6-79.5-53.6-79.5l-5.4,70.4C1318.6,163.9,1381.3,187.5,1377.6,173z"/>
			</g>
		</g>
		<rect x="1284.1" y="43.1" class="st4" width="14.9" height="56.1"/>
		<g>
			
				<rect x="1301.8" y="87.6" transform="matrix(-0.7071 0.7071 -0.7071 -0.7071 2316.7422 -728.3583)" class="st4" width="14.9" height="56.1"/>
			
				<rect x="1266.5" y="87.6" transform="matrix(0.7071 0.7071 -0.7071 0.7071 454.8862 -866.9533)" class="st4" width="14.9" height="56.1"/>
		</g>
	</g>
	<g>
		<path class="st5" d="M1459.3,535.3c0,0,20.9-17.7,20.3-35.7c-1.6-43.9,1.6-76-1.6-100.3c-8-60.9-24.9-73-27.9-100.5
			c-2.6-23.1,5-164.8-13-199.7c-19.1-36.9-65.2-41.5-97.4-33c-22.8,6-28.3,24.1-30.4,35.6c-1.6,8.8-1.8,16.5,2.7,35.8"/>
		<path class="st5" d="M1390.4,65c23.7,6.2,25.7,29.3,27.5,56.9s33.3,135.3,30.9,171.2s-1.1,91.7,6.5,115.8s21.6,54.8,23.8,80.9"/>
		<path class="st5" d="M1124.1,535.3c0,0-20.9-17.7-20.3-35.7c1.6-43.9-1.6-76,1.6-100.3c8-60.9,24.9-73,27.9-100.5
			c2.6-23.1-5-164.8,13-199.7c19.1-36.9,65.2-41.5,97.4-33c22.8,6,47.4,21.8,51.6,35.6c2.6,8.6,8.6,16.5,4.2,35.8"/>
		<path class="st5" d="M1192.9,65c-23.7,6.2-25.7,29.3-27.5,56.9s-33.3,135.3-30.9,171.2s1.1,91.7-6.5,115.8s-21.6,54.8-23.8,80.9"
			/>
		<path class="st5" d="M1339.6,66.1c0,0-23.1-47.7-24.2-62.9s13.1-41.3,23.2-68.4c5.7-15.3,5-30.2,3.3-40.3
			c-1.3-7.6-6.4-14-13.5-16.9l-4.6-1.9"/>
		<line class="st5" x1="1315.4" y1="-0.2" x2="1321.2" y2="75.4"/>
		<path class="st5" d="M1242.3,65.3c0,0,23.1-46.8,24.2-62s-13.1-41.3-23.2-68.4c-6.5-17.4-4.7-34.3-2.5-44.1
			c1.2-5.4,4.3-10.1,8.7-13.3l4.8-3.5"/>
		<line class="st5" x1="1266.5" y1="-0.2" x2="1260.7" y2="72"/>
		<path class="st5" d="M1295.3,185.7c0,0-3.9,223.5,0.4,234.6c4.3,11.1,78.3,67.9,82.1,115c8.8,108-27.9,228.6-29.6,234.1
			c-6.6,21.4,19,145.2,13.3,195.2s-26.4,117.2-29.7,141.5c-3.2,24.3-5.6,54.3-5.6,54.3"/>
		<path class="st5" d="M1324.3,450.9c13,13.8,18.6,46.7,16.4,84.3c-2.1,37.6,8.4,197.7,2.4,249.2s-18.1,154.4-14.2,193
			s7.1,90.2,2.9,128.7"/>
		<path class="st5" d="M1294.1,416.9c-4.3,11.1-86.7,71.3-90.5,118.4c-8.8,108,27.9,228.6,29.6,234.1c6.6,21.4-19,145.2-13.3,195.2
			s26.4,117.2,29.7,141.5c3.2,24.3,5.6,54.3,5.6,54.3"/>
		<path class="st5" d="M1257.5,453c-13,13.8-19,44.6-16.9,82.2s-8.4,197.7-2.4,249.2s18.1,154.4,14.2,193s-7.1,90.2-2.9,128.7"/>
	</g>
	<path class="st6" d="M1296.7,114.4c0,0,4.3,6.4,3.8,7.8c-0.4,1.4-3.7,2.6-7.2,11c-2.3,5.8,0.9,11.3-0.6,12.4
		c-1.6,1.1-5.7,7.9-6.9,10.2c-8.9,16.7,4,34.6,13.3,41.2c9.3,6.5,18.4,6.7,24.3,9.3c8.2,3.5,19,5.8,25.3-5.3c0,0,4.1-8.5-1-24.1
		c-2.9-8.9-6.4-15.4-8.1-17.8c-5.5-7.7-11.2-11.2-13.8-12.6c-1.4-0.7-0.8-3.8,2-5c2.8-1.3,6-0.3,6-0.3l1-4c0,0-3.9-1.3-5.8-0.9
		c-1.9,0.3,2.1-4.2,2.3-7.3c0,0-2.7-2.3-4.4-1.7c0,0-1,3.7-3.5,7.7c0,0,1-9.6-5.9-14.6c0,0,1.6-8.1,2.1-8.8c0,0-3.2-1.7-4.5-1.4
		c0,0-1.9,8.1-2.2,8.3c-0.3,0.2-0.9,1.2-1.5,0.2s-0.8-9.6-0.8-9.6l-4.4,0.5c0,0,1.9,9.3,0.7,9.8c-0.4,0.2-0.8,0.8-1.6,0.1
		c-2.1-1.8-4.3-6.9-4.3-7.3C1300.9,111.7,1296.7,114.4,1296.7,114.4z"/>
	<g>
		<circle class="st6" cx="1257.9" cy="-126.7" r="13.6"/>
		<circle class="st6" cx="1278.2" cy="-138.3" r="14.7"/>
		<circle class="st6" cx="1300.8" cy="-139.8" r="16.3"/>
		<circle class="st6" cx="1251.6" cy="-121.2" r="8.1"/>
		<circle class="st6" cx="1331.2" cy="-121.2" r="8.1"/>
		<circle class="st6" cx="1320.2" cy="-132.7" r="11"/>
		<rect x="1251.6" y="-126.7" class="st6" width="79.6" height="13.6"/>
		<rect x="1277.1" y="-135.8" class="st6" width="14.3" height="17.6"/>
	</g>
	<g>
		<g>
			<rect x="688.7" y="-55.4" class="st7" width="380.7" height="157.1"/>
			<text transform="matrix(1 0 0 1 688.7173 -37.87)" class="st1 st8 st9">Deteriorament cognitiu</text>
			<text transform="matrix(1 0 0 1 688.7173 -1.8698)" class="st1 st8 st9">Ictus</text>
			<text transform="matrix(1 0 0 1 688.7173 34.1302)" class="st1 st8 st9">Malalties cerebrovasculars</text>
			<text transform="matrix(1 0 0 1 688.7173 70.1302)" class="st8 st9">Tinnitus o sordesa</text>
		</g>
		<g>
			<rect x="688.7" y="-113.5" class="st7" width="283.7" height="48.4"/>
			<text transform="matrix(1 0 0 1 688.7178 -89.3547)" class="st1 st8 st10">Cap</text>
		</g>
		<line class="st11" x1="1301.2" y1="-135.9" x2="688.7" y2="-137.6"/>
		<g>
			<rect x="688.7" y="598" class="st7" width="538.6" height="114.3"/>
			<text transform="matrix(1 0 0 1 688.7173 615.5831)" class="st1 st8 st9">Molèsties, estrès </text>
			<text transform="matrix(1 0 0 1 688.7173 651.5831)" class="st1 st8 st9">Trastorn del son</text>
			<text transform="matrix(1 0 0 1 688.7173 687.5831)" class="st1 st8 st9">Augment de la mortalitat</text>
		</g>
		<g>
			<rect x="688.7" y="540" class="st7" width="283.7" height="57.7"/>
			<text transform="matrix(1 0 0 1 688.7168 564.0989)" class="st1 st8 st10">General / Altres           </text>
		</g>
		<line class="st11" x1="1184.9" y1="517.6" x2="688.7" y2="515.9"/>
		<circle class="st6" cx="677.4" cy="645" r="5.5"/>
		<circle class="st6" cx="677.4" cy="681.2" r="5.5"/>
		<circle class="st6" cx="677.4" cy="607.6" r="5.5"/>
		<circle class="st6" cx="677.4" cy="-9.2" r="5.5"/>
		<circle class="st6" cx="677.4" cy="-45.9" r="5.5"/>
		<circle class="st6" cx="677.4" cy="62.3" r="5.5"/>
		<circle class="st6" cx="677.4" cy="27.2" r="5.5"/>
		<circle class="st6" cx="1904.9" cy="936.4" r="5.5"/>
		<circle class="st6" cx="1904.9" cy="302.5" r="5.5"/>
		<circle class="st6" cx="1904.6" cy="337.5" r="5.5"/>
		<g>
			<rect x="1535.4" y="291" class="st7" width="357.8" height="151.9"/>
			<text transform="matrix(1 0 0 1 1710.5341 308.5347)" class="st1 st8 st9">Infart de miocardi</text>
			<text transform="matrix(1 0 0 1 1641.7349 344.5347)" class="st1 st8 st9">Malalties cardiovasculars</text>
		</g>
		<g>
			<rect x="1508" y="232.2" class="st7" width="385.2" height="54.9"/>
			<text transform="matrix(1 0 0 1 1819.472 256.3558)" class="st1 st8 st10">Cor</text>
		</g>
		<polyline class="st11" points="1893.3,209.8 1530.5,208.5 1329.7,167 		"/>
		<g>
			<rect x="1534.5" y="925.1" class="st7" width="357.8" height="133.5"/>
			<text transform="matrix(1 0 0 1 1757.3254 942.6524)" class="st1 st8 st9">Hipertensió</text>
		</g>
		<g>
			<rect x="1507.1" y="866.7" class="st7" width="385.2" height="59.8"/>
			<text transform="matrix(1 0 0 1 1759.7959 890.8123)" class="st1 st8 st10">Artèries</text>
		</g>
		<line class="st11" x1="1892.4" y1="842.9" x2="1352.7" y2="841.2"/>
	</g>
</g>
</svg>
