<?xml version="1.0" encoding="utf-8"?>
<!-- Generator: Adobe Illustrator 21.1.0, SVG Export Plug-In . SVG Version: 6.00 Build 0)  -->
<svg version="1.1" id="Capa_1" xmlns="http://www.w3.org/2000/svg" xmlns:xlink="http://www.w3.org/1999/xlink" x="0px" y="0px"
	 viewBox="0 0 1440 1451.3" style="enable-background:new 0 0 1440 1451.3;" xml:space="preserve">
<style type="text/css">
	.st0{fill:#F4F4F4;}
	.st1{fill:#181716;}
	.st2{fill:#A5B0DB;}
	.st3{fill:#FBE2E0;}
	.st4{fill:#F8D2D0;}
	.st5{fill:none;stroke:#004F9F;stroke-width:6.0014;stroke-miterlimit:10;}
	.st6{fill:#004F9F;}
	.st7{fill:none;}
	.st8{font-family:'Platform'; font-weight: 300; letter-spacing: 1px;}
	.st9{font-size:24.0054px;}
	.st10{letter-spacing:1;}
	.st11{font-size:33.0075px;}
	.st12{fill:none;stroke:#181716;stroke-width:1.5003;stroke-miterlimit:10;}
@font-face {
  font-family: 'Platform';
  src: url('../fonts/Platform-Regular.eot');
  src: url('../fonts/Platform-Regular.eot?#iefix') format('embedded-opentype'),
  url('../fonts/Platform-Regular.woff') format('woff'),
  url('../fonts/Platform-Regular.ttf') format('truetype'),
  url('../fonts/Platform-Regular.otf') format('opentype'),
  url('../fonts/Platform-Regular.svg#Platform-Regular') format('svg');
  font-weight: 300;
  font-style: normal;
}
</style>
<g id="bg">
	<rect y="0" class="st0" width="1440" height="1452.7"/>
	<rect y="1245.3" class="st1" width="1440" height="207.3"/>
</g>
<g id="cos">
	<g>
		<g>
			<path class="st2" d="M722.2,56.7c-0.4,0-0.7,0-1,0c-0.3,0-0.7,0-1,0c-44.9-0.4-62.4,35.1-59.8,80.4c2.5,44.3,19.6,91.2,60.6,92.1
				v0c0.1,0,0.2,0,0.3,0c0.1,0,0.2,0,0.3,0v0c41-0.9,58.1-47.8,60.6-92.1C784.6,91.9,767.1,56.3,722.2,56.7z"/>
			<g>
				
					<ellipse transform="matrix(0.1335 -0.9911 0.9911 0.1335 522.795 906.6802)" class="st2" cx="779.9" cy="154.4" rx="23.8" ry="8"/>
				
					<ellipse transform="matrix(0.9911 -0.1335 0.1335 0.9911 -14.6783 89.8008)" class="st2" cx="662.4" cy="154.4" rx="8" ry="23.8"/>
			</g>
			<rect x="686.1" y="197" class="st2" width="70.1" height="73.1"/>
			<g>
				<path class="st2" d="M734,303.1l-48.1-73.8v0c0,20.9-16.9,37.8-37.8,37.8h0L734,303.1z"/>
				<path class="st2" d="M708.3,303.1l48.1-73.8v0c0,20.9,16.9,37.8,37.8,37.8h0L708.3,303.1z"/>
			</g>
		</g>
		<g>
			<rect x="631.5" y="266.8" class="st2" width="178.7" height="281.4"/>
			<path class="st2" d="M604.2,305.3h233.4v86.2c0,35.4-28.7,64-64,64H668.2c-35.4,0-64-28.7-64-64V305.3z"/>
			<path class="st2" d="M558.3,388.5h325.1v-59.3c0-34.5-28-62.4-62.4-62.4H620.7c-34.5,0-62.4,28-62.4,62.4V388.5z"/>
			<path class="st2" d="M810.2,548.2h-89.4v196.1h127.1c0,0,0-24.5,0-74.5C847.9,621.8,810.2,548.2,810.2,548.2z"/>
			<path class="st2" d="M631.5,548.2h89.4v196.1H593.8c0,0,0-24.5,0-74.5C593.8,621.8,631.5,548.2,631.5,548.2z"/>
			<g>
				<path class="st2" d="M806.2,995.3c0,19.3-77.1,0-77.1,0v-251c0,0,118.8-29.7,118.8,0C847.9,851.1,806.2,966.2,806.2,995.3z"/>
				<path class="st2" d="M785,1310.2h-41l-14.9-314.8H806c0,0,6.4,92.3,6.4,123.2C812.4,1205.2,785,1310.2,785,1310.2z"/>
				<path class="st2" d="M792.8,1405.2c-0.1,2.3-2.4,6-4.9,9.3c-3.8,5-9.7,7.8-15.9,7.8h-29.7c-7,0-12.4-6.1-11.4-13.1l13.1-99h41
					C785,1310.2,793.9,1375.9,792.8,1405.2z"/>
			</g>
			<g>
				<path class="st2" d="M635.5,995.3c0,19.3,77.1,0,77.1,0v-251c0,0-118.8-29.7-118.8,0C593.8,851.1,635.5,966.2,635.5,995.3z"/>
				<path class="st2" d="M656.7,1310.2h41l14.9-314.8h-76.9c0,0-6.4,92.3-6.4,123.2C629.3,1205.2,656.7,1310.2,656.7,1310.2z"/>
				<path class="st2" d="M648.9,1405.2c0.1,2.3,2.4,6,4.9,9.3c3.8,5,9.7,7.8,15.9,7.8h29.7c7,0,12.4-6.1,11.4-13.1l-13.1-99h-41
					C656.8,1310.2,647.8,1375.9,648.9,1405.2z"/>
			</g>
			<polygon class="st2" points="903.9,537.8 857.9,543.1 830.1,325.8 883.3,319.6 			"/>
			<path class="st2" d="M918.7,722.5l-27,3.1l-33.7-182.5c0,0,42.4-39.8,43.8-27.7c2.5,21.5,8.9,43.4,12.1,73.1
				C917.4,621.8,918.7,722.5,918.7,722.5z"/>
			<path class="st2" d="M918.7,722.5v41.4c0,8.9-2.7,17.6-7.9,24.9l-32.9,46.8c-2.7,3.9-8,4.9-11.9,2.3l0,0c-3.7-2.4-5-7.1-3.1-11.1
				l20.4-42.3l-2.8-15.3l-14.6,28.8c-0.7,1.3-2.2,2-3.7,1.6l0,0c-1.5-0.4-2.5-1.9-2.3-3.4l3.1-27.7c0.8-7.2,3.3-14.1,7.4-20.1
				l21.2-22.9L918.7,722.5z"/>
			<g>
				<polygon class="st2" points="538.5,537.8 584.4,543.1 612.2,325.8 559.1,319.6 				"/>
				<path class="st2" d="M523.7,722.5l27,3.1l33.7-182.5c0,0-42.4-39.8-43.8-27.7c-2.5,21.5-8.9,43.4-12.1,73.1
					C524.9,621.8,523.7,722.5,523.7,722.5z"/>
				<path class="st2" d="M523.7,722.5v41.4c0,8.9,2.7,17.6,7.9,24.9l32.9,46.8c2.7,3.9,8,4.9,11.9,2.3l0,0c3.7-2.4,5-7.1,3.1-11.1
					l-20.4-42.3l2.8-15.3l14.6,28.8c0.7,1.3,2.2,2,3.7,1.6l0,0c1.5-0.4,2.5-1.9,2.3-3.4l-3.1-27.7c-0.8-7.2-3.3-14.1-7.4-20.1
					l-21.2-22.9L523.7,722.5z"/>
			</g>
		</g>
	</g>
	<g>
		<g>
			<path class="st3" d="M738.7,273.5L738.7,273.5c3.9-2.5,8.4-3.9,13.1-3.9h6.3c7.9,0.5,12.9,3.1,16,7.1
				c21.4,27.7,48.6,65,55.8,114.3c1.7,11.9-15.2,35.7-19.8,39.1c-55.8,41.5-87.2-27.9-87.2-27.9l5-109.7
				C728.2,284.7,732.2,277.7,738.7,273.5z"/>
			<circle class="st3" cx="775.3" cy="396.2" r="54.6"/>
		</g>
		<g>
			<path class="st3" d="M704.4,273.5L704.4,273.5c-3.9-2.5-8.4-3.9-13.1-3.9h-6.3c-7.9,0.5-12.9,3.1-16,7.1
				c-21.4,27.7-48.6,65-55.8,114.3c-1.7,11.9,15.2,35.7,19.8,39.1c55.8,41.5,87.2-27.9,87.2-27.9l17.6-99l-22.5-10.6
				C714.9,284.7,710.9,277.7,704.4,273.5z"/>
			<circle class="st3" cx="667.8" cy="396.2" r="54.6"/>
		</g>
	</g>
	<path class="st4" d="M721.2,715.9L721.2,715.9c-30.3,0-54.9-24.6-54.9-54.9v-61.7c0-30.3,24.6-54.9,54.9-54.9h0
		c30.3,0,54.9,24.6,54.9,54.9V661C776,691.3,751.5,715.9,721.2,715.9z"/>
	<g>
		<g>
			<g>
				<circle class="st4" cx="688.8" cy="394.8" r="22.4"/>
				<circle class="st4" cx="659" cy="405.6" r="24.4"/>
				<circle class="st4" cx="697.7" cy="330" r="13.5"/>
				<rect x="681.3" y="330" class="st4" width="29.9" height="61"/>
				<path class="st4" d="M635.5,399c13.2-52.4,53.6-79.5,53.6-79.5l5.4,70.4C694.5,389.9,631.8,413.5,635.5,399z"/>
			</g>
			<g>
				<circle class="st4" cx="754.3" cy="394.8" r="22.4"/>
				<circle class="st4" cx="784.1" cy="405.6" r="24.4"/>
				<circle class="st4" cx="745.4" cy="330" r="13.5"/>
				
					<rect x="731.9" y="330" transform="matrix(-1 4.449939e-11 -4.449939e-11 -1 1493.6604 720.9397)" class="st4" width="29.9" height="61"/>
				<path class="st4" d="M807.6,399c-13.2-52.4-53.6-79.5-53.6-79.5l-5.4,70.4C748.6,389.9,811.3,413.5,807.6,399z"/>
			</g>
		</g>
		<rect x="714.1" y="269.1" class="st4" width="14.9" height="56.1"/>
		<g>
			
				<rect x="731.7" y="313.6" transform="matrix(0.7071 -0.7071 0.7071 0.7071 -25.0608 622.7427)" class="st4" width="14.9" height="56.1"/>
			
				<rect x="696.5" y="313.6" transform="matrix(-0.7071 -0.7071 0.7071 -0.7071 960.0922 1080.9281)" class="st4" width="14.9" height="56.1"/>
		</g>
	</g>
	<g>
		<path class="st5" d="M889.3,761.3c0,0,20.9-17.7,20.3-35.7c-1.6-43.9,1.6-76-1.6-100.3c-8-60.9-24.9-73-27.9-100.5
			c-2.6-23.1,5-164.8-13-199.7c-19.1-36.9-65.2-41.5-97.4-33c-22.8,6-28.3,24.1-30.4,35.6c-1.6,8.8-1.8,16.5,2.7,35.8"/>
		<path class="st5" d="M820.4,291c23.7,6.2,25.7,29.3,27.5,56.9c1.8,27.6,33.3,135.3,30.9,171.2c-2.4,35.9-1.1,91.7,6.5,115.8
			c7.6,24.1,21.6,54.8,23.8,80.9"/>
		<path class="st5" d="M554.1,761.3c0,0-20.9-17.7-20.3-35.7c1.6-43.9-1.6-76,1.6-100.3c8-60.9,24.9-73,27.9-100.5
			c2.6-23.1-5-164.8,13-199.7c19.1-36.9,65.2-41.5,97.4-33c22.8,6,47.4,21.8,51.6,35.6c2.6,8.6,8.6,16.5,4.2,35.8"/>
		<path class="st5" d="M622.9,291c-23.7,6.2-25.7,29.3-27.5,56.9c-1.8,27.6-33.3,135.3-30.9,171.2c2.4,35.9,1.1,91.7-6.5,115.8
			c-7.6,24.1-21.6,54.8-23.8,80.9"/>
		<path class="st5" d="M769.6,292.1c0,0-23.1-47.7-24.2-62.9c-1.1-15.2,13.1-41.3,23.2-68.4c5.7-15.3,5-30.2,3.3-40.3
			c-1.3-7.6-6.4-14-13.5-16.9l-4.6-1.9"/>
		<line class="st5" x1="745.4" y1="225.8" x2="751.2" y2="301.4"/>
		<path class="st5" d="M672.3,291.3c0,0,23.1-46.8,24.2-62c1.1-15.2-13.1-41.3-23.2-68.4c-6.5-17.4-4.7-34.3-2.5-44.1
			c1.2-5.4,4.3-10.1,8.7-13.3l4.8-3.5"/>
		<line class="st5" x1="696.5" y1="225.8" x2="690.7" y2="298"/>
		<path class="st5" d="M725.3,411.7c0,0-3.9,223.5,0.4,234.6c4.3,11.1,78.3,67.9,82.1,115c8.8,108-27.9,228.6-29.6,234.1
			c-6.6,21.4,19,145.2,13.3,195.2s-26.4,117.2-29.7,141.5c-3.2,24.3-5.6,54.3-5.6,54.3"/>
		<path class="st5" d="M754.3,676.9c13,13.8,18.6,46.7,16.4,84.3c-2.1,37.6,8.4,197.7,2.4,249.2c-6,51.5-18.1,154.4-14.2,193
			c3.9,38.6,7.1,90.2,2.9,128.7"/>
		<path class="st5" d="M724.1,642.9c-4.3,11.1-86.7,71.3-90.5,118.4c-8.8,108,27.9,228.6,29.6,234.1c6.6,21.4-19,145.2-13.3,195.2
			s26.4,117.2,29.7,141.5c3.2,24.3,5.6,54.3,5.6,54.3"/>
		<path class="st5" d="M687.5,679c-13,13.8-19,44.6-16.9,82.2c2.1,37.6-8.4,197.7-2.4,249.2s18.1,154.4,14.2,193
			c-3.9,38.6-7.1,90.2-2.9,128.7"/>
	</g>
	<path class="st6" d="M726.7,340.4c0,0,4.3,6.4,3.8,7.8c-0.4,1.4-3.7,2.6-7.2,11c-2.3,5.8,0.9,11.3-0.6,12.4
		c-1.6,1.1-5.7,7.9-6.9,10.2c-8.9,16.7,4,34.6,13.3,41.2c9.3,6.5,18.4,6.7,24.3,9.3c8.2,3.5,19,5.8,25.3-5.3c0,0,4.1-8.5-1-24.1
		c-2.9-8.9-6.4-15.4-8.1-17.8c-5.5-7.7-11.2-11.2-13.8-12.6c-1.4-0.7-0.8-3.8,2-5c2.8-1.3,6-0.3,6-0.3l1-4c0,0-3.9-1.3-5.8-0.9
		c-1.9,0.3,2.1-4.2,2.3-7.3c0,0-2.7-2.3-4.4-1.7c0,0-1,3.7-3.5,7.7c0,0,1-9.6-5.9-14.6c0,0,1.6-8.1,2.1-8.8c0,0-3.2-1.7-4.5-1.4
		c0,0-1.9,8.1-2.2,8.3c-0.3,0.2-0.9,1.2-1.5,0.2c-0.6-1-0.8-9.6-0.8-9.6l-4.4,0.5c0,0,1.9,9.3,0.7,9.8c-0.4,0.2-0.8,0.8-1.6,0.1
		c-2.1-1.8-4.3-6.9-4.3-7.3C730.9,337.7,726.7,340.4,726.7,340.4z"/>
	<g>
		<circle class="st6" cx="687.9" cy="99.3" r="13.6"/>
		<circle class="st6" cx="708.2" cy="87.7" r="14.7"/>
		<circle class="st6" cx="730.8" cy="86.2" r="16.3"/>
		<circle class="st6" cx="681.6" cy="104.8" r="8.1"/>
		<circle class="st6" cx="761.2" cy="104.8" r="8.1"/>
		<circle class="st6" cx="750.2" cy="93.3" r="11"/>
		<rect x="681.6" y="99.3" class="st6" width="79.6" height="13.6"/>
		<rect x="707.1" y="90.2" class="st6" width="14.3" height="17.6"/>
	</g>
	<g>
		<g>
			<rect x="118.7" y="170.6" class="st7" width="380.7" height="157.1"/>
			<text transform="matrix(1 0 0 1 118.7173 188.1302)"><tspan x="0" y="0" class="st1 st8 st9 st10">Deteriorament cognitiu</tspan><tspan x="0" y="36" class="st1 st8 st9 st10">Ictus</tspan><tspan x="0" y="72" class="st1 st8 st9 st10">Malalties cerebrovasculars</tspan><tspan x="0" y="108" class="st8 st9 st10">Tinnitus o sordesa</tspan></text>
		</g>
		<g>
			<rect x="118.7" y="112.5" class="st7" width="283.7" height="48.4"/>
			<text transform="matrix(1 0 0 1 118.7178 136.6454)" class="st1 st8 st11 st10">Cap</text>
		</g>
		<line class="st12" x1="731.2" y1="90.1" x2="118.7" y2="88.4"/>
		<g>
			<rect x="118.7" y="824" class="st7" width="538.6" height="114.3"/>
			<text transform="matrix(1 0 0 1 118.7173 841.5831)"><tspan x="0" y="0" class="st1 st8 st9 st10">Molèsties, estrès </tspan><tspan x="0" y="36" class="st1 st8 st9 st10">Trastorn del son</tspan><tspan x="0" y="72" class="st1 st8 st9 st10">Augment de la mortalitat</tspan></text>
		</g>
		<g>
			<rect x="118.7" y="766" class="st7" width="283.7" height="57.7"/>
			<text transform="matrix(1 0 0 1 118.7168 790.0988)" class="st1 st8 st11 st10">General / Altres           </text>
		</g>
		<line class="st12" x1="614.9" y1="743.6" x2="118.7" y2="741.9"/>
		<circle class="st6" cx="107.4" cy="871" r="5.5"/>
		<circle class="st6" cx="107.4" cy="907.2" r="5.5"/>
		<circle class="st6" cx="107.4" cy="833.6" r="5.5"/>
		<circle class="st6" cx="107.4" cy="216.8" r="5.5"/>
		<circle class="st6" cx="107.4" cy="180.1" r="5.5"/>
		<circle class="st6" cx="107.4" cy="288.3" r="5.5"/>
		<circle class="st6" cx="107.4" cy="253.2" r="5.5"/>
		<circle class="st6" cx="1334.9" cy="1162.4" r="5.5"/>
		<circle class="st6" cx="1334.9" cy="528.5" r="5.5"/>
		<circle class="st6" cx="1334.6" cy="563.5" r="5.5"/>
		<g>
			<rect x="965.4" y="517" class="st7" width="357.8" height="151.9"/>
			<text transform="matrix(1 0 0 1 1129.5334 534.5348)"><tspan x="0" y="0" class="st1 st8 st9 st10">Infart de miocardi</tspan><tspan x="-83.8" y="36" class="st1 st8 st9 st10">Malalties cardiovasculars</tspan></text>
		</g>
		<g>
			<rect x="938" y="458.2" class="st7" width="385.2" height="54.9"/>
			<text transform="matrix(1 0 0 1 1256.4729 482.3558)" class="st1 st8 st11 st10">Cor</text>
		</g>
		<polyline class="st12" points="1323.3,435.8 960.5,434.5 759.7,393 		"/>
		<g>
			<rect x="964.5" y="1151.1" class="st7" width="357.8" height="133.5"/>
			<text transform="matrix(1 0 0 1 1192.3262 1168.6525)" class="st1 st8 st9 st10">Hipertensió</text>
		</g>
		<g>
			<rect x="937.1" y="1092.7" class="st7" width="385.2" height="59.8"/>
			<text transform="matrix(1 0 0 1 1189.7959 1116.8124)" class="st1 st8 st11 st10">Artèries</text>
		</g>
		<line class="st12" x1="1322.4" y1="1068.9" x2="782.7" y2="1067.2"/>
	</g>
</g>
</svg>
