<?xml version="1.0" encoding="utf-8"?>
<!-- Generator: Adobe Illustrator 21.1.0, SVG Export Plug-In . SVG Version: 6.00 Build 0)  -->
<svg version="1.1" id="Capa_1" xmlns="http://www.w3.org/2000/svg" xmlns:xlink="http://www.w3.org/1999/xlink" x="0px" y="0px"
	 viewBox="0 0 1440 1451.3" style="enable-background:new 0 0 1440 1451.3;" xml:space="preserve">
<style type="text/css">
	.st0{fill:#F4F4F4;}
	.st1{fill:#181716;}
	.st2{fill:#C3E4F9;}
	.st3{fill:#FBE2E0;}
	.st4{fill:#75C6F0;}
	.st5{fill:none;stroke:#34B7EB;stroke-width:6.0014;stroke-miterlimit:10;}
	.st6{fill:#34B7EB;}
	.st7{fill:none;}
	.st8{font-family:'Platform'; font-weight: 300; letter-spacing: 1px;}
	.st9{font-size:24.0054px;}
	.st10{letter-spacing:1;}
	.st11{font-size:33.0075px;}
	.st12{fill:none;stroke:#181716;stroke-width:1.5003;stroke-miterlimit:10;}
@font-face {
  font-family: 'Platform';
  src: url('../fonts/Platform-Regular.eot');
  src: url('../fonts/Platform-Regular.eot?#iefix') format('embedded-opentype'),
  url('../fonts/Platform-Regular.woff') format('woff'),
  url('../fonts/Platform-Regular.ttf') format('truetype'),
  url('../fonts/Platform-Regular.otf') format('opentype'),
  url('../fonts/Platform-Regular.svg#Platform-Regular') format('svg');
  font-weight: 300;
  font-style: normal;
}
</style>
<g id="bg">
	<rect y="0" class="st0" width="1440" height="1452.7"/>
	<rect y="1245.3" class="st1" width="1440" height="207.3"/>
</g>
<g id="Cos">
	<g>
		<g>
			<path class="st2" d="M722,56.8c-0.4,0-0.7,0-1,0c-0.3,0-0.7,0-1,0c-44.9-0.4-62.4,35.1-59.8,80.4c2.5,44.3,19.6,91.2,60.6,92.1v0
				c0.1,0,0.2,0,0.3,0c0.1,0,0.2,0,0.3,0v0c41-0.9,58.1-47.8,60.6-92.1C784.4,91.9,766.9,56.4,722,56.8z"/>
			<g>
				
					<ellipse transform="matrix(0.1335 -0.9911 0.9911 0.1335 522.5557 906.4671)" class="st2" cx="779.6" cy="154.4" rx="23.8" ry="8"/>
				
					<ellipse transform="matrix(0.9911 -0.1335 0.1335 0.9911 -14.6845 89.7689)" class="st2" cx="662.2" cy="154.4" rx="8" ry="23.8"/>
			</g>
			<rect x="685.8" y="197" class="st2" width="70.1" height="73.1"/>
			<g>
				<path class="st2" d="M733.8,303.1l-48.1-73.8v0c0,20.9-16.9,37.8-37.8,37.8h0L733.8,303.1z"/>
				<path class="st2" d="M708.1,303.1l48.1-73.8v0c0,20.9,16.9,37.8,37.8,37.8h0L708.1,303.1z"/>
			</g>
		</g>
		<g>
			<rect x="631.3" y="266.8" class="st2" width="178.7" height="281.4"/>
			<path class="st2" d="M603.9,305.3h233.4v86.2c0,35.4-28.7,64-64,64H668c-35.4,0-64-28.7-64-64V305.3z"/>
			<path class="st2" d="M558.1,388.6h325.1v-59.3c0-34.5-28-62.4-62.4-62.4H620.5c-34.5,0-62.4,28-62.4,62.4V388.6z"/>
			<path class="st2" d="M810,548.2h-89.4v196.1h127.1c0,0,0-24.5,0-74.5C847.7,621.9,810,548.2,810,548.2z"/>
			<path class="st2" d="M631.3,548.2h89.4v196.1H593.6c0,0,0-24.5,0-74.5C593.6,621.9,631.3,548.2,631.3,548.2z"/>
			<g>
				<path class="st2" d="M806,995.4c0,19.3-77.1,0-77.1,0v-251c0,0,118.8-29.7,118.8,0C847.7,851.1,806,966.3,806,995.4z"/>
				<path class="st2" d="M784.8,1310.2h-41l-14.9-314.8h76.9c0,0,6.4,92.3,6.4,123.2C812.1,1205.2,784.8,1310.2,784.8,1310.2z"/>
				<path class="st2" d="M792.6,1405.2c-0.1,2.3-2.4,6-4.9,9.3c-3.8,5-9.7,7.8-15.9,7.8H742c-7,0-12.4-6.1-11.4-13.1l13.1-99h41
					C784.7,1310.2,793.7,1376,792.6,1405.2z"/>
			</g>
			<g>
				<path class="st2" d="M635.3,995.4c0,19.3,77.1,0,77.1,0v-251c0,0-118.8-29.7-118.8,0C593.6,851.1,635.3,966.3,635.3,995.4z"/>
				<path class="st2" d="M656.4,1310.2h41l14.9-314.8h-76.9c0,0-6.4,92.3-6.4,123.2C629.1,1205.2,656.4,1310.2,656.4,1310.2z"/>
				<path class="st2" d="M648.6,1405.2c0.1,2.3,2.4,6,4.9,9.3c3.8,5,9.7,7.8,15.9,7.8h29.7c7,0,12.4-6.1,11.4-13.1l-13.1-99h-41
					C656.5,1310.2,647.6,1376,648.6,1405.2z"/>
			</g>
			<polygon class="st2" points="903.6,537.8 857.7,543.2 829.9,325.8 883,319.6 			"/>
			<path class="st2" d="M918.4,722.5l-27,3.1l-33.7-182.5c0,0,42.4-39.8,43.8-27.7c2.5,21.5,8.9,43.4,12.1,73.1
				C917.2,621.9,918.4,722.5,918.4,722.5z"/>
			<path class="st2" d="M918.4,722.5v41.4c0,8.9-2.7,17.6-7.9,24.9l-32.9,46.8c-2.7,3.9-8,4.9-11.9,2.3l0,0c-3.7-2.4-5-7.1-3.1-11.1
				l20.4-42.3l-2.8-15.3l-14.6,28.8c-0.7,1.3-2.2,2-3.7,1.6l0,0c-1.5-0.4-2.5-1.9-2.3-3.4l3.1-27.7c0.8-7.2,3.3-14.1,7.4-20.1
				l21.2-22.9L918.4,722.5z"/>
			<g>
				<polygon class="st2" points="538.2,537.8 584.1,543.2 612,325.8 558.8,319.6 				"/>
				<path class="st2" d="M523.4,722.5l27,3.1l33.7-182.5c0,0-42.4-39.8-43.8-27.7c-2.5,21.5-8.9,43.4-12.1,73.1
					C524.6,621.9,523.4,722.5,523.4,722.5z"/>
				<path class="st2" d="M523.4,722.5v41.4c0,8.9,2.7,17.6,7.9,24.9l32.9,46.8c2.7,3.9,8,4.9,11.9,2.3l0,0c3.7-2.4,5-7.1,3.1-11.1
					l-20.4-42.3l2.8-15.3l14.6,28.8c0.7,1.3,2.2,2,3.7,1.6l0,0c1.5-0.4,2.5-1.9,2.3-3.4l-3.1-27.7c-0.8-7.2-3.3-14.1-7.4-20.1
					l-21.2-22.9L523.4,722.5z"/>
			</g>
		</g>
	</g>
	<g>
		<g>
			<path class="st3" d="M738.4,273.5L738.4,273.5c3.9-2.5,8.4-3.9,13.1-3.9h6.3c7.9,0.5,12.9,3.1,16,7.1
				c21.4,27.7,48.6,65,55.8,114.3c1.7,11.9-15.2,35.7-19.8,39.1c-55.8,41.5-87.2-27.9-87.2-27.9l5-109.7
				C727.9,284.8,732,277.7,738.4,273.5z"/>
			<circle class="st3" cx="775" cy="396.2" r="54.6"/>
		</g>
		<g>
			<path class="st3" d="M704.2,273.5L704.2,273.5c-3.9-2.5-8.4-3.9-13.1-3.9h-6.3c-7.9,0.5-12.9,3.1-16,7.1
				c-21.4,27.7-48.6,65-55.8,114.3c-1.7,11.9,15.2,35.7,19.8,39.1c55.8,41.5,87.2-27.9,87.2-27.9l17.6-99L715,292.5
				C714.7,284.8,710.6,277.7,704.2,273.5z"/>
			<circle class="st3" cx="667.6" cy="396.2" r="54.6"/>
		</g>
	</g>
	<path class="st4" d="M720.9,715.9L720.9,715.9c-30.3,0-54.9-24.6-54.9-54.9v-61.7c0-30.3,24.6-54.9,54.9-54.9h0
		c30.3,0,54.9,24.6,54.9,54.9V661C775.8,691.3,751.2,715.9,720.9,715.9z"/>
	<g>
		<g>
			<g>
				<circle class="st4" cx="688.5" cy="394.9" r="22.4"/>
				<circle class="st4" cx="658.7" cy="405.7" r="24.4"/>
				<circle class="st4" cx="697.4" cy="330" r="13.5"/>
				<rect x="681.1" y="330" class="st4" width="29.9" height="61"/>
				<path class="st4" d="M635.2,399.1c13.2-52.4,53.6-79.5,53.6-79.5l5.4,70.4C694.3,389.9,631.6,413.6,635.2,399.1z"/>
			</g>
			<g>
				<circle class="st4" cx="754.1" cy="394.9" r="22.4"/>
				<circle class="st4" cx="783.9" cy="405.7" r="24.4"/>
				<circle class="st4" cx="745.2" cy="330" r="13.5"/>
				
					<rect x="731.6" y="330" transform="matrix(-1 4.449939e-11 -4.449939e-11 -1 1493.1774 721.0002)" class="st4" width="29.9" height="61"/>
				<path class="st4" d="M807.4,399.1c-13.2-52.4-53.6-79.5-53.6-79.5l-5.4,70.4C748.3,389.9,811.1,413.6,807.4,399.1z"/>
			</g>
		</g>
		<rect x="713.8" y="269.1" class="st4" width="14.9" height="56.1"/>
		<g>
			
				<rect x="731.5" y="313.6" transform="matrix(0.7071 -0.7071 0.7071 0.7071 -25.153 622.5807)" class="st4" width="14.9" height="56.1"/>
			
				<rect x="696.2" y="313.6" transform="matrix(-0.7071 -0.7071 0.7071 -0.7071 959.6585 1080.809)" class="st4" width="14.9" height="56.1"/>
		</g>
	</g>
	<g>
		<path class="st5" d="M889,761.3c0,0,20.9-17.7,20.3-35.7c-1.6-43.9,1.6-76-1.6-100.3c-8-60.9-24.9-73-27.9-100.5
			c-2.6-23.1,5-164.8-13-199.7c-19.1-36.9-65.2-41.5-97.4-33c-22.8,6-28.3,24.1-30.4,35.6c-1.6,8.8-1.8,16.5,2.7,35.8"/>
		<path class="st5" d="M820.2,291c23.7,6.2,25.7,29.3,27.5,56.9c1.8,27.6,33.3,135.3,30.9,171.2c-2.4,35.9-1.1,91.7,6.5,115.8
			c7.6,24.1,21.6,54.8,23.8,80.9"/>
		<path class="st5" d="M553.9,761.3c0,0-20.9-17.7-20.3-35.7c1.6-43.9-1.6-76,1.6-100.3c8-60.9,24.9-73,27.9-100.5
			c2.6-23.1-5-164.8,13-199.7c19.1-36.9,65.2-41.5,97.4-33c22.8,6,47.4,21.8,51.6,35.6c2.6,8.6,8.6,16.5,4.2,35.8"/>
		<path class="st5" d="M622.7,291c-23.7,6.2-25.7,29.3-27.5,56.9c-1.8,27.6-33.3,135.3-30.9,171.2c2.4,35.9,1.1,91.7-6.5,115.8
			c-7.6,24.1-21.6,54.8-23.8,80.9"/>
		<path class="st5" d="M769.4,292.2c0,0-23.1-47.7-24.2-62.9c-1.1-15.2,13.1-41.3,23.2-68.4c5.7-15.3,5-30.2,3.3-40.3
			c-1.3-7.6-6.4-14-13.5-16.9l-4.6-1.9"/>
		<line class="st5" x1="745.2" y1="225.9" x2="751" y2="301.5"/>
		<path class="st5" d="M672.1,291.3c0,0,23.1-46.8,24.2-62s-13.1-41.3-23.2-68.4c-6.5-17.4-4.7-34.3-2.5-44.1
			c1.2-5.4,4.3-10.1,8.7-13.3l4.8-3.5"/>
		<line class="st5" x1="696.3" y1="225.9" x2="690.5" y2="298.1"/>
		<path class="st5" d="M725,411.7c0,0-3.9,223.5,0.4,234.6c4.3,11.1,78.3,67.9,82.1,115c8.8,108-27.9,228.6-29.6,234.1
			c-6.6,21.4,19,145.2,13.3,195.2s-26.4,117.2-29.7,141.5c-3.2,24.3-5.6,54.3-5.6,54.3"/>
		<path class="st5" d="M754.1,676.9c13,13.8,18.6,46.7,16.4,84.3c-2.1,37.6,8.4,197.7,2.4,249.2c-6,51.5-18.1,154.4-14.2,193
			c3.9,38.6,7.1,90.2,2.9,128.7"/>
		<path class="st5" d="M723.9,642.9c-4.3,11.1-86.7,71.3-90.5,118.4c-8.8,108,27.9,228.6,29.6,234.1c6.6,21.4-19,145.2-13.3,195.2
			s26.4,117.2,29.7,141.5c3.2,24.3,5.6,54.3,5.6,54.3"/>
		<path class="st5" d="M687.3,679.1c-13,13.8-19,44.6-16.9,82.2c2.1,37.6-8.4,197.7-2.4,249.2c6,51.5,18.1,154.4,14.2,193
			c-3.9,38.6-7.1,90.2-2.9,128.7"/>
	</g>
	<path class="st6" d="M726.4,340.5c0,0,4.3,6.4,3.8,7.8c-0.4,1.4-3.7,2.6-7.2,11c-2.3,5.8,0.9,11.3-0.6,12.4
		c-1.6,1.1-5.7,7.9-6.9,10.2c-8.9,16.7,4,34.6,13.3,41.2c9.3,6.5,18.4,6.7,24.3,9.3c8.2,3.5,19,5.8,25.3-5.3c0,0,4.1-8.5-1-24.1
		c-2.9-8.9-6.4-15.4-8.1-17.8c-5.5-7.7-11.2-11.2-13.8-12.6c-1.4-0.7-0.8-3.8,2-5c2.8-1.3,6-0.3,6-0.3l1-4c0,0-3.9-1.3-5.8-0.9
		c-1.9,0.3,2.1-4.2,2.3-7.3c0,0-2.7-2.3-4.4-1.7c0,0-1,3.7-3.5,7.7c0,0,1-9.6-5.9-14.6c0,0,1.6-8.1,2.1-8.8c0,0-3.2-1.7-4.5-1.4
		c0,0-1.9,8.1-2.2,8.3c-0.3,0.2-0.9,1.2-1.5,0.2c-0.6-1-0.8-9.6-0.8-9.6l-4.4,0.5c0,0,1.9,9.3,0.7,9.8c-0.4,0.2-0.8,0.8-1.6,0.1
		c-2.1-1.8-4.3-6.9-4.3-7.3C730.6,337.7,726.4,340.5,726.4,340.5z"/>
	<g>
		<circle class="st6" cx="687.6" cy="99.3" r="13.6"/>
		<circle class="st6" cx="707.9" cy="87.7" r="14.7"/>
		<circle class="st6" cx="730.5" cy="86.3" r="16.3"/>
		<circle class="st6" cx="681.4" cy="104.8" r="8.1"/>
		<circle class="st6" cx="760.9" cy="104.8" r="8.1"/>
		<circle class="st6" cx="749.9" cy="93.3" r="11"/>
		<rect x="681.4" y="99.3" class="st6" width="79.6" height="13.6"/>
		<rect x="706.9" y="90.3" class="st6" width="14.3" height="17.6"/>
	</g>
	<g>
		<rect x="118.5" y="170.6" class="st7" width="380.7" height="298.9"/>
		<text transform="matrix(1 0 0 1 118.4758 188.1605)"><tspan x="0" y="0" class="st1 st8 st9 st10">Dementia</tspan><tspan x="0" y="36" class="st1 st8 st9 st10">Neurodegenerative</tspan><tspan x="0" y="62" class="st1 st8 st9 st10">diseases </tspan><tspan x="0" y="98" class="st1 st8 st9 st10">Mental health problems</tspan><tspan x="0" y="134" class="st1 st8 st9 st10">Autism and child behaviour </tspan><tspan x="0" y="160" class="st1 st8 st9 st10">problems</tspan><tspan x="0" y="196" class="st1 st8 st9 st10">Stroke</tspan></text>
	</g>
	<g>
		<rect x="118.5" y="112.5" class="st7" width="283.7" height="41.9"/>
		<text transform="matrix(1 0 0 1 118.4753 136.6756)" class="st1 st8 st11 st10">Head</text>
	</g>
	<line class="st12" x1="730.9" y1="90.2" x2="118.5" y2="88.5"/>
	<g>
		<rect x="961.2" y="840.6" class="st7" width="360.9" height="195.4"/>
		<text transform="matrix(1 0 0 1 1154.3723 858.1771)"><tspan x="0" y="0" class="st1 st8 st9 st10">Premature birth </tspan><tspan x="-99.1" y="36" class="st1 st8 st9 st10">Reduced weight at birth </tspan><tspan x="35.7" y="72" class="st1 st8 st9 st10">Preclampsia</tspan><tspan x="-125" y="108" class="st1 st8 st9 st10">Reduction in sperm quality</tspan></text>
	</g>
	<g>
		<rect x="955.4" y="745" class="st7" width="366.7" height="123.5"/>
		<text transform="matrix(1 0 0 1 993.2307 769.1276)"><tspan x="0" y="0" class="st1 st8 st11">Reproductive system </tspan><tspan x="178.7" y="37.5" class="st1 st8 st11">and fetus     </tspan></text>
	</g>
	<g>
		<rect x="118.5" y="824.1" class="st7" width="538.6" height="114.3"/>
		<text transform="matrix(1 0 0 1 118.4758 841.6134)"><tspan x="0" y="0" class="st1 st8 st9 st10">Diabetes</tspan><tspan x="0" y="36" class="st1 st8 st9 st10">Systemic inflammation</tspan><tspan x="0" y="72" class="st1 st8 st9 st10">Increase in mortality</tspan></text>
	</g>
	<g>
		<rect x="118.5" y="766" class="st7" width="283.7" height="57.7"/>
		<text transform="matrix(1 0 0 1 118.4753 790.129)" class="st1 st8 st11 st10">GENERAL/OTHERS</text>
	</g>
	<line class="st12" x1="614.7" y1="743.6" x2="118.5" y2="741.9"/>
	<circle class="st6" cx="107.1" cy="871" r="5.5"/>
	<circle class="st6" cx="107.1" cy="907.3" r="5.5"/>
	<circle class="st6" cx="107.1" cy="833.6" r="5.5"/>
	<circle class="st6" cx="1334.7" cy="850.5" r="5.5"/>
	<circle class="st6" cx="1334.7" cy="888.1" r="5.5"/>
	<circle class="st6" cx="1334.7" cy="958" r="5.5"/>
	<circle class="st6" cx="1334.7" cy="924.2" r="5.5"/>
	<circle class="st6" cx="107.1" cy="372.4" r="5.5"/>
	<circle class="st6" cx="107.1" cy="216.8" r="5.5"/>
	<circle class="st6" cx="107.1" cy="180.2" r="5.5"/>
	<circle class="st6" cx="107.1" cy="313" r="5.5"/>
	<circle class="st6" cx="107.1" cy="276.3" r="5.5"/>
	<circle class="st6" cx="1334.7" cy="182.8" r="5.5"/>
	<circle class="st6" cx="1334.7" cy="243" r="5.5"/>
	<circle class="st6" cx="1334.7" cy="278.8" r="5.5"/>
	<circle class="st6" cx="1334.7" cy="314.6" r="5.5"/>
	<circle class="st6" cx="1334.7" cy="350.7" r="5.5"/>
	<circle class="st6" cx="1334.7" cy="1162.5" r="5.5"/>
	<g>
		<rect x="964.3" y="171.4" class="st7" width="357.8" height="214.7"/>
		<text transform="matrix(1 0 0 1 980.6956 188.9862)"><tspan x="0" y="0" class="st1 st8 st9 st10">Chronic Obstructive Pulmonary </tspan><tspan x="173.1" y="26" class="st1 st8 st9 st10">Disease (COPD) </tspan><tspan x="261.1" y="62" class="st1 st8 st9 st10">Asthma</tspan><tspan x="110.4" y="98" class="st1 st8 st9 st10">Respiratory diseases </tspan><tspan x="222.3" y="134" class="st1 st8 st9 st10">Pneumonia</tspan><tspan x="211.3" y="170" class="st1 st8 st9 st10">Lung cancer</tspan></text>
	</g>
	<g>
		<rect x="936.9" y="113.5" class="st7" width="385.2" height="138.5"/>
		<text transform="matrix(1 0 0 1 1019.3372 137.6129)" class="st1 st8 st11 st10">Respiratory tract</text>
	</g>
	<polyline class="st12" points="1322.1,91.1 959.3,89.6 779.6,361.6 	"/>
	<circle class="st6" cx="1334.7" cy="528.6" r="5.5"/>
	<circle class="st6" cx="1334.4" cy="563.6" r="5.5"/>
	<circle class="st6" cx="1334.4" cy="599.5" r="5.5"/>
	<circle class="st6" cx="1334.4" cy="635.4" r="5.5"/>
	<g>
		<rect x="965.2" y="517" class="st7" width="357.8" height="151.9"/>
		<text transform="matrix(1 0 0 1 1088.6514 534.5651)"><tspan x="0" y="0" class="st1 st8 st9 st10">Myocardial infarction</tspan><tspan x="115.6" y="36" class="st1 st8 st9 st10">Arrhythmia</tspan><tspan x="-30.5" y="72" class="st1 st8 st9 st10">Heart congestive failure</tspan><tspan x="-32.9" y="108" class="st1 st8 st9 st10">Cardiovascular diseases</tspan></text>
	</g>
	<g>
		<rect x="937.8" y="458.3" class="st7" width="385.2" height="321.3"/>
		<text transform="matrix(1 0 0 1 1228.9004 482.3861)" class="st1 st8 st11 st10">Heart</text>
	</g>
	<polyline class="st12" points="1323,435.9 960.3,434.5 759.5,393.1 	"/>
	<g>
		<rect x="964.3" y="1151.1" class="st7" width="357.8" height="133.5"/>
		<text transform="matrix(1 0 0 1 1046.615 1168.6827)" class="st1 st8 st9 st10">Deep venous thrombosis</text>
	</g>
	<g>
		<rect x="936.9" y="1092.7" class="st7" width="385.2" height="59.8"/>
		<text transform="matrix(1 0 0 1 1189.5544 1116.8424)" class="st1 st8 st11 st10">Arteries</text>
	</g>
	<line class="st12" x1="1322.1" y1="1068.9" x2="777.9" y2="1067.2"/>
	<polyline class="st12" points="754.1,602.1 936.5,722.1 1322.1,720.9 	"/>
</g>
</svg>
