<?xml version="1.0" encoding="utf-8"?>
<!-- Generator: Adobe Illustrator 19.0.0, SVG Export Plug-In . SVG Version: 6.00 Build 0)  -->
<svg version="1.1" id="Capa_1" xmlns="http://www.w3.org/2000/svg" xmlns:xlink="http://www.w3.org/1999/xlink" x="0px" y="0px"
	 viewBox="570 -225.3 1440 1451.3" style="enable-background:new 570 -225.3 1440 1451.3;" xml:space="preserve">
<style type="text/css">
	.st0{fill:#F4F4F4;}
	.st1{fill:#181716;}
	.st2{fill:#6E6E6D;}
	.st3{fill:#9B9B9B;}
	.st4{fill:none;stroke:#181716;stroke-width:6.0014;stroke-miterlimit:10;}
	.st5{fill:none;}
	.st6{font-family:'PlatformWeb-Regular';}
	.st7{font-size:33.0075px;}
	.st8{fill:none;stroke:#181716;stroke-width:1.5003;stroke-miterlimit:10;}
	.st9{font-size:24.0054px;}
	.st10{fill:#004F9F;}
	.st11{fill:#BB94C2;}
	.st12{fill:#F29700;}
	.st13{fill:#34B7EB;}
	.st14{fill:#3AA336;}
</style>
<g id="bg">
	<rect x="570" y="-226" class="st0" width="1440" height="1452.7"/>
	<rect x="570" y="1019.3" class="st1" width="1440" height="207.3"/>
</g>
<g id="cos">
	<g>
		<g>
			<g>
				<path class="st2" d="M1292.6-169c-0.4,0-0.7,0-1,0s-0.7,0-1,0c-44.9-0.4-62.4,35.1-59.8,80.4c2.5,44.3,19.6,91.2,60.6,92.1l0,0
					c0.1,0,0.2,0,0.3,0s0.2,0,0.3,0l0,0c41-0.9,58.1-47.8,60.6-92.1C1355-133.9,1337.5-169.4,1292.6-169z"/>
				<g>
					
						<ellipse transform="matrix(0.991 0.1335 -0.1335 0.991 2.5396 -180.9094)" class="st2" cx="1350.3" cy="-71.5" rx="8" ry="23.8"/>
					
						<ellipse transform="matrix(0.1335 0.991 -0.991 0.1335 997.5612 -1283.7325)" class="st2" cx="1232.9" cy="-71.4" rx="23.8" ry="8"/>
				</g>
				<rect x="1256.5" y="-28.7" class="st2" width="70.1" height="73.1"/>
				<g>
					<path class="st2" d="M1304.4,77.4l-48.1-73.8l0,0c0,20.9-16.9,37.8-37.8,37.8l0,0L1304.4,77.4z"/>
					<path class="st2" d="M1278.7,77.4l48.1-73.8l0,0c0,20.9,16.9,37.8,37.8,37.8l0,0L1278.7,77.4z"/>
				</g>
			</g>
			<g>
				<rect x="1201.9" y="41" class="st2" width="178.7" height="281.4"/>
				<path class="st2" d="M1174.5,79.5h233.4v86.2c0,35.4-28.7,64-64,64h-105.3c-35.4,0-64-28.7-64-64L1174.5,79.5L1174.5,79.5z"/>
				<path class="st2" d="M1128.7,162.8h325.1v-59.3c0-34.5-28-62.4-62.4-62.4h-200.3c-34.5,0-62.4,28-62.4,62.4V162.8L1128.7,162.8z
					"/>
				<path class="st2" d="M1380.6,322.5h-89.4v196.1h127.1c0,0,0-24.5,0-74.5C1418.3,396.1,1380.6,322.5,1380.6,322.5z"/>
				<path class="st2" d="M1201.9,322.5h89.4v196.1h-127.1c0,0,0-24.5,0-74.5C1164.2,396.1,1201.9,322.5,1201.9,322.5z"/>
				<g>
					<path class="st2" d="M1376.6,769.6c0,19.3-77.1,0-77.1,0v-251c0,0,118.8-29.7,118.8,0C1418.3,625.3,1376.6,740.5,1376.6,769.6z
						"/>
					<path class="st2" d="M1355.4,1084.4h-41l-14.9-314.8h76.9c0,0,6.4,92.3,6.4,123.2C1382.8,979.4,1355.4,1084.4,1355.4,1084.4z"
						/>
					<path class="st2" d="M1363.2,1179.4c-0.1,2.3-2.4,6-4.9,9.3c-3.8,5-9.7,7.8-15.9,7.8h-29.7c-7,0-12.4-6.1-11.4-13.1l13.1-99h41
						C1355.3,1084.4,1364.3,1150.2,1363.2,1179.4z"/>
				</g>
				<g>
					<path class="st2" d="M1205.9,769.6c0,19.3,77.1,0,77.1,0v-251c0,0-118.8-29.7-118.8,0C1164.2,625.3,1205.9,740.5,1205.9,769.6z
						"/>
					<path class="st2" d="M1227.1,1084.4h41l14.9-314.8h-76.9c0,0-6.4,92.3-6.4,123.2C1199.7,979.4,1227.1,1084.4,1227.1,1084.4z"/>
					<path class="st2" d="M1219.2,1179.4c0.1,2.3,2.4,6,4.9,9.3c3.8,5,9.7,7.8,15.9,7.8h29.7c7,0,12.4-6.1,11.4-13.1l-13.1-99h-41
						C1227.1,1084.4,1218.2,1150.2,1219.2,1179.4z"/>
				</g>
				<polygon class="st2" points="1474.2,312.1 1428.3,317.4 1400.5,100 1453.6,93.9 				"/>
				<path class="st2" d="M1489,496.7l-27,3.1l-33.7-182.5c0,0,42.4-39.8,43.8-27.7c2.5,21.5,8.9,43.4,12.1,73.1
					C1487.8,396.1,1489,496.7,1489,496.7z"/>
				<path class="st2" d="M1489,496.7v41.4c0,8.9-2.7,17.6-7.9,24.9l-32.9,46.8c-2.7,3.9-8,4.9-11.9,2.3l0,0c-3.7-2.4-5-7.1-3.1-11.1
					l20.4-42.3l-2.8-15.3l-14.6,28.8c-0.7,1.3-2.2,2-3.7,1.6l0,0c-1.5-0.4-2.5-1.9-2.3-3.4l3.1-27.7c0.8-7.2,3.3-14.1,7.4-20.1
					l21.2-22.9L1489,496.7z"/>
				<g>
					<polygon class="st2" points="1108.8,312.1 1154.7,317.4 1182.6,100 1129.4,93.9 					"/>
					<path class="st2" d="M1094,496.7l27,3.1l33.7-182.5c0,0-42.4-39.8-43.8-27.7c-2.5,21.5-8.9,43.4-12.1,73.1
						C1095.2,396.1,1094,496.7,1094,496.7z"/>
					<path class="st2" d="M1094,496.7v41.4c0,8.9,2.7,17.6,7.9,24.9l32.9,46.8c2.7,3.9,8,4.9,11.9,2.3l0,0c3.7-2.4,5-7.1,3.1-11.1
						l-20.4-42.3l2.8-15.3l14.6,28.8c0.7,1.3,2.2,2,3.7,1.6l0,0c1.5-0.4,2.5-1.9,2.3-3.4l-3.1-27.7c-0.8-7.2-3.3-14.1-7.4-20.1
						l-21.3-22.7L1094,496.7z"/>
				</g>
			</g>
		</g>
		<g>
			<g>
				<path class="st3" d="M1309.1,47.7L1309.1,47.7c3.9-2.5,8.4-3.9,13.1-3.9h6.3c7.9,0.5,12.9,3.1,16,7.1
					c21.4,27.7,48.6,65,55.8,114.3c1.7,11.9-15.2,35.7-19.8,39.1c-55.8,41.5-87.2-27.9-87.2-27.9l5-109.7
					C1298.5,59,1302.6,51.9,1309.1,47.7z"/>
				<circle class="st3" cx="1345.6" cy="170.5" r="54.6"/>
			</g>
			<g>
				<path class="st3" d="M1274.8,47.7L1274.8,47.7c-3.9-2.5-8.4-3.9-13.1-3.9h-6.3c-7.9,0.5-12.9,3.1-16,7.1
					c-21.4,27.7-48.6,65-55.8,114.3c-1.7,11.9,15.2,35.7,19.8,39.1c55.8,41.5,87.2-27.9,87.2-27.9l17.6-99l-22.5-10.6
					C1285.3,59,1281.3,51.9,1274.8,47.7z"/>
				<circle class="st3" cx="1238.2" cy="170.5" r="54.6"/>
			</g>
		</g>
		<path class="st3" d="M1291.5,490.1L1291.5,490.1c-30.3,0-54.9-24.6-54.9-54.9v-61.7c0-30.3,24.6-54.9,54.9-54.9l0,0
			c30.3,0,54.9,24.6,54.9,54.9v61.7C1346.4,465.6,1321.8,490.1,1291.5,490.1z"/>
		<g>
			<g>
				<g>
					<circle class="st2" cx="1259.2" cy="169.1" r="22.4"/>
					<circle class="st2" cx="1229.3" cy="179.9" r="24.4"/>
					<circle class="st2" cx="1268" cy="104.2" r="13.5"/>
					<rect x="1251.7" y="104.2" class="st2" width="29.9" height="61"/>
					<path class="st2" d="M1205.8,173.3c13.2-52.4,53.6-79.5,53.6-79.5l5.4,70.4C1264.9,164.1,1202.2,187.8,1205.8,173.3z"/>
				</g>
				<g>
					<circle class="st2" cx="1324.7" cy="169.1" r="22.4"/>
					<circle class="st2" cx="1354.5" cy="179.9" r="24.4"/>
					<circle class="st2" cx="1315.8" cy="104.2" r="13.5"/>
					<rect x="1302.2" y="104.3" class="st2" width="29.9" height="61"/>
					<path class="st2" d="M1378,173.3c-13.2-52.4-53.6-79.5-53.6-79.5l-5.4,70.4C1318.9,164.1,1381.7,187.8,1378,173.3z"/>
				</g>
			</g>
			<rect x="1284.5" y="43.4" class="st2" width="14.9" height="56.1"/>
			<g>
				
					<rect x="1302.1" y="87.8" transform="matrix(-0.7071 0.7071 -0.7071 -0.7071 2317.3875 -728.1888)" class="st2" width="14.9" height="56.1"/>
				
					<rect x="1266.8" y="87.8" transform="matrix(0.7071 0.7071 -0.7071 0.7071 455.165 -867.1118)" class="st2" width="14.9" height="56.1"/>
			</g>
		</g>
		<g>
			<path class="st4" d="M1459.6,535.5c0,0,20.9-17.7,20.3-35.7c-1.6-43.9,1.6-76-1.6-100.3c-8-60.9-24.9-73-27.9-100.5
				c-2.6-23.1,5-164.8-13-199.7c-19.1-36.9-65.2-41.5-97.4-33c-22.8,6-28.3,24.1-30.4,35.6c-1.6,8.8-1.8,16.5,2.7,35.8"/>
			<path class="st4" d="M1390.8,65.2c23.7,6.2,25.7,29.3,27.5,56.9c1.8,27.6,33.3,135.3,30.9,171.2c-2.4,35.9-1.1,91.7,6.5,115.8
				c7.6,24.1,21.6,54.8,23.8,80.9"/>
			<path class="st4" d="M1124.5,535.5c0,0-20.9-17.7-20.3-35.7c1.6-43.9-1.6-76,1.6-100.3c8-60.9,24.9-73,27.9-100.5
				c2.6-23.1-5-164.8,13-199.7c19.1-36.9,65.2-41.5,97.4-33c22.8,6,47.4,21.8,51.6,35.6c2.6,8.6,8.6,16.5,4.2,35.8"/>
			<path class="st4" d="M1193.3,65.2c-23.7,6.2-25.7,29.3-27.5,56.9c-1.8,27.6-33.3,135.3-30.9,171.2c2.4,35.9,1.1,91.7-6.5,115.8
				c-7.6,24.1-21.6,54.8-23.8,80.9"/>
			<path class="st4" d="M1340,66.4c0,0-23.1-47.7-24.2-62.9c-1.1-15.2,13.1-41.3,23.2-68.4c5.7-15.3,5-30.2,3.3-40.3
				c-1.3-7.6-6.4-14-13.5-16.9l-4.6-1.9"/>
			<line class="st4" x1="1315.8" y1="0.1" x2="1321.6" y2="75.7"/>
			<path class="st4" d="M1242.7,65.5c0,0,23.1-46.8,24.2-62s-13.1-41.3-23.2-68.4c-6.5-17.4-4.7-34.3-2.5-44.1
				c1.2-5.4,4.3-10.1,8.7-13.3l4.8-3.5"/>
			<line class="st4" x1="1266.9" y1="0.1" x2="1261.1" y2="72.3"/>
			<path class="st4" d="M1295.6,186c0,0-3.9,223.5,0.4,234.6s78.3,67.9,82.1,115c8.8,108-27.9,228.6-29.6,234.1
				c-6.6,21.4,19,145.2,13.3,195.2c-5.7,50-26.4,117.2-29.7,141.5c-3.2,24.3-5.6,54.3-5.6,54.3"/>
			<path class="st4" d="M1324.7,451.2c13,13.8,18.6,46.7,16.4,84.3c-2.1,37.6,8.4,197.7,2.4,249.2s-18.1,154.4-14.2,193
				c3.9,38.6,7.1,90.2,2.9,128.7"/>
			<path class="st4" d="M1294.5,417.1c-4.3,11.1-86.7,71.3-90.5,118.4c-8.8,108,27.9,228.6,29.6,234.1c6.6,21.4-19,145.2-13.3,195.2
				c5.7,50,26.4,117.2,29.7,141.5c3.2,24.3,5.6,54.3,5.6,54.3"/>
			<path class="st4" d="M1257.9,453.3c-13,13.8-19,44.6-16.9,82.2s-8.4,197.7-2.4,249.2s18.1,154.4,14.2,193
				c-3.9,38.6-7.1,90.2-2.9,128.7"/>
		</g>
		<path class="st1" d="M1297,114.7c0,0,4.3,6.4,3.8,7.8c-0.4,1.4-3.7,2.6-7.2,11c-2.3,5.8,0.9,11.3-0.6,12.4
			c-1.6,1.1-5.7,7.9-6.9,10.2c-8.9,16.7,4,34.6,13.3,41.2c9.3,6.5,18.4,6.7,24.3,9.3c8.2,3.5,19,5.8,25.3-5.3c0,0,4.1-8.5-1-24.1
			c-2.9-8.9-6.4-15.4-8.1-17.8c-5.5-7.7-11.2-11.2-13.8-12.6c-1.4-0.7-0.8-3.8,2-5c2.8-1.3,6-0.3,6-0.3l1-4c0,0-3.9-1.3-5.8-0.9
			c-1.9,0.3,2.1-4.2,2.3-7.3c0,0-2.7-2.3-4.4-1.7c0,0-1,3.7-3.5,7.7c0,0,1-9.6-5.9-14.6c0,0,1.6-8.1,2.1-8.8c0,0-3.2-1.7-4.5-1.4
			c0,0-1.9,8.1-2.2,8.3c-0.3,0.2-0.9,1.2-1.5,0.2c-0.6-1-0.8-9.6-0.8-9.6l-4.4,0.5c0,0,1.9,9.3,0.7,9.8c-0.4,0.2-0.8,0.8-1.6,0.1
			c-2.1-1.8-4.3-6.9-4.3-7.3C1301.2,111.9,1297,114.7,1297,114.7z"/>
		<g>
			<circle class="st3" cx="1258.2" cy="-126.5" r="13.6"/>
			<circle class="st3" cx="1278.5" cy="-138.1" r="14.7"/>
			<circle class="st3" cx="1301.2" cy="-139.5" r="16.3"/>
			<circle class="st3" cx="1252" cy="-121" r="8.1"/>
			<circle class="st3" cx="1331.6" cy="-121" r="8.1"/>
			<circle class="st3" cx="1320.5" cy="-132.5" r="11"/>
			<rect x="1252" y="-126.5" class="st3" width="79.6" height="13.6"/>
			<rect x="1277.5" y="-135.5" class="st3" width="14.3" height="17.6"/>
		</g>
	</g>
	<g>
		<rect x="689.1" y="-113.2" class="st5" width="283.7" height="41.9"/>
		<text transform="matrix(1 0 0 1 689.0916 -89.0995)" class="st1 st6 st7">CAP</text>
	</g>
	<line class="st8" x1="1301.5" y1="-135.6" x2="689.1" y2="-137.3"/>
	<g>
		<rect x="1531.8" y="614.9" class="st5" width="360.9" height="195.4"/>
		<text transform="matrix(1 0 0 1 1677.9757 632.4022)" class="st1 st6 st9">Naixement prematur </text>
		<text transform="matrix(1 0 0 1 1696.1758 668.4022)" class="st1 st6 st9">Pes reduït al néixer  </text>
		<text transform="matrix(1 0 0 1 1742.0746 704.4022)" class="st1 st6 st9">Preeclàmpsia</text>
		<text transform="matrix(1 0 0 1 1619.6759 740.4022)" class="st1 st6 st9">Reducció de la qualitat de </text>
		<text transform="matrix(1 0 0 1 1774.9739 768.4023)" class="st1 st6 st9">l&apos;esperma</text>
	</g>
	<g>
		<rect x="1526" y="519.2" class="st5" width="366.7" height="123.5"/>
		<text transform="matrix(1 0 0 1 1571.7419 543.3531)" class="st1 st6 st7">APARELL REPRODUCTOR</text>
		<text transform="matrix(1 0 0 1 1788.4377 580.8527)" class="st1 st6 st7">I FETUS</text>
	</g>
	<g>
		<rect x="689.1" y="563.8" class="st5" width="283.7" height="57.7"/>
		<text transform="matrix(1 0 0 1 689.0906 587.9298)" class="st1 st6 st7">GENERAL/ ALTRES</text>
	</g>
	<line class="st8" x1="1185.3" y1="541.4" x2="689.1" y2="539.7"/>
	<g>
		<g>
			<rect x="689.1" y="621.9" class="st5" width="538.6" height="474.6"/>
			<text transform="matrix(1 0 0 1 689.0911 639.4141)" class="st1 st6 st9">Obesitat</text>
			<text transform="matrix(1 0 0 1 689.0911 675.4141)" class="st1 st6 st9">Diabetis</text>
			<text transform="matrix(1 0 0 1 689.0911 711.4141)" class="st1 st6 st9">Síndrome metabòlica</text>
			<text transform="matrix(1 0 0 1 689.0911 747.4141)" class="st1 st6 st9">Molèsties, estrès </text>
			<text transform="matrix(1 0 0 1 689.0911 783.4141)" class="st1 st6 st9">Trastorn del son</text>
			<text transform="matrix(1 0 0 1 689.0911 819.4141)" class="st6 st9">Lesions per accidents de feina i trànsit</text>
			<text transform="matrix(1 0 0 1 689.0911 855.4141)" class="st1 st6 st9">Càncer de còlon</text>
			<text transform="matrix(1 0 0 1 689.0911 891.5141)" class="st1 st6 st9">Inflamació sistèmica</text>
			<text transform="matrix(1 0 0 1 689.0911 927.5141)" class="st1 st6 st9">Pitjor estat de salut general</text>
			<text transform="matrix(1 0 0 1 689.0911 963.5141)" class="st1 st6 st9">Augment de la mortalitat</text>
		</g>
		<circle class="st10" cx="677.7" cy="776.1" r="5.5"/>
		<circle class="st11" cx="677.7" cy="631.7" r="5.5"/>
		<circle class="st12" cx="677.7" cy="810.6" r="5.5"/>
		<g>
			<circle class="st13" cx="677.7" cy="668.4" r="5.5"/>
			<circle class="st11" cx="663.7" cy="668.4" r="5.5"/>
		</g>
		<g>
			<circle class="st10" cx="677.7" cy="740.4" r="5.5"/>
			<circle class="st14" cx="663.9" cy="740.4" r="5.5"/>
		</g>
		<circle class="st14" cx="677.7" cy="918.2" r="5.5"/>
		<g>
			<circle class="st12" cx="651.4" cy="953.8" r="5.5"/>
			<ellipse class="st11" cx="638.2" cy="953.8" rx="5.5" ry="5.5"/>
			<circle class="st14" cx="625.3" cy="953.8" r="5.5"/>
			<circle class="st10" cx="664.6" cy="953.8" r="5.5"/>
			<circle class="st13" cx="677.7" cy="953.8" r="5.5"/>
		</g>
		<circle class="st11" cx="677.7" cy="702.7" r="5.5"/>
		<circle class="st11" cx="677.7" cy="845.6" r="5.5"/>
		<circle class="st13" cx="677.7" cy="882.6" r="5.5"/>
	</g>
	<circle class="st13" cx="1905.3" cy="624.8" r="5.5"/>
	<circle class="st13" cx="1905.3" cy="662.3" r="5.5"/>
	<circle class="st13" cx="1905.3" cy="732.3" r="5.5"/>
	<circle class="st12" cx="1919.1" cy="624.8" r="5.5"/>
	<circle class="st13" cx="1905.3" cy="698.4" r="5.5"/>
	<g>
		<g>
			<rect x="689.1" y="-55.2" class="st5" width="380.7" height="427.2"/>
			<text transform="matrix(1 0 0 1 689.0911 -37.6145)" class="st1 st6 st9">Demència</text>
			<text transform="matrix(1 0 0 1 689.0911 -1.6144)" class="st1 st6 st9">Deteriorament cognitiu </text>
			<text transform="matrix(1 0 0 1 689.0911 34.3856)" class="st1 st6 st9">Malalties neurodegeneratives </text>
			<text transform="matrix(1 0 0 1 689.0911 70.3856)" class="st1 st6 st9">Problemes de salut mental </text>
			<text transform="matrix(1 0 0 1 689.0911 106.3856)" class="st1 st6 st9">Ictus</text>
			<text transform="matrix(1 0 0 1 689.0911 142.3856)" class="st1 st6 st9">Malalties cerebrovasculars </text>
			<text transform="matrix(1 0 0 1 689.0911 178.3856)" class="st1 st6 st9">Autisme i problemes de</text>
			<text transform="matrix(1 0 0 1 689.0911 204.3856)" class="st1 st6 st9">conducta en nens</text>
			<text transform="matrix(1 0 0 1 689.0911 240.4855)" class="st6 st9">Tinnitus o sordesa</text>
			<text transform="matrix(1 0 0 1 689.0911 276.4855)" class="st6 st9">Reducció del rendiment cognitiu</text>
		</g>
		<circle class="st13" cx="677.7" cy="168.4" r="5.5"/>
		<circle class="st10" cx="677.7" cy="230.9" r="5.5"/>
		<circle class="st12" cx="677.7" cy="267.3" r="5.5"/>
		<g>
			<circle class="st13" cx="677.7" cy="96.6" r="5.5"/>
			<circle class="st11" cx="650" cy="96.6" r="5.5"/>
			<circle class="st10" cx="663.9" cy="96.6" r="5.5"/>
		</g>
		<g>
			<circle class="st13" cx="677.7" cy="-45.6" r="5.5"/>
			<circle class="st11" cx="663.9" cy="-45.6" r="5.5"/>
		</g>
		<g>
			<circle class="st13" cx="677.7" cy="26.5" r="5.5"/>
			<circle class="st11" cx="663.9" cy="26.5" r="5.5"/>
		</g>
		<g>
			<circle class="st10" cx="677.7" cy="135" r="5.5"/>
			<circle class="st11" cx="663.9" cy="135" r="5.5"/>
		</g>
		<g>
			<circle class="st10" cx="677.7" cy="-8.9" r="5.5"/>
			<circle class="st11" cx="663.9" cy="-8.9" r="5.5"/>
		</g>
		<circle class="st14" cx="650" cy="61.7" r="5.5"/>
		<circle class="st11" cx="663.9" cy="61.7" r="5.5"/>
		<circle class="st13" cx="677.7" cy="61.7" r="5.5"/>
	</g>
	<circle class="st13" cx="1905.3" cy="-43" r="5.5"/>
	<circle class="st13" cx="1905.3" cy="16.9" r="5.5"/>
	<g>
		<circle class="st11" cx="1919.1" cy="53" r="5.5"/>
		<circle class="st13" cx="1905.3" cy="52.8" r="5.5"/>
	</g>
	<circle class="st13" cx="1905.3" cy="124.9" r="5.5"/>
	<circle class="st13" cx="1905.3" cy="89" r="5.5"/>
	<circle class="st11" cx="1919.1" cy="936.7" r="5.5"/>
	<circle class="st10" cx="1905.3" cy="936.7" r="5.5"/>
	<circle class="st13" cx="1905.3" cy="973.2" r="5.5"/>
	<circle class="st11" cx="677.7" cy="462.9" r="5.5"/>
	<g>
		<rect x="1534.9" y="-54.3" class="st5" width="357.8" height="214.7"/>
		<text transform="matrix(1 0 0 1 1601.9087 -36.7887)" class="st1 st6 st9">Malaltia Pulmonar Obstructiva </text>
		<text transform="matrix(1 0 0 1 1725.3074 -10.7885)" class="st1 st6 st9">Crònica (MPOC) </text>
		<text transform="matrix(1 0 0 1 1823.8053 25.2115)" class="st1 st6 st9">Asma</text>
		<text transform="matrix(1 0 0 1 1669.908 61.2115)" class="st1 st6 st9">Malalties respiratòries  </text>
		<text transform="matrix(1 0 0 1 1768.6058 97.2115)" class="st1 st6 st9">Pneumònia</text>
		<text transform="matrix(1 0 0 1 1705.5065 133.2115)" class="st1 st6 st9">Càncer de pulmó</text>
	</g>
	<g>
		<rect x="1507.5" y="-112.3" class="st5" width="385.2" height="138.5"/>
		<text transform="matrix(1 0 0 1 1613.9636 -88.1621)" class="st1 st6 st7">APARELL RESIPRATORI</text>
	</g>
	<polyline class="st8" points="1892.8,-134.7 1529.9,-136.1 1350.3,135.9 	"/>
	<g>
		<rect x="689.1" y="453" class="st5" width="357.8" height="48.9"/>
		<text transform="matrix(1 0 0 1 689.0898 470.5709)" class="st1 st6 st9">Càncer de pit </text>
	</g>
	<g>
		<rect x="689.1" y="393.6" class="st5" width="385.2" height="49.5"/>
		<text transform="matrix(1 0 0 1 689.0908 417.7426)" class="st1 st6 st7">PIT</text>
	</g>
	<polyline class="st8" points="689.1,371.2 1051.9,369.8 1201.9,178.7 	"/>
	<circle class="st10" cx="1918.8" cy="409.7" r="5.5"/>
	<circle class="st11" cx="1932.6" cy="409.7" r="5.5"/>
	<circle class="st10" cx="1919.1" cy="302.8" r="5.5"/>
	<circle class="st11" cx="1932.9" cy="302.8" r="5.5"/>
	<circle class="st13" cx="1905.3" cy="302.8" r="5.5"/>
	<circle class="st13" cx="1905" cy="337.8" r="5.5"/>
	<circle class="st13" cx="1905" cy="373.7" r="5.5"/>
	<circle class="st13" cx="1905" cy="409.7" r="5.5"/>
	<g>
		<rect x="1464.9" y="291.2" class="st5" width="428.7" height="151.9"/>
		<text transform="matrix(1 0 0 1 1707.9087 308.7913)" class="st1 st6 st9">Infart de miocardi</text>
		<text transform="matrix(1 0 0 1 1802.4075 344.7913)" class="st1 st6 st9">Arrítmia</text>
		<text transform="matrix(1 0 0 1 1558.8101 380.7913)" class="st1 st6 st9">Insuficiència congestiva cardíaca</text>
		<text transform="matrix(1 0 0 1 1636.1094 416.7913)" class="st1 st6 st9">Malalties cardiovasculars</text>
	</g>
	<g>
		<rect x="1508.4" y="232.5" class="st5" width="385.2" height="66.7"/>
		<text transform="matrix(1 0 0 1 1813.8441 256.6113)" class="st1 st6 st7">COR</text>
	</g>
	<polyline class="st8" points="1893.7,210.1 1530.9,208.7 1330.1,167.3 	"/>
	<g>
		<rect x="1534.9" y="925.4" class="st5" width="357.8" height="133.5"/>
		<text transform="matrix(1 0 0 1 1759.6996 942.908)" class="st1 st6 st9">Hipertensió</text>
		<text transform="matrix(1 0 0 1 1615.9011 978.908)" class="st1 st6 st9">Trombosi venosa profunda</text>
	</g>
	<g>
		<rect x="1507.5" y="866.9" class="st5" width="385.2" height="59.8"/>
		<text transform="matrix(1 0 0 1 1762.1699 891.0677)" class="st1 st6 st7">ARTÈRIES</text>
	</g>
	<line class="st8" x1="1892.8" y1="843.2" x2="1348.6" y2="841.5"/>
	<polyline class="st8" points="1324.7,376.3 1507.1,496.3 1892.8,495.1 	"/>
</g>
</svg>
