<?xml version="1.0" encoding="utf-8"?>
<!-- Generator: Adobe Illustrator 21.1.0, SVG Export Plug-In . SVG Version: 6.00 Build 0)  -->
<svg version="1.1" id="Capa_1" xmlns="http://www.w3.org/2000/svg" xmlns:xlink="http://www.w3.org/1999/xlink" x="0px" y="0px"
	 viewBox="0 0 1440 1451.3" style="enable-background:new 0 0 1440 1451.3;" xml:space="preserve">
<style type="text/css">
	.st0{fill:#F4F4F4;}
	.st1{fill:#181716;}
	.st2{fill:#A5B0DB;}
	.st3{fill:#FBE2E0;}
	.st4{fill:#F8D2D0;}
	.st5{fill:none;stroke:#004F9F;stroke-width:6.0014;stroke-miterlimit:10;}
	.st6{fill:#004F9F;}
	.st7{fill:none;}
	.st8{font-family:'Platform'; font-weight: 300; letter-spacing: 1px;}
	.st9{font-size:24.0054px;}
	.st10{letter-spacing:1;}
	.st11{font-size:33.0075px;}
	.st12{fill:none;stroke:#181716;stroke-width:1.5003;stroke-miterlimit:10;}
@font-face {
  font-family: 'Platform';
  src: url('../fonts/Platform-Regular.eot');
  src: url('../fonts/Platform-Regular.eot?#iefix') format('embedded-opentype'),
  url('../fonts/Platform-Regular.woff') format('woff'),
  url('../fonts/Platform-Regular.ttf') format('truetype'),
  url('../fonts/Platform-Regular.otf') format('opentype'),
  url('../fonts/Platform-Regular.svg#Platform-Regular') format('svg');
  font-weight: 300;
  font-style: normal;
}
</style>
<g id="bg">
	<rect y="0" class="st0" width="1440" height="1452.7"/>
	<rect y="1245.3" class="st1" width="1440" height="207.3"/>
</g>
<g id="cos1_1_">
	<g>
		<g>
			<path class="st2" d="M723,57c-0.4,0-0.7,0-1,0c-0.3,0-0.7,0-1,0c-44.9-0.4-62.4,35.1-59.8,80.4c2.5,44.3,19.6,91.2,60.6,92.1v0
				c0.1,0,0.2,0,0.3,0c0.1,0,0.2,0,0.3,0v0c41-0.9,58.1-47.8,60.6-92.1C785.5,92.1,768,56.5,723,57z"/>
			<g>
				
					<ellipse transform="matrix(0.1335 -0.9911 0.9911 0.1335 523.321 907.6934)" class="st2" cx="780.7" cy="154.6" rx="23.8" ry="8"/>
				
					<ellipse transform="matrix(0.9911 -0.1335 0.1335 0.9911 -14.6983 89.9151)" class="st2" cx="663.3" cy="154.6" rx="8" ry="23.8"/>
			</g>
			<rect x="686.9" y="197.2" class="st2" width="70.1" height="73.1"/>
			<g>
				<path class="st2" d="M734.9,303.3l-48.1-73.8v0c0,20.9-16.9,37.8-37.8,37.8h0L734.9,303.3z"/>
				<path class="st2" d="M709.1,303.3l48.1-73.8v0c0,20.9,16.9,37.8,37.8,37.8h0L709.1,303.3z"/>
			</g>
		</g>
		<g>
			<rect x="632.4" y="267" class="st2" width="178.7" height="281.4"/>
			<path class="st2" d="M605,305.5h233.4v86.2c0,35.4-28.7,64-64,64H669c-35.4,0-64-28.7-64-64V305.5z"/>
			<path class="st2" d="M559.2,388.7h325.1v-59.3c0-34.5-28-62.4-62.4-62.4H621.6c-34.5,0-62.4,28-62.4,62.4V388.7z"/>
			<path class="st2" d="M811.1,548.4h-89.4v196.1h127.1c0,0,0-24.5,0-74.5C848.8,622,811.1,548.4,811.1,548.4z"/>
			<path class="st2" d="M632.3,548.4h89.4v196.1H594.6c0,0,0-24.5,0-74.5C594.6,622,632.3,548.4,632.3,548.4z"/>
			<g>
				<path class="st2" d="M807,995.5c0,19.3-77.1,0-77.1,0v-251c0,0,118.8-29.7,118.8,0C848.8,851.3,807,966.5,807,995.5z"/>
				<path class="st2" d="M785.9,1310.4h-41l-14.9-314.8h76.9c0,0,6.4,92.3,6.4,123.2C813.2,1205.4,785.9,1310.4,785.9,1310.4z"/>
				<path class="st2" d="M793.7,1405.4c-0.1,2.3-2.4,6-4.9,9.3c-3.8,5-9.7,7.8-15.9,7.8h-29.7c-7,0-12.4-6.1-11.4-13.1l13.1-99h41
					C785.8,1310.4,794.7,1376.1,793.7,1405.4z"/>
			</g>
			<g>
				<path class="st2" d="M636.4,995.5c0,19.3,77.1,0,77.1,0v-251c0,0-118.8-29.7-118.8,0C594.6,851.3,636.4,966.5,636.4,995.5z"/>
				<path class="st2" d="M657.5,1310.4h41l14.9-314.8h-76.9c0,0-6.4,92.3-6.4,123.2C630.2,1205.4,657.5,1310.4,657.5,1310.4z"/>
				<path class="st2" d="M649.7,1405.4c0.1,2.3,2.4,6,4.9,9.3c3.8,5,9.7,7.8,15.9,7.8h29.7c7,0,12.4-6.1,11.4-13.1l-13.1-99h-41
					C657.6,1310.4,648.7,1376.1,649.7,1405.4z"/>
			</g>
			<polygon class="st2" points="904.7,538 858.8,543.3 831,326 884.1,319.8 			"/>
			<path class="st2" d="M919.5,722.7l-27,3.1l-33.7-182.5c0,0,42.4-39.8,43.8-27.7c2.5,21.5,8.9,43.4,12.1,73.1
				C918.3,622,919.5,722.7,919.5,722.7z"/>
			<path class="st2" d="M919.5,722.7v41.4c0,8.9-2.7,17.6-7.9,24.9l-32.9,46.8c-2.7,3.9-8,4.9-11.9,2.3v0c-3.7-2.4-5-7.1-3.1-11.1
				l20.4-42.3l-2.8-15.3l-14.6,28.8c-0.7,1.3-2.2,2-3.7,1.6h0c-1.5-0.4-2.5-1.9-2.3-3.4l3.1-27.7c0.8-7.2,3.3-14.1,7.4-20.1
				l21.2-22.9L919.5,722.7z"/>
			<g>
				<polygon class="st2" points="539.3,538 585.2,543.3 613,326 559.9,319.8 				"/>
				<path class="st2" d="M524.5,722.7l27,3.1l33.7-182.5c0,0-42.4-39.8-43.8-27.7c-2.5,21.5-8.9,43.4-12.1,73.1
					C525.7,622,524.5,722.7,524.5,722.7z"/>
				<path class="st2" d="M524.5,722.7v41.4c0,8.9,2.7,17.6,7.9,24.9l32.9,46.8c2.7,3.9,8,4.9,11.9,2.3v0c3.7-2.4,5-7.1,3.1-11.1
					l-20.4-42.3l2.8-15.3l14.6,28.8c0.7,1.3,2.2,2,3.7,1.6h0c1.5-0.4,2.5-1.9,2.3-3.4l-3.1-27.7c-0.8-7.2-3.3-14.1-7.4-20.1
					l-21.2-22.9L524.5,722.7z"/>
			</g>
		</g>
	</g>
	<g>
		<g>
			<path class="st3" d="M739.5,273.7L739.5,273.7c3.9-2.5,8.4-3.9,13.1-3.9h6.3c7.9,0.5,12.9,3.1,16,7.1
				c21.4,27.7,48.6,65,55.8,114.3c1.7,11.9-15.2,35.7-19.8,39.1c-55.8,41.5-87.2-27.9-87.2-27.9l5-109.7
				C729,284.9,733.1,277.9,739.5,273.7z"/>
			<circle class="st3" cx="776.1" cy="396.4" r="54.6"/>
		</g>
		<g>
			<path class="st3" d="M705.3,273.7L705.3,273.7c-3.9-2.5-8.4-3.9-13.1-3.9h-6.3c-7.9,0.5-12.9,3.1-16,7.1
				c-21.4,27.7-48.6,65-55.8,114.3c-1.7,11.9,15.2,35.7,19.8,39.1c55.8,41.5,87.2-27.9,87.2-27.9l17.6-99l-22.5-10.6
				C715.8,284.9,711.7,277.9,705.3,273.7z"/>
			<circle class="st3" cx="668.7" cy="396.4" r="54.6"/>
		</g>
	</g>
	<path class="st4" d="M722,716.1L722,716.1c-30.3,0-54.9-24.6-54.9-54.9v-61.7c0-30.3,24.6-54.9,54.9-54.9h0
		c30.3,0,54.9,24.6,54.9,54.9v61.7C776.9,691.5,752.3,716.1,722,716.1z"/>
	<g>
		<g>
			<g>
				<circle class="st4" cx="689.6" cy="395" r="22.4"/>
				<circle class="st4" cx="659.8" cy="405.8" r="24.4"/>
				<circle class="st4" cx="698.5" cy="330.2" r="13.5"/>
				<rect x="682.2" y="330.2" class="st4" width="29.9" height="61"/>
				<path class="st4" d="M636.3,399.2c13.2-52.4,53.6-79.5,53.6-79.5l5.4,70.4C695.4,390.1,632.6,413.7,636.3,399.2z"/>
			</g>
			<g>
				<circle class="st4" cx="755.2" cy="395" r="22.4"/>
				<circle class="st4" cx="785" cy="405.8" r="24.4"/>
				<circle class="st4" cx="746.3" cy="330.2" r="13.5"/>
				
					<rect x="732.7" y="330.2" transform="matrix(-1 4.449939e-11 -4.449939e-11 -1 1495.3452 721.3513)" class="st4" width="29.9" height="61"/>
				<path class="st4" d="M808.5,399.2c-13.2-52.4-53.6-79.5-53.6-79.5l-5.4,70.4C749.4,390.1,812.1,413.7,808.5,399.2z"/>
			</g>
		</g>
		<rect x="714.9" y="269.3" class="st4" width="14.9" height="56.1"/>
		<g>
			
				<rect x="732.6" y="313.8" transform="matrix(0.7071 -0.7071 0.7071 0.7071 -24.9596 623.3986)" class="st4" width="14.9" height="56.1"/>
			
				<rect x="697.3" y="313.8" transform="matrix(-0.7071 -0.7071 0.7071 -0.7071 961.3847 1081.875)" class="st4" width="14.9" height="56.1"/>
		</g>
	</g>
	<g>
		<path class="st5" d="M890.1,761.5c0,0,20.9-17.7,20.3-35.7c-1.6-43.9,1.6-76-1.6-100.3c-8-60.9-24.9-73-27.9-100.5
			c-2.6-23.1,5-164.8-13-199.7c-19.1-36.9-65.2-41.5-97.4-33c-22.8,6-28.3,24.1-30.4,35.6c-1.6,8.8-1.8,16.5,2.7,35.8"/>
		<path class="st5" d="M821.3,291.2c23.7,6.2,25.7,29.3,27.5,56.9s33.3,135.3,30.9,171.2c-2.4,35.9-1.1,91.7,6.5,115.8
			c7.6,24.1,21.6,54.8,23.8,80.9"/>
		<path class="st5" d="M555,761.5c0,0-20.9-17.7-20.3-35.7c1.6-43.9-1.6-76,1.6-100.3c8-60.9,24.9-73,27.9-100.5
			c2.6-23.1-5-164.8,13-199.7c19.1-36.9,65.2-41.5,97.4-33c22.8,6,47.4,21.8,51.6,35.6c2.6,8.6,8.6,16.5,4.2,35.8"/>
		<path class="st5" d="M623.8,291.2c-23.7,6.2-25.7,29.3-27.5,56.9c-1.8,27.6-33.3,135.3-30.9,171.2s1.1,91.7-6.5,115.8
			c-7.6,24.1-21.6,54.8-23.8,80.9"/>
		<path class="st5" d="M770.4,292.3c0,0-23.1-47.7-24.2-62.9s13.1-41.3,23.2-68.4c5.7-15.3,5-30.2,3.3-40.3
			c-1.3-7.6-6.4-14-13.5-16.9l-4.6-1.9"/>
		<line class="st5" x1="746.3" y1="226" x2="752.1" y2="301.6"/>
		<path class="st5" d="M673.2,291.5c0,0,23.1-46.8,24.2-62c1.1-15.2-13.1-41.3-23.2-68.4c-6.5-17.4-4.7-34.3-2.5-44.1
			c1.2-5.4,4.3-10.1,8.7-13.3l4.8-3.5"/>
		<line class="st5" x1="697.4" y1="226" x2="691.5" y2="298.2"/>
		<path class="st5" d="M726.1,411.9c0,0-3.9,223.5,0.4,234.6s78.3,67.9,82.1,115c8.8,108-27.9,228.6-29.6,234.1
			c-6.6,21.4,19,145.2,13.3,195.2c-5.7,50-26.4,117.2-29.7,141.5c-3.2,24.3-5.6,54.3-5.6,54.3"/>
		<path class="st5" d="M755.2,677.1c13,13.8,18.6,46.7,16.4,84.3c-2.1,37.6,8.4,197.7,2.4,249.2c-6,51.5-18.1,154.4-14.2,193
			s7.1,90.2,2.9,128.7"/>
		<path class="st5" d="M725,643.1c-4.3,11.1-86.7,71.3-90.5,118.4c-8.8,108,27.9,228.6,29.6,234.1c6.6,21.4-19,145.2-13.3,195.2
			c5.7,50,26.4,117.2,29.7,141.5c3.2,24.3,5.6,54.3,5.6,54.3"/>
		<path class="st5" d="M688.4,679.2c-13,13.8-19,44.6-16.9,82.2c2.1,37.6-8.4,197.7-2.4,249.2c6,51.5,18.1,154.4,14.2,193
			c-3.9,38.6-7.1,90.2-2.9,128.7"/>
	</g>
	<path class="st6" d="M727.5,340.6c0,0,4.3,6.4,3.8,7.8c-0.4,1.4-3.7,2.6-7.2,11c-2.3,5.8,0.9,11.3-0.6,12.4
		c-1.6,1.1-5.7,7.9-6.9,10.2c-8.9,16.7,4,34.6,13.3,41.2c9.3,6.5,18.4,6.7,24.3,9.3c8.2,3.5,19,5.8,25.3-5.3c0,0,4.1-8.5-1-24.1
		c-2.9-8.9-6.4-15.4-8.1-17.8c-5.5-7.7-11.2-11.2-13.8-12.6c-1.4-0.7-0.8-3.8,2-5c2.8-1.3,6-0.3,6-0.3l1-4c0,0-3.9-1.3-5.8-0.9
		c-1.9,0.3,2.1-4.2,2.3-7.3c0,0-2.7-2.3-4.4-1.7c0,0-1,3.7-3.5,7.7c0,0,1-9.6-5.9-14.6c0,0,1.6-8.1,2.1-8.8c0,0-3.2-1.7-4.5-1.4
		c0,0-1.9,8.1-2.2,8.3c-0.3,0.2-0.9,1.2-1.5,0.2c-0.6-1-0.8-9.6-0.8-9.6l-4.4,0.5c0,0,1.9,9.3,0.7,9.8c-0.4,0.2-0.8,0.8-1.6,0.1
		c-2.1-1.8-4.3-6.9-4.3-7.3C731.7,337.9,727.5,340.6,727.5,340.6z"/>
	<g>
		<circle class="st6" cx="688.7" cy="99.5" r="13.6"/>
		<circle class="st6" cx="709" cy="87.9" r="14.7"/>
		<circle class="st6" cx="731.6" cy="86.4" r="16.3"/>
		<circle class="st6" cx="682.5" cy="105" r="8.1"/>
		<circle class="st6" cx="762" cy="105" r="8.1"/>
		<circle class="st6" cx="751" cy="93.5" r="11"/>
		<rect x="682.5" y="99.5" class="st6" width="79.6" height="13.6"/>
		<rect x="707.9" y="90.4" class="st6" width="14.3" height="17.6"/>
	</g>
	<g>
		<g>
			<rect x="119.6" y="170.8" class="st7" width="380.7" height="354.3"/>
			<text transform="matrix(1 0 0 1 119.5596 188.3358)"><tspan x="0" y="0" class="st1 st8 st9 st10">Deterioro cognitivo</tspan><tspan x="0" y="36" class="st1 st8 st9 st10">Ictus</tspan><tspan x="0" y="72" class="st1 st8 st9 st10">Enfermedades cerebrovasculares</tspan><tspan x="0" y="108" class="st8 st9 st10">Tinnitus o sordera</tspan></text>
		</g>
		<g>
			<rect x="119.6" y="112.7" class="st7" width="283.7" height="48.4"/>
			<text transform="matrix(1 0 0 1 119.5601 136.8509)" class="st1 st8 st11 st10">Cabeza</text>
		</g>
		<line class="st12" x1="732" y1="90.3" x2="119.6" y2="88.6"/>
		<g>
			<rect x="119.6" y="824.2" class="st7" width="538.6" height="474.6"/>
			<text transform="matrix(1 0 0 1 119.5596 841.7887)"><tspan x="0" y="0" class="st1 st8 st9 st10">Molestias, estrés</tspan><tspan x="0" y="36" class="st1 st8 st9 st10">Trastorno del sueño</tspan><tspan x="0" y="72" class="st1 st8 st9 st10">Incremento de la mortalidad</tspan></text>
		</g>
		<g>
			<rect x="119.6" y="766.2" class="st7" width="283.7" height="57.7"/>
			<text transform="matrix(1 0 0 1 119.5591 790.3043)" class="st1 st8 st11 st10">General/Otros</text>
		</g>
		<line class="st12" x1="615.7" y1="743.8" x2="119.6" y2="742.1"/>
		<circle class="st6" cx="108.2" cy="871.2" r="5.5"/>
		<circle class="st6" cx="108.2" cy="907.4" r="5.5"/>
		<circle class="st6" cx="108.2" cy="833.8" r="5.5"/>
		<circle class="st6" cx="108.2" cy="217" r="5.5"/>
		<circle class="st6" cx="108.2" cy="180.3" r="5.5"/>
		<circle class="st6" cx="108.2" cy="288.5" r="5.5"/>
		<circle class="st6" cx="108.2" cy="253.4" r="5.5"/>
		<circle class="st6" cx="1335.7" cy="1162.7" r="5.5"/>
		<circle class="st6" cx="1335.7" cy="528.8" r="5.5"/>
		<circle class="st6" cx="1335.5" cy="563.8" r="5.5"/>
		<g>
			<rect x="966.3" y="517.2" class="st7" width="357.8" height="151.9"/>
			<text transform="matrix(1 0 0 1 1099.2654 534.7404)"><tspan x="0" y="0" class="st1 st8 st9 st10">Infarto de miocardio</tspan><tspan x="-126.6" y="36" class="st1 st8 st9 st10">Enfermedades cardiovasculares</tspan></text>
		</g>
		<g>
			<rect x="938.9" y="458.4" class="st7" width="385.2" height="54.9"/>
			<text transform="matrix(1 0 0 1 1162.7166 482.5614)" class="st1 st8 st11 st10">Corazón</text>
		</g>
		<polyline class="st12" points="1324.1,436.1 961.3,434.7 760.5,393.3 		"/>
		<g>
			<rect x="965.4" y="1151.3" class="st7" width="357.8" height="133.5"/>
			<text transform="matrix(1 0 0 1 1180.1821 1168.858)" class="st1 st8 st9 st10">Hipertensión</text>
		</g>
		<g>
			<rect x="938" y="1092.9" class="st7" width="385.2" height="59.8"/>
			<text transform="matrix(1 0 0 1 1182.3862 1117.0179)" class="st1 st8 st11 st10">Arterias  </text>
		</g>
		<line class="st12" x1="1323.2" y1="1069.1" x2="783.5" y2="1067.4"/>
	</g>
</g>
</svg>
