<?xml version="1.0" encoding="utf-8"?>
<!-- Generator: Adobe Illustrator 19.0.0, SVG Export Plug-In . SVG Version: 6.00 Build 0)  -->
<svg version="1.1" id="Capa_1" xmlns="http://www.w3.org/2000/svg" xmlns:xlink="http://www.w3.org/1999/xlink" x="0px" y="0px"
	 viewBox="570 -225.3 1440 1451.3" style="enable-background:new 570 -225.3 1440 1451.3;" xml:space="preserve">
<style type="text/css">
	.st0{fill:#F4F4F4;}
	.st1{fill:#181716;}
	.st2{fill:none;}
	.st3{font-family:'PlatformWeb-Regular';}
	.st4{font-size:24.0054px;}
	.st5{fill:#34B7EB;}
	.st6{fill:#004F9F;}
	.st7{fill:#F29700;}
	.st8{fill:#BB94C2;}
	.st9{fill:#3AA336;}
	.st10{fill:#6E6E6D;}
	.st11{fill:#9B9B9B;}
	.st12{fill:none;stroke:#181716;stroke-width:6.0014;stroke-miterlimit:10;}
	.st13{font-size:33.0075px;}
	.st14{fill:none;stroke:#181716;stroke-width:1.5003;stroke-miterlimit:10;}
</style>
<g id="bg">
	<rect x="570" y="-226" class="st0" width="1440" height="1452.7"/>
	<rect x="570" y="1019.3" class="st1" width="1440" height="207.3"/>
</g>
<g id="Cos">
	<g>
		<g>
			<rect x="688.6" y="-54.3" class="st2" width="380.7" height="427.2"/>
			<text transform="matrix(1 0 0 1 688.5593 -36.761)" class="st1 st3 st4">Dementia</text>
			<text transform="matrix(1 0 0 1 688.5593 -0.7609)" class="st1 st3 st4">Cognitive impairment </text>
			<text transform="matrix(1 0 0 1 688.5593 35.2391)" class="st1 st3 st4">Neurodegenerative diseases </text>
			<text transform="matrix(1 0 0 1 688.5593 71.2391)" class="st1 st3 st4">Mental health problems</text>
			<text transform="matrix(1 0 0 1 688.5593 107.2391)" class="st1 st3 st4">Stroke</text>
			<text transform="matrix(1 0 0 1 688.5593 143.2391)" class="st1 st3 st4">Cerebrovascular diseases</text>
			<text transform="matrix(1 0 0 1 688.5593 179.2391)" class="st1 st3 st4">Autism and child behaviour </text>
			<text transform="matrix(1 0 0 1 688.5593 205.2391)" class="st1 st3 st4">problems</text>
			<text transform="matrix(1 0 0 1 688.5593 241.3391)" class="st3 st4">Tinnitus or deafness</text>
			<text transform="matrix(1 0 0 1 688.5593 277.3391)" class="st3 st4">Reduction of cognitive </text>
			<text transform="matrix(1 0 0 1 688.5593 303.3391)" class="st3 st4">performance</text>
		</g>
		<circle class="st5" cx="677.2" cy="170.5" r="5.5"/>
		<circle class="st6" cx="677.2" cy="233.8" r="5.5"/>
		<circle class="st7" cx="677.2" cy="268.9" r="5.5"/>
		<g>
			<circle class="st5" cx="677.2" cy="99.5" r="5.5"/>
			<circle class="st8" cx="649.5" cy="99.5" r="5.5"/>
			<circle class="st6" cx="663.4" cy="99.5" r="5.5"/>
		</g>
		<g>
			<circle class="st5" cx="677.2" cy="-44.7" r="5.5"/>
			<circle class="st8" cx="663.4" cy="-44.7" r="5.5"/>
		</g>
		<g>
			<circle class="st5" cx="677.2" cy="27.3" r="5.5"/>
			<circle class="st8" cx="663.4" cy="27.3" r="5.5"/>
		</g>
		<g>
			<circle class="st6" cx="677.2" cy="135.5" r="5.5"/>
			<circle class="st8" cx="663.4" cy="135.5" r="5.5"/>
		</g>
		<g>
			<circle class="st6" cx="677.2" cy="-8.1" r="5.5"/>
			<circle class="st8" cx="663.4" cy="-8.1" r="5.5"/>
		</g>
		<circle class="st9" cx="649.5" cy="63" r="5.5"/>
		<circle class="st8" cx="663.4" cy="63" r="5.5"/>
		<circle class="st5" cx="677.2" cy="63" r="5.5"/>
	</g>
	<g>
		<g>
			<g>
				<path class="st10" d="M1292-168.1c-0.4,0-0.7,0-1,0s-0.7,0-1,0c-44.9-0.4-62.4,35.1-59.8,80.4c2.5,44.3,19.6,91.2,60.6,92.1l0,0
					c0.1,0,0.2,0,0.3,0s0.2,0,0.3,0l0,0c41-0.9,58.1-47.8,60.6-92.1C1354.5-133,1337-168.6,1292-168.1z"/>
				<g>
					
						<ellipse transform="matrix(0.991 0.1335 -0.1335 0.991 2.6608 -180.8294)" class="st10" cx="1349.7" cy="-70.6" rx="8" ry="23.8"/>
					
						<ellipse transform="matrix(0.1335 0.991 -0.991 0.1335 997.9662 -1282.3693)" class="st10" cx="1232.3" cy="-70.5" rx="23.8" ry="8"/>
				</g>
				<rect x="1255.9" y="-27.9" class="st10" width="70.1" height="73.1"/>
				<g>
					<path class="st10" d="M1303.9,78.2l-48.1-73.8l0,0c0,20.9-16.9,37.8-37.8,37.8l0,0L1303.9,78.2z"/>
					<path class="st10" d="M1278.1,78.2l48.1-73.8l0,0c0,20.9,16.9,37.8,37.8,37.8l0,0L1278.1,78.2z"/>
				</g>
			</g>
			<g>
				<rect x="1201.4" y="41.9" class="st10" width="178.7" height="281.4"/>
				<path class="st10" d="M1174,80.4h233.4v86.2c0,35.4-28.7,64-64,64H1238c-35.4,0-64-28.7-64-64V80.4z"/>
				<path class="st10" d="M1128.2,163.6h325.1v-59.3c0-34.5-28-62.4-62.4-62.4h-200.3c-34.5,0-62.4,28-62.4,62.4V163.6L1128.2,163.6
					z"/>
				<path class="st10" d="M1380.1,323.3h-89.4v196.1h127.1c0,0,0-24.5,0-74.5C1417.8,397,1380.1,323.3,1380.1,323.3z"/>
				<path class="st10" d="M1201.3,323.3h89.4v196.1h-127.1c0,0,0-24.5,0-74.5C1163.6,397,1201.3,323.3,1201.3,323.3z"/>
				<g>
					<path class="st10" d="M1376,770.4c0,19.3-77.1,0-77.1,0v-251c0,0,118.8-29.7,118.8,0C1417.8,626.2,1376,741.4,1376,770.4z"/>
					<path class="st10" d="M1354.9,1085.3h-41L1299,770.5h76.9c0,0,6.4,92.3,6.4,123.2C1382.2,980.3,1354.9,1085.3,1354.9,1085.3z"
						/>
					<path class="st10" d="M1362.7,1180.3c-0.1,2.3-2.4,6-4.9,9.3c-3.8,5-9.7,7.8-15.9,7.8h-29.7c-7,0-12.4-6.1-11.4-13.1l13.1-99
						h41C1354.8,1085.3,1363.7,1151,1362.7,1180.3z"/>
				</g>
				<g>
					<path class="st10" d="M1205.4,770.4c0,19.3,77.1,0,77.1,0v-251c0,0-118.8-29.7-118.8,0C1163.6,626.2,1205.4,741.4,1205.4,770.4
						z"/>
					<path class="st10" d="M1226.5,1085.3h41l14.9-314.8h-76.9c0,0-6.4,92.3-6.4,123.2C1199.2,980.3,1226.5,1085.3,1226.5,1085.3z"
						/>
					<path class="st10" d="M1218.7,1180.3c0.1,2.3,2.4,6,4.9,9.3c3.8,5,9.7,7.8,15.9,7.8h29.7c7,0,12.4-6.1,11.4-13.1l-13.1-99h-41
						C1226.6,1085.3,1217.7,1151,1218.7,1180.3z"/>
				</g>
				<polygon class="st10" points="1473.7,312.9 1427.8,318.2 1400,100.9 1453.1,94.7 				"/>
				<path class="st10" d="M1488.5,497.6l-27,3.1l-33.7-182.5c0,0,42.4-39.8,43.8-27.7c2.5,21.5,8.9,43.4,12.1,73.1
					C1487.3,396.9,1488.5,497.6,1488.5,497.6z"/>
				<path class="st10" d="M1488.5,497.6V539c0,8.9-2.7,17.6-7.9,24.9l-32.9,46.8c-2.7,3.9-8,4.9-11.9,2.3l0,0
					c-3.7-2.4-5-7.1-3.1-11.1l20.4-42.3l-2.8-15.3l-14.6,28.8c-0.7,1.3-2.2,2-3.7,1.6l0,0c-1.5-0.4-2.5-1.9-2.3-3.4l3.1-27.7
					c0.8-7.2,3.3-14.1,7.4-20.1l21.2-22.9L1488.5,497.6z"/>
				<g>
					<polygon class="st10" points="1108.3,312.9 1154.2,318.2 1182,100.9 1128.9,94.7 					"/>
					<path class="st10" d="M1093.5,497.6l27,3.1l33.7-182.5c0,0-42.4-39.8-43.8-27.7c-2.5,21.5-8.9,43.4-12.1,73.1
						C1094.7,396.9,1093.5,497.6,1093.5,497.6z"/>
					<path class="st10" d="M1093.5,497.6V539c0,8.9,2.7,17.6,7.9,24.9l32.9,46.8c2.7,3.9,8,4.9,11.9,2.3l0,0c3.7-2.4,5-7.1,3.1-11.1
						l-20.4-42.3l2.8-15.3l14.6,28.8c0.7,1.3,2.2,2,3.7,1.6l0,0c1.5-0.4,2.5-1.9,2.3-3.4l-3.1-27.7c-0.8-7.2-3.3-14.1-7.4-20.1
						l-21.2-22.9L1093.5,497.6z"/>
				</g>
			</g>
		</g>
		<g>
			<g>
				<path class="st11" d="M1308.5,48.6L1308.5,48.6c3.9-2.5,8.4-3.9,13.1-3.9h6.3c7.9,0.5,12.9,3.1,16,7.1
					c21.4,27.7,48.6,65,55.8,114.3c1.7,11.9-15.2,35.7-19.8,39.1c-55.8,41.5-87.2-27.9-87.2-27.9l5-109.7
					C1298,59.9,1302.1,52.8,1308.5,48.6z"/>
				<circle class="st11" cx="1345.1" cy="171.3" r="54.6"/>
			</g>
			<g>
				<path class="st11" d="M1274.3,48.6L1274.3,48.6c-3.9-2.5-8.4-3.9-13.1-3.9h-6.3c-7.9,0.5-12.9,3.1-16,7.1
					c-21.4,27.7-48.6,65-55.8,114.3c-1.7,11.9,15.2,35.7,19.8,39.1c55.8,41.5,87.2-27.9,87.2-27.9l17.6-99l-22.5-10.6
					C1284.8,59.9,1280.7,52.8,1274.3,48.6z"/>
				<circle class="st11" cx="1237.7" cy="171.3" r="54.6"/>
			</g>
		</g>
		<path class="st11" d="M1291,491L1291,491c-30.3,0-54.9-24.6-54.9-54.9v-61.7c0-30.3,24.6-54.9,54.9-54.9l0,0
			c30.3,0,54.9,24.6,54.9,54.9v61.7C1345.9,466.4,1321.3,491,1291,491z"/>
		<g>
			<g>
				<g>
					<circle class="st10" cx="1258.6" cy="169.9" r="22.4"/>
					<circle class="st10" cx="1228.8" cy="180.7" r="24.4"/>
					<circle class="st10" cx="1267.5" cy="105.1" r="13.5"/>
					<rect x="1251.2" y="105.1" class="st10" width="29.9" height="61"/>
					<path class="st10" d="M1205.3,174.1c13.2-52.4,53.6-79.5,53.6-79.5l5.4,70.4C1264.4,165,1201.6,188.6,1205.3,174.1z"/>
				</g>
				<g>
					<circle class="st10" cx="1324.2" cy="169.9" r="22.4"/>
					<circle class="st10" cx="1354" cy="180.7" r="24.4"/>
					<circle class="st10" cx="1315.3" cy="105.1" r="13.5"/>
					<rect x="1301.7" y="105.1" class="st10" width="29.9" height="61"/>
					<path class="st10" d="M1377.5,174.1c-13.2-52.4-53.6-79.5-53.6-79.5l-5.4,70.4C1318.4,165,1381.1,188.6,1377.5,174.1z"/>
				</g>
			</g>
			<rect x="1283.9" y="44.2" class="st10" width="14.9" height="56.1"/>
			<g>
				
					<rect x="1301.6" y="88.7" transform="matrix(-0.7071 0.7071 -0.7071 -0.7071 2317.2632 -726.3616)" class="st10" width="14.9" height="56.1"/>
				
					<rect x="1266.3" y="88.6" transform="matrix(0.7071 0.7071 -0.7071 0.7071 455.5915 -866.5026)" class="st10" width="14.9" height="56.1"/>
			</g>
		</g>
		<g>
			<path class="st12" d="M1459.1,536.4c0,0,20.9-17.7,20.3-35.7c-1.6-43.9,1.6-76-1.6-100.3c-8-60.9-24.9-73-27.9-100.5
				c-2.6-23.1,5-164.8-13-199.7c-19.1-36.9-65.2-41.5-97.4-33c-22.8,6-28.3,24.1-30.4,35.6c-1.6,8.8-1.8,16.5,2.7,35.8"/>
			<path class="st12" d="M1390.3,66.1c23.7,6.2,25.7,29.3,27.5,56.9c1.8,27.6,33.3,135.3,30.9,171.2c-2.4,35.9-1.1,91.7,6.5,115.8
				c7.6,24.1,21.6,54.8,23.8,80.9"/>
			<path class="st12" d="M1124,536.4c0,0-20.9-17.7-20.3-35.7c1.6-43.9-1.6-76,1.6-100.3c8-60.9,24.9-73,27.9-100.5
				c2.6-23.1-5-164.8,13-199.7c19.1-36.9,65.2-41.5,97.4-33c22.8,6,47.4,21.8,51.6,35.6c2.6,8.6,8.6,16.5,4.2,35.8"/>
			<path class="st12" d="M1192.8,66.1c-23.7,6.2-25.7,29.3-27.5,56.9c-1.8,27.6-33.3,135.3-30.9,171.2s1.1,91.7-6.5,115.8
				s-21.6,54.8-23.8,80.9"/>
			<path class="st12" d="M1339.4,67.2c0,0-23.1-47.7-24.2-62.9c-1.1-15.2,13.1-41.3,23.2-68.4c5.7-15.3,5-30.2,3.3-40.3
				c-1.3-7.6-6.4-14-13.5-16.9l-4.6-1.9"/>
			<line class="st12" x1="1315.3" y1="0.9" x2="1321.1" y2="76.5"/>
			<path class="st12" d="M1242.2,66.4c0,0,23.1-46.8,24.2-62s-13.1-41.3-23.2-68.4c-6.5-17.4-4.7-34.3-2.5-44.1
				c1.2-5.4,4.3-10.1,8.7-13.3l4.8-3.5"/>
			<line class="st12" x1="1266.4" y1="0.9" x2="1260.5" y2="73.1"/>
			<path class="st12" d="M1295.1,186.8c0,0-3.9,223.5,0.4,234.6c4.3,11.1,78.3,67.9,82.1,115c8.8,108-27.9,228.6-29.6,234.1
				c-6.6,21.4,19,145.2,13.3,195.2c-5.7,50-26.4,117.2-29.7,141.5c-3.2,24.3-5.6,54.3-5.6,54.3"/>
			<path class="st12" d="M1324.2,452c13,13.8,18.6,46.7,16.4,84.3c-2.1,37.6,8.4,197.7,2.4,249.2s-18.1,154.4-14.2,193
				c3.9,38.6,7.1,90.2,2.9,128.7"/>
			<path class="st12" d="M1294,418c-4.3,11.1-86.7,71.3-90.5,118.4c-8.8,108,27.9,228.6,29.6,234.1c6.6,21.4-19,145.2-13.3,195.2
				c5.7,50,26.4,117.2,29.7,141.5c3.2,24.3,5.6,54.3,5.6,54.3"/>
			<path class="st12" d="M1257.4,454.2c-13,13.8-19,44.6-16.9,82.2s-8.4,197.7-2.4,249.2s18.1,154.4,14.2,193
				c-3.9,38.6-7.1,90.2-2.9,128.7"/>
		</g>
		<path class="st1" d="M1296.5,115.5c0,0,4.3,6.4,3.8,7.8c-0.4,1.4-3.7,2.6-7.2,11c-2.3,5.8,0.9,11.3-0.6,12.4
			c-1.6,1.1-5.7,7.9-6.9,10.2c-8.9,16.7,4,34.6,13.3,41.2c9.3,6.5,18.4,6.7,24.3,9.3c8.2,3.5,19,5.8,25.3-5.3c0,0,4.1-8.5-1-24.1
			c-2.9-8.9-6.4-15.4-8.1-17.8c-5.5-7.7-11.2-11.2-13.8-12.6c-1.4-0.7-0.8-3.8,2-5c2.8-1.3,6-0.3,6-0.3l1-4c0,0-3.9-1.3-5.8-0.9
			c-1.9,0.3,2.1-4.2,2.3-7.3c0,0-2.7-2.3-4.4-1.7c0,0-1,3.7-3.5,7.7c0,0,1-9.6-5.9-14.6c0,0,1.6-8.1,2.1-8.8c0,0-3.2-1.7-4.5-1.4
			c0,0-1.9,8.1-2.2,8.3c-0.3,0.2-0.9,1.2-1.5,0.2c-0.6-1-0.8-9.6-0.8-9.6l-4.4,0.5c0,0,1.9,9.3,0.7,9.8c-0.4,0.2-0.8,0.8-1.6,0.1
			c-2.1-1.8-4.3-6.9-4.3-7.3C1300.7,112.8,1296.5,115.5,1296.5,115.5z"/>
		<g>
			<circle class="st11" cx="1257.7" cy="-125.6" r="13.6"/>
			<circle class="st11" cx="1278" cy="-137.2" r="14.7"/>
			<circle class="st11" cx="1300.6" cy="-138.7" r="16.3"/>
			<circle class="st11" cx="1251.5" cy="-120.1" r="8.1"/>
			<circle class="st11" cx="1331" cy="-120.1" r="8.1"/>
			<circle class="st11" cx="1320" cy="-131.6" r="11"/>
			<rect x="1251.5" y="-125.6" class="st11" width="79.6" height="13.6"/>
			<rect x="1276.9" y="-134.7" class="st11" width="14.3" height="17.6"/>
		</g>
	</g>
	<g>
		<rect x="688.6" y="-112.4" class="st2" width="283.7" height="41.9"/>
		<text transform="matrix(1 0 0 1 688.5574 -88.2456)" class="st1 st3 st13">HEAD</text>
	</g>
	<line class="st14" x1="1301" y1="-134.8" x2="688.6" y2="-136.5"/>
	<g>
		<rect x="1531.3" y="615.7" class="st2" width="360.9" height="195.4"/>
		<text transform="matrix(1 0 0 1 1725.4564 633.2559)" class="st1 st3 st4">Premature birth </text>
		<text transform="matrix(1 0 0 1 1634.3569 669.2559)" class="st1 st3 st4">Reduced weight at birth </text>
		<text transform="matrix(1 0 0 1 1752.1553 705.2559)" class="st1 st3 st4">Preclampsia</text>
		<text transform="matrix(1 0 0 1 1613.4572 741.2559)" class="st1 st3 st4">Reduction in sperm quality</text>
	</g>
	<g>
		<rect x="1525.5" y="520.1" class="st2" width="366.7" height="123.5"/>
		<text transform="matrix(1 0 0 1 1574.3154 544.2064)" class="st1 st3 st13">REPRODUCTIVE SYSTEM </text>
		<text transform="matrix(1 0 0 1 1729.0131 581.7064)" class="st1 st3 st13">AND FETUS   </text>
	</g>
	<g>
		<rect x="688.6" y="564.7" class="st2" width="283.7" height="57.7"/>
		<text transform="matrix(1 0 0 1 688.5591 588.7833)" class="st1 st3 st13">GENERAL/OTHERS</text>
	</g>
	<line class="st14" x1="1184.7" y1="542.3" x2="688.6" y2="540.6"/>
	<g>
		<g>
			<rect x="688.6" y="622.7" class="st2" width="538.6" height="474.6"/>
			<text transform="matrix(1 0 0 1 688.5596 640.2677)" class="st1 st3 st4">Obesity</text>
			<text transform="matrix(1 0 0 1 688.5596 676.2677)" class="st1 st3 st4">Diabetes</text>
			<text transform="matrix(1 0 0 1 688.5596 712.2677)" class="st1 st3 st4">Metabolic syndrome</text>
			<text transform="matrix(1 0 0 1 688.5596 748.2677)" class="st1 st3 st4">Nuisance, stress</text>
			<text transform="matrix(1 0 0 1 688.5596 784.2677)" class="st1 st3 st4">Sleep disorder</text>
			<text transform="matrix(1 0 0 1 688.5596 820.2677)" class="st3 st4">Injuries from work and traffic accidents</text>
			<text transform="matrix(1 0 0 1 688.5596 856.2677)" class="st1 st3 st4">Colon cancer</text>
			<text transform="matrix(1 0 0 1 688.5596 892.3676)" class="st1 st3 st4">Systemic inflammation</text>
			<text transform="matrix(1 0 0 1 688.5596 928.3676)" class="st1 st3 st4">Worse general health</text>
			<text transform="matrix(1 0 0 1 688.5596 964.3676)" class="st1 st3 st4">Increase in mortality</text>
		</g>
		<circle class="st6" cx="677.2" cy="777" r="5.5"/>
		<circle class="st8" cx="677.2" cy="632.6" r="5.5"/>
		<circle class="st7" cx="677.2" cy="811.5" r="5.5"/>
		<g>
			<circle class="st5" cx="677.2" cy="669.2" r="5.5"/>
			<circle class="st8" cx="663.2" cy="669.2" r="5.5"/>
		</g>
		<g>
			<circle class="st6" cx="677.2" cy="741.3" r="5.5"/>
			<circle class="st9" cx="663.4" cy="741.3" r="5.5"/>
		</g>
		<circle class="st9" cx="677.2" cy="919.1" r="5.5"/>
		<g>
			<circle class="st7" cx="650.9" cy="954.7" r="5.5"/>
			<ellipse class="st8" cx="637.7" cy="954.7" rx="5.5" ry="5.5"/>
			<circle class="st9" cx="624.7" cy="954.7" r="5.5"/>
			<circle class="st6" cx="664" cy="954.7" r="5.5"/>
			<circle class="st5" cx="677.2" cy="954.7" r="5.5"/>
		</g>
		<circle class="st8" cx="677.2" cy="703.5" r="5.5"/>
		<circle class="st8" cx="677.2" cy="846.4" r="5.5"/>
		<circle class="st5" cx="677.2" cy="883.4" r="5.5"/>
	</g>
	<circle class="st5" cx="1904.7" cy="625.6" r="5.5"/>
	<circle class="st5" cx="1904.7" cy="663.1" r="5.5"/>
	<circle class="st5" cx="1904.7" cy="733.1" r="5.5"/>
	<circle class="st7" cx="1918.6" cy="625.6" r="5.5"/>
	<circle class="st5" cx="1904.7" cy="699.3" r="5.5"/>
	<circle class="st5" cx="1904.7" cy="-42.2" r="5.5"/>
	<circle class="st5" cx="1904.7" cy="17.8" r="5.5"/>
	<g>
		<circle class="st8" cx="1918.6" cy="53.9" r="5.5"/>
		<circle class="st5" cx="1904.7" cy="53.6" r="5.5"/>
	</g>
	<circle class="st5" cx="1904.7" cy="125.8" r="5.5"/>
	<circle class="st5" cx="1904.7" cy="89.8" r="5.5"/>
	<circle class="st8" cx="1918.6" cy="937.6" r="5.5"/>
	<circle class="st6" cx="1904.7" cy="937.6" r="5.5"/>
	<circle class="st5" cx="1904.7" cy="974.1" r="5.5"/>
	<circle class="st8" cx="677.2" cy="463.7" r="5.5"/>
	<g>
		<rect x="1534.4" y="-53.5" class="st2" width="357.8" height="214.7"/>
		<text transform="matrix(1 0 0 1 1577.5186 -35.9352)" class="st1 st3 st4">Chronic Obstructive Pulmonary </text>
		<text transform="matrix(1 0 0 1 1727.6566 -9.935)" class="st1 st3 st4">Disease (COPD) </text>
		<text transform="matrix(1 0 0 1 1801.5692 26.065)" class="st1 st3 st4">Asthma</text>
		<text transform="matrix(1 0 0 1 1676.4591 62.065)" class="st1 st3 st4">Respiratory diseases </text>
		<text transform="matrix(1 0 0 1 1769.9292 98.065)" class="st1 st3 st4">Pneumonia</text>
		<text transform="matrix(1 0 0 1 1760.0791 134.0649)" class="st1 st3 st4">Lung cancer</text>
	</g>
	<g>
		<rect x="1513" y="-111.4" class="st2" width="385.2" height="40.9"/>
		<text transform="matrix(1 0 0 1 1625.425 -87.3075)" class="st1 st3 st13">RESPIRATORY TRACT</text>
	</g>
	<polyline class="st14" points="1892.2,-133.8 1529.4,-135.3 1349.7,136.7 	"/>
	<g>
		<rect x="688.6" y="453.9" class="st2" width="357.8" height="48.9"/>
		<text transform="matrix(1 0 0 1 688.5586 471.4243)" class="st1 st3 st4">Breast cancer </text>
	</g>
	<g>
		<rect x="688.6" y="394.5" class="st2" width="385.2" height="138.5"/>
		<text transform="matrix(1 0 0 1 688.5576 418.5963)" class="st1 st3 st13">BREAST</text>
	</g>
	<polyline class="st14" points="688.6,372.1 1051.4,370.6 1201.4,179.6 	"/>
	<circle class="st6" cx="1918.3" cy="410.5" r="5.5"/>
	<circle class="st8" cx="1932.1" cy="410.5" r="5.5"/>
	<circle class="st6" cx="1918.6" cy="303.7" r="5.5"/>
	<circle class="st8" cx="1932.4" cy="303.7" r="5.5"/>
	<circle class="st5" cx="1904.7" cy="303.7" r="5.5"/>
	<circle class="st5" cx="1904.5" cy="338.7" r="5.5"/>
	<circle class="st5" cx="1904.5" cy="374.6" r="5.5"/>
	<circle class="st5" cx="1904.5" cy="410.5" r="5.5"/>
	<g>
		<rect x="1535.3" y="292.1" class="st2" width="357.8" height="151.9"/>
		<text transform="matrix(1 0 0 1 1675.7361 309.6439)" class="st1 st3 st4">Myocardial infarction</text>
		<text transform="matrix(1 0 0 1 1771.3347 345.6439)" class="st1 st3 st4">Arrhythmia</text>
		<text transform="matrix(1 0 0 1 1645.2361 381.6439)" class="st1 st3 st4">Heart congestive failure</text>
		<text transform="matrix(1 0 0 1 1640.8359 417.6439)" class="st1 st3 st4">Cardiovascular diseases</text>
	</g>
	<g>
		<rect x="1507.9" y="233.3" class="st2" width="385.2" height="321.3"/>
		<text transform="matrix(1 0 0 1 1795.9838 257.4649)" class="st1 st3 st13">HEART</text>
	</g>
	<polyline class="st14" points="1893.1,211 1530.3,209.6 1329.5,168.2 	"/>
	<g>
		<rect x="1534.4" y="926.2" class="st2" width="357.8" height="133.5"/>
		<text transform="matrix(1 0 0 1 1745.5488 943.7615)" class="st1 st3 st4">Hypertension</text>
		<text transform="matrix(1 0 0 1 1636.7495 979.7615)" class="st1 st3 st4">Deep venous thrombosis</text>
	</g>
	<g>
		<rect x="1507" y="867.8" class="st2" width="385.2" height="59.8"/>
		<text transform="matrix(1 0 0 1 1766.639 891.9212)" class="st1 st3 st13">ARTERIES</text>
	</g>
	<line class="st14" x1="1892.2" y1="844" x2="1348" y2="842.3"/>
	<polyline class="st14" points="1324.2,377.1 1506.5,497.2 1892.2,496 	"/>
</g>
</svg>
