<?xml version="1.0" encoding="utf-8"?>
<!-- Generator: Adobe Illustrator 19.0.0, SVG Export Plug-In . SVG Version: 6.00 Build 0)  -->
<svg version="1.1" xmlns="http://www.w3.org/2000/svg" xmlns:xlink="http://www.w3.org/1999/xlink" x="0px" y="0px"
	 viewBox="0 0 580.4 1438.3" style="enable-background:new 0 0 580.4 1438.3;" xml:space="preserve">
<style type="text/css">
	.st0{opacity:0.3;}
	.st1{fill:#FCD7A6;}
	.st2{fill:#FBE2E0;}
	.st3{fill:#F29700;}
	.st4{fill:#F8D2D0;}
	.st5{fill:none;stroke:#F0A0A0;stroke-width:6.0028;stroke-linecap:round;stroke-miterlimit:10;}
	.st6{fill:#F0A0A0;}
	.st7{fill:#181717;}
	.st8{fill:#010202;}
	.st9{display:none;}
</style>
<g id="Cos_1_" class="st0">
	<g id="XMLID_95_">
		<g id="XMLID_124_">
			<path id="XMLID_134_" class="st1" d="M381,21.9c-0.4,0-0.7,0-1,0c-0.3,0-0.7,0-1,0c-44.9-0.4-62.4,35.1-59.8,80.4
				c2.5,44.3,19.6,91.2,60.6,92.1v0c0.1,0,0.2,0,0.3,0c0.1,0,0.2,0,0.3,0v0c41-0.9,58.1-47.8,60.6-92.1
				C443.4,57,425.9,21.5,381,21.9z"/>
			<g id="XMLID_131_">
				
					<ellipse id="XMLID_133_" transform="matrix(0.9911 0.1335 -0.1335 0.9911 19.8803 -57.4786)" class="st1" cx="438.6" cy="119.5" rx="8" ry="23.8"/>
				
					<ellipse id="XMLID_132_" transform="matrix(-0.9911 0.1335 -0.1335 -0.9911 655.4337 195.1312)" class="st1" cx="321.2" cy="119.5" rx="8" ry="23.8"/>
			</g>
			<rect id="XMLID_129_" x="344.8" y="162.2" class="st1" width="70.1" height="73.1"/>
			<g id="XMLID_125_">
				<path id="XMLID_128_" class="st1" d="M392.8,268.3l-48.1-73.8l0,0c0,20.9-16.9,37.8-37.8,37.8l0,0L392.8,268.3z"/>
				<path id="XMLID_126_" class="st1" d="M367,268.3l48.1-73.8l0,0c0,20.9,16.9,37.8,37.8,37.8l0,0L367,268.3z"/>
			</g>
		</g>
		<g id="XMLID_96_">
			<rect id="XMLID_123_" x="290.3" y="231.9" class="st1" width="178.7" height="281.4"/>
			<path id="XMLID_122_" class="st1" d="M262.9,270.4h233.4v86.2c0,35.4-28.7,64-64,64H326.9c-35.4,0-64-28.7-64-64V270.4z"/>
			<path id="XMLID_121_" class="st1" d="M217.1,353.7h325.1v-59.3c0-34.5-28-62.4-62.4-62.4H279.5c-34.5,0-62.4,28-62.4,62.4V353.7z
				"/>
			<path id="XMLID_120_" class="st1" d="M469,513.4h-89.4v196.1h127.1c0,0,0-24.5,0-74.5C506.7,587,469,513.4,469,513.4z"/>
			<path id="XMLID_118_" class="st1" d="M290.2,513.4h89.4v196.1H252.5c0,0,0-24.5,0-74.5C252.5,587,290.2,513.4,290.2,513.4z"/>
			<g id="XMLID_113_">
				<path id="XMLID_117_" class="st1" d="M464.9,960.5c0,19.3-77.1,0-77.1,0v-251c0,0,118.8-29.7,118.8,0
					C506.7,816.2,464.9,931.4,464.9,960.5z"/>
				<path id="XMLID_116_" class="st1" d="M443.8,1275.3h-41l-14.9-314.8h76.9c0,0,6.4,92.3,6.4,123.2
					C471.1,1170.3,443.8,1275.3,443.8,1275.3z"/>
				<path id="XMLID_115_" class="st1" d="M451.6,1370.3c-0.1,2.3-2.4,6-4.9,9.3c-3.8,5-9.7,7.8-15.9,7.8H401
					c-7,0-12.4-6.1-11.4-13.1l13.1-99h41C443.7,1275.3,452.6,1341.1,451.6,1370.3z"/>
			</g>
			<g id="XMLID_105_">
				<path id="XMLID_111_" class="st1" d="M294.3,960.5c0,19.3,77.1,0,77.1,0v-251c0,0-118.8-29.7-118.8,0
					C252.5,816.2,294.3,931.4,294.3,960.5z"/>
				<path id="XMLID_109_" class="st1" d="M315.4,1275.3h41l14.9-314.8h-76.9c0,0-6.4,92.3-6.4,123.2
					C288.1,1170.3,315.4,1275.3,315.4,1275.3z"/>
				<path id="XMLID_107_" class="st1" d="M307.6,1370.3c0.1,2.3,2.4,6,4.9,9.3c3.8,5,9.7,7.8,15.9,7.8h29.7c7,0,12.4-6.1,11.4-13.1
					l-13.1-99h-41C315.5,1275.3,306.6,1341.1,307.6,1370.3z"/>
			</g>
			<polygon id="XMLID_104_" class="st1" points="562.6,503 516.7,508.3 488.9,290.9 542,284.8 			"/>
			<path id="XMLID_103_" class="st1" d="M577.4,687.6l-27,3.1l-33.7-182.5c0,0,42.4-39.8,43.8-27.7c2.5,21.5,8.9,43.4,12.1,73.1
				C576.2,587,577.4,687.6,577.4,687.6z"/>
			<path id="XMLID_102_" class="st1" d="M577.4,687.6v41.4c0,8.9-2.7,17.6-7.9,24.9l-32.9,46.8c-2.7,3.9-8,4.9-11.9,2.3h0
				c-3.7-2.4-5-7.1-3.1-11.1l20.4-42.3l-2.8-15.3l-14.6,28.8c-0.7,1.3-2.2,2-3.7,1.6l0,0c-1.5-0.4-2.5-1.9-2.3-3.4l3.1-27.7
				c0.8-7.2,3.3-14.1,7.4-20.1l21.2-22.9L577.4,687.6z"/>
			<g id="XMLID_98_">
				<polygon id="XMLID_101_" class="st1" points="197.2,503 243.1,508.3 271,290.9 217.8,284.8 				"/>
				<path id="XMLID_100_" class="st1" d="M182.4,687.6l27,3.1l33.7-182.5c0,0-42.4-39.8-43.8-27.7c-2.5,21.5-8.9,43.4-12.1,73.1
					C183.6,587,182.4,687.6,182.4,687.6z"/>
				<path id="XMLID_99_" class="st1" d="M182.4,687.6v41.4c0,8.9,2.7,17.6,7.9,24.9l32.9,46.8c2.7,3.9,8,4.9,11.9,2.3l0,0
					c3.7-2.4,5-7.1,3.1-11.1l-20.4-42.3l2.8-15.3l14.6,28.8c0.7,1.3,2.2,2,3.7,1.6h0c1.5-0.4,2.5-1.9,2.3-3.4l-3.1-27.7
					c-0.8-7.2-3.3-14.1-7.4-20.1l-21.2-22.9L182.4,687.6z"/>
			</g>
		</g>
	</g>
	<g id="XMLID_88_">
		<g id="XMLID_92_">
			<path id="XMLID_94_" class="st2" d="M397.4,238.6L397.4,238.6c3.9-2.5,8.4-3.9,13.1-3.9h6.3c7.9,0.5,12.9,3.1,16,7.1
				c21.4,27.7,48.6,65,55.8,114.3c1.7,11.9-15.2,35.7-19.8,39.1c-55.8,41.5-87.2-27.9-87.2-27.9l5-109.7
				C386.9,249.9,391,242.8,397.4,238.6z"/>
			<circle id="XMLID_93_" class="st2" cx="434" cy="361.4" r="54.6"/>
		</g>
		<g id="XMLID_89_">
			<path id="XMLID_91_" class="st2" d="M363.2,238.6L363.2,238.6c-3.9-2.5-8.4-3.9-13.1-3.9h-6.3c-7.9,0.5-12.9,3.1-16,7.1
				c-21.4,27.7-48.6,65-55.8,114.3c-1.7,11.9,15.2,35.7,19.8,39.1c55.8,41.5,87.2-27.9,87.2-27.9l17.6-99L374,257.6
				C373.7,249.9,369.6,242.8,363.2,238.6z"/>
			<circle id="XMLID_90_" class="st2" cx="326.6" cy="361.4" r="54.6"/>
		</g>
	</g>
	<path id="XMLID_2_" class="st3" d="M379.9,681L379.9,681c-30.3,0-54.9-24.6-54.9-54.9v-61.7c0-30.3,24.6-54.9,54.9-54.9h0
		c30.3,0,54.9,24.6,54.9,54.9v61.7C434.8,656.5,410.2,681,379.9,681z"/>
	<g id="XMLID_66_">
		<g id="XMLID_71_">
			<g id="XMLID_81_">
				<circle id="XMLID_86_" class="st4" cx="347.5" cy="360" r="22.4"/>
				<circle id="XMLID_85_" class="st4" cx="317.7" cy="370.8" r="24.4"/>
				<circle id="XMLID_84_" class="st4" cx="356.4" cy="295.1" r="13.5"/>
				<rect id="XMLID_83_" x="340.1" y="295.1" class="st4" width="29.9" height="61"/>
				<path id="XMLID_82_" class="st4" d="M294.2,364.2c13.2-52.4,53.6-79.5,53.6-79.5l5.4,70.4C353.3,355,290.6,378.7,294.2,364.2z"
					/>
			</g>
			<g id="XMLID_74_">
				<circle id="XMLID_80_" class="st4" cx="413.1" cy="360" r="22.4"/>
				<circle id="XMLID_79_" class="st4" cx="442.9" cy="370.8" r="24.4"/>
				<circle id="XMLID_78_" class="st4" cx="404.2" cy="295.1" r="13.5"/>
				<rect id="XMLID_76_" x="390.6" y="295.1" class="st4" width="29.9" height="61"/>
				<path id="XMLID_75_" class="st4" d="M466.4,364.2c-13.2-52.4-53.6-79.5-53.6-79.5l-5.4,70.4C407.3,355,470,378.7,466.4,364.2z"
					/>
			</g>
		</g>
		<rect id="XMLID_70_" x="372.8" y="234.3" class="st4" width="14.9" height="56.1"/>
		<g id="XMLID_67_">
			
				<rect id="XMLID_69_" x="390.5" y="278.7" transform="matrix(0.7071 -0.7071 0.7071 0.7071 -100.3745 371.237)" class="st4" width="14.9" height="56.1"/>
			
				<rect id="XMLID_68_" x="355.2" y="278.7" transform="matrix(-0.7071 -0.7071 0.7071 -0.7071 402.179 780.1494)" class="st4" width="14.9" height="56.1"/>
		</g>
	</g>
	<g id="XMLID_20_">
		<path id="XMLID_65_" class="st5" d="M548,726.4c0,0,20.9-17.7,20.3-35.7c-1.6-43.9,1.6-76-1.6-100.3c-8-60.9-24.9-73-27.9-100.5
			c-2.6-23.1,5-164.8-13-199.7c-19.1-36.9-65.2-41.5-97.4-33c-22.8,6-28.3,24.1-30.4,35.6c-1.6,8.8-1.8,16.5,2.7,35.8"/>
		<path id="XMLID_63_" class="st5" d="M479.2,256.1c23.7,6.2,25.7,29.3,27.5,56.9c1.8,27.6,33.3,135.3,30.9,171.2
			c-2.4,35.9-1.1,91.7,6.5,115.8c7.6,24.1,21.6,54.8,23.8,80.9"/>
		<path id="XMLID_61_" class="st5" d="M212.9,726.4c0,0-20.9-17.7-20.3-35.7c1.6-43.9-1.6-76,1.6-100.3c8-60.9,24.9-73,27.9-100.5
			c2.6-23.1-5-164.8,13-199.7c19.1-36.9,65.2-41.5,97.4-33c22.8,6,47.4,21.8,51.6,35.6c2.6,8.6,8.6,16.5,4.2,35.8"/>
		<path id="XMLID_60_" class="st5" d="M281.7,256.1c-23.7,6.2-25.7,29.3-27.5,56.9c-1.8,27.6-33.3,135.3-30.9,171.2
			c2.4,35.9,1.1,91.7-6.5,115.8S195.2,655,193,681"/>
		<path id="XMLID_55_" class="st5" d="M428.4,257.3c0,0-23.1-47.7-24.2-62.9c-1.1-15.2,13.1-41.3,23.2-68.4
			c5.7-15.3,5-30.2,3.3-40.3c-1.3-7.6-6.4-14-13.5-16.9l-4.6-1.9"/>
		<line id="XMLID_54_" class="st5" x1="404.2" y1="191" x2="410" y2="266.6"/>
		<path id="XMLID_48_" class="st5" d="M331.1,256.4c0,0,23.1-46.8,24.2-62c1.1-15.2-13.1-41.3-23.2-68.4
			c-6.5-17.4-4.7-34.3-2.5-44.1c1.2-5.4,4.3-10.1,8.7-13.3L343,65"/>
		<line id="XMLID_40_" class="st5" x1="355.3" y1="191" x2="349.4" y2="263.2"/>
		<path id="XMLID_29_" class="st5" d="M384,376.9c0,0-3.9,223.5,0.4,234.6c4.3,11.1,78.3,67.9,82.1,115
			c8.8,108-27.9,228.6-29.6,234.1c-6.6,21.4,19,145.2,13.3,195.2s-26.4,117.2-29.7,141.5c-3.2,24.3-5.6,54.3-5.6,54.3"/>
		<path id="XMLID_27_" class="st5" d="M413.1,642.1c13,13.8,18.6,46.7,16.4,84.3c-2.1,37.6,8.4,197.7,2.4,249.2
			c-6,51.5-18.1,154.4-14.2,193s7.1,90.2,2.9,128.7"/>
		<path id="XMLID_26_" class="st5" d="M382.9,608c-4.3,11.1-86.7,71.3-90.5,118.4c-8.8,108,27.9,228.6,29.6,234.1
			c6.6,21.4-19,145.2-13.3,195.2c5.7,50,26.4,117.2,29.7,141.5c3.2,24.3,5.6,54.3,5.6,54.3"/>
		<path id="XMLID_21_" class="st5" d="M346.3,644.2c-13,13.8-19,44.6-16.9,82.2c2.1,37.6-8.4,197.7-2.4,249.2
			c6,51.5,18.1,154.4,14.2,193c-3.9,38.6-7.1,90.2-2.9,128.7"/>
	</g>
	<path id="XMLID_18_" class="st6" d="M385.4,305.6c0,0,4.3,6.4,3.8,7.8c-0.4,1.4-3.7,2.6-7.2,11c-2.3,5.8,0.9,11.3-0.6,12.4
		c-1.6,1.1-5.7,7.9-6.9,10.2c-8.9,16.7,4,34.6,13.3,41.2c9.3,6.5,18.4,6.7,24.3,9.3c8.2,3.5,19,5.8,25.3-5.3c0,0,4.1-8.5-1-24.1
		c-2.9-8.9-6.4-15.4-8.1-17.8c-5.5-7.7-11.2-11.2-13.8-12.6c-1.4-0.7-0.8-3.8,2-5c2.8-1.3,6-0.3,6-0.3l1-4c0,0-3.9-1.3-5.8-0.9
		c-1.9,0.3,2.1-4.2,2.3-7.3c0,0-2.7-2.3-4.4-1.7c0,0-1,3.7-3.5,7.7c0,0,1-9.6-5.9-14.6c0,0,1.6-8.1,2.1-8.8c0,0-3.2-1.7-4.5-1.4
		c0,0-1.9,8.1-2.2,8.3c-0.3,0.2-0.9,1.2-1.5,0.2c-0.6-1-0.8-9.6-0.8-9.6l-4.4,0.5c0,0,1.9,9.3,0.7,9.8c-0.4,0.2-0.8,0.8-1.6,0.1
		c-2.1-1.8-4.3-6.9-4.3-7.3C389.6,302.8,385.4,305.6,385.4,305.6z"/>
	<g id="XMLID_5_">
		<circle id="XMLID_15_" class="st3" cx="346.6" cy="64.4" r="13.6"/>
		<circle id="XMLID_13_" class="st3" cx="366.9" cy="52.8" r="14.7"/>
		<circle id="XMLID_12_" class="st3" cx="389.5" cy="51.4" r="16.3"/>
		<circle id="XMLID_11_" class="st3" cx="340.4" cy="69.9" r="8.1"/>
		<circle id="XMLID_10_" class="st3" cx="419.9" cy="69.9" r="8.1"/>
		<circle id="XMLID_9_" class="st3" cx="408.9" cy="58.4" r="11"/>
		<rect id="XMLID_8_" x="340.4" y="64.4" class="st3" width="79.6" height="13.6"/>
		<rect id="XMLID_6_" x="365.8" y="55.4" class="st3" width="14.3" height="17.6"/>
	</g>
</g>
<g id="General_x2F_Altres">
	<g id="XMLID_497_">
		<g id="XMLID_744_">
			<path id="XMLID_774_" class="st7" d="M98.2,467.2h-4.4v-1.4c-0.6,0.5-1.4,0.9-2.3,1.2c-0.9,0.3-2.1,0.5-3.4,0.5
				c-1.7,0-3.3-0.3-4.8-0.9c-1.4-0.6-2.7-1.4-3.7-2.4c-1-1-1.8-2.3-2.4-3.7s-0.9-3.1-0.9-4.9c0-1.6,0.3-3.2,0.8-4.6
				c0.6-1.4,1.4-2.7,2.4-3.8c1-1.1,2.3-1.9,3.7-2.5c1.5-0.6,3.1-0.9,4.8-0.9c1.2,0,2.3,0.1,3.3,0.4s1.9,0.6,2.6,1
				c0.8,0.4,1.4,0.9,2,1.4c0.6,0.5,1.1,1.1,1.5,1.7l-3.6,2.6c-0.3-0.4-0.6-0.7-0.9-1.1c-0.4-0.4-0.8-0.7-1.2-0.9
				c-0.5-0.3-1-0.5-1.6-0.7c-0.6-0.2-1.3-0.2-2-0.2c-1,0-2,0.2-2.8,0.6c-0.9,0.4-1.6,0.9-2.2,1.5c-0.6,0.7-1.1,1.4-1.4,2.4
				c-0.3,0.9-0.5,1.9-0.5,3c0,1.2,0.2,2.2,0.5,3.1s0.9,1.7,1.5,2.4c0.6,0.7,1.4,1.2,2.3,1.5c0.9,0.4,1.8,0.5,2.9,0.5
				c1.3,0,2.4-0.2,3.4-0.6c0.9-0.4,1.6-0.9,2.1-1.4v-2.6H90V455h8.2V467.2z"/>
			<path id="XMLID_772_" class="st7" d="M102.8,467.2v-22.8h10.5v4.3h-5.9v4.8h5.7v4.3h-5.7v5.2h6v4.3H102.8z"/>
			<path id="XMLID_770_" class="st7" d="M122,452.2v15.1h-4.5v-22.8h4.8l9.8,15.3v-15.3h4.5v22.8H132L122,452.2z"/>
			<path id="XMLID_768_" class="st7" d="M141.5,467.2v-22.8h10.5v4.3h-5.9v4.8h5.7v4.3h-5.7v5.2h6v4.3H141.5z"/>
			<path id="XMLID_765_" class="st7" d="M170.4,451c0,1.3-0.3,2.5-0.8,3.4c-0.6,1-1.3,1.7-2.3,2.2l5.4,10.7h-4.9l-4.9-9.8h-2v9.8
				h-4.6v-22.8h7.1c2.3,0,4,0.6,5.2,1.7S170.4,448.8,170.4,451z M160.8,448.4v5.3h2.1c0.8,0,1.5-0.2,1.9-0.7c0.5-0.5,0.7-1.1,0.7-2
				c0-0.8-0.2-1.4-0.7-1.9s-1.1-0.7-1.9-0.7H160.8z"/>
			<path id="XMLID_762_" class="st7" d="M189.2,461h-7.8l-2.2,6.3h-4.5l8.3-22.8h4.8l8.6,22.8h-4.9L189.2,461z M182.8,457.1h5
				l-2.5-6.9L182.8,457.1z"/>
			<path id="XMLID_760_" class="st7" d="M199.4,467.2v-22.8h4.6V463h5.8v4.3H199.4z"/>
			<path id="XMLID_758_" class="st7" d="M215.4,473h-4.1l11.4-29.9h4.1L215.4,473z"/>
			<path id="XMLID_755_" class="st7" d="M228.2,455.9c0-1.7,0.3-3.2,0.9-4.7c0.6-1.5,1.4-2.7,2.4-3.8c1-1.1,2.3-1.9,3.7-2.5
				s3-0.9,4.8-0.9c1.8,0,3.4,0.3,4.9,0.9s2.7,1.4,3.8,2.5c1,1.1,1.8,2.3,2.4,3.7c0.6,1.4,0.9,3,0.9,4.7c0,1.7-0.3,3.2-0.8,4.7
				c-0.6,1.5-1.4,2.7-2.4,3.8s-2.3,1.9-3.8,2.5c-1.5,0.6-3.1,0.9-4.9,0.9c-1.8,0-3.5-0.3-4.9-0.9c-1.5-0.6-2.7-1.4-3.7-2.5
				c-1-1.1-1.8-2.3-2.4-3.7C228.5,459.1,228.2,457.6,228.2,455.9z M233,455.8c0,1.1,0.2,2.1,0.5,3s0.8,1.7,1.4,2.4
				c0.6,0.7,1.4,1.2,2.2,1.6c0.9,0.4,1.8,0.6,2.9,0.6c1.1,0,2.1-0.2,3-0.6c0.9-0.4,1.6-0.9,2.2-1.6c0.6-0.7,1.1-1.5,1.4-2.4
				c0.3-0.9,0.5-1.9,0.5-3c0-1.1-0.2-2.1-0.5-3c-0.3-0.9-0.8-1.7-1.4-2.4s-1.4-1.2-2.2-1.6c-0.9-0.4-1.9-0.6-2.9-0.6
				c-1.1,0-2.1,0.2-3,0.6c-0.9,0.4-1.6,0.9-2.2,1.6s-1.1,1.5-1.4,2.4C233.2,453.8,233,454.8,233,455.8z"/>
			<path id="XMLID_753_" class="st7" d="M262.3,448.7v18.5h-4.6v-18.5h-4.2v-4.3h12.9v4.3H262.3z"/>
			<path id="XMLID_750_" class="st7" d="M284.3,451c0,1.3-0.3,2.5-0.8,3.4c-0.6,1-1.3,1.7-2.3,2.2l5.4,10.7h-4.9l-4.9-9.8h-2v9.8
				h-4.6v-22.8h7.1c2.3,0,4,0.6,5.2,1.7S284.3,448.8,284.3,451z M274.8,448.4v5.3h2.1c0.8,0,1.5-0.2,1.9-0.7c0.5-0.5,0.7-1.1,0.7-2
				c0-0.8-0.2-1.4-0.7-1.9s-1.1-0.7-1.9-0.7H274.8z"/>
			<path id="XMLID_747_" class="st7" d="M287.7,455.9c0-1.7,0.3-3.2,0.9-4.7c0.6-1.5,1.4-2.7,2.4-3.8c1-1.1,2.3-1.9,3.7-2.5
				s3-0.9,4.8-0.9c1.8,0,3.4,0.3,4.9,0.9s2.7,1.4,3.8,2.5c1,1.1,1.8,2.3,2.4,3.7c0.6,1.4,0.9,3,0.9,4.7c0,1.7-0.3,3.2-0.8,4.7
				c-0.6,1.5-1.4,2.7-2.4,3.8s-2.3,1.9-3.8,2.5c-1.5,0.6-3.1,0.9-4.9,0.9c-1.8,0-3.5-0.3-4.9-0.9c-1.5-0.6-2.7-1.4-3.7-2.5
				c-1-1.1-1.8-2.3-2.4-3.7C288,459.1,287.7,457.6,287.7,455.9z M292.5,455.8c0,1.1,0.2,2.1,0.5,3s0.8,1.7,1.4,2.4
				c0.6,0.7,1.4,1.2,2.2,1.6c0.9,0.4,1.8,0.6,2.9,0.6c1.1,0,2.1-0.2,3-0.6c0.9-0.4,1.6-0.9,2.2-1.6c0.6-0.7,1.1-1.5,1.4-2.4
				c0.3-0.9,0.5-1.9,0.5-3c0-1.1-0.2-2.1-0.5-3c-0.3-0.9-0.8-1.7-1.4-2.4s-1.4-1.2-2.2-1.6c-0.9-0.4-1.9-0.6-2.9-0.6
				c-1.1,0-2.1,0.2-3,0.6c-0.9,0.4-1.6,0.9-2.2,1.6s-1.1,1.5-1.4,2.4C292.7,453.8,292.5,454.8,292.5,455.8z"/>
			<path id="XMLID_745_" class="st7" d="M319.2,450.2c0,0.6,0.2,1.1,0.5,1.5c0.3,0.4,0.9,0.8,1.6,1.1c0.5,0.2,1.1,0.5,1.6,0.7
				s1.1,0.5,1.8,0.7c1.4,0.6,2.5,1.4,3.2,2.4c0.8,1,1.2,2.3,1.2,3.9c0,1.1-0.2,2.1-0.6,3s-0.9,1.6-1.6,2.2s-1.5,1.1-2.4,1.4
				c-0.9,0.3-1.9,0.5-3,0.5c-1.5,0-2.8-0.2-3.7-0.7c-1-0.5-1.7-1-2.3-1.7s-0.9-1.5-1.1-2.4c-0.2-0.9-0.3-1.8-0.2-2.7h4.4
				c0,0.5,0,0.9,0.1,1.3c0.1,0.4,0.3,0.8,0.5,1.1c0.2,0.3,0.5,0.6,0.9,0.8s0.8,0.3,1.4,0.3c0.8,0,1.5-0.2,2-0.7
				c0.5-0.4,0.8-1.1,0.8-2c0-0.8-0.2-1.4-0.7-1.8c-0.4-0.4-1-0.8-1.8-1.1c-0.6-0.3-1.3-0.6-2-0.8c-0.7-0.2-1.3-0.5-2-0.9
				c-1.1-0.6-2-1.4-2.5-2.4c-0.6-1-0.9-2.2-0.9-3.6c0-0.9,0.2-1.8,0.5-2.6s0.8-1.5,1.4-2c0.6-0.6,1.3-1,2.2-1.3
				c0.9-0.3,1.8-0.5,2.9-0.5c1.3,0,2.4,0.2,3.3,0.5s1.6,0.9,2.1,1.5s0.9,1.3,1.1,2.2s0.3,1.7,0.3,2.6h-4.2c0-0.8-0.2-1.5-0.7-2
				s-1.1-0.8-1.9-0.8c-0.8,0-1.4,0.2-1.8,0.7C319.4,449.1,319.2,449.6,319.2,450.2z"/>
		</g>
	</g>
	<g id="XMLID_73_">
		<g id="XMLID_332_">
			<g id="XMLID_1871_">
				<path id="XMLID_2034_" class="st8" d="M76.7,518.7v-16.6H80v13.5h4.2v3.1H76.7z"/>
				<path id="XMLID_2031_" class="st8" d="M88.2,513.4c0.1,0.8,0.4,1.5,1,2c0.6,0.5,1.3,0.7,2.2,0.7c0.8,0,1.5-0.2,2-0.5
					c0.5-0.4,0.9-0.8,1.3-1.3l2.4,1.4c-0.2,0.4-0.4,0.8-0.8,1.2c-0.3,0.4-0.7,0.8-1.2,1.1c-0.5,0.3-1,0.6-1.6,0.8s-1.3,0.3-2.1,0.3
					c-1,0-1.9-0.2-2.7-0.5c-0.8-0.3-1.5-0.7-2.1-1.3c-0.6-0.6-1-1.3-1.3-2.1c-0.3-0.8-0.5-1.7-0.5-2.8c0-1,0.2-1.8,0.5-2.7
					c0.3-0.8,0.7-1.5,1.3-2.1c0.6-0.6,1.2-1.1,2-1.4s1.6-0.5,2.6-0.5c1,0,1.8,0.2,2.6,0.5s1.4,0.7,2,1.3c0.5,0.6,1,1.2,1.3,2
					c0.3,0.8,0.4,1.7,0.4,2.6c0,0.2,0,0.4,0,0.6c0,0.2,0,0.5,0,0.7H88.2z M91.1,508.4c-0.8,0-1.5,0.2-2,0.7
					c-0.5,0.5-0.8,1.1-0.9,1.8H94c-0.1-0.7-0.4-1.3-0.9-1.8C92.6,508.6,91.9,508.4,91.1,508.4z"/>
				<path id="XMLID_2029_" class="st8" d="M101.4,509.3c0,0.6,0.4,1,1.1,1.2c0.3,0.1,0.6,0.2,0.9,0.2c0.3,0.1,0.6,0.1,0.9,0.2
					c0.5,0.2,1,0.3,1.3,0.6s0.7,0.5,1,0.8c0.3,0.3,0.4,0.7,0.6,1.1c0.1,0.4,0.2,0.9,0.2,1.5c0,0.7-0.1,1.2-0.4,1.7
					c-0.2,0.5-0.6,0.9-1,1.2c-0.4,0.3-0.9,0.6-1.5,0.8c-0.6,0.2-1.2,0.3-1.8,0.3c-0.9,0-1.6-0.1-2.2-0.4c-0.6-0.2-1.1-0.6-1.4-1
					c-0.4-0.4-0.6-0.9-0.7-1.4c-0.1-0.5-0.2-1.1-0.2-1.6h3.1c0,0.5,0.1,0.9,0.3,1.2s0.6,0.5,1.2,0.5c0.4,0,0.8-0.1,1.1-0.3
					c0.3-0.2,0.4-0.5,0.4-0.9c0-0.4-0.1-0.6-0.3-0.8s-0.5-0.4-1-0.5c-0.4-0.1-0.7-0.2-1-0.3s-0.6-0.2-1-0.3c-0.9-0.3-1.6-0.8-2-1.4
					c-0.4-0.6-0.7-1.4-0.7-2.4c0-0.5,0.1-1,0.3-1.5c0.2-0.5,0.5-0.9,0.9-1.2c0.4-0.3,0.9-0.6,1.4-0.8c0.5-0.2,1.1-0.3,1.8-0.3
					c1.4,0,2.4,0.3,3.2,1c0.8,0.7,1.1,1.7,1.2,3h-3c0-0.5-0.1-0.9-0.4-1.2c-0.2-0.3-0.6-0.4-1.1-0.4c-0.4,0-0.7,0.1-0.9,0.3
					S101.4,509,101.4,509.3z"/>
				<path id="XMLID_2026_" class="st8" d="M110.3,505.1c-0.5,0-1-0.2-1.4-0.6s-0.6-0.8-0.6-1.3c0-0.5,0.2-1,0.6-1.4s0.8-0.6,1.4-0.6
					c0.5,0,1,0.2,1.4,0.6s0.6,0.8,0.6,1.4c0,0.5-0.2,1-0.6,1.3S110.8,505.1,110.3,505.1z M111.9,518.7h-3.2v-12.8h3.2V518.7z"/>
				<path id="XMLID_2023_" class="st8" d="M113.3,512.3c0-1,0.2-1.8,0.5-2.7c0.3-0.8,0.8-1.5,1.4-2.1c0.6-0.6,1.3-1.1,2.1-1.4
					s1.7-0.5,2.7-0.5c1,0,1.9,0.2,2.8,0.5s1.5,0.8,2.1,1.4c0.6,0.6,1,1.3,1.4,2.1c0.3,0.8,0.5,1.7,0.5,2.6c0,0.9-0.2,1.8-0.5,2.6
					c-0.3,0.8-0.8,1.5-1.4,2.1c-0.6,0.6-1.3,1.1-2.1,1.4s-1.7,0.5-2.7,0.5c-1,0-1.9-0.2-2.7-0.5c-0.8-0.3-1.5-0.8-2.1-1.4
					c-0.6-0.6-1-1.3-1.4-2.1C113.5,514.2,113.3,513.3,113.3,512.3z M116.5,512.3c0,0.5,0.1,1,0.3,1.5s0.4,0.8,0.7,1.2
					c0.3,0.3,0.7,0.6,1.1,0.8c0.4,0.2,0.9,0.3,1.4,0.3c0.5,0,1-0.1,1.4-0.3c0.4-0.2,0.8-0.4,1.1-0.8s0.5-0.7,0.7-1.2
					c0.2-0.5,0.3-0.9,0.3-1.5c0-0.5-0.1-1-0.3-1.5s-0.4-0.9-0.7-1.2c-0.3-0.3-0.7-0.6-1.1-0.8c-0.4-0.2-0.9-0.3-1.4-0.3
					c-0.5,0-1,0.1-1.4,0.3c-0.4,0.2-0.8,0.4-1.1,0.8c-0.3,0.3-0.5,0.7-0.7,1.2S116.5,511.8,116.5,512.3z"/>
				<path id="XMLID_2021_" class="st8" d="M134.8,510.7c0-0.6-0.1-1.1-0.4-1.5c-0.3-0.4-0.7-0.5-1.3-0.5c-0.6,0-1,0.2-1.3,0.6
					c-0.3,0.4-0.5,0.9-0.5,1.5v8.1h-3.2v-12.8h3.2v1c0.1-0.1,0.2-0.2,0.3-0.3c0.1-0.1,0.3-0.2,0.5-0.4c0.2-0.1,0.5-0.2,0.8-0.3
					c0.3-0.1,0.7-0.1,1.1-0.1c0.8,0,1.4,0.1,1.9,0.4c0.5,0.2,0.9,0.6,1.2,1c0.3,0.4,0.5,0.9,0.7,1.4c0.1,0.5,0.2,1.1,0.2,1.8v8.5
					h-3.2V510.7z"/>
				<path id="XMLID_2018_" class="st8" d="M142.8,513.4c0.1,0.8,0.4,1.5,1,2c0.6,0.5,1.3,0.7,2.2,0.7c0.8,0,1.5-0.2,2-0.5
					c0.5-0.4,0.9-0.8,1.3-1.3l2.4,1.4c-0.2,0.4-0.4,0.8-0.8,1.2c-0.3,0.4-0.7,0.8-1.2,1.1c-0.5,0.3-1,0.6-1.6,0.8s-1.3,0.3-2.1,0.3
					c-1,0-1.9-0.2-2.7-0.5c-0.8-0.3-1.5-0.7-2.1-1.3c-0.6-0.6-1-1.3-1.3-2.1c-0.3-0.8-0.5-1.7-0.5-2.8c0-1,0.2-1.8,0.5-2.7
					c0.3-0.8,0.7-1.5,1.3-2.1c0.6-0.6,1.2-1.1,2-1.4s1.6-0.5,2.6-0.5c1,0,1.8,0.2,2.6,0.5s1.4,0.7,2,1.3c0.5,0.6,1,1.2,1.3,2
					c0.3,0.8,0.4,1.7,0.4,2.6c0,0.2,0,0.4,0,0.6c0,0.2,0,0.5,0,0.7H142.8z M145.7,508.4c-0.8,0-1.5,0.2-2,0.7
					c-0.5,0.5-0.8,1.1-0.9,1.8h5.8c-0.1-0.7-0.4-1.3-0.9-1.8C147.3,508.6,146.6,508.4,145.7,508.4z"/>
				<path id="XMLID_2016_" class="st8" d="M156,509.3c0,0.6,0.4,1,1.1,1.2c0.3,0.1,0.6,0.2,0.9,0.2c0.3,0.1,0.6,0.1,0.9,0.2
					c0.5,0.2,1,0.3,1.3,0.6s0.7,0.5,1,0.8c0.3,0.3,0.4,0.7,0.6,1.1c0.1,0.4,0.2,0.9,0.2,1.5c0,0.7-0.1,1.2-0.4,1.7
					c-0.2,0.5-0.6,0.9-1,1.2c-0.4,0.3-0.9,0.6-1.5,0.8c-0.6,0.2-1.2,0.3-1.8,0.3c-0.9,0-1.6-0.1-2.2-0.4c-0.6-0.2-1.1-0.6-1.4-1
					c-0.4-0.4-0.6-0.9-0.7-1.4c-0.1-0.5-0.2-1.1-0.2-1.6h3.1c0,0.5,0.1,0.9,0.3,1.2s0.6,0.5,1.2,0.5c0.4,0,0.8-0.1,1.1-0.3
					c0.3-0.2,0.4-0.5,0.4-0.9c0-0.4-0.1-0.6-0.3-0.8s-0.5-0.4-1-0.5c-0.4-0.1-0.7-0.2-1-0.3s-0.6-0.2-1-0.3c-0.9-0.3-1.6-0.8-2-1.4
					c-0.4-0.6-0.7-1.4-0.7-2.4c0-0.5,0.1-1,0.3-1.5c0.2-0.5,0.5-0.9,0.9-1.2c0.4-0.3,0.9-0.6,1.4-0.8c0.5-0.2,1.1-0.3,1.8-0.3
					c1.4,0,2.4,0.3,3.2,1c0.8,0.7,1.1,1.7,1.2,3h-3c0-0.5-0.1-0.9-0.4-1.2c-0.2-0.3-0.6-0.4-1.1-0.4c-0.4,0-0.7,0.1-0.9,0.3
					S156,509,156,509.3z"/>
				<path id="XMLID_2013_" class="st8" d="M170.1,522.9h-3.2v-17h3v1.2c0.3-0.3,0.8-0.6,1.4-1c0.6-0.3,1.5-0.5,2.5-0.5
					c1,0,1.9,0.2,2.7,0.5s1.5,0.8,2,1.4s1,1.3,1.3,2.1c0.3,0.8,0.5,1.7,0.5,2.7c0,0.9-0.2,1.8-0.5,2.6c-0.3,0.8-0.7,1.5-1.3,2.1
					c-0.6,0.6-1.3,1.1-2.1,1.4c-0.8,0.3-1.7,0.5-2.7,0.5c-0.8,0-1.6-0.1-2.2-0.4c-0.6-0.3-1.1-0.6-1.4-0.8V522.9z M170,512.3
					c0,0.5,0.1,1,0.3,1.5c0.2,0.5,0.4,0.9,0.7,1.2c0.3,0.3,0.7,0.6,1.1,0.8s0.9,0.3,1.5,0.3c0.5,0,1-0.1,1.5-0.3s0.8-0.4,1.1-0.8
					c0.3-0.3,0.5-0.7,0.7-1.2c0.2-0.5,0.2-1,0.2-1.5c0-0.5-0.1-1-0.3-1.5c-0.2-0.5-0.4-0.9-0.7-1.2c-0.3-0.3-0.7-0.6-1.1-0.8
					c-0.4-0.2-0.9-0.3-1.5-0.3c-0.5,0-1,0.1-1.5,0.3s-0.8,0.5-1.1,0.8c-0.3,0.3-0.5,0.7-0.7,1.2C170.1,511.3,170,511.8,170,512.3z"
					/>
				<path id="XMLID_2010_" class="st8" d="M181.3,512.3c0-1,0.2-1.8,0.5-2.7c0.3-0.8,0.8-1.5,1.4-2.1c0.6-0.6,1.3-1.1,2.1-1.4
					s1.7-0.5,2.7-0.5c1,0,1.9,0.2,2.8,0.5s1.5,0.8,2.1,1.4c0.6,0.6,1,1.3,1.4,2.1c0.3,0.8,0.5,1.7,0.5,2.6c0,0.9-0.2,1.8-0.5,2.6
					c-0.3,0.8-0.8,1.5-1.4,2.1c-0.6,0.6-1.3,1.1-2.1,1.4s-1.7,0.5-2.7,0.5c-1,0-1.9-0.2-2.7-0.5c-0.8-0.3-1.5-0.8-2.1-1.4
					c-0.6-0.6-1-1.3-1.4-2.1C181.4,514.2,181.3,513.3,181.3,512.3z M184.5,512.3c0,0.5,0.1,1,0.3,1.5s0.4,0.8,0.7,1.2
					c0.3,0.3,0.7,0.6,1.1,0.8c0.4,0.2,0.9,0.3,1.4,0.3c0.5,0,1-0.1,1.4-0.3c0.4-0.2,0.8-0.4,1.1-0.8s0.5-0.7,0.7-1.2
					c0.2-0.5,0.3-0.9,0.3-1.5c0-0.5-0.1-1-0.3-1.5s-0.4-0.9-0.7-1.2c-0.3-0.3-0.7-0.6-1.1-0.8c-0.4-0.2-0.9-0.3-1.4-0.3
					c-0.5,0-1,0.1-1.4,0.3c-0.4,0.2-0.8,0.4-1.1,0.8c-0.3,0.3-0.5,0.7-0.7,1.2S184.5,511.8,184.5,512.3z"/>
				<path id="XMLID_2008_" class="st8" d="M201.8,509.2H201c-0.6,0-1.1,0.1-1.3,0.4c-0.2,0.3-0.4,0.7-0.4,1.3v7.8h-3.2v-12.8h3.2v1
					c0.2-0.3,0.5-0.6,0.9-0.8c0.4-0.2,0.9-0.3,1.6-0.3V509.2z"/>
				<path id="XMLID_2005_" class="st8" d="M206.3,514.5c0-0.6,0.1-1.1,0.3-1.7s0.5-1,0.9-1.3c0.4-0.4,0.8-0.7,1.4-0.9
					c0.5-0.2,1.2-0.3,1.8-0.3c0.6,0,1.1,0.1,1.4,0.2s0.7,0.2,0.8,0.3v-0.6c0-0.6-0.1-1-0.4-1.4s-0.7-0.5-1.3-0.5
					c-0.3,0-0.6,0-0.8,0.1s-0.4,0.2-0.5,0.3c-0.1,0.1-0.2,0.3-0.3,0.5c0,0.2-0.1,0.4-0.1,0.5h-3c0-1.2,0.4-2.2,1.2-2.9
					c0.7-0.7,1.9-1.1,3.4-1.1c0.9,0,1.7,0.1,2.3,0.4s1.1,0.6,1.5,1c0.4,0.4,0.6,0.9,0.8,1.5c0.2,0.6,0.2,1.3,0.2,2v8.1h-2.7v-0.8
					c-0.2,0.2-0.5,0.4-0.9,0.6c-0.4,0.2-1,0.3-1.8,0.3c-0.6,0-1.2-0.1-1.8-0.3c-0.5-0.2-1-0.5-1.4-0.9c-0.4-0.4-0.7-0.8-0.9-1.4
					C206.4,515.8,206.3,515.2,206.3,514.5z M209.3,514.5c0,0.5,0.2,1,0.5,1.3c0.3,0.3,0.8,0.5,1.4,0.5c0.5,0,1-0.2,1.3-0.5
					c0.4-0.3,0.5-0.8,0.5-1.3s-0.2-1-0.5-1.3c-0.4-0.3-0.8-0.5-1.3-0.5c-0.6,0-1,0.2-1.3,0.5C209.5,513.6,209.3,514,209.3,514.5z"/>
				<path id="XMLID_2003_" class="st8" d="M224.2,516c0.7,0,1.2-0.1,1.6-0.3c0.4-0.2,0.8-0.5,1.1-0.7l1.8,2.2
					c-0.2,0.2-0.4,0.4-0.7,0.6s-0.6,0.4-1,0.6c-0.4,0.2-0.8,0.3-1.3,0.4c-0.5,0.1-1,0.2-1.5,0.2c-1,0-1.9-0.2-2.7-0.5
					c-0.8-0.3-1.5-0.8-2.1-1.4c-0.6-0.6-1-1.3-1.3-2.1c-0.3-0.8-0.5-1.7-0.5-2.6c0-0.9,0.2-1.8,0.5-2.6s0.8-1.5,1.4-2.1
					c0.6-0.6,1.3-1.1,2.1-1.4c0.8-0.3,1.7-0.5,2.7-0.5c0.6,0,1.1,0.1,1.6,0.2c0.5,0.1,0.9,0.2,1.3,0.4s0.7,0.4,1,0.6
					c0.3,0.2,0.5,0.4,0.7,0.6l-1.8,2.2c-0.3-0.3-0.6-0.5-1-0.7c-0.4-0.2-1-0.3-1.6-0.3c-0.5,0-1,0.1-1.4,0.3
					c-0.4,0.2-0.8,0.5-1.1,0.8s-0.5,0.7-0.7,1.2c-0.2,0.5-0.2,0.9-0.2,1.5c0,0.6,0.1,1.1,0.3,1.5c0.2,0.5,0.4,0.8,0.8,1.2
					s0.7,0.6,1.1,0.7C223.3,516,223.7,516,224.2,516z"/>
				<path id="XMLID_2001_" class="st8" d="M235.2,516c0.7,0,1.2-0.1,1.6-0.3c0.4-0.2,0.8-0.5,1.1-0.7l1.8,2.2
					c-0.2,0.2-0.4,0.4-0.7,0.6s-0.6,0.4-1,0.6c-0.4,0.2-0.8,0.3-1.3,0.4c-0.5,0.1-1,0.2-1.5,0.2c-1,0-1.9-0.2-2.7-0.5
					c-0.8-0.3-1.5-0.8-2.1-1.4c-0.6-0.6-1-1.3-1.3-2.1c-0.3-0.8-0.5-1.7-0.5-2.6c0-0.9,0.2-1.8,0.5-2.6s0.8-1.5,1.4-2.1
					c0.6-0.6,1.3-1.1,2.1-1.4c0.8-0.3,1.7-0.5,2.7-0.5c0.6,0,1.1,0.1,1.6,0.2c0.5,0.1,0.9,0.2,1.3,0.4s0.7,0.4,1,0.6
					c0.3,0.2,0.5,0.4,0.7,0.6l-1.8,2.2c-0.3-0.3-0.6-0.5-1-0.7c-0.4-0.2-1-0.3-1.6-0.3c-0.5,0-1,0.1-1.4,0.3
					c-0.4,0.2-0.8,0.5-1.1,0.8s-0.5,0.7-0.7,1.2c-0.2,0.5-0.2,0.9-0.2,1.5c0,0.6,0.1,1.1,0.3,1.5c0.2,0.5,0.4,0.8,0.8,1.2
					s0.7,0.6,1.1,0.7C234.3,516,234.7,516,235.2,516z"/>
				<path id="XMLID_1998_" class="st8" d="M242.3,505.1c-0.5,0-1-0.2-1.4-0.6s-0.6-0.8-0.6-1.3c0-0.5,0.2-1,0.6-1.4s0.8-0.6,1.4-0.6
					c0.5,0,1,0.2,1.4,0.6c0.4,0.4,0.6,0.8,0.6,1.4c0,0.5-0.2,1-0.6,1.3C243.3,504.9,242.8,505.1,242.3,505.1z M243.9,518.7h-3.2
					v-12.8h3.2V518.7z"/>
				<path id="XMLID_1995_" class="st8" d="M255.7,517.5c-0.4,0.4-0.9,0.8-1.6,1.1s-1.4,0.4-2.2,0.4c-1,0-1.9-0.2-2.7-0.5
					c-0.8-0.3-1.5-0.8-2.1-1.4c-0.6-0.6-1-1.3-1.3-2.1c-0.3-0.8-0.5-1.7-0.5-2.7c0-0.9,0.2-1.8,0.5-2.6s0.8-1.5,1.3-2.1
					c0.6-0.6,1.3-1.1,2.1-1.4c0.8-0.3,1.7-0.5,2.6-0.5c0.8,0,1.5,0.1,2.2,0.3c0.6,0.2,1.1,0.5,1.5,0.9v-5.7h3.2v17.5h-3V517.5z
					 M248.5,512.3c0,0.5,0.1,1,0.3,1.5c0.2,0.5,0.4,0.8,0.7,1.2c0.3,0.3,0.7,0.6,1.1,0.8s0.9,0.3,1.4,0.3c0.5,0,1-0.1,1.5-0.3
					s0.8-0.5,1.1-0.8c0.3-0.3,0.5-0.7,0.7-1.2s0.3-1,0.3-1.5c0-0.5-0.1-1-0.3-1.5s-0.4-0.9-0.7-1.2s-0.7-0.6-1.1-0.8
					c-0.4-0.2-0.9-0.3-1.4-0.3c-0.5,0-1,0.1-1.5,0.3c-0.4,0.2-0.8,0.5-1.1,0.8s-0.6,0.7-0.7,1.2S248.5,511.8,248.5,512.3z"/>
				<path id="XMLID_1992_" class="st8" d="M263.5,513.4c0.1,0.8,0.4,1.5,1,2c0.6,0.5,1.3,0.7,2.2,0.7c0.8,0,1.5-0.2,2-0.5
					c0.5-0.4,0.9-0.8,1.3-1.3l2.4,1.4c-0.2,0.4-0.4,0.8-0.8,1.2c-0.3,0.4-0.7,0.8-1.2,1.1c-0.5,0.3-1,0.6-1.6,0.8
					c-0.6,0.2-1.3,0.3-2.1,0.3c-1,0-1.9-0.2-2.7-0.5s-1.5-0.7-2.1-1.3c-0.6-0.6-1-1.3-1.3-2.1c-0.3-0.8-0.5-1.7-0.5-2.8
					c0-1,0.2-1.8,0.5-2.7c0.3-0.8,0.7-1.5,1.3-2.1c0.6-0.6,1.2-1.1,2-1.4c0.8-0.3,1.6-0.5,2.6-0.5c1,0,1.8,0.2,2.6,0.5
					c0.8,0.3,1.4,0.7,2,1.3c0.5,0.6,1,1.2,1.3,2c0.3,0.8,0.4,1.7,0.4,2.6c0,0.2,0,0.4,0,0.6c0,0.2,0,0.5,0,0.7H263.5z M266.4,508.4
					c-0.8,0-1.5,0.2-2,0.7c-0.5,0.5-0.8,1.1-0.9,1.8h5.8c-0.1-0.7-0.4-1.3-0.9-1.8S267.3,508.4,266.4,508.4z"/>
				<path id="XMLID_1990_" class="st8" d="M280.8,510.7c0-0.6-0.1-1.1-0.4-1.5c-0.3-0.4-0.7-0.5-1.3-0.5c-0.6,0-1,0.2-1.3,0.6
					c-0.3,0.4-0.5,0.9-0.5,1.5v8.1H274v-12.8h3.2v1c0.1-0.1,0.2-0.2,0.3-0.3c0.1-0.1,0.3-0.2,0.5-0.4c0.2-0.1,0.5-0.2,0.8-0.3
					c0.3-0.1,0.7-0.1,1.1-0.1c0.8,0,1.4,0.1,1.9,0.4c0.5,0.2,0.9,0.6,1.2,1c0.3,0.4,0.5,0.9,0.7,1.4c0.1,0.5,0.2,1.1,0.2,1.8v8.5
					h-3.2V510.7z"/>
				<path id="XMLID_1988_" class="st8" d="M289.3,505.9h2v2.7h-2v6c0,0.5,0.1,0.8,0.3,1c0.2,0.2,0.5,0.3,1,0.3h0.7v2.7
					c0,0-0.2,0-0.5,0.1c-0.3,0.1-0.7,0.1-1.3,0.1c-1.2,0-2.1-0.3-2.6-0.9c-0.5-0.6-0.8-1.4-0.8-2.5v-6.9h-1.2v-2.7h1.2v-2h3.2V505.9
					z"/>
				<path id="XMLID_1985_" class="st8" d="M295.3,513.4c0.1,0.8,0.4,1.5,1,2c0.6,0.5,1.3,0.7,2.2,0.7c0.8,0,1.5-0.2,2-0.5
					c0.5-0.4,0.9-0.8,1.3-1.3l2.4,1.4c-0.2,0.4-0.4,0.8-0.8,1.2c-0.3,0.4-0.7,0.8-1.2,1.1c-0.5,0.3-1,0.6-1.6,0.8
					c-0.6,0.2-1.3,0.3-2.1,0.3c-1,0-1.9-0.2-2.7-0.5s-1.5-0.7-2.1-1.3c-0.6-0.6-1-1.3-1.3-2.1c-0.3-0.8-0.5-1.7-0.5-2.8
					c0-1,0.2-1.8,0.5-2.7c0.3-0.8,0.7-1.5,1.3-2.1c0.6-0.6,1.2-1.1,2-1.4c0.8-0.3,1.6-0.5,2.6-0.5c1,0,1.8,0.2,2.6,0.5
					c0.8,0.3,1.4,0.7,2,1.3c0.5,0.6,1,1.2,1.3,2c0.3,0.8,0.4,1.7,0.4,2.6c0,0.2,0,0.4,0,0.6c0,0.2,0,0.5,0,0.7H295.3z M298.2,508.4
					c-0.8,0-1.5,0.2-2,0.7c-0.5,0.5-0.8,1.1-0.9,1.8h5.8c-0.1-0.7-0.4-1.3-0.9-1.8S299.1,508.4,298.2,508.4z"/>
				<path id="XMLID_1983_" class="st8" d="M308.5,509.3c0,0.6,0.4,1,1.1,1.2c0.3,0.1,0.6,0.2,0.9,0.2c0.3,0.1,0.6,0.1,0.9,0.2
					c0.5,0.2,1,0.3,1.3,0.6c0.4,0.2,0.7,0.5,1,0.8c0.3,0.3,0.4,0.7,0.6,1.1c0.1,0.4,0.2,0.9,0.2,1.5c0,0.7-0.1,1.2-0.4,1.7
					c-0.2,0.5-0.6,0.9-1,1.2s-0.9,0.6-1.5,0.8c-0.6,0.2-1.2,0.3-1.8,0.3c-0.9,0-1.6-0.1-2.2-0.4c-0.6-0.2-1.1-0.6-1.4-1
					c-0.4-0.4-0.6-0.9-0.7-1.4c-0.1-0.5-0.2-1.1-0.2-1.6h3.1c0,0.5,0.1,0.9,0.3,1.2c0.2,0.3,0.6,0.5,1.2,0.5c0.4,0,0.8-0.1,1.1-0.3
					c0.3-0.2,0.4-0.5,0.4-0.9c0-0.4-0.1-0.6-0.3-0.8c-0.2-0.2-0.5-0.4-1-0.5c-0.4-0.1-0.7-0.2-1-0.3c-0.3-0.1-0.6-0.2-1-0.3
					c-0.9-0.3-1.6-0.8-2-1.4c-0.4-0.6-0.7-1.4-0.7-2.4c0-0.5,0.1-1,0.3-1.5c0.2-0.5,0.5-0.9,0.9-1.2c0.4-0.3,0.9-0.6,1.4-0.8
					c0.5-0.2,1.1-0.3,1.8-0.3c1.4,0,2.4,0.3,3.2,1c0.8,0.7,1.1,1.7,1.2,3h-3c0-0.5-0.1-0.9-0.4-1.2c-0.2-0.3-0.6-0.4-1.1-0.4
					c-0.4,0-0.7,0.1-0.9,0.3S308.5,509,308.5,509.3z"/>
				<path id="XMLID_1980_" class="st8" d="M329.4,517.5c-0.4,0.4-0.9,0.8-1.6,1.1s-1.4,0.4-2.2,0.4c-1,0-1.9-0.2-2.7-0.5
					c-0.8-0.3-1.5-0.8-2.1-1.4c-0.6-0.6-1-1.3-1.3-2.1c-0.3-0.8-0.5-1.7-0.5-2.7c0-0.9,0.2-1.8,0.5-2.6c0.3-0.8,0.8-1.5,1.3-2.1
					c0.6-0.6,1.3-1.1,2.1-1.4c0.8-0.3,1.7-0.5,2.6-0.5c0.8,0,1.5,0.1,2.2,0.3c0.6,0.2,1.1,0.5,1.5,0.9v-5.7h3.2v17.5h-3V517.5z
					 M322.2,512.3c0,0.5,0.1,1,0.3,1.5c0.2,0.5,0.4,0.8,0.7,1.2c0.3,0.3,0.7,0.6,1.1,0.8c0.4,0.2,0.9,0.3,1.4,0.3
					c0.5,0,1-0.1,1.5-0.3c0.4-0.2,0.8-0.5,1.1-0.8c0.3-0.3,0.5-0.7,0.7-1.2s0.3-1,0.3-1.5c0-0.5-0.1-1-0.3-1.5s-0.4-0.9-0.7-1.2
					s-0.7-0.6-1.1-0.8c-0.4-0.2-0.9-0.3-1.4-0.3c-0.5,0-1,0.1-1.5,0.3c-0.4,0.2-0.8,0.5-1.1,0.8c-0.3,0.3-0.6,0.7-0.7,1.2
					S322.2,511.8,322.2,512.3z"/>
				<path id="XMLID_1977_" class="st8" d="M337.2,513.4c0.1,0.8,0.4,1.5,1,2c0.6,0.5,1.3,0.7,2.2,0.7c0.8,0,1.5-0.2,2-0.5
					c0.5-0.4,0.9-0.8,1.3-1.3l2.4,1.4c-0.2,0.4-0.4,0.8-0.8,1.2c-0.3,0.4-0.7,0.8-1.2,1.1c-0.5,0.3-1,0.6-1.6,0.8
					c-0.6,0.2-1.3,0.3-2.1,0.3c-1,0-1.9-0.2-2.7-0.5c-0.8-0.3-1.5-0.7-2.1-1.3c-0.6-0.6-1-1.3-1.3-2.1s-0.5-1.7-0.5-2.8
					c0-1,0.2-1.8,0.5-2.7s0.7-1.5,1.3-2.1c0.6-0.6,1.2-1.1,2-1.4c0.8-0.3,1.6-0.5,2.6-0.5c1,0,1.8,0.2,2.6,0.5
					c0.8,0.3,1.4,0.7,2,1.3c0.5,0.6,1,1.2,1.3,2c0.3,0.8,0.4,1.7,0.4,2.6c0,0.2,0,0.4,0,0.6c0,0.2,0,0.5,0,0.7H337.2z M340.1,508.4
					c-0.8,0-1.5,0.2-2,0.7c-0.5,0.5-0.8,1.1-0.9,1.8h5.8c-0.1-0.7-0.4-1.3-0.9-1.8C341.7,508.6,341,508.4,340.1,508.4z"/>
				<path id="XMLID_1975_" class="st8" d="M355.1,505.9h2v2.7h-2v6c0,0.5,0.1,0.8,0.3,1c0.2,0.2,0.5,0.3,1,0.3h0.7v2.7
					c0,0-0.2,0-0.5,0.1c-0.3,0.1-0.7,0.1-1.3,0.1c-1.2,0-2.1-0.3-2.6-0.9c-0.5-0.6-0.8-1.4-0.8-2.5v-6.9h-1.2v-2.7h1.2v-2h3.2V505.9
					z"/>
				<path id="XMLID_1973_" class="st8" d="M364.2,509.2h-0.8c-0.6,0-1.1,0.1-1.3,0.4s-0.4,0.7-0.4,1.3v7.8h-3.2v-12.8h3.2v1
					c0.2-0.3,0.5-0.6,0.9-0.8c0.4-0.2,0.9-0.3,1.6-0.3V509.2z"/>
				<path id="XMLID_1970_" class="st8" d="M364.7,514.5c0-0.6,0.1-1.1,0.3-1.7c0.2-0.5,0.5-1,0.9-1.3s0.8-0.7,1.4-0.9
					c0.5-0.2,1.2-0.3,1.8-0.3c0.6,0,1.1,0.1,1.4,0.2c0.4,0.1,0.7,0.2,0.8,0.3v-0.6c0-0.6-0.1-1-0.4-1.4s-0.7-0.5-1.3-0.5
					c-0.3,0-0.6,0-0.8,0.1c-0.2,0.1-0.4,0.2-0.5,0.3c-0.1,0.1-0.2,0.3-0.3,0.5c0,0.2-0.1,0.4-0.1,0.5h-3c0-1.2,0.4-2.2,1.2-2.9
					c0.7-0.7,1.9-1.1,3.4-1.1c0.9,0,1.7,0.1,2.3,0.4c0.6,0.2,1.1,0.6,1.5,1c0.4,0.4,0.6,0.9,0.8,1.5c0.2,0.6,0.2,1.3,0.2,2v8.1h-2.7
					v-0.8c-0.2,0.2-0.5,0.4-0.9,0.6c-0.4,0.2-1,0.3-1.8,0.3c-0.6,0-1.2-0.1-1.8-0.3c-0.5-0.2-1-0.5-1.4-0.9
					c-0.4-0.4-0.7-0.8-0.9-1.4C364.8,515.8,364.7,515.2,364.7,514.5z M367.7,514.5c0,0.5,0.2,1,0.5,1.3c0.3,0.3,0.8,0.5,1.4,0.5
					c0.5,0,1-0.2,1.3-0.5c0.4-0.3,0.5-0.8,0.5-1.3s-0.2-1-0.5-1.3c-0.4-0.3-0.8-0.5-1.3-0.5c-0.6,0-1,0.2-1.3,0.5
					C367.8,513.6,367.7,514,367.7,514.5z"/>
				<path id="XMLID_1967_" class="st8" d="M379.4,518.7h-3v-17.5h3.2v6c0.4-0.4,0.9-0.7,1.5-1c0.7-0.3,1.4-0.5,2.3-0.5
					c1,0,1.8,0.2,2.6,0.5c0.8,0.3,1.5,0.8,2,1.3c0.6,0.6,1,1.3,1.3,2.1c0.3,0.8,0.5,1.7,0.5,2.7c0,0.9-0.2,1.8-0.5,2.6
					s-0.8,1.5-1.3,2.1c-0.6,0.6-1.3,1.1-2.1,1.4c-0.8,0.3-1.7,0.5-2.7,0.5c-0.8,0-1.6-0.1-2.2-0.4c-0.7-0.3-1.2-0.6-1.5-1V518.7z
					 M379.5,512.3c0,0.6,0.1,1.1,0.3,1.5c0.2,0.5,0.4,0.8,0.7,1.2c0.3,0.3,0.7,0.6,1.1,0.8c0.4,0.2,0.9,0.3,1.5,0.3
					c0.5,0,1-0.1,1.5-0.3c0.4-0.2,0.8-0.4,1.1-0.8c0.3-0.3,0.5-0.7,0.7-1.2c0.2-0.5,0.2-1,0.2-1.5c0-0.5-0.1-1-0.3-1.5
					s-0.4-0.9-0.7-1.2c-0.3-0.3-0.7-0.6-1.1-0.8s-0.9-0.3-1.5-0.3c-0.5,0-1,0.1-1.5,0.3c-0.4,0.2-0.8,0.4-1.1,0.8
					c-0.3,0.3-0.5,0.7-0.7,1.2S379.5,511.8,379.5,512.3z"/>
				<path id="XMLID_1964_" class="st8" d="M390.6,514.5c0-0.6,0.1-1.1,0.3-1.7c0.2-0.5,0.5-1,0.9-1.3s0.8-0.7,1.4-0.9
					c0.5-0.2,1.2-0.3,1.8-0.3c0.6,0,1.1,0.1,1.4,0.2c0.4,0.1,0.7,0.2,0.8,0.3v-0.6c0-0.6-0.1-1-0.4-1.4s-0.7-0.5-1.3-0.5
					c-0.3,0-0.6,0-0.8,0.1c-0.2,0.1-0.4,0.2-0.5,0.3c-0.1,0.1-0.2,0.3-0.3,0.5c0,0.2-0.1,0.4-0.1,0.5h-3c0-1.2,0.4-2.2,1.2-2.9
					c0.7-0.7,1.9-1.1,3.4-1.1c0.9,0,1.7,0.1,2.3,0.4c0.6,0.2,1.1,0.6,1.5,1c0.4,0.4,0.6,0.9,0.8,1.5c0.2,0.6,0.2,1.3,0.2,2v8.1h-2.7
					v-0.8c-0.2,0.2-0.5,0.4-0.9,0.6c-0.4,0.2-1,0.3-1.8,0.3c-0.6,0-1.2-0.1-1.8-0.3c-0.5-0.2-1-0.5-1.4-0.9
					c-0.4-0.4-0.7-0.8-0.9-1.4C390.7,515.8,390.6,515.2,390.6,514.5z M393.6,514.5c0,0.5,0.2,1,0.5,1.3c0.3,0.3,0.8,0.5,1.4,0.5
					c0.5,0,1-0.2,1.3-0.5c0.4-0.3,0.5-0.8,0.5-1.3s-0.2-1-0.5-1.3c-0.4-0.3-0.8-0.5-1.3-0.5c-0.6,0-1,0.2-1.3,0.5
					C393.8,513.6,393.6,514,393.6,514.5z"/>
				<path id="XMLID_1961_" class="st8" d="M405.5,518.7c0,0.6-0.1,1.2-0.2,1.7c-0.1,0.5-0.4,1-0.7,1.3c-0.3,0.4-0.7,0.7-1.3,0.9
					c-0.5,0.2-1.2,0.3-1.9,0.3h-0.9v-2.8h0.6c0.3,0,0.5,0,0.7-0.1s0.3-0.2,0.4-0.3c0.1-0.1,0.1-0.3,0.2-0.5c0-0.2,0-0.4,0-0.6v-12.8
					h3.2V518.7z M403.9,505.1c-0.5,0-1-0.2-1.4-0.6c-0.4-0.4-0.6-0.8-0.6-1.3c0-0.5,0.2-1,0.6-1.4c0.4-0.4,0.8-0.6,1.4-0.6
					c0.5,0,1,0.2,1.4,0.6c0.4,0.4,0.6,0.8,0.6,1.4c0,0.5-0.2,1-0.6,1.3C404.9,504.9,404.4,505.1,403.9,505.1z"/>
				<path id="XMLID_1958_" class="st8" d="M406.9,512.3c0-1,0.2-1.8,0.5-2.7c0.3-0.8,0.8-1.5,1.4-2.1c0.6-0.6,1.3-1.1,2.1-1.4
					s1.7-0.5,2.7-0.5c1,0,1.9,0.2,2.8,0.5s1.5,0.8,2.1,1.4c0.6,0.6,1,1.3,1.4,2.1c0.3,0.8,0.5,1.7,0.5,2.6c0,0.9-0.2,1.8-0.5,2.6
					c-0.3,0.8-0.8,1.5-1.4,2.1c-0.6,0.6-1.3,1.1-2.1,1.4s-1.7,0.5-2.7,0.5c-1,0-1.9-0.2-2.7-0.5c-0.8-0.3-1.5-0.8-2.1-1.4
					s-1-1.3-1.4-2.1C407.1,514.2,406.9,513.3,406.9,512.3z M410.1,512.3c0,0.5,0.1,1,0.3,1.5s0.4,0.8,0.7,1.2
					c0.3,0.3,0.7,0.6,1.1,0.8c0.4,0.2,0.9,0.3,1.4,0.3c0.5,0,1-0.1,1.4-0.3c0.4-0.2,0.8-0.4,1.1-0.8c0.3-0.3,0.5-0.7,0.7-1.2
					c0.2-0.5,0.3-0.9,0.3-1.5c0-0.5-0.1-1-0.3-1.5s-0.4-0.9-0.7-1.2c-0.3-0.3-0.7-0.6-1.1-0.8s-0.9-0.3-1.4-0.3
					c-0.5,0-1,0.1-1.4,0.3c-0.4,0.2-0.8,0.4-1.1,0.8c-0.3,0.3-0.5,0.7-0.7,1.2S410.1,511.8,410.1,512.3z"/>
				<path id="XMLID_1956_" class="st8" d="M427.5,522.9l1.7-4.7l-4.9-12.3h3.6l3,8l2.9-8h3.3l-6.5,17H427.5z"/>
				<path id="XMLID_1953_" class="st8" d="M451.6,517.5c-0.4,0.4-0.9,0.8-1.6,1.1s-1.4,0.4-2.2,0.4c-1,0-1.9-0.2-2.7-0.5
					c-0.8-0.3-1.5-0.8-2.1-1.4c-0.6-0.6-1-1.3-1.3-2.1c-0.3-0.8-0.5-1.7-0.5-2.7c0-0.9,0.2-1.8,0.5-2.6s0.8-1.5,1.3-2.1
					c0.6-0.6,1.3-1.1,2.1-1.4c0.8-0.3,1.7-0.5,2.6-0.5c0.8,0,1.5,0.1,2.2,0.3c0.6,0.2,1.1,0.5,1.5,0.9v-5.7h3.2v17.5h-3V517.5z
					 M444.4,512.3c0,0.5,0.1,1,0.3,1.5c0.2,0.5,0.4,0.8,0.7,1.2c0.3,0.3,0.7,0.6,1.1,0.8s0.9,0.3,1.4,0.3c0.5,0,1-0.1,1.5-0.3
					s0.8-0.5,1.1-0.8c0.3-0.3,0.5-0.7,0.7-1.2s0.3-1,0.3-1.5c0-0.5-0.1-1-0.3-1.5s-0.4-0.9-0.7-1.2s-0.7-0.6-1.1-0.8
					c-0.4-0.2-0.9-0.3-1.4-0.3c-0.5,0-1,0.1-1.5,0.3c-0.4,0.2-0.8,0.5-1.1,0.8s-0.6,0.7-0.7,1.2S444.4,511.8,444.4,512.3z"/>
				<path id="XMLID_1950_" class="st8" d="M459.4,513.4c0.1,0.8,0.4,1.5,1,2c0.6,0.5,1.3,0.7,2.2,0.7c0.8,0,1.5-0.2,2-0.5
					c0.5-0.4,0.9-0.8,1.3-1.3l2.4,1.4c-0.2,0.4-0.4,0.8-0.8,1.2c-0.3,0.4-0.7,0.8-1.2,1.1c-0.5,0.3-1,0.6-1.6,0.8
					c-0.6,0.2-1.3,0.3-2.1,0.3c-1,0-1.9-0.2-2.7-0.5s-1.5-0.7-2.1-1.3c-0.6-0.6-1-1.3-1.3-2.1c-0.3-0.8-0.5-1.7-0.5-2.8
					c0-1,0.2-1.8,0.5-2.7c0.3-0.8,0.7-1.5,1.3-2.1c0.6-0.6,1.2-1.1,2-1.4c0.8-0.3,1.6-0.5,2.6-0.5c1,0,1.8,0.2,2.6,0.5
					c0.8,0.3,1.4,0.7,2,1.3c0.5,0.6,1,1.2,1.3,2c0.3,0.8,0.4,1.7,0.4,2.6c0,0.2,0,0.4,0,0.6c0,0.2,0,0.5,0,0.7H459.4z M462.3,508.4
					c-0.8,0-1.5,0.2-2,0.7c-0.5,0.5-0.8,1.1-0.9,1.8h5.8c-0.1-0.7-0.4-1.3-0.9-1.8S463.2,508.4,462.3,508.4z"/>
				<path id="XMLID_1948_" class="st8" d="M477.3,505.9h2v2.7h-2v6c0,0.5,0.1,0.8,0.3,1c0.2,0.2,0.5,0.3,1,0.3h0.7v2.7
					c0,0-0.2,0-0.5,0.1c-0.3,0.1-0.7,0.1-1.3,0.1c-1.2,0-2.1-0.3-2.6-0.9c-0.5-0.6-0.8-1.4-0.8-2.5v-6.9h-1.2v-2.7h1.2v-2h3.2V505.9
					z"/>
				<path id="XMLID_1946_" class="st8" d="M486.5,509.2h-0.8c-0.6,0-1.1,0.1-1.3,0.4c-0.2,0.3-0.4,0.7-0.4,1.3v7.8h-3.2v-12.8h3.2v1
					c0.2-0.3,0.5-0.6,0.9-0.8s0.9-0.3,1.6-0.3V509.2z"/>
				<path id="XMLID_1942_" class="st8" d="M486.9,514.5c0-0.6,0.1-1.1,0.3-1.7c0.2-0.5,0.5-1,0.9-1.3c0.4-0.4,0.8-0.7,1.4-0.9
					c0.5-0.2,1.2-0.3,1.8-0.3c0.6,0,1.1,0.1,1.4,0.2c0.4,0.1,0.7,0.2,0.8,0.3v-0.6c0-0.6-0.1-1-0.4-1.4s-0.7-0.5-1.3-0.5
					c-0.3,0-0.6,0-0.8,0.1c-0.2,0.1-0.4,0.2-0.5,0.3c-0.1,0.1-0.2,0.3-0.3,0.5c0,0.2-0.1,0.4-0.1,0.5h-3c0-1.2,0.4-2.2,1.2-2.9
					c0.7-0.7,1.9-1.1,3.4-1.1c0.9,0,1.7,0.1,2.3,0.4c0.6,0.2,1.1,0.6,1.5,1c0.4,0.4,0.6,0.9,0.8,1.5c0.2,0.6,0.2,1.3,0.2,2v8.1h-2.7
					v-0.8c-0.2,0.2-0.5,0.4-0.9,0.6c-0.4,0.2-1,0.3-1.8,0.3c-0.6,0-1.2-0.1-1.8-0.3c-0.5-0.2-1-0.5-1.4-0.9
					c-0.4-0.4-0.7-0.8-0.9-1.4S486.9,515.2,486.9,514.5z M489.9,514.5c0,0.5,0.2,1,0.5,1.3c0.3,0.3,0.8,0.5,1.4,0.5
					c0.5,0,1-0.2,1.3-0.5c0.4-0.3,0.5-0.8,0.5-1.3s-0.2-1-0.5-1.3s-0.8-0.5-1.3-0.5c-0.6,0-1,0.2-1.3,0.5
					C490.1,513.6,489.9,514,489.9,514.5z M495.6,501.7l-1.9,3.3h-3l1.8-3.3H495.6z"/>
				<path id="XMLID_1940_" class="st8" d="M502.2,505.9h1.7v2.7h-1.7v10.1H499v-10.1h-1.2v-2.7h1.2v-0.6c0-0.6,0.1-1.2,0.2-1.7
					c0.1-0.5,0.4-0.9,0.7-1.3s0.7-0.6,1.3-0.8s1.2-0.3,1.9-0.3c0.1,0,0.2,0,0.4,0s0.3,0,0.5,0v2.7h-0.4c-0.5,0-0.9,0.1-1.1,0.4
					s-0.2,0.6-0.2,1V505.9z"/>
				<path id="XMLID_1937_" class="st8" d="M506.8,505.1c-0.5,0-1-0.2-1.4-0.6c-0.4-0.4-0.6-0.8-0.6-1.3c0-0.5,0.2-1,0.6-1.4
					c0.4-0.4,0.8-0.6,1.4-0.6c0.5,0,1,0.2,1.4,0.6c0.4,0.4,0.6,0.8,0.6,1.4c0,0.5-0.2,1-0.6,1.3
					C507.8,504.9,507.4,505.1,506.8,505.1z M508.4,518.7h-3.2v-12.8h3.2V518.7z"/>
				<path id="XMLID_1935_" class="st8" d="M516.5,516c0.7,0,1.2-0.1,1.6-0.3c0.4-0.2,0.8-0.5,1.1-0.7l1.8,2.2
					c-0.2,0.2-0.4,0.4-0.7,0.6c-0.3,0.2-0.6,0.4-1,0.6c-0.4,0.2-0.8,0.3-1.3,0.4c-0.5,0.1-1,0.2-1.5,0.2c-1,0-1.9-0.2-2.7-0.5
					s-1.5-0.8-2.1-1.4c-0.6-0.6-1-1.3-1.3-2.1c-0.3-0.8-0.5-1.7-0.5-2.6c0-0.9,0.2-1.8,0.5-2.6s0.8-1.5,1.4-2.1
					c0.6-0.6,1.3-1.1,2.1-1.4c0.8-0.3,1.7-0.5,2.7-0.5c0.6,0,1.1,0.1,1.6,0.2c0.5,0.1,0.9,0.2,1.3,0.4c0.4,0.2,0.7,0.4,1,0.6
					s0.5,0.4,0.7,0.6l-1.8,2.2c-0.3-0.3-0.6-0.5-1-0.7c-0.4-0.2-1-0.3-1.6-0.3c-0.5,0-1,0.1-1.4,0.3s-0.8,0.5-1.1,0.8
					c-0.3,0.3-0.5,0.7-0.7,1.2c-0.2,0.5-0.2,0.9-0.2,1.5c0,0.6,0.1,1.1,0.3,1.5s0.4,0.8,0.8,1.2s0.7,0.6,1.1,0.7
					C515.6,516,516,516,516.5,516z"/>
				<path id="XMLID_1932_" class="st8" d="M520.8,512.3c0-1,0.2-1.8,0.5-2.7c0.3-0.8,0.8-1.5,1.4-2.1c0.6-0.6,1.3-1.1,2.1-1.4
					s1.7-0.5,2.7-0.5c1,0,1.9,0.2,2.8,0.5s1.5,0.8,2.1,1.4c0.6,0.6,1,1.3,1.4,2.1c0.3,0.8,0.5,1.7,0.5,2.6c0,0.9-0.2,1.8-0.5,2.6
					c-0.3,0.8-0.8,1.5-1.4,2.1c-0.6,0.6-1.3,1.1-2.1,1.4s-1.7,0.5-2.7,0.5c-1,0-1.9-0.2-2.7-0.5c-0.8-0.3-1.5-0.8-2.1-1.4
					s-1-1.3-1.4-2.1C521,514.2,520.8,513.3,520.8,512.3z M524,512.3c0,0.5,0.1,1,0.3,1.5s0.4,0.8,0.7,1.2c0.3,0.3,0.7,0.6,1.1,0.8
					c0.4,0.2,0.9,0.3,1.4,0.3c0.5,0,1-0.1,1.4-0.3c0.4-0.2,0.8-0.4,1.1-0.8c0.3-0.3,0.5-0.7,0.7-1.2c0.2-0.5,0.3-0.9,0.3-1.5
					c0-0.5-0.1-1-0.3-1.5s-0.4-0.9-0.7-1.2c-0.3-0.3-0.7-0.6-1.1-0.8s-0.9-0.3-1.4-0.3c-0.5,0-1,0.1-1.4,0.3
					c-0.4,0.2-0.8,0.4-1.1,0.8c-0.3,0.3-0.5,0.7-0.7,1.2S524,511.8,524,512.3z"/>
				<path id="XMLID_1930_" class="st7" d="M80,554.7h-3.3v-16.6H80V554.7z"/>
				<path id="XMLID_1928_" class="st7" d="M90,546.7c0-0.6-0.1-1.1-0.4-1.5c-0.3-0.4-0.7-0.5-1.3-0.5c-0.6,0-1,0.2-1.3,0.6
					c-0.3,0.4-0.5,0.9-0.5,1.5v8.1h-3.2v-12.8h3.2v1c0.1-0.1,0.2-0.2,0.3-0.3c0.1-0.1,0.3-0.2,0.5-0.4c0.2-0.1,0.5-0.2,0.8-0.3
					c0.3-0.1,0.7-0.1,1.1-0.1c0.8,0,1.4,0.1,1.9,0.4c0.5,0.2,0.9,0.6,1.2,1c0.3,0.4,0.5,0.9,0.7,1.4c0.1,0.5,0.2,1.1,0.2,1.8v8.5H90
					V546.7z"/>
				<path id="XMLID_1926_" class="st7" d="M102.4,552c0.7,0,1.2-0.1,1.6-0.3c0.4-0.2,0.8-0.5,1.1-0.7l1.8,2.2
					c-0.2,0.2-0.4,0.4-0.7,0.6s-0.6,0.4-1,0.6c-0.4,0.2-0.8,0.3-1.3,0.4c-0.5,0.1-1,0.2-1.5,0.2c-1,0-1.9-0.2-2.7-0.5
					c-0.8-0.3-1.5-0.8-2.1-1.4c-0.6-0.6-1-1.3-1.3-2.1c-0.3-0.8-0.5-1.7-0.5-2.6c0-0.9,0.2-1.8,0.5-2.6s0.8-1.5,1.4-2.1
					c0.6-0.6,1.3-1.1,2.1-1.4c0.8-0.3,1.7-0.5,2.7-0.5c0.6,0,1.1,0.1,1.6,0.2c0.5,0.1,0.9,0.2,1.3,0.4s0.7,0.4,1,0.6
					c0.3,0.2,0.5,0.4,0.7,0.6l-1.8,2.2c-0.3-0.3-0.6-0.5-1-0.7c-0.4-0.2-1-0.3-1.6-0.3c-0.5,0-1,0.1-1.4,0.3
					c-0.4,0.2-0.8,0.5-1.1,0.8s-0.5,0.7-0.7,1.2c-0.2,0.5-0.2,0.9-0.2,1.5c0,0.6,0.1,1.1,0.3,1.5c0.2,0.5,0.4,0.8,0.8,1.2
					s0.7,0.6,1.1,0.7C101.5,552,102,552,102.4,552z"/>
				<path id="XMLID_1924_" class="st7" d="M114.9,545.2h-0.8c-0.6,0-1.1,0.1-1.3,0.4c-0.2,0.3-0.4,0.7-0.4,1.3v7.8h-3.2v-12.8h3.2v1
					c0.2-0.3,0.5-0.6,0.9-0.8c0.4-0.2,0.9-0.3,1.6-0.3V545.2z"/>
				<path id="XMLID_1921_" class="st7" d="M119.9,549.4c0.1,0.8,0.4,1.5,1,2c0.6,0.5,1.3,0.7,2.2,0.7c0.8,0,1.5-0.2,2-0.5
					c0.5-0.4,0.9-0.8,1.3-1.3l2.4,1.4c-0.2,0.4-0.4,0.8-0.8,1.2c-0.3,0.4-0.7,0.8-1.2,1.1c-0.5,0.3-1,0.6-1.6,0.8s-1.3,0.3-2.1,0.3
					c-1,0-1.9-0.2-2.7-0.5c-0.8-0.3-1.5-0.7-2.1-1.3c-0.6-0.6-1-1.3-1.3-2.1c-0.3-0.8-0.5-1.7-0.5-2.8c0-1,0.2-1.8,0.5-2.7
					c0.3-0.8,0.7-1.5,1.3-2.1c0.6-0.6,1.2-1.1,2-1.4s1.6-0.5,2.6-0.5c1,0,1.8,0.2,2.6,0.5s1.4,0.7,2,1.3c0.5,0.6,1,1.2,1.3,2
					c0.3,0.8,0.4,1.7,0.4,2.6c0,0.2,0,0.4,0,0.6c0,0.2,0,0.5,0,0.7H119.9z M122.8,544.4c-0.8,0-1.5,0.2-2,0.7
					c-0.5,0.5-0.8,1.1-0.9,1.8h5.8c-0.1-0.7-0.4-1.3-0.9-1.8C124.4,544.6,123.7,544.4,122.8,544.4z"/>
				<path id="XMLID_1919_" class="st7" d="M141.5,554.7h-3.2v-8.1c0-0.6-0.1-1.1-0.4-1.5c-0.3-0.4-0.7-0.6-1.3-0.6
					c-0.6,0-1,0.2-1.3,0.6c-0.3,0.4-0.4,0.9-0.4,1.5v8h-3.2v-12.8h3.2v1c0.2-0.2,0.5-0.4,0.9-0.7s1-0.4,1.9-0.4
					c0.8,0,1.4,0.1,1.9,0.4s0.9,0.6,1.2,1c0.3-0.3,0.7-0.7,1.2-0.9c0.5-0.3,1.2-0.4,2-0.4c0.8,0,1.5,0.1,2,0.4c0.6,0.2,1,0.6,1.3,1
					c0.3,0.4,0.6,0.9,0.7,1.4c0.2,0.5,0.2,1.1,0.2,1.8v8.5H145v-8.1c0-0.6-0.1-1.1-0.4-1.5c-0.3-0.4-0.7-0.5-1.3-0.5s-1,0.2-1.3,0.6
					c-0.3,0.4-0.4,0.9-0.4,1.4V554.7z"/>
				<path id="XMLID_1916_" class="st7" d="M154.2,549.4c0.1,0.8,0.4,1.5,1,2c0.6,0.5,1.3,0.7,2.2,0.7c0.8,0,1.5-0.2,2-0.5
					c0.5-0.4,0.9-0.8,1.3-1.3l2.4,1.4c-0.2,0.4-0.4,0.8-0.8,1.2c-0.3,0.4-0.7,0.8-1.2,1.1c-0.5,0.3-1,0.6-1.6,0.8s-1.3,0.3-2.1,0.3
					c-1,0-1.9-0.2-2.7-0.5c-0.8-0.3-1.5-0.7-2.1-1.3c-0.6-0.6-1-1.3-1.3-2.1c-0.3-0.8-0.5-1.7-0.5-2.8c0-1,0.2-1.8,0.5-2.7
					c0.3-0.8,0.7-1.5,1.3-2.1c0.6-0.6,1.2-1.1,2-1.4s1.6-0.5,2.6-0.5c1,0,1.8,0.2,2.6,0.5s1.4,0.7,2,1.3c0.5,0.6,1,1.2,1.3,2
					c0.3,0.8,0.4,1.7,0.4,2.6c0,0.2,0,0.4,0,0.6c0,0.2,0,0.5,0,0.7H154.2z M157.1,544.4c-0.8,0-1.5,0.2-2,0.7
					c-0.5,0.5-0.8,1.1-0.9,1.8h5.8c-0.1-0.7-0.4-1.3-0.9-1.8C158.6,544.6,157.9,544.4,157.1,544.4z"/>
				<path id="XMLID_1914_" class="st7" d="M172.6,546.7c0-0.6-0.1-1.1-0.4-1.5c-0.3-0.4-0.7-0.5-1.3-0.5c-0.6,0-1,0.2-1.3,0.6
					c-0.3,0.4-0.5,0.9-0.5,1.5v8.1h-3.2v-12.8h3.2v1c0.1-0.1,0.2-0.2,0.3-0.3c0.1-0.1,0.3-0.2,0.5-0.4c0.2-0.1,0.5-0.2,0.8-0.3
					c0.3-0.1,0.7-0.1,1.1-0.1c0.8,0,1.4,0.1,1.9,0.4c0.5,0.2,0.9,0.6,1.2,1c0.3,0.4,0.5,0.9,0.7,1.4c0.1,0.5,0.2,1.1,0.2,1.8v8.5
					h-3.2V546.7z"/>
				<path id="XMLID_1912_" class="st7" d="M182.4,541.9h2v2.7h-2v6c0,0.5,0.1,0.8,0.3,1c0.2,0.2,0.5,0.3,1,0.3h0.7v2.7
					c0,0-0.2,0-0.5,0.1s-0.7,0.1-1.3,0.1c-1.2,0-2.1-0.3-2.6-0.9c-0.5-0.6-0.8-1.4-0.8-2.5v-6.9H178v-2.7h1.2v-2h3.2V541.9z"/>
				<path id="XMLID_1909_" class="st7" d="M186.2,548.4c0-1,0.2-1.8,0.5-2.7c0.3-0.8,0.8-1.5,1.4-2.1c0.6-0.6,1.3-1.1,2.1-1.4
					s1.7-0.5,2.7-0.5c1,0,1.9,0.2,2.8,0.5s1.5,0.8,2.1,1.4c0.6,0.6,1,1.3,1.4,2.1c0.3,0.8,0.5,1.7,0.5,2.6s-0.2,1.8-0.5,2.6
					c-0.3,0.8-0.8,1.5-1.4,2.1c-0.6,0.6-1.3,1.1-2.1,1.4s-1.7,0.5-2.7,0.5c-1,0-1.9-0.2-2.7-0.5c-0.8-0.3-1.5-0.8-2.1-1.4
					c-0.6-0.6-1-1.3-1.4-2.1C186.4,550.2,186.2,549.3,186.2,548.4z M189.5,548.3c0,0.5,0.1,1,0.3,1.5s0.4,0.8,0.7,1.2
					c0.3,0.3,0.7,0.6,1.1,0.8c0.4,0.2,0.9,0.3,1.4,0.3c0.5,0,1-0.1,1.4-0.3c0.4-0.2,0.8-0.4,1.1-0.8s0.5-0.7,0.7-1.2
					c0.2-0.5,0.3-0.9,0.3-1.5s-0.1-1-0.3-1.5s-0.4-0.9-0.7-1.2c-0.3-0.3-0.7-0.6-1.1-0.8c-0.4-0.2-0.9-0.3-1.4-0.3
					c-0.5,0-1,0.1-1.4,0.3c-0.4,0.2-0.8,0.4-1.1,0.8c-0.3,0.3-0.5,0.7-0.7,1.2S189.5,547.8,189.5,548.3z"/>
				<path id="XMLID_1906_" class="st7" d="M217.1,553.5c-0.4,0.4-0.9,0.8-1.6,1.1s-1.4,0.4-2.2,0.4c-1,0-1.9-0.2-2.7-0.5
					c-0.8-0.3-1.5-0.8-2.1-1.4c-0.6-0.6-1-1.3-1.3-2.1c-0.3-0.8-0.5-1.7-0.5-2.7c0-0.9,0.2-1.8,0.5-2.6c0.3-0.8,0.8-1.5,1.3-2.1
					c0.6-0.6,1.3-1.1,2.1-1.4c0.8-0.3,1.7-0.5,2.6-0.5c0.8,0,1.5,0.1,2.2,0.3c0.6,0.2,1.1,0.5,1.5,0.9v-5.7h3.2v17.5h-3V553.5z
					 M209.9,548.3c0,0.5,0.1,1,0.3,1.5c0.2,0.5,0.4,0.8,0.7,1.2c0.3,0.3,0.7,0.6,1.1,0.8c0.4,0.2,0.9,0.3,1.4,0.3
					c0.5,0,1-0.1,1.5-0.3c0.4-0.2,0.8-0.5,1.1-0.8c0.3-0.3,0.5-0.7,0.7-1.2s0.3-1,0.3-1.5c0-0.5-0.1-1-0.3-1.5s-0.4-0.9-0.7-1.2
					s-0.7-0.6-1.1-0.8c-0.4-0.2-0.9-0.3-1.4-0.3c-0.5,0-1,0.1-1.5,0.3c-0.4,0.2-0.8,0.5-1.1,0.8c-0.3,0.3-0.6,0.7-0.7,1.2
					S209.9,547.8,209.9,548.3z"/>
				<path id="XMLID_1903_" class="st7" d="M226.1,549.4c0.1,0.8,0.4,1.5,1,2c0.6,0.5,1.3,0.7,2.2,0.7c0.8,0,1.5-0.2,2-0.5
					c0.5-0.4,0.9-0.8,1.3-1.3l2.4,1.4c-0.2,0.4-0.4,0.8-0.8,1.2c-0.3,0.4-0.7,0.8-1.2,1.1c-0.5,0.3-1,0.6-1.6,0.8s-1.3,0.3-2.1,0.3
					c-1,0-1.9-0.2-2.7-0.5c-0.8-0.3-1.5-0.7-2.1-1.3c-0.6-0.6-1-1.3-1.3-2.1c-0.3-0.8-0.5-1.7-0.5-2.8c0-1,0.2-1.8,0.5-2.7
					c0.3-0.8,0.7-1.5,1.3-2.1c0.6-0.6,1.2-1.1,2-1.4s1.6-0.5,2.6-0.5c1,0,1.8,0.2,2.6,0.5s1.4,0.7,2,1.3c0.5,0.6,1,1.2,1.3,2
					c0.3,0.8,0.4,1.7,0.4,2.6c0,0.2,0,0.4,0,0.6c0,0.2,0,0.5,0,0.7H226.1z M229,544.4c-0.8,0-1.5,0.2-2,0.7
					c-0.5,0.5-0.8,1.1-0.9,1.8h5.8c-0.1-0.7-0.4-1.3-0.9-1.8C230.6,544.6,229.9,544.4,229,544.4z"/>
				<path id="XMLID_1901_" class="st7" d="M245.9,554.7h-3.2v-17.5h3.2V554.7z"/>
				<path id="XMLID_1898_" class="st7" d="M248.6,550.5c0-0.6,0.1-1.1,0.3-1.7c0.2-0.5,0.5-1,0.9-1.3c0.4-0.4,0.8-0.7,1.4-0.9
					c0.5-0.2,1.2-0.3,1.8-0.3c0.6,0,1.1,0.1,1.4,0.2c0.4,0.1,0.7,0.2,0.8,0.3v-0.6c0-0.6-0.1-1-0.4-1.4s-0.7-0.5-1.3-0.5
					c-0.3,0-0.6,0-0.8,0.1c-0.2,0.1-0.4,0.2-0.5,0.3c-0.1,0.1-0.2,0.3-0.3,0.5c0,0.2-0.1,0.4-0.1,0.5h-3c0-1.2,0.4-2.2,1.2-2.9
					c0.7-0.7,1.9-1.1,3.4-1.1c0.9,0,1.7,0.1,2.3,0.4c0.6,0.2,1.1,0.6,1.5,1c0.4,0.4,0.6,0.9,0.8,1.5c0.2,0.6,0.2,1.3,0.2,2v8.1h-2.7
					v-0.8c-0.2,0.2-0.5,0.4-0.9,0.6c-0.4,0.2-1,0.3-1.8,0.3c-0.6,0-1.2-0.1-1.8-0.3c-0.5-0.2-1-0.5-1.4-0.9
					c-0.4-0.4-0.7-0.8-0.9-1.4S248.6,551.2,248.6,550.5z M251.6,550.5c0,0.5,0.2,1,0.5,1.3c0.3,0.3,0.8,0.5,1.4,0.5
					c0.5,0,1-0.2,1.3-0.5c0.4-0.3,0.5-0.8,0.5-1.3s-0.2-1-0.5-1.3s-0.8-0.5-1.3-0.5c-0.6,0-1,0.2-1.3,0.5
					C251.8,549.6,251.6,550,251.6,550.5z"/>
				<path id="XMLID_1896_" class="st7" d="M276.2,554.7H273v-8.1c0-0.6-0.1-1.1-0.4-1.5c-0.3-0.4-0.7-0.6-1.3-0.6
					c-0.6,0-1,0.2-1.3,0.6c-0.3,0.4-0.4,0.9-0.4,1.5v8h-3.2v-12.8h3.2v1c0.2-0.2,0.5-0.4,0.9-0.7s1-0.4,1.9-0.4
					c0.8,0,1.4,0.1,1.9,0.4s0.9,0.6,1.2,1c0.3-0.3,0.7-0.7,1.2-0.9c0.5-0.3,1.2-0.4,2-0.4c0.8,0,1.5,0.1,2,0.4s1,0.6,1.3,1
					c0.3,0.4,0.6,0.9,0.7,1.4c0.2,0.5,0.2,1.1,0.2,1.8v8.5h-3.2v-8.1c0-0.6-0.1-1.1-0.4-1.5c-0.3-0.4-0.7-0.5-1.3-0.5
					s-1,0.2-1.3,0.6c-0.3,0.4-0.4,0.9-0.4,1.4V554.7z"/>
				<path id="XMLID_1893_" class="st7" d="M285.5,548.4c0-1,0.2-1.8,0.5-2.7c0.3-0.8,0.8-1.5,1.4-2.1c0.6-0.6,1.3-1.1,2.1-1.4
					s1.7-0.5,2.7-0.5c1,0,1.9,0.2,2.8,0.5s1.5,0.8,2.1,1.4c0.6,0.6,1,1.3,1.4,2.1c0.3,0.8,0.5,1.7,0.5,2.6s-0.2,1.8-0.5,2.6
					c-0.3,0.8-0.8,1.5-1.4,2.1s-1.3,1.1-2.1,1.4s-1.7,0.5-2.7,0.5c-1,0-1.9-0.2-2.7-0.5c-0.8-0.3-1.5-0.8-2.1-1.4
					c-0.6-0.6-1-1.3-1.4-2.1C285.6,550.2,285.5,549.3,285.5,548.4z M288.7,548.3c0,0.5,0.1,1,0.3,1.5s0.4,0.8,0.7,1.2
					s0.7,0.6,1.1,0.8c0.4,0.2,0.9,0.3,1.4,0.3c0.5,0,1-0.1,1.4-0.3c0.4-0.2,0.8-0.4,1.1-0.8c0.3-0.3,0.5-0.7,0.7-1.2
					c0.2-0.5,0.3-0.9,0.3-1.5s-0.1-1-0.3-1.5s-0.4-0.9-0.7-1.2s-0.7-0.6-1.1-0.8c-0.4-0.2-0.9-0.3-1.4-0.3c-0.5,0-1,0.1-1.4,0.3
					c-0.4,0.2-0.8,0.4-1.1,0.8c-0.3,0.3-0.5,0.7-0.7,1.2S288.7,547.8,288.7,548.3z"/>
				<path id="XMLID_1891_" class="st7" d="M307.2,545.2h-0.8c-0.6,0-1.1,0.1-1.3,0.4s-0.4,0.7-0.4,1.3v7.8h-3.2v-12.8h3.2v1
					c0.2-0.3,0.5-0.6,0.9-0.8c0.4-0.2,0.9-0.3,1.6-0.3V545.2z"/>
				<path id="XMLID_1889_" class="st7" d="M313.6,541.9h2v2.7h-2v6c0,0.5,0.1,0.8,0.3,1c0.2,0.2,0.5,0.3,1,0.3h0.7v2.7
					c0,0-0.2,0-0.5,0.1c-0.3,0.1-0.7,0.1-1.3,0.1c-1.2,0-2.1-0.3-2.6-0.9c-0.5-0.6-0.8-1.4-0.8-2.5v-6.9h-1.2v-2.7h1.2v-2h3.2V541.9
					z"/>
				<path id="XMLID_1886_" class="st7" d="M317.6,550.5c0-0.6,0.1-1.1,0.3-1.7c0.2-0.5,0.5-1,0.9-1.3s0.8-0.7,1.4-0.9
					c0.5-0.2,1.2-0.3,1.8-0.3c0.6,0,1.1,0.1,1.4,0.2c0.4,0.1,0.7,0.2,0.8,0.3v-0.6c0-0.6-0.1-1-0.4-1.4s-0.7-0.5-1.3-0.5
					c-0.3,0-0.6,0-0.8,0.1c-0.2,0.1-0.4,0.2-0.5,0.3c-0.1,0.1-0.2,0.3-0.3,0.5c0,0.2-0.1,0.4-0.1,0.5h-3c0-1.2,0.4-2.2,1.2-2.9
					c0.7-0.7,1.9-1.1,3.4-1.1c0.9,0,1.7,0.1,2.3,0.4c0.6,0.2,1.1,0.6,1.5,1c0.4,0.4,0.6,0.9,0.8,1.5c0.2,0.6,0.2,1.3,0.2,2v8.1h-2.7
					v-0.8c-0.2,0.2-0.5,0.4-0.9,0.6c-0.4,0.2-1,0.3-1.8,0.3c-0.6,0-1.2-0.1-1.8-0.3c-0.5-0.2-1-0.5-1.4-0.9
					c-0.4-0.4-0.7-0.8-0.9-1.4C317.7,551.8,317.6,551.2,317.6,550.5z M320.7,550.5c0,0.5,0.2,1,0.5,1.3c0.3,0.3,0.8,0.5,1.4,0.5
					c0.5,0,1-0.2,1.3-0.5c0.4-0.3,0.5-0.8,0.5-1.3s-0.2-1-0.5-1.3c-0.4-0.3-0.8-0.5-1.3-0.5c-0.6,0-1,0.2-1.3,0.5
					C320.8,549.6,320.7,550,320.7,550.5z"/>
				<path id="XMLID_1884_" class="st7" d="M333.8,554.7h-3.2v-17.5h3.2V554.7z"/>
				<path id="XMLID_1881_" class="st7" d="M338.5,541.1c-0.5,0-1-0.2-1.4-0.6c-0.4-0.4-0.6-0.8-0.6-1.3c0-0.5,0.2-1,0.6-1.4
					c0.4-0.4,0.8-0.6,1.4-0.6c0.5,0,1,0.2,1.4,0.6c0.4,0.4,0.6,0.8,0.6,1.4c0,0.5-0.2,1-0.6,1.3C339.5,540.9,339,541.1,338.5,541.1z
					 M340.1,554.7h-3.2v-12.8h3.2V554.7z"/>
				<path id="XMLID_1878_" class="st7" d="M353.1,553.5c-0.4,0.4-0.9,0.8-1.6,1.1s-1.4,0.4-2.2,0.4c-1,0-1.9-0.2-2.7-0.5
					c-0.8-0.3-1.5-0.8-2.1-1.4c-0.6-0.6-1-1.3-1.3-2.1c-0.3-0.8-0.5-1.7-0.5-2.7c0-0.9,0.2-1.8,0.5-2.6c0.3-0.8,0.8-1.5,1.3-2.1
					c0.6-0.6,1.3-1.1,2.1-1.4c0.8-0.3,1.7-0.5,2.6-0.5c0.8,0,1.5,0.1,2.2,0.3c0.6,0.2,1.1,0.5,1.5,0.9v-5.7h3.2v17.5h-3V553.5z
					 M345.9,548.3c0,0.5,0.1,1,0.3,1.5c0.2,0.5,0.4,0.8,0.7,1.2c0.3,0.3,0.7,0.6,1.1,0.8c0.4,0.2,0.9,0.3,1.4,0.3
					c0.5,0,1-0.1,1.5-0.3c0.4-0.2,0.8-0.5,1.1-0.8c0.3-0.3,0.5-0.7,0.7-1.2s0.3-1,0.3-1.5c0-0.5-0.1-1-0.3-1.5s-0.4-0.9-0.7-1.2
					s-0.7-0.6-1.1-0.8c-0.4-0.2-0.9-0.3-1.4-0.3c-0.5,0-1,0.1-1.5,0.3c-0.4,0.2-0.8,0.5-1.1,0.8c-0.3,0.3-0.6,0.7-0.7,1.2
					S345.9,547.8,345.9,548.3z"/>
				<path id="XMLID_1875_" class="st7" d="M358.8,550.5c0-0.6,0.1-1.1,0.3-1.7c0.2-0.5,0.5-1,0.9-1.3c0.4-0.4,0.8-0.7,1.4-0.9
					c0.5-0.2,1.2-0.3,1.8-0.3c0.6,0,1.1,0.1,1.4,0.2c0.4,0.1,0.7,0.2,0.8,0.3v-0.6c0-0.6-0.1-1-0.4-1.4s-0.7-0.5-1.3-0.5
					c-0.3,0-0.6,0-0.8,0.1c-0.2,0.1-0.4,0.2-0.5,0.3c-0.1,0.1-0.2,0.3-0.3,0.5c0,0.2-0.1,0.4-0.1,0.5h-3c0-1.2,0.4-2.2,1.2-2.9
					c0.7-0.7,1.9-1.1,3.4-1.1c0.9,0,1.7,0.1,2.3,0.4c0.6,0.2,1.1,0.6,1.5,1c0.4,0.4,0.6,0.9,0.8,1.5c0.2,0.6,0.2,1.3,0.2,2v8.1h-2.7
					v-0.8c-0.2,0.2-0.5,0.4-0.9,0.6c-0.4,0.2-1,0.3-1.8,0.3c-0.6,0-1.2-0.1-1.8-0.3c-0.5-0.2-1-0.5-1.4-0.9
					c-0.4-0.4-0.7-0.8-0.9-1.4S358.8,551.2,358.8,550.5z M361.8,550.5c0,0.5,0.2,1,0.5,1.3c0.3,0.3,0.8,0.5,1.4,0.5
					c0.5,0,1-0.2,1.3-0.5c0.4-0.3,0.5-0.8,0.5-1.3s-0.2-1-0.5-1.3s-0.8-0.5-1.3-0.5c-0.6,0-1,0.2-1.3,0.5
					C362,549.6,361.8,550,361.8,550.5z"/>
				<path id="XMLID_1872_" class="st7" d="M381.6,553.5c-0.4,0.4-0.9,0.8-1.6,1.1s-1.4,0.4-2.2,0.4c-1,0-1.9-0.2-2.7-0.5
					c-0.8-0.3-1.5-0.8-2.1-1.4c-0.6-0.6-1-1.3-1.3-2.1c-0.3-0.8-0.5-1.7-0.5-2.7c0-0.9,0.2-1.8,0.5-2.6s0.8-1.5,1.3-2.1
					c0.6-0.6,1.3-1.1,2.1-1.4c0.8-0.3,1.7-0.5,2.6-0.5c0.8,0,1.5,0.1,2.2,0.3c0.6,0.2,1.1,0.5,1.5,0.9v-5.7h3.2v17.5h-3V553.5z
					 M374.4,548.3c0,0.5,0.1,1,0.3,1.5c0.2,0.5,0.4,0.8,0.7,1.2c0.3,0.3,0.7,0.6,1.1,0.8s0.9,0.3,1.4,0.3c0.5,0,1-0.1,1.5-0.3
					s0.8-0.5,1.1-0.8c0.3-0.3,0.5-0.7,0.7-1.2s0.3-1,0.3-1.5c0-0.5-0.1-1-0.3-1.5s-0.4-0.9-0.7-1.2s-0.7-0.6-1.1-0.8
					c-0.4-0.2-0.9-0.3-1.4-0.3c-0.5,0-1,0.1-1.5,0.3c-0.4,0.2-0.8,0.5-1.1,0.8s-0.6,0.7-0.7,1.2S374.4,547.8,374.4,548.3z"/>
			</g>
		</g>
		<circle id="XMLID_110_" class="st3" cx="64.2" cy="511" r="5.5"/>
		<g id="XMLID_97_">
			<circle id="XMLID_106_" class="st3" cx="64.2" cy="547.7" r="5.5"/>
		</g>
	</g>
</g>
<g id="AparellReproductor">
	<g id="XMLID_283_">
		<g id="XMLID_856_">
			<path id="XMLID_903_" class="st7" d="M86,340.6v10.9h-3.2v-16.6h3.5l7.1,11.1v-11.1h3.2v16.6h-3.3L86,340.6z"/>
			<path id="XMLID_900_" class="st7" d="M99.4,347.3c0-0.6,0.1-1.1,0.3-1.7s0.5-1,0.9-1.3c0.4-0.4,0.8-0.7,1.4-0.9
				c0.5-0.2,1.2-0.3,1.8-0.3c0.6,0,1.1,0.1,1.4,0.2s0.7,0.2,0.8,0.3V343c0-0.6-0.1-1-0.4-1.4s-0.7-0.5-1.3-0.5c-0.3,0-0.6,0-0.8,0.1
				s-0.4,0.2-0.5,0.3c-0.1,0.1-0.2,0.3-0.3,0.5c0,0.2-0.1,0.4-0.1,0.5h-3c0-1.2,0.4-2.2,1.2-2.9c0.7-0.7,1.9-1.1,3.4-1.1
				c0.9,0,1.7,0.1,2.3,0.4s1.1,0.6,1.5,1c0.4,0.4,0.6,0.9,0.8,1.5c0.2,0.6,0.2,1.3,0.2,2v8.1h-2.7v-0.8c-0.2,0.2-0.5,0.4-0.9,0.6
				c-0.4,0.2-1,0.3-1.8,0.3c-0.6,0-1.2-0.1-1.8-0.3c-0.5-0.2-1-0.5-1.4-0.9c-0.4-0.4-0.7-0.8-0.9-1.4
				C99.5,348.6,99.4,348,99.4,347.3z M102.4,347.3c0,0.5,0.2,1,0.5,1.3c0.3,0.3,0.8,0.5,1.4,0.5c0.5,0,1-0.2,1.3-0.5
				c0.4-0.3,0.5-0.8,0.5-1.3s-0.2-1-0.5-1.3c-0.4-0.3-0.8-0.5-1.3-0.5c-0.6,0-1,0.2-1.3,0.5C102.6,346.3,102.4,346.8,102.4,347.3z"
				/>
			<path id="XMLID_898_" class="st7" d="M118.5,348.8c0.7,0,1.2-0.1,1.6-0.3c0.4-0.2,0.8-0.5,1.1-0.7l1.8,2.2
				c-0.2,0.2-0.4,0.4-0.7,0.6s-0.6,0.4-1,0.6c-0.4,0.2-0.8,0.3-1.3,0.4c-0.5,0.1-1,0.2-1.5,0.2c-1,0-1.9-0.2-2.7-0.5
				c-0.8-0.3-1.5-0.8-2.1-1.4c-0.6-0.6-1-1.3-1.3-2.1c-0.3-0.8-0.5-1.7-0.5-2.6c0-0.9,0.2-1.8,0.5-2.6s0.8-1.5,1.4-2.1
				c0.6-0.6,1.3-1.1,2.1-1.4c0.8-0.3,1.7-0.5,2.7-0.5c0.6,0,1.1,0.1,1.6,0.2c0.5,0.1,0.9,0.2,1.3,0.4s0.7,0.4,1,0.6
				c0.3,0.2,0.5,0.4,0.7,0.6l-1.8,2.2c-0.3-0.3-0.6-0.5-1-0.7c-0.4-0.2-1-0.3-1.6-0.3c-0.5,0-1,0.1-1.4,0.3
				c-0.4,0.2-0.8,0.5-1.1,0.8s-0.5,0.7-0.7,1.2c-0.2,0.5-0.2,0.9-0.2,1.5c0,0.6,0.1,1.1,0.3,1.5c0.2,0.5,0.4,0.8,0.8,1.2
				s0.7,0.6,1.1,0.7C117.6,348.7,118,348.8,118.5,348.8z"/>
			<path id="XMLID_895_" class="st7" d="M126.9,337.9c-0.5,0-1-0.2-1.4-0.6s-0.6-0.8-0.6-1.3c0-0.5,0.2-1,0.6-1.4s0.8-0.6,1.4-0.6
				c0.5,0,1,0.2,1.4,0.6s0.6,0.8,0.6,1.4c0,0.5-0.2,1-0.6,1.3S127.4,337.9,126.9,337.9z M128.5,351.5h-3.2v-12.8h3.2V351.5z"/>
			<path id="XMLID_893_" class="st7" d="M141.4,351.5h-3.2v-8.1c0-0.6-0.1-1.1-0.4-1.5c-0.3-0.4-0.7-0.6-1.3-0.6
				c-0.6,0-1,0.2-1.3,0.6c-0.3,0.4-0.4,0.9-0.4,1.5v8h-3.2v-12.8h3.2v1c0.2-0.2,0.5-0.4,0.9-0.7s1-0.4,1.9-0.4
				c0.8,0,1.4,0.1,1.9,0.4s0.9,0.6,1.2,1c0.3-0.3,0.7-0.7,1.2-0.9c0.5-0.3,1.2-0.4,2-0.4c0.8,0,1.5,0.1,2,0.4c0.6,0.2,1,0.6,1.3,1
				c0.3,0.4,0.6,0.9,0.7,1.4c0.2,0.5,0.2,1.1,0.2,1.8v8.5h-3.2v-8.1c0-0.6-0.1-1.1-0.4-1.5c-0.3-0.4-0.7-0.5-1.3-0.5s-1,0.2-1.3,0.6
				c-0.3,0.4-0.4,0.9-0.4,1.4V351.5z"/>
			<path id="XMLID_890_" class="st7" d="M152.8,337.9c-0.5,0-1-0.2-1.4-0.6s-0.6-0.8-0.6-1.3c0-0.5,0.2-1,0.6-1.4s0.8-0.6,1.4-0.6
				c0.5,0,1,0.2,1.4,0.6s0.6,0.8,0.6,1.4c0,0.5-0.2,1-0.6,1.3S153.3,337.9,152.8,337.9z M154.4,351.5h-3.2v-12.8h3.2V351.5z"/>
			<path id="XMLID_887_" class="st7" d="M160.4,346.1c0.1,0.8,0.4,1.5,1,2c0.6,0.5,1.3,0.7,2.2,0.7c0.8,0,1.5-0.2,2-0.5
				c0.5-0.4,0.9-0.8,1.3-1.3l2.4,1.4c-0.2,0.4-0.4,0.8-0.8,1.2c-0.3,0.4-0.7,0.8-1.2,1.1c-0.5,0.3-1,0.6-1.6,0.8s-1.3,0.3-2.1,0.3
				c-1,0-1.9-0.2-2.7-0.5c-0.8-0.3-1.5-0.7-2.1-1.3c-0.6-0.6-1-1.3-1.3-2.1c-0.3-0.8-0.5-1.7-0.5-2.8c0-1,0.2-1.8,0.5-2.7
				c0.3-0.8,0.7-1.5,1.3-2.1c0.6-0.6,1.2-1.1,2-1.4s1.6-0.5,2.6-0.5c1,0,1.8,0.2,2.6,0.5s1.4,0.7,2,1.3c0.5,0.6,1,1.2,1.3,2
				c0.3,0.8,0.4,1.7,0.4,2.6c0,0.2,0,0.4,0,0.6c0,0.2,0,0.5,0,0.7H160.4z M163.3,341.2c-0.8,0-1.5,0.2-2,0.7
				c-0.5,0.5-0.8,1.1-0.9,1.8h5.8c-0.1-0.7-0.4-1.3-0.9-1.8C164.9,341.4,164.2,341.2,163.3,341.2z"/>
			<path id="XMLID_884_" class="st7" d="M178.9,343.5c0-0.6-0.1-1.1-0.4-1.5c-0.3-0.4-0.7-0.5-1.3-0.5c-0.6,0-1,0.2-1.3,0.6
				c-0.3,0.4-0.5,0.9-0.5,1.5v8.1h-3.2v-12.8h3.2v1c0.1-0.1,0.2-0.2,0.3-0.3c0.1-0.1,0.3-0.2,0.5-0.4c0.2-0.1,0.5-0.2,0.8-0.3
				c0.3-0.1,0.7-0.1,1.1-0.1c0.8,0,1.4,0.1,1.9,0.4c0.5,0.2,0.9,0.6,1.2,1c0.3,0.4,0.5,0.9,0.7,1.4c0.1,0.5,0.2,1.1,0.2,1.8v8.5
				h-3.2V343.5z"/>
			<path id="XMLID_882_" class="st7" d="M188.7,338.7h2v2.7h-2v6c0,0.5,0.1,0.8,0.3,1c0.2,0.2,0.5,0.3,1,0.3h0.7v2.7
				c0,0-0.2,0-0.5,0.1s-0.7,0.1-1.3,0.1c-1.2,0-2.1-0.3-2.6-0.9c-0.5-0.6-0.8-1.4-0.8-2.5v-6.9h-1.2v-2.7h1.2v-2h3.2V338.7z"/>
			<path id="XMLID_879_" class="st7" d="M192.5,345.1c0-1,0.2-1.8,0.5-2.7c0.3-0.8,0.8-1.5,1.4-2.1c0.6-0.6,1.3-1.1,2.1-1.4
				s1.7-0.5,2.7-0.5c1,0,1.9,0.2,2.8,0.5s1.5,0.8,2.1,1.4c0.6,0.6,1,1.3,1.4,2.1c0.3,0.8,0.5,1.7,0.5,2.6s-0.2,1.8-0.5,2.6
				c-0.3,0.8-0.8,1.5-1.4,2.1c-0.6,0.6-1.3,1.1-2.1,1.4s-1.7,0.5-2.7,0.5c-1,0-1.9-0.2-2.7-0.5c-0.8-0.3-1.5-0.8-2.1-1.4
				c-0.6-0.6-1-1.3-1.4-2.1C192.6,346.9,192.5,346.1,192.5,345.1z M195.7,345.1c0,0.5,0.1,1,0.3,1.5s0.4,0.8,0.7,1.2
				c0.3,0.3,0.7,0.6,1.1,0.8c0.4,0.2,0.9,0.3,1.4,0.3c0.5,0,1-0.1,1.4-0.3c0.4-0.2,0.8-0.4,1.1-0.8s0.5-0.7,0.7-1.2
				c0.2-0.5,0.3-0.9,0.3-1.5s-0.1-1-0.3-1.5s-0.4-0.9-0.7-1.2c-0.3-0.3-0.7-0.6-1.1-0.8c-0.4-0.2-0.9-0.3-1.4-0.3
				c-0.5,0-1,0.1-1.4,0.3c-0.4,0.2-0.8,0.4-1.1,0.8c-0.3,0.3-0.5,0.7-0.7,1.2S195.7,344.6,195.7,345.1z"/>
			<path id="XMLID_876_" class="st7" d="M216.6,355.7h-3.2v-17h3v1.2c0.3-0.3,0.8-0.6,1.4-1c0.6-0.3,1.5-0.5,2.5-0.5
				c1,0,1.9,0.2,2.7,0.5s1.5,0.8,2,1.4s1,1.3,1.3,2.1c0.3,0.8,0.5,1.7,0.5,2.7c0,0.9-0.2,1.8-0.5,2.6c-0.3,0.8-0.7,1.5-1.3,2.1
				c-0.6,0.6-1.3,1.1-2.1,1.4c-0.8,0.3-1.7,0.5-2.7,0.5c-0.8,0-1.6-0.1-2.2-0.4c-0.6-0.3-1.1-0.6-1.4-0.8V355.7z M216.5,345.1
				c0,0.5,0.1,1,0.3,1.5c0.2,0.5,0.4,0.9,0.7,1.2c0.3,0.3,0.7,0.6,1.1,0.8s0.9,0.3,1.5,0.3c0.5,0,1-0.1,1.5-0.3s0.8-0.4,1.1-0.8
				c0.3-0.3,0.5-0.7,0.7-1.2c0.2-0.5,0.2-1,0.2-1.5s-0.1-1-0.3-1.5c-0.2-0.5-0.4-0.9-0.7-1.2c-0.3-0.3-0.7-0.6-1.1-0.8
				c-0.4-0.2-0.9-0.3-1.5-0.3c-0.5,0-1,0.1-1.5,0.3s-0.8,0.5-1.1,0.8c-0.3,0.3-0.5,0.7-0.7,1.2C216.6,344.1,216.5,344.6,216.5,345.1
				z"/>
			<path id="XMLID_874_" class="st7" d="M235.1,342h-0.8c-0.6,0-1.1,0.1-1.3,0.4c-0.2,0.3-0.4,0.7-0.4,1.3v7.8h-3.2v-12.8h3.2v1
				c0.2-0.3,0.5-0.6,0.9-0.8c0.4-0.2,0.9-0.3,1.6-0.3V342z"/>
			<path id="XMLID_871_" class="st7" d="M240.1,346.1c0.1,0.8,0.4,1.5,1,2c0.6,0.5,1.3,0.7,2.2,0.7c0.8,0,1.5-0.2,2-0.5
				c0.5-0.4,0.9-0.8,1.3-1.3l2.4,1.4c-0.2,0.4-0.4,0.8-0.8,1.2c-0.3,0.4-0.7,0.8-1.2,1.1c-0.5,0.3-1,0.6-1.6,0.8
				c-0.6,0.2-1.3,0.3-2.1,0.3c-1,0-1.9-0.2-2.7-0.5c-0.8-0.3-1.5-0.7-2.1-1.3c-0.6-0.6-1-1.3-1.3-2.1c-0.3-0.8-0.5-1.7-0.5-2.8
				c0-1,0.2-1.8,0.5-2.7c0.3-0.8,0.7-1.5,1.3-2.1c0.6-0.6,1.2-1.1,2-1.4s1.6-0.5,2.6-0.5c1,0,1.8,0.2,2.6,0.5c0.8,0.3,1.4,0.7,2,1.3
				c0.5,0.6,1,1.2,1.3,2c0.3,0.8,0.4,1.7,0.4,2.6c0,0.2,0,0.4,0,0.6c0,0.2,0,0.5,0,0.7H240.1z M243,341.2c-0.8,0-1.5,0.2-2,0.7
				c-0.5,0.5-0.8,1.1-0.9,1.8h5.8c-0.1-0.7-0.4-1.3-0.9-1.8S243.9,341.2,243,341.2z"/>
			<path id="XMLID_869_" class="st7" d="M261.7,351.5h-3.2v-8.1c0-0.6-0.1-1.1-0.4-1.5c-0.3-0.4-0.7-0.6-1.3-0.6
				c-0.6,0-1,0.2-1.3,0.6c-0.3,0.4-0.4,0.9-0.4,1.5v8h-3.2v-12.8h3.2v1c0.2-0.2,0.5-0.4,0.9-0.7s1-0.4,1.9-0.4
				c0.8,0,1.4,0.1,1.9,0.4s0.9,0.6,1.2,1c0.3-0.3,0.7-0.7,1.2-0.9c0.5-0.3,1.2-0.4,2-0.4c0.8,0,1.5,0.1,2,0.4c0.6,0.2,1,0.6,1.3,1
				s0.6,0.9,0.7,1.4c0.2,0.5,0.2,1.1,0.2,1.8v8.5h-3.2v-8.1c0-0.6-0.1-1.1-0.4-1.5c-0.3-0.4-0.7-0.5-1.3-0.5s-1,0.2-1.3,0.6
				c-0.3,0.4-0.4,0.9-0.4,1.4V351.5z"/>
			<path id="XMLID_866_" class="st7" d="M271,347.3c0-0.6,0.1-1.1,0.3-1.7c0.2-0.5,0.5-1,0.9-1.3s0.8-0.7,1.4-0.9
				c0.5-0.2,1.2-0.3,1.8-0.3c0.6,0,1.1,0.1,1.4,0.2c0.4,0.1,0.7,0.2,0.8,0.3V343c0-0.6-0.1-1-0.4-1.4s-0.7-0.5-1.3-0.5
				c-0.3,0-0.6,0-0.8,0.1c-0.2,0.1-0.4,0.2-0.5,0.3c-0.1,0.1-0.2,0.3-0.3,0.5c0,0.2-0.1,0.4-0.1,0.5h-3c0-1.2,0.4-2.2,1.2-2.9
				c0.7-0.7,1.9-1.1,3.4-1.1c0.9,0,1.7,0.1,2.3,0.4c0.6,0.2,1.1,0.6,1.5,1c0.4,0.4,0.6,0.9,0.8,1.5c0.2,0.6,0.2,1.3,0.2,2v8.1h-2.7
				v-0.8c-0.2,0.2-0.5,0.4-0.9,0.6c-0.4,0.2-1,0.3-1.8,0.3c-0.6,0-1.2-0.1-1.8-0.3c-0.5-0.2-1-0.5-1.4-0.9c-0.4-0.4-0.7-0.8-0.9-1.4
				C271.1,348.6,271,348,271,347.3z M274.1,347.3c0,0.5,0.2,1,0.5,1.3c0.3,0.3,0.8,0.5,1.4,0.5c0.5,0,1-0.2,1.3-0.5
				c0.4-0.3,0.5-0.8,0.5-1.3s-0.2-1-0.5-1.3c-0.4-0.3-0.8-0.5-1.3-0.5c-0.6,0-1,0.2-1.3,0.5C274.2,346.3,274.1,346.8,274.1,347.3z"
				/>
			<path id="XMLID_864_" class="st7" d="M287.5,338.7h2v2.7h-2v6c0,0.5,0.1,0.8,0.3,1c0.2,0.2,0.5,0.3,1,0.3h0.7v2.7
				c0,0-0.2,0-0.5,0.1c-0.3,0.1-0.7,0.1-1.3,0.1c-1.2,0-2.1-0.3-2.6-0.9c-0.5-0.6-0.8-1.4-0.8-2.5v-6.9h-1.2v-2.7h1.2v-2h3.2V338.7z
				"/>
			<path id="XMLID_862_" class="st7" d="M295.2,346.7c0,0.6,0.1,1.1,0.4,1.5s0.7,0.6,1.3,0.6s1-0.2,1.3-0.6c0.3-0.4,0.5-0.9,0.5-1.5
				v-8h3.2v12.8h-3.2v-1c-0.2,0.2-0.5,0.5-0.9,0.7s-1,0.4-1.8,0.4c-0.7,0-1.3-0.1-1.8-0.3c-0.5-0.2-0.9-0.5-1.2-0.9
				s-0.6-0.9-0.7-1.4c-0.1-0.6-0.2-1.2-0.2-1.8v-8.5h3.2V346.7z"/>
			<path id="XMLID_860_" class="st7" d="M310.6,342h-0.8c-0.6,0-1.1,0.1-1.3,0.4c-0.2,0.3-0.4,0.7-0.4,1.3v7.8h-3.2v-12.8h3.2v1
				c0.2-0.3,0.5-0.6,0.9-0.8s0.9-0.3,1.6-0.3V342z"/>
			<path id="XMLID_857_" class="st7" d="M312.2,345.1c0-1,0.2-1.8,0.5-2.7c0.3-0.8,0.8-1.5,1.4-2.1c0.6-0.6,1.3-1.1,2.1-1.4
				s1.7-0.5,2.7-0.5c1,0,1.9,0.2,2.8,0.5s1.5,0.8,2.1,1.4c0.6,0.6,1,1.3,1.4,2.1c0.3,0.8,0.5,1.7,0.5,2.6s-0.2,1.8-0.5,2.6
				c-0.3,0.8-0.8,1.5-1.4,2.1c-0.6,0.6-1.3,1.1-2.1,1.4s-1.7,0.5-2.7,0.5c-1,0-1.9-0.2-2.7-0.5c-0.8-0.3-1.5-0.8-2.1-1.4
				s-1-1.3-1.4-2.1C312.4,346.9,312.2,346.1,312.2,345.1z M315.4,345.1c0,0.5,0.1,1,0.3,1.5s0.4,0.8,0.7,1.2
				c0.3,0.3,0.7,0.6,1.1,0.8c0.4,0.2,0.9,0.3,1.4,0.3c0.5,0,1-0.1,1.4-0.3c0.4-0.2,0.8-0.4,1.1-0.8c0.3-0.3,0.5-0.7,0.7-1.2
				c0.2-0.5,0.3-0.9,0.3-1.5s-0.1-1-0.3-1.5s-0.4-0.9-0.7-1.2c-0.3-0.3-0.7-0.6-1.1-0.8s-0.9-0.3-1.4-0.3c-0.5,0-1,0.1-1.4,0.3
				c-0.4,0.2-0.8,0.4-1.1,0.8c-0.3,0.3-0.5,0.7-0.7,1.2S315.4,344.6,315.4,345.1z"/>
		</g>
	</g>
	<g id="XMLID_218_">
		<g id="XMLID_947_">
			<path id="XMLID_1006_" class="st7" d="M90.3,256.2h-7.8l-2.2,6.3h-4.5l8.3-22.8h4.8l8.6,22.8h-4.9L90.3,256.2z M83.9,252.3h5
				l-2.5-6.9L83.9,252.3z"/>
			<path id="XMLID_1002_" class="st7" d="M113.5,246.2c0,1-0.2,2-0.5,2.8s-0.8,1.5-1.4,2.1c-0.6,0.6-1.4,1-2.2,1.3
				c-0.9,0.3-1.8,0.5-2.9,0.5H104v9.5h-4.6v-22.8h7.1c2.3,0,4,0.6,5.2,1.7S113.5,244.1,113.5,246.2z M104,243.6v5.3h2.1
				c0.8,0,1.5-0.2,1.9-0.7c0.5-0.5,0.7-1.1,0.7-2c0-0.8-0.2-1.4-0.7-1.9s-1.1-0.7-1.9-0.7H104z"/>
			<path id="XMLID_999_" class="st7" d="M126.6,256.2h-7.8l-2.2,6.3H112l8.3-22.8h4.8l8.6,22.8h-4.9L126.6,256.2z M120.2,252.3h5
				l-2.5-6.9L120.2,252.3z"/>
			<path id="XMLID_996_" class="st7" d="M149.8,246.2c0,1.3-0.3,2.5-0.8,3.4c-0.6,1-1.3,1.7-2.3,2.2l5.4,10.7h-4.9l-4.9-9.8h-2v9.8
				h-4.6v-22.8h7.1c2.3,0,4,0.6,5.2,1.7S149.8,244,149.8,246.2z M140.3,243.6v5.3h2.1c0.8,0,1.5-0.2,1.9-0.7c0.5-0.5,0.7-1.1,0.7-2
				c0-0.8-0.2-1.4-0.7-1.9s-1.1-0.7-1.9-0.7H140.3z"/>
			<path id="XMLID_993_" class="st7" d="M167.7,256.2h-7.8l-2.2,6.3h-4.5l8.3-22.8h4.8l8.6,22.8H170L167.7,256.2z M161.3,252.3h5
				l-2.5-6.9L161.3,252.3z"/>
			<path id="XMLID_991_" class="st7" d="M182.5,243.9v18.5h-4.6v-18.5h-4.2v-4.3h12.9v4.3H182.5z"/>
			<path id="XMLID_988_" class="st7" d="M187.3,251.1c0-1.7,0.3-3.2,0.9-4.7c0.6-1.5,1.4-2.7,2.4-3.8c1-1.1,2.3-1.9,3.7-2.5
				s3-0.9,4.8-0.9c1.8,0,3.4,0.3,4.9,0.9s2.7,1.4,3.8,2.5c1,1.1,1.8,2.3,2.4,3.7c0.6,1.4,0.9,3,0.9,4.7c0,1.7-0.3,3.2-0.8,4.7
				c-0.6,1.5-1.4,2.7-2.4,3.8s-2.3,1.9-3.8,2.5c-1.5,0.6-3.1,0.9-4.9,0.9c-1.8,0-3.5-0.3-4.9-0.9c-1.5-0.6-2.7-1.4-3.7-2.5
				c-1-1.1-1.8-2.3-2.4-3.7C187.5,254.3,187.3,252.8,187.3,251.1z M192.1,251.1c0,1.1,0.2,2.1,0.5,3s0.8,1.7,1.4,2.4
				c0.6,0.7,1.4,1.2,2.2,1.6c0.9,0.4,1.8,0.6,2.9,0.6c1.1,0,2.1-0.2,3-0.6c0.9-0.4,1.6-0.9,2.2-1.6c0.6-0.7,1.1-1.5,1.4-2.4
				c0.3-0.9,0.5-1.9,0.5-3c0-1.1-0.2-2.1-0.5-3c-0.3-0.9-0.8-1.7-1.4-2.4s-1.4-1.2-2.2-1.6c-0.9-0.4-1.9-0.6-2.9-0.6
				c-1.1,0-2.1,0.2-3,0.6c-0.9,0.4-1.6,0.9-2.2,1.6s-1.1,1.5-1.4,2.4C192.2,249,192.1,250,192.1,251.1z"/>
			<path id="XMLID_985_" class="st7" d="M233.6,246.2c0,1.3-0.3,2.5-0.8,3.4c-0.6,1-1.3,1.7-2.3,2.2l5.4,10.7H231l-4.9-9.8h-2v9.8
				h-4.6v-22.8h7.1c2.3,0,4,0.6,5.2,1.7S233.6,244,233.6,246.2z M224.1,243.6v5.3h2.1c0.8,0,1.5-0.2,1.9-0.7c0.5-0.5,0.7-1.1,0.7-2
				c0-0.8-0.2-1.4-0.7-1.9s-1.1-0.7-1.9-0.7H224.1z"/>
			<path id="XMLID_983_" class="st7" d="M237.6,262.5v-22.8h10.5v4.3h-5.9v4.8h5.7v4.3h-5.7v5.2h6v4.3H237.6z"/>
			<path id="XMLID_980_" class="st7" d="M265.5,246.2c0,1-0.2,2-0.5,2.8s-0.8,1.5-1.4,2.1c-0.6,0.6-1.4,1-2.2,1.3
				c-0.9,0.3-1.8,0.5-2.9,0.5h-2.5v9.5h-4.6v-22.8h7.1c2.3,0,4,0.6,5.2,1.7C264.9,242.4,265.5,244.1,265.5,246.2z M255.9,243.6v5.3
				h2.1c0.8,0,1.5-0.2,1.9-0.7c0.5-0.5,0.7-1.1,0.7-2c0-0.8-0.2-1.4-0.7-1.9s-1.1-0.7-1.9-0.7H255.9z"/>
			<path id="XMLID_977_" class="st7" d="M282.1,246.2c0,1.3-0.3,2.5-0.8,3.4c-0.6,1-1.3,1.7-2.3,2.2l5.4,10.7h-4.9l-4.9-9.8h-2v9.8
				H268v-22.8h7.1c2.3,0,4,0.6,5.2,1.7C281.5,242.4,282.1,244,282.1,246.2z M272.6,243.6v5.3h2.1c0.8,0,1.5-0.2,1.9-0.7
				c0.5-0.5,0.7-1.1,0.7-2c0-0.8-0.2-1.4-0.7-1.9s-1.1-0.7-1.9-0.7H272.6z"/>
			<path id="XMLID_974_" class="st7" d="M284.4,251.1c0-1.7,0.3-3.2,0.9-4.7c0.6-1.5,1.4-2.7,2.4-3.8c1-1.1,2.3-1.9,3.7-2.5
				s3-0.9,4.8-0.9c1.8,0,3.4,0.3,4.9,0.9c1.5,0.6,2.7,1.4,3.8,2.5c1,1.1,1.8,2.3,2.4,3.7c0.6,1.4,0.9,3,0.9,4.7
				c0,1.7-0.3,3.2-0.8,4.7s-1.4,2.7-2.4,3.8s-2.3,1.9-3.8,2.5c-1.5,0.6-3.1,0.9-4.9,0.9c-1.8,0-3.5-0.3-4.9-0.9
				c-1.5-0.6-2.7-1.4-3.7-2.5c-1-1.1-1.8-2.3-2.4-3.7S284.4,252.8,284.4,251.1z M289.3,251.1c0,1.1,0.2,2.1,0.5,3
				c0.3,0.9,0.8,1.7,1.4,2.4c0.6,0.7,1.4,1.2,2.2,1.6c0.9,0.4,1.8,0.6,2.9,0.6c1.1,0,2.1-0.2,3-0.6c0.9-0.4,1.6-0.9,2.2-1.6
				c0.6-0.7,1.1-1.5,1.4-2.4c0.3-0.9,0.5-1.9,0.5-3c0-1.1-0.2-2.1-0.5-3c-0.3-0.9-0.8-1.7-1.4-2.4c-0.6-0.7-1.4-1.2-2.2-1.6
				c-0.9-0.4-1.9-0.6-2.9-0.6c-1.1,0-2.1,0.2-3,0.6c-0.9,0.4-1.6,0.9-2.2,1.6s-1.1,1.5-1.4,2.4C289.4,249,289.3,250,289.3,251.1z"/>
			<path id="XMLID_971_" class="st7" d="M315.7,239.6c1.9,0,3.5,0.3,5,0.8c1.5,0.5,2.7,1.3,3.8,2.2c1,1,1.8,2.2,2.4,3.6
				c0.6,1.4,0.8,3,0.8,4.8c0,1.8-0.3,3.3-0.8,4.8c-0.5,1.4-1.3,2.6-2.4,3.6c-1,1-2.3,1.8-3.8,2.3s-3.1,0.8-5,0.8h-4.6v-22.8H315.7z
				 M315.7,258.5h0.3c2.2,0,3.9-0.6,5.1-1.9c1.2-1.3,1.9-3.1,1.9-5.6c0-2.4-0.6-4.3-1.8-5.5c-1.2-1.3-2.9-1.9-5.1-1.9h-0.3V258.5z"
				/>
			<path id="XMLID_969_" class="st7" d="M339.6,262.9c-1.6,0-2.9-0.2-4-0.7c-1.1-0.5-2.1-1.1-2.8-1.9c-0.7-0.8-1.3-1.8-1.7-2.9
				s-0.5-2.4-0.5-3.8v-13.9h4.6v13.9c0,1.5,0.4,2.7,1.1,3.6c0.7,0.9,1.9,1.4,3.4,1.4c1.5,0,2.6-0.5,3.4-1.4s1.1-2.2,1.1-3.7v-13.9
				h4.6v13.9c0,1.4-0.2,2.6-0.6,3.8c-0.4,1.1-1,2.1-1.8,3c-0.8,0.8-1.7,1.5-2.9,1.9C342.4,262.7,341.1,262.9,339.6,262.9z"/>
			<path id="XMLID_967_" class="st7" d="M371,259.9c-0.9,0.9-1.9,1.6-3.2,2.1c-1.3,0.6-2.7,0.9-4.4,0.9c-1.8,0-3.5-0.3-5-0.9
				c-1.5-0.6-2.7-1.4-3.8-2.5c-1-1.1-1.8-2.3-2.4-3.7s-0.8-3-0.8-4.7c0-1.7,0.3-3.2,0.9-4.7c0.6-1.5,1.4-2.7,2.4-3.8
				s2.3-1.9,3.7-2.5s3.1-0.9,4.9-0.9c1.7,0,3.1,0.2,4.3,0.7c1.2,0.5,2.3,1.1,3.3,1.9l-2.7,3.4c-0.5-0.5-1.2-0.9-2-1.2
				c-0.8-0.4-1.8-0.6-2.8-0.6c-1.1,0-2.1,0.2-3,0.6c-0.9,0.4-1.6,0.9-2.2,1.6c-0.6,0.7-1.1,1.5-1.4,2.4c-0.3,0.9-0.5,1.9-0.5,3
				c0,1.1,0.2,2.1,0.5,3c0.3,0.9,0.8,1.7,1.5,2.4c0.6,0.7,1.4,1.2,2.3,1.6c0.9,0.4,1.9,0.6,2.9,0.6c1.2,0,2.2-0.2,3-0.6
				c0.8-0.4,1.4-0.9,1.9-1.3L371,259.9z"/>
			<path id="XMLID_965_" class="st7" d="M381.4,243.9v18.5h-4.6v-18.5h-4.2v-4.3h12.9v4.3H381.4z"/>
			<path id="XMLID_962_" class="st7" d="M386.2,251.1c0-1.7,0.3-3.2,0.9-4.7c0.6-1.5,1.4-2.7,2.4-3.8c1-1.1,2.3-1.9,3.7-2.5
				s3-0.9,4.8-0.9c1.8,0,3.4,0.3,4.9,0.9c1.5,0.6,2.7,1.4,3.8,2.5c1,1.1,1.8,2.3,2.4,3.7c0.6,1.4,0.9,3,0.9,4.7
				c0,1.7-0.3,3.2-0.8,4.7s-1.4,2.7-2.4,3.8s-2.3,1.9-3.8,2.5c-1.5,0.6-3.1,0.9-4.9,0.9c-1.8,0-3.5-0.3-4.9-0.9
				c-1.5-0.6-2.7-1.4-3.7-2.5c-1-1.1-1.8-2.3-2.4-3.7S386.2,252.8,386.2,251.1z M391,251.1c0,1.1,0.2,2.1,0.5,3
				c0.3,0.9,0.8,1.7,1.4,2.4c0.6,0.7,1.4,1.2,2.2,1.6c0.9,0.4,1.8,0.6,2.9,0.6c1.1,0,2.1-0.2,3-0.6c0.9-0.4,1.6-0.9,2.2-1.6
				c0.6-0.7,1.1-1.5,1.4-2.4c0.3-0.9,0.5-1.9,0.5-3c0-1.1-0.2-2.1-0.5-3c-0.3-0.9-0.8-1.7-1.4-2.4c-0.6-0.7-1.4-1.2-2.2-1.6
				c-0.9-0.4-1.9-0.6-2.9-0.6c-1.1,0-2.1,0.2-3,0.6c-0.9,0.4-1.6,0.9-2.2,1.6s-1.1,1.5-1.4,2.4C391.2,249,391,250,391,251.1z"/>
			<path id="XMLID_959_" class="st7" d="M427,246.2c0,1.3-0.3,2.5-0.8,3.4c-0.6,1-1.3,1.7-2.3,2.2l5.4,10.7h-4.9l-4.9-9.8h-2v9.8
				h-4.6v-22.8h7.1c2.3,0,4,0.6,5.2,1.7C426.4,242.4,427,244,427,246.2z M417.5,243.6v5.3h2.1c0.8,0,1.5-0.2,1.9-0.7
				c0.5-0.5,0.7-1.1,0.7-2c0-0.8-0.2-1.4-0.7-1.9s-1.1-0.7-1.9-0.7H417.5z"/>
			<path id="XMLID_957_" class="st7" d="M75.5,277.1h5.1l3.7,6.9l3.8-6.9H93l-6.5,11.4V300h-4.6v-11.4L75.5,277.1z"/>
			<path id="XMLID_955_" class="st7" d="M105.1,290.5v9.5h-4.6v-22.8H111v4.3h-6v4.8h5.8v4.3H105.1z"/>
			<path id="XMLID_953_" class="st7" d="M114.2,300v-22.8h10.5v4.3h-5.9v4.8h5.7v4.3h-5.7v5.2h6v4.3H114.2z"/>
			<path id="XMLID_951_" class="st7" d="M135.8,281.4V300h-4.6v-18.5h-4.2v-4.3H140v4.3H135.8z"/>
			<path id="XMLID_948_" class="st7" d="M140.6,288.6c0-1.7,0.3-3.2,0.9-4.7c0.6-1.5,1.4-2.7,2.4-3.8c1-1.1,2.3-1.9,3.7-2.5
				s3-0.9,4.8-0.9c1.8,0,3.4,0.3,4.9,0.9s2.7,1.4,3.8,2.5c1,1.1,1.8,2.3,2.4,3.7c0.6,1.4,0.9,3,0.9,4.7c0,1.7-0.3,3.2-0.8,4.7
				c-0.6,1.5-1.4,2.7-2.4,3.8s-2.3,1.9-3.8,2.5c-1.5,0.6-3.1,0.9-4.9,0.9c-1.8,0-3.5-0.3-4.9-0.9c-1.5-0.6-2.7-1.4-3.7-2.5
				c-1-1.1-1.8-2.3-2.4-3.7C140.9,291.8,140.6,290.3,140.6,288.6z M145.4,288.6c0,1.1,0.2,2.1,0.5,3s0.8,1.7,1.4,2.4
				c0.6,0.7,1.4,1.2,2.2,1.6c0.9,0.4,1.8,0.6,2.9,0.6c1.1,0,2.1-0.2,3-0.6c0.9-0.4,1.6-0.9,2.2-1.6c0.6-0.7,1.1-1.5,1.4-2.4
				c0.3-0.9,0.5-1.9,0.5-3c0-1.1-0.2-2.1-0.5-3c-0.3-0.9-0.8-1.7-1.4-2.4s-1.4-1.2-2.2-1.6c-0.9-0.4-1.9-0.6-2.9-0.6
				c-1.1,0-2.1,0.2-3,0.6c-0.9,0.4-1.6,0.9-2.2,1.6s-1.1,1.5-1.4,2.4C145.6,286.5,145.4,287.5,145.4,288.6z"/>
		</g>
	</g>
	<circle id="XMLID_260_" class="st3" cx="64.3" cy="343.9" r="5.5"/>
</g>
<g id="Cap">
	<g id="XMLID_200_">
		<g id="XMLID_621_">
			<path id="XMLID_636_" class="st7" d="M94.7,79.5c-0.9,0.9-1.9,1.6-3.2,2.1c-1.3,0.6-2.7,0.9-4.4,0.9c-1.8,0-3.5-0.3-5-0.9
				c-1.5-0.6-2.7-1.4-3.8-2.5c-1-1.1-1.8-2.3-2.4-3.7c-0.6-1.4-0.8-3-0.8-4.7c0-1.7,0.3-3.2,0.9-4.7c0.6-1.5,1.4-2.7,2.4-3.8
				c1-1.1,2.3-1.9,3.7-2.5c1.5-0.6,3.1-0.9,4.9-0.9c1.7,0,3.1,0.2,4.3,0.7s2.3,1.1,3.3,1.9l-2.7,3.4c-0.5-0.5-1.2-0.9-2-1.2
				c-0.8-0.4-1.8-0.6-2.8-0.6c-1.1,0-2.1,0.2-3,0.6c-0.9,0.4-1.6,0.9-2.2,1.6c-0.6,0.7-1.1,1.5-1.4,2.4c-0.3,0.9-0.5,1.9-0.5,3
				c0,1.1,0.2,2.1,0.5,3s0.8,1.7,1.5,2.4c0.6,0.7,1.4,1.2,2.3,1.6c0.9,0.4,1.9,0.6,2.9,0.6c1.2,0,2.2-0.2,3-0.6
				c0.8-0.4,1.4-0.9,1.9-1.3L94.7,79.5z"/>
			<path id="XMLID_633_" class="st7" d="M111.2,75.8h-7.8l-2.2,6.3h-4.5l8.3-22.8h4.8l8.6,22.8h-4.9L111.2,75.8z M104.8,71.9h5
				l-2.5-6.9L104.8,71.9z"/>
			<path id="XMLID_629_" class="st7" d="M135.8,75.3c0,1.1-0.2,2-0.5,2.8s-0.8,1.5-1.4,2.1c-0.6,0.6-1.3,1-2.2,1.3
				c-0.8,0.3-1.8,0.5-2.8,0.5h-7.5V59.2h7c2.3,0,4,0.5,5.1,1.6c1.1,1.1,1.7,2.6,1.7,4.6c0,1-0.2,1.9-0.7,2.8c-0.4,0.8-1,1.5-1.8,1.8
				c1,0.5,1.7,1.1,2.2,2S135.8,73.9,135.8,75.3z M125.9,63.2v5.2h2.1c0.8,0,1.4-0.2,1.9-0.7s0.7-1.1,0.7-1.9c0-1.7-0.8-2.6-2.5-2.6
				H125.9z M125.9,72.3V78h2.3c0.9,0,1.6-0.3,2.1-0.8c0.5-0.5,0.7-1.2,0.7-2.1c0-0.9-0.2-1.6-0.7-2.1c-0.5-0.5-1.2-0.7-2.1-0.7
				H125.9z"/>
			<path id="XMLID_627_" class="st7" d="M139.6,82V59.2h10.5v4.3h-5.9v4.8h5.7v4.3h-5.7v5.2h6V82H139.6z"/>
			<path id="XMLID_625_" class="st7" d="M153.8,82v-3.1l11-15.4h-10.9v-4.3h17.3v3.2l-11.1,15.5h11.2V82H153.8z"/>
			<path id="XMLID_622_" class="st7" d="M188.3,75.8h-7.8l-2.2,6.3h-4.5l8.3-22.8h4.8l8.6,22.8h-4.9L188.3,75.8z M181.9,71.9h5
				l-2.5-6.9L181.9,71.9z"/>
		</g>
	</g>
	<g id="XMLID_1_">
		<g id="XMLID_3_">
			<g id="XMLID_1090_">
				<path id="XMLID_1171_" class="st8" d="M85.7,121.7c0,1-0.2,1.8-0.6,2.5c-0.4,0.7-1,1.2-1.7,1.6l3.9,7.8h-3.6l-3.5-7.1h-1.4v7.1
					h-3.3v-16.6h5.1c1.7,0,2.9,0.4,3.8,1.2C85.3,118.9,85.7,120.1,85.7,121.7z M78.8,119.8v3.9h1.6c0.6,0,1.1-0.2,1.4-0.5
					s0.5-0.8,0.5-1.4c0-0.6-0.2-1.1-0.5-1.4c-0.3-0.3-0.8-0.5-1.4-0.5H78.8z"/>
				<path id="XMLID_1168_" class="st8" d="M91.5,128.1c0.1,0.8,0.4,1.5,1,2c0.6,0.5,1.3,0.7,2.2,0.7c0.8,0,1.5-0.2,2-0.5
					c0.5-0.4,0.9-0.8,1.3-1.3l2.4,1.4c-0.2,0.4-0.4,0.8-0.8,1.2c-0.3,0.4-0.7,0.8-1.2,1.1c-0.5,0.3-1,0.6-1.6,0.8s-1.3,0.3-2.1,0.3
					c-1,0-1.9-0.2-2.7-0.5c-0.8-0.3-1.5-0.7-2.1-1.3c-0.6-0.6-1-1.3-1.3-2.1c-0.3-0.8-0.5-1.7-0.5-2.8c0-1,0.2-1.8,0.5-2.7
					c0.3-0.8,0.7-1.5,1.3-2.1c0.6-0.6,1.2-1.1,2-1.4s1.6-0.5,2.6-0.5c1,0,1.8,0.2,2.6,0.5s1.4,0.7,2,1.3c0.5,0.6,1,1.2,1.3,2
					c0.3,0.8,0.4,1.7,0.4,2.6c0,0.2,0,0.4,0,0.6c0,0.2,0,0.5,0,0.7H91.5z M94.4,123.2c-0.8,0-1.5,0.2-2,0.7
					c-0.5,0.5-0.8,1.1-0.9,1.8h5.8c-0.1-0.7-0.4-1.3-0.9-1.8C96,123.4,95.3,123.2,94.4,123.2z"/>
				<path id="XMLID_1165_" class="st8" d="M113.2,132.2c-0.4,0.4-0.9,0.8-1.6,1.1s-1.4,0.4-2.2,0.4c-1,0-1.9-0.2-2.7-0.5
					c-0.8-0.3-1.5-0.8-2.1-1.4c-0.6-0.6-1-1.3-1.3-2.1c-0.3-0.8-0.5-1.7-0.5-2.7c0-0.9,0.2-1.8,0.5-2.6c0.3-0.8,0.8-1.5,1.3-2.1
					c0.6-0.6,1.3-1.1,2.1-1.4c0.8-0.3,1.7-0.5,2.6-0.5c0.8,0,1.5,0.1,2.2,0.3c0.6,0.2,1.1,0.5,1.5,0.9V116h3.2v17.5h-3V132.2z
					 M106,127.1c0,0.5,0.1,1,0.3,1.5c0.2,0.5,0.4,0.8,0.7,1.2c0.3,0.3,0.7,0.6,1.1,0.8c0.4,0.2,0.9,0.3,1.4,0.3c0.5,0,1-0.1,1.5-0.3
					c0.4-0.2,0.8-0.5,1.1-0.8c0.3-0.3,0.5-0.7,0.7-1.2s0.3-1,0.3-1.5c0-0.5-0.1-1-0.3-1.5s-0.4-0.9-0.7-1.2s-0.7-0.6-1.1-0.8
					c-0.4-0.2-0.9-0.3-1.4-0.3c-0.5,0-1,0.1-1.5,0.3c-0.4,0.2-0.8,0.5-1.1,0.8c-0.3,0.3-0.6,0.7-0.7,1.2S106,126.6,106,127.1z"/>
				<path id="XMLID_1163_" class="st8" d="M122.4,128.7c0,0.6,0.1,1.1,0.4,1.5s0.7,0.6,1.3,0.6s1-0.2,1.3-0.6
					c0.3-0.4,0.5-0.9,0.5-1.5v-8h3.2v12.8h-3.2v-1c-0.2,0.2-0.5,0.5-0.9,0.7c-0.4,0.3-1,0.4-1.8,0.4c-0.7,0-1.3-0.1-1.8-0.3
					c-0.5-0.2-0.9-0.5-1.2-0.9c-0.3-0.4-0.6-0.9-0.7-1.4c-0.1-0.6-0.2-1.2-0.2-1.8v-8.5h3.2V128.7z"/>
				<path id="XMLID_1161_" class="st8" d="M138.4,130.8c0.7,0,1.2-0.1,1.6-0.3c0.4-0.2,0.8-0.5,1.1-0.7l1.8,2.2
					c-0.2,0.2-0.4,0.4-0.7,0.6s-0.6,0.4-1,0.6c-0.4,0.2-0.8,0.3-1.3,0.4c-0.5,0.1-1,0.2-1.5,0.2c-1,0-1.9-0.2-2.7-0.5
					c-0.8-0.3-1.5-0.8-2.1-1.4c-0.6-0.6-1-1.3-1.3-2.1c-0.3-0.8-0.5-1.7-0.5-2.6c0-0.9,0.2-1.8,0.5-2.6s0.8-1.5,1.4-2.1
					c0.6-0.6,1.3-1.1,2.1-1.4c0.8-0.3,1.7-0.5,2.7-0.5c0.6,0,1.1,0.1,1.6,0.2c0.5,0.1,0.9,0.2,1.3,0.4s0.7,0.4,1,0.6
					c0.3,0.2,0.5,0.4,0.7,0.6l-1.8,2.2c-0.3-0.3-0.6-0.5-1-0.7c-0.4-0.2-1-0.3-1.6-0.3c-0.5,0-1,0.1-1.4,0.3
					c-0.4,0.2-0.8,0.5-1.1,0.8s-0.5,0.7-0.7,1.2c-0.2,0.5-0.2,0.9-0.2,1.5c0,0.6,0.1,1.1,0.3,1.5c0.2,0.5,0.4,0.8,0.8,1.2
					s0.7,0.6,1.1,0.7C137.5,130.7,137.9,130.8,138.4,130.8z"/>
				<path id="XMLID_1159_" class="st8" d="M150.6,130.8c0.7,0,1.2-0.1,1.6-0.3c0.4-0.2,0.8-0.5,1.1-0.7l1.8,2.2
					c-0.2,0.2-0.4,0.4-0.7,0.6s-0.6,0.4-1,0.6c-0.4,0.2-0.8,0.3-1.3,0.4c-0.5,0.1-1,0.2-1.5,0.2c-1,0-1.9-0.2-2.7-0.5
					c-0.8-0.3-1.5-0.8-2.1-1.4c-0.6-0.6-1-1.3-1.3-2.1c-0.3-0.8-0.5-1.7-0.5-2.6c0-0.9,0.2-1.8,0.5-2.6s0.8-1.5,1.4-2.1
					c0.6-0.6,1.3-1.1,2.1-1.4c0.8-0.3,1.7-0.5,2.7-0.5c0.6,0,1.1,0.1,1.6,0.2c0.5,0.1,0.9,0.2,1.3,0.4s0.7,0.4,1,0.6
					c0.3,0.2,0.5,0.4,0.7,0.6l-1.8,2.2c-0.3-0.3-0.6-0.5-1-0.7c-0.4-0.2-1-0.3-1.6-0.3c-0.5,0-1,0.1-1.4,0.3
					c-0.4,0.2-0.8,0.5-1.1,0.8s-0.5,0.7-0.7,1.2c-0.2,0.5-0.2,0.9-0.2,1.5c0,0.6,0.1,1.1,0.3,1.5c0.2,0.5,0.4,0.8,0.8,1.2
					s0.7,0.6,1.1,0.7C149.7,130.7,150.1,130.8,150.6,130.8z"/>
				<path id="XMLID_1156_" class="st8" d="M159,119.9c-0.5,0-1-0.2-1.4-0.6s-0.6-0.8-0.6-1.3c0-0.5,0.2-1,0.6-1.4s0.8-0.6,1.4-0.6
					c0.5,0,1,0.2,1.4,0.6s0.6,0.8,0.6,1.4c0,0.5-0.2,1-0.6,1.3S159.5,119.9,159,119.9z M160.6,133.5h-3.2v-12.8h3.2V133.5z"/>
				<path id="XMLID_1152_" class="st8" d="M163.2,127.1c0-1,0.2-1.8,0.5-2.7c0.3-0.8,0.8-1.5,1.4-2.1c0.6-0.6,1.3-1.1,2.1-1.4
					s1.7-0.5,2.7-0.5c1,0,1.9,0.2,2.8,0.5s1.5,0.8,2.1,1.4c0.6,0.6,1,1.3,1.4,2.1c0.3,0.8,0.5,1.7,0.5,2.6s-0.2,1.8-0.5,2.6
					c-0.3,0.8-0.8,1.5-1.4,2.1c-0.6,0.6-1.3,1.1-2.1,1.4s-1.7,0.5-2.7,0.5c-1,0-1.9-0.2-2.7-0.5c-0.8-0.3-1.5-0.8-2.1-1.4
					c-0.6-0.6-1-1.3-1.4-2.1C163.3,129,163.2,128.1,163.2,127.1z M166.4,127.1c0,0.5,0.1,1,0.3,1.5s0.4,0.8,0.7,1.2
					c0.3,0.3,0.7,0.6,1.1,0.8c0.4,0.2,0.9,0.3,1.4,0.3c0.5,0,1-0.1,1.4-0.3c0.4-0.2,0.8-0.4,1.1-0.8s0.5-0.7,0.7-1.2
					c0.2-0.5,0.3-0.9,0.3-1.5s-0.1-1-0.3-1.5s-0.4-0.9-0.7-1.2c-0.3-0.3-0.7-0.6-1.1-0.8c-0.4-0.2-0.9-0.3-1.4-0.3
					c-0.5,0-1,0.1-1.4,0.3c-0.4,0.2-0.8,0.4-1.1,0.8c-0.3,0.3-0.5,0.7-0.7,1.2S166.4,126.6,166.4,127.1z M173.3,116.5l-1.9,3.3h-3
					l1.8-3.3H173.3z"/>
				<path id="XMLID_1150_" class="st8" d="M185.9,125.5c0-0.6-0.1-1.1-0.4-1.5c-0.3-0.4-0.7-0.5-1.3-0.5c-0.6,0-1,0.2-1.3,0.6
					c-0.3,0.4-0.5,0.9-0.5,1.5v8.1h-3.2v-12.8h3.2v1c0.1-0.1,0.2-0.2,0.3-0.3c0.1-0.1,0.3-0.2,0.5-0.4c0.2-0.1,0.5-0.2,0.8-0.3
					c0.3-0.1,0.7-0.1,1.1-0.1c0.8,0,1.4,0.1,1.9,0.4c0.5,0.2,0.9,0.6,1.2,1c0.3,0.4,0.5,0.9,0.7,1.4c0.1,0.5,0.2,1.1,0.2,1.8v8.5
					h-3.2V125.5z"/>
				<path id="XMLID_1147_" class="st8" d="M207,132.2c-0.4,0.4-0.9,0.8-1.6,1.1s-1.4,0.4-2.2,0.4c-1,0-1.9-0.2-2.7-0.5
					c-0.8-0.3-1.5-0.8-2.1-1.4c-0.6-0.6-1-1.3-1.3-2.1c-0.3-0.8-0.5-1.7-0.5-2.7c0-0.9,0.2-1.8,0.5-2.6c0.3-0.8,0.8-1.5,1.3-2.1
					c0.6-0.6,1.3-1.1,2.1-1.4c0.8-0.3,1.7-0.5,2.6-0.5c0.8,0,1.5,0.1,2.2,0.3c0.6,0.2,1.1,0.5,1.5,0.9V116h3.2v17.5h-3V132.2z
					 M199.8,127.1c0,0.5,0.1,1,0.3,1.5c0.2,0.5,0.4,0.8,0.7,1.2c0.3,0.3,0.7,0.6,1.1,0.8c0.4,0.2,0.9,0.3,1.4,0.3
					c0.5,0,1-0.1,1.5-0.3c0.4-0.2,0.8-0.5,1.1-0.8c0.3-0.3,0.5-0.7,0.7-1.2s0.3-1,0.3-1.5c0-0.5-0.1-1-0.3-1.5s-0.4-0.9-0.7-1.2
					s-0.7-0.6-1.1-0.8c-0.4-0.2-0.9-0.3-1.4-0.3c-0.5,0-1,0.1-1.5,0.3c-0.4,0.2-0.8,0.5-1.1,0.8c-0.3,0.3-0.6,0.7-0.7,1.2
					S199.8,126.6,199.8,127.1z"/>
				<path id="XMLID_1144_" class="st8" d="M216,128.1c0.1,0.8,0.4,1.5,1,2c0.6,0.5,1.3,0.7,2.2,0.7c0.8,0,1.5-0.2,2-0.5
					c0.5-0.4,0.9-0.8,1.3-1.3l2.4,1.4c-0.2,0.4-0.4,0.8-0.8,1.2c-0.3,0.4-0.7,0.8-1.2,1.1c-0.5,0.3-1,0.6-1.6,0.8s-1.3,0.3-2.1,0.3
					c-1,0-1.9-0.2-2.7-0.5c-0.8-0.3-1.5-0.7-2.1-1.3c-0.6-0.6-1-1.3-1.3-2.1c-0.3-0.8-0.5-1.7-0.5-2.8c0-1,0.2-1.8,0.5-2.7
					c0.3-0.8,0.7-1.5,1.3-2.1c0.6-0.6,1.2-1.1,2-1.4s1.6-0.5,2.6-0.5c1,0,1.8,0.2,2.6,0.5s1.4,0.7,2,1.3c0.5,0.6,1,1.2,1.3,2
					c0.3,0.8,0.4,1.7,0.4,2.6c0,0.2,0,0.4,0,0.6c0,0.2,0,0.5,0,0.7H216z M218.9,123.2c-0.8,0-1.5,0.2-2,0.7
					c-0.5,0.5-0.8,1.1-0.9,1.8h5.8c-0.1-0.7-0.4-1.3-0.9-1.8C220.5,123.4,219.8,123.2,218.9,123.2z"/>
				<path id="XMLID_1142_" class="st8" d="M231,133.5h-3.2V116h3.2V133.5z"/>
				<path id="XMLID_1140_" class="st8" d="M244.6,124h-0.8c-0.6,0-1.1,0.1-1.3,0.4c-0.2,0.3-0.4,0.7-0.4,1.3v7.8h-3.2v-12.8h3.2v1
					c0.2-0.3,0.5-0.6,0.9-0.8c0.4-0.2,0.9-0.3,1.6-0.3V124z"/>
				<path id="XMLID_1137_" class="st8" d="M249.6,128.1c0.1,0.8,0.4,1.5,1,2c0.6,0.5,1.3,0.7,2.2,0.7c0.8,0,1.5-0.2,2-0.5
					c0.5-0.4,0.9-0.8,1.3-1.3l2.4,1.4c-0.2,0.4-0.4,0.8-0.8,1.2c-0.3,0.4-0.7,0.8-1.2,1.1c-0.5,0.3-1,0.6-1.6,0.8s-1.3,0.3-2.1,0.3
					c-1,0-1.9-0.2-2.7-0.5c-0.8-0.3-1.5-0.7-2.1-1.3c-0.6-0.6-1-1.3-1.3-2.1c-0.3-0.8-0.5-1.7-0.5-2.8c0-1,0.2-1.8,0.5-2.7
					c0.3-0.8,0.7-1.5,1.3-2.1c0.6-0.6,1.2-1.1,2-1.4s1.6-0.5,2.6-0.5c1,0,1.8,0.2,2.6,0.5s1.4,0.7,2,1.3c0.5,0.6,1,1.2,1.3,2
					c0.3,0.8,0.4,1.7,0.4,2.6c0,0.2,0,0.4,0,0.6c0,0.2,0,0.5,0,0.7H249.6z M252.5,123.2c-0.8,0-1.5,0.2-2,0.7
					c-0.5,0.5-0.8,1.1-0.9,1.8h5.8c-0.1-0.7-0.4-1.3-0.9-1.8C254.1,123.4,253.4,123.2,252.5,123.2z"/>
				<path id="XMLID_1135_" class="st8" d="M268.1,125.5c0-0.6-0.1-1.1-0.4-1.5c-0.3-0.4-0.7-0.5-1.3-0.5c-0.6,0-1,0.2-1.3,0.6
					c-0.3,0.4-0.5,0.9-0.5,1.5v8.1h-3.2v-12.8h3.2v1c0.1-0.1,0.2-0.2,0.3-0.3c0.1-0.1,0.3-0.2,0.5-0.4c0.2-0.1,0.5-0.2,0.8-0.3
					c0.3-0.1,0.7-0.1,1.1-0.1c0.8,0,1.4,0.1,1.9,0.4c0.5,0.2,0.9,0.6,1.2,1c0.3,0.4,0.5,0.9,0.7,1.4c0.1,0.5,0.2,1.1,0.2,1.8v8.5
					h-3.2V125.5z"/>
				<path id="XMLID_1132_" class="st8" d="M284.3,132.2c-0.4,0.4-0.9,0.8-1.6,1.1s-1.4,0.4-2.2,0.4c-1,0-1.9-0.2-2.7-0.5
					c-0.8-0.3-1.5-0.8-2.1-1.4c-0.6-0.6-1-1.3-1.3-2.1c-0.3-0.8-0.5-1.7-0.5-2.7c0-0.9,0.2-1.8,0.5-2.6c0.3-0.8,0.8-1.5,1.3-2.1
					c0.6-0.6,1.3-1.1,2.1-1.4c0.8-0.3,1.7-0.5,2.6-0.5c0.8,0,1.5,0.1,2.2,0.3c0.6,0.2,1.1,0.5,1.5,0.9V116h3.2v17.5h-3V132.2z
					 M277.1,127.1c0,0.5,0.1,1,0.3,1.5c0.2,0.5,0.4,0.8,0.7,1.2c0.3,0.3,0.7,0.6,1.1,0.8c0.4,0.2,0.9,0.3,1.4,0.3
					c0.5,0,1-0.1,1.5-0.3c0.4-0.2,0.8-0.5,1.1-0.8c0.3-0.3,0.5-0.7,0.7-1.2s0.3-1,0.3-1.5c0-0.5-0.1-1-0.3-1.5s-0.4-0.9-0.7-1.2
					s-0.7-0.6-1.1-0.8c-0.4-0.2-0.9-0.3-1.4-0.3c-0.5,0-1,0.1-1.5,0.3c-0.4,0.2-0.8,0.5-1.1,0.8c-0.3,0.3-0.6,0.7-0.7,1.2
					S277.1,126.6,277.1,127.1z"/>
				<path id="XMLID_1129_" class="st8" d="M292,119.9c-0.5,0-1-0.2-1.4-0.6s-0.6-0.8-0.6-1.3c0-0.5,0.2-1,0.6-1.4s0.8-0.6,1.4-0.6
					c0.5,0,1,0.2,1.4,0.6s0.6,0.8,0.6,1.4c0,0.5-0.2,1-0.6,1.3S292.5,119.9,292,119.9z M293.6,133.5h-3.2v-12.8h3.2V133.5z"/>
				<path id="XMLID_1127_" class="st8" d="M306.6,133.5h-3.2v-8.1c0-0.6-0.1-1.1-0.4-1.5c-0.3-0.4-0.7-0.6-1.3-0.6
					c-0.6,0-1,0.2-1.3,0.6c-0.3,0.4-0.4,0.9-0.4,1.5v8h-3.2v-12.8h3.2v1c0.2-0.2,0.5-0.4,0.9-0.7s1-0.4,1.9-0.4
					c0.8,0,1.4,0.1,1.9,0.4s0.9,0.6,1.2,1c0.3-0.3,0.7-0.7,1.2-0.9c0.5-0.3,1.2-0.4,2-0.4c0.8,0,1.5,0.1,2,0.4c0.6,0.2,1,0.6,1.3,1
					c0.3,0.4,0.6,0.9,0.7,1.4c0.2,0.5,0.2,1.1,0.2,1.8v8.5h-3.2v-8.1c0-0.6-0.1-1.1-0.4-1.5c-0.3-0.4-0.7-0.5-1.3-0.5
					s-1,0.2-1.3,0.6c-0.3,0.4-0.4,0.9-0.4,1.4V133.5z"/>
				<path id="XMLID_1124_" class="st8" d="M317.9,119.9c-0.5,0-1-0.2-1.4-0.6s-0.6-0.8-0.6-1.3c0-0.5,0.2-1,0.6-1.4s0.8-0.6,1.4-0.6
					c0.5,0,1,0.2,1.4,0.6s0.6,0.8,0.6,1.4c0,0.5-0.2,1-0.6,1.3S318.5,119.9,317.9,119.9z M319.5,133.5h-3.2v-12.8h3.2V133.5z"/>
				<path id="XMLID_1121_" class="st8" d="M325.5,128.1c0.1,0.8,0.4,1.5,1,2c0.6,0.5,1.3,0.7,2.2,0.7c0.8,0,1.5-0.2,2-0.5
					c0.5-0.4,0.9-0.8,1.3-1.3l2.4,1.4c-0.2,0.4-0.4,0.8-0.8,1.2c-0.3,0.4-0.7,0.8-1.2,1.1c-0.5,0.3-1,0.6-1.6,0.8s-1.3,0.3-2.1,0.3
					c-1,0-1.9-0.2-2.7-0.5c-0.8-0.3-1.5-0.7-2.1-1.3c-0.6-0.6-1-1.3-1.3-2.1c-0.3-0.8-0.5-1.7-0.5-2.8c0-1,0.2-1.8,0.5-2.7
					c0.3-0.8,0.7-1.5,1.3-2.1c0.6-0.6,1.2-1.1,2-1.4s1.6-0.5,2.6-0.5c1,0,1.8,0.2,2.6,0.5s1.4,0.7,2,1.3c0.5,0.6,1,1.2,1.3,2
					c0.3,0.8,0.4,1.7,0.4,2.6c0,0.2,0,0.4,0,0.6c0,0.2,0,0.5,0,0.7H325.5z M328.4,123.2c-0.8,0-1.5,0.2-2,0.7
					c-0.5,0.5-0.8,1.1-0.9,1.8h5.8c-0.1-0.7-0.4-1.3-0.9-1.8C330,123.4,329.3,123.2,328.4,123.2z"/>
				<path id="XMLID_1119_" class="st8" d="M344,125.5c0-0.6-0.1-1.1-0.4-1.5c-0.3-0.4-0.7-0.5-1.3-0.5c-0.6,0-1,0.2-1.3,0.6
					c-0.3,0.4-0.5,0.9-0.5,1.5v8.1h-3.2v-12.8h3.2v1c0.1-0.1,0.2-0.2,0.3-0.3c0.1-0.1,0.3-0.2,0.5-0.4c0.2-0.1,0.5-0.2,0.8-0.3
					c0.3-0.1,0.7-0.1,1.1-0.1c0.8,0,1.4,0.1,1.9,0.4c0.5,0.2,0.9,0.6,1.2,1c0.3,0.4,0.5,0.9,0.7,1.4c0.1,0.5,0.2,1.1,0.2,1.8v8.5
					H344V125.5z"/>
				<path id="XMLID_1117_" class="st8" d="M353.8,120.7h2v2.7h-2v6c0,0.5,0.1,0.8,0.3,1c0.2,0.2,0.5,0.3,1,0.3h0.7v2.7
					c0,0-0.2,0-0.5,0.1s-0.7,0.1-1.3,0.1c-1.2,0-2.1-0.3-2.6-0.9c-0.5-0.6-0.8-1.4-0.8-2.5v-6.9h-1.2v-2.7h1.2v-2h3.2V120.7z"/>
				<path id="XMLID_1114_" class="st8" d="M357.6,127.1c0-1,0.2-1.8,0.5-2.7c0.3-0.8,0.8-1.5,1.4-2.1c0.6-0.6,1.3-1.1,2.1-1.4
					s1.7-0.5,2.7-0.5c1,0,1.9,0.2,2.8,0.5s1.5,0.8,2.1,1.4c0.6,0.6,1,1.3,1.4,2.1c0.3,0.8,0.5,1.7,0.5,2.6s-0.2,1.8-0.5,2.6
					c-0.3,0.8-0.8,1.5-1.4,2.1c-0.6,0.6-1.3,1.1-2.1,1.4s-1.7,0.5-2.7,0.5c-1,0-1.9-0.2-2.7-0.5c-0.8-0.3-1.5-0.8-2.1-1.4
					c-0.6-0.6-1-1.3-1.4-2.1C357.8,129,357.6,128.1,357.6,127.1z M360.8,127.1c0,0.5,0.1,1,0.3,1.5s0.4,0.8,0.7,1.2
					c0.3,0.3,0.7,0.6,1.1,0.8c0.4,0.2,0.9,0.3,1.4,0.3c0.5,0,1-0.1,1.4-0.3c0.4-0.2,0.8-0.4,1.1-0.8s0.5-0.7,0.7-1.2
					c0.2-0.5,0.3-0.9,0.3-1.5s-0.1-1-0.3-1.5s-0.4-0.9-0.7-1.2c-0.3-0.3-0.7-0.6-1.1-0.8c-0.4-0.2-0.9-0.3-1.4-0.3
					c-0.5,0-1,0.1-1.4,0.3c-0.4,0.2-0.8,0.4-1.1,0.8c-0.3,0.3-0.5,0.7-0.7,1.2S360.8,126.6,360.8,127.1z"/>
				<path id="XMLID_1112_" class="st8" d="M81.5,154.8c0.7,0,1.2-0.1,1.6-0.3c0.4-0.2,0.8-0.5,1.1-0.7l1.8,2.2
					c-0.2,0.2-0.4,0.4-0.7,0.6s-0.6,0.4-1,0.6c-0.4,0.2-0.8,0.3-1.3,0.4c-0.5,0.1-1,0.2-1.5,0.2c-1,0-1.9-0.2-2.7-0.5
					c-0.8-0.3-1.5-0.8-2.1-1.4c-0.6-0.6-1-1.3-1.3-2.1c-0.3-0.8-0.5-1.7-0.5-2.6c0-0.9,0.2-1.8,0.5-2.6s0.8-1.5,1.4-2.1
					c0.6-0.6,1.3-1.1,2.1-1.4c0.8-0.3,1.7-0.5,2.7-0.5c0.6,0,1.1,0.1,1.6,0.2c0.5,0.1,0.9,0.2,1.3,0.4s0.7,0.4,1,0.6
					c0.3,0.2,0.5,0.4,0.7,0.6l-1.8,2.2c-0.3-0.3-0.6-0.5-1-0.7c-0.4-0.2-1-0.3-1.6-0.3c-0.5,0-1,0.1-1.4,0.3
					c-0.4,0.2-0.8,0.5-1.1,0.8s-0.5,0.7-0.7,1.2c-0.2,0.5-0.2,0.9-0.2,1.5c0,0.6,0.1,1.1,0.3,1.5c0.2,0.5,0.4,0.8,0.8,1.2
					s0.7,0.6,1.1,0.7C80.6,154.7,81.1,154.8,81.5,154.8z"/>
				<path id="XMLID_1109_" class="st8" d="M87.1,151.1c0-1,0.2-1.8,0.5-2.7c0.3-0.8,0.8-1.5,1.4-2.1c0.6-0.6,1.3-1.1,2.1-1.4
					s1.7-0.5,2.7-0.5c1,0,1.9,0.2,2.8,0.5s1.5,0.8,2.1,1.4c0.6,0.6,1,1.3,1.4,2.1c0.3,0.8,0.5,1.7,0.5,2.6s-0.2,1.8-0.5,2.6
					c-0.3,0.8-0.8,1.5-1.4,2.1c-0.6,0.6-1.3,1.1-2.1,1.4s-1.7,0.5-2.7,0.5c-1,0-1.9-0.2-2.7-0.5c-0.8-0.3-1.5-0.8-2.1-1.4
					c-0.6-0.6-1-1.3-1.4-2.1C87.2,153,87.1,152.1,87.1,151.1z M90.3,151.1c0,0.5,0.1,1,0.3,1.5s0.4,0.8,0.7,1.2
					c0.3,0.3,0.7,0.6,1.1,0.8c0.4,0.2,0.9,0.3,1.4,0.3c0.5,0,1-0.1,1.4-0.3c0.4-0.2,0.8-0.4,1.1-0.8s0.5-0.7,0.7-1.2
					c0.2-0.5,0.3-0.9,0.3-1.5s-0.1-1-0.3-1.5s-0.4-0.9-0.7-1.2c-0.3-0.3-0.7-0.6-1.1-0.8c-0.4-0.2-0.9-0.3-1.4-0.3
					c-0.5,0-1,0.1-1.4,0.3c-0.4,0.2-0.8,0.4-1.1,0.8c-0.3,0.3-0.5,0.7-0.7,1.2S90.3,150.6,90.3,151.1z"/>
				<path id="XMLID_1106_" class="st8" d="M113,144.7h3v10.7c0,1.2-0.2,2.2-0.5,3.1c-0.3,0.8-0.8,1.5-1.4,2
					c-0.6,0.5-1.3,0.9-2.2,1.1c-0.8,0.2-1.8,0.3-2.7,0.3c-1,0-1.9-0.1-2.7-0.3c-0.8-0.2-1.5-0.5-2-0.8l1-2.5
					c0.4,0.2,0.9,0.5,1.6,0.7c0.7,0.2,1.4,0.3,2.2,0.3c0.5,0,1-0.1,1.4-0.2c0.4-0.1,0.8-0.3,1.2-0.5c0.3-0.2,0.6-0.5,0.8-0.9
					c0.2-0.3,0.3-0.8,0.3-1.2v-0.2c-0.1,0.2-0.3,0.3-0.5,0.5s-0.5,0.3-0.8,0.5c-0.3,0.1-0.6,0.3-1,0.3s-0.8,0.1-1.2,0.1
					c-1,0-1.9-0.2-2.7-0.5c-0.8-0.3-1.5-0.8-2.1-1.4c-0.6-0.6-1-1.3-1.4-2.1c-0.3-0.8-0.5-1.7-0.5-2.7c0-0.9,0.2-1.8,0.5-2.6
					c0.3-0.8,0.8-1.5,1.3-2.1c0.6-0.6,1.3-1.1,2.1-1.4c0.8-0.3,1.7-0.5,2.6-0.5c0.8,0,1.6,0.1,2.2,0.4s1.2,0.6,1.6,1V144.7z
					 M105.8,151.1c0,0.5,0.1,1,0.3,1.5c0.2,0.5,0.4,0.8,0.7,1.2c0.3,0.3,0.7,0.6,1.1,0.8c0.4,0.2,0.9,0.3,1.4,0.3
					c0.5,0,1-0.1,1.5-0.3c0.4-0.2,0.8-0.5,1.1-0.8s0.5-0.7,0.7-1.2c0.2-0.5,0.3-0.9,0.3-1.5c0-0.5-0.1-1-0.3-1.5
					c-0.2-0.5-0.4-0.9-0.7-1.2s-0.7-0.6-1.1-0.8c-0.4-0.2-0.9-0.3-1.4-0.3c-0.5,0-1,0.1-1.5,0.3c-0.4,0.2-0.8,0.5-1.1,0.8
					c-0.3,0.3-0.6,0.7-0.7,1.2C105.9,150.1,105.8,150.6,105.8,151.1z"/>
				<path id="XMLID_1104_" class="st8" d="M125.8,149.5c0-0.6-0.1-1.1-0.4-1.5c-0.3-0.4-0.7-0.5-1.3-0.5c-0.6,0-1,0.2-1.3,0.6
					c-0.3,0.4-0.5,0.9-0.5,1.5v8.1h-3.2v-12.8h3.2v1c0.1-0.1,0.2-0.2,0.3-0.3c0.1-0.1,0.3-0.2,0.5-0.4c0.2-0.1,0.5-0.2,0.8-0.3
					c0.3-0.1,0.7-0.1,1.1-0.1c0.8,0,1.4,0.1,1.9,0.4c0.5,0.2,0.9,0.6,1.2,1c0.3,0.4,0.5,0.9,0.7,1.4c0.1,0.5,0.2,1.1,0.2,1.8v8.5
					h-3.2V149.5z"/>
				<path id="XMLID_1101_" class="st8" d="M133.7,143.9c-0.5,0-1-0.2-1.4-0.6s-0.6-0.8-0.6-1.3c0-0.5,0.2-1,0.6-1.4s0.8-0.6,1.4-0.6
					c0.5,0,1,0.2,1.4,0.6s0.6,0.8,0.6,1.4c0,0.5-0.2,1-0.6,1.3S134.2,143.9,133.7,143.9z M135.3,157.5h-3.2v-12.8h3.2V157.5z"/>
				<path id="XMLID_1099_" class="st8" d="M142.2,144.7h2v2.7h-2v6c0,0.5,0.1,0.8,0.3,1c0.2,0.2,0.5,0.3,1,0.3h0.7v2.7
					c0,0-0.2,0-0.5,0.1s-0.7,0.1-1.3,0.1c-1.2,0-2.1-0.3-2.6-0.9c-0.5-0.6-0.8-1.4-0.8-2.5v-6.9h-1.2v-2.7h1.2v-2h3.2V144.7z"/>
				<path id="XMLID_1096_" class="st8" d="M148.4,143.9c-0.5,0-1-0.2-1.4-0.6s-0.6-0.8-0.6-1.3c0-0.5,0.2-1,0.6-1.4s0.8-0.6,1.4-0.6
					c0.5,0,1,0.2,1.4,0.6s0.6,0.8,0.6,1.4c0,0.5-0.2,1-0.6,1.3S149,143.9,148.4,143.9z M150,157.5h-3.2v-12.8h3.2V157.5z"/>
				<path id="XMLID_1094_" class="st8" d="M158.6,153.5l2.9-8.8h3.3l-4.5,12.8h-3.5l-4.6-12.8h3.6L158.6,153.5z"/>
				<path id="XMLID_1091_" class="st8" d="M165.8,151.1c0-1,0.2-1.8,0.5-2.7c0.3-0.8,0.8-1.5,1.4-2.1c0.6-0.6,1.3-1.1,2.1-1.4
					s1.7-0.5,2.7-0.5c1,0,1.9,0.2,2.8,0.5s1.5,0.8,2.1,1.4c0.6,0.6,1,1.3,1.4,2.1c0.3,0.8,0.5,1.7,0.5,2.6s-0.2,1.8-0.5,2.6
					c-0.3,0.8-0.8,1.5-1.4,2.1c-0.6,0.6-1.3,1.1-2.1,1.4s-1.7,0.5-2.7,0.5c-1,0-1.9-0.2-2.7-0.5c-0.8-0.3-1.5-0.8-2.1-1.4
					c-0.6-0.6-1-1.3-1.4-2.1C166,153,165.8,152.1,165.8,151.1z M169,151.1c0,0.5,0.1,1,0.3,1.5s0.4,0.8,0.7,1.2
					c0.3,0.3,0.7,0.6,1.1,0.8c0.4,0.2,0.9,0.3,1.4,0.3c0.5,0,1-0.1,1.4-0.3c0.4-0.2,0.8-0.4,1.1-0.8s0.5-0.7,0.7-1.2
					c0.2-0.5,0.3-0.9,0.3-1.5s-0.1-1-0.3-1.5s-0.4-0.9-0.7-1.2c-0.3-0.3-0.7-0.6-1.1-0.8c-0.4-0.2-0.9-0.3-1.4-0.3
					c-0.5,0-1,0.1-1.4,0.3c-0.4,0.2-0.8,0.4-1.1,0.8c-0.3,0.3-0.5,0.7-0.7,1.2S169,150.6,169,151.1z"/>
			</g>
		</g>
		<g id="XMLID_62_">
			<circle id="XMLID_64_" class="st3" cx="63" cy="125.5" r="5.5"/>
		</g>
	</g>
</g>
<g id="guias" class="st9">
</g>
</svg>
