<?xml version="1.0" encoding="utf-8"?>
<!-- Generator: Adobe Illustrator 19.0.0, SVG Export Plug-In . SVG Version: 6.00 Build 0)  -->
<svg version="1.1" id="Capa_1" xmlns="http://www.w3.org/2000/svg" xmlns:xlink="http://www.w3.org/1999/xlink" x="0px" y="0px"
	 viewBox="570 -225.3 1440 1451.3" style="enable-background:new 570 -225.3 1440 1451.3;" xml:space="preserve">
<style type="text/css">
	.st0{fill:#F4F4F4;}
	.st1{fill:#181716;}
	.st2{fill:#E3D5E9;}
	.st3{fill:#F1EAF5;}
	.st4{fill:#F8D2D0;}
	.st5{fill:#D5BFDD;}
	.st6{fill:none;stroke:#BB94C2;stroke-width:6.0014;stroke-miterlimit:10;}
	.st7{fill:#BB94C2;}
	.st8{fill:none;}
	.st9{font-family:'PlatformWeb-Regular';}
	.st10{font-size:24.0054px;}
	.st11{font-size:33.0075px;}
	.st12{fill:none;stroke:#181716;stroke-width:1.5003;stroke-miterlimit:10;}
</style>
<g id="bg">
	<rect x="570" y="-228" class="st0" width="1440" height="1452.7"/>
	<rect x="570" y="1017.3" class="st1" width="1440" height="207.3"/>
</g>
<g id="Cos">
	<g>
		<g>
			<path class="st2" d="M1292.1-171.3c-0.4,0-0.7,0-1,0s-0.7,0-1,0c-44.9-0.4-62.4,35.1-59.8,80.4c2.5,44.3,19.6,91.2,60.6,92.1l0,0
				c0.1,0,0.2,0,0.3,0s0.2,0,0.3,0l0,0c41-0.9,58.1-47.8,60.6-92.1C1354.5-136.1,1337-171.7,1292.1-171.3z"/>
			<g>
				
					<ellipse transform="matrix(-0.1335 0.991 -0.991 -0.1335 1457.135 -1421.1829)" class="st2" cx="1349.9" cy="-73.6" rx="23.8" ry="8"/>
				
					<ellipse transform="matrix(-0.991 0.1335 -0.1335 -0.991 2443.8503 -310.8157)" class="st2" cx="1232.3" cy="-73.5" rx="8" ry="23.8"/>
			</g>
			<rect x="1256" y="-31" class="st2" width="70.1" height="73.1"/>
			<g>
				<path class="st2" d="M1303.9,75.1l-48.1-73.8l0,0c0,20.9-16.9,37.8-37.8,37.8l0,0L1303.9,75.1z"/>
				<path class="st2" d="M1278.2,75.1l48.1-73.8l0,0c0,20.9,16.9,37.8,37.8,37.8l0,0L1278.2,75.1z"/>
			</g>
		</g>
		<g>
			<rect x="1201.4" y="38.8" class="st2" width="178.7" height="281.4"/>
			<path class="st2" d="M1174.1,77.3h233.4v86.2c0,35.4-28.7,64-64,64h-105.4c-35.4,0-64-28.7-64-64V77.3z"/>
			<path class="st2" d="M1128.2,160.5h325.1v-59.3c0-34.5-28-62.4-62.4-62.4h-200.2c-34.5,0-62.4,28-62.4,62.4L1128.2,160.5
				L1128.2,160.5z"/>
			<path class="st2" d="M1380.1,320.2h-89.4v196.1h127.1c0,0,0-24.5,0-74.5C1417.8,393.8,1380.1,320.2,1380.1,320.2z"/>
			<path class="st2" d="M1201.4,320.2h89.4v196.1h-127.1c0,0,0-24.5,0-74.5C1163.7,393.8,1201.4,320.2,1201.4,320.2z"/>
			<g>
				<path class="st2" d="M1376.1,767.3c0,19.3-77.1,0-77.1,0v-251c0,0,118.8-29.7,118.8,0C1417.8,623.1,1376.1,738.2,1376.1,767.3z"
					/>
				<path class="st2" d="M1354.9,1082.2h-41L1299,767.3h76.9c0,0,6.4,92.3,6.4,123.2C1382.3,977.2,1354.9,1082.2,1354.9,1082.2z"/>
				<path class="st2" d="M1362.8,1177.2c-0.1,2.3-2.4,6-4.9,9.3c-3.8,5-9.7,7.8-15.9,7.8h-29.7c-7,0-12.4-6.1-11.4-13.1l13.1-99h41
					C1354.9,1082.2,1363.8,1147.9,1362.8,1177.2z"/>
			</g>
			<g>
				<path class="st2" d="M1205.4,767.3c0,19.3,77.1,0,77.1,0v-251c0,0-118.8-29.7-118.8,0C1163.7,623.1,1205.4,738.2,1205.4,767.3z"
					/>
				<path class="st2" d="M1226.6,1082.2h41l14.9-314.8h-76.9c0,0-6.4,92.3-6.4,123.2C1199.2,977.2,1226.6,1082.2,1226.6,1082.2z"/>
				<path class="st2" d="M1218.8,1177.2c0.1,2.3,2.4,6,4.9,9.3c3.8,5,9.7,7.8,15.9,7.8h29.7c7,0,12.4-6.1,11.4-13.1l-13.1-99h-41
					C1226.7,1082.2,1217.7,1147.9,1218.8,1177.2z"/>
			</g>
			<polygon class="st2" points="1473.8,309.8 1427.9,315.1 1400,97.8 1453.2,91.6 			"/>
			<path class="st2" d="M1488.6,494.5l-27,3.1l-33.7-182.5c0,0,42.4-39.8,43.8-27.7c2.5,21.5,8.9,43.4,12.1,73.1
				C1487.4,393.8,1488.6,494.5,1488.6,494.5z"/>
			<path class="st2" d="M1488.6,494.5V536c0,8.9-2.7,17.6-7.9,24.9l-32.9,46.8c-2.7,3.9-8,4.9-11.9,2.3l0,0c-3.7-2.4-5-7.1-3.1-11.1
				l20.4-42.3l-2.8-15.3l-14.6,28.8c-0.7,1.3-2.2,2-3.7,1.6l0,0c-1.5-0.4-2.5-1.9-2.3-3.4l3.1-27.7c0.8-7.2,3.3-14.1,7.4-20.1
				l21.2-22.9L1488.6,494.5z"/>
			<g>
				<polygon class="st2" points="1108.4,309.8 1154.3,315.1 1182.1,97.8 1129,91.6 				"/>
				<path class="st2" d="M1093.6,494.5l27,3.1l33.7-182.5c0,0-42.4-39.8-43.8-27.7c-2.5,21.5-8.9,43.4-12.1,73.1
					C1094.8,393.8,1093.6,494.5,1093.6,494.5z"/>
				<path class="st2" d="M1093.6,494.5V536c0,8.9,2.7,17.6,7.9,24.9l32.9,46.8c2.7,3.9,8,4.9,11.9,2.3l0,0c3.7-2.4,5-7.1,3.1-11.1
					l-20.4-42.2l2.8-15.3l14.6,28.8c0.7,1.3,2.2,2,3.7,1.6l0,0c1.5-0.4,2.5-1.9,2.3-3.4l-3.1-27.7c-0.8-7.2-3.3-14.1-7.4-20.1
					l-21.2-22.9L1093.6,494.5z"/>
			</g>
		</g>
	</g>
	<g>
		<g>
			<path class="st3" d="M1308.6,45.5L1308.6,45.5c3.9-2.5,8.4-3.9,13.1-3.9h6.3c7.9,0.5,12.9,3.1,16,7.1
				c21.4,27.7,48.6,65,55.8,114.3c1.7,11.9-15.2,35.7-19.8,39.1c-55.8,41.5-87.2-27.9-87.2-27.9l5-109.7
				C1298.1,56.7,1302.1,49.7,1308.6,45.5z"/>
			<circle class="st3" cx="1345.2" cy="168.2" r="54.6"/>
		</g>
		<g>
			<path class="st3" d="M1274.3,45.5L1274.3,45.5c-3.9-2.5-8.4-3.9-13.1-3.9h-6.2c-7.9,0.5-12.9,3.1-16,7.1
				c-21.4,27.7-48.6,65-55.8,114.3c-1.7,11.9,15.2,35.7,19.8,39.1c55.8,41.5,87.2-27.9,87.2-27.9l17.6-99l-22.5-10.6
				C1284.8,56.7,1280.8,49.7,1274.3,45.5z"/>
			<circle class="st3" cx="1237.7" cy="168.2" r="54.6"/>
		</g>
	</g>
	<path class="st4" d="M1291.1,487.9L1291.1,487.9c-30.3,0-54.9-24.6-54.9-54.9v-61.7c0-30.3,24.6-54.9,54.9-54.9l0,0
		c30.3,0,54.9,24.6,54.9,54.9V433C1345.9,463.3,1321.4,487.9,1291.1,487.9z"/>
	<g>
		<g>
			<g>
				<circle class="st5" cx="1258.7" cy="166.8" r="22.4"/>
				<circle class="st5" cx="1228.9" cy="177.6" r="24.4"/>
				<circle class="st5" cx="1267.6" cy="102" r="13.5"/>
				<rect x="1251.2" y="102" class="st5" width="29.9" height="61"/>
				<path class="st5" d="M1205.4,171c13.2-52.4,53.6-79.5,53.6-79.5l5.4,70.4C1264.5,161.9,1201.7,185.5,1205.4,171z"/>
			</g>
			<g>
				<circle class="st5" cx="1324.2" cy="166.8" r="22.4"/>
				<circle class="st5" cx="1354" cy="177.6" r="24.4"/>
				<circle class="st5" cx="1315.3" cy="102" r="13.5"/>
				<rect x="1301.8" y="101.9" class="st5" width="29.9" height="61"/>
				<path class="st5" d="M1377.6,171c-13.2-52.4-53.6-79.5-53.6-79.5l-5.4,70.4C1318.5,161.9,1381.2,185.5,1377.6,171z"/>
			</g>
		</g>
		<rect x="1284" y="41.1" class="st5" width="14.9" height="56.1"/>
		<g>
			
				<rect x="1301.7" y="85.7" transform="matrix(0.7071 -0.7071 0.7071 0.7071 303.0254 959.0021)" class="st5" width="14.9" height="56.1"/>
			
				<rect x="1266.4" y="85.6" transform="matrix(-0.7071 -0.7071 0.7071 -0.7071 2094.2812 1094.7025)" class="st5" width="14.9" height="56.1"/>
		</g>
	</g>
	<g>
		<path class="st6" d="M1459.2,533.2c0,0,20.9-17.7,20.3-35.7c-1.6-43.9,1.6-76-1.6-100.3c-8-60.9-24.9-73-27.9-100.5
			c-2.6-23.1,5-164.8-13-199.7c-19.1-36.9-65.2-41.5-97.4-33c-22.8,6-28.3,24.1-30.4,35.6c-1.6,8.8-1.8,16.5,2.7,35.8"/>
		<path class="st6" d="M1390.3,63c23.7,6.2,25.7,29.3,27.5,56.9c1.8,27.6,33.3,135.3,30.9,171.2c-2.4,35.9-1.1,91.7,6.5,115.8
			c7.6,24.1,21.6,54.8,23.8,80.9"/>
		<path class="st6" d="M1124,533.2c0,0-20.9-17.7-20.3-35.7c1.6-43.9-1.6-76,1.6-100.3c8-60.9,24.9-73,27.9-100.5
			c2.6-23.1-5-164.8,13-199.7c19.1-36.9,65.2-41.5,97.4-33c22.8,6,47.4,21.8,51.6,35.6c2.6,8.6,8.6,16.5,4.2,35.8"/>
		<path class="st6" d="M1192.9,63c-23.7,6.2-25.7,29.3-27.5,56.9s-33.3,135.3-30.9,171.2c2.4,35.9,1.1,91.7-6.5,115.8
			s-21.6,54.8-23.8,80.9"/>
		<path class="st6" d="M1339.5,64.1c0,0-23.1-47.7-24.2-62.9c-1.1-15.2,13.1-41.3,23.2-68.4c5.7-15.3,5-30.2,3.3-40.3
			c-1.3-7.6-6.4-14-13.5-16.9l-4.6-1.9"/>
		<line class="st6" x1="1315.3" y1="-2.2" x2="1321.2" y2="73.4"/>
		<path class="st6" d="M1242.2,63.3c0,0,23.1-46.8,24.2-62s-13.1-41.3-23.2-68.4c-6.5-17.4-4.7-34.3-2.5-44.1
			c1.2-5.4,4.3-10.1,8.7-13.3l4.8-3.5"/>
		<line class="st6" x1="1266.4" y1="-2.2" x2="1260.6" y2="70"/>
		<path class="st6" d="M1295.2,183.7c0,0-3.9,223.5,0.4,234.6c4.3,11.1,78.3,67.9,82.1,115c8.8,108-27.9,228.6-29.6,234.1
			c-6.6,21.4,19,145.2,13.3,195.2s-26.4,117.2-29.7,141.5c-3.2,24.3-5.6,54.3-5.6,54.3"/>
		<path class="st6" d="M1324.2,448.9c13,13.8,18.6,46.7,16.4,84.3c-2.1,37.6,8.4,197.7,2.4,249.2s-18.1,154.4-14.2,193
			c3.9,38.6,7.1,90.2,2.9,128.7"/>
		<path class="st6" d="M1294,414.9c-4.3,11.1-86.7,71.3-90.5,118.4c-8.8,108,27.9,228.6,29.6,234.1c6.6,21.4-19,145.2-13.3,195.2
			c5.7,50,26.4,117.2,29.7,141.5c3.2,24.3,5.6,54.3,5.6,54.3"/>
		<path class="st6" d="M1257.4,451c-13,13.8-19,44.6-16.9,82.2c2.1,37.6-8.4,197.7-2.4,249.2s18.1,154.4,14.2,193
			c-3.9,38.6-7.1,90.2-2.9,128.7"/>
	</g>
	<path class="st7" d="M1296.6,112.4c0,0,4.3,6.4,3.8,7.8c-0.4,1.4-3.7,2.6-7.2,11c-2.3,5.8,0.9,11.3-0.6,12.4
		c-1.6,1.1-5.7,7.9-6.9,10.2c-8.9,16.7,4,34.6,13.3,41.2c9.3,6.5,18.4,6.7,24.3,9.3c8.2,3.5,19,5.8,25.3-5.3c0,0,4.1-8.5-1-24.1
		c-2.9-8.9-6.4-15.4-8.1-17.8c-5.5-7.7-11.2-11.2-13.8-12.6c-1.4-0.7-0.8-3.8,2-5c2.8-1.3,6-0.3,6-0.3l1-4c0,0-3.9-1.3-5.8-0.9
		c-1.9,0.3,2.1-4.2,2.3-7.3c0,0-2.7-2.3-4.4-1.7c0,0-1,3.7-3.5,7.7c0,0,1-9.6-5.9-14.6c0,0,1.6-8.1,2.1-8.8c0,0-3.2-1.7-4.5-1.4
		c0,0-1.9,8.1-2.2,8.3c-0.3,0.2-0.9,1.2-1.5,0.2c-0.6-1-0.8-9.6-0.8-9.6l-4.4,0.5c0,0,1.9,9.3,0.7,9.8c-0.4,0.2-0.8,0.8-1.6,0.1
		c-2.1-1.8-4.3-6.9-4.3-7.3C1300.8,109.7,1296.6,112.4,1296.6,112.4z"/>
	<g>
		<circle class="st7" cx="1257.8" cy="-128.7" r="13.6"/>
		<circle class="st7" cx="1278.1" cy="-140.4" r="14.7"/>
		<circle class="st7" cx="1300.7" cy="-141.8" r="16.3"/>
		<circle class="st7" cx="1251.5" cy="-123.2" r="8.1"/>
		<circle class="st7" cx="1331.1" cy="-123.2" r="8.1"/>
		<circle class="st7" cx="1320.1" cy="-134.7" r="11"/>
		<rect x="1251.5" y="-128.7" class="st7" width="79.6" height="13.6"/>
		<rect x="1277" y="-137.8" class="st7" width="14.3" height="17.6"/>
	</g>
	<g>
		<g>
			<rect x="688.6" y="-57.4" class="st8" width="380.7" height="354.3"/>
			<text transform="matrix(1 0 0 1 688.6292 -39.8284)" class="st1 st9 st10">Dementia</text>
			<text transform="matrix(1 0 0 1 688.6292 -3.8283)" class="st1 st9 st10">Stroke</text>
			<text transform="matrix(1 0 0 1 688.6292 32.1717)" class="st1 st9 st10">Mental health problems</text>
			<text transform="matrix(1 0 0 1 688.6292 68.1717)" class="st1 st9 st10">Neurodegenerative</text>
			<text transform="matrix(1 0 0 1 688.6292 94.1717)" class="st1 st9 st10">diseases</text>
			<text transform="matrix(1 0 0 1 688.6292 130.1717)" class="st1 st9 st10">Cerebrovascular diseases</text>
			<text transform="matrix(1 0 0 1 688.6292 166.1717)" class="st1 st9 st10">Cognitive impairment </text>
		</g>
		<g>
			<rect x="688.6" y="-115.5" class="st8" width="283.7" height="58.1"/>
			<text transform="matrix(1 0 0 1 688.6287 -91.3134)" class="st1 st9 st11">Head</text>
		</g>
		<line class="st12" x1="1301.1" y1="-137.9" x2="688.6" y2="-139.6"/>
		<g>
			<rect x="688.6" y="596" class="st8" width="538.6" height="196.2"/>
			<text transform="matrix(1 0 0 1 688.6292 613.6244)" class="st1 st9 st10">Obesity</text>
			<text transform="matrix(1 0 0 1 688.6292 649.6244)" class="st1 st9 st10">Diabetes</text>
			<text transform="matrix(1 0 0 1 688.6292 685.6244)" class="st1 st9 st10">Metabolic syndrome</text>
			<text transform="matrix(1 0 0 1 688.6292 721.6244)" class="st1 st9 st10">Colon cancer</text>
			<text transform="matrix(1 0 0 1 688.6292 757.6244)" class="st1 st9 st10">Increase in mortality</text>
		</g>
		<g>
			<rect x="688.6" y="538" class="st8" width="283.7" height="57.7"/>
			<text transform="matrix(1 0 0 1 688.6287 562.1401)" class="st1 st9 st11">GENERAL/OTHERS</text>
		</g>
		<line class="st12" x1="1184.8" y1="515.6" x2="688.6" y2="513.9"/>
		<circle class="st7" cx="677.3" cy="643" r="5.5"/>
		<circle class="st7" cx="677.3" cy="715.5" r="5.5"/>
		<circle class="st7" cx="677.3" cy="679.2" r="5.5"/>
		<g>
			<circle class="st7" cx="677.3" cy="750.3" r="5.5"/>
		</g>
		<g>
			<circle class="st7" cx="677.3" cy="605.6" r="5.5"/>
		</g>
		<circle class="st7" cx="677.3" cy="119.7" r="5.5"/>
		<circle class="st7" cx="677.3" cy="155.5" r="5.5"/>
		<circle class="st7" cx="677.3" cy="-11.2" r="5.5"/>
		<circle class="st7" cx="677.3" cy="-47.9" r="5.5"/>
		<circle class="st7" cx="677.3" cy="61" r="5.5"/>
		<circle class="st7" cx="677.3" cy="25.5" r="5.5"/>
		<circle class="st7" cx="1904.8" cy="-45.3" r="5.5"/>
		<circle class="st7" cx="1904.8" cy="934.4" r="5.5"/>
		<circle class="st7" cx="677.3" cy="428.5" r="5.5"/>
		<g>
			<rect x="1534.5" y="-56.6" class="st8" width="357.8" height="214.7"/>
			<text transform="matrix(1 0 0 1 1669.2722 -39.0028)" class="st1 st9 st10">Respiratory diseases </text>
		</g>
		<g>
			<rect x="1507.1" y="-114.6" class="st8" width="385.2" height="138.5"/>
			<text transform="matrix(1 0 0 1 1613.4919 -90.3761)" class="st1 st9 st11">Respiratory tract</text>
		</g>
		<polyline class="st12" points="1892.3,-136.9 1529.5,-138.4 1349.8,133.6 		"/>
		<g>
			<rect x="688.6" y="418.7" class="st8" width="357.8" height="48.9"/>
			<text transform="matrix(1 0 0 1 688.6284 436.2769)" class="st1 st9 st10">Breast cancer </text>
		</g>
		<g>
			<rect x="688.6" y="359.3" class="st8" width="385.2" height="138.5"/>
			<text transform="matrix(1 0 0 1 688.6274 383.4486)" class="st1 st9 st11">Breast</text>
		</g>
		<polyline class="st12" points="688.6,336.9 1051.5,335.4 1201.4,144.4 		"/>
		<circle class="st7" cx="1904.8" cy="300.5" r="5.5"/>
		<circle class="st7" cx="1904.5" cy="335.5" r="5.5"/>
		<g>
			<rect x="1535.4" y="289" class="st8" width="357.8" height="151.9"/>
			<text transform="matrix(1 0 0 1 1668.8053 306.5761)" class="st1 st9 st10">Myocardial infarction</text>
			<text transform="matrix(1 0 0 1 1635.9053 342.5761)" class="st1 st9 st10">Cardiovascular diseases</text>
		</g>
		<g>
			<rect x="1508" y="230.2" class="st8" width="385.2" height="321.3"/>
			<text transform="matrix(1 0 0 1 1790.0532 254.3972)" class="st1 st9 st11">Heart</text>
		</g>
		<polyline class="st12" points="1893.2,207.8 1530.4,206.4 1329.6,165 		"/>
		<g>
			<rect x="1534.5" y="923.1" class="st8" width="357.8" height="133.5"/>
			<text transform="matrix(1 0 0 1 1739.6174 940.6938)" class="st1 st9 st10">Hypertension</text>
		</g>
		<g>
			<rect x="1507.1" y="864.8" class="st8" width="385.2" height="59.8"/>
			<text transform="matrix(1 0 0 1 1759.7078 888.8535)" class="st1 st9 st11">Arteries</text>
		</g>
		<line class="st12" x1="1892.3" y1="840.9" x2="1352.6" y2="839.2"/>
	</g>
</g>
</svg>
