<?xml version="1.0" encoding="utf-8"?>
<!-- Generator: Adobe Illustrator 19.0.0, SVG Export Plug-In . SVG Version: 6.00 Build 0)  -->
<svg version="1.1" id="Capa_1" xmlns="http://www.w3.org/2000/svg" xmlns:xlink="http://www.w3.org/1999/xlink" x="0px" y="0px"
	 viewBox="570 -225.3 1440 1451.3" style="enable-background:new 570 -225.3 1440 1451.3;" xml:space="preserve">
<style type="text/css">
	.st0{fill:#F4F4F4;}
	.st1{fill:#181716;}
	.st2{fill:#F6C2C0;}
	.st3{fill:#FBE2E0;}
	.st4{fill:#F8D2D0;}
	.st5{fill:none;stroke:#F0A0A0;stroke-width:6.0028;stroke-linecap:round;stroke-miterlimit:10;}
	.st6{fill:#F0A0A0;}
	.st7{fill:none;}
	.st8{font-family:'PlatformWeb-Regular';}
	.st9{font-size:24.0054px;}
	.st10{fill:#004F9F;}
	.st11{fill:#BB94C2;}
	.st12{fill:#F29700;}
	.st13{fill:#34B7EB;}
	.st14{fill:#3AA336;}
	.st15{fill:#E55465;}
	.st16{font-size:33.0075px;}
	.st17{fill:none;stroke:#181716;stroke-width:1.5003;stroke-miterlimit:10;}
	.st18{fill:none;stroke:#E55465;stroke-width:6.0028;stroke-linecap:round;stroke-miterlimit:10;}
</style>
<g id="bg">
	<rect x="569.5" y="-230" class="st0" width="1440" height="1460.7"/>
	<rect x="569.5" y="1022.2" class="st1" width="1440" height="208.4"/>
</g>
<g id="Cos">
	<g>
		<g>
			<path class="st2" d="M1292.2-171.3c-0.4,0-0.7,0-1,0c-0.3,0-0.7,0-1,0c-44.9-0.4-62.4,35.1-59.8,80.4
				c2.5,44.3,19.6,91.2,60.6,92.1l0,0c0.1,0,0.2,0,0.3,0s0.2,0,0.3,0l0,0c41-0.9,58.1-47.8,60.6-92.1
				C1354.6-136.2,1337.1-171.7,1292.2-171.3z"/>
			<g>
				
					<ellipse transform="matrix(-0.1335 0.991 -0.991 -0.1335 1457.1924 -1421.1965)" class="st2" cx="1349.9" cy="-73.6" rx="23.8" ry="8"/>
				
					<ellipse transform="matrix(-0.991 0.1335 -0.1335 -0.991 2443.8293 -311.2738)" class="st2" cx="1232.4" cy="-73.7" rx="8" ry="23.8"/>
			</g>
			<rect x="1256.1" y="-31.1" class="st2" width="70.1" height="73.1"/>
			<g>
				<path class="st2" d="M1304,75l-48.1-73.8l0,0c0,20.9-16.9,37.8-37.8,37.8l0,0L1304,75z"/>
				<path class="st2" d="M1278.3,75l48.1-73.8l0,0c0,20.9,16.9,37.8,37.8,37.8l0,0L1278.3,75z"/>
			</g>
		</g>
		<g>
			<rect x="1201.5" y="38.7" class="st2" width="178.7" height="281.4"/>
			<path class="st2" d="M1174.2,77.2h233.4v86.2c0,35.4-28.7,64-64,64h-105.4c-35.4,0-64-28.7-64-64V77.2z"/>
			<path class="st2" d="M1128.3,160.5h325.1v-59.3c0-34.5-28-62.4-62.4-62.4h-200.3c-34.5,0-62.4,28-62.4,62.4V160.5z"/>
			<path class="st2" d="M1380.2,320.1h-89.4v196.1h127.1c0,0,0-24.5,0-74.5C1417.9,393.8,1380.2,320.1,1380.2,320.1z"/>
			<path class="st2" d="M1201.5,320.1h89.4v196.1h-127.1c0,0,0-24.5,0-74.5C1163.8,393.8,1201.5,320.1,1201.5,320.1z"/>
			<g>
				<path class="st2" d="M1376.2,767.3c0,19.3-77.1,0-77.1,0v-251c0,0,118.8-29.7,118.8,0C1417.9,623,1376.2,738.2,1376.2,767.3z"/>
				<path class="st2" d="M1355,1082.1h-41l-14.9-314.8h76.9c0,0,6.4,92.3,6.4,123.2C1382.4,977.1,1355,1082.1,1355,1082.1z"/>
				<path class="st2" d="M1362.9,1177.1c-0.1,2.3-2.4,6-4.9,9.3c-3.8,5-9.7,7.8-15.9,7.8h-29.7c-7,0-12.4-6.1-11.4-13.1l13.1-99h41
					C1355,1082.1,1363.9,1147.9,1362.9,1177.1z"/>
			</g>
			<g>
				<path class="st2" d="M1205.5,767.3c0,19.3,77.1,0,77.1,0v-251c0,0-118.8-29.7-118.8,0C1163.8,623,1205.5,738.2,1205.5,767.3z"/>
				<path class="st2" d="M1226.7,1082.1h41l14.9-314.8h-76.9c0,0-6.4,92.3-6.4,123.2C1199.3,977.1,1226.7,1082.1,1226.7,1082.1z"/>
				<path class="st2" d="M1218.9,1177.1c0.1,2.3,2.4,6,4.9,9.3c3.8,5,9.7,7.8,15.9,7.8h29.7c7,0,12.4-6.1,11.4-13.1l-13.1-99h-41
					C1226.8,1082.1,1217.8,1147.9,1218.9,1177.1z"/>
			</g>
			<polygon class="st2" points="1473.9,309.7 1428,315.1 1400.1,97.7 1453.3,91.5 			"/>
			<path class="st2" d="M1488.7,494.4l-27,3.1L1428,315c0,0,42.4-39.8,43.8-27.7c2.5,21.5,8.9,43.4,12.1,73.1
				C1487.5,393.8,1488.7,494.4,1488.7,494.4z"/>
			<path class="st2" d="M1488.7,494.4v41.4c0,8.9-2.7,17.6-7.9,24.9l-32.9,46.8c-2.7,3.9-8,4.9-11.9,2.3l0,0
				c-3.7-2.4-5-7.1-3.1-11.1l20.4-42.3l-2.8-15.3l-14.6,28.9c-0.7,1.3-2.2,2-3.7,1.6l0,0c-1.5-0.4-2.5-1.9-2.3-3.4l3.1-27.7
				c0.8-7.2,3.3-14.1,7.4-20.1l21.2-22.9L1488.7,494.4z"/>
			<g>
				<polygon class="st2" points="1108.5,309.7 1154.4,315.1 1182.2,97.7 1129.1,91.5 				"/>
				<path class="st2" d="M1093.7,494.4l27,3.1l33.7-182.5c0,0-42.4-39.8-43.8-27.7c-2.5,21.5-8.9,43.4-12.1,73.1
					C1094.9,393.8,1093.7,494.4,1093.7,494.4z"/>
				<path class="st2" d="M1093.7,494.4v41.4c0,8.9,2.7,17.6,7.9,24.9l32.9,46.8c2.7,3.9,8,4.9,11.9,2.3l0,0c3.7-2.4,5-7.1,3.1-11.1
					l-20.4-42.3l2.8-15.3l14.6,28.9c0.7,1.3,2.2,2,3.7,1.6l0,0c1.5-0.4,2.5-1.9,2.3-3.4l-3.1-27.7c-0.8-7.2-3.3-14.1-7.4-20.1
					l-21.2-22.9L1093.7,494.4z"/>
			</g>
		</g>
	</g>
	<g>
		<g>
			<path class="st3" d="M1308.7,45.4L1308.7,45.4c3.9-2.5,8.4-3.9,13.1-3.9h6.3c7.9,0.5,12.9,3.1,16,7.1
				c21.4,27.7,48.6,65,55.8,114.3c1.7,11.9-15.2,35.7-19.8,39.1c-55.8,41.5-87.2-27.9-87.2-27.9l5-109.7
				C1298.2,56.7,1302.2,49.6,1308.7,45.4z"/>
			<circle class="st3" cx="1345.3" cy="168.1" r="54.6"/>
		</g>
		<g>
			<path class="st3" d="M1274.4,45.4L1274.4,45.4c-3.9-2.5-8.4-3.9-13.1-3.9h-6.3c-7.9,0.5-12.9,3.1-16,7.1
				c-21.4,27.7-48.6,65-55.8,114.3c-1.7,11.9,15.2,35.7,19.8,39.1c55.8,41.5,87.2-27.9,87.2-27.9l17.6-99l-22.5-10.6
				C1284.9,56.7,1280.9,49.6,1274.4,45.4z"/>
			<circle class="st3" cx="1237.8" cy="168.1" r="54.6"/>
		</g>
	</g>
	<path class="st4" d="M1291.2,487.8L1291.2,487.8c-30.3,0-54.9-24.6-54.9-54.9v-61.7c0-30.3,24.6-54.9,54.9-54.9l0,0
		c30.3,0,54.9,24.6,54.9,54.9v61.7C1346,463.2,1321.5,487.8,1291.2,487.8z"/>
	<g>
		<g>
			<g>
				<circle class="st4" cx="1258.8" cy="166.8" r="22.4"/>
				<circle class="st4" cx="1229" cy="177.6" r="24.4"/>
				<circle class="st4" cx="1267.7" cy="101.9" r="13.5"/>
				<rect x="1251.3" y="101.9" class="st4" width="29.9" height="61"/>
				<path class="st4" d="M1205.5,171c13.2-52.4,53.6-79.5,53.6-79.5l5.4,70.4C1264.5,161.8,1201.8,185.5,1205.5,171z"/>
			</g>
			<g>
				<circle class="st4" cx="1324.3" cy="166.8" r="22.4"/>
				<circle class="st4" cx="1354.1" cy="177.6" r="24.4"/>
				<circle class="st4" cx="1315.4" cy="101.9" r="13.5"/>
				<rect x="1301.9" y="101.9" class="st4" width="29.9" height="61"/>
				<path class="st4" d="M1377.6,171c-13.2-52.4-53.6-79.5-53.6-79.5l-5.4,70.4C1318.6,161.8,1381.3,185.5,1377.6,171z"/>
			</g>
		</g>
		<rect x="1284.1" y="41" class="st4" width="14.9" height="56.1"/>
		<g>
			
				<rect x="1301.7" y="85.5" transform="matrix(0.7071 -0.7071 0.7071 0.7071 303.165 958.9254)" class="st4" width="14.9" height="56.1"/>
			
				<rect x="1245.7" y="106.1" transform="matrix(0.7071 -0.7071 0.7071 0.7071 292.7943 933.9438)" class="st4" width="56.1" height="14.9"/>
		</g>
	</g>
	<g>
		<circle class="st4" cx="1257.9" cy="-128.8" r="13.6"/>
		<circle class="st4" cx="1278.2" cy="-140.4" r="14.7"/>
		<circle class="st4" cx="1300.8" cy="-141.8" r="16.3"/>
		<circle class="st4" cx="1251.6" cy="-123.3" r="8.1"/>
		<circle class="st4" cx="1331.2" cy="-123.3" r="8.1"/>
		<circle class="st4" cx="1320.2" cy="-134.8" r="11"/>
		<rect x="1251.6" y="-128.8" class="st4" width="79.6" height="13.6"/>
		<rect x="1277.1" y="-137.8" class="st4" width="14.3" height="17.6"/>
	</g>
	<g>
		<path class="st5" d="M1459.3,533.2c0,0,20.9-17.7,20.3-35.7c-1.6-43.9,1.6-76-1.6-100.3c-8-60.9-24.9-73-27.9-100.5
			c-2.6-23.1,5-164.8-13-199.7c-19.1-36.9-65.2-41.5-97.4-33c-22.8,6-28.3,24.1-30.4,35.6c-1.6,8.8-1.8,16.5,2.7,35.8"/>
		<path class="st5" d="M1390.4,62.9c23.7,6.2,25.7,29.3,27.5,56.9c1.8,27.6,33.3,135.3,30.9,171.2c-2.4,35.9-1.1,91.7,6.5,115.8
			s21.6,54.8,23.8,80.9"/>
		<path class="st5" d="M1124.1,533.2c0,0-20.9-17.7-20.3-35.7c1.6-43.9-1.6-76,1.6-100.3c8-60.9,24.9-73,27.9-100.5
			c2.6-23.1-5-164.8,13-199.7c19.1-36.9,65.2-41.5,97.4-33c22.8,6,47.4,21.8,51.6,35.6c2.6,8.6,8.6,16.5,4.2,35.8"/>
		<path class="st5" d="M1193,62.9c-23.7,6.2-25.7,29.3-27.5,56.9c-1.8,27.6-33.3,135.3-30.9,171.2s1.1,91.7-6.5,115.8
			s-21.6,54.8-23.8,80.9"/>
		<path class="st5" d="M1338.6-120.2c0,0,10.1,25.8,0,53s-24.3,53.3-23.2,68.4c1.1,15.2,24.2,62.9,24.2,62.9"/>
		<line class="st5" x1="1315.4" y1="-2.2" x2="1321.3" y2="73.4"/>
		<path class="st5" d="M1243.3-120.2c0,0-10.1,25.8,0,53s24.3,53.3,23.2,68.4s-24.2,62-24.2,62"/>
		<line class="st5" x1="1266.5" y1="-2.2" x2="1260.7" y2="70"/>
		<path class="st5" d="M1295.3,183.6c0,0-3.9,223.5,0.4,234.6c4.3,11.1,78.3,67.9,82.1,115c8.8,108-27.9,228.6-29.6,234.1
			c-6.6,21.4,19,145.2,13.3,195.2c-5.7,50-26.4,117.2-29.7,141.5c-3.2,24.3-5.6,54.3-5.6,54.3"/>
		<path class="st5" d="M1324.3,448.9c13,13.8,18.6,46.7,16.4,84.3c-2.1,37.6,8.4,197.7,2.4,249.2s-18.1,154.4-14.2,193
			c3.9,38.6,7.1,90.2,2.9,128.7"/>
		<path class="st5" d="M1294.1,414.8c-4.3,11.1-86.7,71.3-90.5,118.4c-8.8,108,27.9,228.6,29.6,234.1c6.6,21.4-19,145.2-13.3,195.2
			c5.7,50,26.4,117.2,29.7,141.5c3.2,24.3,5.6,54.3,5.6,54.3"/>
		<path class="st5" d="M1257.5,451c-13,13.8-19,44.6-16.9,82.2c2.1,37.6-8.4,197.7-2.4,249.2s18.1,154.4,14.2,193
			c-3.9,38.6-7.1,90.2-2.9,128.7"/>
	</g>
	<path class="st6" d="M1296.7,112.4c0,0,4.3,6.4,3.8,7.8c-0.4,1.4-3.7,2.6-7.2,11c-2.3,5.8,0.9,11.3-0.6,12.4
		c-1.6,1.1-5.7,7.9-6.9,10.2c-8.9,16.7,4,34.6,13.3,41.2c9.3,6.5,18.4,6.7,24.3,9.3c8.2,3.5,19,5.8,25.3-5.3c0,0,4.1-8.5-1-24.1
		c-2.9-8.9-6.4-15.4-8.1-17.8c-5.5-7.7-11.2-11.2-13.8-12.6c-1.4-0.7-0.8-3.8,2-5c2.8-1.3,6-0.3,6-0.3l1-4c0,0-3.9-1.3-5.8-0.9
		c-1.9,0.3,2.1-4.2,2.3-7.3c0,0-2.7-2.3-4.4-1.7c0,0-1,3.7-3.5,7.7c0,0,1-9.6-5.9-14.6c0,0,1.6-8.1,2.1-8.8c0,0-3.2-1.7-4.5-1.4
		c0,0-1.9,8.1-2.2,8.3c-0.3,0.2-0.9,1.2-1.5,0.2s-0.8-9.6-0.8-9.6l-4.4,0.5c0,0,1.9,9.3,0.7,9.8c-0.4,0.2-0.8,0.8-1.6,0.1
		c-2.1-1.8-4.3-6.9-4.3-7.3C1300.9,109.6,1296.7,112.4,1296.7,112.4z"/>
</g>
<g id="General">
	<g>
		<g>
			<rect x="688.4" y="595.9" class="st7" width="538.6" height="474.6"/>
			<text transform="matrix(1 0 0 1 688.386 613.4531)" class="st1 st8 st9">Obesity</text>
			<text transform="matrix(1 0 0 1 688.386 649.4531)" class="st1 st8 st9">Diabetes</text>
			<text transform="matrix(1 0 0 1 688.386 685.4531)" class="st1 st8 st9">Metabolic syndrome</text>
			<text transform="matrix(1 0 0 1 688.386 721.4531)" class="st1 st8 st9">Nuisance, stress</text>
			<text transform="matrix(1 0 0 1 688.386 757.4531)" class="st1 st8 st9">Sleep disorder</text>
			<text transform="matrix(1 0 0 1 688.386 793.4531)" class="st8 st9">Injuries from work and traffic accidents</text>
			<text transform="matrix(1 0 0 1 688.386 829.4531)" class="st1 st8 st9">Colon cancer</text>
			<text transform="matrix(1 0 0 1 688.386 865.5532)" class="st1 st8 st9">Systemic inflammation</text>
			<text transform="matrix(1 0 0 1 688.386 901.5532)" class="st1 st8 st9">Worse general health</text>
			<text transform="matrix(1 0 0 1 688.386 937.5532)" class="st1 st8 st9">Increase in mortality</text>
		</g>
		<circle class="st10" cx="677.1" cy="750.2" r="5.5"/>
		<circle class="st11" cx="677.1" cy="605.7" r="5.5"/>
		<circle class="st12" cx="677.1" cy="784.7" r="5.5"/>
		<g>
			<circle class="st13" cx="677.1" cy="642.4" r="5.5"/>
			<circle class="st11" cx="663.1" cy="642.4" r="5.5"/>
		</g>
		<g>
			<circle class="st10" cx="677.1" cy="714.5" r="5.5"/>
			<circle class="st14" cx="663.2" cy="714.5" r="5.5"/>
		</g>
		<circle class="st14" cx="677.1" cy="892.2" r="5.5"/>
		<g>
			<circle class="st12" cx="650.7" cy="927.9" r="5.5"/>
			<ellipse class="st11" cx="637.6" cy="927.9" rx="5.5" ry="5.5"/>
			<circle class="st14" cx="624.6" cy="927.9" r="5.5"/>
			<circle class="st10" cx="663.9" cy="927.9" r="5.5"/>
			<circle class="st13" cx="677.1" cy="927.9" r="5.5"/>
		</g>
		<circle class="st11" cx="677.1" cy="676.7" r="5.5"/>
		<circle class="st11" cx="677.1" cy="819.6" r="5.5"/>
		<circle class="st13" cx="677.1" cy="856.6" r="5.5"/>
	</g>
	<g>
		<g>
			<path class="st15" d="M1291.9-171.4c-0.4,0-0.7,0-1,0c-0.3,0-0.7,0-1,0c-44.9-0.4-62.4,35.1-59.8,80.4
				c2.5,44.3,19.6,91.2,60.6,92.1l0,0c0.1,0,0.2,0,0.3,0s0.2,0,0.3,0l0,0c41-0.9,58.1-47.8,60.6-92.1
				C1354.3-136.2,1336.8-171.8,1291.9-171.4z"/>
			<g>
				
					<ellipse transform="matrix(-0.1335 0.991 -0.991 -0.1335 1456.553 -1421.1523)" class="st15" cx="1349.5" cy="-73.8" rx="23.8" ry="8"/>
				
					<ellipse transform="matrix(-0.991 0.1335 -0.1335 -0.991 2443.3374 -311.3047)" class="st15" cx="1232.1" cy="-73.7" rx="8" ry="23.8"/>
			</g>
			<rect x="1255.8" y="-31.1" class="st15" width="70.1" height="73.1"/>
			<g>
				<path class="st15" d="M1303.7,75l-48.1-73.8l0,0c0,20.9-16.9,37.8-37.8,37.8l0,0L1303.7,75z"/>
				<path class="st15" d="M1278,75l48.1-73.8l0,0c0,20.9,16.9,37.8,37.8,37.8l0,0L1278,75z"/>
			</g>
		</g>
		<g>
			<rect x="1201.2" y="38.7" class="st15" width="178.7" height="281.4"/>
			<path class="st15" d="M1173.9,77.1h233.4v86.2c0,35.4-28.7,64-64,64h-105.4c-35.4,0-64-28.7-64-64V77.1z"/>
			<path class="st15" d="M1128,160.4h325.1v-59.3c0-34.5-28-62.4-62.4-62.4h-200.3c-34.5,0-62.4,28-62.4,62.4V160.4z"/>
			<path class="st15" d="M1379.9,320.1h-89.4v196.1h127.1c0,0,0-24.5,0-74.5C1417.6,393.7,1379.9,320.1,1379.9,320.1z"/>
			<path class="st15" d="M1201.2,320.1h89.4v196.1h-127.1c0,0,0-24.5,0-74.5C1163.5,393.7,1201.2,320.1,1201.2,320.1z"/>
			<g>
				<path class="st15" d="M1375.9,767.2c0,19.3-77.1,0-77.1,0v-251c0,0,118.8-29.7,118.8,0C1417.6,623,1375.9,738.1,1375.9,767.2z"
					/>
				<path class="st15" d="M1354.7,1082.1h-41l-14.9-314.8h76.9c0,0,6.4,92.3,6.4,123.2C1382.1,977.1,1354.7,1082.1,1354.7,1082.1z"
					/>
				<path class="st15" d="M1362.5,1177c-0.1,2.3-2.4,6-4.9,9.3c-3.8,5-9.7,7.8-15.9,7.8H1312c-7,0-12.4-6.1-11.4-13.1l13.1-99h41
					C1354.7,1082.1,1363.6,1147.8,1362.5,1177z"/>
			</g>
			<g>
				<path class="st15" d="M1205.2,767.2c0,19.3,77.1,0,77.1,0v-251c0,0-118.8-29.7-118.8,0C1163.5,623,1205.2,738.1,1205.2,767.2z"
					/>
				<path class="st15" d="M1226.4,1082.1h41l14.9-314.8h-76.9c0,0-6.4,92.3-6.4,123.2C1199,977.1,1226.4,1082.1,1226.4,1082.1z"/>
				<path class="st15" d="M1218.6,1177c0.1,2.3,2.4,6,4.9,9.3c3.8,5,9.7,7.8,15.9,7.8h29.7c7,0,12.4-6.1,11.4-13.1l-13.1-99h-41
					C1226.5,1082.1,1217.5,1147.8,1218.6,1177z"/>
			</g>
			<polygon class="st15" points="1473.6,309.7 1427.6,315 1399.8,97.6 1453,91.5 			"/>
			<path class="st15" d="M1488.4,494.3l-27,3.1L1427.6,315c0,0,42.4-39.8,43.8-27.7c2.5,21.5,8.9,43.4,12.1,73.1
				C1487.1,393.7,1488.4,494.3,1488.4,494.3z"/>
			<path class="st15" d="M1488.4,494.3v41.4c0,8.9-2.7,17.6-7.9,24.9l-32.9,46.8c-2.7,3.9-8,4.9-11.9,2.3l0,0
				c-3.7-2.4-5-7.1-3.1-11.1l20.4-42.3l-2.8-15.3l-14.6,28.8c-0.7,1.3-2.2,2-3.7,1.6l0,0c-1.5-0.4-2.5-1.9-2.3-3.4l3.1-27.7
				c0.8-7.2,3.3-14.1,7.4-20.1l21.2-22.9L1488.4,494.3z"/>
			<g>
				<polygon class="st15" points="1108.2,309.7 1154.1,315 1181.9,97.6 1128.8,91.5 				"/>
				<path class="st15" d="M1093.4,494.3l27,3.1l33.7-182.4c0,0-42.4-39.8-43.8-27.7c-2.5,21.5-8.9,43.4-12.1,73.1
					C1094.6,393.7,1093.4,494.3,1093.4,494.3z"/>
				<path class="st15" d="M1093.4,494.3v41.4c0,8.9,2.7,17.6,7.9,24.9l32.9,46.8c2.7,3.9,8,4.9,11.9,2.3l0,0c3.7-2.4,5-7.1,3.1-11.1
					l-20.4-42.3l2.8-15.3l14.6,28.8c0.7,1.3,2.2,2,3.7,1.6l0,0c1.5-0.4,2.5-1.9,2.3-3.4l-3.1-27.7c-0.8-7.2-3.3-14.1-7.4-20.1
					l-21.2-22.9L1093.4,494.3z"/>
			</g>
		</g>
	</g>
	<g>
		<g>
			<path class="st3" d="M1308.4,45.3L1308.4,45.3c3.9-2.5,8.4-3.9,13.1-3.9h6.3c7.9,0.5,12.9,3.1,16,7.1
				c21.4,27.7,48.6,65,55.8,114.3c1.7,11.9-15.2,35.7-19.8,39.1c-55.8,41.5-87.2-27.9-87.2-27.9l5-109.7
				C1297.9,56.6,1301.9,49.5,1308.4,45.3z"/>
			<circle class="st3" cx="1345" cy="168.1" r="54.6"/>
		</g>
		<g>
			<path class="st3" d="M1274.1,45.3L1274.1,45.3c-3.9-2.5-8.4-3.9-13.1-3.9h-6.3c-7.9,0.5-12.9,3.1-16,7.1
				c-21.4,27.7-48.6,65-55.8,114.3c-1.7,11.9,15.2,35.7,19.8,39.1c55.8,41.5,87.2-27.9,87.2-27.9l17.6-99L1285,64.4
				C1284.6,56.6,1280.6,49.5,1274.1,45.3z"/>
			<circle class="st3" cx="1237.5" cy="168.1" r="54.6"/>
		</g>
	</g>
	<path class="st4" d="M1290.9,487.7L1290.9,487.7c-30.3,0-54.9-24.6-54.9-54.9v-61.7c0-30.3,24.6-54.9,54.9-54.9l0,0
		c30.3,0,54.9,24.6,54.9,54.9v61.7C1345.7,463.2,1321.2,487.7,1290.9,487.7z"/>
	<g>
		<g>
			<g>
				<circle class="st4" cx="1258.5" cy="166.7" r="22.4"/>
				<circle class="st4" cx="1228.7" cy="177.5" r="24.4"/>
				<circle class="st4" cx="1267.4" cy="101.8" r="13.5"/>
				<rect x="1251" y="101.8" class="st4" width="29.9" height="61"/>
				<path class="st4" d="M1205.2,170.9c13.2-52.4,53.6-79.5,53.6-79.5l5.4,70.4C1264.2,161.7,1201.5,185.4,1205.2,170.9z"/>
			</g>
			<g>
				<circle class="st4" cx="1324" cy="166.7" r="22.4"/>
				<circle class="st4" cx="1353.8" cy="177.5" r="24.4"/>
				<circle class="st4" cx="1315.1" cy="101.8" r="13.5"/>
				<rect x="1301.6" y="101.9" class="st4" width="29.9" height="61"/>
				<path class="st4" d="M1377.3,170.9c-13.2-52.4-53.6-79.5-53.6-79.5l-5.4,70.4C1318.3,161.7,1381,185.4,1377.3,170.9z"/>
			</g>
		</g>
		<rect x="1283.8" y="41" class="st4" width="14.9" height="56.1"/>
		<g>
			
				<rect x="1301.5" y="85.5" transform="matrix(0.7071 -0.7071 0.7071 0.7071 303.0913 958.7905)" class="st4" width="14.9" height="56.1"/>
			
				<rect x="1266.1" y="85.4" transform="matrix(-0.7071 -0.7071 0.7071 -0.7071 2093.9121 1094.3197)" class="st4" width="14.9" height="56.1"/>
		</g>
	</g>
	<g>
		<path class="st5" d="M1459,533.1c0,0,20.9-17.7,20.3-35.7c-1.6-43.9,1.6-76-1.6-100.3c-8-60.9-24.9-73-27.9-100.5
			c-2.6-23.1,5-164.8-13-199.7c-19.1-36.9-65.2-41.5-97.4-33c-22.8,6-28.3,24.1-30.4,35.6c-1.6,8.8-1.8,16.5,2.7,35.8"/>
		<path class="st5" d="M1390.1,62.8c23.7,6.2,25.7,29.3,27.5,56.9c1.8,27.6,33.3,135.4,30.9,171.3c-2.4,35.9-1.1,91.7,6.5,115.8
			s21.6,54.8,23.8,80.9"/>
		<path class="st5" d="M1123.8,533.1c0,0-20.9-17.7-20.3-35.7c1.6-43.9-1.6-76,1.6-100.3c8-60.9,24.9-73,27.9-100.5
			c2.6-23.1-5-164.8,13-199.7c19.1-36.9,65.2-41.5,97.4-33c22.8,6,47.4,21.8,51.6,35.6c2.6,8.6,8.6,16.5,4.2,35.8"/>
		<path class="st5" d="M1192.6,62.8c-23.7,6.2-25.7,29.3-27.5,56.9c-1.8,27.6-33.2,135.4-30.8,171.3s1.1,91.7-6.5,115.8
			s-21.6,54.8-23.8,80.9"/>
		<path class="st5" d="M1339.3,64c0,0-23.1-47.7-24.2-62.9s13.1-41.3,23.2-68.4c5.7-15.3,5-30.2,3.3-40.3c-1.3-7.6-6.4-14-13.5-16.9
			l-4.6-1.9"/>
		<line class="st5" x1="1315.1" y1="-2.3" x2="1320.9" y2="73.3"/>
		<path class="st5" d="M1242,63.1c0,0,23.1-46.8,24.2-62c1.1-15.2-13.1-41.3-23.2-68.4c-6.5-17.4-4.7-34.3-2.5-44.1
			c1.2-5.4,4.3-10.1,8.7-13.3l4.8-3.5"/>
		<line class="st5" x1="1266.2" y1="-2.3" x2="1260.4" y2="69.9"/>
		<path class="st5" d="M1295,183.6c0,0-3.9,223.5,0.4,234.6c4.3,11.1,78.3,67.9,82.1,115c8.8,108-27.9,228.6-29.6,234.1
			c-6.6,21.4,19,145.2,13.3,195.2c-5.7,50-26.4,117.2-29.7,141.5c-3.2,24.3-5.6,54.3-5.6,54.3"/>
		<path class="st5" d="M1324,448.8c13,13.8,18.6,46.7,16.4,84.3c-2.1,37.6,8.4,197.7,2.4,249.2s-18.1,154.4-14.2,193
			c3.9,38.6,7.1,90.2,2.9,128.7"/>
		<path class="st5" d="M1293.8,414.8c-4.3,11.1-86.7,71.3-90.5,118.4c-8.8,108,27.9,228.6,29.6,234.1c6.6,21.4-19,145.2-13.3,195.2
			c5.7,50,26.4,117.2,29.7,141.5c3.3,24.3,5.6,54.3,5.6,54.3"/>
		<path class="st5" d="M1257.2,450.9c-13,13.8-19,44.6-16.9,82.2s-8.4,197.7-2.4,249.2s18.1,154.4,14.2,193
			c-3.9,38.6-7.1,90.2-2.9,128.7"/>
	</g>
	<path class="st6" d="M1296.4,112.3c0,0,4.3,6.4,3.8,7.8c-0.4,1.4-3.7,2.6-7.2,11c-2.3,5.8,0.9,11.3-0.6,12.4
		c-1.6,1.1-5.7,7.9-6.9,10.2c-8.9,16.7,4,34.6,13.3,41.2c9.3,6.5,18.4,6.7,24.3,9.3c8.2,3.5,19,5.8,25.3-5.3c0,0,4.1-8.5-1-24.1
		c-2.9-8.9-6.4-15.4-8.1-17.8c-5.5-7.7-11.2-11.2-13.8-12.6c-1.4-0.7-0.8-3.8,2-5c2.8-1.3,6-0.3,6-0.3l1-4c0,0-3.9-1.3-5.8-0.9
		c-1.9,0.3,2.1-4.2,2.3-7.3c0,0-2.7-2.3-4.4-1.7c0,0-1,3.7-3.5,7.7c0,0,1-9.6-5.9-14.6c0,0,1.6-8.1,2.1-8.8c0,0-3.2-1.7-4.5-1.4
		c0,0-1.9,8.1-2.2,8.3c-0.3,0.2-0.9,1.2-1.5,0.2s-0.8-9.6-0.8-9.6l-4.4,0.5c0,0,1.9,9.3,0.7,9.8c-0.4,0.2-0.8,0.8-1.6,0.1
		c-2.1-1.8-4.3-6.9-4.3-7.3C1300.6,109.6,1296.4,112.3,1296.4,112.3z"/>
	<g>
		<circle class="st4" cx="1257.6" cy="-128.9" r="13.6"/>
		<circle class="st4" cx="1277.9" cy="-140.5" r="14.7"/>
		<circle class="st4" cx="1300.5" cy="-141.9" r="16.3"/>
		<circle class="st4" cx="1251.3" cy="-123.4" r="8.1"/>
		<circle class="st4" cx="1330.9" cy="-123.4" r="8.1"/>
		<circle class="st4" cx="1319.9" cy="-134.9" r="11"/>
		<rect x="1251.3" y="-128.9" class="st4" width="79.6" height="13.6"/>
		<rect x="1276.8" y="-137.9" class="st4" width="14.3" height="17.6"/>
	</g>
	<g>
		<rect x="688.4" y="537.8" class="st7" width="368.8" height="57.7"/>
		<text transform="matrix(1 0 0 1 688.3865 561.9691)" class="st1 st8 st16">GENERAL/OTHERS</text>
	</g>
	<line class="st17" x1="1184.6" y1="515.5" x2="688.4" y2="513.8"/>
</g>
<g id="Pit">
	<path class="st15" d="M1400.2,163.4c-7.2-49.3-34.4-86.6-55.8-114.3c-3.1-4-8.1-6.6-16-7.1h-6.3c-4.6,0-9.2,1.3-13.1,3.9
		c-6.5,4.2-10.5,11.3-10.9,19l-0.3,5.8l-12.3-5.8c-0.3-7.7-4.4-14.8-10.9-19l0,0c-3.9-2.5-8.4-3.9-13.1-3.9h-6.3
		c-7.9,0.5-12.9,3.1-16,7.1c-21.4,27.7-48.6,65-55.8,114.3c-0.2,1.2-0.2,2.6,0,4c0,0.4,0,0.8,0,1.2c0,30.1,24.4,54.6,54.6,54.6
		c26.9,0,49.2-19.4,53.7-44.9c4.6,25.5,26.9,44.9,53.7,44.9c30.1,0,54.6-24.4,54.6-54.6c0-0.4,0-0.8,0-1.2
		C1400.4,166,1400.4,164.6,1400.2,163.4z"/>
	<path class="st4" d="M1378,171.5c-13.1-51.8-52.8-79-53.6-79.5c-2.3-1.9-5.3-3.1-8.6-3.1c-5.6,0-10.5,3.5-12.5,8.4l-3.9-3.9V41.6
		h-14.9v51.8l-3.9,3.9c-2-4.9-6.9-8.4-12.5-8.4c-3.3,0-6.3,1.2-8.6,3.1c-0.8,0.5-40.6,27.7-53.6,79.5l0,0c-0.6,2.1-0.9,4.3-0.9,6.6
		c0,13.5,10.9,24.4,24.4,24.4c9.8,0,18.3-5.8,22.2-14.1c2.4,0.9,5,1.3,7.7,1.3c12.4,0,22.4-10,22.4-22.4c0-1.3-0.1-2.6-0.3-3.9h0.3
		v-46.1L1292,107l10.3,10.3v46.1h0.3c-0.2,1.3-0.3,2.5-0.3,3.9c0,12.4,10,22.4,22.4,22.4c2.7,0,5.3-0.5,7.7-1.3
		c3.9,8.4,12.3,14.1,22.2,14.1c13.5,0,24.4-10.9,24.4-24.4C1378.9,175.8,1378.6,173.6,1378,171.5z"/>
	<g>
		<path class="st5" d="M1362.8,61.1c-8,0.4-15.7,1.6-22.8,3.5c-22.8,6-28.3,24.1-30.4,35.6c-1.6,8.8-1.8,16.5,2.7,35.8"/>
		<path class="st5" d="M1213.2,61c10.8-0.3,21.5,1.1,30.9,3.6c22.8,6,47.4,21.8,51.6,35.6c2.6,8.6,8.6,16.5,4.2,35.8"/>
		<path class="st5" d="M1340,64.6c0,0-23.1-47.7-24.2-62.9"/>
		<line class="st5" x1="1315.8" y1="-1.7" x2="1321.6" y2="73.9"/>
		<path class="st5" d="M1242.7,63.7c0,0,14.2-28.9,20.9-48.7c1.8-5.4,3.1-10.1,3.3-13.3"/>
		<line class="st5" x1="1266.9" y1="-1.7" x2="1261.1" y2="70.5"/>
		<path class="st5" d="M1324.7,449.3c13,13.8,18.6,46.7,16.4,84.3c-2.1,37.6,8.4,197.7,2.4,249.2s-18.1,154.4-14.2,193
			s7.1,90.2,2.9,128.7"/>
		<path class="st5" d="M1294.5,415.3c-4.3,11.1-86.7,71.3-90.5,118.4c-8.8,108,27.9,228.6,29.6,234.1c6.6,21.4-19,145.2-13.3,195.2
			c5.7,50,26.4,117.2,29.7,141.5c3.2,24.3,5.6,54.3,5.6,54.3"/>
		<path class="st5" d="M1257.9,451.5c-13,13.8-19,44.6-16.9,82.2c2.1,37.6-8.4,197.7-2.4,249.2s18.1,154.4,14.2,193
			c-3.9,38.6-7.1,90.2-2.9,128.7"/>
	</g>
	<path class="st6" d="M1348.1,175.4c-2.9-8.9-6.4-15.4-8.1-17.8c-5.5-7.7-11.2-11.2-13.8-12.6c-1.4-0.7-0.8-3.8,2-5
		c2.8-1.3,6-0.3,6-0.3l1-4c0,0-3.9-1.3-5.8-0.9c-1.9,0.3,2.1-4.2,2.3-7.3c0,0-2.7-2.3-4.4-1.7c0,0-1,3.7-3.5,7.7c0,0,1-9.6-5.9-14.6
		c0,0,1.6-8.1,2.1-8.8c0,0-3.2-1.7-4.5-1.4c0,0-1.9,8.1-2.2,8.3c-0.3,0.2-0.9,1.2-1.5,0.2s-0.8-9.6-0.8-9.6l-4.4,0.5
		c0,0,1.9,9.3,0.7,9.8c-0.4,0.2-0.8,0.8-1.6,0.1c-2.1-1.8-4.3-6.9-4.3-7.3c0-0.5-4.2,2.3-4.2,2.3s4.3,6.4,3.8,7.8
		c-0.4,1.4-3.7,2.6-7.2,11c-2.3,5.8,0.9,11.3-0.6,12.4c-1.6,1.1-5.7,7.9-6.9,10.2c-8.9,16.7,4,34.6,13.3,41.2
		c9.3,6.5,18.4,6.7,24.3,9.3c8.2,3.5,19,5.8,25.3-5.3C1349.1,199.4,1353.2,190.9,1348.1,175.4z"/>
	<g>
		<circle class="st11" cx="677.8" cy="429" r="5.5"/>
		<g>
			<rect x="689.1" y="419.1" class="st7" width="357.8" height="48.9"/>
			<text transform="matrix(1 0 0 1 689.0703 436.6674)" class="st1 st8 st9">Breast cancer </text>
		</g>
		<g>
			<rect x="689.1" y="359.7" class="st7" width="385.2" height="138.5"/>
			<text transform="matrix(1 0 0 1 689.0693 383.8391)" class="st1 st8 st16">Breast</text>
		</g>
		<polyline class="st17" points="689.1,337.3 1051.9,335.9 1201.9,144.8 		"/>
	</g>
</g>
<g id="AparellRespiratori">
	<path class="st15" d="M1377.3,171.1c-13-51.8-52.8-78.9-53.6-79.5c-2.3-1.9-5.3-3.1-8.6-3.1c-5.6,0-10.5,3.5-12.5,8.4l-3.9-3.9
		V41.2h-14.9V93l-3.9,3.9c-2-4.9-6.9-8.4-12.5-8.4c-3.3,0-6.3,1.2-8.6,3.1c-0.8,0.6-40.6,27.7-53.6,79.5l0,0
		c-0.6,2.1-0.9,4.3-0.9,6.6c0,13.5,10.9,24.4,24.4,24.4c9.8,0,18.3-5.8,22.2-14.2c2.4,0.9,5,1.3,7.7,1.3c12.4,0,22.4-10,22.4-22.4
		c0-1.3-0.1-2.6-0.3-3.9h0.3V117l10.3-10.3l10.3,10.3v46.1h0.3c-0.2,1.3-0.3,2.5-0.3,3.9c0,12.4,10,22.4,22.4,22.4
		c2.7,0,5.3-0.5,7.7-1.3c3.9,8.4,12.3,14.2,22.2,14.2c13.5,0,24.4-10.9,24.4-24.4C1378.2,175.4,1377.9,173.2,1377.3,171.1z"/>
	<g>
		<path class="st5" d="M1316.8,79.2c-4.9,6.9-6.9,14.6-8,20.6c-1.6,8.8-1.8,16.5,2.7,35.8"/>
		<path class="st5" d="M1283.8,84.8c5.7,4.9,9.8,10.1,11.3,15c2.6,8.6,8.6,16.5,4.2,35.8"/>
		<line class="st5" x1="1315.1" y1="-2.1" x2="1320.9" y2="73.5"/>
		<line class="st5" x1="1266.2" y1="-2.1" x2="1260.4" y2="70.1"/>
		<path class="st5" d="M1295,183.8c0,0-3.9,223.5,0.4,234.6c4.3,11.1,78.3,67.9,82.1,115c8.8,108-27.9,228.6-29.6,234.1
			c-6.6,21.4,19,145.2,13.3,195.2c-5.7,50-26.4,117.2-29.7,141.5c-3.2,24.3-5.6,54.3-5.6,54.3"/>
		<path class="st5" d="M1324,449c13,13.8,18.6,46.7,16.4,84.3c-2.1,37.6,8.4,197.7,2.4,249.2s-18.1,154.4-14.2,193
			c3.9,38.6,7.1,90.2,2.9,128.7"/>
		<path class="st5" d="M1293.8,415c-4.3,11.1-86.7,71.3-90.5,118.4c-8.8,108,27.9,228.6,29.6,234.1c6.6,21.4-19,145.2-13.3,195.2
			c5.7,50,26.4,117.2,29.7,141.5c3.2,24.3,5.6,54.3,5.6,54.3"/>
		<path class="st5" d="M1257.2,451.1c-13,13.8-19,44.6-16.9,82.2c2.1,37.6-8.4,197.7-2.4,249.2s18.1,154.4,14.2,193
			c-3.9,38.6-7.1,90.2-2.9,128.7"/>
	</g>
	<path class="st6" d="M1347.4,175c-2.9-8.9-6.4-15.4-8.1-17.8c-5.5-7.7-11.2-11.2-13.8-12.6c-1.4-0.7-0.8-3.8,2-5
		c2.8-1.3,6-0.3,6-0.3l1-4c0,0-3.9-1.3-5.8-0.9c-1.9,0.3,2.1-4.2,2.3-7.3c0,0-2.7-2.3-4.4-1.7c0,0-1,3.7-3.5,7.7c0,0,1-9.6-5.9-14.6
		c0,0,1.6-8.1,2.1-8.8c0,0-3.2-1.7-4.5-1.4c0,0-1.9,8.1-2.2,8.3c-0.3,0.2-0.9,1.2-1.5,0.2s-0.8-9.6-0.8-9.6l-4.4,0.5
		c0,0,1.9,9.3,0.7,9.8c-0.4,0.2-0.8,0.8-1.6,0.1c-2.1-1.8-4.3-6.9-4.3-7.3c0-0.5-4.2,2.3-4.2,2.3s4.3,6.4,3.8,7.8
		c-0.4,1.4-3.7,2.6-7.2,11c-2.3,5.8,0.9,11.3-0.6,12.4c-1.6,1.1-5.7,7.9-6.9,10.2c-8.9,16.7,4,34.6,13.3,41.2
		c9.3,6.5,18.4,6.7,24.3,9.3c8.2,3.5,19,5.8,25.3-5.3C1348.5,199.1,1352.5,190.6,1347.4,175z"/>
	<g>
		<circle class="st13" cx="1904.6" cy="-45.2" r="5.5"/>
		<circle class="st13" cx="1904.6" cy="15" r="5.5"/>
		<circle class="st13" cx="1904.6" cy="50.9" r="5.5"/>
		<circle class="st11" cx="1918.4" cy="50.9" r="5.5"/>
		<circle class="st13" cx="1904.6" cy="86.7" r="5.5"/>
		<circle class="st13" cx="1904.6" cy="122.8" r="5.5"/>
		<g>
			<rect x="1534.2" y="-56.5" class="st7" width="357.8" height="214.7"/>
			<text transform="matrix(1 0 0 1 1570.6089 -38.9467)" class="st1 st8 st9">Chronic Obstructive Pulmonary </text>
			<text transform="matrix(1 0 0 1 1724.7078 -11.9467)" class="st1 st8 st9">Disease (COPD) </text>
			<text transform="matrix(1 0 0 1 1798.7063 23.0532)" class="st1 st8 st9">Asthma</text>
			<text transform="matrix(1 0 0 1 1668.0081 59.0532)" class="st1 st8 st9">Respiratory diseases </text>
			<text transform="matrix(1 0 0 1 1763.9067 95.0532)" class="st1 st8 st9">Pneumonia</text>
			<text transform="matrix(1 0 0 1 1752.9066 131.0532)" class="st1 st8 st9">Lung cancer</text>
		</g>
		<g>
			<rect x="1506.8" y="-114.4" class="st7" width="385.2" height="138.5"/>
			<text transform="matrix(1 0 0 1 1615.2509 -90.3201)" class="st1 st8 st16">Respiratory tract</text>
		</g>
		<polyline class="st17" points="1892.1,-136.8 1529.3,-138.3 1349.6,133.7 		"/>
	</g>
</g>
<g id="Cor">
	<path class="st15" d="M1347.6,175c-2.9-8.9-6.4-15.4-8.1-17.8c-5.5-7.7-11.2-11.2-13.8-12.6c-1.4-0.7-0.8-3.8,2-5
		c2.8-1.3,6-0.3,6-0.3l1-4c0,0-3.9-1.3-5.8-0.9c-1.9,0.3,2.1-4.2,2.3-7.3c0,0-2.7-2.3-4.4-1.7c0,0-1,3.7-3.5,7.7c0,0,1-9.6-5.9-14.6
		c0,0,1.6-8.1,2.1-8.8c0,0-3.2-1.7-4.5-1.4c0,0-1.9,8.1-2.2,8.3c-0.3,0.2-0.9,1.2-1.5,0.2s-0.8-9.6-0.8-9.6l-4.4,0.5
		c0,0,1.9,9.3,0.7,9.8c-0.4,0.2-0.8,0.8-1.6,0.1c-2.1-1.8-4.3-6.9-4.3-7.3c0-0.5-4.2,2.3-4.2,2.3s4.3,6.4,3.8,7.8
		c-0.4,1.4-3.7,2.6-7.2,11c-2.3,5.8,0.9,11.3-0.6,12.4c-1.6,1.1-5.7,7.9-6.9,10.2c-8.9,16.7,4,34.6,13.3,41.2
		c9.3,6.5,18.4,6.7,24.3,9.3c8.2,3.5,19,5.8,25.3-5.3C1348.7,199,1352.7,190.5,1347.6,175z"/>
	<g>
		<circle class="st10" cx="1918.4" cy="407.4" r="5.5"/>
		<circle class="st11" cx="1932.2" cy="407.4" r="5.5"/>
		<circle class="st10" cx="1918.6" cy="300.6" r="5.5"/>
		<circle class="st11" cx="1932.5" cy="300.6" r="5.5"/>
		<circle class="st13" cx="1904.8" cy="300.6" r="5.5"/>
		<circle class="st13" cx="1904.6" cy="335.6" r="5.5"/>
		<circle class="st13" cx="1904.6" cy="371.5" r="5.5"/>
		<circle class="st13" cx="1904.6" cy="407.4" r="5.5"/>
		<g>
			<rect x="1535.4" y="289" class="st7" width="357.8" height="151.9"/>
			<text transform="matrix(1 0 0 1 1664.7882 306.5629)" class="st1 st8 st9">Myocardial infarction</text>
			<text transform="matrix(1 0 0 1 1762.3866 342.5629)" class="st1 st8 st9">Arrhythmia</text>
			<text transform="matrix(1 0 0 1 1634.2882 378.5629)" class="st1 st8 st9">Heart congestive failure</text>
			<text transform="matrix(1 0 0 1 1631.8882 414.5629)" class="st1 st8 st9">Cardiovascular diseases</text>
		</g>
		<g>
			<rect x="1508" y="230.3" class="st7" width="385.2" height="45.2"/>
			<text transform="matrix(1 0 0 1 1787.0371 254.3839)" class="st1 st8 st16">Heart</text>
		</g>
		<polyline class="st17" points="1893.2,207.9 1530.4,206.5 1329.6,165.1 		"/>
	</g>
</g>
<g id="AparellReproductor">
	<path class="st15" d="M1290.7,487.9L1290.7,487.9c-30.3,0-54.9-24.6-54.9-54.9v-61.7c0-30.3,24.6-54.9,54.9-54.9l0,0
		c30.3,0,54.9,24.6,54.9,54.9V433C1345.5,463.4,1321,487.9,1290.7,487.9z"/>
	<g>
		<path class="st5" d="M1293.3,310.2c-0.3,52.7-0.1,103.1,1.9,108.2c2.4,6.1,25.5,25.8,46.6,50.1"/>
		<path class="st5" d="M1293.6,414.9c-2.4,6.2-29,27.6-52.8,53.5"/>
	</g>
	<g>
		<g>
			<rect x="1531" y="612.7" class="st7" width="360.9" height="195.4"/>
			<text transform="matrix(1 0 0 1 1724.0957 630.2009)" class="st1 st8 st9">Premature birth </text>
			<text transform="matrix(1 0 0 1 1634.9963 666.2009)" class="st1 st8 st9">Reduced weight at birth </text>
			<text transform="matrix(1 0 0 1 1752.7948 702.2009)" class="st1 st8 st9">Preclampsia</text>
			<text transform="matrix(1 0 0 1 1615.0967 738.2009)" class="st1 st8 st9">Reduction in sperm quality</text>
		</g>
		<g>
			<rect x="1525.2" y="517" class="st7" width="366.7" height="123.5"/>
			<text transform="matrix(1 0 0 1 1565.9543 541.1511)" class="st1 st8 st16">Reproductive system </text>
			<text transform="matrix(1 0 0 1 1729.6526 578.6511)" class="st1 st8 st16">and fetus     </text>
		</g>
		<polyline class="st17" points="1323.8,374.1 1506.2,494.1 1891.9,492.9 		"/>
		<circle class="st13" cx="1904.4" cy="622.6" r="5.5"/>
		<circle class="st13" cx="1904.4" cy="660.1" r="5.5"/>
		<circle class="st13" cx="1904.4" cy="730.1" r="5.5"/>
		<circle class="st12" cx="1918.2" cy="622.6" r="5.5"/>
		<circle class="st13" cx="1904.4" cy="696.2" r="5.5"/>
	</g>
</g>
<g id="Cap">
	<g>
		<g>
			<rect x="688.7" y="-56.8" class="st7" width="380.7" height="427.2"/>
			<text transform="matrix(1 0 0 1 688.6731 -39.2188)" class="st1 st8 st9">Dementia</text>
			<text transform="matrix(1 0 0 1 688.6731 -3.2189)" class="st1 st8 st9">Cognitive impairment </text>
			<text transform="matrix(1 0 0 1 688.6731 32.7811)" class="st1 st8 st9">Neurodegenerative diseases </text>
			<text transform="matrix(1 0 0 1 688.6731 68.7811)" class="st1 st8 st9">Mental health problems</text>
			<text transform="matrix(1 0 0 1 688.6731 104.7811)" class="st1 st8 st9">Stroke</text>
			<text transform="matrix(1 0 0 1 688.6731 140.7811)" class="st1 st8 st9">Cerebrovascular diseases</text>
			<text transform="matrix(1 0 0 1 688.6731 176.7811)" class="st1 st8 st9">Autism and child behaviour </text>
			<text transform="matrix(1 0 0 1 688.6731 202.7811)" class="st1 st8 st9">problems</text>
			<text transform="matrix(1 0 0 1 688.6731 238.8811)" class="st8 st9">Tinnitus or deafness</text>
			<text transform="matrix(1 0 0 1 688.6731 274.8811)" class="st8 st9">Reduction of cognitive </text>
			<text transform="matrix(1 0 0 1 688.6731 300.8811)" class="st8 st9">performance</text>
		</g>
		<circle class="st13" cx="677.4" cy="168" r="5.5"/>
		<circle class="st10" cx="677.4" cy="231.4" r="5.5"/>
		<circle class="st12" cx="677.4" cy="266.5" r="5.5"/>
		<g>
			<circle class="st13" cx="677.4" cy="97" r="5.5"/>
			<circle class="st11" cx="649.6" cy="97" r="5.5"/>
			<circle class="st10" cx="663.5" cy="97" r="5.5"/>
		</g>
		<g>
			<circle class="st13" cx="677.4" cy="-47.2" r="5.5"/>
			<circle class="st11" cx="663.5" cy="-47.2" r="5.5"/>
		</g>
		<g>
			<circle class="st13" cx="677.4" cy="24.9" r="5.5"/>
			<circle class="st11" cx="663.5" cy="24.9" r="5.5"/>
		</g>
		<g>
			<circle class="st10" cx="677.4" cy="133" r="5.5"/>
			<circle class="st11" cx="663.5" cy="133" r="5.5"/>
		</g>
		<g>
			<circle class="st10" cx="677.4" cy="-10.5" r="5.5"/>
			<circle class="st11" cx="663.5" cy="-10.5" r="5.5"/>
		</g>
		<circle class="st14" cx="649.6" cy="60.5" r="5.5"/>
		<circle class="st11" cx="663.5" cy="60.5" r="5.5"/>
		<circle class="st13" cx="677.4" cy="60.5" r="5.5"/>
	</g>
	<path class="st15" d="M1331.2-131.3c-0.2,0-0.4,0-0.6,0c0.4-1.1,0.6-2.2,0.6-3.4c0-6.1-4.9-11-11-11c-1.2,0-2.4,0.2-3.5,0.6
		c-1.6-7.4-8.1-12.9-15.9-12.9c-5.3,0-10,2.6-13,6.5c-2.6-2.2-5.9-3.6-9.6-3.6c-7.9,0-14.3,6.2-14.7,14c-1.7-0.8-3.6-1.2-5.6-1.2
		c-7.5,0-13.6,6.1-13.6,13.6c0,0.6,0.1,1.2,0.1,1.8c-0.6,1.1-0.9,2.4-0.9,3.7c0,4.5,3.6,8.1,8.1,8.1h79.6c4.5,0,8.1-3.6,8.1-8.1
		C1339.2-127.7,1335.6-131.3,1331.2-131.3z M1310.9-128.8h-0.4c0.1-0.1,0.2-0.1,0.3-0.2C1310.8-128.9,1310.9-128.8,1310.9-128.8z"/>
	<g>
		<rect x="688.7" y="-115.5" class="st7" width="283.7" height="41.9"/>
		<text transform="matrix(1 0 0 1 688.6736 -91.3765)" class="st1 st8 st16">Head</text>
	</g>
	<line class="st17" x1="1301.1" y1="-137.9" x2="688.7" y2="-139.6"/>
</g>
<g id="Arteries">
	<g>
		<path class="st18" d="M1458.9,533.3c0,0,20.9-17.7,20.3-35.7c-1.6-43.9,1.6-76-1.6-100.3c-8-60.9-24.9-73-27.9-100.5
			c-2.6-23.1,5-164.8-13-199.7c-19.1-36.9-65.2-41.5-97.4-33c-22.8,6-28.3,24.1-30.4,35.6c-1.6,8.8-1.8,16.5,2.7,35.8"/>
		<path class="st18" d="M1390,63c23.7,6.2,25.7,29.3,27.5,56.9c1.8,27.6,33.3,135.3,30.9,171.2c-2.4,35.9-1.1,91.7,6.5,115.8
			s21.6,54.8,23.8,80.9"/>
		<path class="st18" d="M1123.7,533.3c0,0-20.9-17.7-20.3-35.7c1.6-43.9-1.6-76,1.6-100.3c8-60.9,24.9-73,27.9-100.5
			c2.6-23.1-5-164.8,13-199.7c19.1-36.9,65.2-41.5,97.4-33c22.8,6,47.4,21.8,51.6,35.6c2.6,8.6,8.6,16.5,4.2,35.8"/>
		<path class="st18" d="M1192.5,63c-23.7,6.2-25.7,29.3-27.5,56.9c-1.8,27.6-33.3,135.3-30.9,171.2s1.1,91.7-6.5,115.8
			s-21.6,54.8-23.8,80.9"/>
		<path class="st18" d="M1339.2,64.2c0,0-23.1-47.7-24.2-62.9c-1.1-15.2,13.1-41.3,23.2-68.4c5.7-15.3,5-30.2,3.3-40.3
			c-1.3-7.6-6.4-14-13.5-16.9l-4.6-1.9"/>
		<line class="st18" x1="1315" y1="-2.1" x2="1320.8" y2="73.5"/>
		<path class="st18" d="M1241.9,63.3c0,0,23.1-46.8,24.2-62c1.1-15.2-13.1-41.3-23.2-68.4c-6.5-17.4-4.7-34.3-2.5-44.1
			c1.2-5.4,4.3-10.1,8.7-13.3l4.8-3.5"/>
		<line class="st18" x1="1266.1" y1="-2.1" x2="1260.3" y2="70.1"/>
		<path class="st18" d="M1294.9,183.8c0,0-3.9,223.5,0.4,234.6c4.3,11.1,78.3,67.9,82.1,115c8.8,108-27.9,228.6-29.6,234.1
			c-6.6,21.4,19,145.2,13.3,195.2c-5.7,50-26.4,117.2-29.7,141.5c-3.2,24.3-5.6,54.3-5.6,54.3"/>
		<path class="st18" d="M1323.9,449c13,13.8,18.6,46.7,16.4,84.3c-2.1,37.6,8.4,197.7,2.4,249.2s-18.1,154.4-14.2,193
			c3.9,38.6,7.1,90.2,2.9,128.7"/>
		<path class="st18" d="M1293.7,414.9c-4.3,11.1-86.7,71.3-90.5,118.4c-8.8,108,27.9,228.6,29.6,234.1c6.6,21.4-19,145.2-13.3,195.2
			c5.7,50,26.4,117.2,29.7,141.5c3.2,24.3,5.6,54.3,5.6,54.3"/>
		<path class="st18" d="M1257.1,451.1c-13,13.8-19,44.6-16.9,82.2c2.1,37.6-8.4,197.7-2.4,249.2s18.1,154.4,14.2,193
			c-3.9,38.6-7.1,90.2-2.9,128.7"/>
	</g>
	<g>
		<circle class="st11" cx="1918.3" cy="934.5" r="5.5"/>
		<circle class="st10" cx="1904.5" cy="934.5" r="5.5"/>
		<circle class="st13" cx="1904.5" cy="971" r="5.5"/>
		<g>
			<rect x="1534.1" y="923.2" class="st7" width="357.8" height="133.5"/>
			<text transform="matrix(1 0 0 1 1739.2742 940.7064)" class="st1 st8 st9">Hypertension</text>
			<text transform="matrix(1 0 0 1 1627.4753 976.7064)" class="st1 st8 st9">Deep venous thrombosis</text>
		</g>
		<g>
			<rect x="1506.7" y="864.7" class="st7" width="385.2" height="59.8"/>
			<text transform="matrix(1 0 0 1 1759.3645 888.866)" class="st1 st8 st16">Arteries</text>
		</g>
		<line class="st17" x1="1892" y1="841" x2="1352.3" y2="839.3"/>
	</g>
</g>
<g id="b-General">
	<path class="st15" d="M1290.9,319.9L1290.9,319.9h-89.4c0,0-37.7,73.6-37.7,121.7c0,49.9,0,74.5,0,74.5
		c0,106.7,41.7,221.9,41.7,251c0,0.4,0,0.8,0.1,1.2c-0.7,10.7-6.3,93.2-6.3,122c0,86.7,27.4,191.7,27.4,191.7h0.1
		c0,0-8.9,65.7-7.9,95c0.1,2.3,2.4,6,4.9,9.3c3.8,5,9.7,7.8,15.9,7.8h29.8c7,0,12.4-6.1,11.4-13.1l-13.1-99l14.9-315V516h8.2l0,0
		h8.2v251l14.9,314.8l-13.1,99c-0.9,6.9,4.5,13.1,11.4,13.1h29.7c6.2,0,12.1-2.8,15.9-7.8c2.5-3.3,4.9-7,4.9-9.3
		c1-29.2-7.9-95-7.9-95h0.1c0,0,27.4-105,27.4-191.7c0-28.8-5.6-111.3-6.3-122c0.1-0.4,0.1-0.8,0.1-1.2c0-29.1,41.7-144.2,41.7-251
		c0,0,0-24.5,0-74.5c0-48.1-37.7-121.7-37.7-121.7h-89.3L1290.9,319.9L1290.9,319.9z"/>
	<path class="st15" d="M1483.9,360.2c-3.2-29.6-9.6-51.5-12.1-73.1l-18.5-195.9l-0.6,0.1c-4.6-29.9-30.5-52.8-61.7-52.8h-10.8l0,0
		h-20.3c-18.8-2.1-33.5-18.1-33.5-37.5l-0.2,0.3V-15c8.6-9.3,14.9-21.9,19.1-36c0.4,0.3,0.9,0.5,1.4,0.6c4.4,0.6,9.3-9.5,11.1-22.5
		c1.8-13-0.4-24-4.7-24.6c-0.3,0-0.5,0-0.8,0c0.7-42.2-17.2-74.5-60-74.1c-0.4,0-0.7,0-1,0c-0.3,0-0.7,0-1,0
		c-42.8-0.4-60.7,31.9-60,74.1c-0.3,0-0.5,0-0.8,0c-4.4,0.6-6.5,11.6-4.7,24.6c1.8,13,6.7,23.1,11.1,22.5c0.5-0.1,1-0.3,1.4-0.6
		c4.2,14.1,10.4,26.7,19.1,36V1.2l-0.2-0.3c0,19.4-14.6,35.4-33.5,37.5h-20.9l0,0H1191c-33.7,0-61.1,26.7-62.4,60.1l-17.8,188.6
		c-2.5,21.5-8.9,43.4-12.1,73.1c-3.6,33.3-4.8,133.9-4.8,133.9v41.4c0,8.9,2.7,17.6,7.9,24.9l32.9,46.8c2.7,3.9,8,4.9,11.9,2.3
		c3.7-2.4,5-7.1,3.1-11.1l-20.4-42.3l2.8-15.3l14.6,28.8c0.7,1.3,2.2,2,3.7,1.6s2.5-1.9,2.3-3.4l-3.1-27.7
		c-0.8-7.2-3.3-14.1-7.4-20.1l-21.2-22.9l33.7-182.5l19.8-154.6v2.9c0,21.7,10.8,40.9,27.4,52.5v104.3h178.7V215.6
		c16.5-11.6,27.4-30.8,27.4-52.5v-2.9h0.6l19.8,154.6l33.7,182.5l-21.2,22.9c-4,6-6.6,12.9-7.4,20.1l-3.1,27.7
		c-0.2,1.6,0.8,3,2.3,3.4c1.4,0.4,3-0.3,3.7-1.6L1451,541l2.8,15.3l-20.4,42.3c-1.9,3.9-0.6,8.7,3.1,11.1l0,0
		c3.9,2.6,9.2,1.6,11.9-2.3l32.9-46.8c5.1-7.3,7.9-16,7.9-24.9v-41.4C1488.7,494.2,1487.5,393.5,1483.9,360.2z"/>
</g>
<g id="b-Pit">
	<path class="st15" d="M1286.4,152.8c1.2-2.2,5.3-9.1,6.9-10.2c1.5-1.1-1.7-6.6,0.6-12.4c3.5-8.4,6.7-9.6,7.2-11
		c0.4-1.4-3.6-7.4-3.3-6.8l-5.8-5.8l-10.3,10.4v46.1h-0.3c0.2,1.3,0.3,2.5,0.3,3.9c0,12.4-10,22.4-22.4,22.4c-2.7,0-5.3-0.5-7.7-1.3
		c-3.9,8.4-12.3,14.1-22.2,14.1c-13.5,0-24.4-10.9-24.4-24.4c0-2.3,0.3-4.5,0.9-6.6l0,0c13.1-51.8,52.8-79,53.6-79.5
		c2.3-1.9,5.3-3.1,8.6-3.1c5.6,0,10.5,3.5,12.5,8.4l3.9-3.9V57.4c-1.7-5.1-5.1-9.6-9.7-12.6c-3.9-2.5-8.4-3.9-13.1-3.9h-6.2
		c-7.9,0.5-12.9,3.1-16,7.1c-21.4,27.7-48.6,65-55.8,114.3c-0.2,1.2-0.2,2.6,0,4c0,0.4,0,0.8,0,1.2c0,30.1,24.4,54.6,54.6,54.6
		c24.3,0,44.9-15.9,51.9-37.8C1284.3,175.7,1280.5,164,1286.4,152.8z"/>
	<path class="st15" d="M1400.3,162.2c-7.2-49.3-34.4-86.6-55.8-114.3c-3.1-4-8.1-6.6-16-7.1h-6.3c-4.6,0-9.2,1.3-13.1,3.9l0,0
		c-4.6,3-8,7.5-9.7,12.6V93l3.9,3.9c2-4.9,6.9-8.4,12.5-8.4c3.3,0,6.3,1.2,8.6,3.1c0.8,0.6,40.6,27.7,53.6,79.5
		c0.6,2.1,0.9,4.3,0.9,6.6c0,13.5-10.9,24.4-24.4,24.4c-2.6,0-5.1-0.4-7.4-1.2c-6.4,7.6-15.9,5.4-23.2,2.3c-5.9-2.6-15-2.8-24.3-9.3
		c-0.9-0.6-1.9-1.4-2.8-2.3c8.9,18,27.5,30.3,48.9,30.3c30.1,0,54.6-24.4,54.6-54.6c0-0.4,0-0.8,0-1.2
		C1400.5,164.8,1400.5,163.4,1400.3,162.2z"/>
</g>
<path id="b-AparellRespiratori" class="st15" d="M1378.1,171.2c-13.1-51.8-52.8-79-53.6-79.5c-2.3-1.9-5.3-3.1-8.6-3.1
	c-5.6,0-10.5,3.5-12.5,8.4l-3.9-4V41.2h-14.9V93l-3.9,3.9c-2-4.9-6.9-8.4-12.5-8.4c-3.3,0-6.3,1.2-8.6,3.1
	c-0.8,0.6-40.6,27.7-53.6,79.5l0,0c-0.6,2.1-0.9,4.3-0.9,6.6c0,13.5,10.9,24.4,24.4,24.4c9.8,0,18.3-5.8,22.2-14.1
	c2.4,0.9,5,1.3,7.7,1.3c12.4,0,22.4-10,22.4-22.4c0-1.3-0.1-2.6-0.3-3.9h0.3v-46l10.3-10.3l5.8,5.8c-0.4-0.6-0.6-1-0.6-1
	s4.2-2.7,4.2-2.3c0,0.4,2.2,5.5,4.3,7.3c0.8,0.7,1.2,0,1.6-0.1c1.2-0.5-0.7-9.8-0.7-9.8l4.4-0.5c0,0,0.2,8.6,0.8,9.6s1.2,0,1.5-0.2
	c0.3-0.2,2.2-8.3,2.2-8.3c1.3-0.4,4.5,1.4,4.5,1.4c-0.5,0.7-2.1,8.8-2.1,8.8c6.9,5,5.9,14.6,5.9,14.6c2.5-4,3.5-7.7,3.5-7.7
	c1.7-0.5,4.4,1.7,4.4,1.7c-0.2,3.2-4.3,7.6-2.3,7.3c1.9-0.3,5.8,0.9,5.8,0.9l-1,4c0,0-3.2-1-6,0.3c-2.8,1.3-3.4,4.3-2,5
	c2.6,1.4,8.3,4.9,13.8,12.6c1.7,2.4,5.2,8.9,8.1,17.8c5.1,15.6,1,24.1,1,24.1c-0.6,1.1-1.3,2.1-2.1,3c2.3,0.8,4.9,1.2,7.5,1.2
	c13.5,0,24.4-10.9,24.4-24.4C1379,175.5,1378.7,173.3,1378.1,171.2z"/>
<path id="b-Cor" class="st15" d="M1296.8,112.4c0,0,4.3,6.4,3.8,7.8c-0.4,1.4-3.7,2.6-7.2,11c-2.3,5.8,0.9,11.3-0.6,12.4
	c-1.6,1.1-5.7,7.9-6.9,10.2c-8.9,16.7,4,34.6,13.3,41.2c9.3,6.5,18.4,6.7,24.3,9.3c8.2,3.5,19,5.8,25.3-5.3c0,0,4.1-8.5-1-24.1
	c-2.9-8.9-6.4-15.4-8.1-17.8c-5.5-7.7-11.2-11.2-13.8-12.6c-1.4-0.7-0.8-3.8,2-5c2.8-1.3,6-0.3,6-0.3l1-4c0,0-3.9-1.3-5.8-0.9
	c-1.9,0.3,2.1-4.2,2.3-7.3c0,0-2.7-2.3-4.4-1.7c0,0-1,3.7-3.5,7.7c0,0,1-9.6-5.9-14.6c0,0,1.6-8.1,2.1-8.8c0,0-3.2-1.7-4.5-1.4
	c0,0-1.9,8.1-2.2,8.3c-0.3,0.2-0.9,1.2-1.5,0.2s-0.8-9.6-0.8-9.6l-4.4,0.5c0,0,1.9,9.3,0.7,9.8c-0.4,0.2-0.8,0.8-1.6,0.1
	c-2.1-1.8-4.3-6.9-4.3-7.3C1301,109.7,1296.8,112.4,1296.8,112.4z"/>
<path id="b-AparellReproductor" class="st15" d="M1291.6,487.9L1291.6,487.9c-30.3,0-54.9-24.6-54.9-54.9v-61.7
	c0-30.3,24.6-54.9,54.9-54.9l0,0c30.3,0,54.9,24.6,54.9,54.9V433C1346.5,463.4,1321.9,487.9,1291.6,487.9z"/>
<path id="b-Cap" class="st15" d="M1331.2-131.3c-0.2,0-0.4,0-0.6,0c0.4-1.1,0.6-2.2,0.6-3.4c0-6.1-4.9-11-11-11
	c-1.2,0-2.4,0.2-3.5,0.6c-1.6-7.4-8.1-12.9-15.9-12.9c-5.3,0-10,2.6-13,6.5c-2.6-2.2-5.9-3.6-9.6-3.6c-7.9,0-14.3,6.2-14.7,14
	c-1.7-0.8-3.6-1.2-5.6-1.2c-7.5,0-13.6,6.1-13.6,13.6c0,0.6,0.1,1.2,0.1,1.8c-0.6,1.1-0.9,2.4-0.9,3.7c0,4.5,3.6,8.1,8.1,8.1h79.6
	c4.5,0,8.1-3.6,8.1-8.1C1339.3-127.7,1335.7-131.3,1331.2-131.3z M1311-128.8h-0.5c0.1-0.1,0.2-0.1,0.3-0.2
	C1310.9-128.9,1310.9-128.8,1311-128.8z"/>
<g id="b-Arteries">
	<path class="st18" d="M1459.6,533.3c0,0,20.9-17.7,20.3-35.7c-1.6-43.9,1.6-76-1.6-100.3c-8-60.9-24.9-73-27.9-100.5
		c-2.6-23.1,5-164.8-13-199.7c-19.1-36.9-65.2-41.5-97.4-33c-22.8,6-28.3,24.1-30.4,35.6c-1.6,8.8-1.8,16.5,2.7,35.8"/>
	<path class="st18" d="M1390.8,63c23.7,6.2,25.7,29.3,27.5,56.9c1.8,27.6,33.3,135.3,30.9,171.2s-1.1,91.7,6.5,115.8
		s21.6,54.8,23.8,80.9"/>
	<path class="st18" d="M1124.5,533.3c0,0-20.9-17.7-20.3-35.7c1.6-43.9-1.6-76,1.6-100.3c8-60.9,24.9-73,27.9-100.5
		c2.6-23.1-5-164.8,13-199.7c19.1-36.9,65.2-41.5,97.4-33c22.8,6,47.4,21.8,51.6,35.6c2.6,8.6,8.6,16.5,4.2,35.8"/>
	<path class="st18" d="M1193.3,63c-23.7,6.2-25.7,29.3-27.5,56.9c-1.8,27.6-33.3,135.3-30.9,171.2s1.1,91.7-6.5,115.8
		s-21.6,54.8-23.8,80.9"/>
	<path class="st18" d="M1339.9,64.2c0,0-23.1-47.7-24.2-62.9c-1.1-15.2,13.1-41.3,23.2-68.4c5.7-15.3,5-30.2,3.3-40.3
		c-1.3-7.6-6.4-14-13.5-16.9l-4.6-1.9"/>
	<line class="st18" x1="1315.8" y1="-2.1" x2="1321.6" y2="73.5"/>
	<path class="st18" d="M1242.7,63.3c0,0,23.1-46.8,24.2-62c1.1-15.2-13.1-41.3-23.2-68.4c-6.5-17.4-4.7-34.3-2.5-44.1
		c1.2-5.4,4.3-10.1,8.7-13.3l4.8-3.5"/>
	<line class="st18" x1="1266.9" y1="-2.1" x2="1261" y2="70.1"/>
	<path class="st18" d="M1295.6,183.8c0,0-3.9,223.5,0.4,234.6c4.3,11.1,78.3,67.9,82.1,115c8.8,108-27.9,228.6-29.6,234.1
		c-6.6,21.4,19,145.2,13.3,195.2c-5.7,50-26.4,117.2-29.7,141.5c-3.3,24.3-5.6,54.3-5.6,54.3"/>
	<path class="st18" d="M1324.7,449c13,13.8,18.6,46.7,16.4,84.3c-2.1,37.6,8.4,197.7,2.4,249.2s-18.1,154.4-14.2,193
		c3.9,38.6,7.1,90.2,2.9,128.7"/>
	<path class="st18" d="M1294.5,414.9c-4.3,11.1-86.7,71.3-90.5,118.4c-8.8,108,27.9,228.6,29.6,234.1c6.6,21.4-19,145.2-13.3,195.2
		c5.7,50,26.4,117.2,29.7,141.5c3.2,24.3,5.6,54.3,5.6,54.3"/>
	<path class="st18" d="M1257.9,451.1c-13,13.8-19,44.6-16.9,82.2c2.1,37.6-8.4,197.7-2.4,249.2s18.1,154.4,14.2,193
		c-3.9,38.6-7.1,90.2-2.9,128.7"/>
</g>
</svg>
