<?xml version="1.0" encoding="utf-8"?>
<!-- Generator: Adobe Illustrator 19.0.0, SVG Export Plug-In . SVG Version: 6.00 Build 0)  -->
<svg version="1.1" id="Capa_1" xmlns="http://www.w3.org/2000/svg" xmlns:xlink="http://www.w3.org/1999/xlink" x="0px" y="0px"
	 viewBox="570 -225.3 1440 1451.3" style="enable-background:new 570 -225.3 1440 1451.3;" xml:space="preserve">
<style type="text/css">
	.st0{fill:#F4F4F4;}
	.st1{fill:#181716;}
	.st2{fill:#E3D5E9;}
	.st3{fill:#F1EAF5;}
	.st4{fill:#F8D2D0;}
	.st5{fill:#D5BFDD;}
	.st6{fill:none;stroke:#BB94C2;stroke-width:6.0014;stroke-miterlimit:10;}
	.st7{fill:#BB94C2;}
	.st8{fill:none;}
	.st9{font-family:'PlatformWeb-Regular';}
	.st10{font-size:24.0054px;}
	.st11{font-size:33.0075px;}
	.st12{fill:none;stroke:#181716;stroke-width:1.5003;stroke-miterlimit:10;}
</style>
<g id="bg">
	<rect x="570" y="-226" class="st0" width="1440" height="1452.7"/>
	<rect x="570" y="1019.3" class="st1" width="1440" height="207.3"/>
</g>
<g id="cos">
	<g>
		<g>
			<path class="st2" d="M1291.8-168.6c-0.4,0-0.7,0-1,0c-0.3,0-0.7,0-1,0c-44.9-0.4-62.4,35.1-59.8,80.4
				c2.5,44.3,19.6,91.2,60.6,92.1l0,0c0.1,0,0.2,0,0.3,0c0.1,0,0.2,0,0.3,0l0,0c41-0.9,58.1-47.8,60.6-92.1
				C1354.2-133.4,1336.7-169,1291.8-168.6z"/>
			<g>
				
					<ellipse transform="matrix(-0.1335 0.991 -0.991 -0.1335 1459.3925 -1418.0596)" class="st2" cx="1349.6" cy="-71" rx="23.8" ry="8"/>
				
					<ellipse transform="matrix(-0.991 0.1335 -0.1335 -0.991 2443.6216 -305.5102)" class="st2" cx="1232.1" cy="-70.8" rx="8" ry="23.8"/>
			</g>
			<rect x="1255.7" y="-28.3" class="st2" width="70.1" height="73.1"/>
			<g>
				<path class="st2" d="M1303.6,77.8L1255.5,4l0,0c0,20.9-16.9,37.8-37.8,37.8l0,0L1303.6,77.8z"/>
				<path class="st2" d="M1277.9,77.8L1326,4l0,0c0,20.9,16.9,37.8,37.8,37.8l0,0L1277.9,77.8z"/>
			</g>
		</g>
		<g>
			<rect x="1201.1" y="41.5" class="st2" width="178.7" height="281.4"/>
			<path class="st2" d="M1173.7,79.9h233.4v86.2c0,35.4-28.7,64-64,64h-105.3c-35.4,0-64-28.7-64-64L1173.7,79.9L1173.7,79.9z"/>
			<path class="st2" d="M1127.9,163.2H1453v-59.3c0-34.5-28-62.4-62.4-62.4h-200.3c-34.5,0-62.4,28-62.4,62.4L1127.9,163.2
				L1127.9,163.2z"/>
			<path class="st2" d="M1379.8,322.9h-89.4V519h127.1c0,0,0-24.5,0-74.5C1417.5,396.5,1379.8,322.9,1379.8,322.9z"/>
			<path class="st2" d="M1201.1,322.9h89.4V519h-127.1c0,0,0-24.5,0-74.5C1163.4,396.5,1201.1,322.9,1201.1,322.9z"/>
			<g>
				<path class="st2" d="M1375.8,770c0,19.3-77.1,0-77.1,0V519c0,0,118.8-29.7,118.8,0C1417.5,625.8,1375.8,740.9,1375.8,770z"/>
				<path class="st2" d="M1354.6,1084.9h-41L1298.7,770h76.9c0,0,6.4,92.3,6.4,123.2C1382,979.9,1354.6,1084.9,1354.6,1084.9z"/>
				<path class="st2" d="M1362.4,1179.8c-0.1,2.3-2.4,6-4.9,9.3c-3.8,5-9.7,7.8-15.9,7.8h-29.7c-7,0-12.4-6.1-11.4-13.1l13.1-99h41
					C1354.5,1084.9,1363.5,1150.6,1362.4,1179.8z"/>
			</g>
			<g>
				<path class="st2" d="M1205.1,770c0,19.3,77.1,0,77.1,0V519c0,0-118.8-29.7-118.8,0C1163.4,625.8,1205.1,740.9,1205.1,770z"/>
				<path class="st2" d="M1226.3,1084.9h41l14.9-314.9h-76.9c0,0-6.4,92.3-6.4,123.2C1198.9,979.9,1226.3,1084.9,1226.3,1084.9z"/>
				<path class="st2" d="M1218.4,1179.8c0.1,2.3,2.4,6,4.9,9.3c3.8,5,9.7,7.8,15.9,7.8h29.8c7,0,12.4-6.1,11.4-13.1l-13.1-99h-41
					C1226.3,1084.9,1217.4,1150.6,1218.4,1179.8z"/>
			</g>
			<polygon class="st2" points="1473.4,312.5 1427.5,317.8 1399.7,100.4 1452.8,94.3 			"/>
			<path class="st2" d="M1488.2,497.1l-27,3.1l-33.7-182.5c0,0,42.4-39.8,43.8-27.7c2.5,21.5,8.9,43.4,12.1,73.1
				C1487,396.5,1488.2,497.1,1488.2,497.1z"/>
			<path class="st2" d="M1488.2,497.1v41.4c0,8.9-2.7,17.6-7.9,24.9l-32.9,46.8c-2.7,3.9-8,4.9-11.9,2.3l0,0
				c-3.7-2.4-5-7.1-3.1-11.1l20.4-42.3l-2.8-15.3l-14.6,28.8c-0.7,1.3-2.2,2-3.7,1.6l0,0c-1.5-0.4-2.5-1.9-2.3-3.4l3.1-27.7
				c0.8-7.2,3.3-14.1,7.4-20.1l21.2-22.9L1488.2,497.1z"/>
			<g>
				<polygon class="st2" points="1108,312.5 1153.9,317.8 1181.8,100.4 1128.6,94.3 				"/>
				<path class="st2" d="M1093.2,497.1l27,3.1l33.7-182.5c0,0-42.4-39.8-43.8-27.7c-2.5,21.5-8.9,43.4-12.1,73.1
					C1094.4,396.5,1093.2,497.1,1093.2,497.1z"/>
				<path class="st2" d="M1093.2,497.1v41.4c0,8.9,2.7,17.6,7.9,24.9l32.9,46.8c2.7,3.9,8,4.9,11.9,2.3l0,0c3.7-2.4,5-7.1,3.1-11.1
					l-20.4-42.3l2.8-15.3l14.6,28.8c0.7,1.3,2.2,2,3.7,1.6l0,0c1.5-0.4,2.5-1.9,2.3-3.4l-3.1-27.7c-0.8-7.2-3.3-14.1-7.4-20.1
					l-21.2-22.9L1093.2,497.1z"/>
			</g>
		</g>
	</g>
	<g>
		<g>
			<path class="st3" d="M1308.3,48.1L1308.3,48.1c3.9-2.5,8.4-3.9,13.1-3.9h6.3c7.9,0.5,12.9,3.1,16,7.1
				c21.4,27.7,48.6,65,55.8,114.3c1.7,11.9-15.2,35.7-19.8,39.1c-55.8,41.5-87.2-27.9-87.2-27.9l5-109.7
				C1297.7,59.4,1301.8,52.4,1308.3,48.1z"/>
			<circle class="st3" cx="1344.8" cy="170.9" r="54.6"/>
		</g>
		<g>
			<path class="st3" d="M1274,48.1L1274,48.1c-3.9-2.5-8.4-3.9-13.1-3.9h-6.3c-7.9,0.5-12.9,3.1-16,7.1
				c-21.4,27.7-48.6,65-55.8,114.3c-1.7,11.9,15.2,35.7,19.8,39.1c55.8,41.5,87.2-27.9,87.2-27.9l17.6-99l-22.5-10.6
				C1284.5,59.4,1280.5,52.4,1274,48.1z"/>
			<circle class="st3" cx="1237.4" cy="170.9" r="54.6"/>
		</g>
	</g>
	<path class="st4" d="M1290.7,490.5L1290.7,490.5c-30.3,0-54.9-24.6-54.9-54.9v-61.7c0-30.3,24.6-54.9,54.9-54.9l0,0
		c30.3,0,54.9,24.6,54.9,54.9v61.7C1345.6,466,1321,490.5,1290.7,490.5z"/>
	<g>
		<g>
			<g>
				<circle class="st5" cx="1258.4" cy="169.5" r="22.4"/>
				<circle class="st5" cx="1228.5" cy="180.3" r="24.4"/>
				<circle class="st5" cx="1267.2" cy="104.6" r="13.5"/>
				<rect x="1250.9" y="104.6" class="st5" width="29.9" height="61"/>
				<path class="st5" d="M1205,173.7c13.2-52.4,53.6-79.5,53.6-79.5l5.4,70.4C1264.1,164.5,1201.4,188.2,1205,173.7z"/>
			</g>
			<g>
				<circle class="st5" cx="1323.9" cy="169.5" r="22.4"/>
				<circle class="st5" cx="1353.7" cy="180.3" r="24.4"/>
				<circle class="st5" cx="1315" cy="104.6" r="13.5"/>
				<rect x="1301.4" y="104.7" class="st5" width="29.9" height="61"/>
				<path class="st5" d="M1377.2,173.7c-13.2-52.4-53.6-79.5-53.6-79.5l-5.4,70.4C1318.1,164.5,1380.9,188.2,1377.2,173.7z"/>
			</g>
		</g>
		<rect x="1283.7" y="43.8" class="st5" width="14.9" height="56.1"/>
		<g>
			
				<rect x="1301.4" y="88.3" transform="matrix(0.7071 -0.7071 0.7071 0.7071 301.0974 959.5294)" class="st5" width="14.9" height="56.1"/>
			
				<rect x="1266.1" y="88.2" transform="matrix(-0.7071 -0.7071 0.7071 -0.7071 2091.9167 1099.0197)" class="st5" width="14.9" height="56.1"/>
		</g>
	</g>
	<g>
		<path class="st6" d="M1458.8,535.9c0,0,20.9-17.7,20.3-35.7c-1.6-43.9,1.6-76-1.6-100.3c-8-60.9-24.9-73-27.9-100.5
			c-2.6-23.1,5-164.8-13-199.7c-19.1-36.9-65.2-41.5-97.4-33c-22.8,6-28.3,24.1-30.4,35.6c-1.6,8.8-1.8,16.5,2.7,35.8"/>
		<path class="st6" d="M1390,65.7c23.7,6.2,25.7,29.3,27.5,56.9s33.3,135.3,30.9,171.2c-2.4,35.9-1.1,91.7,6.5,115.8
			s21.6,54.8,23.8,80.9"/>
		<path class="st6" d="M1123.7,535.9c0,0-20.9-17.7-20.3-35.7c1.6-43.9-1.6-76,1.6-100.3c8-60.9,24.9-73,27.9-100.5
			c2.6-23.1-5-164.8,13-199.7c19.1-36.9,65.2-41.5,97.4-33c22.8,6,47.4,21.8,51.6,35.6c2.6,8.6,8.6,16.5,4.2,35.8"/>
		<path class="st6" d="M1192.5,65.7c-23.7,6.2-25.7,29.3-27.5,56.9s-33.3,135.3-30.9,171.2c2.4,35.9,1.1,91.7-6.5,115.8
			s-21.6,54.8-23.8,80.9"/>
		<path class="st6" d="M1339.2,66.8c0,0-23.1-47.7-24.2-62.9c-1.1-15.2,13.1-41.3,23.2-68.4c5.7-15.3,5-30.2,3.3-40.3
			c-1.3-7.6-6.4-14-13.5-16.9l-4.6-1.9"/>
		<line class="st6" x1="1315" y1="0.5" x2="1320.8" y2="76.1"/>
		<path class="st6" d="M1241.9,65.9c0,0,23.1-46.8,24.2-62c1.1-15.2-13.1-41.3-23.2-68.4c-6.5-17.4-4.7-34.3-2.5-44.1
			c1.2-5.4,4.3-10.1,8.7-13.3l4.8-3.5"/>
		<line class="st6" x1="1266.1" y1="0.5" x2="1260.3" y2="72.7"/>
		<path class="st6" d="M1294.8,186.4c0,0-3.9,223.5,0.4,234.6c4.3,11.1,78.3,67.9,82.1,115c8.8,108-27.9,228.6-29.6,234.1
			c-6.6,21.4,19,145.2,13.3,195.2s-26.4,117.2-29.7,141.5c-3.2,24.3-5.6,54.3-5.6,54.3"/>
		<path class="st6" d="M1323.9,451.6c13,13.8,18.6,46.7,16.4,84.3c-2.1,37.6,8.4,197.7,2.4,249.2s-18.1,154.4-14.2,193
			c3.9,38.6,7.1,90.2,2.9,128.7"/>
		<path class="st6" d="M1293.7,417.6c-4.3,11.1-86.7,71.3-90.5,118.4c-8.8,108,27.9,228.6,29.6,234.1c6.6,21.4-19,145.2-13.3,195.2
			s26.4,117.2,29.7,141.5c3.2,24.3,5.6,54.3,5.6,54.3"/>
		<path class="st6" d="M1257.1,453.7c-13,13.8-19,44.6-16.9,82.2s-8.4,197.7-2.4,249.2s18.1,154.4,14.2,193
			c-3.9,38.6-7.1,90.2-2.9,128.7"/>
	</g>
	<path class="st7" d="M1296.2,115.1c0,0,4.3,6.4,3.8,7.8c-0.4,1.4-3.7,2.6-7.2,11c-2.3,5.8,0.9,11.3-0.6,12.4
		c-1.6,1.1-5.7,7.9-6.9,10.2c-8.9,16.7,4,34.6,13.3,41.2c9.3,6.5,18.4,6.7,24.3,9.3c8.2,3.5,19,5.8,25.3-5.3c0,0,4.1-8.5-1-24.1
		c-2.9-8.9-6.4-15.4-8.1-17.8c-5.5-7.7-11.2-11.2-13.8-12.6c-1.4-0.7-0.8-3.8,2-5c2.8-1.3,6-0.3,6-0.3l1-4c0,0-3.9-1.3-5.8-0.9
		c-1.9,0.3,2.1-4.2,2.3-7.3c0,0-2.7-2.3-4.4-1.7c0,0-1,3.7-3.5,7.7c0,0,1-9.6-5.9-14.6c0,0,1.6-8.1,2.1-8.8c0,0-3.2-1.7-4.5-1.4
		c0,0-1.9,8.1-2.2,8.3c-0.3,0.2-0.9,1.2-1.5,0.2s-0.8-9.6-0.8-9.6l-4.4,0.5c0,0,1.9,9.3,0.7,9.8c-0.4,0.2-0.8,0.8-1.6,0.1
		c-2.1-1.8-4.3-6.9-4.3-7.3C1300.4,112.4,1296.2,115.1,1296.2,115.1z"/>
	<g>
		<circle class="st7" cx="1257.4" cy="-126.1" r="13.6"/>
		<circle class="st7" cx="1277.7" cy="-137.7" r="14.7"/>
		<circle class="st7" cx="1300.3" cy="-139.1" r="16.3"/>
		<circle class="st7" cx="1251.2" cy="-120.6" r="8.1"/>
		<circle class="st7" cx="1330.8" cy="-120.6" r="8.1"/>
		<circle class="st7" cx="1319.7" cy="-132" r="11"/>
		<rect x="1251.2" y="-126.1" class="st7" width="79.6" height="13.6"/>
		<rect x="1276.7" y="-135.1" class="st7" width="14.3" height="17.6"/>
	</g>
	<g>
		<g>
			<rect x="688.3" y="-54.7" class="st8" width="380.7" height="354.3"/>
			<text transform="matrix(1 0 0 1 688.2859 -37.1943)" class="st1 st9 st10">Demència</text>
			<text transform="matrix(1 0 0 1 688.2859 -1.1943)" class="st1 st9 st10">Ictus</text>
			<text transform="matrix(1 0 0 1 688.2859 34.8057)" class="st1 st9 st10">Problemes de salut mental</text>
			<text transform="matrix(1 0 0 1 688.2859 70.8057)" class="st1 st9 st10">Malalties neurodegeneratives</text>
			<text transform="matrix(1 0 0 1 688.2859 106.8057)" class="st1 st9 st10">Malalties cerebrovasculars</text>
			<text transform="matrix(1 0 0 1 688.2859 142.8057)" class="st1 st9 st10">Deteriorament cognitiu</text>
		</g>
		<g>
			<rect x="688.3" y="-112.8" class="st8" width="283.7" height="58"/>
			<text transform="matrix(1 0 0 1 688.2854 -88.6791)" class="st1 st9 st11">CAP</text>
		</g>
		<line class="st12" x1="1300.7" y1="-135.2" x2="688.3" y2="-136.9"/>
		<g>
			<rect x="688.3" y="598.7" class="st8" width="538.6" height="474.6"/>
			<text transform="matrix(1 0 0 1 688.2859 616.2587)" class="st1 st9 st10">Obesitat</text>
			<text transform="matrix(1 0 0 1 688.2859 652.2587)" class="st1 st9 st10">Diabetis </text>
			<text transform="matrix(1 0 0 1 688.2859 688.2587)" class="st1 st9 st10">Síndrome metabòlica</text>
			<text transform="matrix(1 0 0 1 688.2859 724.2587)" class="st1 st9 st10">Càncer de còlon</text>
			<text transform="matrix(1 0 0 1 688.2859 760.2587)" class="st1 st9 st10">Augment de la mortalitat</text>
		</g>
		<g>
			<rect x="688.3" y="540.6" class="st8" width="283.7" height="57.7"/>
			<text transform="matrix(1 0 0 1 688.2854 564.7742)" class="st1 st9 st11">GENERAL / ALTRES</text>
		</g>
		<line class="st12" x1="1184.5" y1="518.3" x2="688.3" y2="516.6"/>
		<circle class="st7" cx="676.9" cy="645.6" r="5.5"/>
		<circle class="st7" cx="676.9" cy="718.1" r="5.5"/>
		<circle class="st7" cx="676.9" cy="681.9" r="5.5"/>
		<g>
			<circle class="st7" cx="676.9" cy="753" r="5.5"/>
		</g>
		<g>
			<circle class="st7" cx="676.9" cy="608.3" r="5.5"/>
		</g>
		<circle class="st7" cx="676.9" cy="98.9" r="5.5"/>
		<circle class="st7" cx="676.9" cy="135.1" r="5.5"/>
		<circle class="st7" cx="676.9" cy="-8.5" r="5.5"/>
		<circle class="st7" cx="676.9" cy="-45.2" r="5.5"/>
		<circle class="st7" cx="676.9" cy="63.7" r="5.5"/>
		<circle class="st7" cx="676.9" cy="28.2" r="5.5"/>
		<circle class="st7" cx="1904.5" cy="-42.6" r="5.5"/>
		<circle class="st7" cx="1904.5" cy="937.1" r="5.5"/>
		<circle class="st7" cx="676.9" cy="431.2" r="5.5"/>
		<g>
			<rect x="1534.1" y="-53.9" class="st8" width="357.8" height="214.7"/>
			<text transform="matrix(1 0 0 1 1648.0702 -36.3687)" class="st1 st9 st10">Malalties respiratòries</text>
		</g>
		<g>
			<rect x="1506.7" y="-111.9" class="st8" width="385.2" height="138.5"/>
			<text transform="matrix(1 0 0 1 1592.1565 -87.7419)" class="st1 st9 st11">APARELL RESPIRATORI</text>
		</g>
		<polyline class="st12" points="1892,-134.2 1529.1,-135.7 1349.5,136.3 		"/>
		<g>
			<rect x="688.3" y="421.4" class="st8" width="357.8" height="48.9"/>
			<text transform="matrix(1 0 0 1 688.2852 438.911)" class="st1 st9 st10">Càncer de pit </text>
		</g>
		<g>
			<rect x="688.3" y="362" class="st8" width="385.2" height="138.5"/>
			<text transform="matrix(1 0 0 1 688.2842 386.0828)" class="st1 st9 st11">PIT</text>
		</g>
		<polyline class="st12" points="688.3,339.6 1051.1,338.1 1201.1,147.1 		"/>
		<circle class="st7" cx="1904.5" cy="303.2" r="5.5"/>
		<circle class="st7" cx="1904.2" cy="338.2" r="5.5"/>
		<g>
			<rect x="1535" y="291.7" class="st8" width="357.8" height="151.9"/>
			<text transform="matrix(1 0 0 1 1699.1021 309.2103)" class="st1 st9 st10">Infart de miocardi</text>
			<text transform="matrix(1 0 0 1 1623.3025 345.2103)" class="st1 st9 st10">Malalties cardiovasculars</text>
		</g>
		<g>
			<rect x="1507.6" y="232.9" class="st8" width="385.2" height="66.7"/>
			<text transform="matrix(1 0 0 1 1818.0396 257.0313)" class="st1 st9 st11">COR</text>
		</g>
		<polyline class="st12" points="1892.8,210.5 1530.1,209.1 1329.3,167.7 		"/>
		<g>
			<rect x="1534.1" y="925.8" class="st8" width="357.8" height="133.5"/>
			<text transform="matrix(1 0 0 1 1751.8936 943.328)" class="st1 st9 st10">Hipertensió</text>
		</g>
		<g>
			<rect x="1506.7" y="867.4" class="st8" width="385.2" height="59.8"/>
			<text transform="matrix(1 0 0 1 1759.3645 891.4879)" class="st1 st9 st11">ARTÈRIES</text>
		</g>
		<line class="st12" x1="1892" y1="843.6" x2="1352.3" y2="841.9"/>
	</g>
</g>
</svg>
