<?xml version="1.0" encoding="utf-8"?>
<!-- Generator: Adobe Illustrator 19.0.0, SVG Export Plug-In . SVG Version: 6.00 Build 0)  -->
<svg version="1.1" id="Capa_1" xmlns="http://www.w3.org/2000/svg" xmlns:xlink="http://www.w3.org/1999/xlink" x="0px" y="0px"
	 viewBox="570 -225.3 1440 1451.3" style="enable-background:new 570 -225.3 1440 1451.3;" xml:space="preserve">
<style type="text/css">
	.st0{fill:#F4F4F4;}
	.st1{fill:#181716;}
	.st2{fill:#C3E4F9;}
	.st3{fill:#FBE2E0;}
	.st4{fill:#75C6F0;}
	.st5{fill:none;stroke:#34B7EB;stroke-width:6.0014;stroke-miterlimit:10;}
	.st6{fill:#34B7EB;}
	.st7{fill:none;}
	.st8{font-family:'PlatformWeb-Regular';}
	.st9{font-size:24.0054px;}
	.st10{font-size:33.0075px;}
	.st11{fill:none;stroke:#181716;stroke-width:1.5003;stroke-miterlimit:10;}
</style>
<g id="bg">
	<rect x="570" y="-224.5" class="st0" width="1440" height="1452.7"/>
	<rect x="570" y="1020.8" class="st1" width="1440" height="207.3"/>
</g>
<g id="Cos">
	<g>
		<g>
			<path class="st2" d="M1292-167.7c-0.4,0-0.7,0-1,0s-0.7,0-1,0c-44.9-0.4-62.4,35.1-59.8,80.4c2.5,44.3,19.6,91.2,60.6,92.1l0,0
				c0.1,0,0.2,0,0.3,0s0.2,0,0.3,0l0,0c41-0.9,58.1-47.8,60.6-92.1C1354.4-132.6,1336.9-168.1,1292-167.7z"/>
			<g>
				
					<ellipse transform="matrix(-0.1335 0.991 -0.991 -0.1335 1460.4441 -1416.9553)" class="st2" cx="1349.7" cy="-70" rx="23.8" ry="8"/>
				
					<ellipse transform="matrix(-0.991 0.1335 -0.1335 -0.991 2444.1174 -303.86)" class="st2" cx="1232.2" cy="-70" rx="8" ry="23.8"/>
			</g>
			<rect x="1255.8" y="-27.5" class="st2" width="70.1" height="73.1"/>
			<g>
				<path class="st2" d="M1303.8,78.6l-48.1-73.8l0,0c0,20.9-16.9,37.8-37.8,37.8l0,0L1303.8,78.6z"/>
				<path class="st2" d="M1278.1,78.6l48.1-73.8l0,0c0,20.9,16.9,37.8,37.8,37.8l0,0L1278.1,78.6z"/>
			</g>
		</g>
		<g>
			<rect x="1201.3" y="42.3" class="st2" width="178.7" height="281.4"/>
			<path class="st2" d="M1173.9,80.8h233.4V167c0,35.4-28.7,64-64,64H1238c-35.4,0-64-28.7-64-64L1173.9,80.8L1173.9,80.8z"/>
			<path class="st2" d="M1128.1,164.1h325.1v-59.3c0-34.5-28-62.4-62.4-62.4h-200.3c-34.5,0-62.4,28-62.4,62.4V164.1z"/>
			<path class="st2" d="M1380,323.7h-89.4v196.1h127.1c0,0,0-24.5,0-74.5C1417.7,397.4,1380,323.7,1380,323.7z"/>
			<path class="st2" d="M1201.3,323.7h89.4v196.1h-127.1c0,0,0-24.5,0-74.5C1163.6,397.4,1201.3,323.7,1201.3,323.7z"/>
			<g>
				<path class="st2" d="M1376,770.9c0,19.3-77.1,0-77.1,0v-251c0,0,118.8-29.7,118.8,0C1417.7,626.6,1376,741.8,1376,770.9z"/>
				<path class="st2" d="M1354.8,1085.8h-41L1298.9,771h76.9c0,0,6.4,92.3,6.4,123.2C1382.1,980.8,1354.8,1085.8,1354.8,1085.8z"/>
				<path class="st2" d="M1362.6,1180.8c-0.1,2.3-2.4,6-4.9,9.3c-3.8,5-9.7,7.8-15.9,7.8H1312c-7,0-12.4-6.1-11.4-13.1l13.1-99h41
					C1354.7,1085.8,1363.7,1151.5,1362.6,1180.8z"/>
			</g>
			<g>
				<path class="st2" d="M1205.3,770.9c0,19.3,77.1,0,77.1,0v-251c0,0-118.8-29.7-118.8,0C1163.6,626.6,1205.3,741.8,1205.3,770.9z"
					/>
				<path class="st2" d="M1226.4,1085.8h41l14.9-314.8h-76.9c0,0-6.4,92.3-6.4,123.2C1199.1,980.8,1226.4,1085.8,1226.4,1085.8z"/>
				<path class="st2" d="M1218.6,1180.8c0.1,2.3,2.4,6,4.9,9.3c3.8,5,9.7,7.8,15.9,7.8h29.7c7,0,12.4-6.1,11.4-13.1l-13.1-99h-41
					C1226.5,1085.8,1217.6,1151.5,1218.6,1180.8z"/>
			</g>
			<polygon class="st2" points="1473.6,313.3 1427.7,318.7 1399.9,101.3 1453,95.1 			"/>
			<path class="st2" d="M1488.4,498l-27,3.1l-33.7-182.5c0,0,42.4-39.8,43.8-27.7c2.5,21.5,8.9,43.4,12.1,73.1
				C1487.2,397.4,1488.4,498,1488.4,498z"/>
			<path class="st2" d="M1488.4,498v41.4c0,8.9-2.7,17.6-7.9,24.9l-32.9,46.8c-2.7,3.9-8,4.9-11.9,2.3l0,0c-3.7-2.4-5-7.1-3.1-11.1
				l20.4-42.3l-2.8-15.3l-14.6,28.8c-0.7,1.3-2.2,2-3.7,1.6l0,0c-1.5-0.4-2.5-1.9-2.3-3.4l3.1-27.7c0.8-7.2,3.3-14.1,7.4-20.1
				l21.2-22.9L1488.4,498z"/>
			<g>
				<polygon class="st2" points="1108.2,313.3 1154.1,318.7 1182,101.3 1128.8,95.1 				"/>
				<path class="st2" d="M1093.4,498l27,3.1l33.7-182.5c0,0-42.4-39.8-43.8-27.7c-2.5,21.5-8.9,43.4-12.1,73.1
					C1094.6,397.4,1093.4,498,1093.4,498z"/>
				<path class="st2" d="M1093.4,498v41.4c0,8.9,2.7,17.6,7.9,24.9l32.9,46.8c2.7,3.9,8,4.9,11.9,2.3l0,0c3.7-2.4,5-7.1,3.1-11.1
					l-20.4-42.3l2.8-15.3l14.6,28.8c0.7,1.3,2.2,2,3.7,1.6l0,0c1.5-0.4,2.5-1.9,2.3-3.4l-3.1-27.7c-0.8-7.2-3.3-14.1-7.4-20.1
					l-21.2-22.9L1093.4,498z"/>
			</g>
		</g>
	</g>
	<g>
		<g>
			<path class="st3" d="M1308.4,49L1308.4,49c3.9-2.5,8.4-3.9,13.1-3.9h6.3c7.9,0.5,12.9,3.1,16,7.1c21.4,27.7,48.6,65,55.8,114.3
				c1.7,11.9-15.2,35.7-19.8,39.1c-55.8,41.5-87.2-27.9-87.2-27.9l5-109.7C1297.9,60.3,1302,53.2,1308.4,49z"/>
			<circle class="st3" cx="1345" cy="171.7" r="54.6"/>
		</g>
		<g>
			<path class="st3" d="M1274.2,49L1274.2,49c-3.9-2.5-8.4-3.9-13.1-3.9h-6.3c-7.9,0.5-12.9,3.1-16,7.1
				c-21.4,27.7-48.6,65-55.8,114.3c-1.7,11.9,15.2,35.7,19.8,39.1c55.8,41.5,87.2-27.9,87.2-27.9l17.6-99L1285,68
				C1284.7,60.3,1280.6,53.2,1274.2,49z"/>
			<circle class="st3" cx="1237.6" cy="171.7" r="54.6"/>
		</g>
	</g>
	<path class="st4" d="M1290.9,491.4L1290.9,491.4c-30.3,0-54.9-24.6-54.9-54.9v-61.7c0-30.3,24.6-54.9,54.9-54.9l0,0
		c30.3,0,54.9,24.6,54.9,54.9v61.7C1345.8,466.8,1321.2,491.4,1290.9,491.4z"/>
	<g>
		<g>
			<g>
				<circle class="st4" cx="1258.5" cy="170.4" r="22.4"/>
				<circle class="st4" cx="1228.7" cy="181.2" r="24.4"/>
				<circle class="st4" cx="1267.4" cy="105.5" r="13.5"/>
				<rect x="1251.1" y="105.5" class="st4" width="29.9" height="61"/>
				<path class="st4" d="M1205.2,174.6c13.2-52.4,53.6-79.5,53.6-79.5l5.4,70.4C1264.3,165.4,1201.6,189.1,1205.2,174.6z"/>
			</g>
			<g>
				<circle class="st4" cx="1324.1" cy="170.4" r="22.4"/>
				<circle class="st4" cx="1353.9" cy="181.2" r="24.4"/>
				<circle class="st4" cx="1315.2" cy="105.5" r="13.5"/>
				<rect x="1301.7" y="105.5" class="st4" width="29.9" height="61"/>
				<path class="st4" d="M1377.4,174.6c-13.2-52.4-53.6-79.5-53.6-79.5l-5.4,70.4C1318.3,165.4,1381.1,189.1,1377.4,174.6z"/>
			</g>
		</g>
		<rect x="1283.8" y="44.6" class="st4" width="14.9" height="56.1"/>
		<g>
			
				<rect x="1301.5" y="89.2" transform="matrix(0.7071 -0.7071 0.7071 0.7071 300.5046 959.8868)" class="st4" width="14.9" height="56.1"/>
			
				<rect x="1266.2" y="89.1" transform="matrix(-0.7071 -0.7071 0.7071 -0.7071 2091.4456 1100.6541)" class="st4" width="14.9" height="56.1"/>
		</g>
	</g>
	<g>
		<path class="st5" d="M1459,536.8c0,0,20.9-17.7,20.3-35.7c-1.6-43.9,1.6-76-1.6-100.3c-8-60.9-24.9-73-27.9-100.5
			c-2.6-23.1,5-164.8-13-199.7c-19.1-36.9-65.2-41.5-97.4-33c-22.8,6-28.3,24.1-30.4,35.6c-1.6,8.8-1.8,16.5,2.7,35.8"/>
		<path class="st5" d="M1390.2,66.5c23.7,6.2,25.7,29.3,27.5,56.9c1.8,27.6,33.3,135.3,30.9,171.2c-2.4,35.9-1.1,91.7,6.5,115.8
			c7.6,24.1,21.6,54.8,23.8,80.9"/>
		<path class="st5" d="M1123.9,536.8c0,0-20.9-17.7-20.3-35.7c1.6-43.9-1.6-76,1.6-100.3c8-60.9,24.9-73,27.9-100.5
			c2.6-23.1-5-164.8,13-199.7c19.1-36.9,65.2-41.5,97.4-33c22.8,6,47.4,21.8,51.6,35.6c2.6,8.6,8.6,16.5,4.2,35.8"/>
		<path class="st5" d="M1192.7,66.5c-23.7,6.2-25.7,29.3-27.5,56.9c-1.8,27.6-33.3,135.3-30.9,171.2c2.4,35.9,1.1,91.7-6.5,115.8
			c-7.6,24.1-21.6,54.8-23.8,80.9"/>
		<path class="st5" d="M1339.4,67.7c0,0-23.1-47.7-24.2-62.9c-1.1-15.2,13.1-41.3,23.2-68.4c5.7-15.3,5-30.2,3.3-40.3
			c-1.3-7.6-6.4-14-13.5-16.9l-4.6-1.9"/>
		<line class="st5" x1="1315.2" y1="1.4" x2="1321" y2="77"/>
		<path class="st5" d="M1242.1,66.8c0,0,23.1-46.8,24.2-62c1.1-15.2-13.1-41.3-23.2-68.4c-6.5-17.4-4.7-34.3-2.5-44.1
			c1.2-5.4,4.3-10.1,8.7-13.3l4.8-3.5"/>
		<line class="st5" x1="1266.3" y1="1.4" x2="1260.5" y2="73.6"/>
		<path class="st5" d="M1295,187.2c0,0-3.9,223.5,0.4,234.6c4.3,11.1,78.3,67.9,82.1,115c8.8,108-27.9,228.6-29.6,234.1
			c-6.6,21.4,19,145.2,13.3,195.2c-5.7,50-26.4,117.2-29.7,141.5c-3.2,24.3-5.6,54.3-5.6,54.3"/>
		<path class="st5" d="M1324.1,452.4c13,13.8,18.6,46.7,16.4,84.3c-2.1,37.6,8.4,197.7,2.4,249.2s-18.1,154.4-14.2,193
			c3.9,38.6,7.1,90.2,2.9,128.7"/>
		<path class="st5" d="M1293.9,418.4c-4.3,11.1-86.7,71.3-90.5,118.4c-8.8,108,27.9,228.6,29.6,234.1c6.6,21.4-19,145.2-13.3,195.2
			c5.7,50,26.4,117.2,29.7,141.5c3.2,24.3,5.6,54.3,5.6,54.3"/>
		<path class="st5" d="M1257.3,454.6c-13,13.8-19,44.6-16.9,82.2c2.1,37.6-8.4,197.7-2.4,249.2s18.1,154.4,14.2,193
			c-3.9,38.6-7.1,90.2-2.9,128.7"/>
	</g>
	<path class="st6" d="M1296.4,116c0,0,4.3,6.4,3.8,7.8c-0.4,1.4-3.7,2.6-7.2,11c-2.3,5.8,0.9,11.3-0.6,12.4
		c-1.6,1.1-5.7,7.9-6.9,10.2c-8.9,16.7,4,34.6,13.3,41.2c9.3,6.5,18.4,6.7,24.3,9.3c8.2,3.5,19,5.8,25.3-5.3c0,0,4.1-8.5-1-24.1
		c-2.9-8.9-6.4-15.4-8.1-17.8c-5.5-7.7-11.2-11.2-13.8-12.6c-1.4-0.7-0.8-3.8,2-5c2.8-1.3,6-0.3,6-0.3l1-4c0,0-3.9-1.3-5.8-0.9
		c-1.9,0.3,2.1-4.2,2.3-7.3c0,0-2.7-2.3-4.4-1.7c0,0-1,3.7-3.5,7.7c0,0,1-9.6-5.9-14.6c0,0,1.6-8.1,2.1-8.8c0,0-3.2-1.7-4.5-1.4
		c0,0-1.9,8.1-2.2,8.3c-0.3,0.2-0.9,1.2-1.5,0.2c-0.6-1-0.8-9.6-0.8-9.6l-4.4,0.5c0,0,1.9,9.3,0.7,9.8c-0.4,0.2-0.8,0.8-1.6,0.1
		c-2.1-1.8-4.3-6.9-4.3-7.3C1300.6,113.2,1296.4,116,1296.4,116z"/>
	<g>
		<circle class="st6" cx="1257.6" cy="-125.2" r="13.6"/>
		<circle class="st6" cx="1277.9" cy="-136.8" r="14.7"/>
		<circle class="st6" cx="1300.5" cy="-138.2" r="16.3"/>
		<circle class="st6" cx="1251.4" cy="-119.7" r="8.1"/>
		<circle class="st6" cx="1330.9" cy="-119.7" r="8.1"/>
		<circle class="st6" cx="1319.9" cy="-131.2" r="11"/>
		<rect x="1251.4" y="-125.2" class="st6" width="79.6" height="13.6"/>
		<rect x="1276.9" y="-134.2" class="st6" width="14.3" height="17.6"/>
	</g>
	<g>
		<rect x="688.5" y="-53.9" class="st7" width="380.7" height="298.9"/>
		<text transform="matrix(1 0 0 1 688.4758 -36.2896)" class="st1 st8 st9">Dementia</text>
		<text transform="matrix(1 0 0 1 688.4758 -0.2895)" class="st1 st8 st9">Neurodegenerative</text>
		<text transform="matrix(1 0 0 1 688.4758 25.7105)" class="st1 st8 st9">diseases </text>
		<text transform="matrix(1 0 0 1 688.4758 61.7105)" class="st1 st8 st9">Mental health problems</text>
		<text transform="matrix(1 0 0 1 688.4758 97.7105)" class="st1 st8 st9">Autism and child behaviour </text>
		<text transform="matrix(1 0 0 1 688.4758 123.7105)" class="st1 st8 st9">problems</text>
		<text transform="matrix(1 0 0 1 688.4758 159.7105)" class="st1 st8 st9">Stroke</text>
	</g>
	<g>
		<rect x="688.5" y="-112" class="st7" width="283.7" height="41.9"/>
		<text transform="matrix(1 0 0 1 688.4753 -87.7745)" class="st1 st8 st10">Head</text>
	</g>
	<line class="st11" x1="1300.9" y1="-134.3" x2="688.5" y2="-136"/>
	<g>
		<rect x="1531.2" y="616.1" class="st7" width="360.9" height="195.4"/>
		<text transform="matrix(1 0 0 1 1725.3723 633.7271)" class="st1 st8 st9">Premature birth </text>
		<text transform="matrix(1 0 0 1 1637.2731 669.7271)" class="st1 st8 st9">Reduced weight at birth </text>
		<text transform="matrix(1 0 0 1 1754.0715 705.7271)" class="st1 st8 st9">Preclampsia</text>
		<text transform="matrix(1 0 0 1 1611.373 741.7271)" class="st1 st8 st9">Reduction in sperm quality</text>
	</g>
	<g>
		<rect x="1525.4" y="520.5" class="st7" width="366.7" height="123.5"/>
		<text transform="matrix(1 0 0 1 1570.2312 544.6775)" class="st1 st8 st10">Reproductive system </text>
		<text transform="matrix(1 0 0 1 1732.9296 582.1775)" class="st1 st8 st10">and fetus     </text>
	</g>
	<g>
		<rect x="688.5" y="599.6" class="st7" width="538.6" height="114.3"/>
		<text transform="matrix(1 0 0 1 688.4758 617.1633)" class="st1 st8 st9">Diabetes</text>
		<text transform="matrix(1 0 0 1 688.4758 653.1633)" class="st1 st8 st9">Systemic inflammation</text>
		<text transform="matrix(1 0 0 1 688.4758 689.1633)" class="st1 st8 st9">Increase in mortality</text>
	</g>
	<g>
		<rect x="688.5" y="541.5" class="st7" width="283.7" height="57.7"/>
		<text transform="matrix(1 0 0 1 688.4753 565.679)" class="st1 st8 st10">GENERAL/OTHERS</text>
	</g>
	<line class="st11" x1="1184.7" y1="519.1" x2="688.5" y2="517.4"/>
	<circle class="st6" cx="677.1" cy="646.5" r="5.5"/>
	<circle class="st6" cx="677.1" cy="682.8" r="5.5"/>
	<circle class="st6" cx="677.1" cy="609.1" r="5.5"/>
	<circle class="st6" cx="1904.7" cy="626" r="5.5"/>
	<circle class="st6" cx="1904.7" cy="663.6" r="5.5"/>
	<circle class="st6" cx="1904.7" cy="733.5" r="5.5"/>
	<circle class="st6" cx="1904.7" cy="699.8" r="5.5"/>
	<circle class="st6" cx="677.1" cy="147.9" r="5.5"/>
	<circle class="st6" cx="677.1" cy="-7.7" r="5.5"/>
	<circle class="st6" cx="677.1" cy="-44.3" r="5.5"/>
	<circle class="st6" cx="677.1" cy="88.5" r="5.5"/>
	<circle class="st6" cx="677.1" cy="51.8" r="5.5"/>
	<circle class="st6" cx="1904.7" cy="-41.7" r="5.5"/>
	<circle class="st6" cx="1904.7" cy="18.5" r="5.5"/>
	<circle class="st6" cx="1904.7" cy="54.3" r="5.5"/>
	<circle class="st6" cx="1904.7" cy="90.1" r="5.5"/>
	<circle class="st6" cx="1904.7" cy="126.2" r="5.5"/>
	<circle class="st6" cx="1904.7" cy="938" r="5.5"/>
	<g>
		<rect x="1534.3" y="-53.1" class="st7" width="357.8" height="214.7"/>
		<text transform="matrix(1 0 0 1 1571.697 -35.4639)" class="st1 st8 st9">Chronic Obstructive Pulmonary </text>
		<text transform="matrix(1 0 0 1 1724.7957 -7.4637)" class="st1 st8 st9">Disease (COPD) </text>
		<text transform="matrix(1 0 0 1 1798.7942 26.5362)" class="st1 st8 st9">Asthma</text>
		<text transform="matrix(1 0 0 1 1669.0961 62.5362)" class="st1 st8 st9">Respiratory diseases </text>
		<text transform="matrix(1 0 0 1 1763.9945 98.5362)" class="st1 st8 st9">Pneumonia</text>
		<text transform="matrix(1 0 0 1 1752.9944 134.5362)" class="st1 st8 st9">Lung cancer</text>
	</g>
	<g>
		<rect x="1506.9" y="-111" class="st7" width="385.2" height="138.5"/>
		<text transform="matrix(1 0 0 1 1614.3389 -86.8372)" class="st1 st8 st10">Respiratory tract</text>
	</g>
	<polyline class="st11" points="1892.1,-133.4 1529.3,-134.9 1349.6,137.1 	"/>
	<circle class="st6" cx="1904.7" cy="304.1" r="5.5"/>
	<circle class="st6" cx="1904.4" cy="339.1" r="5.5"/>
	<circle class="st6" cx="1904.4" cy="375" r="5.5"/>
	<circle class="st6" cx="1904.4" cy="410.9" r="5.5"/>
	<g>
		<rect x="1535.2" y="292.5" class="st7" width="357.8" height="151.9"/>
		<text transform="matrix(1 0 0 1 1663.6516 310.1151)" class="st1 st8 st9">Myocardial infarction</text>
		<text transform="matrix(1 0 0 1 1764.2502 346.1151)" class="st1 st8 st9">Arrhythmia</text>
		<text transform="matrix(1 0 0 1 1639.1521 382.1151)" class="st1 st8 st9">Heart congestive failure</text>
		<text transform="matrix(1 0 0 1 1634.752 418.1151)" class="st1 st8 st9">Cardiovascular diseases</text>
	</g>
	<g>
		<rect x="1507.8" y="233.8" class="st7" width="385.2" height="321.3"/>
		<text transform="matrix(1 0 0 1 1785.8994 257.9361)" class="st1 st8 st10">Heart</text>
	</g>
	<polyline class="st11" points="1893,211.4 1530.3,210 1329.5,168.6 	"/>
	<g>
		<rect x="1534.3" y="926.6" class="st7" width="357.8" height="133.5"/>
		<text transform="matrix(1 0 0 1 1625.6155 944.2327)" class="st1 st8 st9">Deep venous thrombosis</text>
	</g>
	<g>
		<rect x="1506.9" y="868.2" class="st7" width="385.2" height="59.8"/>
		<text transform="matrix(1 0 0 1 1756.5542 892.3924)" class="st1 st8 st10">Arteries</text>
	</g>
	<line class="st11" x1="1892.1" y1="844.4" x2="1347.9" y2="842.8"/>
	<polyline class="st11" points="1324.1,377.6 1506.5,497.6 1892.1,496.4 	"/>
</g>
</svg>
