<?xml version="1.0" encoding="utf-8"?>
<!-- Generator: Adobe Illustrator 19.0.0, SVG Export Plug-In . SVG Version: 6.00 Build 0)  -->
<svg version="1.1" xmlns="http://www.w3.org/2000/svg" xmlns:xlink="http://www.w3.org/1999/xlink" x="0px" y="0px"
	 viewBox="0 0 580.4 1467.2" style="enable-background:new 0 0 580.4 1467.2;" xml:space="preserve">
<style type="text/css">
	.st0{opacity:0.3;}
	.st1{fill:#C1D9AE;}
	.st2{fill:#FBE2E0;}
	.st3{opacity:0.3;fill:#F8D2D0;}
	.st4{fill:#F8D2D0;}
	.st5{fill:none;stroke:#F0A0A0;stroke-width:6.0028;stroke-linecap:round;stroke-miterlimit:10;}
	.st6{opacity:0.3;fill:#F0A0A0;}
	.st7{fill:#3AA336;}
	.st8{fill:#181717;}
	.st9{display:none;}
</style>
<g id="Cos_1_">
	<g id="XMLID_91_" class="st0">
		<g id="XMLID_121_">
			<path id="XMLID_131_" class="st1" d="M379,53.7c-0.4,0-0.7,0-1,0c-0.3,0-0.7,0-1,0c-44.9-0.4-62.4,35.1-59.8,80.4
				c2.5,44.3,19.6,91.2,60.6,92.1v0c0.1,0,0.2,0,0.3,0c0.1,0,0.2,0,0.3,0v0c41-0.9,58.1-47.8,60.6-92.1
				C441.4,88.8,423.9,53.3,379,53.7z"/>
			<g id="XMLID_126_">
				
					<ellipse id="XMLID_129_" transform="matrix(0.9911 0.1335 -0.1335 0.9911 24.1037 -56.9277)" class="st1" cx="436.6" cy="151.3" rx="8" ry="23.8"/>
				
					<ellipse id="XMLID_128_" transform="matrix(-0.9911 0.1335 -0.1335 -0.9911 655.6927 258.6624)" class="st1" cx="319.2" cy="151.3" rx="8" ry="23.8"/>
			</g>
			<rect id="XMLID_125_" x="342.8" y="193.9" class="st1" width="70.1" height="73.1"/>
			<g id="XMLID_122_">
				<path id="XMLID_124_" class="st1" d="M390.8,300l-48.1-73.8l0,0c0,20.9-16.9,37.8-37.8,37.8h0L390.8,300z"/>
				<path id="XMLID_123_" class="st1" d="M365,300l48.1-73.8l0,0c0,20.9,16.9,37.8,37.8,37.8l0,0L365,300z"/>
			</g>
		</g>
		<g id="XMLID_92_">
			<rect id="XMLID_118_" x="288.3" y="263.7" class="st1" width="178.7" height="281.4"/>
			<path id="XMLID_117_" class="st1" d="M260.9,302.2h233.4v86.2c0,35.4-28.7,64-64,64H324.9c-35.4,0-64-28.7-64-64V302.2z"/>
			<path id="XMLID_3_" class="st1" d="M215.1,385.5h325.1v-59.3c0-34.5-28-62.4-62.4-62.4H277.5c-34.5,0-62.4,28-62.4,62.4V385.5z"
				/>
			<path id="XMLID_115_" class="st1" d="M467,545.1h-89.4v196.1h127.1c0,0,0-24.5,0-74.5C504.7,618.8,467,545.1,467,545.1z"/>
			<path id="XMLID_113_" class="st1" d="M288.2,545.1h89.4v196.1H250.5c0,0,0-24.5,0-74.5C250.5,618.8,288.2,545.1,288.2,545.1z"/>
			<g id="XMLID_105_">
				<path id="XMLID_111_" class="st1" d="M462.9,992.3c0,19.3-77.1,0-77.1,0v-251c0,0,118.8-29.7,118.8,0
					C504.7,848,462.9,963.2,462.9,992.3z"/>
				<path id="XMLID_109_" class="st1" d="M441.8,1307.1h-41l-14.9-314.8h76.9c0,0,6.4,92.3,6.4,123.2
					C469.1,1202.1,441.8,1307.1,441.8,1307.1z"/>
				<path id="XMLID_107_" class="st1" d="M449.6,1402.1c-0.1,2.3-2.4,6-4.9,9.3c-3.8,5-9.7,7.8-15.9,7.8H399
					c-7,0-12.4-6.1-11.4-13.1l13.1-99h41C441.7,1307.1,450.6,1372.9,449.6,1402.1z"/>
			</g>
			<g id="XMLID_101_">
				<path id="XMLID_104_" class="st1" d="M292.3,992.3c0,19.3,77.1,0,77.1,0v-251c0,0-118.8-29.7-118.8,0
					C250.5,848,292.3,963.2,292.3,992.3z"/>
				<path id="XMLID_103_" class="st1" d="M313.4,1307.1h41l14.9-314.8h-76.9c0,0-6.4,92.3-6.4,123.2
					C286.1,1202.1,313.4,1307.1,313.4,1307.1z"/>
				<path id="XMLID_102_" class="st1" d="M305.6,1402.1c0.1,2.3,2.4,6,4.9,9.3c3.8,5,9.7,7.8,15.9,7.8h29.7c7,0,12.4-6.1,11.4-13.1
					l-13.1-99h-41C313.5,1307.1,304.6,1372.9,305.6,1402.1z"/>
			</g>
			<polygon id="XMLID_100_" class="st1" points="560.6,534.7 514.7,540.1 486.9,322.7 540,316.5 			"/>
			<path id="XMLID_99_" class="st1" d="M575.4,719.4l-27,3.1l-33.7-182.5c0,0,42.4-39.8,43.8-27.7c2.5,21.5,8.9,43.4,12.1,73.1
				C574.2,618.8,575.4,719.4,575.4,719.4z"/>
			<path id="XMLID_98_" class="st1" d="M575.4,719.4v41.4c0,8.9-2.7,17.6-7.9,24.9l-32.9,46.8c-2.7,3.9-8,4.9-11.9,2.3l0,0
				c-3.7-2.4-5-7.1-3.1-11.1l20.4-42.3l-2.8-15.3L522.6,795c-0.7,1.3-2.2,2-3.7,1.6l0,0c-1.5-0.4-2.5-1.9-2.3-3.4l3.1-27.7
				c0.8-7.2,3.3-14.1,7.4-20.1l21.2-22.9L575.4,719.4z"/>
			<g id="XMLID_93_">
				<polygon id="XMLID_96_" class="st1" points="195.2,534.7 241.1,540.1 269,322.7 215.8,316.5 				"/>
				<path id="XMLID_95_" class="st1" d="M180.4,719.4l27,3.1l33.7-182.5c0,0-42.4-39.8-43.8-27.7c-2.5,21.5-8.9,43.4-12.1,73.1
					C181.6,618.8,180.4,719.4,180.4,719.4z"/>
				<path id="XMLID_94_" class="st1" d="M180.4,719.4v41.4c0,8.9,2.7,17.6,7.9,24.9l32.9,46.8c2.7,3.9,8,4.9,11.9,2.3l0,0
					c3.7-2.4,5-7.1,3.1-11.1l-20.4-42.3l2.8-15.3l14.6,28.8c0.7,1.3,2.2,2,3.7,1.6l0,0c1.5-0.4,2.5-1.9,2.3-3.4l-3.1-27.7
					c-0.8-7.2-3.3-14.1-7.4-20.1l-21.2-22.9L180.4,719.4z"/>
			</g>
		</g>
	</g>
	<g id="XMLID_84_" class="st0">
		<g id="XMLID_88_">
			<path id="XMLID_90_" class="st2" d="M395.4,270.4L395.4,270.4c3.9-2.5,8.4-3.9,13.1-3.9h6.3c7.9,0.5,12.9,3.1,16,7.1
				c21.4,27.7,48.6,65,55.8,114.3c1.7,11.9-15.2,35.7-19.8,39.1C411,468.5,379.6,399,379.6,399l5-109.7
				C384.9,281.7,389,274.6,395.4,270.4z"/>
			<circle id="XMLID_89_" class="st2" cx="432" cy="393.1" r="54.6"/>
		</g>
		<g id="XMLID_85_">
			<path id="XMLID_87_" class="st2" d="M361.2,270.4L361.2,270.4c-3.9-2.5-8.4-3.9-13.1-3.9h-6.3c-7.9,0.5-12.9,3.1-16,7.1
				c-21.4,27.7-48.6,65-55.8,114.3c-1.7,11.9,15.2,35.7,19.8,39.1C345.6,468.5,377,399,377,399l17.6-99L372,289.4
				C371.7,281.7,367.6,274.6,361.2,270.4z"/>
			<circle id="XMLID_86_" class="st2" cx="324.6" cy="393.1" r="54.6"/>
		</g>
	</g>
	<path id="XMLID_2_" class="st3" d="M377.9,712.8L377.9,712.8c-30.3,0-54.9-24.6-54.9-54.9v-61.7c0-30.3,24.6-54.9,54.9-54.9h0
		c30.3,0,54.9,24.6,54.9,54.9v61.7C432.8,688.2,408.2,712.8,377.9,712.8z"/>
	<g id="XMLID_59_" class="st0">
		<g id="XMLID_66_">
			<g id="XMLID_75_">
				<circle id="XMLID_82_" class="st4" cx="345.5" cy="391.8" r="22.4"/>
				<circle id="XMLID_81_" class="st4" cx="315.7" cy="402.6" r="24.4"/>
				<circle id="XMLID_80_" class="st4" cx="354.4" cy="326.9" r="13.5"/>
				<rect id="XMLID_79_" x="338.1" y="326.9" class="st4" width="29.9" height="61"/>
				<path id="XMLID_76_" class="st4" d="M292.2,396c13.2-52.4,53.6-79.5,53.6-79.5l5.4,70.4C351.3,386.8,288.6,410.5,292.2,396z"/>
			</g>
			<g id="XMLID_67_">
				<circle id="XMLID_74_" class="st4" cx="411.1" cy="391.8" r="22.4"/>
				<circle id="XMLID_71_" class="st4" cx="440.9" cy="402.6" r="24.4"/>
				<circle id="XMLID_70_" class="st4" cx="402.2" cy="326.9" r="13.5"/>
				<rect id="XMLID_69_" x="388.6" y="326.9" class="st4" width="29.9" height="61"/>
				<path id="XMLID_68_" class="st4" d="M464.4,396c-13.2-52.4-53.6-79.5-53.6-79.5l-5.4,70.4C405.3,386.8,468,410.5,464.4,396z"/>
			</g>
		</g>
		<rect id="XMLID_65_" x="370.8" y="266" class="st4" width="14.9" height="56.1"/>
		<g id="XMLID_60_">
			
				<rect id="XMLID_63_" x="388.5" y="310.5" transform="matrix(0.7071 -0.7071 0.7071 0.7071 -123.4281 379.1292)" class="st4" width="14.9" height="56.1"/>
			
				<rect id="XMLID_61_" x="353.2" y="310.5" transform="matrix(-0.7071 -0.7071 0.7071 -0.7071 376.2951 832.9774)" class="st4" width="14.9" height="56.1"/>
		</g>
	</g>
	<g id="XMLID_21_" class="st0">
		<path id="XMLID_58_" class="st5" d="M546,758.2c0,0,20.9-17.7,20.3-35.7c-1.6-43.9,1.6-76-1.6-100.3c-8-60.9-24.9-73-27.9-100.5
			c-2.6-23.1,5-164.8-13-199.7c-19.1-36.9-65.2-41.5-97.4-33c-22.8,6-28.3,24.1-30.4,35.6c-1.6,8.8-1.8,16.5,2.7,35.8"/>
		<path id="XMLID_57_" class="st5" d="M477.2,287.9c23.7,6.2,25.7,29.3,27.5,56.9c1.8,27.6,33.3,135.3,30.9,171.2
			c-2.4,35.9-1.1,91.7,6.5,115.8c7.6,24.1,21.6,54.8,23.8,80.9"/>
		<path id="XMLID_56_" class="st5" d="M210.9,758.2c0,0-20.9-17.7-20.3-35.7c1.6-43.9-1.6-76,1.6-100.3c8-60.9,24.9-73,27.9-100.5
			c2.6-23.1-5-164.8,13-199.7c19.1-36.9,65.2-41.5,97.4-33c22.8,6,47.4,21.8,51.6,35.6c2.6,8.6,8.6,16.5,4.2,35.8"/>
		<path id="XMLID_55_" class="st5" d="M279.7,287.9c-23.7,6.2-25.7,29.3-27.5,56.9c-1.8,27.6-33.3,135.3-30.9,171.2
			s1.1,91.7-6.5,115.8c-7.6,24.1-21.6,54.8-23.8,80.9"/>
		<path id="XMLID_54_" class="st5" d="M426.4,289.1c0,0-23.1-47.7-24.2-62.9c-1.1-15.2,13.1-41.3,23.2-68.4
			c5.7-15.3,5-30.2,3.3-40.3c-1.3-7.6-6.4-14-13.5-16.9l-4.6-1.9"/>
		<line id="XMLID_48_" class="st5" x1="402.2" y1="222.8" x2="408" y2="298.4"/>
		<path id="XMLID_47_" class="st5" d="M329.1,288.2c0,0,23.1-46.8,24.2-62c1.1-15.2-13.1-41.3-23.2-68.4
			c-6.5-17.4-4.7-34.3-2.5-44.1c1.2-5.4,4.3-10.1,8.7-13.3l4.8-3.5"/>
		<line id="XMLID_44_" class="st5" x1="353.3" y1="222.8" x2="347.4" y2="295"/>
		<path id="XMLID_40_" class="st5" d="M382,408.6c0,0-3.9,223.5,0.4,234.6c4.3,11.1,78.3,67.9,82.1,115
			c8.8,108-27.9,228.6-29.6,234.1c-6.6,21.4,19,145.2,13.3,195.2c-5.7,50-26.4,117.2-29.7,141.5c-3.2,24.3-5.6,54.3-5.6,54.3"/>
		<path id="XMLID_29_" class="st5" d="M411.1,673.8c13,13.8,18.6,46.7,16.4,84.3c-2.1,37.6,8.4,197.7,2.4,249.2
			c-6,51.5-18.1,154.4-14.2,193c3.9,38.6,7.1,90.2,2.9,128.7"/>
		<path id="XMLID_27_" class="st5" d="M380.9,639.8c-4.3,11.1-86.7,71.3-90.5,118.4c-8.8,108,27.9,228.6,29.6,234.1
			c6.6,21.4-19,145.2-13.3,195.2c5.7,50,26.4,117.2,29.7,141.5c3.2,24.3,5.6,54.3,5.6,54.3"/>
		<path id="XMLID_26_" class="st5" d="M344.3,676c-13,13.8-19,44.6-16.9,82.2c2.1,37.6-8.4,197.7-2.4,249.2
			c6,51.5,18.1,154.4,14.2,193c-3.9,38.6-7.1,90.2-2.9,128.7"/>
	</g>
	<path id="XMLID_20_" class="st6" d="M383.4,337.4c0,0,4.3,6.4,3.8,7.8c-0.4,1.4-3.7,2.6-7.2,11c-2.3,5.8,0.9,11.3-0.6,12.4
		c-1.6,1.1-5.7,7.9-6.9,10.2c-8.9,16.7,4,34.6,13.3,41.2c9.3,6.5,18.4,6.7,24.3,9.3c8.2,3.5,19,5.8,25.3-5.3c0,0,4.1-8.5-1-24.1
		c-2.9-8.9-6.4-15.4-8.1-17.8c-5.5-7.7-11.2-11.2-13.8-12.6c-1.4-0.7-0.8-3.8,2-5c2.8-1.3,6-0.3,6-0.3l1-4c0,0-3.9-1.3-5.8-0.9
		c-1.9,0.3,2.1-4.2,2.3-7.3c0,0-2.7-2.3-4.4-1.7c0,0-1,3.7-3.5,7.7c0,0,1-9.6-5.9-14.6c0,0,1.6-8.1,2.1-8.8c0,0-3.2-1.7-4.5-1.4
		c0,0-1.9,8.1-2.2,8.3c-0.3,0.2-0.9,1.2-1.5,0.2c-0.6-1-0.8-9.6-0.8-9.6l-4.4,0.5c0,0,1.9,9.3,0.7,9.8c-0.4,0.2-0.8,0.8-1.6,0.1
		c-2.1-1.8-4.3-6.9-4.3-7.3C387.6,334.6,383.4,337.4,383.4,337.4z"/>
	<g id="XMLID_6_" class="st0">
		<circle id="XMLID_18_" class="st7" cx="344.6" cy="96.2" r="13.6"/>
		<circle id="XMLID_15_" class="st7" cx="364.9" cy="84.6" r="14.7"/>
		<circle id="XMLID_13_" class="st7" cx="387.5" cy="83.2" r="16.3"/>
		<circle id="XMLID_12_" class="st7" cx="338.4" cy="101.7" r="8.1"/>
		<circle id="XMLID_11_" class="st7" cx="417.9" cy="101.7" r="8.1"/>
		<circle id="XMLID_10_" class="st7" cx="406.9" cy="90.2" r="11"/>
		<rect id="XMLID_9_" x="338.4" y="96.2" class="st7" width="79.6" height="13.6"/>
		<rect id="XMLID_8_" x="363.8" y="87.2" class="st7" width="14.3" height="17.6"/>
	</g>
</g>
<g id="General_x2F_Altres">
	<g id="XMLID_332_">
		<g id="XMLID_591_">
			<path id="XMLID_622_" class="st8" d="M98.2,248.3h-4.4V247c-0.6,0.5-1.4,0.9-2.3,1.2c-0.9,0.3-2.1,0.5-3.4,0.5
				c-1.7,0-3.3-0.3-4.8-0.9c-1.4-0.6-2.7-1.4-3.7-2.4c-1-1-1.8-2.3-2.4-3.7s-0.9-3.1-0.9-4.9c0-1.6,0.3-3.2,0.8-4.6
				c0.6-1.4,1.4-2.7,2.4-3.8c1-1.1,2.3-1.9,3.7-2.5c1.5-0.6,3.1-0.9,4.8-0.9c1.2,0,2.3,0.1,3.3,0.4s1.9,0.6,2.6,1
				c0.8,0.4,1.4,0.9,2,1.4c0.6,0.5,1.1,1.1,1.5,1.7l-3.6,2.6c-0.3-0.4-0.6-0.7-0.9-1.1c-0.4-0.4-0.8-0.7-1.2-0.9
				c-0.5-0.3-1-0.5-1.6-0.7c-0.6-0.2-1.3-0.2-2-0.2c-1,0-2,0.2-2.8,0.6c-0.9,0.4-1.6,0.9-2.2,1.5c-0.6,0.7-1.1,1.4-1.4,2.4
				c-0.3,0.9-0.5,1.9-0.5,3c0,1.2,0.2,2.2,0.5,3.1s0.9,1.7,1.5,2.4c0.6,0.7,1.4,1.2,2.3,1.5c0.9,0.4,1.8,0.5,2.9,0.5
				c1.3,0,2.4-0.2,3.4-0.6c0.9-0.4,1.6-0.9,2.1-1.4v-2.6H90v-3.8h8.2V248.3z"/>
			<path id="XMLID_620_" class="st8" d="M102.8,248.3v-22.8h10.5v4.3h-5.9v4.8h5.7v4.3h-5.7v5.2h6v4.3H102.8z"/>
			<path id="XMLID_618_" class="st8" d="M122,233.3v15.1h-4.5v-22.8h4.8l9.8,15.3v-15.3h4.5v22.8H132L122,233.3z"/>
			<path id="XMLID_616_" class="st8" d="M141.5,248.3v-22.8h10.5v4.3h-5.9v4.8h5.7v4.3h-5.7v5.2h6v4.3H141.5z"/>
			<path id="XMLID_613_" class="st8" d="M170.4,232c0,1.3-0.3,2.5-0.8,3.4c-0.6,1-1.3,1.7-2.3,2.2l5.4,10.7h-4.9l-4.9-9.8h-2v9.8
				h-4.6v-22.8h7.1c2.3,0,4,0.6,5.2,1.7S170.4,229.9,170.4,232z M160.8,229.5v5.3h2.1c0.8,0,1.5-0.2,1.9-0.7c0.5-0.5,0.7-1.1,0.7-2
				c0-0.8-0.2-1.4-0.7-1.9s-1.1-0.7-1.9-0.7H160.8z"/>
			<path id="XMLID_610_" class="st8" d="M189.2,242.1h-7.8l-2.2,6.3h-4.5l8.3-22.8h4.8l8.6,22.8h-4.9L189.2,242.1z M182.8,238.2h5
				l-2.5-6.9L182.8,238.2z"/>
			<path id="XMLID_608_" class="st8" d="M199.4,248.3v-22.8h4.6V244h5.8v4.3H199.4z"/>
			<path id="XMLID_606_" class="st8" d="M215.4,254.1h-4.1l11.4-29.9h4.1L215.4,254.1z"/>
			<path id="XMLID_603_" class="st8" d="M228.2,236.9c0-1.7,0.3-3.2,0.9-4.7c0.6-1.5,1.4-2.7,2.4-3.8c1-1.1,2.3-1.9,3.7-2.5
				s3-0.9,4.8-0.9c1.8,0,3.4,0.3,4.9,0.9s2.7,1.4,3.8,2.5c1,1.1,1.8,2.3,2.4,3.7c0.6,1.4,0.9,3,0.9,4.7c0,1.7-0.3,3.2-0.8,4.7
				c-0.6,1.5-1.4,2.7-2.4,3.8s-2.3,1.9-3.8,2.5c-1.5,0.6-3.1,0.9-4.9,0.9c-1.8,0-3.5-0.3-4.9-0.9c-1.5-0.6-2.7-1.4-3.7-2.5
				c-1-1.1-1.8-2.3-2.4-3.7C228.5,240.2,228.2,238.6,228.2,236.9z M233,236.9c0,1.1,0.2,2.1,0.5,3s0.8,1.7,1.4,2.4
				c0.6,0.7,1.4,1.2,2.2,1.6c0.9,0.4,1.8,0.6,2.9,0.6c1.1,0,2.1-0.2,3-0.6c0.9-0.4,1.6-0.9,2.2-1.6c0.6-0.7,1.1-1.5,1.4-2.4
				c0.3-0.9,0.5-1.9,0.5-3c0-1.1-0.2-2.1-0.5-3c-0.3-0.9-0.8-1.7-1.4-2.4s-1.4-1.2-2.2-1.6c-0.9-0.4-1.9-0.6-2.9-0.6
				c-1.1,0-2.1,0.2-3,0.6c-0.9,0.4-1.6,0.9-2.2,1.6s-1.1,1.5-1.4,2.4C233.2,234.9,233,235.8,233,236.9z"/>
			<path id="XMLID_601_" class="st8" d="M262.3,229.8v18.5h-4.6v-18.5h-4.2v-4.3h12.9v4.3H262.3z"/>
			<path id="XMLID_599_" class="st8" d="M288.6,248.3H284v-9.6h-9.1v9.6h-4.6v-22.8h4.6v8.9h9.1v-8.9h4.6V248.3z"/>
			<path id="XMLID_597_" class="st8" d="M293.4,248.3v-22.8h10.5v4.3H298v4.8h5.7v4.3H298v5.2h6v4.3H293.4z"/>
			<path id="XMLID_594_" class="st8" d="M322.3,232c0,1.3-0.3,2.5-0.8,3.4c-0.6,1-1.3,1.7-2.3,2.2l5.4,10.7h-4.9l-4.9-9.8h-2v9.8
				h-4.6v-22.8h7.1c2.3,0,4,0.6,5.2,1.7S322.3,229.9,322.3,232z M312.8,229.5v5.3h2.1c0.8,0,1.5-0.2,1.9-0.7c0.5-0.5,0.7-1.1,0.7-2
				c0-0.8-0.2-1.4-0.7-1.9s-1.1-0.7-1.9-0.7H312.8z"/>
			<path id="XMLID_592_" class="st8" d="M331.1,231.3c0,0.6,0.2,1.1,0.5,1.5c0.3,0.4,0.9,0.8,1.6,1.1c0.5,0.2,1.1,0.5,1.6,0.7
				s1.1,0.5,1.8,0.7c1.4,0.6,2.5,1.4,3.2,2.4c0.8,1,1.2,2.3,1.2,3.9c0,1.1-0.2,2.1-0.6,3s-0.9,1.6-1.6,2.2s-1.5,1.1-2.4,1.4
				c-0.9,0.3-1.9,0.5-3,0.5c-1.5,0-2.8-0.2-3.7-0.7c-1-0.5-1.7-1-2.3-1.7s-0.9-1.5-1.1-2.4c-0.2-0.9-0.3-1.8-0.2-2.7h4.4
				c0,0.5,0,0.9,0.1,1.3c0.1,0.4,0.3,0.8,0.5,1.1c0.2,0.3,0.5,0.6,0.9,0.8s0.8,0.3,1.4,0.3c0.8,0,1.5-0.2,2-0.7
				c0.5-0.4,0.8-1.1,0.8-2c0-0.8-0.2-1.4-0.7-1.8c-0.4-0.4-1-0.8-1.8-1.1c-0.6-0.3-1.3-0.6-2-0.8c-0.7-0.2-1.3-0.5-2-0.9
				c-1.1-0.6-2-1.4-2.5-2.4c-0.6-1-0.9-2.2-0.9-3.6c0-0.9,0.2-1.8,0.5-2.6s0.8-1.5,1.4-2c0.6-0.6,1.3-1,2.2-1.3
				c0.9-0.3,1.8-0.5,2.9-0.5c1.3,0,2.4,0.2,3.3,0.5s1.6,0.9,2.1,1.5s0.9,1.3,1.1,2.2s0.3,1.7,0.3,2.6h-4.2c0-0.8-0.2-1.5-0.7-2
				s-1.1-0.8-1.9-0.8c-0.8,0-1.4,0.2-1.8,0.7C331.3,230.1,331.1,230.7,331.1,231.3z"/>
		</g>
	</g>
	<g id="XMLID_73_">
		<g id="XMLID_207_">
			<g id="XMLID_1278_">
				<path id="XMLID_1400_" class="st8" d="M79.9,288.9v10.9h-3.2v-16.6h3.5l7.1,11.1v-11.1h3.2v16.6h-3.3L79.9,288.9z"/>
				<path id="XMLID_1398_" class="st8" d="M96.9,295c0,0.6,0.1,1.1,0.4,1.5s0.7,0.6,1.3,0.6s1-0.2,1.3-0.6c0.3-0.4,0.5-0.9,0.5-1.5
					v-8h3.2v12.8h-3.2v-1c-0.2,0.2-0.5,0.5-0.9,0.7c-0.4,0.3-1,0.4-1.8,0.4c-0.7,0-1.3-0.1-1.8-0.3c-0.5-0.2-0.9-0.5-1.2-0.9
					c-0.3-0.4-0.6-0.9-0.7-1.4c-0.1-0.6-0.2-1.2-0.2-1.8V287h3.2V295z"/>
				<path id="XMLID_1395_" class="st8" d="M108.3,286.2c-0.5,0-1-0.2-1.4-0.6s-0.6-0.8-0.6-1.3c0-0.5,0.2-1,0.6-1.4s0.8-0.6,1.4-0.6
					c0.5,0,1,0.2,1.4,0.6s0.6,0.8,0.6,1.4c0,0.5-0.2,1-0.6,1.3S108.8,286.2,108.3,286.2z M109.9,299.8h-3.2V287h3.2V299.8z"/>
				<path id="XMLID_1393_" class="st8" d="M115.8,290.4c0,0.6,0.4,1,1.1,1.2c0.3,0.1,0.6,0.2,0.9,0.2c0.3,0.1,0.6,0.1,0.9,0.2
					c0.5,0.2,1,0.3,1.3,0.6s0.7,0.5,1,0.8c0.3,0.3,0.4,0.7,0.6,1.1c0.1,0.4,0.2,0.9,0.2,1.5c0,0.7-0.1,1.2-0.4,1.7
					c-0.2,0.5-0.6,0.9-1,1.2c-0.4,0.3-0.9,0.6-1.5,0.8c-0.6,0.2-1.2,0.3-1.8,0.3c-0.9,0-1.6-0.1-2.2-0.4c-0.6-0.2-1.1-0.6-1.4-1
					c-0.4-0.4-0.6-0.9-0.7-1.4c-0.1-0.5-0.2-1.1-0.2-1.6h3.1c0,0.5,0.1,0.9,0.3,1.2s0.6,0.5,1.2,0.5c0.4,0,0.8-0.1,1.1-0.3
					c0.3-0.2,0.4-0.5,0.4-0.9c0-0.4-0.1-0.6-0.3-0.8s-0.5-0.4-1-0.5c-0.4-0.1-0.7-0.2-1-0.3s-0.6-0.2-1-0.3c-0.9-0.3-1.6-0.8-2-1.4
					c-0.4-0.6-0.7-1.4-0.7-2.4c0-0.5,0.1-1,0.3-1.5c0.2-0.5,0.5-0.9,0.9-1.2c0.4-0.3,0.9-0.6,1.4-0.8c0.5-0.2,1.1-0.3,1.8-0.3
					c1.4,0,2.4,0.3,3.2,1c0.8,0.7,1.1,1.7,1.2,3h-3c0-0.5-0.1-0.9-0.4-1.2c-0.2-0.3-0.6-0.4-1.1-0.4c-0.4,0-0.7,0.1-0.9,0.3
					S115.8,290.1,115.8,290.4z"/>
				<path id="XMLID_1390_" class="st8" d="M123.9,295.6c0-0.6,0.1-1.1,0.3-1.7s0.5-1,0.9-1.3c0.4-0.4,0.8-0.7,1.4-0.9
					c0.5-0.2,1.2-0.3,1.8-0.3c0.6,0,1.1,0.1,1.4,0.2s0.7,0.2,0.8,0.3v-0.6c0-0.6-0.1-1-0.4-1.4s-0.7-0.5-1.3-0.5
					c-0.3,0-0.6,0-0.8,0.1s-0.4,0.2-0.5,0.3c-0.1,0.1-0.2,0.3-0.3,0.5c0,0.2-0.1,0.4-0.1,0.5h-3c0-1.2,0.4-2.2,1.2-2.9
					c0.7-0.7,1.9-1.1,3.4-1.1c0.9,0,1.7,0.1,2.3,0.4s1.1,0.6,1.5,1c0.4,0.4,0.6,0.9,0.8,1.5c0.2,0.6,0.2,1.3,0.2,2v8.1h-2.7V299
					c-0.2,0.2-0.5,0.4-0.9,0.6c-0.4,0.2-1,0.3-1.8,0.3c-0.6,0-1.2-0.1-1.8-0.3c-0.5-0.2-1-0.5-1.4-0.9c-0.4-0.4-0.7-0.8-0.9-1.4
					C124,296.9,123.9,296.3,123.9,295.6z M126.9,295.6c0,0.5,0.2,1,0.5,1.3c0.3,0.3,0.8,0.5,1.4,0.5c0.5,0,1-0.2,1.3-0.5
					c0.4-0.3,0.5-0.8,0.5-1.3s-0.2-1-0.5-1.3c-0.4-0.3-0.8-0.5-1.3-0.5c-0.6,0-1,0.2-1.3,0.5C127.1,294.6,126.9,295.1,126.9,295.6z"
					/>
				<path id="XMLID_1388_" class="st8" d="M143.5,291.8c0-0.6-0.1-1.1-0.4-1.5c-0.3-0.4-0.7-0.5-1.3-0.5c-0.6,0-1,0.2-1.3,0.6
					c-0.3,0.4-0.5,0.9-0.5,1.5v8.1h-3.2V287h3.2v1c0.1-0.1,0.2-0.2,0.3-0.3c0.1-0.1,0.3-0.2,0.5-0.4c0.2-0.1,0.5-0.2,0.8-0.3
					c0.3-0.1,0.7-0.1,1.1-0.1c0.8,0,1.4,0.1,1.9,0.4c0.5,0.2,0.9,0.6,1.2,1c0.3,0.4,0.5,0.9,0.7,1.4c0.1,0.5,0.2,1.1,0.2,1.8v8.5
					h-3.2V291.8z"/>
				<path id="XMLID_1386_" class="st8" d="M156,297.1c0.7,0,1.2-0.1,1.6-0.3c0.4-0.2,0.8-0.5,1.1-0.7l1.8,2.2
					c-0.2,0.2-0.4,0.4-0.7,0.6s-0.6,0.4-1,0.6c-0.4,0.2-0.8,0.3-1.3,0.4c-0.5,0.1-1,0.2-1.5,0.2c-1,0-1.9-0.2-2.7-0.5
					c-0.8-0.3-1.5-0.8-2.1-1.4c-0.6-0.6-1-1.3-1.3-2.1c-0.3-0.8-0.5-1.7-0.5-2.6c0-0.9,0.2-1.8,0.5-2.6s0.8-1.5,1.4-2.1
					c0.6-0.6,1.3-1.1,2.1-1.4c0.8-0.3,1.7-0.5,2.7-0.5c0.6,0,1.1,0.1,1.6,0.2c0.5,0.1,0.9,0.2,1.3,0.4s0.7,0.4,1,0.6
					c0.3,0.2,0.5,0.4,0.7,0.6l-1.8,2.2c-0.3-0.3-0.6-0.5-1-0.7c-0.4-0.2-1-0.3-1.6-0.3c-0.5,0-1,0.1-1.4,0.3
					c-0.4,0.2-0.8,0.5-1.1,0.8s-0.5,0.7-0.7,1.2c-0.2,0.5-0.2,0.9-0.2,1.5c0,0.6,0.1,1.1,0.3,1.5c0.2,0.5,0.4,0.8,0.8,1.2
					s0.7,0.6,1.1,0.7C155.1,297,155.5,297.1,156,297.1z"/>
				<path id="XMLID_1383_" class="st8" d="M164.9,294.4c0.1,0.8,0.4,1.5,1,2c0.6,0.5,1.3,0.7,2.2,0.7c0.8,0,1.5-0.2,2-0.5
					c0.5-0.4,0.9-0.8,1.3-1.3l2.4,1.4c-0.2,0.4-0.4,0.8-0.8,1.2c-0.3,0.4-0.7,0.8-1.2,1.1c-0.5,0.3-1,0.6-1.6,0.8s-1.3,0.3-2.1,0.3
					c-1,0-1.9-0.2-2.7-0.5c-0.8-0.3-1.5-0.7-2.1-1.3c-0.6-0.6-1-1.3-1.3-2.1c-0.3-0.8-0.5-1.7-0.5-2.8c0-1,0.2-1.8,0.5-2.7
					c0.3-0.8,0.7-1.5,1.3-2.1c0.6-0.6,1.2-1.1,2-1.4s1.6-0.5,2.6-0.5c1,0,1.8,0.2,2.6,0.5s1.4,0.7,2,1.3c0.5,0.6,1,1.2,1.3,2
					c0.3,0.8,0.4,1.7,0.4,2.6c0,0.2,0,0.4,0,0.6c0,0.2,0,0.5,0,0.7H164.9z M167.8,289.5c-0.8,0-1.5,0.2-2,0.7
					c-0.5,0.5-0.8,1.1-0.9,1.8h5.8c-0.1-0.7-0.4-1.3-0.9-1.8C169.4,289.7,168.7,289.5,167.8,289.5z"/>
				<path id="XMLID_1381_" class="st8" d="M177.1,299.9c-0.4-0.1-0.8-0.3-1-0.7s-0.4-0.7-0.4-1.2c0-0.6,0.2-1.1,0.6-1.5
					c0.4-0.4,0.9-0.6,1.5-0.6s1.1,0.2,1.5,0.6c0.4,0.4,0.6,0.9,0.6,1.5c0,0.3,0,0.6-0.1,0.9c-0.1,0.3-0.2,0.6-0.4,0.9l-1.3,2.6h-2.2
					L177.1,299.9z"/>
				<path id="XMLID_1379_" class="st8" d="M190.1,290.4c0,0.6,0.4,1,1.1,1.2c0.3,0.1,0.6,0.2,0.9,0.2c0.3,0.1,0.6,0.1,0.9,0.2
					c0.5,0.2,1,0.3,1.3,0.6s0.7,0.5,1,0.8c0.3,0.3,0.4,0.7,0.6,1.1c0.1,0.4,0.2,0.9,0.2,1.5c0,0.7-0.1,1.2-0.4,1.7
					c-0.2,0.5-0.6,0.9-1,1.2c-0.4,0.3-0.9,0.6-1.5,0.8c-0.6,0.2-1.2,0.3-1.8,0.3c-0.9,0-1.6-0.1-2.2-0.4c-0.6-0.2-1.1-0.6-1.4-1
					c-0.4-0.4-0.6-0.9-0.7-1.4c-0.1-0.5-0.2-1.1-0.2-1.6h3.1c0,0.5,0.1,0.9,0.3,1.2s0.6,0.5,1.2,0.5c0.4,0,0.8-0.1,1.1-0.3
					c0.3-0.2,0.4-0.5,0.4-0.9c0-0.4-0.1-0.6-0.3-0.8s-0.5-0.4-1-0.5c-0.4-0.1-0.7-0.2-1-0.3s-0.6-0.2-1-0.3c-0.9-0.3-1.6-0.8-2-1.4
					c-0.4-0.6-0.7-1.4-0.7-2.4c0-0.5,0.1-1,0.3-1.5c0.2-0.5,0.5-0.9,0.9-1.2c0.4-0.3,0.9-0.6,1.4-0.8c0.5-0.2,1.1-0.3,1.8-0.3
					c1.4,0,2.4,0.3,3.2,1c0.8,0.7,1.1,1.7,1.2,3h-3c0-0.5-0.1-0.9-0.4-1.2c-0.2-0.3-0.6-0.4-1.1-0.4c-0.4,0-0.7,0.1-0.9,0.3
					S190.1,290.1,190.1,290.4z"/>
				<path id="XMLID_1377_" class="st8" d="M202.1,287h2v2.7h-2v6c0,0.5,0.1,0.8,0.3,1c0.2,0.2,0.5,0.3,1,0.3h0.7v2.7
					c0,0-0.2,0-0.5,0.1s-0.7,0.1-1.3,0.1c-1.2,0-2.1-0.3-2.6-0.9c-0.5-0.6-0.8-1.4-0.8-2.5v-6.9h-1.2V287h1.2v-2h3.2V287z"/>
				<path id="XMLID_1375_" class="st8" d="M212.5,290.3h-0.8c-0.6,0-1.1,0.1-1.3,0.4c-0.2,0.3-0.4,0.7-0.4,1.3v7.8h-3.2V287h3.2v1
					c0.2-0.3,0.5-0.6,0.9-0.8c0.4-0.2,0.9-0.3,1.6-0.3V290.3z"/>
				<path id="XMLID_1372_" class="st8" d="M217.5,294.4c0.1,0.8,0.4,1.5,1,2c0.6,0.5,1.3,0.7,2.2,0.7c0.8,0,1.5-0.2,2-0.5
					c0.5-0.4,0.9-0.8,1.3-1.3l2.4,1.4c-0.2,0.4-0.4,0.8-0.8,1.2c-0.3,0.4-0.7,0.8-1.2,1.1c-0.5,0.3-1,0.6-1.6,0.8s-1.3,0.3-2.1,0.3
					c-1,0-1.9-0.2-2.7-0.5c-0.8-0.3-1.5-0.7-2.1-1.3c-0.6-0.6-1-1.3-1.3-2.1c-0.3-0.8-0.5-1.7-0.5-2.8c0-1,0.2-1.8,0.5-2.7
					c0.3-0.8,0.7-1.5,1.3-2.1c0.6-0.6,1.2-1.1,2-1.4s1.6-0.5,2.6-0.5c1,0,1.8,0.2,2.6,0.5s1.4,0.7,2,1.3c0.5,0.6,1,1.2,1.3,2
					c0.3,0.8,0.4,1.7,0.4,2.6c0,0.2,0,0.4,0,0.6c0,0.2,0,0.5,0,0.7H217.5z M220.4,289.5c-0.8,0-1.5,0.2-2,0.7
					c-0.5,0.5-0.8,1.1-0.9,1.8h5.8c-0.1-0.7-0.4-1.3-0.9-1.8C221.9,289.7,221.2,289.5,220.4,289.5z"/>
				<path id="XMLID_1370_" class="st8" d="M231.9,290.4c0,0.6,0.4,1,1.1,1.2c0.3,0.1,0.6,0.2,0.9,0.2c0.3,0.1,0.6,0.1,0.9,0.2
					c0.5,0.2,1,0.3,1.3,0.6s0.7,0.5,1,0.8c0.3,0.3,0.4,0.7,0.6,1.1c0.1,0.4,0.2,0.9,0.2,1.5c0,0.7-0.1,1.2-0.4,1.7
					c-0.2,0.5-0.6,0.9-1,1.2c-0.4,0.3-0.9,0.6-1.5,0.8c-0.6,0.2-1.2,0.3-1.8,0.3c-0.9,0-1.6-0.1-2.2-0.4c-0.6-0.2-1.1-0.6-1.4-1
					c-0.4-0.4-0.6-0.9-0.7-1.4c-0.1-0.5-0.2-1.1-0.2-1.6h3.1c0,0.5,0.1,0.9,0.3,1.2s0.6,0.5,1.2,0.5c0.4,0,0.8-0.1,1.1-0.3
					c0.3-0.2,0.4-0.5,0.4-0.9c0-0.4-0.1-0.6-0.3-0.8s-0.5-0.4-1-0.5c-0.4-0.1-0.7-0.2-1-0.3s-0.6-0.2-1-0.3c-0.9-0.3-1.6-0.8-2-1.4
					c-0.4-0.6-0.7-1.4-0.7-2.4c0-0.5,0.1-1,0.3-1.5c0.2-0.5,0.5-0.9,0.9-1.2c0.4-0.3,0.9-0.6,1.4-0.8c0.5-0.2,1.1-0.3,1.8-0.3
					c1.4,0,2.4,0.3,3.2,1c0.8,0.7,1.1,1.7,1.2,3h-3c0-0.5-0.1-0.9-0.4-1.2c-0.2-0.3-0.6-0.4-1.1-0.4c-0.4,0-0.7,0.1-0.9,0.3
					S231.9,290.1,231.9,290.4z"/>
				<path id="XMLID_1368_" class="st8" d="M243.2,290.4c0,0.6,0.4,1,1.1,1.2c0.3,0.1,0.6,0.2,0.9,0.2c0.3,0.1,0.6,0.1,0.9,0.2
					c0.5,0.2,1,0.3,1.3,0.6c0.4,0.2,0.7,0.5,1,0.8c0.3,0.3,0.4,0.7,0.6,1.1c0.1,0.4,0.2,0.9,0.2,1.5c0,0.7-0.1,1.2-0.4,1.7
					c-0.2,0.5-0.6,0.9-1,1.2s-0.9,0.6-1.5,0.8c-0.6,0.2-1.2,0.3-1.8,0.3c-0.9,0-1.6-0.1-2.2-0.4c-0.6-0.2-1.1-0.6-1.4-1
					c-0.4-0.4-0.6-0.9-0.7-1.4c-0.1-0.5-0.2-1.1-0.2-1.6h3.1c0,0.5,0.1,0.9,0.3,1.2s0.6,0.5,1.2,0.5c0.4,0,0.8-0.1,1.1-0.3
					c0.3-0.2,0.4-0.5,0.4-0.9c0-0.4-0.1-0.6-0.3-0.8c-0.2-0.2-0.5-0.4-1-0.5c-0.4-0.1-0.7-0.2-1-0.3c-0.3-0.1-0.6-0.2-1-0.3
					c-0.9-0.3-1.6-0.8-2-1.4c-0.4-0.6-0.7-1.4-0.7-2.4c0-0.5,0.1-1,0.3-1.5c0.2-0.5,0.5-0.9,0.9-1.2c0.4-0.3,0.9-0.6,1.4-0.8
					c0.5-0.2,1.1-0.3,1.8-0.3c1.4,0,2.4,0.3,3.2,1c0.8,0.7,1.1,1.7,1.2,3h-3c0-0.5-0.1-0.9-0.4-1.2c-0.2-0.3-0.6-0.4-1.1-0.4
					c-0.4,0-0.7,0.1-0.9,0.3S243.2,290.1,243.2,290.4z"/>
				<path id="XMLID_1366_" class="st8" d="M87.5,324.3l-3.4,11.5h-3.8l-4.8-16.6h3.6l3.2,12.2l3.4-12.2h3.6l3.4,12.2l3.2-12.2h3.4
					l-4.7,16.6h-3.8L87.5,324.3z"/>
				<path id="XMLID_1363_" class="st8" d="M99.7,329.4c0-1,0.2-1.8,0.5-2.7c0.3-0.8,0.8-1.5,1.4-2.1c0.6-0.6,1.3-1.1,2.1-1.4
					s1.7-0.5,2.7-0.5c1,0,1.9,0.2,2.8,0.5s1.5,0.8,2.1,1.4c0.6,0.6,1,1.3,1.4,2.1c0.3,0.8,0.5,1.7,0.5,2.6s-0.2,1.8-0.5,2.6
					c-0.3,0.8-0.8,1.5-1.4,2.1c-0.6,0.6-1.3,1.1-2.1,1.4s-1.7,0.5-2.7,0.5c-1,0-1.9-0.2-2.7-0.5c-0.8-0.3-1.5-0.8-2.1-1.4
					c-0.6-0.6-1-1.3-1.4-2.1C99.8,331.3,99.7,330.4,99.7,329.4z M102.9,329.4c0,0.5,0.1,1,0.3,1.5s0.4,0.8,0.7,1.2
					c0.3,0.3,0.7,0.6,1.1,0.8c0.4,0.2,0.9,0.3,1.4,0.3c0.5,0,1-0.1,1.4-0.3c0.4-0.2,0.8-0.4,1.1-0.8s0.5-0.7,0.7-1.2
					c0.2-0.5,0.3-0.9,0.3-1.5s-0.1-1-0.3-1.5s-0.4-0.9-0.7-1.2c-0.3-0.3-0.7-0.6-1.1-0.8c-0.4-0.2-0.9-0.3-1.4-0.3
					c-0.5,0-1,0.1-1.4,0.3c-0.4,0.2-0.8,0.4-1.1,0.8c-0.3,0.3-0.5,0.7-0.7,1.2S102.9,328.9,102.9,329.4z"/>
				<path id="XMLID_1361_" class="st8" d="M121.4,326.3h-0.8c-0.6,0-1.1,0.1-1.3,0.4c-0.2,0.3-0.4,0.7-0.4,1.3v7.8h-3.2V323h3.2v1
					c0.2-0.3,0.5-0.6,0.9-0.8c0.4-0.2,0.9-0.3,1.6-0.3V326.3z"/>
				<path id="XMLID_1359_" class="st8" d="M126.5,326.4c0,0.6,0.4,1,1.1,1.2c0.3,0.1,0.6,0.2,0.9,0.2c0.3,0.1,0.6,0.1,0.9,0.2
					c0.5,0.2,1,0.3,1.3,0.6s0.7,0.5,1,0.8c0.3,0.3,0.4,0.7,0.6,1.1c0.1,0.4,0.2,0.9,0.2,1.5c0,0.7-0.1,1.2-0.4,1.7
					c-0.2,0.5-0.6,0.9-1,1.2c-0.4,0.3-0.9,0.6-1.5,0.8c-0.6,0.2-1.2,0.3-1.8,0.3c-0.9,0-1.6-0.1-2.2-0.4c-0.6-0.2-1.1-0.6-1.4-1
					c-0.4-0.4-0.6-0.9-0.7-1.4c-0.1-0.5-0.2-1.1-0.2-1.6h3.1c0,0.5,0.1,0.9,0.3,1.2s0.6,0.5,1.2,0.5c0.4,0,0.8-0.1,1.1-0.3
					c0.3-0.2,0.4-0.5,0.4-0.9c0-0.4-0.1-0.6-0.3-0.8s-0.5-0.4-1-0.5c-0.4-0.1-0.7-0.2-1-0.3s-0.6-0.2-1-0.3c-0.9-0.3-1.6-0.8-2-1.4
					c-0.4-0.6-0.7-1.4-0.7-2.4c0-0.5,0.1-1,0.3-1.5c0.2-0.5,0.5-0.9,0.9-1.2c0.4-0.3,0.9-0.6,1.4-0.8c0.5-0.2,1.1-0.3,1.8-0.3
					c1.4,0,2.4,0.3,3.2,1c0.8,0.7,1.1,1.7,1.2,3h-3c0-0.5-0.1-0.9-0.4-1.2c-0.2-0.3-0.6-0.4-1.1-0.4c-0.4,0-0.7,0.1-0.9,0.3
					S126.5,326.1,126.5,326.4z"/>
				<path id="XMLID_1356_" class="st8" d="M138,330.4c0.1,0.8,0.4,1.5,1,2c0.6,0.5,1.3,0.7,2.2,0.7c0.8,0,1.5-0.2,2-0.5
					c0.5-0.4,0.9-0.8,1.3-1.3l2.4,1.4c-0.2,0.4-0.4,0.8-0.8,1.2c-0.3,0.4-0.7,0.8-1.2,1.1c-0.5,0.3-1,0.6-1.6,0.8s-1.3,0.3-2.1,0.3
					c-1,0-1.9-0.2-2.7-0.5c-0.8-0.3-1.5-0.7-2.1-1.3c-0.6-0.6-1-1.3-1.3-2.1c-0.3-0.8-0.5-1.7-0.5-2.8c0-1,0.2-1.8,0.5-2.7
					c0.3-0.8,0.7-1.5,1.3-2.1c0.6-0.6,1.2-1.1,2-1.4s1.6-0.5,2.6-0.5c1,0,1.8,0.2,2.6,0.5s1.4,0.7,2,1.3c0.5,0.6,1,1.2,1.3,2
					c0.3,0.8,0.4,1.7,0.4,2.6c0,0.2,0,0.4,0,0.6c0,0.2,0,0.5,0,0.7H138z M140.9,325.5c-0.8,0-1.5,0.2-2,0.7
					c-0.5,0.5-0.8,1.1-0.9,1.8h5.8c-0.1-0.7-0.4-1.3-0.9-1.8C142.4,325.7,141.7,325.5,140.9,325.5z"/>
				<path id="XMLID_1353_" class="st8" d="M164.5,323h3v10.7c0,1.2-0.2,2.2-0.5,3.1c-0.3,0.8-0.8,1.5-1.4,2
					c-0.6,0.5-1.3,0.9-2.2,1.1c-0.8,0.2-1.8,0.3-2.7,0.3c-1,0-1.9-0.1-2.7-0.3c-0.8-0.2-1.5-0.5-2-0.8l1-2.5
					c0.4,0.2,0.9,0.5,1.6,0.7c0.7,0.2,1.4,0.3,2.2,0.3c0.5,0,1-0.1,1.4-0.2c0.4-0.1,0.8-0.3,1.2-0.5c0.3-0.2,0.6-0.5,0.8-0.9
					c0.2-0.3,0.3-0.8,0.3-1.2v-0.2c-0.1,0.2-0.3,0.3-0.5,0.5s-0.5,0.3-0.8,0.5c-0.3,0.1-0.6,0.3-1,0.3s-0.8,0.1-1.2,0.1
					c-1,0-1.9-0.2-2.7-0.5c-0.8-0.3-1.5-0.8-2.1-1.4c-0.6-0.6-1-1.3-1.4-2.1c-0.3-0.8-0.5-1.7-0.5-2.7c0-0.9,0.2-1.8,0.5-2.6
					c0.3-0.8,0.8-1.5,1.3-2.1c0.6-0.6,1.3-1.1,2.1-1.4c0.8-0.3,1.7-0.5,2.6-0.5c0.8,0,1.6,0.1,2.2,0.4s1.2,0.6,1.6,1V323z
					 M157.3,329.4c0,0.5,0.1,1,0.3,1.5c0.2,0.5,0.4,0.8,0.7,1.2c0.3,0.3,0.7,0.6,1.1,0.8c0.4,0.2,0.9,0.3,1.4,0.3
					c0.5,0,1-0.1,1.5-0.3c0.4-0.2,0.8-0.5,1.1-0.8s0.5-0.7,0.7-1.2c0.2-0.5,0.3-0.9,0.3-1.5c0-0.5-0.1-1-0.3-1.5
					c-0.2-0.5-0.4-0.9-0.7-1.2s-0.7-0.6-1.1-0.8c-0.4-0.2-0.9-0.3-1.4-0.3c-0.5,0-1,0.1-1.5,0.3c-0.4,0.2-0.8,0.5-1.1,0.8
					c-0.3,0.3-0.6,0.7-0.7,1.2C157.4,328.4,157.3,328.9,157.3,329.4z"/>
				<path id="XMLID_1350_" class="st8" d="M173.5,330.4c0.1,0.8,0.4,1.5,1,2c0.6,0.5,1.3,0.7,2.2,0.7c0.8,0,1.5-0.2,2-0.5
					c0.5-0.4,0.9-0.8,1.3-1.3l2.4,1.4c-0.2,0.4-0.4,0.8-0.8,1.2c-0.3,0.4-0.7,0.8-1.2,1.1c-0.5,0.3-1,0.6-1.6,0.8s-1.3,0.3-2.1,0.3
					c-1,0-1.9-0.2-2.7-0.5c-0.8-0.3-1.5-0.7-2.1-1.3c-0.6-0.6-1-1.3-1.3-2.1c-0.3-0.8-0.5-1.7-0.5-2.8c0-1,0.2-1.8,0.5-2.7
					c0.3-0.8,0.7-1.5,1.3-2.1c0.6-0.6,1.2-1.1,2-1.4s1.6-0.5,2.6-0.5c1,0,1.8,0.2,2.6,0.5s1.4,0.7,2,1.3c0.5,0.6,1,1.2,1.3,2
					c0.3,0.8,0.4,1.7,0.4,2.6c0,0.2,0,0.4,0,0.6c0,0.2,0,0.5,0,0.7H173.5z M176.4,325.5c-0.8,0-1.5,0.2-2,0.7
					c-0.5,0.5-0.8,1.1-0.9,1.8h5.8c-0.1-0.7-0.4-1.3-0.9-1.8C177.9,325.7,177.2,325.5,176.4,325.5z"/>
				<path id="XMLID_1348_" class="st8" d="M191.9,327.8c0-0.6-0.1-1.1-0.4-1.5c-0.3-0.4-0.7-0.5-1.3-0.5c-0.6,0-1,0.2-1.3,0.6
					c-0.3,0.4-0.5,0.9-0.5,1.5v8.1h-3.2V323h3.2v1c0.1-0.1,0.2-0.2,0.3-0.3c0.1-0.1,0.3-0.2,0.5-0.4c0.2-0.1,0.5-0.2,0.8-0.3
					c0.3-0.1,0.7-0.1,1.1-0.1c0.8,0,1.4,0.1,1.9,0.4c0.5,0.2,0.9,0.6,1.2,1c0.3,0.4,0.5,0.9,0.7,1.4c0.1,0.5,0.2,1.1,0.2,1.8v8.5
					h-3.2V327.8z"/>
				<path id="XMLID_1345_" class="st8" d="M201.1,330.4c0.1,0.8,0.4,1.5,1,2c0.6,0.5,1.3,0.7,2.2,0.7c0.8,0,1.5-0.2,2-0.5
					c0.5-0.4,0.9-0.8,1.3-1.3l2.4,1.4c-0.2,0.4-0.4,0.8-0.8,1.2c-0.3,0.4-0.7,0.8-1.2,1.1c-0.5,0.3-1,0.6-1.6,0.8s-1.3,0.3-2.1,0.3
					c-1,0-1.9-0.2-2.7-0.5c-0.8-0.3-1.5-0.7-2.1-1.3c-0.6-0.6-1-1.3-1.3-2.1c-0.3-0.8-0.5-1.7-0.5-2.8c0-1,0.2-1.8,0.5-2.7
					c0.3-0.8,0.7-1.5,1.3-2.1c0.6-0.6,1.2-1.1,2-1.4s1.6-0.5,2.6-0.5c1,0,1.8,0.2,2.6,0.5s1.4,0.7,2,1.3c0.5,0.6,1,1.2,1.3,2
					c0.3,0.8,0.4,1.7,0.4,2.6c0,0.2,0,0.4,0,0.6c0,0.2,0,0.5,0,0.7H201.1z M204,325.5c-0.8,0-1.5,0.2-2,0.7
					c-0.5,0.5-0.8,1.1-0.9,1.8h5.8c-0.1-0.7-0.4-1.3-0.9-1.8C205.6,325.7,204.9,325.5,204,325.5z"/>
				<path id="XMLID_1343_" class="st8" d="M218.6,326.3h-0.8c-0.6,0-1.1,0.1-1.3,0.4c-0.2,0.3-0.4,0.7-0.4,1.3v7.8h-3.2V323h3.2v1
					c0.2-0.3,0.5-0.6,0.9-0.8c0.4-0.2,0.9-0.3,1.6-0.3V326.3z"/>
				<path id="XMLID_1340_" class="st8" d="M220.2,331.6c0-0.6,0.1-1.1,0.3-1.7s0.5-1,0.9-1.3c0.4-0.4,0.8-0.7,1.4-0.9
					c0.5-0.2,1.2-0.3,1.8-0.3c0.6,0,1.1,0.1,1.4,0.2s0.7,0.2,0.8,0.3v-0.6c0-0.6-0.1-1-0.4-1.4s-0.7-0.5-1.3-0.5
					c-0.3,0-0.6,0-0.8,0.1s-0.4,0.2-0.5,0.3c-0.1,0.1-0.2,0.3-0.3,0.5c0,0.2-0.1,0.4-0.1,0.5h-3c0-1.2,0.4-2.2,1.2-2.9
					c0.7-0.7,1.9-1.1,3.4-1.1c0.9,0,1.7,0.1,2.3,0.4s1.1,0.6,1.5,1c0.4,0.4,0.6,0.9,0.8,1.5c0.2,0.6,0.2,1.3,0.2,2v8.1h-2.7V335
					c-0.2,0.2-0.5,0.4-0.9,0.6c-0.4,0.2-1,0.3-1.8,0.3c-0.6,0-1.2-0.1-1.8-0.3c-0.5-0.2-1-0.5-1.4-0.9c-0.4-0.4-0.7-0.8-0.9-1.4
					C220.3,332.9,220.2,332.3,220.2,331.6z M223.2,331.6c0,0.5,0.2,1,0.5,1.3c0.3,0.3,0.8,0.5,1.4,0.5c0.5,0,1-0.2,1.3-0.5
					c0.4-0.3,0.5-0.8,0.5-1.3s-0.2-1-0.5-1.3c-0.4-0.3-0.8-0.5-1.3-0.5c-0.6,0-1,0.2-1.3,0.5C223.4,330.7,223.2,331.1,223.2,331.6z"
					/>
				<path id="XMLID_1338_" class="st8" d="M236.3,335.8h-3.2v-17.5h3.2V335.8z"/>
				<path id="XMLID_1336_" class="st8" d="M251,327.8c0-0.6-0.1-1.1-0.4-1.5c-0.3-0.4-0.7-0.5-1.3-0.5c-0.6,0-1,0.2-1.3,0.6
					c-0.3,0.4-0.5,0.9-0.5,1.5v8.1h-3.2v-17.5h3.2v5.7c0.1-0.1,0.2-0.2,0.3-0.3s0.3-0.2,0.6-0.4c0.2-0.1,0.5-0.2,0.8-0.3
					c0.3-0.1,0.6-0.1,1-0.1c0.8,0,1.4,0.1,1.9,0.4s0.9,0.6,1.2,1s0.5,0.9,0.7,1.4c0.1,0.5,0.2,1.1,0.2,1.8v8.5H251V327.8z"/>
				<path id="XMLID_1333_" class="st8" d="M260.2,330.4c0.1,0.8,0.4,1.5,1,2c0.6,0.5,1.3,0.7,2.2,0.7c0.8,0,1.5-0.2,2-0.5
					c0.5-0.4,0.9-0.8,1.3-1.3l2.4,1.4c-0.2,0.4-0.4,0.8-0.8,1.2c-0.3,0.4-0.7,0.8-1.2,1.1c-0.5,0.3-1,0.6-1.6,0.8
					c-0.6,0.2-1.3,0.3-2.1,0.3c-1,0-1.9-0.2-2.7-0.5s-1.5-0.7-2.1-1.3c-0.6-0.6-1-1.3-1.3-2.1c-0.3-0.8-0.5-1.7-0.5-2.8
					c0-1,0.2-1.8,0.5-2.7c0.3-0.8,0.7-1.5,1.3-2.1c0.6-0.6,1.2-1.1,2-1.4c0.8-0.3,1.6-0.5,2.6-0.5c1,0,1.8,0.2,2.6,0.5
					c0.8,0.3,1.4,0.7,2,1.3c0.5,0.6,1,1.2,1.3,2c0.3,0.8,0.4,1.7,0.4,2.6c0,0.2,0,0.4,0,0.6c0,0.2,0,0.5,0,0.7H260.2z M263.1,325.5
					c-0.8,0-1.5,0.2-2,0.7c-0.5,0.5-0.8,1.1-0.9,1.8h5.8c-0.1-0.7-0.4-1.3-0.9-1.8S264,325.5,263.1,325.5z"/>
				<path id="XMLID_1330_" class="st8" d="M271.5,331.6c0-0.6,0.1-1.1,0.3-1.7c0.2-0.5,0.5-1,0.9-1.3s0.8-0.7,1.4-0.9
					c0.5-0.2,1.2-0.3,1.8-0.3c0.6,0,1.1,0.1,1.4,0.2c0.4,0.1,0.7,0.2,0.8,0.3v-0.6c0-0.6-0.1-1-0.4-1.4s-0.7-0.5-1.3-0.5
					c-0.3,0-0.6,0-0.8,0.1c-0.2,0.1-0.4,0.2-0.5,0.3c-0.1,0.1-0.2,0.3-0.3,0.5c0,0.2-0.1,0.4-0.1,0.5h-3c0-1.2,0.4-2.2,1.2-2.9
					c0.7-0.7,1.9-1.1,3.4-1.1c0.9,0,1.7,0.1,2.3,0.4c0.6,0.2,1.1,0.6,1.5,1c0.4,0.4,0.6,0.9,0.8,1.5c0.2,0.6,0.2,1.3,0.2,2v8.1h-2.7
					V335c-0.2,0.2-0.5,0.4-0.9,0.6c-0.4,0.2-1,0.3-1.8,0.3c-0.6,0-1.2-0.1-1.8-0.3c-0.5-0.2-1-0.5-1.4-0.9c-0.4-0.4-0.7-0.8-0.9-1.4
					C271.6,332.9,271.5,332.3,271.5,331.6z M274.5,331.6c0,0.5,0.2,1,0.5,1.3c0.3,0.3,0.8,0.5,1.4,0.5c0.5,0,1-0.2,1.3-0.5
					c0.4-0.3,0.5-0.8,0.5-1.3s-0.2-1-0.5-1.3c-0.4-0.3-0.8-0.5-1.3-0.5c-0.6,0-1,0.2-1.3,0.5C274.7,330.7,274.5,331.1,274.5,331.6z"
					/>
				<path id="XMLID_1328_" class="st8" d="M287.6,335.8h-3.2v-17.5h3.2V335.8z"/>
				<path id="XMLID_1326_" class="st8" d="M294.5,323h2v2.7h-2v6c0,0.5,0.1,0.8,0.3,1c0.2,0.2,0.5,0.3,1,0.3h0.7v2.7
					c0,0-0.2,0-0.5,0.1c-0.3,0.1-0.7,0.1-1.3,0.1c-1.2,0-2.1-0.3-2.6-0.9c-0.5-0.6-0.8-1.4-0.8-2.5v-6.9h-1.2V323h1.2v-2h3.2V323z"
					/>
				<path id="XMLID_1324_" class="st8" d="M305.9,327.8c0-0.6-0.1-1.1-0.4-1.5c-0.3-0.4-0.7-0.5-1.3-0.5c-0.6,0-1,0.2-1.3,0.6
					c-0.3,0.4-0.5,0.9-0.5,1.5v8.1h-3.2v-17.5h3.2v5.7c0.1-0.1,0.2-0.2,0.3-0.3s0.3-0.2,0.6-0.4c0.2-0.1,0.5-0.2,0.8-0.3
					c0.3-0.1,0.6-0.1,1-0.1c0.8,0,1.4,0.1,1.9,0.4s0.9,0.6,1.2,1s0.5,0.9,0.7,1.4c0.1,0.5,0.2,1.1,0.2,1.8v8.5h-3.2V327.8z"/>
				<path id="XMLID_1322_" class="st8" d="M80,371.8h-3.3v-16.6H80V371.8z"/>
				<path id="XMLID_1320_" class="st8" d="M90,363.8c0-0.6-0.1-1.1-0.4-1.5c-0.3-0.4-0.7-0.5-1.3-0.5c-0.6,0-1,0.2-1.3,0.6
					c-0.3,0.4-0.5,0.9-0.5,1.5v8.1h-3.2V359h3.2v1c0.1-0.1,0.2-0.2,0.3-0.3c0.1-0.1,0.3-0.2,0.5-0.4c0.2-0.1,0.5-0.2,0.8-0.3
					c0.3-0.1,0.7-0.1,1.1-0.1c0.8,0,1.4,0.1,1.9,0.4c0.5,0.2,0.9,0.6,1.2,1c0.3,0.4,0.5,0.9,0.7,1.4c0.1,0.5,0.2,1.1,0.2,1.8v8.5H90
					V363.8z"/>
				<path id="XMLID_1318_" class="st8" d="M102.4,369.1c0.7,0,1.2-0.1,1.6-0.3c0.4-0.2,0.8-0.5,1.1-0.7l1.8,2.2
					c-0.2,0.2-0.4,0.4-0.7,0.6s-0.6,0.4-1,0.6c-0.4,0.2-0.8,0.3-1.3,0.4c-0.5,0.1-1,0.2-1.5,0.2c-1,0-1.9-0.2-2.7-0.5
					c-0.8-0.3-1.5-0.8-2.1-1.4c-0.6-0.6-1-1.3-1.3-2.1c-0.3-0.8-0.5-1.7-0.5-2.6c0-0.9,0.2-1.8,0.5-2.6s0.8-1.5,1.4-2.1
					c0.6-0.6,1.3-1.1,2.1-1.4c0.8-0.3,1.7-0.5,2.7-0.5c0.6,0,1.1,0.1,1.6,0.2c0.5,0.1,0.9,0.2,1.3,0.4s0.7,0.4,1,0.6
					c0.3,0.2,0.5,0.4,0.7,0.6l-1.8,2.2c-0.3-0.3-0.6-0.5-1-0.7c-0.4-0.2-1-0.3-1.6-0.3c-0.5,0-1,0.1-1.4,0.3
					c-0.4,0.2-0.8,0.5-1.1,0.8s-0.5,0.7-0.7,1.2c-0.2,0.5-0.2,0.9-0.2,1.5c0,0.6,0.1,1.1,0.3,1.5c0.2,0.5,0.4,0.8,0.8,1.2
					s0.7,0.6,1.1,0.7C101.5,369.1,102,369.1,102.4,369.1z"/>
				<path id="XMLID_1316_" class="st8" d="M114.9,362.3h-0.8c-0.6,0-1.1,0.1-1.3,0.4c-0.2,0.3-0.4,0.7-0.4,1.3v7.8h-3.2V359h3.2v1
					c0.2-0.3,0.5-0.6,0.9-0.8c0.4-0.2,0.9-0.3,1.6-0.3V362.3z"/>
				<path id="XMLID_1313_" class="st8" d="M119.9,366.5c0.1,0.8,0.4,1.5,1,2c0.6,0.5,1.3,0.7,2.2,0.7c0.8,0,1.5-0.2,2-0.5
					c0.5-0.4,0.9-0.8,1.3-1.3l2.4,1.4c-0.2,0.4-0.4,0.8-0.8,1.2c-0.3,0.4-0.7,0.8-1.2,1.1c-0.5,0.3-1,0.6-1.6,0.8s-1.3,0.3-2.1,0.3
					c-1,0-1.9-0.2-2.7-0.5c-0.8-0.3-1.5-0.7-2.1-1.3c-0.6-0.6-1-1.3-1.3-2.1c-0.3-0.8-0.5-1.7-0.5-2.8c0-1,0.2-1.8,0.5-2.7
					c0.3-0.8,0.7-1.5,1.3-2.1c0.6-0.6,1.2-1.1,2-1.4s1.6-0.5,2.6-0.5c1,0,1.8,0.2,2.6,0.5s1.4,0.7,2,1.3c0.5,0.6,1,1.2,1.3,2
					c0.3,0.8,0.4,1.7,0.4,2.6c0,0.2,0,0.4,0,0.6c0,0.2,0,0.5,0,0.7H119.9z M122.8,361.5c-0.8,0-1.5,0.2-2,0.7
					c-0.5,0.5-0.8,1.1-0.9,1.8h5.8c-0.1-0.7-0.4-1.3-0.9-1.8C124.4,361.7,123.7,361.5,122.8,361.5z"/>
				<path id="XMLID_1310_" class="st8" d="M131.2,367.6c0-0.6,0.1-1.1,0.3-1.7s0.5-1,0.9-1.3c0.4-0.4,0.8-0.7,1.4-0.9
					c0.5-0.2,1.2-0.3,1.8-0.3c0.6,0,1.1,0.1,1.4,0.2s0.7,0.2,0.8,0.3v-0.6c0-0.6-0.1-1-0.4-1.4s-0.7-0.5-1.3-0.5
					c-0.3,0-0.6,0-0.8,0.1s-0.4,0.2-0.5,0.3c-0.1,0.1-0.2,0.3-0.3,0.5c0,0.2-0.1,0.4-0.1,0.5h-3c0-1.2,0.4-2.2,1.2-2.9
					c0.7-0.7,1.9-1.1,3.4-1.1c0.9,0,1.7,0.1,2.3,0.4s1.1,0.6,1.5,1c0.4,0.4,0.6,0.9,0.8,1.5c0.2,0.6,0.2,1.3,0.2,2v8.1h-2.7V371
					c-0.2,0.2-0.5,0.4-0.9,0.6c-0.4,0.2-1,0.3-1.8,0.3c-0.6,0-1.2-0.1-1.8-0.3c-0.5-0.2-1-0.5-1.4-0.9c-0.4-0.4-0.7-0.8-0.9-1.4
					C131.3,368.9,131.2,368.3,131.2,367.6z M134.2,367.6c0,0.5,0.2,1,0.5,1.3c0.3,0.3,0.8,0.5,1.4,0.5c0.5,0,1-0.2,1.3-0.5
					c0.4-0.3,0.5-0.8,0.5-1.3s-0.2-1-0.5-1.3c-0.4-0.3-0.8-0.5-1.3-0.5c-0.6,0-1,0.2-1.3,0.5C134.4,366.7,134.2,367.1,134.2,367.6z"
					/>
				<path id="XMLID_1308_" class="st8" d="M146.9,362.4c0,0.6,0.4,1,1.1,1.2c0.3,0.1,0.6,0.2,0.9,0.2c0.3,0.1,0.6,0.1,0.9,0.2
					c0.5,0.2,1,0.3,1.3,0.6s0.7,0.5,1,0.8c0.3,0.3,0.4,0.7,0.6,1.1c0.1,0.4,0.2,0.9,0.2,1.5c0,0.7-0.1,1.2-0.4,1.7
					c-0.2,0.5-0.6,0.9-1,1.2c-0.4,0.3-0.9,0.6-1.5,0.8c-0.6,0.2-1.2,0.3-1.8,0.3c-0.9,0-1.6-0.1-2.2-0.4c-0.6-0.2-1.1-0.6-1.4-1
					c-0.4-0.4-0.6-0.9-0.7-1.4c-0.1-0.5-0.2-1.1-0.2-1.6h3.1c0,0.5,0.1,0.9,0.3,1.2s0.6,0.5,1.2,0.5c0.4,0,0.8-0.1,1.1-0.3
					c0.3-0.2,0.4-0.5,0.4-0.9c0-0.4-0.1-0.6-0.3-0.8s-0.5-0.4-1-0.5c-0.4-0.1-0.7-0.2-1-0.3s-0.6-0.2-1-0.3c-0.9-0.3-1.6-0.8-2-1.4
					c-0.4-0.6-0.7-1.4-0.7-2.4c0-0.5,0.1-1,0.3-1.5c0.2-0.5,0.5-0.9,0.9-1.2c0.4-0.3,0.9-0.6,1.4-0.8c0.5-0.2,1.1-0.3,1.8-0.3
					c1.4,0,2.4,0.3,3.2,1c0.8,0.7,1.1,1.7,1.2,3h-3c0-0.5-0.1-0.9-0.4-1.2c-0.2-0.3-0.6-0.4-1.1-0.4c-0.4,0-0.7,0.1-0.9,0.3
					S146.9,362.1,146.9,362.4z"/>
				<path id="XMLID_1305_" class="st8" d="M158.4,366.5c0.1,0.8,0.4,1.5,1,2c0.6,0.5,1.3,0.7,2.2,0.7c0.8,0,1.5-0.2,2-0.5
					c0.5-0.4,0.9-0.8,1.3-1.3l2.4,1.4c-0.2,0.4-0.4,0.8-0.8,1.2c-0.3,0.4-0.7,0.8-1.2,1.1c-0.5,0.3-1,0.6-1.6,0.8s-1.3,0.3-2.1,0.3
					c-1,0-1.9-0.2-2.7-0.5c-0.8-0.3-1.5-0.7-2.1-1.3c-0.6-0.6-1-1.3-1.3-2.1c-0.3-0.8-0.5-1.7-0.5-2.8c0-1,0.2-1.8,0.5-2.7
					c0.3-0.8,0.7-1.5,1.3-2.1c0.6-0.6,1.2-1.1,2-1.4s1.6-0.5,2.6-0.5c1,0,1.8,0.2,2.6,0.5s1.4,0.7,2,1.3c0.5,0.6,1,1.2,1.3,2
					c0.3,0.8,0.4,1.7,0.4,2.6c0,0.2,0,0.4,0,0.6c0,0.2,0,0.5,0,0.7H158.4z M161.3,361.5c-0.8,0-1.5,0.2-2,0.7
					c-0.5,0.5-0.8,1.1-0.9,1.8h5.8c-0.1-0.7-0.4-1.3-0.9-1.8C162.8,361.7,162.1,361.5,161.3,361.5z"/>
				<path id="XMLID_1302_" class="st8" d="M176.6,358.2c-0.5,0-1-0.2-1.4-0.6s-0.6-0.8-0.6-1.3c0-0.5,0.2-1,0.6-1.4s0.8-0.6,1.4-0.6
					c0.5,0,1,0.2,1.4,0.6s0.6,0.8,0.6,1.4c0,0.5-0.2,1-0.6,1.3S177.1,358.2,176.6,358.2z M178.2,371.8H175V359h3.2V371.8z"/>
				<path id="XMLID_1300_" class="st8" d="M188,363.8c0-0.6-0.1-1.1-0.4-1.5c-0.3-0.4-0.7-0.5-1.3-0.5c-0.6,0-1,0.2-1.3,0.6
					c-0.3,0.4-0.5,0.9-0.5,1.5v8.1h-3.2V359h3.2v1c0.1-0.1,0.2-0.2,0.3-0.3c0.1-0.1,0.3-0.2,0.5-0.4c0.2-0.1,0.5-0.2,0.8-0.3
					c0.3-0.1,0.7-0.1,1.1-0.1c0.8,0,1.4,0.1,1.9,0.4c0.5,0.2,0.9,0.6,1.2,1c0.3,0.4,0.5,0.9,0.7,1.4c0.1,0.5,0.2,1.1,0.2,1.8v8.5
					H188V363.8z"/>
				<path id="XMLID_1298_" class="st8" d="M209,371.8h-3.2v-8.1c0-0.6-0.1-1.1-0.4-1.5c-0.3-0.4-0.7-0.6-1.3-0.6
					c-0.6,0-1,0.2-1.3,0.6c-0.3,0.4-0.4,0.9-0.4,1.5v8h-3.2V359h3.2v1c0.2-0.2,0.5-0.4,0.9-0.7s1-0.4,1.9-0.4c0.8,0,1.4,0.1,1.9,0.4
					s0.9,0.6,1.2,1c0.3-0.3,0.7-0.7,1.2-0.9c0.5-0.3,1.2-0.4,2-0.4c0.8,0,1.5,0.1,2,0.4c0.6,0.2,1,0.6,1.3,1
					c0.3,0.4,0.6,0.9,0.7,1.4c0.2,0.5,0.2,1.1,0.2,1.8v8.5h-3.2v-8.1c0-0.6-0.1-1.1-0.4-1.5c-0.3-0.4-0.7-0.5-1.3-0.5
					s-1,0.2-1.3,0.6c-0.3,0.4-0.4,0.9-0.4,1.4V371.8z"/>
				<path id="XMLID_1295_" class="st8" d="M218.2,365.4c0-1,0.2-1.8,0.5-2.7c0.3-0.8,0.8-1.5,1.4-2.1c0.6-0.6,1.3-1.1,2.1-1.4
					s1.7-0.5,2.7-0.5c1,0,1.9,0.2,2.8,0.5s1.5,0.8,2.1,1.4c0.6,0.6,1,1.3,1.4,2.1c0.3,0.8,0.5,1.7,0.5,2.6s-0.2,1.8-0.5,2.6
					c-0.3,0.8-0.8,1.5-1.4,2.1c-0.6,0.6-1.3,1.1-2.1,1.4s-1.7,0.5-2.7,0.5c-1,0-1.9-0.2-2.7-0.5c-0.8-0.3-1.5-0.8-2.1-1.4
					c-0.6-0.6-1-1.3-1.4-2.1C218.4,367.3,218.2,366.4,218.2,365.4z M221.5,365.4c0,0.5,0.1,1,0.3,1.5s0.4,0.8,0.7,1.2
					c0.3,0.3,0.7,0.6,1.1,0.8c0.4,0.2,0.9,0.3,1.4,0.3c0.5,0,1-0.1,1.4-0.3c0.4-0.2,0.8-0.4,1.1-0.8s0.5-0.7,0.7-1.2
					c0.2-0.5,0.3-0.9,0.3-1.5s-0.1-1-0.3-1.5s-0.4-0.9-0.7-1.2c-0.3-0.3-0.7-0.6-1.1-0.8c-0.4-0.2-0.9-0.3-1.4-0.3
					c-0.5,0-1,0.1-1.4,0.3c-0.4,0.2-0.8,0.4-1.1,0.8c-0.3,0.3-0.5,0.7-0.7,1.2S221.5,364.9,221.5,365.4z"/>
				<path id="XMLID_1293_" class="st8" d="M240,362.3h-0.8c-0.6,0-1.1,0.1-1.3,0.4c-0.2,0.3-0.4,0.7-0.4,1.3v7.8h-3.2V359h3.2v1
					c0.2-0.3,0.5-0.6,0.9-0.8c0.4-0.2,0.9-0.3,1.6-0.3V362.3z"/>
				<path id="XMLID_1291_" class="st8" d="M246.4,359h2v2.7h-2v6c0,0.5,0.1,0.8,0.3,1c0.2,0.2,0.5,0.3,1,0.3h0.7v2.7
					c0,0-0.2,0-0.5,0.1c-0.3,0.1-0.7,0.1-1.3,0.1c-1.2,0-2.1-0.3-2.6-0.9c-0.5-0.6-0.8-1.4-0.8-2.5v-6.9H242V359h1.2v-2h3.2V359z"/>
				<path id="XMLID_1288_" class="st8" d="M250.4,367.6c0-0.6,0.1-1.1,0.3-1.7c0.2-0.5,0.5-1,0.9-1.3s0.8-0.7,1.4-0.9
					c0.5-0.2,1.2-0.3,1.8-0.3c0.6,0,1.1,0.1,1.4,0.2c0.4,0.1,0.7,0.2,0.8,0.3v-0.6c0-0.6-0.1-1-0.4-1.4s-0.7-0.5-1.3-0.5
					c-0.3,0-0.6,0-0.8,0.1c-0.2,0.1-0.4,0.2-0.5,0.3c-0.1,0.1-0.2,0.3-0.3,0.5c0,0.2-0.1,0.4-0.1,0.5h-3c0-1.2,0.4-2.2,1.2-2.9
					c0.7-0.7,1.9-1.1,3.4-1.1c0.9,0,1.7,0.1,2.3,0.4c0.6,0.2,1.1,0.6,1.5,1c0.4,0.4,0.6,0.9,0.8,1.5c0.2,0.6,0.2,1.3,0.2,2v8.1h-2.7
					V371c-0.2,0.2-0.5,0.4-0.9,0.6c-0.4,0.2-1,0.3-1.8,0.3c-0.6,0-1.2-0.1-1.8-0.3c-0.5-0.2-1-0.5-1.4-0.9c-0.4-0.4-0.7-0.8-0.9-1.4
					C250.5,368.9,250.4,368.3,250.4,367.6z M253.4,367.6c0,0.5,0.2,1,0.5,1.3c0.3,0.3,0.8,0.5,1.4,0.5c0.5,0,1-0.2,1.3-0.5
					c0.4-0.3,0.5-0.8,0.5-1.3s-0.2-1-0.5-1.3c-0.4-0.3-0.8-0.5-1.3-0.5c-0.6,0-1,0.2-1.3,0.5C253.6,366.7,253.4,367.1,253.4,367.6z"
					/>
				<path id="XMLID_1286_" class="st8" d="M266.5,371.8h-3.2v-17.5h3.2V371.8z"/>
				<path id="XMLID_1283_" class="st8" d="M271.3,358.2c-0.5,0-1-0.2-1.4-0.6c-0.4-0.4-0.6-0.8-0.6-1.3c0-0.5,0.2-1,0.6-1.4
					c0.4-0.4,0.8-0.6,1.4-0.6c0.5,0,1,0.2,1.4,0.6c0.4,0.4,0.6,0.8,0.6,1.4c0,0.5-0.2,1-0.6,1.3C272.3,358,271.8,358.2,271.3,358.2z
					 M272.9,371.8h-3.2V359h3.2V371.8z"/>
				<path id="XMLID_1281_" class="st8" d="M279.7,359h2v2.7h-2v6c0,0.5,0.1,0.8,0.3,1c0.2,0.2,0.5,0.3,1,0.3h0.7v2.7
					c0,0-0.2,0-0.5,0.1c-0.3,0.1-0.7,0.1-1.3,0.1c-1.2,0-2.1-0.3-2.6-0.9c-0.5-0.6-0.8-1.4-0.8-2.5v-6.9h-1.2V359h1.2v-2h3.2V359z"
					/>
				<path id="XMLID_1279_" class="st8" d="M286.7,376l1.7-4.7l-4.9-12.3h3.6l3,8l2.9-8h3.3l-6.5,17H286.7z"/>
			</g>
		</g>
		<circle id="XMLID_110_" class="st7" cx="64.2" cy="292.1" r="5.5"/>
		<g id="XMLID_97_">
			<circle id="XMLID_106_" class="st7" cx="64.2" cy="328.8" r="5.5"/>
		</g>
		<circle id="XMLID_78_" class="st7" cx="64.2" cy="365.1" r="5.5"/>
	</g>
</g>
<g id="Cap">
	<g id="XMLID_196_">
		<g id="XMLID_425_">
			<path id="XMLID_434_" class="st8" d="M94.2,82h-4.6v-9.6h-9.1V82h-4.6V59.2h4.6v8.9h9.1v-8.9h4.6V82z"/>
			<path id="XMLID_432_" class="st8" d="M99.1,82V59.2h10.5v4.3h-5.9v4.8h5.7v4.3h-5.7v5.2h6V82H99.1z"/>
			<path id="XMLID_429_" class="st8" d="M127,75.8h-7.8l-2.2,6.3h-4.5l8.3-22.8h4.8l8.6,22.8h-4.9L127,75.8z M120.6,71.9h5L123,65
				L120.6,71.9z"/>
			<path id="XMLID_426_" class="st8" d="M141.8,59.2c1.9,0,3.5,0.3,5,0.8c1.5,0.5,2.7,1.3,3.8,2.2c1,1,1.8,2.2,2.4,3.6
				s0.8,3,0.8,4.8c0,1.8-0.3,3.3-0.8,4.8s-1.3,2.6-2.4,3.6s-2.3,1.8-3.8,2.3s-3.1,0.8-5,0.8h-4.6V59.2H141.8z M141.7,78h0.3
				c2.2,0,3.9-0.6,5.1-1.9s1.9-3.1,1.9-5.6c0-2.4-0.6-4.3-1.8-5.5c-1.2-1.3-2.9-1.9-5.1-1.9h-0.3V78z"/>
		</g>
	</g>
	<g id="XMLID_1_">
		<g id="XMLID_4_">
			<g id="XMLID_691_">
				<path id="XMLID_738_" class="st8" d="M86.3,133.5h-3.2l-4.6-12.4v12.4h-3.1v-16.6h5l4.4,12.3l4.4-12.3h4.8v16.6h-3.2v-12.4
					L86.3,133.5z"/>
				<path id="XMLID_735_" class="st8" d="M100.3,128.1c0.1,0.8,0.4,1.5,1,2c0.6,0.5,1.3,0.7,2.2,0.7c0.8,0,1.5-0.2,2-0.5
					c0.5-0.4,0.9-0.8,1.3-1.3l2.4,1.4c-0.2,0.4-0.4,0.8-0.8,1.2c-0.3,0.4-0.7,0.8-1.2,1.1c-0.5,0.3-1,0.6-1.6,0.8s-1.3,0.3-2.1,0.3
					c-1,0-1.9-0.2-2.7-0.5c-0.8-0.3-1.5-0.7-2.1-1.3c-0.6-0.6-1-1.3-1.3-2.1c-0.3-0.8-0.5-1.7-0.5-2.8c0-1,0.2-1.8,0.5-2.7
					c0.3-0.8,0.7-1.5,1.3-2.1c0.6-0.6,1.2-1.1,2-1.4s1.6-0.5,2.6-0.5c1,0,1.8,0.2,2.6,0.5s1.4,0.7,2,1.3c0.5,0.6,1,1.2,1.3,2
					c0.3,0.8,0.4,1.7,0.4,2.6c0,0.2,0,0.4,0,0.6c0,0.2,0,0.5,0,0.7H100.3z M103.2,123.2c-0.8,0-1.5,0.2-2,0.7
					c-0.5,0.5-0.8,1.1-0.9,1.8h5.8c-0.1-0.7-0.4-1.3-0.9-1.8C104.7,123.4,104.1,123.2,103.2,123.2z"/>
				<path id="XMLID_733_" class="st8" d="M118.8,125.5c0-0.6-0.1-1.1-0.4-1.5c-0.3-0.4-0.7-0.5-1.3-0.5c-0.6,0-1,0.2-1.3,0.6
					c-0.3,0.4-0.5,0.9-0.5,1.5v8.1H112v-12.8h3.2v1c0.1-0.1,0.2-0.2,0.3-0.3c0.1-0.1,0.3-0.2,0.5-0.4c0.2-0.1,0.5-0.2,0.8-0.3
					c0.3-0.1,0.7-0.1,1.1-0.1c0.8,0,1.4,0.1,1.9,0.4c0.5,0.2,0.9,0.6,1.2,1c0.3,0.4,0.5,0.9,0.7,1.4c0.1,0.5,0.2,1.1,0.2,1.8v8.5
					h-3.2V125.5z"/>
				<path id="XMLID_731_" class="st8" d="M128.5,120.7h2v2.7h-2v6c0,0.5,0.1,0.8,0.3,1c0.2,0.2,0.5,0.3,1,0.3h0.7v2.7
					c0,0-0.2,0-0.5,0.1s-0.7,0.1-1.3,0.1c-1.2,0-2.1-0.3-2.6-0.9c-0.5-0.6-0.8-1.4-0.8-2.5v-6.9h-1.2v-2.7h1.2v-2h3.2V120.7z"/>
				<path id="XMLID_728_" class="st8" d="M132.5,129.3c0-0.6,0.1-1.1,0.3-1.7s0.5-1,0.9-1.3c0.4-0.4,0.8-0.7,1.4-0.9
					c0.5-0.2,1.2-0.3,1.8-0.3c0.6,0,1.1,0.1,1.4,0.2s0.7,0.2,0.8,0.3V125c0-0.6-0.1-1-0.4-1.4s-0.7-0.5-1.3-0.5
					c-0.3,0-0.6,0-0.8,0.1s-0.4,0.2-0.5,0.3c-0.1,0.1-0.2,0.3-0.3,0.5c0,0.2-0.1,0.4-0.1,0.5h-3c0-1.2,0.4-2.2,1.2-2.9
					c0.7-0.7,1.9-1.1,3.4-1.1c0.9,0,1.7,0.1,2.3,0.4s1.1,0.6,1.5,1c0.4,0.4,0.6,0.9,0.8,1.5c0.2,0.6,0.2,1.3,0.2,2v8.1h-2.7v-0.8
					c-0.2,0.2-0.5,0.4-0.9,0.6c-0.4,0.2-1,0.3-1.8,0.3c-0.6,0-1.2-0.1-1.8-0.3c-0.5-0.2-1-0.5-1.4-0.9c-0.4-0.4-0.7-0.8-0.9-1.4
					C132.6,130.6,132.5,130,132.5,129.3z M135.6,129.3c0,0.5,0.2,1,0.5,1.3c0.3,0.3,0.8,0.5,1.4,0.5c0.5,0,1-0.2,1.3-0.5
					c0.4-0.3,0.5-0.8,0.5-1.3s-0.2-1-0.5-1.3c-0.4-0.3-0.8-0.5-1.3-0.5c-0.6,0-1,0.2-1.3,0.5C135.7,128.4,135.6,128.8,135.6,129.3z"
					/>
				<path id="XMLID_726_" class="st8" d="M148.7,133.5h-3.2V116h3.2V133.5z"/>
				<path id="XMLID_724_" class="st8" d="M163.3,125.5c0-0.6-0.1-1.1-0.4-1.5c-0.3-0.4-0.7-0.5-1.3-0.5c-0.6,0-1,0.2-1.3,0.6
					c-0.3,0.4-0.5,0.9-0.5,1.5v8.1h-3.2V116h3.2v5.7c0.1-0.1,0.2-0.2,0.3-0.3c0.1-0.1,0.3-0.2,0.6-0.4c0.2-0.1,0.5-0.2,0.8-0.3
					s0.6-0.1,1-0.1c0.8,0,1.4,0.1,1.9,0.4c0.5,0.2,0.9,0.6,1.2,1c0.3,0.4,0.5,0.9,0.7,1.4c0.1,0.5,0.2,1.1,0.2,1.8v8.5h-3.2V125.5z"
					/>
				<path id="XMLID_721_" class="st8" d="M172.5,128.1c0.1,0.8,0.4,1.5,1,2c0.6,0.5,1.3,0.7,2.2,0.7c0.8,0,1.5-0.2,2-0.5
					c0.5-0.4,0.9-0.8,1.3-1.3l2.4,1.4c-0.2,0.4-0.4,0.8-0.8,1.2c-0.3,0.4-0.7,0.8-1.2,1.1c-0.5,0.3-1,0.6-1.6,0.8s-1.3,0.3-2.1,0.3
					c-1,0-1.9-0.2-2.7-0.5c-0.8-0.3-1.5-0.7-2.1-1.3c-0.6-0.6-1-1.3-1.3-2.1c-0.3-0.8-0.5-1.7-0.5-2.8c0-1,0.2-1.8,0.5-2.7
					c0.3-0.8,0.7-1.5,1.3-2.1c0.6-0.6,1.2-1.1,2-1.4s1.6-0.5,2.6-0.5c1,0,1.8,0.2,2.6,0.5s1.4,0.7,2,1.3c0.5,0.6,1,1.2,1.3,2
					c0.3,0.8,0.4,1.7,0.4,2.6c0,0.2,0,0.4,0,0.6c0,0.2,0,0.5,0,0.7H172.5z M175.4,123.2c-0.8,0-1.5,0.2-2,0.7
					c-0.5,0.5-0.8,1.1-0.9,1.8h5.8c-0.1-0.7-0.4-1.3-0.9-1.8C177,123.4,176.3,123.2,175.4,123.2z"/>
				<path id="XMLID_718_" class="st8" d="M183.8,129.3c0-0.6,0.1-1.1,0.3-1.7s0.5-1,0.9-1.3c0.4-0.4,0.8-0.7,1.4-0.9
					c0.5-0.2,1.2-0.3,1.8-0.3c0.6,0,1.1,0.1,1.4,0.2s0.7,0.2,0.8,0.3V125c0-0.6-0.1-1-0.4-1.4s-0.7-0.5-1.3-0.5
					c-0.3,0-0.6,0-0.8,0.1s-0.4,0.2-0.5,0.3c-0.1,0.1-0.2,0.3-0.3,0.5c0,0.2-0.1,0.4-0.1,0.5h-3c0-1.2,0.4-2.2,1.2-2.9
					c0.7-0.7,1.9-1.1,3.4-1.1c0.9,0,1.7,0.1,2.3,0.4s1.1,0.6,1.5,1c0.4,0.4,0.6,0.9,0.8,1.5c0.2,0.6,0.2,1.3,0.2,2v8.1H191v-0.8
					c-0.2,0.2-0.5,0.4-0.9,0.6c-0.4,0.2-1,0.3-1.8,0.3c-0.6,0-1.2-0.1-1.8-0.3c-0.5-0.2-1-0.5-1.4-0.9c-0.4-0.4-0.7-0.8-0.9-1.4
					C183.9,130.6,183.8,130,183.8,129.3z M186.9,129.3c0,0.5,0.2,1,0.5,1.3c0.3,0.3,0.8,0.5,1.4,0.5c0.5,0,1-0.2,1.3-0.5
					c0.4-0.3,0.5-0.8,0.5-1.3s-0.2-1-0.5-1.3c-0.4-0.3-0.8-0.5-1.3-0.5c-0.6,0-1,0.2-1.3,0.5C187,128.4,186.9,128.8,186.9,129.3z"/>
				<path id="XMLID_716_" class="st8" d="M200,133.5h-3.2V116h3.2V133.5z"/>
				<path id="XMLID_714_" class="st8" d="M206.8,120.7h2v2.7h-2v6c0,0.5,0.1,0.8,0.3,1c0.2,0.2,0.5,0.3,1,0.3h0.7v2.7
					c0,0-0.2,0-0.5,0.1s-0.7,0.1-1.3,0.1c-1.2,0-2.1-0.3-2.6-0.9c-0.5-0.6-0.8-1.4-0.8-2.5v-6.9h-1.2v-2.7h1.2v-2h3.2V120.7z"/>
				<path id="XMLID_712_" class="st8" d="M218.2,125.5c0-0.6-0.1-1.1-0.4-1.5c-0.3-0.4-0.7-0.5-1.3-0.5c-0.6,0-1,0.2-1.3,0.6
					c-0.3,0.4-0.5,0.9-0.5,1.5v8.1h-3.2V116h3.2v5.7c0.1-0.1,0.2-0.2,0.3-0.3c0.1-0.1,0.3-0.2,0.6-0.4c0.2-0.1,0.5-0.2,0.8-0.3
					s0.6-0.1,1-0.1c0.8,0,1.4,0.1,1.9,0.4c0.5,0.2,0.9,0.6,1.2,1c0.3,0.4,0.5,0.9,0.7,1.4c0.1,0.5,0.2,1.1,0.2,1.8v8.5h-3.2V125.5z"
					/>
				<path id="XMLID_709_" class="st8" d="M232.5,137.7h-3.2v-17h3v1.2c0.3-0.3,0.8-0.6,1.4-1c0.6-0.3,1.5-0.5,2.5-0.5
					c1,0,1.9,0.2,2.7,0.5s1.5,0.8,2,1.4s1,1.3,1.3,2.1c0.3,0.8,0.5,1.7,0.5,2.7c0,0.9-0.2,1.8-0.5,2.6c-0.3,0.8-0.7,1.5-1.3,2.1
					c-0.6,0.6-1.3,1.1-2.1,1.4c-0.8,0.3-1.7,0.5-2.7,0.5c-0.8,0-1.6-0.1-2.2-0.4c-0.6-0.3-1.1-0.6-1.4-0.8V137.7z M232.4,127.1
					c0,0.5,0.1,1,0.3,1.5c0.2,0.5,0.4,0.9,0.7,1.2c0.3,0.3,0.7,0.6,1.1,0.8s0.9,0.3,1.5,0.3c0.5,0,1-0.1,1.5-0.3s0.8-0.4,1.1-0.8
					c0.3-0.3,0.5-0.7,0.7-1.2c0.2-0.5,0.2-1,0.2-1.5s-0.1-1-0.3-1.5c-0.2-0.5-0.4-0.9-0.7-1.2c-0.3-0.3-0.7-0.6-1.1-0.8
					c-0.4-0.2-0.9-0.3-1.5-0.3c-0.5,0-1,0.1-1.5,0.3s-0.8,0.5-1.1,0.8c-0.3,0.3-0.5,0.7-0.7,1.2
					C232.5,126.1,232.4,126.6,232.4,127.1z"/>
				<path id="XMLID_707_" class="st8" d="M251.1,124h-0.8c-0.6,0-1.1,0.1-1.3,0.4c-0.2,0.3-0.4,0.7-0.4,1.3v7.8h-3.2v-12.8h3.2v1
					c0.2-0.3,0.5-0.6,0.9-0.8c0.4-0.2,0.9-0.3,1.6-0.3V124z"/>
				<path id="XMLID_704_" class="st8" d="M252.7,127.1c0-1,0.2-1.8,0.5-2.7c0.3-0.8,0.8-1.5,1.4-2.1c0.6-0.6,1.3-1.1,2.1-1.4
					s1.7-0.5,2.7-0.5c1,0,1.9,0.2,2.8,0.5s1.5,0.8,2.1,1.4c0.6,0.6,1,1.3,1.4,2.1c0.3,0.8,0.5,1.7,0.5,2.6s-0.2,1.8-0.5,2.6
					c-0.3,0.8-0.8,1.5-1.4,2.1c-0.6,0.6-1.3,1.1-2.1,1.4s-1.7,0.5-2.7,0.5c-1,0-1.9-0.2-2.7-0.5c-0.8-0.3-1.5-0.8-2.1-1.4
					c-0.6-0.6-1-1.3-1.4-2.1C252.8,129,252.7,128.1,252.7,127.1z M255.9,127.1c0,0.5,0.1,1,0.3,1.5s0.4,0.8,0.7,1.2
					c0.3,0.3,0.7,0.6,1.1,0.8c0.4,0.2,0.9,0.3,1.4,0.3c0.5,0,1-0.1,1.4-0.3c0.4-0.2,0.8-0.4,1.1-0.8s0.5-0.7,0.7-1.2
					c0.2-0.5,0.3-0.9,0.3-1.5s-0.1-1-0.3-1.5s-0.4-0.9-0.7-1.2c-0.3-0.3-0.7-0.6-1.1-0.8c-0.4-0.2-0.9-0.3-1.4-0.3
					c-0.5,0-1,0.1-1.4,0.3c-0.4,0.2-0.8,0.4-1.1,0.8c-0.3,0.3-0.5,0.7-0.7,1.2S255.9,126.6,255.9,127.1z"/>
				<path id="XMLID_701_" class="st8" d="M271.7,133.5h-3V116h3.2v6c0.4-0.4,0.9-0.7,1.5-1c0.7-0.3,1.4-0.5,2.3-0.5
					c1,0,1.8,0.2,2.6,0.5c0.8,0.3,1.5,0.8,2,1.3c0.6,0.6,1,1.3,1.3,2.1c0.3,0.8,0.5,1.7,0.5,2.7c0,0.9-0.2,1.8-0.5,2.6
					c-0.3,0.8-0.8,1.5-1.3,2.1c-0.6,0.6-1.3,1.1-2.1,1.4c-0.8,0.3-1.7,0.5-2.7,0.5c-0.8,0-1.6-0.1-2.2-0.4c-0.7-0.3-1.2-0.6-1.5-1
					V133.5z M271.8,127.1c0,0.6,0.1,1.1,0.3,1.5c0.2,0.5,0.4,0.8,0.7,1.2c0.3,0.3,0.7,0.6,1.1,0.8s0.9,0.3,1.5,0.3
					c0.5,0,1-0.1,1.5-0.3s0.8-0.4,1.1-0.8s0.5-0.7,0.7-1.2c0.2-0.5,0.2-1,0.2-1.5c0-0.5-0.1-1-0.3-1.5s-0.4-0.9-0.7-1.2
					c-0.3-0.3-0.7-0.6-1.1-0.8c-0.4-0.2-0.9-0.3-1.5-0.3c-0.5,0-1,0.1-1.5,0.3s-0.8,0.4-1.1,0.8c-0.3,0.3-0.5,0.7-0.7,1.2
					S271.8,126.6,271.8,127.1z"/>
				<path id="XMLID_699_" class="st8" d="M287.9,133.5h-3.2V116h3.2V133.5z"/>
				<path id="XMLID_696_" class="st8" d="M293.9,128.1c0.1,0.8,0.4,1.5,1,2c0.6,0.5,1.3,0.7,2.2,0.7c0.8,0,1.5-0.2,2-0.5
					c0.5-0.4,0.9-0.8,1.3-1.3l2.4,1.4c-0.2,0.4-0.4,0.8-0.8,1.2c-0.3,0.4-0.7,0.8-1.2,1.1c-0.5,0.3-1,0.6-1.6,0.8s-1.3,0.3-2.1,0.3
					c-1,0-1.9-0.2-2.7-0.5c-0.8-0.3-1.5-0.7-2.1-1.3c-0.6-0.6-1-1.3-1.3-2.1c-0.3-0.8-0.5-1.7-0.5-2.8c0-1,0.2-1.8,0.5-2.7
					c0.3-0.8,0.7-1.5,1.3-2.1c0.6-0.6,1.2-1.1,2-1.4s1.6-0.5,2.6-0.5c1,0,1.8,0.2,2.6,0.5s1.4,0.7,2,1.3c0.5,0.6,1,1.2,1.3,2
					c0.3,0.8,0.4,1.7,0.4,2.6c0,0.2,0,0.4,0,0.6c0,0.2,0,0.5,0,0.7H293.9z M296.8,123.2c-0.8,0-1.5,0.2-2,0.7
					c-0.5,0.5-0.8,1.1-0.9,1.8h5.8c-0.1-0.7-0.4-1.3-0.9-1.8C298.4,123.4,297.7,123.2,296.8,123.2z"/>
				<path id="XMLID_694_" class="st8" d="M315.6,133.5h-3.2v-8.1c0-0.6-0.1-1.1-0.4-1.5c-0.3-0.4-0.7-0.6-1.3-0.6
					c-0.6,0-1,0.2-1.3,0.6c-0.3,0.4-0.4,0.9-0.4,1.5v8h-3.2v-12.8h3.2v1c0.2-0.2,0.5-0.4,0.9-0.7s1-0.4,1.9-0.4
					c0.8,0,1.4,0.1,1.9,0.4s0.9,0.6,1.2,1c0.3-0.3,0.7-0.7,1.2-0.9c0.5-0.3,1.2-0.4,2-0.4c0.8,0,1.5,0.1,2,0.4c0.6,0.2,1,0.6,1.3,1
					c0.3,0.4,0.6,0.9,0.7,1.4c0.2,0.5,0.2,1.1,0.2,1.8v8.5h-3.2v-8.1c0-0.6-0.1-1.1-0.4-1.5c-0.3-0.4-0.7-0.5-1.3-0.5
					s-1,0.2-1.3,0.6c-0.3,0.4-0.4,0.9-0.4,1.4V133.5z"/>
				<path id="XMLID_692_" class="st8" d="M328.1,124.1c0,0.6,0.4,1,1.1,1.2c0.3,0.1,0.6,0.2,0.9,0.2c0.3,0.1,0.6,0.1,0.9,0.2
					c0.5,0.2,1,0.3,1.3,0.6s0.7,0.5,1,0.8c0.3,0.3,0.4,0.7,0.6,1.1c0.1,0.4,0.2,0.9,0.2,1.5c0,0.7-0.1,1.2-0.4,1.7
					c-0.2,0.5-0.6,0.9-1,1.2c-0.4,0.3-0.9,0.6-1.5,0.8c-0.6,0.2-1.2,0.3-1.8,0.3c-0.9,0-1.6-0.1-2.2-0.4c-0.6-0.2-1.1-0.6-1.4-1
					c-0.4-0.4-0.6-0.9-0.7-1.4c-0.1-0.5-0.2-1.1-0.2-1.6h3.1c0,0.5,0.1,0.9,0.3,1.2s0.6,0.5,1.2,0.5c0.4,0,0.8-0.1,1.1-0.3
					c0.3-0.2,0.4-0.5,0.4-0.9c0-0.4-0.1-0.6-0.3-0.8s-0.5-0.4-1-0.5c-0.4-0.1-0.7-0.2-1-0.3s-0.6-0.2-1-0.3c-0.9-0.3-1.6-0.8-2-1.4
					c-0.4-0.6-0.7-1.4-0.7-2.4c0-0.5,0.1-1,0.3-1.5c0.2-0.5,0.5-0.9,0.9-1.2c0.4-0.3,0.9-0.6,1.4-0.8c0.5-0.2,1.1-0.3,1.8-0.3
					c1.4,0,2.4,0.3,3.2,1c0.8,0.7,1.1,1.7,1.2,3h-3c0-0.5-0.1-0.9-0.4-1.2c-0.2-0.3-0.6-0.4-1.1-0.4c-0.4,0-0.7,0.1-0.9,0.3
					S328.1,123.8,328.1,124.1z"/>
			</g>
		</g>
		<g id="XMLID_62_">
			<circle id="XMLID_64_" class="st7" cx="63" cy="125.5" r="5.5"/>
		</g>
	</g>
</g>
<g id="guias" class="st9">
</g>
</svg>
