<?xml version="1.0" encoding="utf-8"?>
<!-- Generator: Adobe Illustrator 21.1.0, SVG Export Plug-In . SVG Version: 6.00 Build 0)  -->
<svg version="1.1" id="Capa_1" xmlns="http://www.w3.org/2000/svg" xmlns:xlink="http://www.w3.org/1999/xlink" x="0px" y="0px"
	 viewBox="0 0 1440 1451.3" style="enable-background:new 0 0 1440 1451.3;" xml:space="preserve">
<style type="text/css">
	.st0{fill:#F4F4F4;}
	.st1{fill:#181716;}
	.st2{fill:#6E6E6D;}
	.st3{fill:#9B9B9B;}
	.st4{fill:none;stroke:#181716;stroke-width:6.0014;stroke-miterlimit:10;}
	.st5{fill:none;}
	.st6{font-family:'Platform'; font-weight: 300; letter-spacing: 1px;}
	.st7{font-size:33.0075px;}
	.st8{letter-spacing:1;}
	.st9{fill:none;stroke:#181716;stroke-width:1.5003;stroke-miterlimit:10;}
	.st10{font-size:24.0054px;}
	.st11{fill:#004F9F;}
	.st12{fill:#BB94C2;}
	.st13{fill:#F29700;}
	.st14{fill:#34B7EB;}
	.st15{fill:#3AA336;}
@font-face {
  font-family: 'Platform';
  src: url('http://int.erigin.com/animacions-isglobal/animacions/fonts/Platform-Regular.eot');
  src: url('http://int.erigin.com/animacions-isglobal/animacions/fonts/Platform-Regular.eot?#iefix') format('embedded-opentype'),
  url('http://int.erigin.com/animacions-isglobal/animacions/fonts/Platform-Regular.woff') format('woff'),
  url('http://int.erigin.com/animacions-isglobal/animacions/fonts/Platform-Regular.ttf') format('truetype'),
  url('http://int.erigin.com/animacions-isglobal/animacions/fonts/Platform-Regular.otf') format('opentype'),
  url('http://int.erigin.com/animacions-isglobal/animacions/fonts/Platform-Regular.svg#Platform-Regular') format('svg');
  font-weight: 300;
  font-style: normal;
}
</style>
<g id="bg">
	<rect y="0" class="st0" width="1440" height="1452.7"/>
	<rect y="1245.3" class="st1" width="1440" height="207.3"/>
</g>
<g id="cos2">
	<g>
		<g>
			<g>
				<path class="st2" d="M722.8,56.2c-0.4,0-0.7,0-1,0c-0.3,0-0.7,0-1,0c-44.9-0.4-62.4,35.1-59.8,80.4
					c2.5,44.3,19.6,91.2,60.6,92.1v0c0.1,0,0.2,0,0.3,0c0.1,0,0.2,0,0.3,0v0c41-0.9,58.1-47.8,60.6-92.1
					C785.2,91.4,767.7,55.8,722.8,56.2z"/>
				<g>
					
						<ellipse transform="matrix(0.1335 -0.9911 0.9911 0.1335 523.8177 906.8457)" class="st2" cx="780.5" cy="153.9" rx="23.8" ry="8"/>
					
						<ellipse transform="matrix(0.9911 -0.1335 0.1335 0.9911 -14.6059 89.8772)" class="st2" cx="663" cy="153.9" rx="8" ry="23.8"/>
				</g>
				<rect x="686.7" y="196.5" class="st2" width="70.1" height="73.1"/>
				<g>
					<path class="st2" d="M734.6,302.6l-48.1-73.8v0c0,20.9-16.9,37.8-37.8,37.8h0L734.6,302.6z"/>
					<path class="st2" d="M708.9,302.6l48.1-73.8v0c0,20.9,16.9,37.8,37.8,37.8h0L708.9,302.6z"/>
				</g>
			</g>
			<g>
				<rect x="632.1" y="266.3" class="st2" width="178.7" height="281.4"/>
				<path class="st2" d="M604.8,304.8h233.4v86.2c0,35.4-28.7,64-64,64H668.8c-35.4,0-64-28.7-64-64V304.8z"/>
				<path class="st2" d="M558.9,388H884v-59.3c0-34.5-28-62.4-62.4-62.4H621.3c-34.5,0-62.4,28-62.4,62.4V388z"/>
				<path class="st2" d="M810.8,547.7h-89.4v196.1h127.1c0,0,0-24.5,0-74.5C848.5,621.3,810.8,547.7,810.8,547.7z"/>
				<path class="st2" d="M632.1,547.7h89.4v196.1H594.4c0,0,0-24.5,0-74.5C594.4,621.3,632.1,547.7,632.1,547.7z"/>
				<g>
					<path class="st2" d="M806.8,994.8c0,19.3-77.1,0-77.1,0v-251c0,0,118.8-29.7,118.8,0C848.5,850.6,806.8,965.7,806.8,994.8z"/>
					<path class="st2" d="M785.6,1309.7h-41l-14.9-314.8h76.9c0,0,6.4,92.3,6.4,123.2C813,1204.7,785.6,1309.7,785.6,1309.7z"/>
					<path class="st2" d="M793.5,1404.7c-0.1,2.3-2.4,6-4.9,9.3c-3.8,5-9.7,7.8-15.9,7.8h-29.7c-7,0-12.4-6.1-11.4-13.1l13.1-99h41
						C785.6,1309.7,794.5,1375.4,793.5,1404.7z"/>
				</g>
				<g>
					<path class="st2" d="M636.1,994.8c0,19.3,77.1,0,77.1,0v-251c0,0-118.8-29.7-118.8,0C594.4,850.6,636.1,965.7,636.1,994.8z"/>
					<path class="st2" d="M657.3,1309.7h41l14.9-314.8h-76.9c0,0-6.4,92.3-6.4,123.2C629.9,1204.7,657.3,1309.7,657.3,1309.7z"/>
					<path class="st2" d="M649.5,1404.7c0.1,2.3,2.4,6,4.9,9.3c3.8,5,9.7,7.8,15.9,7.8H700c7,0,12.4-6.1,11.4-13.1l-13.1-99h-41
						C657.4,1309.7,648.4,1375.4,649.5,1404.7z"/>
				</g>
				<polygon class="st2" points="904.5,537.3 858.6,542.6 830.7,325.3 883.9,319.1 				"/>
				<path class="st2" d="M919.3,722l-27,3.1l-33.7-182.5c0,0,42.4-39.8,43.8-27.7c2.5,21.5,8.9,43.4,12.1,73.1
					C918.1,621.3,919.3,722,919.3,722z"/>
				<path class="st2" d="M919.3,722v41.4c0,8.9-2.7,17.6-7.9,24.9l-32.9,46.8c-2.7,3.9-8,4.9-11.9,2.3v0c-3.7-2.4-5-7.1-3.1-11.1
					l20.4-42.3l-2.8-15.3l-14.6,28.8c-0.7,1.3-2.2,2-3.7,1.6l0,0c-1.5-0.4-2.5-1.9-2.3-3.4l3.1-27.7c0.8-7.2,3.3-14.1,7.4-20.1
					l21.2-22.9L919.3,722z"/>
				<g>
					<polygon class="st2" points="539.1,537.3 585,542.6 612.8,325.3 559.7,319.1 					"/>
					<path class="st2" d="M524.3,722l27,3.1L585,542.6c0,0-42.4-39.8-43.8-27.7c-2.5,21.5-8.9,43.4-12.1,73.1
						C525.5,621.3,524.3,722,524.3,722z"/>
					<path class="st2" d="M524.3,722v41.4c0,8.9,2.7,17.6,7.9,24.9l32.9,46.8c2.7,3.9,8,4.9,11.9,2.3v0c3.7-2.4,5-7.1,3.1-11.1
						l-20.4-42.3l2.8-15.3l14.6,28.8c0.7,1.3,2.2,2,3.7,1.6l0,0c1.5-0.4,2.5-1.9,2.3-3.4l-3.1-27.7c-0.8-7.2-3.3-14.1-7.4-20.1
						l-21.2-22.9L524.3,722z"/>
				</g>
			</g>
		</g>
		<g>
			<g>
				<path class="st3" d="M739.3,273L739.3,273c3.9-2.5,8.4-3.9,13.1-3.9h6.3c7.9,0.5,12.9,3.1,16,7.1c21.4,27.7,48.6,65,55.8,114.3
					c1.7,11.9-15.2,35.7-19.8,39.1c-55.8,41.5-87.2-27.9-87.2-27.9l5-109.7C728.8,284.2,732.8,277.2,739.3,273z"/>
				<circle class="st3" cx="775.9" cy="395.7" r="54.6"/>
			</g>
			<g>
				<path class="st3" d="M705,273L705,273c-3.9-2.5-8.4-3.9-13.1-3.9h-6.3c-7.9,0.5-12.9,3.1-16,7.1c-21.4,27.7-48.6,65-55.8,114.3
					c-1.7,11.9,15.2,35.7,19.8,39.1c55.8,41.5,87.2-27.9,87.2-27.9l17.6-99l-22.5-10.6C715.5,284.2,711.5,277.2,705,273z"/>
				<circle class="st3" cx="668.4" cy="395.7" r="54.6"/>
			</g>
		</g>
		<path class="st3" d="M721.8,715.4L721.8,715.4c-30.3,0-54.9-24.6-54.9-54.9v-61.7c0-30.3,24.6-54.9,54.9-54.9h0
			c30.3,0,54.9,24.6,54.9,54.9v61.7C776.6,690.8,752.1,715.4,721.8,715.4z"/>
		<g>
			<g>
				<g>
					<circle class="st2" cx="689.4" cy="394.3" r="22.4"/>
					<circle class="st2" cx="659.6" cy="405.1" r="24.4"/>
					<circle class="st2" cx="698.3" cy="329.5" r="13.5"/>
					<rect x="681.9" y="329.5" class="st2" width="29.9" height="61"/>
					<path class="st2" d="M636.1,398.5c13.2-52.4,53.6-79.5,53.6-79.5l5.4,70.4C695.1,389.4,632.4,413,636.1,398.5z"/>
				</g>
				<g>
					<circle class="st2" cx="754.9" cy="394.3" r="22.4"/>
					<circle class="st2" cx="784.7" cy="405.1" r="24.4"/>
					<circle class="st2" cx="746" cy="329.5" r="13.5"/>
					
						<rect x="732.5" y="329.5" transform="matrix(-1 4.449939e-11 -4.449939e-11 -1 1494.8724 719.9355)" class="st2" width="29.9" height="61"/>
					<path class="st2" d="M808.2,398.5c-13.2-52.4-53.6-79.5-53.6-79.5l-5.4,70.4C749.2,389.4,811.9,413,808.2,398.5z"/>
				</g>
			</g>
			<rect x="714.7" y="268.6" class="st2" width="14.9" height="56.1"/>
			<g>
				
					<rect x="732.3" y="313.1" transform="matrix(0.7071 -0.7071 0.7071 0.7071 -24.5283 623.0241)" class="st2" width="14.9" height="56.1"/>
				
					<rect x="697.1" y="313.1" transform="matrix(-0.7071 -0.7071 0.7071 -0.7071 961.4818 1080.4995)" class="st2" width="14.9" height="56.1"/>
			</g>
		</g>
		<g>
			<path class="st4" d="M889.9,760.8c0,0,20.9-17.7,20.3-35.7c-1.6-43.9,1.6-76-1.6-100.3c-8-60.9-24.9-73-27.9-100.5
				c-2.6-23.1,5-164.8-13-199.7c-19.1-36.9-65.2-41.5-97.4-33c-22.8,6-28.3,24.1-30.4,35.6c-1.6,8.8-1.8,16.5,2.7,35.8"/>
			<path class="st4" d="M821,290.5c23.7,6.2,25.7,29.3,27.5,56.9s33.3,135.3,30.9,171.2s-1.1,91.7,6.5,115.8
				c7.6,24.1,21.6,54.8,23.8,80.9"/>
			<path class="st4" d="M554.7,760.8c0,0-20.9-17.7-20.3-35.7c1.6-43.9-1.6-76,1.6-100.3c8-60.9,24.9-73,27.9-100.5
				c2.6-23.1-5-164.8,13-199.7c19.1-36.9,65.2-41.5,97.4-33c22.8,6,47.4,21.8,51.6,35.6c2.6,8.6,8.6,16.5,4.2,35.8"/>
			<path class="st4" d="M623.6,290.5c-23.7,6.2-25.7,29.3-27.5,56.9s-33.3,135.3-30.9,171.2c2.4,35.9,1.1,91.7-6.5,115.8
				c-7.6,24.1-21.6,54.8-23.8,80.9"/>
			<path class="st4" d="M770.2,291.6c0,0-23.1-47.7-24.2-62.9c-1.1-15.2,13.1-41.3,23.2-68.4c5.7-15.3,5-30.2,3.3-40.3
				c-1.3-7.6-6.4-14-13.5-16.9l-4.6-1.9"/>
			<line class="st4" x1="746" y1="225.3" x2="751.9" y2="300.9"/>
			<path class="st4" d="M672.9,290.8c0,0,23.1-46.8,24.2-62s-13.1-41.3-23.2-68.4c-6.5-17.4-4.7-34.3-2.5-44.1
				c1.2-5.4,4.3-10.1,8.7-13.3l4.8-3.5"/>
			<line class="st4" x1="697.1" y1="225.3" x2="691.3" y2="297.5"/>
			<path class="st4" d="M725.9,411.2c0,0-3.9,223.5,0.4,234.6c4.3,11.1,78.3,67.9,82.1,115c8.8,108-27.9,228.6-29.6,234.1
				c-6.6,21.4,19,145.2,13.3,195.2c-5.7,50-26.4,117.2-29.7,141.5c-3.2,24.3-5.6,54.3-5.6,54.3"/>
			<path class="st4" d="M754.9,676.4c13,13.8,18.6,46.7,16.4,84.3c-2.1,37.6,8.4,197.7,2.4,249.2c-6,51.5-18.1,154.4-14.2,193
				c3.9,38.6,7.1,90.2,2.9,128.7"/>
			<path class="st4" d="M724.7,642.4c-4.3,11.1-86.7,71.3-90.5,118.4c-8.8,108,27.9,228.6,29.6,234.1c6.6,21.4-19,145.2-13.3,195.2
				c5.7,50,26.4,117.2,29.7,141.5c3.2,24.3,5.6,54.3,5.6,54.3"/>
			<path class="st4" d="M688.1,678.5c-13,13.8-19,44.6-16.9,82.2c2.1,37.6-8.4,197.7-2.4,249.2c6,51.5,18.1,154.4,14.2,193
				s-7.1,90.2-2.9,128.7"/>
		</g>
		<path class="st1" d="M727.3,339.9c0,0,4.3,6.4,3.8,7.8c-0.4,1.4-3.7,2.6-7.2,11c-2.3,5.8,0.9,11.3-0.6,12.4
			c-1.6,1.1-5.7,7.9-6.9,10.2c-8.9,16.7,4,34.6,13.3,41.2c9.3,6.5,18.4,6.7,24.3,9.3c8.2,3.5,19,5.8,25.3-5.3c0,0,4.1-8.5-1-24.1
			c-2.9-8.9-6.4-15.4-8.1-17.8c-5.5-7.7-11.2-11.2-13.8-12.6c-1.4-0.7-0.8-3.8,2-5c2.8-1.3,6-0.3,6-0.3l1-4c0,0-3.9-1.3-5.8-0.9
			c-1.9,0.3,2.1-4.2,2.3-7.3c0,0-2.7-2.3-4.4-1.7c0,0-1,3.7-3.5,7.7c0,0,1-9.6-5.9-14.6c0,0,1.6-8.1,2.1-8.8c0,0-3.2-1.7-4.5-1.4
			c0,0-1.9,8.1-2.2,8.3c-0.3,0.2-0.9,1.2-1.5,0.2c-0.6-1-0.8-9.6-0.8-9.6l-4.4,0.5c0,0,1.9,9.3,0.7,9.8c-0.4,0.2-0.8,0.8-1.6,0.1
			c-2.1-1.8-4.3-6.9-4.3-7.3C731.5,337.2,727.3,339.9,727.3,339.9z"/>
		<g>
			<circle class="st3" cx="688.5" cy="98.8" r="13.6"/>
			<circle class="st3" cx="708.8" cy="87.2" r="14.7"/>
			<circle class="st3" cx="731.4" cy="85.7" r="16.3"/>
			<circle class="st3" cx="682.2" cy="104.3" r="8.1"/>
			<circle class="st3" cx="761.8" cy="104.3" r="8.1"/>
			<circle class="st3" cx="750.8" cy="92.8" r="11"/>
			<rect x="682.2" y="98.8" class="st3" width="79.6" height="13.6"/>
			<rect x="707.7" y="89.7" class="st3" width="14.3" height="17.6"/>
		</g>
	</g>
	<g>
		<rect x="119.3" y="112" class="st5" width="283.7" height="41.9"/>
		<text transform="matrix(1 0 0 1 119.3237 136.1432)" class="st1 st6 st7 st8">Cabeza</text>
	</g>
	<line class="st9" x1="731.8" y1="89.6" x2="119.3" y2="87.9"/>
	<g>
		<rect x="962.1" y="840.1" class="st5" width="360.9" height="195.4"/>
		<text transform="matrix(1 0 0 1 1076.6038 857.6447)"><tspan x="0" y="0" class="st1 st6 st10 st8">Nacimiento prematuro</tspan><tspan x="-4.2" y="36" class="st1 st6 st10 st8">Peso reducido al nacer </tspan><tspan x="114.3" y="72" class="st1 st6 st10 st8">Preclampsia</tspan><tspan x="-56.2" y="108" class="st1 st6 st10 st8">Reducción en la calidad del </tspan><tspan x="150.6" y="132" class="st1 st6 st10 st8">esperma</tspan></text>
	</g>
	<g>
		<rect x="956.3" y="744.5" class="st5" width="366.7" height="123.5"/>
		<text transform="matrix(1 0 0 1 962.4895 768.5951)"><tspan x="0" y="0" class="st1 st6 st7">Aparato reproductor</tspan><tspan x="269.9" y="37.5" class="st1 st6 st7">y feto</tspan></text>
	</g>
	<g>
		<rect x="119.3" y="789" class="st5" width="283.7" height="57.7"/>
		<text transform="matrix(1 0 0 1 119.3228 813.172)" class="st1 st6 st7 st8">General/Otros</text>
	</g>
	<line class="st9" x1="615.5" y1="766.7" x2="119.3" y2="765"/>
	<g>
		<g>
			<rect x="119.3" y="847.1" class="st5" width="538.6" height="474.6"/>
			<text transform="matrix(1 0 0 1 119.3232 864.6564)"><tspan x="0" y="0" class="st1 st6 st10 st8">Obesidad</tspan><tspan x="0" y="36" class="st1 st6 st10 st8">Diabetes</tspan><tspan x="0" y="72" class="st1 st6 st10 st8">Síndrome metabólico</tspan><tspan x="0" y="108" class="st1 st6 st10 st8">Molestias, estrés</tspan><tspan x="0" y="144" class="st1 st6 st10 st8">Trastorno del sueño</tspan><tspan x="0" y="180" class="st6 st10">Lesiones por accidentes de trabajo y de tráfico</tspan><tspan x="0" y="216" class="st1 st6 st10 st8">Cáncer de colon</tspan><tspan x="0" y="252.1" class="st1 st6 st10 st8">Inflamación sistémica</tspan><tspan x="0" y="288.1" class="st1 st6 st10 st8">Peor estado de salud general</tspan><tspan x="0" y="324.1" class="st1 st6 st10 st8">Incremento de la mortalidad</tspan></text>
		</g>
		<circle class="st11" cx="108" cy="1001.4" r="5.5"/>
		<circle class="st12" cx="108" cy="856.9" r="5.5"/>
		<circle class="st13" cx="108" cy="1035.9" r="5.5"/>
		<g>
			<circle class="st14" cx="108" cy="893.6" r="5.5"/>
			<circle class="st12" cx="94" cy="893.6" r="5.5"/>
		</g>
		<g>
			<circle class="st11" cx="108" cy="965.7" r="5.5"/>
			<circle class="st15" cx="94.2" cy="965.7" r="5.5"/>
		</g>
		<circle class="st15" cx="108" cy="1143.4" r="5.5"/>
		<g>
			<circle class="st13" cx="81.6" cy="1179.1" r="5.5"/>
			
				<ellipse transform="matrix(0.9674 -0.2532 0.2532 0.9674 -296.2875 55.7476)" class="st12" cx="68.5" cy="1179.1" rx="5.5" ry="5.5"/>
			<circle class="st15" cx="55.5" cy="1179.1" r="5.5"/>
			<circle class="st11" cx="94.8" cy="1179.1" r="5.5"/>
			<circle class="st14" cx="108" cy="1179.1" r="5.5"/>
		</g>
		<circle class="st12" cx="108" cy="927.9" r="5.5"/>
		<circle class="st12" cx="108" cy="1070.8" r="5.5"/>
		<circle class="st14" cx="108" cy="1107.8" r="5.5"/>
	</g>
	<circle class="st14" cx="1335.5" cy="850" r="5.5"/>
	<circle class="st14" cx="1335.5" cy="887.5" r="5.5"/>
	<circle class="st14" cx="1335.5" cy="957.5" r="5.5"/>
	<circle class="st13" cx="1349.3" cy="850" r="5.5"/>
	<circle class="st14" cx="1335.5" cy="923.6" r="5.5"/>
	<g>
		<g>
			<rect x="119.3" y="170.1" class="st5" width="380.7" height="427.2"/>
			<text transform="matrix(1 0 0 1 119.3232 187.628)"><tspan x="0" y="0" class="st1 st6 st10 st8">Demencia</tspan><tspan x="0" y="36" class="st1 st6 st10 st8">Deterioro cognitivo</tspan><tspan x="0" y="72" class="st1 st6 st10 st8">Enfermedades </tspan><tspan x="0" y="96" class="st1 st6 st10 st8">neurodegenerativas</tspan><tspan x="0" y="132" class="st1 st6 st10 st8">Problemas de salud mental</tspan><tspan x="0" y="168" class="st1 st6 st10 st8">Ictus</tspan><tspan x="0" y="204" class="st1 st6 st10 st8">Enfermedades cerebrovasculares</tspan><tspan x="0" y="240.1" class="st1 st6 st10 st8">Autismo y problemas de </tspan><tspan x="0" y="264.1" class="st1 st6 st10 st8">conducta en niños</tspan><tspan x="0" y="300.1" class="st6 st10 st8">Tinnitus o sordera</tspan><tspan x="0" y="336.1" class="st6 st10 st8">Reducción del rendimiento </tspan><tspan x="0" y="360.1" class="st6 st10 st8">cognitivo</tspan></text>
		</g>
		<circle class="st14" cx="108" cy="420.1" r="5.5"/>
		<circle class="st11" cx="108" cy="479.8" r="5.5"/>
		<circle class="st13" cx="108" cy="516.1" r="5.5"/>
		<g>
			<circle class="st14" cx="108" cy="347.6" r="5.5"/>
			<circle class="st12" cx="80.3" cy="347.6" r="5.5"/>
			<circle class="st11" cx="94.2" cy="347.6" r="5.5"/>
		</g>
		<g>
			<circle class="st14" cx="108" cy="179.6" r="5.5"/>
			<circle class="st12" cx="94.2" cy="179.6" r="5.5"/>
		</g>
		<g>
			<circle class="st14" cx="108" cy="251.7" r="5.5"/>
			<circle class="st12" cx="94.2" cy="251.7" r="5.5"/>
		</g>
		<g>
			<circle class="st11" cx="108" cy="383.9" r="5.5"/>
			<circle class="st12" cx="94.2" cy="383.9" r="5.5"/>
		</g>
		<g>
			<circle class="st11" cx="108" cy="216.3" r="5.5"/>
			<circle class="st12" cx="94.2" cy="216.3" r="5.5"/>
		</g>
		<circle class="st15" cx="80.3" cy="311.5" r="5.5"/>
		<circle class="st12" cx="94.2" cy="311.5" r="5.5"/>
		<circle class="st14" cx="108" cy="311.5" r="5.5"/>
	</g>
	<circle class="st14" cx="1335.5" cy="182.2" r="5.5"/>
	<circle class="st14" cx="1335.5" cy="242.2" r="5.5"/>
	<g>
		<circle class="st12" cx="1349.3" cy="278.3" r="5.5"/>
		<circle class="st14" cx="1335.5" cy="278" r="5.5"/>
	</g>
	<circle class="st14" cx="1335.5" cy="350.2" r="5.5"/>
	<circle class="st14" cx="1335.5" cy="314.2" r="5.5"/>
	<circle class="st12" cx="1349.3" cy="1161.9" r="5.5"/>
	<circle class="st11" cx="1335.5" cy="1161.9" r="5.5"/>
	<circle class="st14" cx="1335.5" cy="1198.5" r="5.5"/>
	<circle class="st12" cx="108" cy="688.1" r="5.5"/>
	<g>
		<rect x="965.2" y="170.9" class="st5" width="357.8" height="214.7"/>
		<text transform="matrix(1 0 0 1 1084.7402 188.4537)"><tspan x="0" y="0" class="st1 st6 st10 st8">Enfermedad Pulmonar </tspan><tspan x="-60.4" y="24" class="st1 st6 st10 st8">Obstructiva Crónica (EPOC)</tspan><tspan x="179.3" y="60" class="st1 st6 st10 st8">Asma</tspan><tspan x="-64.7" y="96" class="st1 st6 st10 st8">Enfermedades respiratorias </tspan><tspan x="127.7" y="132" class="st1 st6 st10 st8">Neumonía</tspan><tspan x="38" y="168" class="st1 st6 st10 st8">Cáncer de pulmón</tspan></text>
	</g>
	<g>
		<rect x="937.8" y="113" class="st5" width="385.2" height="138.5"/>
		<text transform="matrix(1 0 0 1 949.8799 137.0804)" class="st1 st6 st7 st8">Aparato respiratorio  </text>
	</g>
	<polyline class="st9" points="1323,90.6 960.2,89.1 780.5,361.1 	"/>
	<g>
		<rect x="119.3" y="678.3" class="st5" width="357.8" height="48.9"/>
		<text transform="matrix(1 0 0 1 119.3223 695.8132)" class="st1 st6 st10 st8">Cáncer de mama </text>
	</g>
	<g>
		<rect x="119.3" y="618.9" class="st5" width="385.2" height="138.5"/>
		<text transform="matrix(1 0 0 1 119.3213 642.985)" class="st1 st6 st7 st8">Pecho</text>
	</g>
	<polyline class="st9" points="119.3,596.5 482.2,595 632.1,404 	"/>
	<circle class="st11" cx="1349.1" cy="634.9" r="5.5"/>
	<circle class="st12" cx="1362.9" cy="634.9" r="5.5"/>
	<circle class="st11" cx="1349.3" cy="528" r="5.5"/>
	<circle class="st12" cx="1363.1" cy="528" r="5.5"/>
	<circle class="st14" cx="1335.5" cy="528" r="5.5"/>
	<circle class="st14" cx="1335.2" cy="563" r="5.5"/>
	<circle class="st14" cx="1335.2" cy="599" r="5.5"/>
	<circle class="st14" cx="1335.2" cy="634.9" r="5.5"/>
	<g>
		<rect x="966" y="516.5" class="st5" width="357.8" height="151.9"/>
		<text transform="matrix(1 0 0 1 1099.0291 534.0326)"><tspan x="0" y="0" class="st1 st6 st10 st8">Infarto de miocardio </tspan><tspan x="139.6" y="36" class="st1 st6 st10 st8">Arritmia</tspan><tspan x="-59.7" y="72" class="st1 st6 st10 st8">Fallo congestivo cardíaco</tspan><tspan x="-126.6" y="108" class="st1 st6 st10 st8">Enfermedades cardiovasculares</tspan></text>
	</g>
	<g>
		<rect x="938.6" y="457.7" class="st5" width="385.2" height="321.3"/>
		<text transform="matrix(1 0 0 1 1162.4783 481.8536)" class="st1 st6 st7 st8">Corazón</text>
	</g>
	<polyline class="st9" points="1323.9,435.3 961.1,434 760.3,392.5 	"/>
	<g>
		<rect x="965.2" y="1150.6" class="st5" width="357.8" height="133.5"/>
		<text transform="matrix(1 0 0 1 1179.9458 1168.1503)"><tspan x="0" y="0" class="st1 st6 st10 st8">Hipertensión</tspan><tspan x="-164.1" y="36" class="st1 st6 st10 st8">Trombosis venosa profunda</tspan></text>
	</g>
	<g>
		<rect x="937.8" y="1092.2" class="st5" width="385.2" height="59.8"/>
		<text transform="matrix(1 0 0 1 1182.1499 1116.3102)" class="st1 st6 st7 st8">Arterias  </text>
	</g>
	<line class="st9" x1="1323" y1="1068.4" x2="778.8" y2="1066.7"/>
	<polyline class="st9" points="754.9,601.5 937.3,721.6 1323,720.4 	"/>
</g>
</svg>
