<?xml version="1.0" encoding="utf-8"?>
<!-- Generator: Adobe Illustrator 19.0.0, SVG Export Plug-In . SVG Version: 6.00 Build 0)  -->
<svg version="1.1" id="Capa_1" xmlns="http://www.w3.org/2000/svg" xmlns:xlink="http://www.w3.org/1999/xlink" x="0px" y="0px"
	 viewBox="570 -225.3 1440 1451.3" style="enable-background:new 570 -225.3 1440 1451.3;" xml:space="preserve">
<style type="text/css">
	.st0{fill:#F4F4F4;}
	.st1{fill:#181716;}
	.st2{fill:#C1D9AE;}
	.st3{fill:#FBE2E0;}
	.st4{fill:#F8D2D0;}
	.st5{fill:none;stroke:#F0A0A0;stroke-width:6.0028;stroke-linecap:round;stroke-miterlimit:10;}
	.st6{fill:#F0A0A0;}
	.st7{fill:#3AA336;}
	.st8{fill:none;}
	.st9{font-family:'PlatformWeb-Regular';}
	.st10{font-size:24.0054px;}
	.st11{font-size:33.0075px;}
	.st12{fill:none;stroke:#181716;stroke-width:1.5003;stroke-miterlimit:10;}
</style>
<g id="bg">
	<rect x="570" y="-226" class="st0" width="1440" height="1452.7"/>
	<rect x="570" y="1019.3" class="st1" width="1440" height="207.3"/>
</g>
<g id="cos">
	<g>
		<g>
			<path class="st2" d="M1292.4-169.3c-0.4,0-0.7,0-1,0s-0.7,0-1,0c-44.9-0.4-62.4,35.1-59.8,80.4c2.5,44.3,19.6,91.2,60.6,92.1l0,0
				c0.1,0,0.2,0,0.3,0s0.2,0,0.3,0l0,0c41-0.9,58.1-47.8,60.6-92.1C1354.9-134.2,1337.4-169.8,1292.4-169.3z"/>
			<g>
				
					<ellipse transform="matrix(-0.1335 0.991 -0.991 -0.1335 1459.3275 -1419.4047)" class="st2" cx="1350.2" cy="-71.7" rx="23.8" ry="8"/>
				
					<ellipse transform="matrix(-0.991 0.1335 -0.1335 -0.991 2444.9023 -307.213)" class="st2" cx="1232.8" cy="-71.6" rx="8" ry="23.8"/>
			</g>
			<rect x="1256.3" y="-29.1" class="st2" width="70.1" height="73.1"/>
			<g>
				<path class="st2" d="M1304.3,77l-48.1-73.8l0,0c0,20.9-16.9,37.8-37.8,37.8l0,0L1304.3,77z"/>
				<path class="st2" d="M1278.5,77l48.1-73.8l0,0c0,20.9,16.9,37.8,37.8,37.8l0,0L1278.5,77z"/>
			</g>
		</g>
		<g>
			<rect x="1201.8" y="40.7" class="st2" width="178.7" height="281.4"/>
			<path class="st2" d="M1174.4,79.2h233.4v86.2c0,35.4-28.7,64-64,64h-105.4c-35.4,0-64-28.7-64-64V79.2z"/>
			<path class="st2" d="M1128.6,162.4h325.1v-59.3c0-34.5-28-62.4-62.4-62.4H1191c-34.5,0-62.4,28-62.4,62.4V162.4z"/>
			<path class="st2" d="M1380.5,322.1h-89.4v196.1h127.1c0,0,0-24.5,0-74.5C1418.2,395.8,1380.5,322.1,1380.5,322.1z"/>
			<path class="st2" d="M1201.7,322.1h89.4v196.1H1164c0,0,0-24.5,0-74.5C1164,395.8,1201.7,322.1,1201.7,322.1z"/>
			<g>
				<path class="st2" d="M1376.4,769.2c0,19.3-77.1,0-77.1,0v-251c0,0,118.8-29.7,118.8,0C1418.2,625,1376.4,740.2,1376.4,769.2z"/>
				<path class="st2" d="M1355.3,1084.1h-41l-14.9-314.8h76.9c0,0,6.4,92.3,6.4,123.2C1382.6,979.1,1355.3,1084.1,1355.3,1084.1z"/>
				<path class="st2" d="M1363.1,1179.1c-0.1,2.3-2.4,6-4.9,9.3c-3.8,5-9.7,7.8-15.9,7.8h-29.7c-7,0-12.4-6.1-11.4-13.1l13.1-99h41
					C1355.2,1084.1,1364.1,1149.8,1363.1,1179.1z"/>
			</g>
			<g>
				<path class="st2" d="M1205.8,769.2c0,19.3,77.1,0,77.1,0v-251c0,0-118.8-29.7-118.8,0C1164,625,1205.8,740.2,1205.8,769.2z"/>
				<path class="st2" d="M1226.9,1084.1h41l14.9-314.8h-76.9c0,0-6.4,92.3-6.4,123.2C1199.6,979.1,1226.9,1084.1,1226.9,1084.1z"/>
				<path class="st2" d="M1219.1,1179.1c0.1,2.3,2.4,6,4.9,9.3c3.8,5,9.7,7.8,15.9,7.8h29.7c7,0,12.4-6.1,11.4-13.1l-13.1-99h-41
					C1227,1084.1,1218.1,1149.8,1219.1,1179.1z"/>
			</g>
			<polygon class="st2" points="1474.1,311.7 1428.2,317 1400.4,99.7 1453.5,93.5 			"/>
			<path class="st2" d="M1488.9,496.4l-27,3.1L1428.2,317c0,0,42.4-39.8,43.8-27.7c2.5,21.5,8.9,43.4,12.1,73.1
				C1487.7,395.7,1488.9,496.4,1488.9,496.4z"/>
			<path class="st2" d="M1488.9,496.4v41.4c0,8.9-2.7,17.6-7.9,24.9l-32.9,46.8c-2.7,3.9-8,4.9-11.9,2.3l0,0
				c-3.7-2.4-5-7.1-3.1-11.1l20.4-42.3l-2.8-15.3l-14.6,28.9c-0.7,1.3-2.2,2-3.7,1.6l0,0c-1.5-0.4-2.5-1.9-2.3-3.4l3.1-27.7
				c0.8-7.2,3.3-14.1,7.4-20.1l21.2-22.9L1488.9,496.4z"/>
			<g>
				<polygon class="st2" points="1108.7,311.7 1154.6,317 1182.4,99.7 1129.3,93.5 				"/>
				<path class="st2" d="M1093.9,496.4l27,3.1l33.7-182.5c0,0-42.4-39.8-43.8-27.7c-2.5,21.5-8.9,43.4-12.1,73.1
					C1095.1,395.7,1093.9,496.4,1093.9,496.4z"/>
				<path class="st2" d="M1093.9,496.4v41.4c0,8.9,2.7,17.6,7.9,24.9l32.9,46.8c2.7,3.9,8,4.9,11.9,2.3l0,0c3.7-2.4,5-7.1,3.1-11.1
					l-20.4-42.3l2.8-15.3l14.6,28.8c0.7,1.3,2.2,2,3.7,1.6l0,0c1.5-0.4,2.5-1.9,2.3-3.4l-3.1-27.7c-0.8-7.2-3.3-14.1-7.4-20.1
					l-21.2-22.9L1093.9,496.4z"/>
			</g>
		</g>
	</g>
	<g>
		<g>
			<path class="st3" d="M1308.9,47.4L1308.9,47.4c3.9-2.5,8.4-3.9,13.1-3.9h6.3c7.9,0.5,12.9,3.1,16,7.1
				c21.4,27.7,48.6,65,55.8,114.3c1.7,11.9-15.2,35.7-19.8,39.1c-55.8,41.5-87.2-27.9-87.2-27.9l5-109.7
				C1298.4,58.7,1302.5,51.6,1308.9,47.4z"/>
			<circle class="st3" cx="1345.5" cy="170.1" r="54.6"/>
		</g>
		<g>
			<path class="st3" d="M1274.7,47.4L1274.7,47.4c-3.9-2.5-8.4-3.9-13.1-3.9h-6.3c-7.9,0.5-12.9,3.1-16,7.1
				c-21.4,27.7-48.6,65-55.8,114.3c-1.7,11.9,15.2,35.7,19.8,39.1c55.8,41.5,87.2-27.9,87.2-27.9l17.6-99l-22.5-10.6
				C1285.2,58.7,1281.1,51.6,1274.7,47.4z"/>
			<circle class="st3" cx="1238.1" cy="170.1" r="54.6"/>
		</g>
	</g>
	<path class="st4" d="M1291.4,489.8L1291.4,489.8c-30.3,0-54.9-24.6-54.9-54.9v-61.7c0-30.3,24.6-54.9,54.9-54.9l0,0
		c30.3,0,54.9,24.6,54.9,54.9v61.7C1346.3,465.2,1321.7,489.8,1291.4,489.8z"/>
	<g>
		<g>
			<g>
				<circle class="st4" cx="1259" cy="168.7" r="22.4"/>
				<circle class="st4" cx="1229.2" cy="179.5" r="24.4"/>
				<circle class="st4" cx="1267.9" cy="103.9" r="13.5"/>
				<rect x="1251.6" y="103.9" class="st4" width="29.9" height="61"/>
				<path class="st4" d="M1205.7,172.9c13.2-52.4,53.6-79.5,53.6-79.5l5.4,70.4C1264.8,163.8,1202,187.4,1205.7,172.9z"/>
			</g>
			<g>
				<circle class="st4" cx="1324.6" cy="168.7" r="22.4"/>
				<circle class="st4" cx="1354.4" cy="179.5" r="24.4"/>
				<circle class="st4" cx="1315.7" cy="103.9" r="13.5"/>
				<rect x="1302.1" y="103.9" class="st4" width="29.9" height="61"/>
				<path class="st4" d="M1377.9,172.9c-13.2-52.4-53.6-79.5-53.6-79.5l-5.4,70.4C1318.8,163.8,1381.5,187.4,1377.9,172.9z"/>
			</g>
		</g>
		<rect x="1284.3" y="43" class="st4" width="14.9" height="56.1"/>
		<g>
			
				<rect x="1302" y="87.5" transform="matrix(0.7071 -0.7071 0.7071 0.7071 301.8427 959.7487)" class="st4" width="14.9" height="56.1"/>
			
				<rect x="1266.7" y="87.5" transform="matrix(-0.7071 -0.7071 0.7071 -0.7071 2093.4087 1098.1632)" class="st4" width="14.9" height="56.1"/>
		</g>
	</g>
	<g>
		<path class="st5" d="M1459.5,535.2c0,0,20.9-17.7,20.3-35.7c-1.6-43.9,1.6-76-1.6-100.3c-8-60.9-24.9-73-27.9-100.5
			c-2.6-23.1,5-164.8-13-199.7c-19.1-36.9-65.2-41.5-97.4-33c-22.8,6-28.3,24.1-30.4,35.6c-1.6,8.8-1.8,16.5,2.7,35.8"/>
		<path class="st5" d="M1390.7,64.9c23.7,6.2,25.7,29.3,27.5,56.9c1.8,27.6,33.3,135.3,30.9,171.2c-2.4,35.9-1.1,91.7,6.5,115.8
			c7.6,24.1,21.6,54.8,23.8,80.9"/>
		<path class="st5" d="M1124.4,535.2c0,0-20.9-17.7-20.3-35.7c1.6-43.9-1.6-76,1.6-100.3c8-60.9,24.9-73,27.9-100.5
			c2.6-23.1-5-164.8,13-199.7c19.1-36.9,65.2-41.5,97.4-33c22.8,6,47.4,21.8,51.6,35.6c2.6,8.6,8.6,16.5,4.2,35.8"/>
		<path class="st5" d="M1193.2,64.9c-23.7,6.2-25.7,29.3-27.5,56.9c-1.8,27.6-33.3,135.3-30.9,171.2c2.4,35.9,1.1,91.7-6.5,115.8
			c-7.6,24.1-21.6,54.8-23.8,80.9"/>
		<path class="st5" d="M1339.8,66c0,0-23.1-47.7-24.2-62.9s13.1-41.3,23.2-68.4c5.7-15.3,5-30.2,3.3-40.3c-1.3-7.6-6.4-14-13.5-16.9
			l-4.6-1.9"/>
		<line class="st5" x1="1315.7" y1="-0.3" x2="1321.5" y2="75.3"/>
		<path class="st5" d="M1242.6,65.2c0,0,23.1-46.8,24.2-62c1.1-15.2-13.1-41.3-23.2-68.4c-6.5-17.4-4.7-34.3-2.5-44.1
			c1.2-5.4,4.3-10.1,8.7-13.3l4.8-3.5"/>
		<line class="st5" x1="1266.8" y1="-0.3" x2="1260.9" y2="71.9"/>
		<path class="st5" d="M1295.5,185.6c0,0-3.9,223.5,0.4,234.6c4.3,11.1,78.3,67.9,82.1,115c8.8,108-27.9,228.6-29.6,234.1
			c-6.6,21.4,19,145.2,13.3,195.2c-5.7,50-26.4,117.2-29.7,141.5c-3.2,24.3-5.6,54.3-5.6,54.3"/>
		<path class="st5" d="M1324.6,450.8c13,13.8,18.6,46.7,16.4,84.3c-2.1,37.6,8.4,197.7,2.4,249.2s-18.1,154.4-14.2,193
			c3.9,38.6,7.1,90.2,2.9,128.7"/>
		<path class="st5" d="M1294.4,416.8c-4.3,11.1-86.7,71.3-90.5,118.4c-8.8,108,27.9,228.6,29.6,234.1c6.6,21.4-19,145.2-13.3,195.2
			c5.7,50,26.4,117.2,29.7,141.5c3.2,24.3,5.6,54.3,5.6,54.3"/>
		<path class="st5" d="M1257.8,453c-13,13.8-19,44.6-16.9,82.2c2.1,37.6-8.4,197.7-2.4,249.2s18.1,154.4,14.2,193
			c-3.9,38.6-7.1,90.2-2.9,128.7"/>
	</g>
	<path class="st6" d="M1296.9,114.3c0,0,4.3,6.4,3.8,7.8c-0.4,1.4-3.7,2.6-7.2,11c-2.3,5.8,0.9,11.3-0.6,12.4
		c-1.6,1.1-5.7,7.9-6.9,10.2c-8.9,16.7,4,34.6,13.3,41.2c9.3,6.5,18.4,6.7,24.3,9.3c8.2,3.5,19,5.8,25.3-5.3c0,0,4.1-8.5-1-24.1
		c-2.9-8.9-6.4-15.4-8.1-17.8c-5.5-7.7-11.2-11.2-13.8-12.6c-1.4-0.7-0.8-3.8,2-5c2.8-1.3,6-0.3,6-0.3l1-4c0,0-3.9-1.3-5.8-0.9
		c-1.9,0.3,2.1-4.2,2.3-7.3c0,0-2.7-2.3-4.4-1.7c0,0-1,3.7-3.5,7.7c0,0,1-9.6-5.9-14.6c0,0,1.6-8.1,2.1-8.8c0,0-3.2-1.7-4.5-1.4
		c0,0-1.9,8.1-2.2,8.3c-0.3,0.2-0.9,1.2-1.5,0.2c-0.6-1-0.8-9.6-0.8-9.6l-4.4,0.5c0,0,1.9,9.3,0.7,9.8c-0.4,0.2-0.8,0.8-1.6,0.1
		c-2.1-1.8-4.3-6.9-4.3-7.3C1301.1,111.6,1296.9,114.3,1296.9,114.3z"/>
	<g>
		<circle class="st7" cx="1258.1" cy="-126.8" r="13.6"/>
		<circle class="st7" cx="1278.4" cy="-138.4" r="14.7"/>
		<circle class="st7" cx="1301" cy="-139.8" r="16.3"/>
		<circle class="st7" cx="1251.9" cy="-121.3" r="8.1"/>
		<circle class="st7" cx="1331.4" cy="-121.3" r="8.1"/>
		<circle class="st7" cx="1320.4" cy="-132.8" r="11"/>
		<rect x="1251.9" y="-126.8" class="st7" width="79.6" height="13.6"/>
		<rect x="1277.3" y="-135.9" class="st7" width="14.3" height="17.6"/>
	</g>
	<g>
		<rect x="689" y="-55.5" class="st8" width="380.7" height="354.3"/>
		<text transform="matrix(1 0 0 1 688.9595 -37.9579)" class="st1 st9 st10">Problemas de salud mental</text>
	</g>
	<g>
		<rect x="689" y="-113.6" class="st8" width="283.7" height="41.9"/>
		<text transform="matrix(1 0 0 1 688.96 -89.4429)" class="st1 st9 st11">Cabeza</text>
	</g>
	<line class="st12" x1="1301.4" y1="-135.9" x2="689" y2="-137.7"/>
	<g>
		<rect x="689" y="597.9" class="st8" width="538.6" height="474.6"/>
		<text transform="matrix(1 0 0 1 688.9595 615.4949)" class="st1 st9 st10">Molestias, estrés</text>
		<text transform="matrix(1 0 0 1 688.9595 651.4949)" class="st1 st9 st10">Peor estado de salud general</text>
		<text transform="matrix(1 0 0 1 688.9595 687.4949)" class="st1 st9 st10">Incremento de la mortalidad</text>
	</g>
	<g>
		<rect x="689" y="539.9" class="st8" width="283.7" height="57.7"/>
		<text transform="matrix(1 0 0 1 688.959 564.0106)" class="st1 st9 st11">General/Otros</text>
	</g>
	<line class="st12" x1="1185.1" y1="517.5" x2="689" y2="515.8"/>
	<g>
		<circle class="st7" cx="677.6" cy="607.5" r="5.5"/>
	</g>
	<circle class="st7" cx="677.6" cy="643.5" r="5.5"/>
	<circle class="st7" cx="677.6" cy="679.4" r="5.5"/>
	<circle class="st7" cx="677.6" cy="-45.9" r="5.5"/>
</g>
</svg>
