<?xml version="1.0" encoding="utf-8"?>
<!-- Generator: Adobe Illustrator 19.0.0, SVG Export Plug-In . SVG Version: 6.00 Build 0)  -->
<svg version="1.1" id="Capa_1" xmlns="http://www.w3.org/2000/svg" xmlns:xlink="http://www.w3.org/1999/xlink" x="0px" y="0px"
	 viewBox="570 -225.3 1440 1451.3" style="enable-background:new 570 -225.3 1440 1451.3;" xml:space="preserve">
<style type="text/css">
	.st0{fill:#F4F4F4;}
	.st1{fill:#181716;}
	.st2{fill:#FCD7A6;}
	.st3{fill:#FBE2E0;}
	.st4{fill:#F29700;}
	.st5{fill:#F8D2D0;}
	.st6{fill:none;stroke:#F0A0A0;stroke-width:6.0028;stroke-linecap:round;stroke-miterlimit:10;}
	.st7{fill:#F0A0A0;}
	.st8{fill:none;}
	.st9{enable-background:new    ;}
	.st10{fill:none;stroke:#181716;stroke-width:1.5003;stroke-miterlimit:10;}
</style>
<g id="bg">
	<rect x="570" y="-226" class="st0" width="1440" height="1452.7"/>
	<rect x="570" y="1019.3" class="st1" width="1440" height="207.3"/>
</g>
<g id="cos">
	<g>
		<g>
			<path class="st2" d="M1293.1-169.6c-0.4,0-0.7,0-1,0s-0.7,0-1,0c-44.9-0.4-62.4,35.1-59.8,80.4c2.5,44.3,19.6,91.2,60.6,92.1l0,0
				c0.1,0,0.2,0,0.3,0s0.2,0,0.3,0l0,0c41-0.9,58.1-47.8,60.6-92.1C1355.6-134.4,1338.1-170,1293.1-169.6z"/>
			<g>
				
					<ellipse transform="matrix(-0.1335 0.991 -0.991 -0.1335 1459.9435 -1420.4716)" class="st2" cx="1350.9" cy="-72" rx="23.8" ry="8"/>
				
					<ellipse transform="matrix(-0.991 0.1335 -0.1335 -0.991 2446.2825 -307.6975)" class="st2" cx="1233.5" cy="-71.8" rx="8" ry="23.8"/>
			</g>
			<rect x="1257" y="-29.3" class="st2" width="70.1" height="73.1"/>
			<g>
				<path class="st2" d="M1305,76.8L1256.9,3l0,0c0,20.9-16.9,37.8-37.8,37.8l0,0L1305,76.8z"/>
				<path class="st2" d="M1279.2,76.8L1327.3,3l0,0c0,20.9,16.9,37.8,37.8,37.8l0,0L1279.2,76.8z"/>
			</g>
		</g>
		<g>
			<rect x="1202.5" y="40.5" class="st2" width="178.7" height="281.4"/>
			<path class="st2" d="M1175.1,78.9h233.4v86.2c0,35.4-28.7,64-64,64h-105.4c-35.4,0-64-28.7-64-64V78.9z"/>
			<path class="st2" d="M1129.3,162.2h325.1v-59.3c0-34.5-28-62.4-62.4-62.4h-200.3c-34.5,0-62.4,28-62.4,62.4V162.2z"/>
			<path class="st2" d="M1381.2,321.9h-89.4V518h127.1c0,0,0-24.5,0-74.5C1418.9,395.5,1381.2,321.9,1381.2,321.9z"/>
			<path class="st2" d="M1202.4,321.9h89.4V518h-127.1c0,0,0-24.5,0-74.5C1164.7,395.5,1202.4,321.9,1202.4,321.9z"/>
			<g>
				<path class="st2" d="M1377.1,769c0,19.3-77.1,0-77.1,0V518c0,0,118.8-29.7,118.8,0C1418.9,624.8,1377.1,739.9,1377.1,769z"/>
				<path class="st2" d="M1356,1083.9h-41L1300,769h76.9c0,0,6.4,92.3,6.4,123.2C1383.3,978.9,1356,1083.9,1356,1083.9z"/>
				<path class="st2" d="M1363.8,1178.8c-0.1,2.3-2.4,6-4.9,9.3c-3.8,5-9.7,7.8-15.9,7.8h-29.7c-7,0-12.4-6.1-11.4-13.1l13.1-99h41
					C1355.9,1083.9,1364.8,1149.6,1363.8,1178.8z"/>
			</g>
			<g>
				<path class="st2" d="M1206.5,769c0,19.3,77.1,0,77.1,0V518c0,0-118.8-29.7-118.8,0C1164.7,624.8,1206.5,739.9,1206.5,769z"/>
				<path class="st2" d="M1227.6,1083.9h41l14.9-314.9h-76.9c0,0-6.4,92.3-6.4,123.2C1200.3,978.9,1227.6,1083.9,1227.6,1083.9z"/>
				<path class="st2" d="M1219.8,1178.8c0.1,2.3,2.4,6,4.9,9.3c3.8,5,9.7,7.8,15.9,7.8h29.7c7,0,12.4-6.1,11.4-13.1l-13.1-99h-41
					C1227.7,1083.9,1218.8,1149.6,1219.8,1178.8z"/>
			</g>
			<polygon class="st2" points="1474.8,311.5 1428.9,316.8 1401,99.4 1454.2,93.3 			"/>
			<path class="st2" d="M1489.6,496.1l-27,3.1l-33.7-182.5c0,0,42.4-39.8,43.8-27.7c2.5,21.5,8.9,43.4,12.1,73.1
				C1488.4,395.5,1489.6,496.1,1489.6,496.1z"/>
			<path class="st2" d="M1489.6,496.1v41.4c0,8.9-2.7,17.6-7.9,24.9l-32.9,46.8c-2.7,3.9-8,4.9-11.9,2.3l0,0
				c-3.7-2.4-5-7.1-3.1-11.1l20.4-42.3l-2.8-15.3l-14.6,28.8c-0.7,1.3-2.2,2-3.7,1.6l0,0c-1.5-0.4-2.5-1.9-2.3-3.4l3.1-27.7
				c0.8-7.2,3.3-14.1,7.4-20.1l21.2-22.9L1489.6,496.1z"/>
			<g>
				<polygon class="st2" points="1109.4,311.5 1155.3,316.8 1183.1,99.4 1130,93.3 				"/>
				<path class="st2" d="M1094.6,496.1l27,3.1l33.7-182.5c0,0-42.4-39.8-43.8-27.7c-2.5,21.5-8.9,43.4-12.1,73.1
					C1095.8,395.5,1094.6,496.1,1094.6,496.1z"/>
				<path class="st2" d="M1094.6,496.1v41.4c0,8.9,2.7,17.6,7.9,24.9l32.9,46.8c2.7,3.9,8,4.9,11.9,2.3l0,0c3.7-2.4,5-7.1,3.1-11.1
					l-20.4-42.2l2.8-15.3l14.6,28.8c0.7,1.3,2.2,2,3.7,1.6l0,0c1.5-0.4,2.5-1.9,2.3-3.4l-3.1-27.7c-0.8-7.2-3.3-14.1-7.4-20.1
					l-21.2-22.9L1094.6,496.1z"/>
			</g>
		</g>
	</g>
	<g>
		<g>
			<path class="st3" d="M1309.6,47.1L1309.6,47.1c3.9-2.5,8.4-3.9,13.1-3.9h6.3c7.9,0.5,12.9,3.1,16,7.1
				c21.4,27.7,48.6,65,55.8,114.3c1.7,11.9-15.2,35.7-19.8,39.1c-55.8,41.5-87.2-27.9-87.2-27.9l5-109.7
				C1299.1,58.4,1303.2,51.4,1309.6,47.1z"/>
			<circle class="st3" cx="1346.2" cy="169.9" r="54.6"/>
		</g>
		<g>
			<path class="st3" d="M1275.4,47.1L1275.4,47.1c-3.9-2.5-8.4-3.9-13.1-3.9h-6.3c-7.9,0.5-12.9,3.1-16,7.1
				c-21.4,27.7-48.6,65-55.8,114.3c-1.7,11.9,15.2,35.7,19.8,39.1c55.8,41.5,87.2-27.9,87.2-27.9l17.6-99l-22.5-10.6
				C1285.9,58.4,1281.8,51.4,1275.4,47.1z"/>
			<circle class="st3" cx="1238.8" cy="169.9" r="54.6"/>
		</g>
	</g>
	<path class="st4" d="M1292.1,489.5L1292.1,489.5c-30.3,0-54.9-24.6-54.9-54.9v-61.7c0-30.3,24.6-54.9,54.9-54.9l0,0
		c30.3,0,54.9,24.6,54.9,54.9v61.7C1347,465,1322.4,489.5,1292.1,489.5z"/>
	<g>
		<g>
			<g>
				<circle class="st5" cx="1259.7" cy="168.5" r="22.4"/>
				<circle class="st5" cx="1229.9" cy="179.3" r="24.4"/>
				<circle class="st5" cx="1268.6" cy="103.6" r="13.5"/>
				<rect x="1252.3" y="103.6" class="st5" width="29.9" height="61"/>
				<path class="st5" d="M1206.4,172.7c13.2-52.4,53.6-79.5,53.6-79.5l5.4,70.4C1265.5,163.5,1202.7,187.2,1206.4,172.7z"/>
			</g>
			<g>
				<circle class="st5" cx="1325.3" cy="168.5" r="22.4"/>
				<circle class="st5" cx="1355.1" cy="179.3" r="24.4"/>
				<circle class="st5" cx="1316.4" cy="103.6" r="13.5"/>
				<rect x="1302.8" y="103.7" class="st5" width="29.9" height="61"/>
				<path class="st5" d="M1378.6,172.7c-13.2-52.4-53.6-79.5-53.6-79.5l-5.4,70.4C1319.5,163.5,1382.2,187.2,1378.6,172.7z"/>
			</g>
		</g>
		<rect x="1285" y="42.8" class="st5" width="14.9" height="56.1"/>
		<g>
			
				<rect x="1302.7" y="87.2" transform="matrix(0.7071 -0.7071 0.7071 0.7071 302.2271 960.1982)" class="st5" width="14.9" height="56.1"/>
			
				<rect x="1267.4" y="87.2" transform="matrix(-0.7071 -0.7071 0.7071 -0.7071 2094.8733 1098.1581)" class="st5" width="14.9" height="56.1"/>
		</g>
	</g>
	<g>
		<path class="st6" d="M1460.2,534.9c0,0,20.9-17.7,20.3-35.7c-1.6-43.9,1.6-76-1.6-100.3c-8-60.9-24.9-73-27.9-100.5
			c-2.6-23.1,5-164.8-13-199.7c-19.1-36.9-65.2-41.5-97.4-33c-22.8,6-28.3,24.1-30.4,35.6c-1.6,8.8-1.8,16.5,2.7,35.8"/>
		<path class="st6" d="M1391.4,64.7c23.7,6.2,25.7,29.3,27.5,56.9s33.3,135.3,30.9,171.2c-2.4,35.9-1.1,91.7,6.5,115.8
			s21.6,54.8,23.8,80.9"/>
		<path class="st6" d="M1125.1,534.9c0,0-20.9-17.7-20.3-35.7c1.6-43.9-1.6-76,1.6-100.3c8-60.9,24.9-73,27.9-100.5
			c2.6-23.1-5-164.8,13-199.7c19.1-36.9,65.2-41.5,97.4-33c22.8,6,47.4,21.8,51.6,35.6c2.6,8.6,8.6,16.5,4.2,35.8"/>
		<path class="st6" d="M1193.9,64.7c-23.7,6.2-25.7,29.3-27.5,56.9s-33.3,135.3-30.9,171.2c2.4,35.9,1.1,91.7-6.5,115.8
			s-21.6,54.8-23.8,80.9"/>
		<path class="st6" d="M1340.5,65.8c0,0-23.1-47.7-24.2-62.9c-1.1-15.2,13.1-41.3,23.2-68.4c5.7-15.3,5-30.2,3.3-40.3
			c-1.3-7.6-6.4-14-13.5-16.9l-4.6-1.9"/>
		<line class="st6" x1="1316.4" y1="-0.5" x2="1322.2" y2="75.1"/>
		<path class="st6" d="M1243.3,64.9c0,0,23.1-46.8,24.2-62c1.1-15.2-13.1-41.3-23.2-68.4c-6.5-17.4-4.7-34.3-2.5-44.1
			c1.2-5.4,4.3-10.1,8.7-13.3l4.8-3.5"/>
		<line class="st6" x1="1267.5" y1="-0.5" x2="1261.6" y2="71.7"/>
		<path class="st6" d="M1296.2,185.4c0,0-3.9,223.5,0.4,234.6c4.3,11.1,78.3,67.9,82.1,115c8.8,108-27.9,228.6-29.6,234.1
			c-6.6,21.4,19,145.2,13.3,195.2s-26.4,117.2-29.7,141.5c-3.2,24.3-5.6,54.3-5.6,54.3"/>
		<path class="st6" d="M1325.3,450.6c13,13.8,18.6,46.7,16.4,84.3s8.4,197.7,2.4,249.2s-18.1,154.4-14.2,193
			c3.9,38.6,7.1,90.2,2.9,128.7"/>
		<path class="st6" d="M1295.1,416.6c-4.3,11.1-86.7,71.3-90.5,118.4c-8.8,108,27.9,228.6,29.6,234.1c6.6,21.4-19,145.2-13.3,195.2
			c5.7,50,26.4,117.2,29.7,141.5c3.2,24.3,5.6,54.3,5.6,54.3"/>
		<path class="st6" d="M1258.5,452.7c-13,13.8-19,44.6-16.9,82.2s-8.4,197.7-2.4,249.2s18.1,154.4,14.2,193
			c-3.9,38.6-7.1,90.2-2.9,128.7"/>
	</g>
	<path class="st7" d="M1297.6,114.1c0,0,4.3,6.4,3.8,7.8c-0.4,1.4-3.7,2.6-7.2,11c-2.3,5.8,0.9,11.3-0.6,12.4
		c-1.6,1.1-5.7,7.9-6.9,10.2c-8.9,16.7,4,34.6,13.3,41.2c9.3,6.5,18.4,6.7,24.3,9.3c8.2,3.5,19,5.8,25.3-5.3c0,0,4.1-8.5-1-24.1
		c-2.9-8.9-6.4-15.4-8.1-17.8c-5.5-7.7-11.2-11.2-13.8-12.6c-1.4-0.7-0.8-3.8,2-5c2.8-1.3,6-0.3,6-0.3l1-4c0,0-3.9-1.3-5.8-0.9
		c-1.9,0.3,2.1-4.2,2.3-7.3c0,0-2.7-2.3-4.4-1.7c0,0-1,3.7-3.5,7.7c0,0,1-9.6-5.9-14.6c0,0,1.6-8.1,2.1-8.8c0,0-3.2-1.7-4.5-1.4
		c0,0-1.9,8.1-2.2,8.3c-0.3,0.2-0.9,1.2-1.5,0.2c-0.6-1-0.8-9.6-0.8-9.6l-4.4,0.5c0,0,1.9,9.3,0.7,9.8c-0.4,0.2-0.8,0.8-1.6,0.1
		c-2.1-1.8-4.3-6.9-4.3-7.3C1301.8,111.4,1297.6,114.1,1297.6,114.1z"/>
	<g>
		<circle class="st4" cx="1258.8" cy="-127.1" r="13.6"/>
		<circle class="st4" cx="1279.1" cy="-138.7" r="14.7"/>
		<circle class="st4" cx="1301.7" cy="-140.1" r="16.3"/>
		<circle class="st4" cx="1252.6" cy="-121.6" r="8.1"/>
		<circle class="st4" cx="1332.1" cy="-121.6" r="8.1"/>
		<circle class="st4" cx="1321.1" cy="-133" r="11"/>
		<rect x="1252.6" y="-127.1" class="st4" width="79.6" height="13.6"/>
		<rect x="1278" y="-136.1" class="st4" width="14.3" height="17.6"/>
	</g>
	<g>
		<g>
			<rect x="1532.4" y="614.3" class="st8" width="360.9" height="195.4"/>
			<g class="st9">
				<path class="st1" d="M1650.5,619.2v12.6h-2.3v-16.6h2.4l8.5,12.7v-12.7h2.3v16.6h-2.4L1650.5,619.2z"/>
				<path class="st1" d="M1663.3,627.7c0-0.6,0.1-1.2,0.3-1.7c0.2-0.5,0.5-1,0.9-1.3c0.4-0.4,0.8-0.7,1.4-0.9s1.1-0.3,1.8-0.3
					c0.7,0,1.2,0.1,1.7,0.3s0.8,0.4,1,0.6v-1.1c0-0.8-0.2-1.5-0.6-1.9c-0.4-0.4-0.9-0.7-1.7-0.7c-0.8,0-1.3,0.2-1.6,0.6
					c-0.3,0.4-0.5,0.9-0.5,1.4h-2.1c0-0.6,0.1-1.1,0.3-1.6c0.2-0.5,0.5-0.9,0.8-1.2c0.4-0.3,0.8-0.6,1.3-0.8
					c0.5-0.2,1.2-0.3,1.9-0.3c0.8,0,1.5,0.1,2.1,0.3c0.6,0.2,1,0.5,1.4,0.9c0.4,0.4,0.6,0.9,0.8,1.5s0.3,1.2,0.3,1.9v8.3h-2v-1
					c-0.3,0.4-0.7,0.6-1.2,0.9c-0.5,0.2-1.1,0.3-1.7,0.3c-0.6,0-1.2-0.1-1.7-0.3c-0.5-0.2-1-0.5-1.4-0.9s-0.7-0.8-0.9-1.4
					C1663.4,629,1663.3,628.4,1663.3,627.7z M1665.5,627.7c0,0.7,0.2,1.3,0.7,1.7c0.4,0.5,1,0.7,1.7,0.7c0.7,0,1.3-0.2,1.8-0.7
					c0.5-0.5,0.7-1,0.7-1.7c0-0.7-0.2-1.3-0.7-1.7c-0.5-0.4-1.1-0.7-1.8-0.7c-0.7,0-1.3,0.2-1.7,0.7
					C1665.8,626.4,1665.5,627,1665.5,627.7z"/>
				<path class="st1" d="M1680.9,630c0.4,0,0.8,0,1.2-0.1c0.3-0.1,0.7-0.2,0.9-0.4c0.3-0.1,0.5-0.3,0.7-0.5c0.2-0.2,0.4-0.3,0.6-0.5
					l1.3,1.4c-0.2,0.2-0.4,0.5-0.7,0.7c-0.3,0.2-0.6,0.5-1,0.7c-0.4,0.2-0.8,0.4-1.3,0.5c-0.5,0.1-1.1,0.2-1.7,0.2
					c-1,0-1.9-0.2-2.7-0.5c-0.8-0.3-1.5-0.8-2.1-1.4c-0.6-0.6-1-1.3-1.3-2.1c-0.3-0.8-0.5-1.7-0.5-2.6s0.2-1.8,0.5-2.6
					c0.3-0.8,0.8-1.5,1.4-2.1c0.6-0.6,1.3-1.1,2.1-1.4c0.8-0.3,1.7-0.5,2.6-0.5c0.6,0,1.2,0.1,1.7,0.2c0.5,0.1,1,0.3,1.4,0.5
					c0.4,0.2,0.7,0.4,1,0.7s0.5,0.5,0.7,0.7l-1.4,1.4c-0.3-0.4-0.8-0.7-1.3-1c-0.5-0.3-1.2-0.5-2-0.5c-0.6,0-1.2,0.1-1.7,0.3
					c-0.5,0.2-1,0.6-1.3,1s-0.7,0.9-0.9,1.5c-0.2,0.6-0.3,1.2-0.3,1.8c0,0.7,0.1,1.3,0.3,1.9c0.2,0.6,0.5,1,0.9,1.4
					c0.4,0.4,0.8,0.7,1.4,0.9C1679.7,629.9,1680.3,630,1680.9,630z"/>
				<path class="st1" d="M1688.3,617.7c-0.4,0-0.8-0.1-1.1-0.4s-0.4-0.7-0.4-1.1c0-0.4,0.1-0.8,0.4-1.1s0.7-0.4,1.1-0.4
					c0.4,0,0.8,0.1,1.1,0.4s0.5,0.6,0.5,1.1c0,0.4-0.2,0.8-0.5,1.1S1688.7,617.7,1688.3,617.7z M1689.4,631.8h-2.3V619h2.3V631.8z"
					/>
				<path class="st1" d="M1700.7,631.8h-2.3v-8.2c0-0.8-0.2-1.5-0.5-2c-0.4-0.5-0.9-0.7-1.6-0.7c-0.8,0-1.3,0.3-1.7,0.8
					c-0.4,0.5-0.6,1.2-0.6,2.1v8.1h-2.3V619h2.3v1.2c0.1-0.1,0.2-0.3,0.4-0.4s0.4-0.3,0.6-0.4s0.5-0.2,0.8-0.3s0.7-0.1,1.1-0.1
					c0.8,0,1.5,0.2,2,0.5c0.5,0.3,0.9,0.7,1.1,1.2c0.3-0.5,0.7-0.9,1.2-1.2c0.5-0.3,1.2-0.5,2.1-0.5c0.7,0,1.4,0.1,1.9,0.3
					c0.5,0.2,1,0.6,1.3,1s0.6,0.9,0.7,1.4c0.2,0.5,0.2,1.1,0.2,1.7v8.5h-2.3v-8.3c0-0.8-0.2-1.5-0.5-2c-0.4-0.5-0.9-0.7-1.7-0.7
					c-0.7,0-1.3,0.2-1.7,0.7s-0.6,1.1-0.6,1.9V631.8z"/>
				<path class="st1" d="M1710.9,617.7c-0.4,0-0.8-0.1-1.1-0.4c-0.3-0.3-0.4-0.7-0.4-1.1c0-0.4,0.1-0.8,0.4-1.1
					c0.3-0.3,0.7-0.4,1.1-0.4c0.4,0,0.8,0.1,1.1,0.4c0.3,0.3,0.5,0.6,0.5,1.1c0,0.4-0.2,0.8-0.5,1.1
					C1711.7,617.6,1711.3,617.7,1710.9,617.7z M1712,631.8h-2.3V619h2.3V631.8z"/>
				<path class="st1" d="M1716.1,626.1c0.1,1.2,0.5,2.2,1.2,2.9c0.7,0.7,1.7,1,2.9,1c1,0,1.8-0.2,2.5-0.7c0.6-0.5,1.1-1.1,1.5-1.8
					l1.8,0.9c-0.2,0.5-0.5,1-0.8,1.4c-0.3,0.4-0.8,0.8-1.2,1.2c-0.5,0.3-1,0.6-1.6,0.8s-1.3,0.3-2.1,0.3c-1,0-1.8-0.2-2.6-0.5
					c-0.8-0.3-1.5-0.8-2.1-1.3s-1-1.3-1.3-2.1c-0.3-0.8-0.5-1.7-0.5-2.7c0-1,0.2-1.9,0.5-2.7c0.3-0.8,0.7-1.5,1.3-2.1
					c0.6-0.6,1.2-1.1,2-1.4c0.8-0.3,1.6-0.5,2.5-0.5c0.9,0,1.8,0.1,2.6,0.4c0.8,0.3,1.4,0.7,2,1.3s1,1.2,1.3,2
					c0.3,0.8,0.5,1.6,0.5,2.6c0,0.1,0,0.3,0,0.5c0,0.2,0,0.4,0,0.6H1716.1z M1720,620.7c-1.1,0-1.9,0.3-2.6,0.9s-1.1,1.5-1.2,2.6
					h7.8c-0.1-1.1-0.5-1.9-1.2-2.5C1722.1,621.1,1721.2,620.7,1720,620.7z"/>
				<path class="st1" d="M1734.9,623.6c0-0.9-0.2-1.5-0.6-2c-0.4-0.5-0.9-0.7-1.7-0.7c-0.8,0-1.4,0.3-1.8,0.8
					c-0.4,0.5-0.6,1.2-0.6,2v8.2h-2.3V619h2.3v1.2c0.1-0.1,0.2-0.3,0.4-0.4c0.2-0.2,0.4-0.3,0.6-0.4c0.2-0.1,0.5-0.2,0.8-0.3
					s0.7-0.1,1.1-0.1c0.7,0,1.4,0.1,1.9,0.4s0.9,0.6,1.2,1c0.3,0.4,0.6,0.9,0.7,1.4c0.1,0.5,0.2,1.1,0.2,1.8v8.5h-2.3V623.6z"/>
				<path class="st1" d="M1741.9,619h2.4v1.9h-2.4v7.3c0,0.6,0.1,1,0.3,1.3c0.2,0.3,0.6,0.4,1.2,0.4h0.9v1.9c-0.1,0-0.3,0-0.5,0.1
					s-0.6,0.1-0.9,0.1c-1.2,0-2-0.3-2.5-0.8c-0.5-0.6-0.7-1.4-0.7-2.4v-7.8h-1.3V619h1.3v-2h2.3V619z"/>
				<path class="st1" d="M1744.8,625.4c0-1,0.2-1.9,0.5-2.7c0.3-0.8,0.8-1.5,1.4-2.1s1.3-1.1,2.1-1.4c0.8-0.3,1.7-0.5,2.6-0.5
					c1,0,1.8,0.2,2.7,0.5s1.5,0.8,2.1,1.4s1,1.3,1.4,2.1c0.3,0.8,0.5,1.7,0.5,2.7s-0.2,1.8-0.5,2.7c-0.3,0.8-0.8,1.5-1.4,2.1
					c-0.6,0.6-1.3,1-2.1,1.4s-1.7,0.5-2.6,0.5c-1,0-1.8-0.2-2.7-0.5c-0.8-0.3-1.5-0.8-2.1-1.4c-0.6-0.6-1-1.3-1.4-2.1
					S1744.8,626.4,1744.8,625.4z M1747.1,625.4c0,0.7,0.1,1.3,0.3,1.8c0.2,0.6,0.5,1,0.9,1.4c0.4,0.4,0.8,0.7,1.4,1
					c0.5,0.2,1.1,0.3,1.7,0.3c0.6,0,1.2-0.1,1.8-0.3c0.5-0.2,1-0.5,1.4-1c0.4-0.4,0.7-0.9,0.9-1.4c0.2-0.6,0.3-1.2,0.3-1.8
					c0-0.7-0.1-1.3-0.3-1.8c-0.2-0.6-0.5-1-0.9-1.5s-0.8-0.7-1.4-1c-0.5-0.2-1.1-0.3-1.7-0.3c-0.6,0-1.2,0.1-1.8,0.3
					c-0.5,0.2-1,0.5-1.4,1c-0.4,0.4-0.7,0.9-0.9,1.5C1747.2,624.1,1747.1,624.7,1747.1,625.4z"/>
				<path class="st1" d="M1765.8,636h-2.3v-17h2.2v1.8c0.2-0.3,0.4-0.5,0.7-0.8c0.3-0.2,0.6-0.5,1-0.7c0.4-0.2,0.8-0.3,1.3-0.5
					c0.5-0.1,1-0.2,1.5-0.2c1,0,1.8,0.2,2.6,0.5c0.8,0.3,1.5,0.8,2,1.4c0.6,0.6,1,1.3,1.3,2.1c0.3,0.8,0.5,1.7,0.5,2.7
					c0,0.9-0.2,1.8-0.5,2.6c-0.3,0.8-0.7,1.5-1.3,2.1c-0.6,0.6-1.3,1.1-2.1,1.4c-0.8,0.3-1.7,0.5-2.7,0.5c-0.6,0-1.1-0.1-1.5-0.2
					c-0.5-0.1-0.9-0.3-1.2-0.4c-0.4-0.2-0.7-0.4-0.9-0.6s-0.5-0.4-0.6-0.6V636z M1765.7,625.4c0,0.7,0.1,1.3,0.3,1.8
					c0.2,0.6,0.5,1,0.9,1.5s0.8,0.7,1.4,0.9c0.5,0.2,1.1,0.3,1.8,0.3s1.2-0.1,1.8-0.3c0.5-0.2,1-0.5,1.4-0.9s0.7-0.9,0.9-1.5
					c0.2-0.6,0.3-1.2,0.3-1.8c0-0.7-0.1-1.3-0.3-1.8c-0.2-0.6-0.5-1-0.9-1.5s-0.8-0.7-1.4-1c-0.5-0.2-1.1-0.3-1.8-0.3
					c-0.7,0-1.2,0.1-1.8,0.3c-0.5,0.2-1,0.6-1.4,1s-0.7,0.9-0.9,1.5C1765.8,624.1,1765.7,624.7,1765.7,625.4z"/>
				<path class="st1" d="M1783.6,621.3h-0.6c-0.8,0-1.4,0.2-1.7,0.6c-0.4,0.4-0.5,1-0.5,1.8v8.1h-2.3V619h2.3v1.2
					c0.2-0.4,0.6-0.7,1-0.9c0.4-0.2,1.1-0.4,1.8-0.3V621.3z"/>
				<path class="st1" d="M1786.2,626.1c0.1,1.2,0.5,2.2,1.2,2.9c0.7,0.7,1.7,1,2.9,1c1,0,1.8-0.2,2.5-0.7s1.1-1.1,1.5-1.8l1.8,0.9
					c-0.2,0.5-0.5,1-0.8,1.4c-0.3,0.4-0.8,0.8-1.2,1.2c-0.5,0.3-1,0.6-1.6,0.8s-1.3,0.3-2.1,0.3c-1,0-1.8-0.2-2.6-0.5
					c-0.8-0.3-1.5-0.8-2.1-1.3s-1-1.3-1.3-2.1c-0.3-0.8-0.5-1.7-0.5-2.7c0-1,0.2-1.9,0.5-2.7s0.7-1.5,1.3-2.1c0.6-0.6,1.2-1.1,2-1.4
					c0.8-0.3,1.6-0.5,2.5-0.5c0.9,0,1.8,0.1,2.6,0.4c0.8,0.3,1.4,0.7,2,1.3c0.5,0.5,1,1.2,1.3,2c0.3,0.8,0.5,1.6,0.5,2.6
					c0,0.1,0,0.3,0,0.5c0,0.2,0,0.4,0,0.6H1786.2z M1790.1,620.7c-1.1,0-1.9,0.3-2.6,0.9c-0.7,0.6-1.1,1.5-1.2,2.6h7.8
					c-0.1-1.1-0.5-1.9-1.2-2.5C1792.1,621.1,1791.2,620.7,1790.1,620.7z"/>
				<path class="st1" d="M1807,631.8h-2.3v-8.2c0-0.8-0.2-1.5-0.5-2c-0.4-0.5-0.9-0.7-1.6-0.7c-0.8,0-1.3,0.3-1.7,0.8
					c-0.4,0.5-0.6,1.2-0.6,2.1v8.1h-2.3V619h2.3v1.2c0.1-0.1,0.2-0.3,0.4-0.4s0.4-0.3,0.6-0.4c0.2-0.1,0.5-0.2,0.8-0.3
					c0.3-0.1,0.7-0.1,1.1-0.1c0.8,0,1.5,0.2,2,0.5c0.5,0.3,0.9,0.7,1.1,1.2c0.3-0.5,0.7-0.9,1.2-1.2c0.5-0.3,1.2-0.5,2.1-0.5
					c0.7,0,1.4,0.1,1.9,0.3c0.5,0.2,1,0.6,1.3,1s0.6,0.9,0.7,1.4c0.2,0.5,0.2,1.1,0.2,1.7v8.5h-2.3v-8.3c0-0.8-0.2-1.5-0.5-2
					c-0.4-0.5-0.9-0.7-1.7-0.7c-0.7,0-1.3,0.2-1.7,0.7c-0.4,0.5-0.6,1.1-0.6,1.9V631.8z"/>
				<path class="st1" d="M1815.5,627.7c0-0.6,0.1-1.2,0.3-1.7c0.2-0.5,0.5-1,0.9-1.3c0.4-0.4,0.8-0.7,1.4-0.9
					c0.5-0.2,1.1-0.3,1.8-0.3c0.7,0,1.2,0.1,1.7,0.3c0.4,0.2,0.8,0.4,1,0.6v-1.1c0-0.8-0.2-1.5-0.6-1.9c-0.4-0.4-0.9-0.7-1.7-0.7
					c-0.8,0-1.3,0.2-1.6,0.6c-0.3,0.4-0.5,0.9-0.5,1.4h-2.1c0-0.6,0.1-1.1,0.3-1.6c0.2-0.5,0.5-0.9,0.8-1.2c0.4-0.3,0.8-0.6,1.3-0.8
					c0.5-0.2,1.2-0.3,1.9-0.3c0.8,0,1.5,0.1,2.1,0.3c0.6,0.2,1,0.5,1.4,0.9c0.4,0.4,0.6,0.9,0.8,1.5s0.3,1.2,0.3,1.9v8.3h-2v-1
					c-0.3,0.4-0.7,0.6-1.2,0.9c-0.5,0.2-1.1,0.3-1.7,0.3c-0.6,0-1.2-0.1-1.7-0.3c-0.5-0.2-1-0.5-1.4-0.9s-0.7-0.8-0.9-1.4
					S1815.5,628.4,1815.5,627.7z M1817.7,627.7c0,0.7,0.2,1.3,0.7,1.7c0.4,0.5,1,0.7,1.7,0.7c0.7,0,1.3-0.2,1.8-0.7
					c0.5-0.5,0.7-1,0.7-1.7c0-0.7-0.2-1.3-0.7-1.7c-0.5-0.4-1.1-0.7-1.8-0.7c-0.7,0-1.3,0.2-1.7,0.7
					C1817.9,626.4,1817.7,627,1817.7,627.7z"/>
				<path class="st1" d="M1829.5,619h2.4v1.9h-2.4v7.3c0,0.6,0.1,1,0.3,1.3c0.2,0.3,0.6,0.4,1.2,0.4h0.9v1.9c-0.1,0-0.3,0-0.5,0.1
					s-0.6,0.1-0.9,0.1c-1.2,0-2-0.3-2.5-0.8c-0.5-0.6-0.7-1.4-0.7-2.4v-7.8h-1.3V619h1.3v-2h2.3V619z"/>
				<path class="st1" d="M1835.5,627.2c0,0.9,0.2,1.5,0.5,2c0.4,0.5,0.9,0.7,1.7,0.7c0.8,0,1.3-0.3,1.7-0.8c0.4-0.5,0.6-1.2,0.6-2
					V619h2.3v12.8h-2.3v-1.2c-0.2,0.3-0.5,0.6-1,0.9c-0.5,0.3-1.1,0.4-1.9,0.4c-0.7,0-1.3-0.1-1.8-0.3s-0.9-0.6-1.2-1
					s-0.6-0.9-0.7-1.4c-0.1-0.5-0.2-1.1-0.2-1.8V619h2.3V627.2z"/>
				<path class="st1" d="M1849.9,621.3h-0.6c-0.8,0-1.4,0.2-1.7,0.6c-0.4,0.4-0.5,1-0.5,1.8v8.1h-2.3V619h2.3v1.2
					c0.2-0.4,0.6-0.7,1-0.9c0.4-0.2,1.1-0.4,1.8-0.3V621.3z"/>
				<path class="st1" d="M1850.2,625.4c0-1,0.2-1.9,0.5-2.7c0.3-0.8,0.8-1.5,1.4-2.1c0.6-0.6,1.3-1.1,2.1-1.4s1.7-0.5,2.6-0.5
					c1,0,1.8,0.2,2.7,0.5s1.5,0.8,2.1,1.4c0.6,0.6,1,1.3,1.4,2.1c0.3,0.8,0.5,1.7,0.5,2.7s-0.2,1.8-0.5,2.7
					c-0.3,0.8-0.8,1.5-1.4,2.1s-1.3,1-2.1,1.4s-1.7,0.5-2.6,0.5c-1,0-1.8-0.2-2.7-0.5c-0.8-0.3-1.5-0.8-2.1-1.4s-1-1.3-1.4-2.1
					S1850.2,626.4,1850.2,625.4z M1852.5,625.4c0,0.7,0.1,1.3,0.3,1.8c0.2,0.6,0.5,1,0.9,1.4c0.4,0.4,0.8,0.7,1.4,1
					c0.5,0.2,1.1,0.3,1.7,0.3c0.6,0,1.2-0.1,1.8-0.3c0.5-0.2,1-0.5,1.4-1c0.4-0.4,0.7-0.9,0.9-1.4c0.2-0.6,0.3-1.2,0.3-1.8
					c0-0.7-0.1-1.3-0.3-1.8c-0.2-0.6-0.5-1-0.9-1.5c-0.4-0.4-0.8-0.7-1.4-1c-0.5-0.2-1.1-0.3-1.7-0.3c-0.6,0-1.2,0.1-1.8,0.3
					c-0.5,0.2-1,0.5-1.4,1c-0.4,0.4-0.7,0.9-0.9,1.5C1852.6,624.1,1852.5,624.7,1852.5,625.4z"/>
			</g>
		</g>
		<g>
			<rect x="1526.6" y="518.6" class="st8" width="366.7" height="123.5"/>
			<g class="st9">
				<path class="st1" d="M1553.4,535.3h-8.6l-2.8,7.5h-3.2l8.6-22.8h3.4l9,22.8h-3.4L1553.4,535.3z M1545.8,532.5h6.5l-3.3-8.4
					L1545.8,532.5z"/>
				<path class="st1" d="M1574,526.1c0,1-0.2,1.9-0.5,2.7s-0.8,1.5-1.4,2s-1.3,1-2.1,1.3c-0.8,0.3-1.7,0.4-2.7,0.4h-2.7v10.3h-3.2
					v-22.8h5.9c2.1,0,3.8,0.5,5,1.5C1573.5,522.5,1574,524.1,1574,526.1z M1564.7,522.7v7h2.5c1.2,0,2-0.3,2.6-1
					c0.6-0.6,0.9-1.5,0.9-2.6c0-1.1-0.3-1.9-0.9-2.5c-0.6-0.6-1.5-0.9-2.6-0.9H1564.7z"/>
				<path class="st1" d="M1586.9,535.3h-8.6l-2.8,7.5h-3.2l8.6-22.8h3.4l9,22.8h-3.4L1586.9,535.3z M1579.4,532.5h6.5l-3.3-8.4
					L1579.4,532.5z"/>
				<path class="st1" d="M1607.6,526.2c0,1.4-0.3,2.6-0.9,3.6c-0.6,1-1.5,1.7-2.6,2.2l5.7,10.9h-3.5l-5.4-10.3h-2.7v10.3h-3.2v-22.8
					h5.9c2.1,0,3.8,0.5,5,1.6C1607,522.5,1607.6,524.1,1607.6,526.2z M1598.2,522.7v7h2.5c1.2,0,2-0.3,2.6-1
					c0.6-0.6,0.9-1.5,0.9-2.6c0-1.1-0.3-1.9-0.9-2.5c-0.6-0.6-1.5-0.9-2.6-0.9H1598.2z"/>
				<path class="st1" d="M1624.9,535.3h-8.6l-2.8,7.5h-3.2l8.6-22.8h3.4l9,22.8h-3.4L1624.9,535.3z M1617.4,532.5h6.5l-3.3-8.4
					L1617.4,532.5z"/>
				<path class="st1" d="M1637.4,522.9v19.8h-3.2v-19.8h-4.7v-3h12.6v3H1637.4z"/>
				<path class="st1" d="M1642,531.4c0-1.7,0.3-3.3,0.9-4.8s1.4-2.7,2.4-3.8c1-1.1,2.3-1.9,3.7-2.5c1.4-0.6,3-0.9,4.7-0.9
					c1.7,0,3.3,0.3,4.8,0.9c1.4,0.6,2.7,1.4,3.7,2.5s1.8,2.3,2.4,3.8c0.6,1.5,0.9,3,0.9,4.7s-0.3,3.3-0.9,4.7
					c-0.6,1.5-1.4,2.7-2.4,3.8s-2.3,1.9-3.7,2.5c-1.4,0.6-3,0.9-4.7,0.9c-1.7,0-3.3-0.3-4.7-0.9c-1.4-0.6-2.7-1.4-3.7-2.5
					c-1-1.1-1.8-2.3-2.4-3.8C1642.3,534.7,1642,533.1,1642,531.4z M1645.4,531.4c0,1.3,0.2,2.5,0.6,3.6s1,2,1.7,2.8
					c0.7,0.8,1.6,1.4,2.6,1.8c1,0.4,2.1,0.7,3.4,0.7c1.3,0,2.4-0.2,3.4-0.7s1.9-1.1,2.6-1.8s1.3-1.7,1.7-2.8
					c0.4-1.1,0.6-2.3,0.6-3.6c0-1.3-0.2-2.5-0.6-3.5c-0.4-1.1-1-2-1.7-2.8c-0.7-0.8-1.6-1.4-2.6-1.8c-1-0.4-2.2-0.7-3.4-0.7
					c-1.3,0-2.4,0.2-3.4,0.7c-1,0.4-1.9,1.1-2.6,1.8s-1.3,1.7-1.7,2.8C1645.6,528.9,1645.4,530.1,1645.4,531.4z"/>
				<path class="st1" d="M1685.7,526.2c0,1.4-0.3,2.6-0.9,3.6s-1.5,1.7-2.6,2.2l5.7,10.9h-3.5l-5.4-10.3h-2.7v10.3h-3.2v-22.8h5.9
					c2.1,0,3.8,0.5,5,1.6C1685.2,522.5,1685.7,524.1,1685.7,526.2z M1676.4,522.7v7h2.5c1.2,0,2-0.3,2.6-1c0.6-0.6,0.9-1.5,0.9-2.6
					c0-1.1-0.3-1.9-0.9-2.5c-0.6-0.6-1.5-0.9-2.6-0.9H1676.4z"/>
				<path class="st1" d="M1689.5,542.8v-22.8h9.9v3h-6.7v6.6h6.5v3h-6.5v7.2h6.8v3H1689.5z"/>
				<path class="st1" d="M1715,526.1c0,1-0.2,1.9-0.5,2.7s-0.8,1.5-1.4,2s-1.3,1-2.1,1.3c-0.8,0.3-1.7,0.4-2.7,0.4h-2.7v10.3h-3.2
					v-22.8h5.9c2.1,0,3.8,0.5,5,1.5S1715,524.1,1715,526.1z M1705.7,522.7v7h2.5c1.2,0,2-0.3,2.6-1c0.6-0.6,0.9-1.5,0.9-2.6
					c0-1.1-0.3-1.9-0.9-2.5c-0.6-0.6-1.5-0.9-2.6-0.9H1705.7z"/>
				<path class="st1" d="M1730.1,526.2c0,1.4-0.3,2.6-0.9,3.6c-0.6,1-1.5,1.7-2.6,2.2l5.7,10.9h-3.5l-5.4-10.3h-2.7v10.3h-3.2v-22.8
					h5.9c2.1,0,3.8,0.5,5,1.6S1730.1,524.1,1730.1,526.2z M1720.7,522.7v7h2.5c1.2,0,2-0.3,2.6-1c0.6-0.6,0.9-1.5,0.9-2.6
					c0-1.1-0.3-1.9-0.9-2.5c-0.6-0.6-1.5-0.9-2.6-0.9H1720.7z"/>
				<path class="st1" d="M1732.1,531.4c0-1.7,0.3-3.3,0.9-4.8s1.4-2.7,2.4-3.8c1-1.1,2.3-1.9,3.7-2.5c1.4-0.6,3-0.9,4.7-0.9
					c1.7,0,3.3,0.3,4.8,0.9s2.7,1.4,3.7,2.5c1,1.1,1.8,2.3,2.4,3.8s0.9,3,0.9,4.7s-0.3,3.3-0.9,4.7s-1.4,2.7-2.4,3.8
					c-1,1.1-2.3,1.9-3.7,2.5c-1.4,0.6-3,0.9-4.7,0.9c-1.7,0-3.3-0.3-4.7-0.9c-1.4-0.6-2.7-1.4-3.7-2.5c-1-1.1-1.8-2.3-2.4-3.8
					C1732.4,534.7,1732.1,533.1,1732.1,531.4z M1735.5,531.4c0,1.3,0.2,2.5,0.6,3.6s1,2,1.7,2.8c0.7,0.8,1.6,1.4,2.6,1.8
					s2.1,0.7,3.4,0.7c1.3,0,2.4-0.2,3.4-0.7s1.9-1.1,2.6-1.8c0.7-0.8,1.3-1.7,1.7-2.8s0.6-2.3,0.6-3.6c0-1.3-0.2-2.5-0.6-3.5
					c-0.4-1.1-1-2-1.7-2.8c-0.7-0.8-1.6-1.4-2.6-1.8c-1-0.4-2.2-0.7-3.4-0.7c-1.3,0-2.4,0.2-3.4,0.7c-1,0.4-1.9,1.1-2.6,1.8
					c-0.7,0.8-1.3,1.7-1.7,2.8C1735.7,528.9,1735.5,530.1,1735.5,531.4z"/>
				<path class="st1" d="M1761.9,519.9c1.8,0,3.5,0.3,4.9,0.8s2.7,1.3,3.7,2.3c1,1,1.8,2.2,2.3,3.6s0.8,3,0.8,4.7
					c0,1.7-0.3,3.3-0.8,4.7s-1.3,2.6-2.3,3.6c-1,1-2.2,1.8-3.7,2.3c-1.5,0.6-3.1,0.8-4.9,0.8h-3.8v-22.8H1761.9z M1761.4,539.9h0.7
					c2.6,0,4.6-0.7,6.1-2.2c1.4-1.5,2.1-3.6,2.1-6.3c0-2.7-0.7-4.8-2.1-6.3c-1.4-1.5-3.4-2.2-6.1-2.2h-0.7V539.9z"/>
				<path class="st1" d="M1784.8,543.2c-1.5,0-2.8-0.2-3.8-0.6c-1.1-0.4-2-1-2.7-1.8c-0.7-0.8-1.2-1.7-1.6-2.9
					c-0.4-1.1-0.5-2.3-0.5-3.7v-14.2h3.2v14.2c0,1.8,0.4,3.3,1.3,4.4s2.2,1.7,4.1,1.7c1.8,0,3.1-0.6,4-1.7c0.9-1.1,1.4-2.6,1.4-4.4
					v-14.2h3.2v14.2c0,1.3-0.2,2.5-0.6,3.6c-0.4,1.1-0.9,2.1-1.7,2.9c-0.7,0.8-1.6,1.4-2.7,1.9
					C1787.4,543,1786.2,543.2,1784.8,543.2z"/>
				<path class="st1" d="M1815.3,540.2c-0.4,0.4-0.8,0.7-1.3,1.1c-0.5,0.4-1.1,0.7-1.7,1c-0.6,0.3-1.3,0.5-2.1,0.7
					c-0.8,0.2-1.6,0.3-2.4,0.3c-1.8,0-3.4-0.3-4.8-0.9c-1.5-0.6-2.7-1.4-3.7-2.5s-1.8-2.3-2.4-3.7c-0.6-1.5-0.8-3-0.8-4.8
					c0-1.7,0.3-3.3,0.9-4.8c0.6-1.5,1.4-2.7,2.4-3.8s2.3-1.9,3.7-2.5c1.4-0.6,3-0.9,4.8-0.9c1.5,0,2.9,0.2,4.1,0.7
					c1.2,0.5,2.3,1.1,3.3,1.9l-1.9,2.4c-0.7-0.6-1.5-1.1-2.4-1.4s-1.9-0.6-3.1-0.6c-1.3,0-2.4,0.2-3.4,0.7c-1,0.4-1.9,1.1-2.6,1.8
					c-0.7,0.8-1.3,1.7-1.7,2.8c-0.4,1.1-0.6,2.3-0.6,3.5c0,1.3,0.2,2.5,0.6,3.6s1,2,1.7,2.8s1.6,1.4,2.7,1.8c1,0.4,2.2,0.7,3.4,0.7
					c1.3,0,2.4-0.2,3.3-0.7c0.9-0.5,1.7-1,2.3-1.5L1815.3,540.2z"/>
				<path class="st1" d="M1824.2,522.9v19.8h-3.2v-19.8h-4.7v-3h12.6v3H1824.2z"/>
				<path class="st1" d="M1828.8,531.4c0-1.7,0.3-3.3,0.9-4.8s1.4-2.7,2.4-3.8c1-1.1,2.3-1.9,3.7-2.5c1.4-0.6,3-0.9,4.7-0.9
					c1.7,0,3.3,0.3,4.8,0.9s2.7,1.4,3.7,2.5c1,1.1,1.8,2.3,2.4,3.8s0.9,3,0.9,4.7s-0.3,3.3-0.9,4.7s-1.4,2.7-2.4,3.8
					c-1,1.1-2.3,1.9-3.7,2.5c-1.4,0.6-3,0.9-4.7,0.9c-1.7,0-3.3-0.3-4.7-0.9c-1.4-0.6-2.7-1.4-3.7-2.5c-1-1.1-1.8-2.3-2.4-3.8
					C1829.1,534.7,1828.8,533.1,1828.8,531.4z M1832.2,531.4c0,1.3,0.2,2.5,0.6,3.6s1,2,1.7,2.8c0.7,0.8,1.6,1.4,2.6,1.8
					s2.1,0.7,3.4,0.7c1.3,0,2.4-0.2,3.4-0.7s1.9-1.1,2.6-1.8c0.7-0.8,1.3-1.7,1.7-2.8s0.6-2.3,0.6-3.6c0-1.3-0.2-2.5-0.6-3.5
					c-0.4-1.1-1-2-1.7-2.8c-0.7-0.8-1.6-1.4-2.6-1.8c-1-0.4-2.2-0.7-3.4-0.7c-1.3,0-2.4,0.2-3.4,0.7c-1,0.4-1.9,1.1-2.6,1.8
					c-0.7,0.8-1.3,1.7-1.7,2.8C1832.4,528.9,1832.2,530.1,1832.2,531.4z"/>
				<path class="st1" d="M1867.4,526.2c0,1.4-0.3,2.6-0.9,3.6c-0.6,1-1.5,1.7-2.6,2.2l5.7,10.9h-3.5l-5.4-10.3h-2.7v10.3h-3.2v-22.8
					h5.9c2.1,0,3.8,0.5,5,1.6S1867.4,524.1,1867.4,526.2z M1858.1,522.7v7h2.5c1.2,0,2-0.3,2.6-1c0.6-0.6,0.9-1.5,0.9-2.6
					c0-1.1-0.3-1.9-0.9-2.5c-0.6-0.6-1.5-0.9-2.6-0.9H1858.1z"/>
			</g>
			<g class="st9">
				<path class="st1" d="M1779.6,557.4h3.6l4.5,8l4.5-8h3.5l-6.5,11.1v11.8h-3.2v-11.7L1779.6,557.4z"/>
				<path class="st1" d="M1805.7,570v10.2h-3.2v-22.8h10v3h-6.8v6.6h6.6v3H1805.7z"/>
				<path class="st1" d="M1815.3,580.3v-22.8h9.9v3h-6.7v6.6h6.5v3h-6.5v7.2h6.8v3H1815.3z"/>
				<path class="st1" d="M1835,560.4v19.8h-3.2v-19.8h-4.7v-3h12.6v3H1835z"/>
				<path class="st1" d="M1839.6,568.9c0-1.7,0.3-3.3,0.9-4.8c0.6-1.5,1.4-2.7,2.4-3.8s2.3-1.9,3.7-2.5c1.4-0.6,3-0.9,4.7-0.9
					c1.7,0,3.3,0.3,4.8,0.9s2.7,1.4,3.7,2.5c1,1.1,1.8,2.3,2.4,3.8s0.9,3,0.9,4.7s-0.3,3.3-0.9,4.7s-1.4,2.7-2.4,3.8
					c-1,1.1-2.3,1.9-3.7,2.5c-1.4,0.6-3,0.9-4.7,0.9c-1.7,0-3.3-0.3-4.7-0.9c-1.4-0.6-2.7-1.4-3.7-2.5c-1-1.1-1.8-2.3-2.4-3.8
					C1839.9,572.2,1839.6,570.6,1839.6,568.9z M1843,568.9c0,1.3,0.2,2.5,0.6,3.6c0.4,1.1,1,2,1.7,2.8c0.7,0.8,1.6,1.4,2.6,1.8
					c1,0.4,2.1,0.7,3.4,0.7c1.3,0,2.4-0.2,3.4-0.7c1-0.4,1.9-1.1,2.6-1.8c0.7-0.8,1.3-1.7,1.7-2.8c0.4-1.1,0.6-2.3,0.6-3.6
					c0-1.3-0.2-2.5-0.6-3.5c-0.4-1.1-1-2-1.7-2.8c-0.7-0.8-1.6-1.4-2.6-1.8c-1-0.4-2.2-0.7-3.4-0.7c-1.3,0-2.4,0.2-3.4,0.7
					c-1,0.4-1.9,1.1-2.6,1.8c-0.7,0.8-1.3,1.7-1.7,2.8C1843.2,566.4,1843,567.6,1843,568.9z"/>
			</g>
		</g>
		<g>
			<rect x="689.7" y="597.7" class="st8" width="538.6" height="128.5"/>
			<g class="st9">
				<path d="M691,615.3v-16.6h2.4v14.4h4.8v2.2H691z"/>
				<path d="M701,609.5c0.1,1.2,0.5,2.2,1.2,2.9c0.7,0.7,1.7,1,2.9,1c1,0,1.8-0.2,2.5-0.7s1.1-1.1,1.5-1.8l1.8,0.9
					c-0.2,0.5-0.5,1-0.8,1.4c-0.3,0.4-0.8,0.8-1.2,1.2c-0.5,0.3-1,0.6-1.6,0.8c-0.6,0.2-1.3,0.3-2.1,0.3c-1,0-1.8-0.2-2.6-0.5
					c-0.8-0.3-1.5-0.8-2.1-1.3s-1-1.3-1.3-2.1c-0.3-0.8-0.5-1.7-0.5-2.7c0-1,0.2-1.9,0.5-2.7c0.3-0.8,0.7-1.5,1.3-2.1
					c0.6-0.6,1.2-1.1,2-1.4c0.8-0.3,1.6-0.5,2.5-0.5c0.9,0,1.8,0.1,2.6,0.4c0.8,0.3,1.4,0.7,2,1.3s1,1.2,1.3,2
					c0.3,0.8,0.5,1.6,0.5,2.6c0,0.1,0,0.3,0,0.5c0,0.2,0,0.4,0,0.6H701z M704.9,604.2c-1.1,0-1.9,0.3-2.6,0.9
					c-0.7,0.6-1.1,1.5-1.2,2.6h7.8c-0.1-1.1-0.5-1.9-1.2-2.5C706.9,604.5,706,604.2,704.9,604.2z"/>
				<path d="M714.6,605.6c0,0.8,0.4,1.3,1.3,1.6c0.3,0.1,0.7,0.2,1,0.3s0.7,0.2,1,0.3c0.9,0.3,1.6,0.8,2.1,1.3
					c0.5,0.6,0.7,1.3,0.7,2.4c0,0.6-0.1,1.2-0.3,1.7c-0.2,0.5-0.5,0.9-0.9,1.2c-0.4,0.3-0.9,0.6-1.4,0.7c-0.5,0.2-1.1,0.2-1.7,0.2
					c-0.8,0-1.5-0.1-2.1-0.3c-0.6-0.2-1-0.5-1.3-0.9c-0.3-0.4-0.6-0.8-0.7-1.3s-0.2-1-0.2-1.6h2.2c0,0.3,0,0.6,0.1,0.9
					c0.1,0.3,0.2,0.5,0.4,0.7s0.4,0.4,0.6,0.5s0.6,0.2,1,0.2c0.6,0,1-0.1,1.5-0.4c0.4-0.3,0.6-0.7,0.6-1.3c0-0.5-0.1-0.9-0.4-1.2
					c-0.3-0.3-0.6-0.5-1.1-0.7c-0.4-0.1-0.7-0.2-1.1-0.3c-0.4-0.1-0.8-0.2-1.2-0.4c-0.8-0.4-1.4-0.8-1.8-1.4c-0.4-0.6-0.5-1.2-0.5-2
					c0-0.5,0.1-1,0.3-1.4c0.2-0.4,0.5-0.8,0.8-1.1c0.4-0.3,0.8-0.5,1.3-0.7c0.5-0.2,1-0.3,1.6-0.3c1.3,0,2.3,0.4,3,1.1
					c0.6,0.7,1,1.7,1,2.8h-2.1c0-0.7-0.2-1.2-0.5-1.5s-0.8-0.6-1.4-0.6c-0.5,0-1,0.1-1.3,0.4S714.6,605.1,714.6,605.6z"/>
				<path d="M723.5,601.2c-0.4,0-0.8-0.1-1.1-0.4c-0.3-0.3-0.4-0.7-0.4-1.1c0-0.4,0.1-0.8,0.4-1.1c0.3-0.3,0.7-0.4,1.1-0.4
					c0.4,0,0.8,0.1,1.1,0.4c0.3,0.3,0.5,0.6,0.5,1.1c0,0.4-0.2,0.8-0.5,1.1C724.3,601,723.9,601.2,723.5,601.2z M724.7,615.3h-2.3
					v-12.8h2.3V615.3z"/>
				<path d="M726.4,608.8c0-1,0.2-1.9,0.5-2.7c0.3-0.8,0.8-1.5,1.4-2.1c0.6-0.6,1.3-1.1,2.1-1.4c0.8-0.3,1.7-0.5,2.6-0.5
					c1,0,1.8,0.2,2.7,0.5s1.5,0.8,2.1,1.4c0.6,0.6,1,1.3,1.4,2.1c0.3,0.8,0.5,1.7,0.5,2.7s-0.2,1.8-0.5,2.7
					c-0.3,0.8-0.8,1.5-1.4,2.1c-0.6,0.6-1.3,1-2.1,1.4c-0.8,0.3-1.7,0.5-2.6,0.5c-1,0-1.8-0.2-2.7-0.5c-0.8-0.3-1.5-0.8-2.1-1.4
					c-0.6-0.6-1-1.3-1.4-2.1C726.6,610.7,726.4,609.8,726.4,608.8z M728.7,608.8c0,0.7,0.1,1.3,0.3,1.8c0.2,0.6,0.5,1,0.9,1.4
					c0.4,0.4,0.8,0.7,1.4,1c0.5,0.2,1.1,0.3,1.7,0.3c0.6,0,1.2-0.1,1.8-0.3c0.5-0.2,1-0.5,1.4-1c0.4-0.4,0.7-0.9,0.9-1.4
					c0.2-0.6,0.3-1.2,0.3-1.8c0-0.7-0.1-1.3-0.3-1.8c-0.2-0.6-0.5-1-0.9-1.5s-0.8-0.7-1.4-1c-0.5-0.2-1.1-0.3-1.7-0.3
					c-0.6,0-1.2,0.1-1.8,0.3c-0.5,0.2-1,0.5-1.4,1c-0.4,0.4-0.7,0.9-0.9,1.5C728.8,607.6,728.7,608.2,728.7,608.8z"/>
				<path d="M748.3,607c0-0.9-0.2-1.5-0.6-2c-0.4-0.5-0.9-0.7-1.7-0.7c-0.8,0-1.4,0.3-1.8,0.8c-0.4,0.5-0.6,1.2-0.6,2v8.2h-2.3
					v-12.8h2.3v1.2c0.1-0.1,0.2-0.3,0.4-0.4c0.2-0.2,0.4-0.3,0.6-0.4c0.2-0.1,0.5-0.2,0.8-0.3c0.3-0.1,0.7-0.1,1.1-0.1
					c0.7,0,1.4,0.1,1.9,0.4c0.5,0.2,0.9,0.6,1.2,1c0.3,0.4,0.6,0.9,0.7,1.4c0.1,0.5,0.2,1.1,0.2,1.8v8.5h-2.3V607z"/>
				<path d="M754.7,609.5c0.1,1.2,0.5,2.2,1.2,2.9c0.7,0.7,1.7,1,2.9,1c1,0,1.8-0.2,2.5-0.7s1.1-1.1,1.5-1.8l1.8,0.9
					c-0.2,0.5-0.5,1-0.8,1.4c-0.3,0.4-0.8,0.8-1.2,1.2c-0.5,0.3-1,0.6-1.6,0.8c-0.6,0.2-1.3,0.3-2.1,0.3c-1,0-1.8-0.2-2.6-0.5
					c-0.8-0.3-1.5-0.8-2.1-1.3s-1-1.3-1.3-2.1c-0.3-0.8-0.5-1.7-0.5-2.7c0-1,0.2-1.9,0.5-2.7c0.3-0.8,0.7-1.5,1.3-2.1
					c0.6-0.6,1.2-1.1,2-1.4c0.8-0.3,1.6-0.5,2.5-0.5c0.9,0,1.8,0.1,2.6,0.4c0.8,0.3,1.4,0.7,2,1.3s1,1.2,1.3,2
					c0.3,0.8,0.5,1.6,0.5,2.6c0,0.1,0,0.3,0,0.5c0,0.2,0,0.4,0,0.6H754.7z M758.6,604.2c-1.1,0-1.9,0.3-2.6,0.9
					c-0.7,0.6-1.1,1.5-1.2,2.6h7.8c-0.1-1.1-0.5-1.9-1.2-2.5C760.6,604.5,759.7,604.2,758.6,604.2z"/>
				<path d="M768.3,605.6c0,0.8,0.4,1.3,1.3,1.6c0.3,0.1,0.7,0.2,1,0.3s0.7,0.2,1,0.3c0.9,0.3,1.6,0.8,2.1,1.3
					c0.5,0.6,0.7,1.3,0.7,2.4c0,0.6-0.1,1.2-0.3,1.7c-0.2,0.5-0.5,0.9-0.9,1.2c-0.4,0.3-0.9,0.6-1.4,0.7c-0.5,0.2-1.1,0.2-1.7,0.2
					c-0.8,0-1.5-0.1-2.1-0.3c-0.6-0.2-1-0.5-1.3-0.9c-0.3-0.4-0.6-0.8-0.7-1.3s-0.2-1-0.2-1.6h2.2c0,0.3,0,0.6,0.1,0.9
					c0.1,0.3,0.2,0.5,0.4,0.7s0.4,0.4,0.6,0.5s0.6,0.2,1,0.2c0.6,0,1-0.1,1.5-0.4c0.4-0.3,0.6-0.7,0.6-1.3c0-0.5-0.1-0.9-0.4-1.2
					c-0.3-0.3-0.6-0.5-1.1-0.7c-0.4-0.1-0.7-0.2-1.1-0.3c-0.4-0.1-0.8-0.2-1.2-0.4c-0.8-0.4-1.4-0.8-1.8-1.4c-0.4-0.6-0.5-1.2-0.5-2
					c0-0.5,0.1-1,0.3-1.4c0.2-0.4,0.5-0.8,0.8-1.1c0.4-0.3,0.8-0.5,1.3-0.7c0.5-0.2,1-0.3,1.6-0.3c1.3,0,2.3,0.4,3,1.1
					c0.6,0.7,1,1.7,1,2.8H772c0-0.7-0.2-1.2-0.5-1.5s-0.8-0.6-1.4-0.6c-0.5,0-1,0.1-1.3,0.4S768.3,605.1,768.3,605.6z"/>
				<path d="M782.1,619.5h-2.3v-17h2.2v1.8c0.2-0.3,0.4-0.5,0.7-0.8c0.3-0.2,0.6-0.5,1-0.7c0.4-0.2,0.8-0.3,1.3-0.5s1-0.2,1.5-0.2
					c1,0,1.8,0.2,2.6,0.5c0.8,0.3,1.5,0.8,2,1.4c0.6,0.6,1,1.3,1.3,2.1s0.5,1.7,0.5,2.7c0,0.9-0.2,1.8-0.5,2.6
					c-0.3,0.8-0.7,1.5-1.3,2.1c-0.6,0.6-1.3,1.1-2.1,1.4c-0.8,0.3-1.7,0.5-2.7,0.5c-0.6,0-1.1-0.1-1.5-0.2s-0.9-0.3-1.2-0.4
					c-0.4-0.2-0.7-0.4-0.9-0.6s-0.5-0.4-0.6-0.6V619.5z M782,608.8c0,0.7,0.1,1.3,0.3,1.8c0.2,0.6,0.5,1,0.9,1.5s0.8,0.7,1.4,0.9
					c0.5,0.2,1.1,0.3,1.8,0.3s1.2-0.1,1.8-0.3c0.5-0.2,1-0.5,1.4-0.9s0.7-0.9,0.9-1.5c0.2-0.6,0.3-1.2,0.3-1.8
					c0-0.7-0.1-1.3-0.3-1.8c-0.2-0.6-0.5-1-0.9-1.5c-0.4-0.4-0.8-0.7-1.4-1c-0.5-0.2-1.1-0.3-1.8-0.3c-0.7,0-1.2,0.1-1.8,0.3
					c-0.5,0.2-1,0.6-1.4,1s-0.7,0.9-0.9,1.5C782.1,607.6,782,608.2,782,608.8z"/>
				<path d="M794.1,608.8c0-1,0.2-1.9,0.5-2.7c0.3-0.8,0.8-1.5,1.4-2.1c0.6-0.6,1.3-1.1,2.1-1.4c0.8-0.3,1.7-0.5,2.6-0.5
					c1,0,1.8,0.2,2.7,0.5s1.5,0.8,2.1,1.4c0.6,0.6,1,1.3,1.4,2.1c0.3,0.8,0.5,1.7,0.5,2.7s-0.2,1.8-0.5,2.7
					c-0.3,0.8-0.8,1.5-1.4,2.1c-0.6,0.6-1.3,1-2.1,1.4c-0.8,0.3-1.7,0.5-2.6,0.5c-1,0-1.8-0.2-2.7-0.5c-0.8-0.3-1.5-0.8-2.1-1.4
					c-0.6-0.6-1-1.3-1.4-2.1C794.2,610.7,794.1,609.8,794.1,608.8z M796.4,608.8c0,0.7,0.1,1.3,0.3,1.8c0.2,0.6,0.5,1,0.9,1.4
					c0.4,0.4,0.8,0.7,1.4,1c0.5,0.2,1.1,0.3,1.7,0.3c0.6,0,1.2-0.1,1.8-0.3c0.5-0.2,1-0.5,1.4-1c0.4-0.4,0.7-0.9,0.9-1.4
					c0.2-0.6,0.3-1.2,0.3-1.8c0-0.7-0.1-1.3-0.3-1.8c-0.2-0.6-0.5-1-0.9-1.5s-0.8-0.7-1.4-1c-0.5-0.2-1.1-0.3-1.7-0.3
					c-0.6,0-1.2,0.1-1.8,0.3c-0.5,0.2-1,0.5-1.4,1c-0.4,0.4-0.7,0.9-0.9,1.5C796.5,607.6,796.4,608.2,796.4,608.8z"/>
				<path d="M814.2,604.7h-0.6c-0.8,0-1.4,0.2-1.7,0.6c-0.4,0.4-0.5,1-0.5,1.8v8.1h-2.3v-12.8h2.3v1.2c0.2-0.4,0.6-0.7,1-0.9
					s1.1-0.4,1.8-0.3V604.7z"/>
				<path d="M819,611.2c0-0.6,0.1-1.2,0.3-1.7c0.2-0.5,0.5-1,0.9-1.3c0.4-0.4,0.8-0.7,1.4-0.9s1.1-0.3,1.8-0.3
					c0.7,0,1.2,0.1,1.7,0.3c0.4,0.2,0.8,0.4,1,0.6v-1.1c0-0.8-0.2-1.5-0.6-1.9c-0.4-0.4-0.9-0.7-1.7-0.7c-0.8,0-1.3,0.2-1.6,0.6
					c-0.3,0.4-0.5,0.9-0.5,1.4h-2.1c0-0.6,0.1-1.1,0.3-1.6c0.2-0.5,0.5-0.9,0.8-1.2c0.4-0.3,0.8-0.6,1.3-0.8
					c0.5-0.2,1.2-0.3,1.9-0.3c0.8,0,1.5,0.1,2.1,0.3c0.6,0.2,1,0.5,1.4,0.9c0.4,0.4,0.6,0.9,0.8,1.5s0.3,1.2,0.3,1.9v8.3h-2v-1
					c-0.3,0.4-0.7,0.6-1.2,0.9c-0.5,0.2-1.1,0.3-1.7,0.3c-0.6,0-1.2-0.1-1.7-0.3c-0.5-0.2-1-0.5-1.4-0.9s-0.7-0.8-0.9-1.4
					C819.1,612.4,819,611.8,819,611.2z M821.2,611.1c0,0.7,0.2,1.3,0.7,1.7c0.4,0.5,1,0.7,1.7,0.7c0.7,0,1.3-0.2,1.8-0.7
					c0.5-0.5,0.7-1,0.7-1.7c0-0.7-0.2-1.3-0.7-1.7s-1.1-0.7-1.8-0.7s-1.3,0.2-1.7,0.7C821.4,609.9,821.2,610.4,821.2,611.1z"/>
				<path d="M836.5,613.4c0.4,0,0.8,0,1.2-0.1s0.7-0.2,0.9-0.4c0.3-0.1,0.5-0.3,0.7-0.5c0.2-0.2,0.4-0.3,0.6-0.5l1.3,1.4
					c-0.2,0.2-0.4,0.5-0.7,0.7c-0.3,0.2-0.6,0.5-1,0.7c-0.4,0.2-0.8,0.4-1.3,0.5c-0.5,0.1-1.1,0.2-1.7,0.2c-1,0-1.9-0.2-2.7-0.5
					c-0.8-0.3-1.5-0.8-2.1-1.4c-0.6-0.6-1-1.3-1.3-2.1c-0.3-0.8-0.5-1.7-0.5-2.6s0.2-1.8,0.5-2.6c0.3-0.8,0.8-1.5,1.4-2.1
					c0.6-0.6,1.3-1.1,2.1-1.4c0.8-0.3,1.7-0.5,2.6-0.5c0.6,0,1.2,0.1,1.7,0.2c0.5,0.1,1,0.3,1.4,0.5c0.4,0.2,0.7,0.4,1,0.7
					c0.3,0.2,0.5,0.5,0.7,0.7l-1.4,1.4c-0.3-0.4-0.8-0.7-1.3-1c-0.5-0.3-1.2-0.5-2-0.5c-0.6,0-1.2,0.1-1.7,0.3c-0.5,0.2-1,0.6-1.3,1
					s-0.7,0.9-0.9,1.5c-0.2,0.6-0.3,1.2-0.3,1.8c0,0.7,0.1,1.3,0.3,1.9c0.2,0.6,0.5,1,0.9,1.4s0.8,0.7,1.4,0.9
					C835.4,613.3,835.9,613.4,836.5,613.4z"/>
				<path d="M848.2,613.4c0.4,0,0.8,0,1.2-0.1c0.3-0.1,0.7-0.2,0.9-0.4c0.3-0.1,0.5-0.3,0.7-0.5s0.4-0.3,0.6-0.5l1.3,1.4
					c-0.2,0.2-0.4,0.5-0.7,0.7s-0.6,0.5-1,0.7c-0.4,0.2-0.8,0.4-1.3,0.5s-1.1,0.2-1.7,0.2c-1,0-1.9-0.2-2.7-0.5
					c-0.8-0.3-1.5-0.8-2.1-1.4c-0.6-0.6-1-1.3-1.3-2.1c-0.3-0.8-0.5-1.7-0.5-2.6s0.2-1.8,0.5-2.6c0.3-0.8,0.8-1.5,1.4-2.1
					c0.6-0.6,1.3-1.1,2.1-1.4c0.8-0.3,1.7-0.5,2.6-0.5c0.6,0,1.2,0.1,1.7,0.2c0.5,0.1,1,0.3,1.4,0.5c0.4,0.2,0.7,0.4,1,0.7
					s0.5,0.5,0.7,0.7l-1.4,1.4c-0.3-0.4-0.8-0.7-1.3-1c-0.5-0.3-1.2-0.5-2-0.5c-0.6,0-1.2,0.1-1.7,0.3c-0.5,0.2-1,0.6-1.3,1
					c-0.4,0.4-0.7,0.9-0.9,1.5c-0.2,0.6-0.3,1.2-0.3,1.8c0,0.7,0.1,1.3,0.3,1.9c0.2,0.6,0.5,1,0.9,1.4s0.8,0.7,1.4,0.9
					C847,613.3,847.6,613.4,848.2,613.4z"/>
				<path d="M855.5,601.2c-0.4,0-0.8-0.1-1.1-0.4s-0.4-0.7-0.4-1.1c0-0.4,0.1-0.8,0.4-1.1s0.7-0.4,1.1-0.4c0.4,0,0.8,0.1,1.1,0.4
					s0.5,0.6,0.5,1.1c0,0.4-0.2,0.8-0.5,1.1S855.9,601.2,855.5,601.2z M856.7,615.3h-2.3v-12.8h2.3V615.3z"/>
				<path d="M869.4,613.4c-0.2,0.2-0.4,0.5-0.7,0.7c-0.3,0.3-0.6,0.5-1,0.7s-0.8,0.4-1.3,0.5c-0.5,0.1-1,0.2-1.5,0.2
					c-1,0-1.8-0.2-2.7-0.5c-0.8-0.3-1.5-0.8-2.1-1.4s-1-1.3-1.3-2.1c-0.3-0.8-0.5-1.7-0.5-2.7c0-0.9,0.2-1.8,0.5-2.6
					c0.3-0.8,0.8-1.5,1.3-2.1c0.6-0.6,1.3-1.1,2.1-1.4s1.7-0.5,2.6-0.5c1,0,1.9,0.2,2.6,0.6c0.7,0.4,1.3,0.8,1.7,1.3v-6.3h2.3v17.5
					h-2.2V613.4z M860.7,608.8c0,0.7,0.1,1.3,0.3,1.8c0.2,0.6,0.5,1,0.9,1.5c0.4,0.4,0.8,0.7,1.4,0.9c0.5,0.2,1.1,0.3,1.7,0.3
					c0.6,0,1.2-0.1,1.8-0.3c0.5-0.2,1-0.5,1.4-0.9c0.4-0.4,0.7-0.9,0.9-1.5c0.2-0.6,0.3-1.2,0.3-1.8c0-0.7-0.1-1.3-0.3-1.8
					c-0.2-0.6-0.5-1-0.9-1.5s-0.8-0.7-1.4-1c-0.5-0.2-1.1-0.3-1.8-0.3c-0.6,0-1.2,0.1-1.8,0.3c-0.5,0.2-1,0.6-1.4,1
					s-0.7,0.9-0.9,1.5C860.8,607.6,860.7,608.2,860.7,608.8z"/>
				<path d="M875.7,609.5c0.1,1.2,0.5,2.2,1.2,2.9c0.7,0.7,1.7,1,2.9,1c1,0,1.8-0.2,2.5-0.7s1.1-1.1,1.5-1.8l1.8,0.9
					c-0.2,0.5-0.5,1-0.8,1.4c-0.3,0.4-0.8,0.8-1.2,1.2c-0.5,0.3-1,0.6-1.6,0.8s-1.3,0.3-2.1,0.3c-1,0-1.8-0.2-2.6-0.5
					c-0.8-0.3-1.5-0.8-2.1-1.3s-1-1.3-1.3-2.1c-0.3-0.8-0.5-1.7-0.5-2.7c0-1,0.2-1.9,0.5-2.7c0.3-0.8,0.7-1.5,1.3-2.1
					c0.6-0.6,1.2-1.1,2-1.4c0.8-0.3,1.6-0.5,2.5-0.5c0.9,0,1.8,0.1,2.6,0.4c0.8,0.3,1.4,0.7,2,1.3c0.5,0.5,1,1.2,1.3,2
					c0.3,0.8,0.5,1.6,0.5,2.6c0,0.1,0,0.3,0,0.5c0,0.2,0,0.4,0,0.6H875.7z M879.6,604.2c-1.1,0-1.9,0.3-2.6,0.9
					c-0.7,0.6-1.1,1.5-1.2,2.6h7.8c-0.1-1.1-0.5-1.9-1.2-2.5C881.6,604.5,880.7,604.2,879.6,604.2z"/>
				<path d="M894.4,607c0-0.9-0.2-1.5-0.6-2c-0.4-0.5-0.9-0.7-1.7-0.7c-0.8,0-1.4,0.3-1.8,0.8s-0.6,1.2-0.6,2v8.2h-2.3v-12.8h2.3
					v1.2c0.1-0.1,0.2-0.3,0.4-0.4s0.4-0.3,0.6-0.4c0.2-0.1,0.5-0.2,0.8-0.3s0.7-0.1,1.1-0.1c0.7,0,1.4,0.1,1.9,0.4s0.9,0.6,1.2,1
					s0.6,0.9,0.7,1.4c0.1,0.5,0.2,1.1,0.2,1.8v8.5h-2.3V607z"/>
				<path d="M901.4,602.4h2.4v1.9h-2.4v7.3c0,0.6,0.1,1,0.3,1.3c0.2,0.3,0.6,0.4,1.2,0.4h0.9v1.9c-0.1,0-0.3,0-0.5,0.1
					s-0.6,0.1-0.9,0.1c-1.2,0-2-0.3-2.5-0.8s-0.7-1.4-0.7-2.4v-7.8h-1.3v-1.9h1.3v-2h2.3V602.4z"/>
				<path d="M906.7,609.5c0.1,1.2,0.5,2.2,1.2,2.9c0.7,0.7,1.7,1,2.9,1c1,0,1.8-0.2,2.5-0.7s1.1-1.1,1.5-1.8l1.8,0.9
					c-0.2,0.5-0.5,1-0.8,1.4c-0.3,0.4-0.8,0.8-1.2,1.2c-0.5,0.3-1,0.6-1.6,0.8s-1.3,0.3-2.1,0.3c-1,0-1.8-0.2-2.6-0.5
					c-0.8-0.3-1.5-0.8-2.1-1.3s-1-1.3-1.3-2.1c-0.3-0.8-0.5-1.7-0.5-2.7c0-1,0.2-1.9,0.5-2.7c0.3-0.8,0.7-1.5,1.3-2.1
					c0.6-0.6,1.2-1.1,2-1.4c0.8-0.3,1.6-0.5,2.5-0.5c0.9,0,1.8,0.1,2.6,0.4c0.8,0.3,1.4,0.7,2,1.3c0.5,0.5,1,1.2,1.3,2
					c0.3,0.8,0.5,1.6,0.5,2.6c0,0.1,0,0.3,0,0.5c0,0.2,0,0.4,0,0.6H906.7z M910.6,604.2c-1.1,0-1.9,0.3-2.6,0.9
					c-0.7,0.6-1.1,1.5-1.2,2.6h7.8c-0.1-1.1-0.5-1.9-1.2-2.5C912.6,604.5,911.7,604.2,910.6,604.2z"/>
				<path d="M920.3,605.6c0,0.8,0.4,1.3,1.3,1.6c0.3,0.1,0.7,0.2,1,0.3s0.7,0.2,1,0.3c0.9,0.3,1.6,0.8,2.1,1.3
					c0.5,0.6,0.7,1.3,0.7,2.4c0,0.6-0.1,1.2-0.3,1.7c-0.2,0.5-0.5,0.9-0.9,1.2c-0.4,0.3-0.9,0.6-1.4,0.7c-0.5,0.2-1.1,0.2-1.7,0.2
					c-0.8,0-1.5-0.1-2.1-0.3c-0.6-0.2-1-0.5-1.3-0.9c-0.3-0.4-0.6-0.8-0.7-1.3c-0.1-0.5-0.2-1-0.2-1.6h2.2c0,0.3,0,0.6,0.1,0.9
					c0.1,0.3,0.2,0.5,0.4,0.7s0.4,0.4,0.6,0.5c0.3,0.1,0.6,0.2,1,0.2c0.6,0,1-0.1,1.5-0.4c0.4-0.3,0.6-0.7,0.6-1.3
					c0-0.5-0.1-0.9-0.4-1.2c-0.3-0.3-0.6-0.5-1.1-0.7c-0.4-0.1-0.7-0.2-1.1-0.3c-0.4-0.1-0.8-0.2-1.2-0.4c-0.8-0.4-1.4-0.8-1.8-1.4
					c-0.4-0.6-0.5-1.2-0.5-2c0-0.5,0.1-1,0.3-1.4c0.2-0.4,0.5-0.8,0.8-1.1c0.4-0.3,0.8-0.5,1.3-0.7c0.5-0.2,1-0.3,1.6-0.3
					c1.3,0,2.3,0.4,3,1.1c0.6,0.7,1,1.7,1,2.8H924c0-0.7-0.2-1.2-0.5-1.5c-0.3-0.4-0.8-0.6-1.4-0.6c-0.5,0-1,0.1-1.3,0.4
					C920.5,604.7,920.3,605.1,920.3,605.6z"/>
				<path d="M942.2,613.4c-0.2,0.2-0.4,0.5-0.7,0.7c-0.3,0.3-0.6,0.5-1,0.7s-0.8,0.4-1.3,0.5c-0.5,0.1-1,0.2-1.5,0.2
					c-1,0-1.8-0.2-2.7-0.5c-0.8-0.3-1.5-0.8-2.1-1.4s-1-1.3-1.3-2.1c-0.3-0.8-0.5-1.7-0.5-2.7c0-0.9,0.2-1.8,0.5-2.6
					c0.3-0.8,0.8-1.5,1.3-2.1c0.6-0.6,1.3-1.1,2.1-1.4s1.7-0.5,2.6-0.5c1,0,1.9,0.2,2.6,0.6c0.7,0.4,1.3,0.8,1.7,1.3v-6.3h2.3v17.5
					h-2.2V613.4z M933.5,608.8c0,0.7,0.1,1.3,0.3,1.8c0.2,0.6,0.5,1,0.9,1.5c0.4,0.4,0.8,0.7,1.4,0.9c0.5,0.2,1.1,0.3,1.7,0.3
					c0.6,0,1.2-0.1,1.8-0.3c0.5-0.2,1-0.5,1.4-0.9c0.4-0.4,0.7-0.9,0.9-1.5c0.2-0.6,0.3-1.2,0.3-1.8c0-0.7-0.1-1.3-0.3-1.8
					c-0.2-0.6-0.5-1-0.9-1.5s-0.8-0.7-1.4-1c-0.5-0.2-1.1-0.3-1.8-0.3c-0.6,0-1.2,0.1-1.8,0.3c-0.5,0.2-1,0.6-1.4,1
					s-0.7,0.9-0.9,1.5C933.6,607.6,933.5,608.2,933.5,608.8z"/>
				<path d="M948.5,609.5c0.1,1.2,0.5,2.2,1.2,2.9c0.7,0.7,1.7,1,2.9,1c1,0,1.8-0.2,2.5-0.7s1.1-1.1,1.5-1.8l1.8,0.9
					c-0.2,0.5-0.5,1-0.8,1.4c-0.3,0.4-0.8,0.8-1.2,1.2c-0.5,0.3-1,0.6-1.6,0.8s-1.3,0.3-2.1,0.3c-1,0-1.8-0.2-2.6-0.5
					c-0.8-0.3-1.5-0.8-2.1-1.3s-1-1.3-1.3-2.1c-0.3-0.8-0.5-1.7-0.5-2.7c0-1,0.2-1.9,0.5-2.7c0.3-0.8,0.7-1.5,1.3-2.1
					c0.6-0.6,1.2-1.1,2-1.4c0.8-0.3,1.6-0.5,2.5-0.5c0.9,0,1.8,0.1,2.6,0.4c0.8,0.3,1.4,0.7,2,1.3c0.5,0.5,1,1.2,1.3,2
					c0.3,0.8,0.5,1.6,0.5,2.6c0,0.1,0,0.3,0,0.5c0,0.2,0,0.4,0,0.6H948.5z M952.3,604.2c-1.1,0-1.9,0.3-2.6,0.9
					c-0.7,0.6-1.1,1.5-1.2,2.6h7.8c-0.1-1.1-0.5-1.9-1.2-2.5C954.4,604.5,953.5,604.2,952.3,604.2z"/>
			</g>
			<g class="st9">
				<path d="M693.5,626.4h2.4v1.9h-2.4v7.3c0,0.6,0.1,1,0.3,1.3c0.2,0.3,0.6,0.4,1.2,0.4h0.9v1.9c-0.1,0-0.3,0-0.5,0.1
					s-0.6,0.1-0.9,0.1c-1.2,0-2-0.3-2.5-0.8s-0.7-1.4-0.7-2.4v-7.8h-1.3v-1.9h1.3v-2h2.3V626.4z"/>
				<path d="M702.6,628.7H702c-0.8,0-1.4,0.2-1.7,0.6c-0.4,0.4-0.5,1-0.5,1.8v8.1h-2.3v-12.8h2.3v1.2c0.2-0.4,0.6-0.7,1-0.9
					s1.1-0.4,1.8-0.3V628.7z"/>
				<path d="M703.2,635.2c0-0.6,0.1-1.2,0.3-1.7c0.2-0.5,0.5-1,0.9-1.3c0.4-0.4,0.8-0.7,1.4-0.9s1.1-0.3,1.8-0.3
					c0.7,0,1.2,0.1,1.7,0.3c0.4,0.2,0.8,0.4,1,0.6v-1.1c0-0.8-0.2-1.5-0.6-1.9c-0.4-0.4-0.9-0.7-1.7-0.7c-0.8,0-1.3,0.2-1.6,0.6
					c-0.3,0.4-0.5,0.9-0.5,1.4h-2.1c0-0.6,0.1-1.1,0.3-1.6c0.2-0.5,0.5-0.9,0.8-1.2c0.4-0.3,0.8-0.6,1.3-0.8
					c0.5-0.2,1.2-0.3,1.9-0.3c0.8,0,1.5,0.1,2.1,0.3c0.6,0.2,1,0.5,1.4,0.9c0.4,0.4,0.6,0.9,0.8,1.5s0.3,1.2,0.3,1.9v8.3h-2v-1
					c-0.3,0.4-0.7,0.6-1.2,0.9c-0.5,0.2-1.1,0.3-1.7,0.3c-0.6,0-1.2-0.1-1.7-0.3c-0.5-0.2-1-0.5-1.4-0.9s-0.7-0.8-0.9-1.4
					C703.3,636.4,703.2,635.8,703.2,635.2z M705.4,635.1c0,0.7,0.2,1.3,0.7,1.7c0.4,0.5,1,0.7,1.7,0.7c0.7,0,1.3-0.2,1.8-0.7
					c0.5-0.5,0.7-1,0.7-1.7c0-0.7-0.2-1.3-0.7-1.7s-1.1-0.7-1.8-0.7s-1.3,0.2-1.7,0.7C705.6,633.9,705.4,634.4,705.4,635.1z"/>
				<path d="M717,639.3h-2.2v-17.5h2.3v6.5c0.2-0.2,0.4-0.5,0.7-0.7c0.3-0.2,0.6-0.5,1-0.6c0.4-0.2,0.8-0.3,1.3-0.5
					c0.5-0.1,1-0.2,1.5-0.2c1,0,1.8,0.2,2.6,0.5c0.8,0.3,1.5,0.8,2,1.3c0.6,0.6,1,1.3,1.3,2.1c0.3,0.8,0.5,1.7,0.5,2.7
					c0,0.9-0.2,1.8-0.5,2.6s-0.8,1.5-1.3,2.1c-0.6,0.6-1.3,1.1-2.1,1.4c-0.8,0.3-1.7,0.5-2.7,0.5c-0.6,0-1.1-0.1-1.5-0.2
					s-0.9-0.3-1.3-0.5s-0.7-0.4-1-0.6c-0.3-0.2-0.5-0.4-0.6-0.6V639.3z M717,632.8c0,0.7,0.1,1.3,0.3,1.8c0.2,0.6,0.5,1,0.9,1.5
					s0.8,0.7,1.4,0.9c0.5,0.2,1.1,0.3,1.8,0.3s1.2-0.1,1.8-0.3c0.5-0.2,1-0.5,1.4-0.9s0.7-0.9,0.9-1.5c0.2-0.6,0.3-1.2,0.3-1.8
					c0-0.7-0.1-1.3-0.3-1.8c-0.2-0.6-0.5-1-0.9-1.5c-0.4-0.4-0.8-0.7-1.4-1c-0.5-0.2-1.1-0.3-1.8-0.3c-0.7,0-1.2,0.1-1.8,0.3
					c-0.5,0.2-1,0.6-1.4,1s-0.7,0.9-0.9,1.5C717.1,631.6,717,632.2,717,632.8z"/>
				<path d="M729.1,635.2c0-0.6,0.1-1.2,0.3-1.7c0.2-0.5,0.5-1,0.9-1.3c0.4-0.4,0.8-0.7,1.4-0.9s1.1-0.3,1.8-0.3
					c0.7,0,1.2,0.1,1.7,0.3c0.4,0.2,0.8,0.4,1,0.6v-1.1c0-0.8-0.2-1.5-0.6-1.9c-0.4-0.4-0.9-0.7-1.7-0.7c-0.8,0-1.3,0.2-1.6,0.6
					c-0.3,0.4-0.5,0.9-0.5,1.4h-2.1c0-0.6,0.1-1.1,0.3-1.6c0.2-0.5,0.5-0.9,0.8-1.2c0.4-0.3,0.8-0.6,1.3-0.8
					c0.5-0.2,1.2-0.3,1.9-0.3c0.8,0,1.5,0.1,2.1,0.3c0.6,0.2,1,0.5,1.4,0.9c0.4,0.4,0.6,0.9,0.8,1.5s0.3,1.2,0.3,1.9v8.3h-2v-1
					c-0.3,0.4-0.7,0.6-1.2,0.9c-0.5,0.2-1.1,0.3-1.7,0.3c-0.6,0-1.2-0.1-1.7-0.3c-0.5-0.2-1-0.5-1.4-0.9s-0.7-0.8-0.9-1.4
					C729.2,636.4,729.1,635.8,729.1,635.2z M731.3,635.1c0,0.7,0.2,1.3,0.7,1.7c0.4,0.5,1,0.7,1.7,0.7c0.7,0,1.3-0.2,1.8-0.7
					c0.5-0.5,0.7-1,0.7-1.7c0-0.7-0.2-1.3-0.7-1.7s-1.1-0.7-1.8-0.7s-1.3,0.2-1.7,0.7C731.5,633.9,731.3,634.4,731.3,635.1z"/>
				<path d="M743,639.5c0,0.6-0.1,1.1-0.2,1.6c-0.1,0.5-0.3,0.9-0.6,1.2c-0.3,0.3-0.7,0.6-1.1,0.8c-0.5,0.2-1.1,0.3-1.7,0.3h-0.7v-2
					h0.5c0.4,0,0.6-0.1,0.8-0.2c0.2-0.1,0.4-0.2,0.5-0.4c0.1-0.2,0.2-0.4,0.2-0.6c0-0.2,0.1-0.5,0.1-0.8v-13.1h2.3V639.5z
					 M741.8,625.2c-0.4,0-0.8-0.1-1.1-0.4c-0.3-0.3-0.4-0.7-0.4-1.1c0-0.4,0.1-0.8,0.4-1.1c0.3-0.3,0.7-0.4,1.1-0.4
					c0.4,0,0.8,0.1,1.1,0.4c0.3,0.3,0.5,0.6,0.5,1.1c0,0.4-0.2,0.8-0.5,1.1C742.6,625,742.2,625.2,741.8,625.2z"/>
				<path d="M744.7,632.8c0-1,0.2-1.9,0.5-2.7c0.3-0.8,0.8-1.5,1.4-2.1c0.6-0.6,1.3-1.1,2.1-1.4c0.8-0.3,1.7-0.5,2.6-0.5
					c1,0,1.8,0.2,2.7,0.5s1.5,0.8,2.1,1.4c0.6,0.6,1,1.3,1.4,2.1c0.3,0.8,0.5,1.7,0.5,2.7s-0.2,1.8-0.5,2.7
					c-0.3,0.8-0.8,1.5-1.4,2.1c-0.6,0.6-1.3,1-2.1,1.4c-0.8,0.3-1.7,0.5-2.6,0.5c-1,0-1.8-0.2-2.7-0.5c-0.8-0.3-1.5-0.8-2.1-1.4
					c-0.6-0.6-1-1.3-1.4-2.1C744.9,634.7,744.7,633.8,744.7,632.8z M747,632.8c0,0.7,0.1,1.3,0.3,1.8c0.2,0.6,0.5,1,0.9,1.4
					c0.4,0.4,0.8,0.7,1.4,1c0.5,0.2,1.1,0.3,1.7,0.3c0.6,0,1.2-0.1,1.8-0.3c0.5-0.2,1-0.5,1.4-1c0.4-0.4,0.7-0.9,0.9-1.4
					c0.2-0.6,0.3-1.2,0.3-1.8c0-0.7-0.1-1.3-0.3-1.8c-0.2-0.6-0.5-1-0.9-1.5s-0.8-0.7-1.4-1c-0.5-0.2-1.1-0.3-1.7-0.3
					c-0.6,0-1.2,0.1-1.8,0.3c-0.5,0.2-1,0.5-1.4,1c-0.4,0.4-0.7,0.9-0.9,1.5C747.1,631.6,747,632.2,747,632.8z"/>
				<path d="M765.7,643.5l1.7-4.4l-5.2-12.6h2.5l3.8,9.6l3.6-9.6h2.4l-6.7,17H765.7z"/>
				<path d="M789.8,637.4c-0.2,0.2-0.4,0.5-0.7,0.7c-0.3,0.3-0.6,0.5-1,0.7c-0.4,0.2-0.8,0.4-1.3,0.5s-1,0.2-1.5,0.2
					c-1,0-1.8-0.2-2.7-0.5c-0.8-0.3-1.5-0.8-2.1-1.4s-1-1.3-1.3-2.1c-0.3-0.8-0.5-1.7-0.5-2.7c0-0.9,0.2-1.8,0.5-2.6
					c0.3-0.8,0.8-1.5,1.3-2.1c0.6-0.6,1.3-1.1,2.1-1.4s1.7-0.5,2.6-0.5c1,0,1.9,0.2,2.6,0.6c0.7,0.4,1.3,0.8,1.7,1.3v-6.3h2.3v17.5
					h-2.2V637.4z M781.1,632.8c0,0.7,0.1,1.3,0.3,1.8c0.2,0.6,0.5,1,0.9,1.5c0.4,0.4,0.8,0.7,1.4,0.9c0.5,0.2,1.1,0.3,1.7,0.3
					c0.6,0,1.2-0.1,1.8-0.3c0.5-0.2,1-0.5,1.4-0.9c0.4-0.4,0.7-0.9,0.9-1.5c0.2-0.6,0.3-1.2,0.3-1.8c0-0.7-0.1-1.3-0.3-1.8
					c-0.2-0.6-0.5-1-0.9-1.5c-0.4-0.4-0.8-0.7-1.4-1c-0.5-0.2-1.1-0.3-1.8-0.3c-0.6,0-1.2,0.1-1.8,0.3c-0.5,0.2-1,0.6-1.4,1
					c-0.4,0.4-0.7,0.9-0.9,1.5C781.2,631.6,781.1,632.2,781.1,632.8z"/>
				<path d="M796.1,633.5c0.1,1.2,0.5,2.2,1.2,2.9c0.7,0.7,1.7,1,2.9,1c1,0,1.8-0.2,2.5-0.7s1.1-1.1,1.5-1.8l1.8,0.9
					c-0.2,0.5-0.5,1-0.8,1.4c-0.3,0.4-0.8,0.8-1.2,1.2c-0.5,0.3-1,0.6-1.6,0.8c-0.6,0.2-1.3,0.3-2.1,0.3c-1,0-1.8-0.2-2.6-0.5
					c-0.8-0.3-1.5-0.8-2.1-1.3s-1-1.3-1.3-2.1c-0.3-0.8-0.5-1.7-0.5-2.7c0-1,0.2-1.9,0.5-2.7c0.3-0.8,0.7-1.5,1.3-2.1
					c0.6-0.6,1.2-1.1,2-1.4c0.8-0.3,1.6-0.5,2.5-0.5c0.9,0,1.8,0.1,2.6,0.4c0.8,0.3,1.4,0.7,2,1.3s1,1.2,1.3,2
					c0.3,0.8,0.5,1.6,0.5,2.6c0,0.1,0,0.3,0,0.5c0,0.2,0,0.4,0,0.6H796.1z M800,628.2c-1.1,0-1.9,0.3-2.6,0.9
					c-0.7,0.6-1.1,1.5-1.2,2.6h7.8c-0.1-1.1-0.5-1.9-1.2-2.5C802,628.5,801.1,628.2,800,628.2z"/>
				<path d="M814.3,626.4h2.4v1.9h-2.4v7.3c0,0.6,0.1,1,0.3,1.3c0.2,0.3,0.6,0.4,1.2,0.4h0.9v1.9c-0.1,0-0.3,0-0.5,0.1
					s-0.6,0.1-0.9,0.1c-1.2,0-2-0.3-2.5-0.8s-0.7-1.4-0.7-2.4v-7.8h-1.3v-1.9h1.3v-2h2.3V626.4z"/>
				<path d="M823.4,628.7h-0.6c-0.8,0-1.4,0.2-1.7,0.6c-0.4,0.4-0.5,1-0.5,1.8v8.1h-2.3v-12.8h2.3v1.2c0.2-0.4,0.6-0.7,1-0.9
					s1.1-0.4,1.8-0.3V628.7z"/>
				<path d="M824,635.2c0-0.6,0.1-1.2,0.3-1.7c0.2-0.5,0.5-1,0.9-1.3c0.4-0.4,0.8-0.7,1.4-0.9s1.1-0.3,1.8-0.3
					c0.7,0,1.2,0.1,1.7,0.3c0.4,0.2,0.8,0.4,1,0.6v-1.1c0-0.8-0.2-1.5-0.6-1.9c-0.4-0.4-0.9-0.7-1.7-0.7c-0.8,0-1.3,0.2-1.6,0.6
					c-0.3,0.4-0.5,0.9-0.5,1.4h-2.1c0-0.6,0.1-1.1,0.3-1.6c0.2-0.5,0.5-0.9,0.8-1.2c0.4-0.3,0.8-0.6,1.3-0.8
					c0.5-0.2,1.2-0.3,1.9-0.3c0.8,0,1.5,0.1,2.1,0.3c0.6,0.2,1,0.5,1.4,0.9c0.4,0.4,0.6,0.9,0.8,1.5s0.3,1.2,0.3,1.9v8.3h-2v-1
					c-0.3,0.4-0.7,0.6-1.2,0.9c-0.5,0.2-1.1,0.3-1.7,0.3c-0.6,0-1.2-0.1-1.7-0.3c-0.5-0.2-1-0.5-1.4-0.9s-0.7-0.8-0.9-1.4
					C824.1,636.4,824,635.8,824,635.2z M826.2,635.1c0,0.7,0.2,1.3,0.7,1.7c0.4,0.5,1,0.7,1.7,0.7c0.7,0,1.3-0.2,1.8-0.7
					c0.5-0.5,0.7-1,0.7-1.7c0-0.7-0.2-1.3-0.7-1.7s-1.1-0.7-1.8-0.7s-1.3,0.2-1.7,0.7C826.4,633.9,826.2,634.4,826.2,635.1z
					 M831.9,622.1l-1.9,3.2h-2.2l1.9-3.2H831.9z"/>
				<path d="M838.2,626.4h2.2v1.9h-2.2v10.9h-2.3v-10.9h-1.3v-1.9h1.3v-0.8c0-0.6,0.1-1.1,0.2-1.6c0.1-0.5,0.3-0.9,0.6-1.2
					c0.3-0.3,0.7-0.6,1.1-0.8c0.5-0.2,1.1-0.3,1.7-0.3h0.8v1.9h-0.6c-0.3,0-0.6,0.1-0.8,0.2c-0.2,0.1-0.4,0.2-0.5,0.4
					c-0.1,0.2-0.2,0.4-0.2,0.6c0,0.2-0.1,0.5-0.1,0.8V626.4z"/>
				<path d="M843.1,625.2c-0.4,0-0.8-0.1-1.1-0.4s-0.4-0.7-0.4-1.1c0-0.4,0.1-0.8,0.4-1.1s0.7-0.4,1.1-0.4c0.4,0,0.8,0.1,1.1,0.4
					s0.5,0.6,0.5,1.1c0,0.4-0.2,0.8-0.5,1.1S843.5,625.2,843.1,625.2z M844.2,639.3h-2.3v-12.8h2.3V639.3z"/>
				<path d="M852.6,637.4c0.4,0,0.8,0,1.2-0.1c0.3-0.1,0.7-0.2,0.9-0.4c0.3-0.1,0.5-0.3,0.7-0.5s0.4-0.3,0.6-0.5l1.3,1.4
					c-0.2,0.2-0.4,0.5-0.7,0.7s-0.6,0.5-1,0.7c-0.4,0.2-0.8,0.4-1.3,0.5s-1.1,0.2-1.7,0.2c-1,0-1.9-0.2-2.7-0.5
					c-0.8-0.3-1.5-0.8-2.1-1.4c-0.6-0.6-1-1.3-1.3-2.1c-0.3-0.8-0.5-1.7-0.5-2.6s0.2-1.8,0.5-2.6c0.3-0.8,0.8-1.5,1.4-2.1
					c0.6-0.6,1.3-1.1,2.1-1.4c0.8-0.3,1.7-0.5,2.6-0.5c0.6,0,1.2,0.1,1.7,0.2c0.5,0.1,1,0.3,1.4,0.5c0.4,0.2,0.7,0.4,1,0.7
					s0.5,0.5,0.7,0.7l-1.4,1.4c-0.3-0.4-0.8-0.7-1.3-1c-0.5-0.3-1.2-0.5-2-0.5c-0.6,0-1.2,0.1-1.7,0.3c-0.5,0.2-1,0.6-1.3,1
					c-0.4,0.4-0.7,0.9-0.9,1.5c-0.2,0.6-0.3,1.2-0.3,1.8c0,0.7,0.1,1.3,0.3,1.9c0.2,0.6,0.5,1,0.9,1.4s0.8,0.7,1.4,0.9
					C851.4,637.3,851.9,637.4,852.6,637.4z"/>
				<path d="M857.6,632.8c0-1,0.2-1.9,0.5-2.7c0.3-0.8,0.8-1.5,1.4-2.1c0.6-0.6,1.3-1.1,2.1-1.4c0.8-0.3,1.7-0.5,2.6-0.5
					c1,0,1.8,0.2,2.7,0.5s1.5,0.8,2.1,1.4c0.6,0.6,1,1.3,1.4,2.1c0.3,0.8,0.5,1.7,0.5,2.7s-0.2,1.8-0.5,2.7
					c-0.3,0.8-0.8,1.5-1.4,2.1s-1.3,1-2.1,1.4s-1.7,0.5-2.6,0.5c-1,0-1.8-0.2-2.7-0.5c-0.8-0.3-1.5-0.8-2.1-1.4s-1-1.3-1.4-2.1
					S857.6,633.8,857.6,632.8z M859.9,632.8c0,0.7,0.1,1.3,0.3,1.8c0.2,0.6,0.5,1,0.9,1.4c0.4,0.4,0.8,0.7,1.4,1
					c0.5,0.2,1.1,0.3,1.7,0.3c0.6,0,1.2-0.1,1.8-0.3c0.5-0.2,1-0.5,1.4-1s0.7-0.9,0.9-1.4c0.2-0.6,0.3-1.2,0.3-1.8
					c0-0.7-0.1-1.3-0.3-1.8c-0.2-0.6-0.5-1-0.9-1.5c-0.4-0.4-0.8-0.7-1.4-1c-0.5-0.2-1.1-0.3-1.7-0.3c-0.6,0-1.2,0.1-1.8,0.3
					c-0.5,0.2-1,0.5-1.4,1s-0.7,0.9-0.9,1.5C860,631.6,859.9,632.2,859.9,632.8z"/>
			</g>
			<g class="st9">
				<path class="st1" d="M693.3,675.3H691v-16.6h2.4V675.3z"/>
				<path class="st1" d="M702.7,667c0-0.9-0.2-1.5-0.6-2c-0.4-0.5-0.9-0.7-1.7-0.7c-0.8,0-1.4,0.3-1.8,0.8c-0.4,0.5-0.6,1.2-0.6,2
					v8.2h-2.3v-12.8h2.3v1.2c0.1-0.1,0.2-0.3,0.4-0.4c0.2-0.2,0.4-0.3,0.6-0.4c0.2-0.1,0.5-0.2,0.8-0.3c0.3-0.1,0.7-0.1,1.1-0.1
					c0.7,0,1.4,0.1,1.9,0.4c0.5,0.2,0.9,0.6,1.2,1c0.3,0.4,0.6,0.9,0.7,1.4c0.1,0.5,0.2,1.1,0.2,1.8v8.5h-2.3V667z"/>
				<path class="st1" d="M713.3,673.4c0.4,0,0.8,0,1.2-0.1s0.7-0.2,0.9-0.4c0.3-0.1,0.5-0.3,0.7-0.5c0.2-0.2,0.4-0.3,0.6-0.5
					l1.3,1.4c-0.2,0.2-0.4,0.5-0.7,0.7s-0.6,0.5-1,0.7c-0.4,0.2-0.8,0.4-1.3,0.5c-0.5,0.1-1.1,0.2-1.7,0.2c-1,0-1.9-0.2-2.7-0.5
					c-0.8-0.3-1.5-0.8-2.1-1.4c-0.6-0.6-1-1.3-1.3-2.1c-0.3-0.8-0.5-1.7-0.5-2.6s0.2-1.8,0.5-2.6c0.3-0.8,0.8-1.5,1.4-2.1
					c0.6-0.6,1.3-1.1,2.1-1.4c0.8-0.3,1.7-0.5,2.6-0.5c0.6,0,1.2,0.1,1.7,0.2c0.5,0.1,1,0.3,1.4,0.5c0.4,0.2,0.7,0.4,1,0.7
					s0.5,0.5,0.7,0.7l-1.4,1.4c-0.3-0.4-0.8-0.7-1.3-1c-0.5-0.3-1.2-0.5-2-0.5c-0.6,0-1.2,0.1-1.7,0.3c-0.5,0.2-1,0.6-1.3,1
					s-0.7,0.9-0.9,1.5c-0.2,0.6-0.3,1.2-0.3,1.8c0,0.7,0.1,1.3,0.3,1.9c0.2,0.6,0.5,1,0.9,1.4s0.8,0.7,1.4,0.9
					C712.1,673.3,712.7,673.4,713.3,673.4z"/>
				<path class="st1" d="M724.6,664.7H724c-0.8,0-1.4,0.2-1.7,0.6c-0.4,0.4-0.5,1-0.5,1.8v8.1h-2.3v-12.8h2.3v1.2
					c0.2-0.4,0.6-0.7,1-0.9s1.1-0.4,1.8-0.3V664.7z"/>
				<path class="st1" d="M727.3,669.5c0.1,1.2,0.5,2.2,1.2,2.9c0.7,0.7,1.7,1,2.9,1c1,0,1.8-0.2,2.5-0.7s1.1-1.1,1.5-1.8l1.8,0.9
					c-0.2,0.5-0.5,1-0.8,1.4c-0.3,0.4-0.8,0.8-1.2,1.2c-0.5,0.3-1,0.6-1.6,0.8c-0.6,0.2-1.3,0.3-2.1,0.3c-1,0-1.8-0.2-2.6-0.5
					c-0.8-0.3-1.5-0.8-2.1-1.3s-1-1.3-1.3-2.1c-0.3-0.8-0.5-1.7-0.5-2.7c0-1,0.2-1.9,0.5-2.7c0.3-0.8,0.7-1.5,1.3-2.1
					c0.6-0.6,1.2-1.1,2-1.4c0.8-0.3,1.6-0.5,2.5-0.5c0.9,0,1.8,0.1,2.6,0.4c0.8,0.3,1.4,0.7,2,1.3s1,1.2,1.3,2
					c0.3,0.8,0.5,1.6,0.5,2.6c0,0.1,0,0.3,0,0.5c0,0.2,0,0.4,0,0.6H727.3z M731.2,664.2c-1.1,0-1.9,0.3-2.6,0.9
					c-0.7,0.6-1.1,1.5-1.2,2.6h7.8c-0.1-1.1-0.5-1.9-1.2-2.5C733.2,664.5,732.3,664.2,731.2,664.2z"/>
				<path class="st1" d="M748.1,675.3h-2.3V667c0-0.8-0.2-1.5-0.5-2c-0.4-0.5-0.9-0.7-1.6-0.7c-0.8,0-1.3,0.3-1.7,0.8
					c-0.4,0.5-0.6,1.2-0.6,2.1v8.1h-2.3v-12.8h2.3v1.2c0.1-0.1,0.2-0.3,0.4-0.4c0.2-0.2,0.4-0.3,0.6-0.4c0.2-0.1,0.5-0.2,0.8-0.3
					s0.7-0.1,1.1-0.1c0.8,0,1.5,0.2,2,0.5c0.5,0.3,0.9,0.7,1.1,1.2c0.3-0.5,0.7-0.9,1.2-1.2c0.5-0.3,1.2-0.5,2.1-0.5
					c0.7,0,1.4,0.1,1.9,0.3c0.5,0.2,1,0.6,1.3,1s0.6,0.9,0.7,1.4c0.2,0.5,0.2,1.1,0.2,1.7v8.5h-2.3V667c0-0.8-0.2-1.5-0.5-2
					c-0.4-0.5-0.9-0.7-1.7-0.7c-0.7,0-1.3,0.2-1.7,0.7s-0.6,1.1-0.6,1.9V675.3z"/>
				<path class="st1" d="M758.9,669.5c0.1,1.2,0.5,2.2,1.2,2.9c0.7,0.7,1.7,1,2.9,1c1,0,1.8-0.2,2.5-0.7s1.1-1.1,1.5-1.8l1.8,0.9
					c-0.2,0.5-0.5,1-0.8,1.4c-0.3,0.4-0.8,0.8-1.2,1.2c-0.5,0.3-1,0.6-1.6,0.8c-0.6,0.2-1.3,0.3-2.1,0.3c-1,0-1.8-0.2-2.6-0.5
					c-0.8-0.3-1.5-0.8-2.1-1.3s-1-1.3-1.3-2.1c-0.3-0.8-0.5-1.7-0.5-2.7c0-1,0.2-1.9,0.5-2.7c0.3-0.8,0.7-1.5,1.3-2.1
					c0.6-0.6,1.2-1.1,2-1.4c0.8-0.3,1.6-0.5,2.5-0.5c0.9,0,1.8,0.1,2.6,0.4c0.8,0.3,1.4,0.7,2,1.3s1,1.2,1.3,2
					c0.3,0.8,0.5,1.6,0.5,2.6c0,0.1,0,0.3,0,0.5c0,0.2,0,0.4,0,0.6H758.9z M762.8,664.2c-1.1,0-1.9,0.3-2.6,0.9
					c-0.7,0.6-1.1,1.5-1.2,2.6h7.8c-0.1-1.1-0.5-1.9-1.2-2.5C764.8,664.5,763.9,664.2,762.8,664.2z"/>
				<path class="st1" d="M777.6,667c0-0.9-0.2-1.5-0.6-2c-0.4-0.5-0.9-0.7-1.7-0.7c-0.8,0-1.4,0.3-1.8,0.8c-0.4,0.5-0.6,1.2-0.6,2
					v8.2h-2.3v-12.8h2.3v1.2c0.1-0.1,0.2-0.3,0.4-0.4c0.2-0.2,0.4-0.3,0.6-0.4c0.2-0.1,0.5-0.2,0.8-0.3c0.3-0.1,0.7-0.1,1.1-0.1
					c0.7,0,1.4,0.1,1.9,0.4c0.5,0.2,0.9,0.6,1.2,1c0.3,0.4,0.6,0.9,0.7,1.4c0.1,0.5,0.2,1.1,0.2,1.8v8.5h-2.3V667z"/>
				<path class="st1" d="M784.6,662.4h2.4v1.9h-2.4v7.3c0,0.6,0.1,1,0.3,1.3c0.2,0.3,0.6,0.4,1.2,0.4h0.9v1.9c-0.1,0-0.3,0-0.5,0.1
					s-0.6,0.1-0.9,0.1c-1.2,0-2-0.3-2.5-0.8s-0.7-1.4-0.7-2.4v-7.8H781v-1.9h1.3v-2h2.3V662.4z"/>
				<path class="st1" d="M787.5,668.8c0-1,0.2-1.9,0.5-2.7c0.3-0.8,0.8-1.5,1.4-2.1c0.6-0.6,1.3-1.1,2.1-1.4
					c0.8-0.3,1.7-0.5,2.6-0.5c1,0,1.8,0.2,2.7,0.5s1.5,0.8,2.1,1.4c0.6,0.6,1,1.3,1.4,2.1c0.3,0.8,0.5,1.7,0.5,2.7s-0.2,1.8-0.5,2.7
					c-0.3,0.8-0.8,1.5-1.4,2.1c-0.6,0.6-1.3,1-2.1,1.4c-0.8,0.3-1.7,0.5-2.6,0.5c-1,0-1.8-0.2-2.7-0.5c-0.8-0.3-1.5-0.8-2.1-1.4
					c-0.6-0.6-1-1.3-1.4-2.1C787.7,670.7,787.5,669.8,787.5,668.8z M789.8,668.8c0,0.7,0.1,1.3,0.3,1.8c0.2,0.6,0.5,1,0.9,1.4
					c0.4,0.4,0.8,0.7,1.4,1c0.5,0.2,1.1,0.3,1.7,0.3c0.6,0,1.2-0.1,1.8-0.3c0.5-0.2,1-0.5,1.4-1c0.4-0.4,0.7-0.9,0.9-1.4
					c0.2-0.6,0.3-1.2,0.3-1.8c0-0.7-0.1-1.3-0.3-1.8c-0.2-0.6-0.5-1-0.9-1.5s-0.8-0.7-1.4-1c-0.5-0.2-1.1-0.3-1.7-0.3
					c-0.6,0-1.2,0.1-1.8,0.3c-0.5,0.2-1,0.5-1.4,1c-0.4,0.4-0.7,0.9-0.9,1.5C789.9,667.6,789.8,668.2,789.8,668.8z"/>
				<path class="st1" d="M816.6,673.4c-0.2,0.2-0.4,0.5-0.7,0.7c-0.3,0.3-0.6,0.5-1,0.7c-0.4,0.2-0.8,0.4-1.3,0.5s-1,0.2-1.5,0.2
					c-1,0-1.8-0.2-2.7-0.5c-0.8-0.3-1.5-0.8-2.1-1.4s-1-1.3-1.3-2.1c-0.3-0.8-0.5-1.7-0.5-2.7c0-0.9,0.2-1.8,0.5-2.6
					c0.3-0.8,0.8-1.5,1.3-2.1c0.6-0.6,1.3-1.1,2.1-1.4s1.7-0.5,2.6-0.5c1,0,1.9,0.2,2.6,0.6c0.7,0.4,1.3,0.8,1.7,1.3v-6.3h2.3v17.5
					h-2.2V673.4z M807.9,668.8c0,0.7,0.1,1.3,0.3,1.8c0.2,0.6,0.5,1,0.9,1.5c0.4,0.4,0.8,0.7,1.4,0.9c0.5,0.2,1.1,0.3,1.7,0.3
					c0.6,0,1.2-0.1,1.8-0.3c0.5-0.2,1-0.5,1.4-0.9c0.4-0.4,0.7-0.9,0.9-1.5c0.2-0.6,0.3-1.2,0.3-1.8c0-0.7-0.1-1.3-0.3-1.8
					c-0.2-0.6-0.5-1-0.9-1.5c-0.4-0.4-0.8-0.7-1.4-1c-0.5-0.2-1.1-0.3-1.8-0.3c-0.6,0-1.2,0.1-1.8,0.3c-0.5,0.2-1,0.6-1.4,1
					c-0.4,0.4-0.7,0.9-0.9,1.5C808,667.6,807.9,668.2,807.9,668.8z"/>
				<path class="st1" d="M822.9,669.5c0.1,1.2,0.5,2.2,1.2,2.9c0.7,0.7,1.7,1,2.9,1c1,0,1.8-0.2,2.5-0.7s1.1-1.1,1.5-1.8l1.8,0.9
					c-0.2,0.5-0.5,1-0.8,1.4c-0.3,0.4-0.8,0.8-1.2,1.2c-0.5,0.3-1,0.6-1.6,0.8c-0.6,0.2-1.3,0.3-2.1,0.3c-1,0-1.8-0.2-2.6-0.5
					c-0.8-0.3-1.5-0.8-2.1-1.3s-1-1.3-1.3-2.1c-0.3-0.8-0.5-1.7-0.5-2.7c0-1,0.2-1.9,0.5-2.7c0.3-0.8,0.7-1.5,1.3-2.1
					c0.6-0.6,1.2-1.1,2-1.4c0.8-0.3,1.6-0.5,2.5-0.5c0.9,0,1.8,0.1,2.6,0.4c0.8,0.3,1.4,0.7,2,1.3s1,1.2,1.3,2
					c0.3,0.8,0.5,1.6,0.5,2.6c0,0.1,0,0.3,0,0.5c0,0.2,0,0.4,0,0.6H822.9z M826.8,664.2c-1.1,0-1.9,0.3-2.6,0.9
					c-0.7,0.6-1.1,1.5-1.2,2.6h7.8c-0.1-1.1-0.5-1.9-1.2-2.5C828.8,664.5,827.9,664.2,826.8,664.2z"/>
				<path class="st1" d="M840.7,675.3h-2.3v-17.5h2.3V675.3z"/>
				<path class="st1" d="M842.5,671.2c0-0.6,0.1-1.2,0.3-1.7c0.2-0.5,0.5-1,0.9-1.3c0.4-0.4,0.8-0.7,1.4-0.9
					c0.5-0.2,1.1-0.3,1.8-0.3c0.7,0,1.2,0.1,1.7,0.3c0.4,0.2,0.8,0.4,1,0.6v-1.1c0-0.8-0.2-1.5-0.6-1.9c-0.4-0.4-0.9-0.7-1.7-0.7
					c-0.8,0-1.3,0.2-1.6,0.6c-0.3,0.4-0.5,0.9-0.5,1.4H843c0-0.6,0.1-1.1,0.3-1.6c0.2-0.5,0.5-0.9,0.8-1.2c0.4-0.3,0.8-0.6,1.3-0.8
					c0.5-0.2,1.2-0.3,1.9-0.3c0.8,0,1.5,0.1,2.1,0.3c0.6,0.2,1,0.5,1.4,0.9c0.4,0.4,0.6,0.9,0.8,1.5c0.2,0.6,0.3,1.2,0.3,1.9v8.3h-2
					v-1c-0.3,0.4-0.7,0.6-1.2,0.9c-0.5,0.2-1.1,0.3-1.7,0.3c-0.6,0-1.2-0.1-1.7-0.3c-0.5-0.2-1-0.5-1.4-0.9
					c-0.4-0.4-0.7-0.8-0.9-1.4C842.6,672.4,842.5,671.8,842.5,671.2z M844.7,671.1c0,0.7,0.2,1.3,0.7,1.7c0.4,0.5,1,0.7,1.7,0.7
					c0.7,0,1.3-0.2,1.8-0.7c0.5-0.5,0.7-1,0.7-1.7c0-0.7-0.2-1.3-0.7-1.7s-1.1-0.7-1.8-0.7c-0.7,0-1.3,0.2-1.7,0.7
					C844.9,669.9,844.7,670.4,844.7,671.1z"/>
				<path class="st1" d="M866.7,675.3h-2.3V667c0-0.8-0.2-1.5-0.5-2c-0.4-0.5-0.9-0.7-1.6-0.7c-0.8,0-1.3,0.3-1.7,0.8
					c-0.4,0.5-0.6,1.2-0.6,2.1v8.1h-2.3v-12.8h2.3v1.2c0.1-0.1,0.2-0.3,0.4-0.4s0.4-0.3,0.6-0.4c0.2-0.1,0.5-0.2,0.8-0.3
					c0.3-0.1,0.7-0.1,1.1-0.1c0.8,0,1.5,0.2,2,0.5c0.5,0.3,0.9,0.7,1.1,1.2c0.3-0.5,0.7-0.9,1.2-1.2c0.5-0.3,1.2-0.5,2.1-0.5
					c0.7,0,1.4,0.1,1.9,0.3c0.5,0.2,1,0.6,1.3,1s0.6,0.9,0.7,1.4c0.2,0.5,0.2,1.1,0.2,1.7v8.5h-2.3V667c0-0.8-0.2-1.5-0.5-2
					c-0.4-0.5-0.9-0.7-1.7-0.7c-0.7,0-1.3,0.2-1.7,0.7s-0.6,1.1-0.6,1.9V675.3z"/>
				<path class="st1" d="M875.2,668.8c0-1,0.2-1.9,0.5-2.7c0.3-0.8,0.8-1.5,1.4-2.1c0.6-0.6,1.3-1.1,2.1-1.4
					c0.8-0.3,1.7-0.5,2.6-0.5c1,0,1.8,0.2,2.7,0.5s1.5,0.8,2.1,1.4c0.6,0.6,1,1.3,1.4,2.1c0.3,0.8,0.5,1.7,0.5,2.7s-0.2,1.8-0.5,2.7
					c-0.3,0.8-0.8,1.5-1.4,2.1s-1.3,1-2.1,1.4s-1.7,0.5-2.6,0.5c-1,0-1.8-0.2-2.7-0.5c-0.8-0.3-1.5-0.8-2.1-1.4s-1-1.3-1.4-2.1
					S875.2,669.8,875.2,668.8z M877.5,668.8c0,0.7,0.1,1.3,0.3,1.8c0.2,0.6,0.5,1,0.9,1.4c0.4,0.4,0.8,0.7,1.4,1
					c0.5,0.2,1.1,0.3,1.7,0.3c0.6,0,1.2-0.1,1.8-0.3c0.5-0.2,1-0.5,1.4-1s0.7-0.9,0.9-1.4c0.2-0.6,0.3-1.2,0.3-1.8
					c0-0.7-0.1-1.3-0.3-1.8c-0.2-0.6-0.5-1-0.9-1.5c-0.4-0.4-0.8-0.7-1.4-1c-0.5-0.2-1.1-0.3-1.7-0.3c-0.6,0-1.2,0.1-1.8,0.3
					c-0.5,0.2-1,0.5-1.4,1s-0.7,0.9-0.9,1.5C877.6,667.6,877.5,668.2,877.5,668.8z"/>
				<path class="st1" d="M895.3,664.7h-0.6c-0.8,0-1.4,0.2-1.7,0.6c-0.4,0.4-0.5,1-0.5,1.8v8.1h-2.3v-12.8h2.3v1.2
					c0.2-0.4,0.6-0.7,1-0.9s1.1-0.4,1.8-0.3V664.7z"/>
				<path class="st1" d="M899.7,662.4h2.4v1.9h-2.4v7.3c0,0.6,0.1,1,0.3,1.3c0.2,0.3,0.6,0.4,1.2,0.4h0.9v1.9c-0.1,0-0.3,0-0.5,0.1
					s-0.6,0.1-0.9,0.1c-1.2,0-2-0.3-2.5-0.8s-0.7-1.4-0.7-2.4v-7.8h-1.3v-1.9h1.3v-2h2.3V662.4z"/>
				<path class="st1" d="M903,671.2c0-0.6,0.1-1.2,0.3-1.7c0.2-0.5,0.5-1,0.9-1.3c0.4-0.4,0.8-0.7,1.4-0.9c0.5-0.2,1.1-0.3,1.8-0.3
					c0.7,0,1.2,0.1,1.7,0.3c0.4,0.2,0.8,0.4,1,0.6v-1.1c0-0.8-0.2-1.5-0.6-1.9c-0.4-0.4-0.9-0.7-1.7-0.7c-0.8,0-1.3,0.2-1.6,0.6
					c-0.3,0.4-0.5,0.9-0.5,1.4h-2.1c0-0.6,0.1-1.1,0.3-1.6c0.2-0.5,0.5-0.9,0.8-1.2c0.4-0.3,0.8-0.6,1.3-0.8
					c0.5-0.2,1.2-0.3,1.9-0.3c0.8,0,1.5,0.1,2.1,0.3c0.6,0.2,1,0.5,1.4,0.9c0.4,0.4,0.6,0.9,0.8,1.5c0.2,0.6,0.3,1.2,0.3,1.9v8.3h-2
					v-1c-0.3,0.4-0.7,0.6-1.2,0.9c-0.5,0.2-1.1,0.3-1.7,0.3c-0.6,0-1.2-0.1-1.7-0.3c-0.5-0.2-1-0.5-1.4-0.9
					c-0.4-0.4-0.7-0.8-0.9-1.4C903.1,672.4,903,671.8,903,671.2z M905.2,671.1c0,0.7,0.2,1.3,0.7,1.7c0.4,0.5,1,0.7,1.7,0.7
					c0.7,0,1.3-0.2,1.8-0.7c0.5-0.5,0.7-1,0.7-1.7c0-0.7-0.2-1.3-0.7-1.7s-1.1-0.7-1.8-0.7c-0.7,0-1.3,0.2-1.7,0.7
					C905.4,669.9,905.2,670.4,905.2,671.1z"/>
				<path class="st1" d="M916.9,675.3h-2.3v-17.5h2.3V675.3z"/>
				<path class="st1" d="M920.3,661.2c-0.4,0-0.8-0.1-1.1-0.4s-0.4-0.7-0.4-1.1c0-0.4,0.1-0.8,0.4-1.1s0.7-0.4,1.1-0.4
					c0.4,0,0.8,0.1,1.1,0.4s0.5,0.6,0.5,1.1c0,0.4-0.2,0.8-0.5,1.1S920.8,661.2,920.3,661.2z M921.5,675.3h-2.3v-12.8h2.3V675.3z"/>
				<path class="st1" d="M934.2,673.4c-0.2,0.2-0.4,0.5-0.7,0.7c-0.3,0.3-0.6,0.5-1,0.7s-0.8,0.4-1.3,0.5c-0.5,0.1-1,0.2-1.5,0.2
					c-1,0-1.8-0.2-2.7-0.5c-0.8-0.3-1.5-0.8-2.1-1.4s-1-1.3-1.3-2.1c-0.3-0.8-0.5-1.7-0.5-2.7c0-0.9,0.2-1.8,0.5-2.6
					c0.3-0.8,0.8-1.5,1.3-2.1c0.6-0.6,1.3-1.1,2.1-1.4s1.7-0.5,2.6-0.5c1,0,1.9,0.2,2.6,0.6c0.7,0.4,1.3,0.8,1.7,1.3v-6.3h2.3v17.5
					h-2.2V673.4z M925.6,668.8c0,0.7,0.1,1.3,0.3,1.8c0.2,0.6,0.5,1,0.9,1.5c0.4,0.4,0.8,0.7,1.4,0.9c0.5,0.2,1.1,0.3,1.7,0.3
					c0.6,0,1.2-0.1,1.8-0.3c0.5-0.2,1-0.5,1.4-0.9c0.4-0.4,0.7-0.9,0.9-1.5c0.2-0.6,0.3-1.2,0.3-1.8c0-0.7-0.1-1.3-0.3-1.8
					c-0.2-0.6-0.5-1-0.9-1.5s-0.8-0.7-1.4-1c-0.5-0.2-1.1-0.3-1.8-0.3c-0.6,0-1.2,0.1-1.8,0.3c-0.5,0.2-1,0.6-1.4,1
					s-0.7,0.9-0.9,1.5C925.7,667.6,925.6,668.2,925.6,668.8z"/>
				<path class="st1" d="M938.2,671.2c0-0.6,0.1-1.2,0.3-1.7c0.2-0.5,0.5-1,0.9-1.3c0.4-0.4,0.8-0.7,1.4-0.9
					c0.5-0.2,1.1-0.3,1.8-0.3c0.7,0,1.2,0.1,1.7,0.3c0.4,0.2,0.8,0.4,1,0.6v-1.1c0-0.8-0.2-1.5-0.6-1.9c-0.4-0.4-0.9-0.7-1.7-0.7
					c-0.8,0-1.3,0.2-1.6,0.6c-0.3,0.4-0.5,0.9-0.5,1.4h-2.1c0-0.6,0.1-1.1,0.3-1.6c0.2-0.5,0.5-0.9,0.8-1.2c0.4-0.3,0.8-0.6,1.3-0.8
					c0.5-0.2,1.2-0.3,1.9-0.3c0.8,0,1.5,0.1,2.1,0.3c0.6,0.2,1,0.5,1.4,0.9c0.4,0.4,0.6,0.9,0.8,1.5c0.2,0.6,0.3,1.2,0.3,1.9v8.3h-2
					v-1c-0.3,0.4-0.7,0.6-1.2,0.9c-0.5,0.2-1.1,0.3-1.7,0.3c-0.6,0-1.2-0.1-1.7-0.3c-0.5-0.2-1-0.5-1.4-0.9
					c-0.4-0.4-0.7-0.8-0.9-1.4C938.3,672.4,938.2,671.8,938.2,671.2z M940.4,671.1c0,0.7,0.2,1.3,0.7,1.7c0.4,0.5,1,0.7,1.7,0.7
					c0.7,0,1.3-0.2,1.8-0.7c0.5-0.5,0.7-1,0.7-1.7c0-0.7-0.2-1.3-0.7-1.7s-1.1-0.7-1.8-0.7c-0.7,0-1.3,0.2-1.7,0.7
					C940.6,669.9,940.4,670.4,940.4,671.1z"/>
				<path class="st1" d="M960.2,673.4c-0.2,0.2-0.4,0.5-0.7,0.7c-0.3,0.3-0.6,0.5-1,0.7s-0.8,0.4-1.3,0.5c-0.5,0.1-1,0.2-1.5,0.2
					c-1,0-1.8-0.2-2.7-0.5c-0.8-0.3-1.5-0.8-2.1-1.4s-1-1.3-1.3-2.1c-0.3-0.8-0.5-1.7-0.5-2.7c0-0.9,0.2-1.8,0.5-2.6
					c0.3-0.8,0.8-1.5,1.3-2.1c0.6-0.6,1.3-1.1,2.1-1.4s1.7-0.5,2.6-0.5c1,0,1.9,0.2,2.6,0.6c0.7,0.4,1.3,0.8,1.7,1.3v-6.3h2.3v17.5
					h-2.2V673.4z M951.5,668.8c0,0.7,0.1,1.3,0.3,1.8c0.2,0.6,0.5,1,0.9,1.5c0.4,0.4,0.8,0.7,1.4,0.9c0.5,0.2,1.1,0.3,1.7,0.3
					c0.6,0,1.2-0.1,1.8-0.3c0.5-0.2,1-0.5,1.4-0.9c0.4-0.4,0.7-0.9,0.9-1.5c0.2-0.6,0.3-1.2,0.3-1.8c0-0.7-0.1-1.3-0.3-1.8
					c-0.2-0.6-0.5-1-0.9-1.5s-0.8-0.7-1.4-1c-0.5-0.2-1.1-0.3-1.8-0.3c-0.6,0-1.2,0.1-1.8,0.3c-0.5,0.2-1,0.6-1.4,1
					s-0.7,0.9-0.9,1.5C951.6,667.6,951.5,668.2,951.5,668.8z"/>
			</g>
		</g>
		<g>
			<rect x="689.7" y="539.6" class="st8" width="283.7" height="57.7"/>
			<g class="st9">
				<path class="st1" d="M711.7,563.8h-3.2v-1.7c-0.6,0.6-1.5,1-2.6,1.5c-1.1,0.4-2.3,0.6-3.8,0.6c-1.7,0-3.3-0.3-4.7-0.9
					c-1.4-0.6-2.7-1.4-3.7-2.4c-1-1-1.8-2.3-2.4-3.7s-0.9-3.1-0.9-4.8c0-1.7,0.3-3.3,0.9-4.7s1.4-2.7,2.4-3.8c1-1.1,2.3-1.9,3.7-2.5
					s3-0.9,4.7-0.9c1.1,0,2.2,0.1,3.1,0.3c0.9,0.2,1.8,0.5,2.5,0.9c0.7,0.4,1.4,0.8,1.9,1.3c0.5,0.5,1,1,1.4,1.5l-2.4,2
					c-0.3-0.4-0.7-0.7-1.1-1.1c-0.4-0.4-0.9-0.7-1.4-1c-0.5-0.3-1.1-0.5-1.8-0.7s-1.4-0.3-2.2-0.3c-1.2,0-2.3,0.2-3.3,0.7
					c-1,0.4-1.9,1.1-2.6,1.8c-0.7,0.8-1.3,1.7-1.7,2.8s-0.6,2.3-0.6,3.6c0,1.3,0.2,2.5,0.6,3.6c0.4,1.1,1,2,1.7,2.8
					c0.7,0.8,1.6,1.4,2.6,1.8c1,0.4,2.2,0.6,3.4,0.6c1.4,0,2.6-0.2,3.6-0.7c1-0.4,1.9-1,2.6-1.7v-4h-4.2V552h7.4V563.8z"/>
				<path class="st1" d="M715.1,563.8v-22.8h9.9v3h-6.7v6.6h6.5v3h-6.5v7.2h6.8v3H715.1z"/>
				<path class="st1" d="M731.2,546.4v17.3H728v-22.8h3.3l11.6,17.5v-17.5h3.2v22.8h-3.3L731.2,546.4z"/>
				<path class="st1" d="M749.7,563.8v-22.8h9.9v3H753v6.6h6.5v3H753v7.2h6.8v3H749.7z"/>
				<path class="st1" d="M775.3,547.2c0,1.4-0.3,2.6-0.9,3.6c-0.6,1-1.5,1.7-2.6,2.2l5.7,10.9H774l-5.4-10.3h-2.7v10.3h-3.2v-22.8
					h5.9c2.1,0,3.8,0.5,5,1.6C774.7,543.5,775.3,545.1,775.3,547.2z M765.9,543.7v7h2.5c1.2,0,2-0.3,2.6-1c0.6-0.6,0.9-1.5,0.9-2.6
					c0-1.1-0.3-1.9-0.9-2.5c-0.6-0.6-1.5-0.9-2.6-0.9H765.9z"/>
				<path class="st1" d="M792.6,556.3h-8.6l-2.8,7.5H778l8.6-22.8h3.4l9,22.8h-3.4L792.6,556.3z M785.1,553.5h6.5l-3.3-8.4
					L785.1,553.5z"/>
				<path class="st1" d="M800.7,563.8v-22.8h3.2v19.8h6.6v3H800.7z"/>
				<path class="st1" d="M819.4,569.5h-2.9l11.8-29.9h2.9L819.4,569.5z"/>
				<path class="st1" d="M837.2,552.4c0-1.7,0.3-3.3,0.9-4.8c0.6-1.5,1.4-2.7,2.4-3.8c1-1.1,2.3-1.9,3.7-2.5s3-0.9,4.7-0.9
					c1.7,0,3.3,0.3,4.8,0.9s2.7,1.4,3.7,2.5c1,1.1,1.8,2.3,2.4,3.8s0.9,3,0.9,4.7s-0.3,3.3-0.9,4.7s-1.4,2.7-2.4,3.8
					c-1,1.1-2.3,1.9-3.7,2.5c-1.4,0.6-3,0.9-4.7,0.9s-3.3-0.3-4.7-0.9c-1.4-0.6-2.7-1.4-3.7-2.5c-1-1.1-1.8-2.3-2.4-3.8
					C837.5,555.7,837.2,554.1,837.2,552.4z M840.6,552.4c0,1.3,0.2,2.5,0.6,3.6c0.4,1.1,1,2,1.7,2.8c0.7,0.8,1.6,1.4,2.6,1.8
					s2.1,0.7,3.4,0.7c1.3,0,2.4-0.2,3.4-0.7s1.9-1.1,2.6-1.8s1.3-1.7,1.7-2.8s0.6-2.3,0.6-3.6c0-1.3-0.2-2.5-0.6-3.5
					c-0.4-1.1-1-2-1.7-2.8s-1.6-1.4-2.6-1.8c-1-0.4-2.2-0.7-3.4-0.7c-1.3,0-2.4,0.2-3.4,0.7c-1,0.4-1.9,1.1-2.6,1.8
					c-0.7,0.8-1.3,1.7-1.7,2.8C840.8,549.9,840.6,551.1,840.6,552.4z"/>
				<path class="st1" d="M868.5,543.9v19.8h-3.2v-19.8h-4.7v-3h12.6v3H868.5z"/>
				<path class="st1" d="M888.1,547.2c0,1.4-0.3,2.6-0.9,3.6c-0.6,1-1.5,1.7-2.6,2.2l5.7,10.9h-3.5l-5.4-10.3h-2.7v10.3h-3.2v-22.8
					h5.9c2.1,0,3.8,0.5,5,1.6S888.1,545.1,888.1,547.2z M878.8,543.7v7h2.5c1.2,0,2-0.3,2.6-1c0.6-0.6,0.9-1.5,0.9-2.6
					c0-1.1-0.3-1.9-0.9-2.5c-0.6-0.6-1.5-0.9-2.6-0.9H878.8z"/>
				<path class="st1" d="M890.1,552.4c0-1.7,0.3-3.3,0.9-4.8s1.4-2.7,2.4-3.8c1-1.1,2.3-1.9,3.7-2.5c1.4-0.6,3-0.9,4.7-0.9
					c1.7,0,3.3,0.3,4.8,0.9s2.7,1.4,3.7,2.5c1,1.1,1.8,2.3,2.4,3.8s0.9,3,0.9,4.7s-0.3,3.3-0.9,4.7s-1.4,2.7-2.4,3.8
					c-1,1.1-2.3,1.9-3.7,2.5c-1.4,0.6-3,0.9-4.7,0.9c-1.7,0-3.3-0.3-4.7-0.9c-1.4-0.6-2.7-1.4-3.7-2.5c-1-1.1-1.8-2.3-2.4-3.8
					C890.4,555.7,890.1,554.1,890.1,552.4z M893.5,552.4c0,1.3,0.2,2.5,0.6,3.6s1,2,1.7,2.8c0.7,0.8,1.6,1.4,2.6,1.8
					s2.1,0.7,3.4,0.7c1.3,0,2.4-0.2,3.4-0.7s1.9-1.1,2.6-1.8c0.7-0.8,1.3-1.7,1.7-2.8s0.6-2.3,0.6-3.6c0-1.3-0.2-2.5-0.6-3.5
					c-0.4-1.1-1-2-1.7-2.8c-0.7-0.8-1.6-1.4-2.6-1.8c-1-0.4-2.2-0.7-3.4-0.7c-1.3,0-2.4,0.2-3.4,0.7c-1,0.4-1.9,1.1-2.6,1.8
					c-0.7,0.8-1.3,1.7-1.7,2.8C893.7,549.9,893.5,551.1,893.5,552.4z"/>
				<path class="st1" d="M918.7,546.4c0,0.8,0.2,1.4,0.6,1.9s0.9,0.9,1.6,1.3c0.7,0.3,1.4,0.6,2.1,0.9c0.7,0.3,1.4,0.6,2.1,1
					c1.2,0.6,2.2,1.4,2.9,2.3c0.7,1,1,2.2,1,3.7c0,1-0.2,1.9-0.5,2.7s-0.8,1.5-1.4,2.1c-0.6,0.6-1.3,1-2.2,1.4s-1.8,0.5-2.9,0.5
					c-1.3,0-2.4-0.2-3.4-0.6c-0.9-0.4-1.6-0.9-2.2-1.6c-0.5-0.7-0.9-1.4-1.2-2.3c-0.2-0.9-0.3-1.8-0.3-2.7h3.1
					c0,0.6,0.1,1.2,0.2,1.7c0.1,0.5,0.4,1,0.7,1.4c0.3,0.4,0.7,0.7,1.2,0.9c0.5,0.2,1.1,0.3,1.8,0.3c1.1,0,2-0.3,2.7-0.9
					c0.7-0.6,1.1-1.5,1.1-2.7c0-0.9-0.2-1.7-0.7-2.2s-1-1-1.8-1.4c-0.7-0.4-1.5-0.7-2.3-1c-0.8-0.3-1.5-0.6-2.3-1
					c-1-0.6-1.8-1.3-2.4-2.2c-0.6-0.9-0.8-2.1-0.8-3.4c0-0.8,0.1-1.6,0.4-2.3c0.3-0.7,0.7-1.4,1.3-1.9c0.6-0.5,1.2-1,2-1.3
					c0.8-0.3,1.7-0.5,2.7-0.5c1.2,0,2.2,0.2,3.1,0.5s1.5,0.8,2,1.4c0.5,0.6,0.9,1.3,1.1,2s0.3,1.6,0.3,2.4h-3c0-1-0.3-1.9-0.9-2.6
					c-0.6-0.7-1.4-1-2.5-1c-1.1,0-1.9,0.3-2.4,0.9C919,544.8,918.7,545.5,918.7,546.4z"/>
			</g>
		</g>
		<line class="st10" x1="1185.8" y1="517.3" x2="689.7" y2="515.6"/>
		<circle class="st4" cx="678.3" cy="667.4" r="5.5"/>
		<circle class="st4" cx="678.3" cy="607.3" r="5.5"/>
		<circle class="st4" cx="1905.8" cy="624.2" r="5.5"/>
		<polyline class="st10" points="1325.3,375.7 1507.6,495.7 1893.3,494.6 		"/>
	</g>
	<g>
		<rect x="689.4" y="-55.7" class="st8" width="380.7" height="427.2"/>
		<g class="st9">
			<path d="M699.8-50.3c0,1-0.2,1.9-0.7,2.6s-1.1,1.2-1.9,1.6l4.2,7.9h-2.5l-3.9-7.5h-2v7.5h-2.4v-16.6h4.3c1.6,0,2.8,0.4,3.6,1.1
				C699.4-52.9,699.8-51.8,699.8-50.3z M693-52.8v5.1h1.8c0.8,0,1.5-0.2,1.9-0.7c0.4-0.5,0.6-1.1,0.6-1.9c0-0.8-0.2-1.4-0.6-1.8
				c-0.4-0.4-1.1-0.7-1.9-0.7H693z"/>
			<path d="M703.6-43.9c0.1,1.2,0.5,2.2,1.2,2.9c0.7,0.7,1.7,1,2.9,1c1,0,1.8-0.2,2.5-0.7s1.1-1.1,1.5-1.8l1.8,0.9
				c-0.2,0.5-0.5,1-0.8,1.4c-0.3,0.4-0.8,0.8-1.2,1.2c-0.5,0.3-1,0.6-1.6,0.8c-0.6,0.2-1.3,0.3-2.1,0.3c-1,0-1.8-0.2-2.6-0.5
				c-0.8-0.3-1.5-0.8-2.1-1.3s-1-1.3-1.3-2.1c-0.3-0.8-0.5-1.7-0.5-2.7c0-1,0.2-1.9,0.5-2.7c0.3-0.8,0.7-1.5,1.3-2.1
				c0.6-0.6,1.2-1.1,2-1.4c0.8-0.3,1.6-0.5,2.5-0.5c0.9,0,1.8,0.1,2.6,0.4c0.8,0.3,1.4,0.7,2,1.3s1,1.2,1.3,2
				c0.3,0.8,0.5,1.6,0.5,2.6c0,0.1,0,0.3,0,0.5c0,0.2,0,0.4,0,0.6H703.6z M707.5-49.3c-1.1,0-1.9,0.3-2.6,0.9
				c-0.7,0.6-1.1,1.5-1.2,2.6h7.8c-0.1-1.1-0.5-1.9-1.2-2.5C709.5-49,708.6-49.3,707.5-49.3z"/>
			<path d="M725.9-40.1c-0.2,0.2-0.4,0.5-0.7,0.7c-0.3,0.3-0.6,0.5-1,0.7c-0.4,0.2-0.8,0.4-1.3,0.5s-1,0.2-1.5,0.2
				c-1,0-1.8-0.2-2.7-0.5c-0.8-0.3-1.5-0.8-2.1-1.4s-1-1.3-1.3-2.1c-0.3-0.8-0.5-1.7-0.5-2.7c0-0.9,0.2-1.8,0.5-2.6
				c0.3-0.8,0.8-1.5,1.3-2.1c0.6-0.6,1.3-1.1,2.1-1.4s1.7-0.5,2.6-0.5c1,0,1.9,0.2,2.6,0.6c0.7,0.4,1.3,0.8,1.7,1.3v-6.3h2.3v17.5
				h-2.2V-40.1z M717.2-44.6c0,0.7,0.1,1.3,0.3,1.8c0.2,0.6,0.5,1,0.9,1.5c0.4,0.4,0.8,0.7,1.4,0.9c0.5,0.2,1.1,0.3,1.7,0.3
				c0.6,0,1.2-0.1,1.8-0.3c0.5-0.2,1-0.5,1.4-0.9c0.4-0.4,0.7-0.9,0.9-1.5c0.2-0.6,0.3-1.2,0.3-1.8c0-0.7-0.1-1.3-0.3-1.8
				c-0.2-0.6-0.5-1-0.9-1.5c-0.4-0.4-0.8-0.7-1.4-1c-0.5-0.2-1.1-0.3-1.8-0.3c-0.6,0-1.2,0.1-1.8,0.3c-0.5,0.2-1,0.6-1.4,1
				c-0.4,0.4-0.7,0.9-0.9,1.5C717.3-45.9,717.2-45.3,717.2-44.6z"/>
			<path d="M732.6-42.8c0,0.9,0.2,1.5,0.5,2c0.4,0.5,0.9,0.7,1.7,0.7s1.3-0.3,1.7-0.8c0.4-0.5,0.6-1.2,0.6-2V-51h2.3v12.8h-2.3v-1.2
				c-0.2,0.3-0.5,0.6-1,0.9s-1.1,0.4-1.9,0.4c-0.7,0-1.3-0.1-1.8-0.3c-0.5-0.2-0.9-0.6-1.2-1c-0.3-0.4-0.6-0.9-0.7-1.4
				c-0.1-0.5-0.2-1.1-0.2-1.8V-51h2.3V-42.8z"/>
			<path d="M747.8-40c0.4,0,0.8,0,1.2-0.1s0.7-0.2,0.9-0.4c0.3-0.1,0.5-0.3,0.7-0.5c0.2-0.2,0.4-0.3,0.6-0.5l1.3,1.4
				c-0.2,0.2-0.4,0.5-0.7,0.7s-0.6,0.5-1,0.7c-0.4,0.2-0.8,0.4-1.3,0.5c-0.5,0.1-1.1,0.2-1.7,0.2c-1,0-1.9-0.2-2.7-0.5
				c-0.8-0.3-1.5-0.8-2.1-1.4c-0.6-0.6-1-1.3-1.3-2.1c-0.3-0.8-0.5-1.7-0.5-2.6s0.2-1.8,0.5-2.6c0.3-0.8,0.8-1.5,1.4-2.1
				c0.6-0.6,1.3-1.1,2.1-1.4c0.8-0.3,1.7-0.5,2.6-0.5c0.6,0,1.2,0.1,1.7,0.2c0.5,0.1,1,0.3,1.4,0.5c0.4,0.2,0.7,0.4,1,0.7
				s0.5,0.5,0.7,0.7l-1.4,1.4c-0.3-0.4-0.8-0.7-1.3-1c-0.5-0.3-1.2-0.5-2-0.5c-0.6,0-1.2,0.1-1.7,0.3c-0.5,0.2-1,0.6-1.3,1
				s-0.7,0.9-0.9,1.5c-0.2,0.6-0.3,1.2-0.3,1.8c0,0.7,0.1,1.3,0.3,1.9c0.2,0.6,0.5,1,0.9,1.4s0.8,0.7,1.4,0.9
				C746.7-40.1,747.2-40,747.8-40z"/>
			<path d="M759.5-40c0.4,0,0.8,0,1.2-0.1s0.7-0.2,0.9-0.4c0.3-0.1,0.5-0.3,0.7-0.5c0.2-0.2,0.4-0.3,0.6-0.5l1.3,1.4
				c-0.2,0.2-0.4,0.5-0.7,0.7s-0.6,0.5-1,0.7c-0.4,0.2-0.8,0.4-1.3,0.5c-0.5,0.1-1.1,0.2-1.7,0.2c-1,0-1.9-0.2-2.7-0.5
				c-0.8-0.3-1.5-0.8-2.1-1.4c-0.6-0.6-1-1.3-1.3-2.1c-0.3-0.8-0.5-1.7-0.5-2.6s0.2-1.8,0.5-2.6c0.3-0.8,0.8-1.5,1.4-2.1
				c0.6-0.6,1.3-1.1,2.1-1.4c0.8-0.3,1.7-0.5,2.6-0.5c0.6,0,1.2,0.1,1.7,0.2c0.5,0.1,1,0.3,1.4,0.5c0.4,0.2,0.7,0.4,1,0.7
				s0.5,0.5,0.7,0.7l-1.4,1.4c-0.3-0.4-0.8-0.7-1.3-1c-0.5-0.3-1.2-0.5-2-0.5c-0.6,0-1.2,0.1-1.7,0.3c-0.5,0.2-1,0.6-1.3,1
				s-0.7,0.9-0.9,1.5c-0.2,0.6-0.3,1.2-0.3,1.8c0,0.7,0.1,1.3,0.3,1.9c0.2,0.6,0.5,1,0.9,1.4s0.8,0.7,1.4,0.9
				C758.3-40.1,758.9-40,759.5-40z"/>
			<path d="M766.8-52.3c-0.4,0-0.8-0.1-1.1-0.4c-0.3-0.3-0.4-0.7-0.4-1.1c0-0.4,0.1-0.8,0.4-1.1c0.3-0.3,0.7-0.4,1.1-0.4
				c0.4,0,0.8,0.1,1.1,0.4c0.3,0.3,0.5,0.6,0.5,1.1c0,0.4-0.2,0.8-0.5,1.1C767.6-52.4,767.2-52.3,766.8-52.3z M768-38.2h-2.3V-51
				h2.3V-38.2z"/>
			<path d="M769.7-44.6c0-1,0.2-1.9,0.5-2.7c0.3-0.8,0.8-1.5,1.4-2.1c0.6-0.6,1.3-1.1,2.1-1.4c0.8-0.3,1.7-0.5,2.6-0.5
				c1,0,1.8,0.2,2.7,0.5s1.5,0.8,2.1,1.4c0.6,0.6,1,1.3,1.4,2.1c0.3,0.8,0.5,1.7,0.5,2.7s-0.2,1.8-0.5,2.7c-0.3,0.8-0.8,1.5-1.4,2.1
				c-0.6,0.6-1.3,1-2.1,1.4c-0.8,0.3-1.7,0.5-2.6,0.5c-1,0-1.8-0.2-2.7-0.5c-0.8-0.3-1.5-0.8-2.1-1.4c-0.6-0.6-1-1.3-1.4-2.1
				C769.9-42.7,769.7-43.6,769.7-44.6z M772-44.6c0,0.7,0.1,1.3,0.3,1.8c0.2,0.6,0.5,1,0.9,1.4c0.4,0.4,0.8,0.7,1.4,1
				c0.5,0.2,1.1,0.3,1.7,0.3c0.6,0,1.2-0.1,1.8-0.3c0.5-0.2,1-0.5,1.4-1c0.4-0.4,0.7-0.9,0.9-1.4c0.2-0.6,0.3-1.2,0.3-1.8
				c0-0.7-0.1-1.3-0.3-1.8c-0.2-0.6-0.5-1-0.9-1.5s-0.8-0.7-1.4-1c-0.5-0.2-1.1-0.3-1.7-0.3c-0.6,0-1.2,0.1-1.8,0.3
				c-0.5,0.2-1,0.5-1.4,1c-0.4,0.4-0.7,0.9-0.9,1.5C772.1-45.9,772-45.3,772-44.6z M779.2-55.3l-1.9,3.2H775l1.9-3.2H779.2z"/>
			<path d="M791.6-46.4c0-0.9-0.2-1.5-0.6-2c-0.4-0.5-0.9-0.7-1.7-0.7c-0.8,0-1.4,0.3-1.8,0.8c-0.4,0.5-0.6,1.2-0.6,2v8.2h-2.3V-51
				h2.3v1.2c0.1-0.1,0.2-0.3,0.4-0.4c0.2-0.2,0.4-0.3,0.6-0.4c0.2-0.1,0.5-0.2,0.8-0.3c0.3-0.1,0.7-0.1,1.1-0.1
				c0.7,0,1.4,0.1,1.9,0.4c0.5,0.2,0.9,0.6,1.2,1c0.3,0.4,0.6,0.9,0.7,1.4c0.1,0.5,0.2,1.1,0.2,1.8v8.5h-2.3V-46.4z"/>
			<path d="M810.3-40.1c-0.2,0.2-0.4,0.5-0.7,0.7c-0.3,0.3-0.6,0.5-1,0.7c-0.4,0.2-0.8,0.4-1.3,0.5s-1,0.2-1.5,0.2
				c-1,0-1.8-0.2-2.7-0.5c-0.8-0.3-1.5-0.8-2.1-1.4s-1-1.3-1.3-2.1c-0.3-0.8-0.5-1.7-0.5-2.7c0-0.9,0.2-1.8,0.5-2.6
				c0.3-0.8,0.8-1.5,1.3-2.1c0.6-0.6,1.3-1.1,2.1-1.4s1.7-0.5,2.6-0.5c1,0,1.9,0.2,2.6,0.6c0.7,0.4,1.3,0.8,1.7,1.3v-6.3h2.3v17.5
				h-2.2V-40.1z M801.6-44.6c0,0.7,0.1,1.3,0.3,1.8c0.2,0.6,0.5,1,0.9,1.5c0.4,0.4,0.8,0.7,1.4,0.9c0.5,0.2,1.1,0.3,1.7,0.3
				c0.6,0,1.2-0.1,1.8-0.3c0.5-0.2,1-0.5,1.4-0.9c0.4-0.4,0.7-0.9,0.9-1.5c0.2-0.6,0.3-1.2,0.3-1.8c0-0.7-0.1-1.3-0.3-1.8
				c-0.2-0.6-0.5-1-0.9-1.5c-0.4-0.4-0.8-0.7-1.4-1c-0.5-0.2-1.1-0.3-1.8-0.3c-0.6,0-1.2,0.1-1.8,0.3c-0.5,0.2-1,0.6-1.4,1
				c-0.4,0.4-0.7,0.9-0.9,1.5C801.7-45.9,801.6-45.3,801.6-44.6z"/>
			<path d="M816.6-43.9c0.1,1.2,0.5,2.2,1.2,2.9c0.7,0.7,1.7,1,2.9,1c1,0,1.8-0.2,2.5-0.7s1.1-1.1,1.5-1.8l1.8,0.9
				c-0.2,0.5-0.5,1-0.8,1.4c-0.3,0.4-0.8,0.8-1.2,1.2c-0.5,0.3-1,0.6-1.6,0.8c-0.6,0.2-1.3,0.3-2.1,0.3c-1,0-1.8-0.2-2.6-0.5
				c-0.8-0.3-1.5-0.8-2.1-1.3s-1-1.3-1.3-2.1c-0.3-0.8-0.5-1.7-0.5-2.7c0-1,0.2-1.9,0.5-2.7c0.3-0.8,0.7-1.5,1.3-2.1
				c0.6-0.6,1.2-1.1,2-1.4c0.8-0.3,1.6-0.5,2.5-0.5c0.9,0,1.8,0.1,2.6,0.4c0.8,0.3,1.4,0.7,2,1.3s1,1.2,1.3,2
				c0.3,0.8,0.5,1.6,0.5,2.6c0,0.1,0,0.3,0,0.5c0,0.2,0,0.4,0,0.6H816.6z M820.5-49.3c-1.1,0-1.9,0.3-2.6,0.9
				c-0.7,0.6-1.1,1.5-1.2,2.6h7.8c-0.1-1.1-0.5-1.9-1.2-2.5C822.5-49,821.6-49.3,820.5-49.3z"/>
			<path d="M830.7-38.2h-2.3v-17.5h2.3V-38.2z"/>
			<path d="M841.9-48.7h-0.6c-0.8,0-1.4,0.2-1.7,0.6c-0.4,0.4-0.5,1-0.5,1.8v8.1h-2.3V-51h2.3v1.2c0.2-0.4,0.6-0.7,1-0.9
				c0.4-0.2,1.1-0.4,1.8-0.3V-48.7z"/>
			<path d="M844.5-43.9c0.1,1.2,0.5,2.2,1.2,2.9c0.7,0.7,1.7,1,2.9,1c1,0,1.8-0.2,2.5-0.7s1.1-1.1,1.5-1.8l1.8,0.9
				c-0.2,0.5-0.5,1-0.8,1.4c-0.3,0.4-0.8,0.8-1.2,1.2c-0.5,0.3-1,0.6-1.6,0.8s-1.3,0.3-2.1,0.3c-1,0-1.8-0.2-2.6-0.5
				c-0.8-0.3-1.5-0.8-2.1-1.3s-1-1.3-1.3-2.1c-0.3-0.8-0.5-1.7-0.5-2.7c0-1,0.2-1.9,0.5-2.7c0.3-0.8,0.7-1.5,1.3-2.1
				c0.6-0.6,1.2-1.1,2-1.4c0.8-0.3,1.6-0.5,2.5-0.5c0.9,0,1.8,0.1,2.6,0.4c0.8,0.3,1.4,0.7,2,1.3c0.5,0.5,1,1.2,1.3,2
				c0.3,0.8,0.5,1.6,0.5,2.6c0,0.1,0,0.3,0,0.5c0,0.2,0,0.4,0,0.6H844.5z M848.4-49.3c-1.1,0-1.9,0.3-2.6,0.9
				c-0.7,0.6-1.1,1.5-1.2,2.6h7.8c-0.1-1.1-0.5-1.9-1.2-2.5C850.4-49,849.5-49.3,848.4-49.3z"/>
			<path d="M863.3-46.4c0-0.9-0.2-1.5-0.6-2c-0.4-0.5-0.9-0.7-1.7-0.7c-0.8,0-1.4,0.3-1.8,0.8s-0.6,1.2-0.6,2v8.2h-2.3V-51h2.3v1.2
				c0.1-0.1,0.2-0.3,0.4-0.4s0.4-0.3,0.6-0.4c0.2-0.1,0.5-0.2,0.8-0.3s0.7-0.1,1.1-0.1c0.7,0,1.4,0.1,1.9,0.4s0.9,0.6,1.2,1
				s0.6,0.9,0.7,1.4c0.1,0.5,0.2,1.1,0.2,1.8v8.5h-2.3V-46.4z"/>
			<path d="M878.2-40.1c-0.2,0.2-0.4,0.5-0.7,0.7c-0.3,0.3-0.6,0.5-1,0.7s-0.8,0.4-1.3,0.5c-0.5,0.1-1,0.2-1.5,0.2
				c-1,0-1.8-0.2-2.7-0.5c-0.8-0.3-1.5-0.8-2.1-1.4s-1-1.3-1.3-2.1c-0.3-0.8-0.5-1.7-0.5-2.7c0-0.9,0.2-1.8,0.5-2.6
				c0.3-0.8,0.8-1.5,1.3-2.1c0.6-0.6,1.3-1.1,2.1-1.4s1.7-0.5,2.6-0.5c1,0,1.9,0.2,2.6,0.6c0.7,0.4,1.3,0.8,1.7,1.3v-6.3h2.3v17.5
				h-2.2V-40.1z M869.5-44.6c0,0.7,0.1,1.3,0.3,1.8c0.2,0.6,0.5,1,0.9,1.5c0.4,0.4,0.8,0.7,1.4,0.9c0.5,0.2,1.1,0.3,1.7,0.3
				c0.6,0,1.2-0.1,1.8-0.3c0.5-0.2,1-0.5,1.4-0.9c0.4-0.4,0.7-0.9,0.9-1.5c0.2-0.6,0.3-1.2,0.3-1.8c0-0.7-0.1-1.3-0.3-1.8
				c-0.2-0.6-0.5-1-0.9-1.5s-0.8-0.7-1.4-1c-0.5-0.2-1.1-0.3-1.8-0.3c-0.6,0-1.2,0.1-1.8,0.3c-0.5,0.2-1,0.6-1.4,1s-0.7,0.9-0.9,1.5
				C869.7-45.9,869.5-45.3,869.5-44.6z"/>
			<path d="M883.9-52.3c-0.4,0-0.8-0.1-1.1-0.4s-0.4-0.7-0.4-1.1c0-0.4,0.1-0.8,0.4-1.1s0.7-0.4,1.1-0.4c0.4,0,0.8,0.1,1.1,0.4
				s0.5,0.6,0.5,1.1c0,0.4-0.2,0.8-0.5,1.1S884.3-52.3,883.9-52.3z M885-38.2h-2.3V-51h2.3V-38.2z"/>
			<path d="M896.4-38.2h-2.3v-8.2c0-0.8-0.2-1.5-0.5-2c-0.4-0.5-0.9-0.7-1.6-0.7c-0.8,0-1.3,0.3-1.7,0.8c-0.4,0.5-0.6,1.2-0.6,2.1
				v8.1h-2.3V-51h2.3v1.2c0.1-0.1,0.2-0.3,0.4-0.4s0.4-0.3,0.6-0.4c0.2-0.1,0.5-0.2,0.8-0.3c0.3-0.1,0.7-0.1,1.1-0.1
				c0.8,0,1.5,0.2,2,0.5c0.5,0.3,0.9,0.7,1.1,1.2c0.3-0.5,0.7-0.9,1.2-1.2c0.5-0.3,1.2-0.5,2.1-0.5c0.7,0,1.4,0.1,1.9,0.3
				c0.5,0.2,1,0.6,1.3,1s0.6,0.9,0.7,1.4c0.2,0.5,0.2,1.1,0.2,1.7v8.5h-2.3v-8.3c0-0.8-0.2-1.5-0.5-2c-0.4-0.5-0.9-0.7-1.7-0.7
				c-0.7,0-1.3,0.2-1.7,0.7s-0.6,1.1-0.6,1.9V-38.2z"/>
			<path d="M906.5-52.3c-0.4,0-0.8-0.1-1.1-0.4s-0.4-0.7-0.4-1.1c0-0.4,0.1-0.8,0.4-1.1s0.7-0.4,1.1-0.4c0.4,0,0.8,0.1,1.1,0.4
				s0.5,0.6,0.5,1.1c0,0.4-0.2,0.8-0.5,1.1S906.9-52.3,906.5-52.3z M907.7-38.2h-2.3V-51h2.3V-38.2z"/>
			<path d="M911.8-43.9c0.1,1.2,0.5,2.2,1.2,2.9c0.7,0.7,1.7,1,2.9,1c1,0,1.8-0.2,2.5-0.7s1.1-1.1,1.5-1.8l1.8,0.9
				c-0.2,0.5-0.5,1-0.8,1.4c-0.3,0.4-0.8,0.8-1.2,1.2c-0.5,0.3-1,0.6-1.6,0.8s-1.3,0.3-2.1,0.3c-1,0-1.8-0.2-2.6-0.5
				c-0.8-0.3-1.5-0.8-2.1-1.3s-1-1.3-1.3-2.1c-0.3-0.8-0.5-1.7-0.5-2.7c0-1,0.2-1.9,0.5-2.7c0.3-0.8,0.7-1.5,1.3-2.1
				c0.6-0.6,1.2-1.1,2-1.4c0.8-0.3,1.6-0.5,2.5-0.5c0.9,0,1.8,0.1,2.6,0.4c0.8,0.3,1.4,0.7,2,1.3c0.5,0.5,1,1.2,1.3,2
				c0.3,0.8,0.5,1.6,0.5,2.6c0,0.1,0,0.3,0,0.5c0,0.2,0,0.4,0,0.6H911.8z M915.7-49.3c-1.1,0-1.9,0.3-2.6,0.9
				c-0.7,0.6-1.1,1.5-1.2,2.6h7.8c-0.1-1.1-0.5-1.9-1.2-2.5C917.7-49,916.8-49.3,915.7-49.3z"/>
			<path d="M930.5-46.4c0-0.9-0.2-1.5-0.6-2c-0.4-0.5-0.9-0.7-1.7-0.7c-0.8,0-1.4,0.3-1.8,0.8s-0.6,1.2-0.6,2v8.2h-2.3V-51h2.3v1.2
				c0.1-0.1,0.2-0.3,0.4-0.4s0.4-0.3,0.6-0.4c0.2-0.1,0.5-0.2,0.8-0.3s0.7-0.1,1.1-0.1c0.7,0,1.4,0.1,1.9,0.4s0.9,0.6,1.2,1
				s0.6,0.9,0.7,1.4c0.1,0.5,0.2,1.1,0.2,1.8v8.5h-2.3V-46.4z"/>
			<path d="M937.5-51h2.4v1.9h-2.4v7.3c0,0.6,0.1,1,0.3,1.3c0.2,0.3,0.6,0.4,1.2,0.4h0.9v1.9c-0.1,0-0.3,0-0.5,0.1s-0.6,0.1-0.9,0.1
				c-1.2,0-2-0.3-2.5-0.8s-0.7-1.4-0.7-2.4v-7.8H934V-51h1.3v-2h2.3V-51z"/>
			<path d="M940.4-44.6c0-1,0.2-1.9,0.5-2.7c0.3-0.8,0.8-1.5,1.4-2.1c0.6-0.6,1.3-1.1,2.1-1.4c0.8-0.3,1.7-0.5,2.6-0.5
				c1,0,1.8,0.2,2.7,0.5s1.5,0.8,2.1,1.4c0.6,0.6,1,1.3,1.4,2.1c0.3,0.8,0.5,1.7,0.5,2.7s-0.2,1.8-0.5,2.7c-0.3,0.8-0.8,1.5-1.4,2.1
				s-1.3,1-2.1,1.4S948-38,947-38c-1,0-1.8-0.2-2.7-0.5c-0.8-0.3-1.5-0.8-2.1-1.4s-1-1.3-1.4-2.1S940.4-43.6,940.4-44.6z
				 M942.7-44.6c0,0.7,0.1,1.3,0.3,1.8c0.2,0.6,0.5,1,0.9,1.4c0.4,0.4,0.8,0.7,1.4,1c0.5,0.2,1.1,0.3,1.7,0.3c0.6,0,1.2-0.1,1.8-0.3
				c0.5-0.2,1-0.5,1.4-1s0.7-0.9,0.9-1.4c0.2-0.6,0.3-1.2,0.3-1.8c0-0.7-0.1-1.3-0.3-1.8c-0.2-0.6-0.5-1-0.9-1.5
				c-0.4-0.4-0.8-0.7-1.4-1c-0.5-0.2-1.1-0.3-1.7-0.3c-0.6,0-1.2,0.1-1.8,0.3c-0.5,0.2-1,0.5-1.4,1s-0.7,0.9-0.9,1.5
				C942.8-45.9,942.7-45.3,942.7-44.6z"/>
		</g>
		<g class="st9">
			<path d="M696.5-16c0.4,0,0.8,0,1.2-0.1s0.7-0.2,0.9-0.4c0.3-0.1,0.5-0.3,0.7-0.5c0.2-0.2,0.4-0.3,0.6-0.5l1.3,1.4
				c-0.2,0.2-0.4,0.5-0.7,0.7s-0.6,0.5-1,0.7c-0.4,0.2-0.8,0.4-1.3,0.5c-0.5,0.1-1.1,0.2-1.7,0.2c-1,0-1.9-0.2-2.7-0.5
				c-0.8-0.3-1.5-0.8-2.1-1.4c-0.6-0.6-1-1.3-1.3-2.1c-0.3-0.8-0.5-1.7-0.5-2.6s0.2-1.8,0.5-2.6c0.3-0.8,0.8-1.5,1.4-2.1
				c0.6-0.6,1.3-1.1,2.1-1.4c0.8-0.3,1.7-0.5,2.6-0.5c0.6,0,1.2,0.1,1.7,0.2c0.5,0.1,1,0.3,1.4,0.5c0.4,0.2,0.7,0.4,1,0.7
				s0.5,0.5,0.7,0.7l-1.4,1.4c-0.3-0.4-0.8-0.7-1.3-1c-0.5-0.3-1.2-0.5-2-0.5c-0.6,0-1.2,0.1-1.7,0.3c-0.5,0.2-1,0.6-1.3,1
				s-0.7,0.9-0.9,1.5c-0.2,0.6-0.3,1.2-0.3,1.8c0,0.7,0.1,1.3,0.3,1.9c0.2,0.6,0.5,1,0.9,1.4s0.8,0.7,1.4,0.9
				C695.4-16.1,695.9-16,696.5-16z"/>
			<path d="M701.6-20.6c0-1,0.2-1.9,0.5-2.7c0.3-0.8,0.8-1.5,1.4-2.1c0.6-0.6,1.3-1.1,2.1-1.4c0.8-0.3,1.7-0.5,2.6-0.5
				c1,0,1.8,0.2,2.7,0.5s1.5,0.8,2.1,1.4c0.6,0.6,1,1.3,1.4,2.1c0.3,0.8,0.5,1.7,0.5,2.7s-0.2,1.8-0.5,2.7c-0.3,0.8-0.8,1.5-1.4,2.1
				c-0.6,0.6-1.3,1-2.1,1.4c-0.8,0.3-1.7,0.5-2.6,0.5c-1,0-1.8-0.2-2.7-0.5c-0.8-0.3-1.5-0.8-2.1-1.4c-0.6-0.6-1-1.3-1.4-2.1
				C701.7-18.7,701.6-19.6,701.6-20.6z M703.9-20.6c0,0.7,0.1,1.3,0.3,1.8c0.2,0.6,0.5,1,0.9,1.4c0.4,0.4,0.8,0.7,1.4,1
				c0.5,0.2,1.1,0.3,1.7,0.3c0.6,0,1.2-0.1,1.8-0.3c0.5-0.2,1-0.5,1.4-1c0.4-0.4,0.7-0.9,0.9-1.4c0.2-0.6,0.3-1.2,0.3-1.8
				c0-0.7-0.1-1.3-0.3-1.8c-0.2-0.6-0.5-1-0.9-1.5s-0.8-0.7-1.4-1c-0.5-0.2-1.1-0.3-1.7-0.3c-0.6,0-1.2,0.1-1.8,0.3
				c-0.5,0.2-1,0.5-1.4,1c-0.4,0.4-0.7,0.9-0.9,1.5C704-21.9,703.9-21.3,703.9-20.6z"/>
			<path d="M726.9-27h2.2v10.7c0,1.2-0.2,2.2-0.5,3.1c-0.3,0.8-0.8,1.5-1.4,2c-0.6,0.5-1.3,0.9-2.1,1.1c-0.8,0.2-1.7,0.3-2.6,0.3
				c-1.1,0-2.1-0.1-3-0.4c-0.9-0.3-1.6-0.6-2.1-0.9l0.9-1.8c0.4,0.3,1,0.5,1.7,0.8c0.7,0.3,1.5,0.4,2.5,0.4c0.6,0,1.2-0.1,1.7-0.2
				c0.5-0.1,1-0.4,1.4-0.7c0.4-0.3,0.7-0.7,1-1.2c0.2-0.5,0.3-1.1,0.3-1.7V-16c-0.1,0.2-0.3,0.5-0.6,0.7c-0.2,0.2-0.6,0.5-0.9,0.7
				c-0.4,0.2-0.8,0.4-1.2,0.5c-0.5,0.1-1,0.2-1.6,0.2c-1,0-1.8-0.2-2.7-0.5c-0.8-0.3-1.5-0.8-2.1-1.3c-0.6-0.6-1-1.3-1.4-2.1
				c-0.3-0.8-0.5-1.7-0.5-2.7c0-0.9,0.2-1.8,0.5-2.6c0.3-0.8,0.8-1.5,1.4-2.1c0.6-0.6,1.3-1.1,2.1-1.4s1.7-0.5,2.6-0.5
				c1,0,1.9,0.2,2.6,0.6s1.4,0.8,1.8,1.4V-27z M718.3-20.6c0,0.7,0.1,1.3,0.3,1.8c0.2,0.6,0.5,1,0.9,1.5c0.4,0.4,0.8,0.7,1.4,0.9
				c0.5,0.2,1.1,0.3,1.7,0.3c0.6,0,1.2-0.1,1.8-0.3c0.5-0.2,1-0.5,1.4-0.9c0.4-0.4,0.7-0.9,0.9-1.5c0.2-0.6,0.3-1.2,0.3-1.8
				c0-0.7-0.1-1.3-0.3-1.8c-0.2-0.6-0.5-1-0.9-1.5c-0.4-0.4-0.8-0.7-1.4-1c-0.5-0.2-1.1-0.3-1.8-0.3c-0.6,0-1.2,0.1-1.8,0.3
				c-0.5,0.2-1,0.6-1.4,1c-0.4,0.4-0.7,0.9-0.9,1.5C718.4-21.9,718.3-21.3,718.3-20.6z"/>
			<path d="M738.4-22.4c0-0.9-0.2-1.5-0.6-2c-0.4-0.5-0.9-0.7-1.7-0.7c-0.8,0-1.4,0.3-1.8,0.8c-0.4,0.5-0.6,1.2-0.6,2v8.2h-2.3V-27
				h2.3v1.2c0.1-0.1,0.2-0.3,0.4-0.4c0.2-0.2,0.4-0.3,0.6-0.4c0.2-0.1,0.5-0.2,0.8-0.3c0.3-0.1,0.7-0.1,1.1-0.1
				c0.7,0,1.4,0.1,1.9,0.4c0.5,0.2,0.9,0.6,1.2,1c0.3,0.4,0.6,0.9,0.7,1.4c0.1,0.5,0.2,1.1,0.2,1.8v8.5h-2.3V-22.4z"/>
			<path d="M744.1-28.3c-0.4,0-0.8-0.1-1.1-0.4c-0.3-0.3-0.4-0.7-0.4-1.1c0-0.4,0.1-0.8,0.4-1.1c0.3-0.3,0.7-0.4,1.1-0.4
				c0.4,0,0.8,0.1,1.1,0.4c0.3,0.3,0.5,0.6,0.5,1.1c0,0.4-0.2,0.8-0.5,1.1C744.9-28.4,744.5-28.3,744.1-28.3z M745.2-14.2h-2.3V-27
				h2.3V-14.2z"/>
			<path d="M750.2-27h2.4v1.9h-2.4v7.3c0,0.6,0.1,1,0.3,1.3c0.2,0.3,0.6,0.4,1.2,0.4h0.9v1.9c-0.1,0-0.3,0-0.5,0.1s-0.6,0.1-0.9,0.1
				c-1.2,0-2-0.3-2.5-0.8s-0.7-1.4-0.7-2.4v-7.8h-1.3V-27h1.3v-2h2.3V-27z"/>
			<path d="M755.4-28.3c-0.4,0-0.8-0.1-1.1-0.4c-0.3-0.3-0.4-0.7-0.4-1.1c0-0.4,0.1-0.8,0.4-1.1c0.3-0.3,0.7-0.4,1.1-0.4
				c0.4,0,0.8,0.1,1.1,0.4c0.3,0.3,0.5,0.6,0.5,1.1c0,0.4-0.2,0.8-0.5,1.1C756.1-28.4,755.8-28.3,755.4-28.3z M756.5-14.2h-2.3V-27
				h2.3V-14.2z"/>
			<path d="M763.9-17l3.7-10.1h2.4l-4.9,12.8h-2.5l-5-12.8h2.5L763.9-17z"/>
			<path d="M769.9-20.6c0-1,0.2-1.9,0.5-2.7c0.3-0.8,0.8-1.5,1.4-2.1c0.6-0.6,1.3-1.1,2.1-1.4c0.8-0.3,1.7-0.5,2.6-0.5
				c1,0,1.8,0.2,2.7,0.5s1.5,0.8,2.1,1.4c0.6,0.6,1,1.3,1.4,2.1c0.3,0.8,0.5,1.7,0.5,2.7s-0.2,1.8-0.5,2.7c-0.3,0.8-0.8,1.5-1.4,2.1
				c-0.6,0.6-1.3,1-2.1,1.4c-0.8,0.3-1.7,0.5-2.6,0.5c-1,0-1.8-0.2-2.7-0.5c-0.8-0.3-1.5-0.8-2.1-1.4c-0.6-0.6-1-1.3-1.4-2.1
				C770.1-18.7,769.9-19.6,769.9-20.6z M772.2-20.6c0,0.7,0.1,1.3,0.3,1.8c0.2,0.6,0.5,1,0.9,1.4c0.4,0.4,0.8,0.7,1.4,1
				c0.5,0.2,1.1,0.3,1.7,0.3c0.6,0,1.2-0.1,1.8-0.3c0.5-0.2,1-0.5,1.4-1c0.4-0.4,0.7-0.9,0.9-1.4c0.2-0.6,0.3-1.2,0.3-1.8
				c0-0.7-0.1-1.3-0.3-1.8c-0.2-0.6-0.5-1-0.9-1.5s-0.8-0.7-1.4-1c-0.5-0.2-1.1-0.3-1.7-0.3c-0.6,0-1.2,0.1-1.8,0.3
				c-0.5,0.2-1,0.5-1.4,1c-0.4,0.4-0.7,0.9-0.9,1.5C772.3-21.9,772.2-21.3,772.2-20.6z"/>
		</g>
	</g>
	<g>
		<rect x="689.4" y="-113.8" class="st8" width="283.7" height="138.5"/>
		<g class="st9">
			<path class="st1" d="M709.5-92.3c-0.4,0.4-0.8,0.7-1.3,1.1c-0.5,0.4-1.1,0.7-1.7,1c-0.6,0.3-1.3,0.5-2.1,0.7s-1.6,0.3-2.4,0.3
				c-1.8,0-3.4-0.3-4.8-0.9c-1.5-0.6-2.7-1.4-3.7-2.5s-1.8-2.3-2.4-3.7c-0.6-1.5-0.8-3-0.8-4.8c0-1.7,0.3-3.3,0.9-4.8
				s1.4-2.7,2.4-3.8c1-1.1,2.3-1.9,3.7-2.5c1.4-0.6,3-0.9,4.8-0.9c1.5,0,2.9,0.2,4.1,0.7s2.3,1.1,3.3,1.9l-1.9,2.4
				c-0.7-0.6-1.5-1.1-2.4-1.4s-1.9-0.6-3.1-0.6c-1.3,0-2.4,0.2-3.4,0.7c-1,0.4-1.9,1.1-2.6,1.8s-1.3,1.7-1.7,2.8
				c-0.4,1.1-0.6,2.3-0.6,3.5c0,1.3,0.2,2.5,0.6,3.6c0.4,1.1,1,2,1.7,2.8c0.7,0.8,1.6,1.4,2.7,1.8s2.2,0.7,3.4,0.7
				c1.3,0,2.4-0.2,3.3-0.7c0.9-0.5,1.7-1,2.3-1.5L709.5-92.3z"/>
			<path class="st1" d="M724.8-97.2h-8.6l-2.8,7.5h-3.2l8.6-22.8h3.4l9,22.8h-3.4L724.8-97.2z M717.3-100h6.5l-3.3-8.4L717.3-100z"
				/>
			<path class="st1" d="M746-96.3c0,1-0.2,2-0.5,2.8c-0.3,0.8-0.8,1.5-1.4,2.1c-0.6,0.6-1.3,1-2.2,1.3c-0.8,0.3-1.8,0.4-2.8,0.4
				h-6.3v-22.8h5.9c2.1,0,3.8,0.5,4.9,1.5s1.7,2.5,1.7,4.5c0,1.1-0.2,2.1-0.7,2.9s-1.1,1.5-1.9,1.9c1,0.4,1.8,1.1,2.4,2
				C745.8-98.8,746-97.7,746-96.3z M736.1-109.7v6.9h2.5c1.1,0,2-0.3,2.6-0.9s0.9-1.5,0.9-2.6s-0.3-2-0.9-2.5
				c-0.6-0.6-1.4-0.9-2.6-0.9H736.1z M736.1-100v7.5h2.7c1.3,0,2.2-0.4,2.9-1.1c0.6-0.7,1-1.6,1-2.8c0-1.1-0.3-2-1-2.7
				c-0.6-0.7-1.6-1-2.9-1H736.1z"/>
			<path class="st1" d="M748.7-89.7v-22.8h9.9v3h-6.7v6.6h6.5v3h-6.5v7.2h6.8v3H748.7z"/>
			<path class="st1" d="M760.8-89.7v-2.4l13.1-17.4H761v-3h17.3v2.4l-13.2,17.4h13.2v3H760.8z"/>
			<path class="st1" d="M794-97.2h-8.6l-2.8,7.5h-3.2l8.6-22.8h3.4l9,22.8h-3.4L794-97.2z M786.4-100h6.5l-3.3-8.4L786.4-100z"/>
		</g>
	</g>
	<line class="st10" x1="1301.8" y1="-136.2" x2="689.4" y2="-137.9"/>
	<circle class="st4" cx="678" cy="-46.2" r="5.5"/>
</g>
</svg>
