<?xml version="1.0" encoding="utf-8"?>
<!-- Generator: Adobe Illustrator 19.0.0, SVG Export Plug-In . SVG Version: 6.00 Build 0)  -->
<svg version="1.1" xmlns="http://www.w3.org/2000/svg" xmlns:xlink="http://www.w3.org/1999/xlink" x="0px" y="0px"
	 viewBox="0 0 580.4 1438.3" style="enable-background:new 0 0 580.4 1438.3;" xml:space="preserve">
<style type="text/css">
	.st0{opacity:0.3;}
	.st1{fill:#FCD7A6;}
	.st2{fill:#FBE2E0;}
	.st3{fill:#F29700;}
	.st4{fill:#F8D2D0;}
	.st5{fill:none;stroke:#F0A0A0;stroke-width:6.0028;stroke-linecap:round;stroke-miterlimit:10;}
	.st6{fill:#F0A0A0;}
	.st7{fill:#181717;}
	.st8{fill:#010202;}
	.st9{display:none;}
</style>
<g id="Cos_1_" class="st0">
	<g id="XMLID_95_">
		<g id="XMLID_124_">
			<path id="XMLID_134_" class="st1" d="M381,21.9c-0.4,0-0.7,0-1,0c-0.3,0-0.7,0-1,0c-44.9-0.4-62.4,35.1-59.8,80.4
				c2.5,44.3,19.6,91.2,60.6,92.1v0c0.1,0,0.2,0,0.3,0c0.1,0,0.2,0,0.3,0v0c41-0.9,58.1-47.8,60.6-92.1
				C443.4,57,425.9,21.5,381,21.9z"/>
			<g id="XMLID_131_">
				
					<ellipse id="XMLID_133_" transform="matrix(0.9911 0.1335 -0.1335 0.9911 19.8803 -57.4786)" class="st1" cx="438.6" cy="119.5" rx="8" ry="23.8"/>
				
					<ellipse id="XMLID_132_" transform="matrix(-0.9911 0.1335 -0.1335 -0.9911 655.4337 195.1312)" class="st1" cx="321.2" cy="119.5" rx="8" ry="23.8"/>
			</g>
			<rect id="XMLID_129_" x="344.8" y="162.2" class="st1" width="70.1" height="73.1"/>
			<g id="XMLID_125_">
				<path id="XMLID_128_" class="st1" d="M392.8,268.3l-48.1-73.8l0,0c0,20.9-16.9,37.8-37.8,37.8l0,0L392.8,268.3z"/>
				<path id="XMLID_126_" class="st1" d="M367,268.3l48.1-73.8l0,0c0,20.9,16.9,37.8,37.8,37.8l0,0L367,268.3z"/>
			</g>
		</g>
		<g id="XMLID_96_">
			<rect id="XMLID_123_" x="290.3" y="231.9" class="st1" width="178.7" height="281.4"/>
			<path id="XMLID_122_" class="st1" d="M262.9,270.4h233.4v86.2c0,35.4-28.7,64-64,64H326.9c-35.4,0-64-28.7-64-64V270.4z"/>
			<path id="XMLID_121_" class="st1" d="M217.1,353.7h325.1v-59.3c0-34.5-28-62.4-62.4-62.4H279.5c-34.5,0-62.4,28-62.4,62.4V353.7z
				"/>
			<path id="XMLID_120_" class="st1" d="M469,513.4h-89.4v196.1h127.1c0,0,0-24.5,0-74.5C506.7,587,469,513.4,469,513.4z"/>
			<path id="XMLID_118_" class="st1" d="M290.2,513.4h89.4v196.1H252.5c0,0,0-24.5,0-74.5C252.5,587,290.2,513.4,290.2,513.4z"/>
			<g id="XMLID_113_">
				<path id="XMLID_117_" class="st1" d="M464.9,960.5c0,19.3-77.1,0-77.1,0v-251c0,0,118.8-29.7,118.8,0
					C506.7,816.2,464.9,931.4,464.9,960.5z"/>
				<path id="XMLID_116_" class="st1" d="M443.8,1275.3h-41l-14.9-314.8h76.9c0,0,6.4,92.3,6.4,123.2
					C471.1,1170.3,443.8,1275.3,443.8,1275.3z"/>
				<path id="XMLID_115_" class="st1" d="M451.6,1370.3c-0.1,2.3-2.4,6-4.9,9.3c-3.8,5-9.7,7.8-15.9,7.8H401
					c-7,0-12.4-6.1-11.4-13.1l13.1-99h41C443.7,1275.3,452.6,1341.1,451.6,1370.3z"/>
			</g>
			<g id="XMLID_105_">
				<path id="XMLID_111_" class="st1" d="M294.3,960.5c0,19.3,77.1,0,77.1,0v-251c0,0-118.8-29.7-118.8,0
					C252.5,816.2,294.3,931.4,294.3,960.5z"/>
				<path id="XMLID_109_" class="st1" d="M315.4,1275.3h41l14.9-314.8h-76.9c0,0-6.4,92.3-6.4,123.2
					C288.1,1170.3,315.4,1275.3,315.4,1275.3z"/>
				<path id="XMLID_107_" class="st1" d="M307.6,1370.3c0.1,2.3,2.4,6,4.9,9.3c3.8,5,9.7,7.8,15.9,7.8h29.7c7,0,12.4-6.1,11.4-13.1
					l-13.1-99h-41C315.5,1275.3,306.6,1341.1,307.6,1370.3z"/>
			</g>
			<polygon id="XMLID_104_" class="st1" points="562.6,503 516.7,508.3 488.9,290.9 542,284.8 			"/>
			<path id="XMLID_103_" class="st1" d="M577.4,687.6l-27,3.1l-33.7-182.5c0,0,42.4-39.8,43.8-27.7c2.5,21.5,8.9,43.4,12.1,73.1
				C576.2,587,577.4,687.6,577.4,687.6z"/>
			<path id="XMLID_102_" class="st1" d="M577.4,687.6v41.4c0,8.9-2.7,17.6-7.9,24.9l-32.9,46.8c-2.7,3.9-8,4.9-11.9,2.3h0
				c-3.7-2.4-5-7.1-3.1-11.1l20.4-42.3l-2.8-15.3l-14.6,28.8c-0.7,1.3-2.2,2-3.7,1.6l0,0c-1.5-0.4-2.5-1.9-2.3-3.4l3.1-27.7
				c0.8-7.2,3.3-14.1,7.4-20.1l21.2-22.9L577.4,687.6z"/>
			<g id="XMLID_98_">
				<polygon id="XMLID_101_" class="st1" points="197.2,503 243.1,508.3 271,290.9 217.8,284.8 				"/>
				<path id="XMLID_100_" class="st1" d="M182.4,687.6l27,3.1l33.7-182.5c0,0-42.4-39.8-43.8-27.7c-2.5,21.5-8.9,43.4-12.1,73.1
					C183.6,587,182.4,687.6,182.4,687.6z"/>
				<path id="XMLID_99_" class="st1" d="M182.4,687.6v41.4c0,8.9,2.7,17.6,7.9,24.9l32.9,46.8c2.7,3.9,8,4.9,11.9,2.3l0,0
					c3.7-2.4,5-7.1,3.1-11.1l-20.4-42.3l2.8-15.3l14.6,28.8c0.7,1.3,2.2,2,3.7,1.6h0c1.5-0.4,2.5-1.9,2.3-3.4l-3.1-27.7
					c-0.8-7.2-3.3-14.1-7.4-20.1l-21.2-22.9L182.4,687.6z"/>
			</g>
		</g>
	</g>
	<g id="XMLID_88_">
		<g id="XMLID_92_">
			<path id="XMLID_94_" class="st2" d="M397.4,238.6L397.4,238.6c3.9-2.5,8.4-3.9,13.1-3.9h6.3c7.9,0.5,12.9,3.1,16,7.1
				c21.4,27.7,48.6,65,55.8,114.3c1.7,11.9-15.2,35.7-19.8,39.1c-55.8,41.5-87.2-27.9-87.2-27.9l5-109.7
				C386.9,249.9,391,242.8,397.4,238.6z"/>
			<circle id="XMLID_93_" class="st2" cx="434" cy="361.4" r="54.6"/>
		</g>
		<g id="XMLID_89_">
			<path id="XMLID_91_" class="st2" d="M363.2,238.6L363.2,238.6c-3.9-2.5-8.4-3.9-13.1-3.9h-6.3c-7.9,0.5-12.9,3.1-16,7.1
				c-21.4,27.7-48.6,65-55.8,114.3c-1.7,11.9,15.2,35.7,19.8,39.1c55.8,41.5,87.2-27.9,87.2-27.9l17.6-99L374,257.6
				C373.7,249.9,369.6,242.8,363.2,238.6z"/>
			<circle id="XMLID_90_" class="st2" cx="326.6" cy="361.4" r="54.6"/>
		</g>
	</g>
	<path id="XMLID_2_" class="st3" d="M379.9,681L379.9,681c-30.3,0-54.9-24.6-54.9-54.9v-61.7c0-30.3,24.6-54.9,54.9-54.9h0
		c30.3,0,54.9,24.6,54.9,54.9v61.7C434.8,656.5,410.2,681,379.9,681z"/>
	<g id="XMLID_66_">
		<g id="XMLID_71_">
			<g id="XMLID_81_">
				<circle id="XMLID_86_" class="st4" cx="347.5" cy="360" r="22.4"/>
				<circle id="XMLID_85_" class="st4" cx="317.7" cy="370.8" r="24.4"/>
				<circle id="XMLID_84_" class="st4" cx="356.4" cy="295.1" r="13.5"/>
				<rect id="XMLID_83_" x="340.1" y="295.1" class="st4" width="29.9" height="61"/>
				<path id="XMLID_82_" class="st4" d="M294.2,364.2c13.2-52.4,53.6-79.5,53.6-79.5l5.4,70.4C353.3,355,290.6,378.7,294.2,364.2z"
					/>
			</g>
			<g id="XMLID_74_">
				<circle id="XMLID_80_" class="st4" cx="413.1" cy="360" r="22.4"/>
				<circle id="XMLID_79_" class="st4" cx="442.9" cy="370.8" r="24.4"/>
				<circle id="XMLID_78_" class="st4" cx="404.2" cy="295.1" r="13.5"/>
				<rect id="XMLID_76_" x="390.6" y="295.1" class="st4" width="29.9" height="61"/>
				<path id="XMLID_75_" class="st4" d="M466.4,364.2c-13.2-52.4-53.6-79.5-53.6-79.5l-5.4,70.4C407.3,355,470,378.7,466.4,364.2z"
					/>
			</g>
		</g>
		<rect id="XMLID_70_" x="372.8" y="234.3" class="st4" width="14.9" height="56.1"/>
		<g id="XMLID_67_">
			
				<rect id="XMLID_69_" x="390.5" y="278.7" transform="matrix(0.7071 -0.7071 0.7071 0.7071 -100.3745 371.237)" class="st4" width="14.9" height="56.1"/>
			
				<rect id="XMLID_68_" x="355.2" y="278.7" transform="matrix(-0.7071 -0.7071 0.7071 -0.7071 402.179 780.1494)" class="st4" width="14.9" height="56.1"/>
		</g>
	</g>
	<g id="XMLID_20_">
		<path id="XMLID_65_" class="st5" d="M548,726.4c0,0,20.9-17.7,20.3-35.7c-1.6-43.9,1.6-76-1.6-100.3c-8-60.9-24.9-73-27.9-100.5
			c-2.6-23.1,5-164.8-13-199.7c-19.1-36.9-65.2-41.5-97.4-33c-22.8,6-28.3,24.1-30.4,35.6c-1.6,8.8-1.8,16.5,2.7,35.8"/>
		<path id="XMLID_63_" class="st5" d="M479.2,256.1c23.7,6.2,25.7,29.3,27.5,56.9c1.8,27.6,33.3,135.3,30.9,171.2
			c-2.4,35.9-1.1,91.7,6.5,115.8c7.6,24.1,21.6,54.8,23.8,80.9"/>
		<path id="XMLID_61_" class="st5" d="M212.9,726.4c0,0-20.9-17.7-20.3-35.7c1.6-43.9-1.6-76,1.6-100.3c8-60.9,24.9-73,27.9-100.5
			c2.6-23.1-5-164.8,13-199.7c19.1-36.9,65.2-41.5,97.4-33c22.8,6,47.4,21.8,51.6,35.6c2.6,8.6,8.6,16.5,4.2,35.8"/>
		<path id="XMLID_60_" class="st5" d="M281.7,256.1c-23.7,6.2-25.7,29.3-27.5,56.9c-1.8,27.6-33.3,135.3-30.9,171.2
			c2.4,35.9,1.1,91.7-6.5,115.8S195.2,655,193,681"/>
		<path id="XMLID_55_" class="st5" d="M428.4,257.3c0,0-23.1-47.7-24.2-62.9c-1.1-15.2,13.1-41.3,23.2-68.4
			c5.7-15.3,5-30.2,3.3-40.3c-1.3-7.6-6.4-14-13.5-16.9l-4.6-1.9"/>
		<line id="XMLID_54_" class="st5" x1="404.2" y1="191" x2="410" y2="266.6"/>
		<path id="XMLID_48_" class="st5" d="M331.1,256.4c0,0,23.1-46.8,24.2-62c1.1-15.2-13.1-41.3-23.2-68.4
			c-6.5-17.4-4.7-34.3-2.5-44.1c1.2-5.4,4.3-10.1,8.7-13.3L343,65"/>
		<line id="XMLID_40_" class="st5" x1="355.3" y1="191" x2="349.4" y2="263.2"/>
		<path id="XMLID_29_" class="st5" d="M384,376.9c0,0-3.9,223.5,0.4,234.6c4.3,11.1,78.3,67.9,82.1,115
			c8.8,108-27.9,228.6-29.6,234.1c-6.6,21.4,19,145.2,13.3,195.2s-26.4,117.2-29.7,141.5c-3.2,24.3-5.6,54.3-5.6,54.3"/>
		<path id="XMLID_27_" class="st5" d="M413.1,642.1c13,13.8,18.6,46.7,16.4,84.3c-2.1,37.6,8.4,197.7,2.4,249.2
			c-6,51.5-18.1,154.4-14.2,193s7.1,90.2,2.9,128.7"/>
		<path id="XMLID_26_" class="st5" d="M382.9,608c-4.3,11.1-86.7,71.3-90.5,118.4c-8.8,108,27.9,228.6,29.6,234.1
			c6.6,21.4-19,145.2-13.3,195.2c5.7,50,26.4,117.2,29.7,141.5c3.2,24.3,5.6,54.3,5.6,54.3"/>
		<path id="XMLID_21_" class="st5" d="M346.3,644.2c-13,13.8-19,44.6-16.9,82.2c2.1,37.6-8.4,197.7-2.4,249.2
			c6,51.5,18.1,154.4,14.2,193c-3.9,38.6-7.1,90.2-2.9,128.7"/>
	</g>
	<path id="XMLID_18_" class="st6" d="M385.4,305.6c0,0,4.3,6.4,3.8,7.8c-0.4,1.4-3.7,2.6-7.2,11c-2.3,5.8,0.9,11.3-0.6,12.4
		c-1.6,1.1-5.7,7.9-6.9,10.2c-8.9,16.7,4,34.6,13.3,41.2c9.3,6.5,18.4,6.7,24.3,9.3c8.2,3.5,19,5.8,25.3-5.3c0,0,4.1-8.5-1-24.1
		c-2.9-8.9-6.4-15.4-8.1-17.8c-5.5-7.7-11.2-11.2-13.8-12.6c-1.4-0.7-0.8-3.8,2-5c2.8-1.3,6-0.3,6-0.3l1-4c0,0-3.9-1.3-5.8-0.9
		c-1.9,0.3,2.1-4.2,2.3-7.3c0,0-2.7-2.3-4.4-1.7c0,0-1,3.7-3.5,7.7c0,0,1-9.6-5.9-14.6c0,0,1.6-8.1,2.1-8.8c0,0-3.2-1.7-4.5-1.4
		c0,0-1.9,8.1-2.2,8.3c-0.3,0.2-0.9,1.2-1.5,0.2c-0.6-1-0.8-9.6-0.8-9.6l-4.4,0.5c0,0,1.9,9.3,0.7,9.8c-0.4,0.2-0.8,0.8-1.6,0.1
		c-2.1-1.8-4.3-6.9-4.3-7.3C389.6,302.8,385.4,305.6,385.4,305.6z"/>
	<g id="XMLID_5_">
		<circle id="XMLID_15_" class="st3" cx="346.6" cy="64.4" r="13.6"/>
		<circle id="XMLID_13_" class="st3" cx="366.9" cy="52.8" r="14.7"/>
		<circle id="XMLID_12_" class="st3" cx="389.5" cy="51.4" r="16.3"/>
		<circle id="XMLID_11_" class="st3" cx="340.4" cy="69.9" r="8.1"/>
		<circle id="XMLID_10_" class="st3" cx="419.9" cy="69.9" r="8.1"/>
		<circle id="XMLID_9_" class="st3" cx="408.9" cy="58.4" r="11"/>
		<rect id="XMLID_8_" x="340.4" y="64.4" class="st3" width="79.6" height="13.6"/>
		<rect id="XMLID_6_" x="365.8" y="55.4" class="st3" width="14.3" height="17.6"/>
	</g>
</g>
<g id="General_x2F_Altres">
	<g id="XMLID_473_">
		<g id="XMLID_723_">
			<path id="XMLID_789_" class="st7" d="M98.2,474.5h-4.4v-1.4c-0.6,0.5-1.4,0.9-2.3,1.2c-0.9,0.3-2.1,0.5-3.4,0.5
				c-1.7,0-3.3-0.3-4.8-0.9c-1.4-0.6-2.7-1.4-3.7-2.4c-1-1-1.8-2.3-2.4-3.7s-0.9-3.1-0.9-4.9c0-1.6,0.3-3.2,0.8-4.6
				c0.6-1.4,1.4-2.7,2.4-3.8c1-1.1,2.3-1.9,3.7-2.5c1.5-0.6,3.1-0.9,4.8-0.9c1.2,0,2.3,0.1,3.3,0.4s1.9,0.6,2.6,1
				c0.8,0.4,1.4,0.9,2,1.4c0.6,0.5,1.1,1.1,1.5,1.7l-3.6,2.6c-0.3-0.4-0.6-0.7-0.9-1.1c-0.4-0.4-0.8-0.7-1.2-0.9
				c-0.5-0.3-1-0.5-1.6-0.7c-0.6-0.2-1.3-0.2-2-0.2c-1,0-2,0.2-2.8,0.6c-0.9,0.4-1.6,0.9-2.2,1.5c-0.6,0.7-1.1,1.4-1.4,2.4
				c-0.3,0.9-0.5,1.9-0.5,3c0,1.2,0.2,2.2,0.5,3.1s0.9,1.7,1.5,2.4c0.6,0.7,1.4,1.2,2.3,1.5c0.9,0.4,1.8,0.5,2.9,0.5
				c1.3,0,2.4-0.2,3.4-0.6c0.9-0.4,1.6-0.9,2.1-1.4V466H90v-3.8h8.2V474.5z"/>
			<path id="XMLID_787_" class="st7" d="M102.8,474.5v-22.8h10.5v4.3h-5.9v4.8h5.7v4.3h-5.7v5.2h6v4.3H102.8z"/>
			<path id="XMLID_785_" class="st7" d="M122,459.4v15.1h-4.5v-22.8h4.8l9.8,15.3v-15.3h4.5v22.8H132L122,459.4z"/>
			<path id="XMLID_783_" class="st7" d="M141.5,474.5v-22.8h10.5v4.3h-5.9v4.8h5.7v4.3h-5.7v5.2h6v4.3H141.5z"/>
			<path id="XMLID_780_" class="st7" d="M170.4,458.2c0,1.3-0.3,2.5-0.8,3.4c-0.6,1-1.3,1.7-2.3,2.2l5.4,10.7h-4.9l-4.9-9.8h-2v9.8
				h-4.6v-22.8h7.1c2.3,0,4,0.6,5.2,1.7S170.4,456.1,170.4,458.2z M160.8,455.6v5.3h2.1c0.8,0,1.5-0.2,1.9-0.7
				c0.5-0.5,0.7-1.1,0.7-2c0-0.8-0.2-1.4-0.7-1.9s-1.1-0.7-1.9-0.7H160.8z"/>
			<path id="XMLID_777_" class="st7" d="M189.2,468.2h-7.8l-2.2,6.3h-4.5l8.3-22.8h4.8l8.6,22.8h-4.9L189.2,468.2z M182.8,464.3h5
				l-2.5-6.9L182.8,464.3z"/>
			<path id="XMLID_775_" class="st7" d="M199.4,474.5v-22.8h4.6v18.5h5.8v4.3H199.4z"/>
			<path id="XMLID_773_" class="st7" d="M215.4,480.3h-4.1l11.4-29.9h4.1L215.4,480.3z"/>
			<path id="XMLID_735_" class="st7" d="M228.2,463.1c0-1.7,0.3-3.2,0.9-4.7c0.6-1.5,1.4-2.7,2.4-3.8c1-1.1,2.3-1.9,3.7-2.5
				s3-0.9,4.8-0.9c1.8,0,3.4,0.3,4.9,0.9s2.7,1.4,3.8,2.5c1,1.1,1.8,2.3,2.4,3.7c0.6,1.4,0.9,3,0.9,4.7c0,1.7-0.3,3.2-0.8,4.7
				c-0.6,1.5-1.4,2.7-2.4,3.8s-2.3,1.9-3.8,2.5c-1.5,0.6-3.1,0.9-4.9,0.9c-1.8,0-3.5-0.3-4.9-0.9c-1.5-0.6-2.7-1.4-3.7-2.5
				c-1-1.1-1.8-2.3-2.4-3.7C228.5,466.3,228.2,464.8,228.2,463.1z M233,463.1c0,1.1,0.2,2.1,0.5,3s0.8,1.7,1.4,2.4
				c0.6,0.7,1.4,1.2,2.2,1.6c0.9,0.4,1.8,0.6,2.9,0.6c1.1,0,2.1-0.2,3-0.6c0.9-0.4,1.6-0.9,2.2-1.6c0.6-0.7,1.1-1.5,1.4-2.4
				c0.3-0.9,0.5-1.9,0.5-3c0-1.1-0.2-2.1-0.5-3c-0.3-0.9-0.8-1.7-1.4-2.4s-1.4-1.2-2.2-1.6c-0.9-0.4-1.9-0.6-2.9-0.6
				c-1.1,0-2.1,0.2-3,0.6c-0.9,0.4-1.6,0.9-2.2,1.6s-1.1,1.5-1.4,2.4C233.2,461,233,462,233,463.1z"/>
			<path id="XMLID_733_" class="st7" d="M262.3,455.9v18.5h-4.6v-18.5h-4.2v-4.3h12.9v4.3H262.3z"/>
			<path id="XMLID_731_" class="st7" d="M288.6,474.5H284v-9.6h-9.1v9.6h-4.6v-22.8h4.6v8.9h9.1v-8.9h4.6V474.5z"/>
			<path id="XMLID_729_" class="st7" d="M293.4,474.5v-22.8h10.5v4.3H298v4.8h5.7v4.3H298v5.2h6v4.3H293.4z"/>
			<path id="XMLID_726_" class="st7" d="M322.3,458.2c0,1.3-0.3,2.5-0.8,3.4c-0.6,1-1.3,1.7-2.3,2.2l5.4,10.7h-4.9l-4.9-9.8h-2v9.8
				h-4.6v-22.8h7.1c2.3,0,4,0.6,5.2,1.7S322.3,456.1,322.3,458.2z M312.8,455.6v5.3h2.1c0.8,0,1.5-0.2,1.9-0.7
				c0.5-0.5,0.7-1.1,0.7-2c0-0.8-0.2-1.4-0.7-1.9s-1.1-0.7-1.9-0.7H312.8z"/>
			<path id="XMLID_724_" class="st7" d="M331.1,457.5c0,0.6,0.2,1.1,0.5,1.5c0.3,0.4,0.9,0.8,1.6,1.1c0.5,0.2,1.1,0.5,1.6,0.7
				s1.1,0.5,1.8,0.7c1.4,0.6,2.5,1.4,3.2,2.4c0.8,1,1.2,2.3,1.2,3.9c0,1.1-0.2,2.1-0.6,3s-0.9,1.6-1.6,2.2s-1.5,1.1-2.4,1.4
				c-0.9,0.3-1.9,0.5-3,0.5c-1.5,0-2.8-0.2-3.7-0.7c-1-0.5-1.7-1-2.3-1.7s-0.9-1.5-1.1-2.4c-0.2-0.9-0.3-1.8-0.2-2.7h4.4
				c0,0.5,0,0.9,0.1,1.3c0.1,0.4,0.3,0.8,0.5,1.1c0.2,0.3,0.5,0.6,0.9,0.8s0.8,0.3,1.4,0.3c0.8,0,1.5-0.2,2-0.7
				c0.5-0.4,0.8-1.1,0.8-2c0-0.8-0.2-1.4-0.7-1.8c-0.4-0.4-1-0.8-1.8-1.1c-0.6-0.3-1.3-0.6-2-0.8c-0.7-0.2-1.3-0.5-2-0.9
				c-1.1-0.6-2-1.4-2.5-2.4c-0.6-1-0.9-2.2-0.9-3.6c0-0.9,0.2-1.8,0.5-2.6s0.8-1.5,1.4-2c0.6-0.6,1.3-1,2.2-1.3
				c0.9-0.3,1.8-0.5,2.9-0.5c1.3,0,2.4,0.2,3.3,0.5s1.6,0.9,2.1,1.5s0.9,1.3,1.1,2.2s0.3,1.7,0.3,2.6h-4.2c0-0.8-0.2-1.5-0.7-2
				s-1.1-0.8-1.9-0.8c-0.8,0-1.4,0.2-1.8,0.7C331.3,456.3,331.1,456.8,331.1,457.5z"/>
		</g>
	</g>
	<g id="XMLID_73_">
		<g id="XMLID_346_">
			<g id="XMLID_1557_">
				<path id="XMLID_1682_" class="st8" d="M80,526h-3.3v-16.6H80V526z"/>
				<path id="XMLID_1680_" class="st8" d="M89.2,517.9c0-0.6-0.1-1.1-0.4-1.5c-0.3-0.4-0.7-0.5-1.3-0.5c-0.6,0-1,0.2-1.3,0.6
					c-0.3,0.4-0.5,0.9-0.5,1.5v8.1h-3.2v-12.8h3.2v1c0.1-0.1,0.2-0.2,0.3-0.3c0.1-0.1,0.3-0.2,0.5-0.4c0.2-0.1,0.5-0.2,0.8-0.3
					c0.3-0.1,0.7-0.1,1.1-0.1c0.8,0,1.4,0.1,1.9,0.4c0.5,0.2,0.9,0.6,1.2,1c0.3,0.4,0.5,0.9,0.7,1.4c0.1,0.5,0.2,1.1,0.2,1.8v8.5
					h-3.2V517.9z"/>
				<path id="XMLID_1677_" class="st8" d="M98,526c0,0.6-0.1,1.2-0.2,1.7c-0.1,0.5-0.4,1-0.7,1.3c-0.3,0.4-0.7,0.7-1.3,0.9
					s-1.2,0.3-1.9,0.3h-0.9v-2.8h0.6c0.3,0,0.5,0,0.7-0.1c0.2-0.1,0.3-0.2,0.4-0.3c0.1-0.1,0.1-0.3,0.2-0.5c0-0.2,0-0.4,0-0.6v-12.8
					H98V526z M96.4,512.3c-0.5,0-1-0.2-1.4-0.6c-0.4-0.4-0.6-0.8-0.6-1.3c0-0.5,0.2-1,0.6-1.4s0.8-0.6,1.4-0.6c0.5,0,1,0.2,1.4,0.6
					s0.6,0.8,0.6,1.4c0,0.5-0.2,1-0.6,1.3C97.4,512.1,96.9,512.3,96.4,512.3z"/>
				<path id="XMLID_1675_" class="st8" d="M103.5,521.2c0,0.6,0.1,1.1,0.4,1.5s0.7,0.6,1.3,0.6s1-0.2,1.3-0.6
					c0.3-0.4,0.5-0.9,0.5-1.5v-8h3.2V526H107v-1c-0.2,0.2-0.5,0.5-0.9,0.7c-0.4,0.3-1,0.4-1.8,0.4c-0.7,0-1.3-0.1-1.8-0.3
					c-0.5-0.2-0.9-0.5-1.2-0.9c-0.3-0.4-0.6-0.9-0.7-1.4c-0.1-0.6-0.2-1.2-0.2-1.8v-8.5h3.2V521.2z"/>
				<path id="XMLID_1673_" class="st8" d="M118.2,516.4h-0.8c-0.6,0-1.1,0.1-1.3,0.4c-0.2,0.3-0.4,0.7-0.4,1.3v7.8h-3.2v-12.8h3.2v1
					c0.2-0.3,0.5-0.6,0.9-0.8c0.4-0.2,0.9-0.3,1.6-0.3V516.4z"/>
				<path id="XMLID_1670_" class="st8" d="M121.6,512.3c-0.5,0-1-0.2-1.4-0.6c-0.4-0.4-0.6-0.8-0.6-1.3c0-0.5,0.2-1,0.6-1.4
					s0.8-0.6,1.4-0.6c0.5,0,1,0.2,1.4,0.6s0.6,0.8,0.6,1.4c0,0.5-0.2,1-0.6,1.3C122.6,512.1,122.2,512.3,121.6,512.3z M123.2,526
					H120v-12.8h3.2V526z"/>
				<path id="XMLID_1667_" class="st8" d="M128.5,520.6c0.1,0.8,0.4,1.5,1,2c0.6,0.5,1.3,0.7,2.2,0.7c0.8,0,1.5-0.2,2-0.5
					c0.5-0.4,0.9-0.8,1.3-1.3l2.4,1.4c-0.2,0.4-0.4,0.8-0.8,1.2c-0.3,0.4-0.7,0.8-1.2,1.1c-0.5,0.3-1,0.6-1.6,0.8s-1.3,0.3-2.1,0.3
					c-1,0-1.9-0.2-2.7-0.5c-0.8-0.3-1.5-0.7-2.1-1.3c-0.6-0.6-1-1.3-1.3-2.1c-0.3-0.8-0.5-1.7-0.5-2.8c0-1,0.2-1.8,0.5-2.7
					c0.3-0.8,0.7-1.5,1.3-2.1c0.6-0.6,1.2-1.1,2-1.4s1.6-0.5,2.6-0.5c1,0,1.8,0.2,2.6,0.5s1.4,0.7,2,1.3c0.5,0.6,1,1.2,1.3,2
					c0.3,0.8,0.4,1.7,0.4,2.6c0,0.2,0,0.4,0,0.6c0,0.2,0,0.5,0,0.7H128.5z M131.4,515.6c-0.8,0-1.5,0.2-2,0.7
					c-0.5,0.5-0.8,1.1-0.9,1.8h5.8c-0.1-0.7-0.4-1.3-0.9-1.8C133,515.9,132.3,515.6,131.4,515.6z"/>
				<path id="XMLID_1665_" class="st8" d="M142.2,516.5c0,0.6,0.4,1,1.1,1.2c0.3,0.1,0.6,0.2,0.9,0.2c0.3,0.1,0.6,0.1,0.9,0.2
					c0.5,0.2,1,0.3,1.3,0.6s0.7,0.5,1,0.8c0.3,0.3,0.4,0.7,0.6,1.1c0.1,0.4,0.2,0.9,0.2,1.5c0,0.7-0.1,1.2-0.4,1.7
					c-0.2,0.5-0.6,0.9-1,1.2c-0.4,0.3-0.9,0.6-1.5,0.8c-0.6,0.2-1.2,0.3-1.8,0.3c-0.9,0-1.6-0.1-2.2-0.4c-0.6-0.2-1.1-0.6-1.4-1
					c-0.4-0.4-0.6-0.9-0.7-1.4c-0.1-0.5-0.2-1.1-0.2-1.6h3.1c0,0.5,0.1,0.9,0.3,1.2s0.6,0.5,1.2,0.5c0.4,0,0.8-0.1,1.1-0.3
					c0.3-0.2,0.4-0.5,0.4-0.9c0-0.4-0.1-0.6-0.3-0.8s-0.5-0.4-1-0.5c-0.4-0.1-0.7-0.2-1-0.3s-0.6-0.2-1-0.3c-0.9-0.3-1.6-0.8-2-1.4
					c-0.4-0.6-0.7-1.4-0.7-2.4c0-0.5,0.1-1,0.3-1.5c0.2-0.5,0.5-0.9,0.9-1.2c0.4-0.3,0.9-0.6,1.4-0.8c0.5-0.2,1.1-0.3,1.8-0.3
					c1.4,0,2.4,0.3,3.2,1c0.8,0.7,1.1,1.7,1.2,3h-3c0-0.5-0.1-0.9-0.4-1.2c-0.2-0.3-0.6-0.4-1.1-0.4c-0.4,0-0.7,0.1-0.9,0.3
					S142.2,516.2,142.2,516.5z"/>
				<path id="XMLID_1663_" class="st8" d="M157.8,513.1h1.9v2.7h-1.9V526h-3.2v-10.1h-1.2v-2.7h1.2v-0.6c0-0.6,0.1-1.2,0.2-1.7
					c0.1-0.5,0.4-0.9,0.7-1.3c0.3-0.4,0.7-0.6,1.3-0.8c0.5-0.2,1.2-0.3,1.9-0.3c0.1,0,0.2,0,0.5,0c0.2,0,0.4,0,0.6,0v2.7h-0.6
					c-0.5,0-0.9,0.1-1.1,0.4c-0.2,0.3-0.2,0.6-0.2,1V513.1z"/>
				<path id="XMLID_1661_" class="st8" d="M167.2,516.4h-0.8c-0.6,0-1.1,0.1-1.3,0.4c-0.2,0.3-0.4,0.7-0.4,1.3v7.8h-3.2v-12.8h3.2v1
					c0.2-0.3,0.5-0.6,0.9-0.8c0.4-0.2,0.9-0.3,1.6-0.3V516.4z"/>
				<path id="XMLID_1658_" class="st8" d="M168,519.6c0-1,0.2-1.8,0.5-2.7c0.3-0.8,0.8-1.5,1.4-2.1c0.6-0.6,1.3-1.1,2.1-1.4
					s1.7-0.5,2.7-0.5c1,0,1.9,0.2,2.8,0.5s1.5,0.8,2.1,1.4c0.6,0.6,1,1.3,1.4,2.1c0.3,0.8,0.5,1.7,0.5,2.6s-0.2,1.8-0.5,2.6
					c-0.3,0.8-0.8,1.5-1.4,2.1c-0.6,0.6-1.3,1.1-2.1,1.4s-1.7,0.5-2.7,0.5c-1,0-1.9-0.2-2.7-0.5c-0.8-0.3-1.5-0.8-2.1-1.4
					c-0.6-0.6-1-1.3-1.4-2.1C168.2,521.4,168,520.5,168,519.6z M171.2,519.5c0,0.5,0.1,1,0.3,1.5s0.4,0.8,0.7,1.2
					c0.3,0.3,0.7,0.6,1.1,0.8c0.4,0.2,0.9,0.3,1.4,0.3c0.5,0,1-0.1,1.4-0.3c0.4-0.2,0.8-0.4,1.1-0.8s0.5-0.7,0.7-1.2
					c0.2-0.5,0.3-0.9,0.3-1.5s-0.1-1-0.3-1.5s-0.4-0.9-0.7-1.2c-0.3-0.3-0.7-0.6-1.1-0.8c-0.4-0.2-0.9-0.3-1.4-0.3
					c-0.5,0-1,0.1-1.4,0.3c-0.4,0.2-0.8,0.4-1.1,0.8c-0.3,0.3-0.5,0.7-0.7,1.2S171.2,519,171.2,519.5z"/>
				<path id="XMLID_1656_" class="st8" d="M193.2,526H190v-8.1c0-0.6-0.1-1.1-0.4-1.5c-0.3-0.4-0.7-0.6-1.3-0.6
					c-0.6,0-1,0.2-1.3,0.6c-0.3,0.4-0.4,0.9-0.4,1.5v8h-3.2v-12.8h3.2v1c0.2-0.2,0.5-0.4,0.9-0.7s1-0.4,1.9-0.4
					c0.8,0,1.4,0.1,1.9,0.4s0.9,0.6,1.2,1c0.3-0.3,0.7-0.7,1.2-0.9c0.5-0.3,1.2-0.4,2-0.4c0.8,0,1.5,0.1,2,0.4c0.6,0.2,1,0.6,1.3,1
					c0.3,0.4,0.6,0.9,0.7,1.4c0.2,0.5,0.2,1.1,0.2,1.8v8.5h-3.2v-8.1c0-0.6-0.1-1.1-0.4-1.5c-0.3-0.4-0.7-0.5-1.3-0.5
					s-1,0.2-1.3,0.6c-0.3,0.4-0.4,0.9-0.4,1.4V526z"/>
				<path id="XMLID_1654_" class="st8" d="M219.5,521.8l2.3-8.7h3.4l-3.7,12.8h-3.6l-2.5-8.2l-2.5,8.2h-3.6l-3.9-12.8h3.6l2.3,8.7
					l2.4-8.7h3.4L219.5,521.8z"/>
				<path id="XMLID_1651_" class="st8" d="M225.5,519.6c0-1,0.2-1.8,0.5-2.7c0.3-0.8,0.8-1.5,1.4-2.1c0.6-0.6,1.3-1.1,2.1-1.4
					s1.7-0.5,2.7-0.5c1,0,1.9,0.2,2.8,0.5s1.5,0.8,2.1,1.4c0.6,0.6,1,1.3,1.4,2.1c0.3,0.8,0.5,1.7,0.5,2.6s-0.2,1.8-0.5,2.6
					c-0.3,0.8-0.8,1.5-1.4,2.1c-0.6,0.6-1.3,1.1-2.1,1.4s-1.7,0.5-2.7,0.5c-1,0-1.9-0.2-2.7-0.5c-0.8-0.3-1.5-0.8-2.1-1.4
					c-0.6-0.6-1-1.3-1.4-2.1C225.7,521.4,225.5,520.5,225.5,519.6z M228.7,519.5c0,0.5,0.1,1,0.3,1.5s0.4,0.8,0.7,1.2
					c0.3,0.3,0.7,0.6,1.1,0.8c0.4,0.2,0.9,0.3,1.4,0.3c0.5,0,1-0.1,1.4-0.3c0.4-0.2,0.8-0.4,1.1-0.8s0.5-0.7,0.7-1.2
					c0.2-0.5,0.3-0.9,0.3-1.5s-0.1-1-0.3-1.5s-0.4-0.9-0.7-1.2c-0.3-0.3-0.7-0.6-1.1-0.8c-0.4-0.2-0.9-0.3-1.4-0.3
					c-0.5,0-1,0.1-1.4,0.3c-0.4,0.2-0.8,0.4-1.1,0.8c-0.3,0.3-0.5,0.7-0.7,1.2S228.7,519,228.7,519.5z"/>
				<path id="XMLID_1649_" class="st8" d="M246.5,516.4h-0.8c-0.6,0-1.1,0.1-1.3,0.4c-0.2,0.3-0.4,0.7-0.4,1.3v7.8h-3.2v-12.8h3.2v1
					c0.2-0.3,0.5-0.6,0.9-0.8s0.9-0.3,1.6-0.3V516.4z"/>
				<path id="XMLID_1647_" class="st8" d="M254.5,519l4.8,6.9h-3.9l-3.9-5.7v5.7h-3.2v-17.5h3.2v9.7l3.8-5h3.8L254.5,519z"/>
				<path id="XMLID_1644_" class="st8" d="M264.4,521.8c0-0.6,0.1-1.1,0.3-1.7c0.2-0.5,0.5-1,0.9-1.3c0.4-0.4,0.8-0.7,1.4-0.9
					c0.5-0.2,1.2-0.3,1.8-0.3c0.6,0,1.1,0.1,1.4,0.2c0.4,0.1,0.7,0.2,0.8,0.3v-0.6c0-0.6-0.1-1-0.4-1.4s-0.7-0.5-1.3-0.5
					c-0.3,0-0.6,0-0.8,0.1c-0.2,0.1-0.4,0.2-0.5,0.3c-0.1,0.1-0.2,0.3-0.3,0.5c0,0.2-0.1,0.4-0.1,0.5h-3c0-1.2,0.4-2.2,1.2-2.9
					c0.7-0.7,1.9-1.1,3.4-1.1c0.9,0,1.7,0.1,2.3,0.4c0.6,0.2,1.1,0.6,1.5,1c0.4,0.4,0.6,0.9,0.8,1.5c0.2,0.6,0.2,1.3,0.2,2v8.1h-2.7
					v-0.8c-0.2,0.2-0.5,0.4-0.9,0.6c-0.4,0.2-1,0.3-1.8,0.3c-0.6,0-1.2-0.1-1.8-0.3c-0.5-0.2-1-0.5-1.4-0.9
					c-0.4-0.4-0.7-0.8-0.9-1.4S264.4,522.4,264.4,521.8z M267.4,521.7c0,0.5,0.2,1,0.5,1.3c0.3,0.3,0.8,0.5,1.4,0.5
					c0.5,0,1-0.2,1.3-0.5c0.4-0.3,0.5-0.8,0.5-1.3s-0.2-1-0.5-1.3s-0.8-0.5-1.3-0.5c-0.6,0-1,0.2-1.3,0.5
					C267.6,520.8,267.4,521.2,267.4,521.7z"/>
				<path id="XMLID_1642_" class="st8" d="M283.3,517.9c0-0.6-0.1-1.1-0.4-1.5c-0.3-0.4-0.7-0.5-1.3-0.5c-0.6,0-1,0.2-1.3,0.6
					c-0.3,0.4-0.5,0.9-0.5,1.5v8.1h-3.2v-12.8h3.2v1c0.1-0.1,0.2-0.2,0.3-0.3c0.1-0.1,0.3-0.2,0.5-0.4c0.2-0.1,0.5-0.2,0.8-0.3
					c0.3-0.1,0.7-0.1,1.1-0.1c0.8,0,1.4,0.1,1.9,0.4c0.5,0.2,0.9,0.6,1.2,1c0.3,0.4,0.5,0.9,0.7,1.4c0.1,0.5,0.2,1.1,0.2,1.8v8.5
					h-3.2V517.9z"/>
				<path id="XMLID_1639_" class="st8" d="M298.7,524.7c-0.4,0.4-0.9,0.8-1.6,1.1s-1.4,0.4-2.2,0.4c-1,0-1.9-0.2-2.7-0.5
					c-0.8-0.3-1.5-0.8-2.1-1.4c-0.6-0.6-1-1.3-1.3-2.1c-0.3-0.8-0.5-1.7-0.5-2.7c0-0.9,0.2-1.8,0.5-2.6c0.3-0.8,0.8-1.5,1.3-2.1
					c0.6-0.6,1.3-1.1,2.1-1.4c0.8-0.3,1.7-0.5,2.6-0.5c0.8,0,1.5,0.1,2.2,0.3c0.6,0.2,1.1,0.5,1.5,0.9v-5.7h3.2V526h-3V524.7z
					 M291.5,519.5c0,0.5,0.1,1,0.3,1.5c0.2,0.5,0.4,0.8,0.7,1.2c0.3,0.3,0.7,0.6,1.1,0.8c0.4,0.2,0.9,0.3,1.4,0.3
					c0.5,0,1-0.1,1.5-0.3c0.4-0.2,0.8-0.5,1.1-0.8c0.3-0.3,0.5-0.7,0.7-1.2s0.3-1,0.3-1.5c0-0.5-0.1-1-0.3-1.5s-0.4-0.9-0.7-1.2
					s-0.7-0.6-1.1-0.8c-0.4-0.2-0.9-0.3-1.4-0.3c-0.5,0-1,0.1-1.5,0.3c-0.4,0.2-0.8,0.5-1.1,0.8c-0.3,0.3-0.6,0.7-0.7,1.2
					S291.5,519,291.5,519.5z"/>
				<path id="XMLID_1637_" class="st8" d="M312,513.1h2v2.7h-2v6c0,0.5,0.1,0.8,0.3,1c0.2,0.2,0.5,0.3,1,0.3h0.7v2.7
					c0,0-0.2,0-0.5,0.1c-0.3,0.1-0.7,0.1-1.3,0.1c-1.2,0-2.1-0.3-2.6-0.9c-0.5-0.6-0.8-1.4-0.8-2.5v-6.9h-1.2v-2.7h1.2v-2h3.2V513.1
					z"/>
				<path id="XMLID_1635_" class="st8" d="M321.6,516.4h-0.8c-0.6,0-1.1,0.1-1.3,0.4c-0.2,0.3-0.4,0.7-0.4,1.3v7.8h-3.2v-12.8h3.2v1
					c0.2-0.3,0.5-0.6,0.9-0.8s0.9-0.3,1.6-0.3V516.4z"/>
				<path id="XMLID_1632_" class="st8" d="M322.5,521.8c0-0.6,0.1-1.1,0.3-1.7c0.2-0.5,0.5-1,0.9-1.3c0.4-0.4,0.8-0.7,1.4-0.9
					c0.5-0.2,1.2-0.3,1.8-0.3c0.6,0,1.1,0.1,1.4,0.2c0.4,0.1,0.7,0.2,0.8,0.3v-0.6c0-0.6-0.1-1-0.4-1.4s-0.7-0.5-1.3-0.5
					c-0.3,0-0.6,0-0.8,0.1c-0.2,0.1-0.4,0.2-0.5,0.3c-0.1,0.1-0.2,0.3-0.3,0.5c0,0.2-0.1,0.4-0.1,0.5h-3c0-1.2,0.4-2.2,1.2-2.9
					c0.7-0.7,1.9-1.1,3.4-1.1c0.9,0,1.7,0.1,2.3,0.4c0.6,0.2,1.1,0.6,1.5,1c0.4,0.4,0.6,0.9,0.8,1.5c0.2,0.6,0.2,1.3,0.2,2v8.1h-2.7
					v-0.8c-0.2,0.2-0.5,0.4-0.9,0.6c-0.4,0.2-1,0.3-1.8,0.3c-0.6,0-1.2-0.1-1.8-0.3c-0.5-0.2-1-0.5-1.4-0.9
					c-0.4-0.4-0.7-0.8-0.9-1.4S322.5,522.4,322.5,521.8z M325.5,521.7c0,0.5,0.2,1,0.5,1.3c0.3,0.3,0.8,0.5,1.4,0.5
					c0.5,0,1-0.2,1.3-0.5c0.4-0.3,0.5-0.8,0.5-1.3s-0.2-1-0.5-1.3s-0.8-0.5-1.3-0.5c-0.6,0-1,0.2-1.3,0.5
					C325.7,520.8,325.5,521.2,325.5,521.7z"/>
				<path id="XMLID_1630_" class="st8" d="M338.3,513.1h2.8v-0.6c0-0.6,0.1-1.2,0.2-1.7c0.1-0.5,0.4-0.9,0.7-1.3s0.7-0.6,1.3-0.8
					s1.2-0.3,1.9-0.3c0.1,0,0.2,0,0.4,0s0.3,0,0.5,0v2.7h-0.4c-0.5,0-0.9,0.1-1.1,0.4s-0.2,0.6-0.2,1v0.5h1.7v2.7h-1.7V526h-3.2
					v-10.1h-2.8V526h-3.2v-10.1h-1.2v-2.7h1.2v-0.6c0-0.6,0.1-1.2,0.2-1.7c0.1-0.5,0.4-0.9,0.7-1.3c0.3-0.4,0.7-0.6,1.3-0.8
					c0.5-0.2,1.2-0.3,1.9-0.3c0.1,0,0.2,0,0.5,0c0.2,0,0.4,0,0.6,0v2.7h-0.6c-0.5,0-0.9,0.1-1.1,0.4c-0.2,0.3-0.2,0.6-0.2,1V513.1z"
					/>
				<path id="XMLID_1627_" class="st8" d="M349.4,512.3c-0.5,0-1-0.2-1.4-0.6c-0.4-0.4-0.6-0.8-0.6-1.3c0-0.5,0.2-1,0.6-1.4
					c0.4-0.4,0.8-0.6,1.4-0.6c0.5,0,1,0.2,1.4,0.6c0.4,0.4,0.6,0.8,0.6,1.4c0,0.5-0.2,1-0.6,1.3C350.4,512.1,350,512.3,349.4,512.3z
					 M351,526h-3.2v-12.8h3.2V526z"/>
				<path id="XMLID_1625_" class="st8" d="M359.6,523.3c0.7,0,1.2-0.1,1.6-0.3c0.4-0.2,0.8-0.5,1.1-0.7l1.8,2.2
					c-0.2,0.2-0.4,0.4-0.7,0.6c-0.3,0.2-0.6,0.4-1,0.6c-0.4,0.2-0.8,0.3-1.3,0.4c-0.5,0.1-1,0.2-1.5,0.2c-1,0-1.9-0.2-2.7-0.5
					s-1.5-0.8-2.1-1.4c-0.6-0.6-1-1.3-1.3-2.1c-0.3-0.8-0.5-1.7-0.5-2.6c0-0.9,0.2-1.8,0.5-2.6s0.8-1.5,1.4-2.1
					c0.6-0.6,1.3-1.1,2.1-1.4c0.8-0.3,1.7-0.5,2.7-0.5c0.6,0,1.1,0.1,1.6,0.2c0.5,0.1,0.9,0.2,1.3,0.4c0.4,0.2,0.7,0.4,1,0.6
					s0.5,0.4,0.7,0.6l-1.8,2.2c-0.3-0.3-0.6-0.5-1-0.7c-0.4-0.2-1-0.3-1.6-0.3c-0.5,0-1,0.1-1.4,0.3s-0.8,0.5-1.1,0.8
					c-0.3,0.3-0.5,0.7-0.7,1.2c-0.2,0.5-0.2,0.9-0.2,1.5c0,0.6,0.1,1.1,0.3,1.5s0.4,0.8,0.8,1.2s0.7,0.6,1.1,0.7
					C358.7,523.2,359.1,523.3,359.6,523.3z"/>
				<path id="XMLID_1622_" class="st8" d="M369.2,521.8c0-0.6,0.1-1.1,0.3-1.7c0.2-0.5,0.5-1,0.9-1.3s0.8-0.7,1.4-0.9
					c0.5-0.2,1.2-0.3,1.8-0.3c0.6,0,1.1,0.1,1.4,0.2c0.4,0.1,0.7,0.2,0.8,0.3v-0.6c0-0.6-0.1-1-0.4-1.4s-0.7-0.5-1.3-0.5
					c-0.3,0-0.6,0-0.8,0.1c-0.2,0.1-0.4,0.2-0.5,0.3c-0.1,0.1-0.2,0.3-0.3,0.5c0,0.2-0.1,0.4-0.1,0.5h-3c0-1.2,0.4-2.2,1.2-2.9
					c0.7-0.7,1.9-1.1,3.4-1.1c0.9,0,1.7,0.1,2.3,0.4c0.6,0.2,1.1,0.6,1.5,1c0.4,0.4,0.6,0.9,0.8,1.5c0.2,0.6,0.2,1.3,0.2,2v8.1h-2.7
					v-0.8c-0.2,0.2-0.5,0.4-0.9,0.6c-0.4,0.2-1,0.3-1.8,0.3c-0.6,0-1.2-0.1-1.8-0.3c-0.5-0.2-1-0.5-1.4-0.9
					c-0.4-0.4-0.7-0.8-0.9-1.4C369.3,523,369.2,522.4,369.2,521.8z M372.3,521.7c0,0.5,0.2,1,0.5,1.3c0.3,0.3,0.8,0.5,1.4,0.5
					c0.5,0,1-0.2,1.3-0.5c0.4-0.3,0.5-0.8,0.5-1.3s-0.2-1-0.5-1.3c-0.4-0.3-0.8-0.5-1.3-0.5c-0.6,0-1,0.2-1.3,0.5
					C372.4,520.8,372.3,521.2,372.3,521.7z"/>
				<path id="XMLID_1620_" class="st8" d="M387.6,523.3c0.7,0,1.2-0.1,1.6-0.3c0.4-0.2,0.8-0.5,1.1-0.7l1.8,2.2
					c-0.2,0.2-0.4,0.4-0.7,0.6c-0.3,0.2-0.6,0.4-1,0.6c-0.4,0.2-0.8,0.3-1.3,0.4c-0.5,0.1-1,0.2-1.5,0.2c-1,0-1.9-0.2-2.7-0.5
					c-0.8-0.3-1.5-0.8-2.1-1.4c-0.6-0.6-1-1.3-1.3-2.1c-0.3-0.8-0.5-1.7-0.5-2.6c0-0.9,0.2-1.8,0.5-2.6s0.8-1.5,1.4-2.1
					c0.6-0.6,1.3-1.1,2.1-1.4c0.8-0.3,1.7-0.5,2.7-0.5c0.6,0,1.1,0.1,1.6,0.2c0.5,0.1,0.9,0.2,1.3,0.4c0.4,0.2,0.7,0.4,1,0.6
					c0.3,0.2,0.5,0.4,0.7,0.6l-1.8,2.2c-0.3-0.3-0.6-0.5-1-0.7c-0.4-0.2-1-0.3-1.6-0.3c-0.5,0-1,0.1-1.4,0.3
					c-0.4,0.2-0.8,0.5-1.1,0.8c-0.3,0.3-0.5,0.7-0.7,1.2s-0.2,0.9-0.2,1.5c0,0.6,0.1,1.1,0.3,1.5c0.2,0.5,0.4,0.8,0.8,1.2
					s0.7,0.6,1.1,0.7S387.1,523.3,387.6,523.3z"/>
				<path id="XMLID_1618_" class="st8" d="M399.1,523.3c0.7,0,1.2-0.1,1.6-0.3c0.4-0.2,0.8-0.5,1.1-0.7l1.8,2.2
					c-0.2,0.2-0.4,0.4-0.7,0.6c-0.3,0.2-0.6,0.4-1,0.6c-0.4,0.2-0.8,0.3-1.3,0.4c-0.5,0.1-1,0.2-1.5,0.2c-1,0-1.9-0.2-2.7-0.5
					s-1.5-0.8-2.1-1.4c-0.6-0.6-1-1.3-1.3-2.1c-0.3-0.8-0.5-1.7-0.5-2.6c0-0.9,0.2-1.8,0.5-2.6s0.8-1.5,1.4-2.1
					c0.6-0.6,1.3-1.1,2.1-1.4c0.8-0.3,1.7-0.5,2.7-0.5c0.6,0,1.1,0.1,1.6,0.2c0.5,0.1,0.9,0.2,1.3,0.4c0.4,0.2,0.7,0.4,1,0.6
					s0.5,0.4,0.7,0.6l-1.8,2.2c-0.3-0.3-0.6-0.5-1-0.7c-0.4-0.2-1-0.3-1.6-0.3c-0.5,0-1,0.1-1.4,0.3s-0.8,0.5-1.1,0.8
					c-0.3,0.3-0.5,0.7-0.7,1.2c-0.2,0.5-0.2,0.9-0.2,1.5c0,0.6,0.1,1.1,0.3,1.5s0.4,0.8,0.8,1.2s0.7,0.6,1.1,0.7
					C398.2,523.2,398.6,523.3,399.1,523.3z"/>
				<path id="XMLID_1615_" class="st8" d="M406.7,512.3c-0.5,0-1-0.2-1.4-0.6c-0.4-0.4-0.6-0.8-0.6-1.3c0-0.5,0.2-1,0.6-1.4
					c0.4-0.4,0.8-0.6,1.4-0.6c0.5,0,1,0.2,1.4,0.6c0.4,0.4,0.6,0.8,0.6,1.4c0,0.5-0.2,1-0.6,1.3
					C407.7,512.1,407.2,512.3,406.7,512.3z M408.3,526h-3.2v-12.8h3.2V526z"/>
				<path id="XMLID_1612_" class="st8" d="M420.6,524.7c-0.4,0.4-0.9,0.8-1.6,1.1s-1.4,0.4-2.2,0.4c-1,0-1.9-0.2-2.7-0.5
					c-0.8-0.3-1.5-0.8-2.1-1.4c-0.6-0.6-1-1.3-1.3-2.1c-0.3-0.8-0.5-1.7-0.5-2.7c0-0.9,0.2-1.8,0.5-2.6c0.3-0.8,0.8-1.5,1.3-2.1
					c0.6-0.6,1.3-1.1,2.1-1.4c0.8-0.3,1.7-0.5,2.6-0.5c0.8,0,1.5,0.1,2.2,0.3c0.6,0.2,1.1,0.5,1.5,0.9v-5.7h3.2V526h-3V524.7z
					 M413.4,519.5c0,0.5,0.1,1,0.3,1.5c0.2,0.5,0.4,0.8,0.7,1.2c0.3,0.3,0.7,0.6,1.1,0.8c0.4,0.2,0.9,0.3,1.4,0.3
					c0.5,0,1-0.1,1.5-0.3c0.4-0.2,0.8-0.5,1.1-0.8c0.3-0.3,0.5-0.7,0.7-1.2s0.3-1,0.3-1.5c0-0.5-0.1-1-0.3-1.5s-0.4-0.9-0.7-1.2
					s-0.7-0.6-1.1-0.8c-0.4-0.2-0.9-0.3-1.4-0.3c-0.5,0-1,0.1-1.5,0.3c-0.4,0.2-0.8,0.5-1.1,0.8c-0.3,0.3-0.6,0.7-0.7,1.2
					S413.4,519,413.4,519.5z"/>
				<path id="XMLID_1609_" class="st8" d="M428.8,520.6c0.1,0.8,0.4,1.5,1,2c0.6,0.5,1.3,0.7,2.2,0.7c0.8,0,1.5-0.2,2-0.5
					c0.5-0.4,0.9-0.8,1.3-1.3l2.4,1.4c-0.2,0.4-0.4,0.8-0.8,1.2c-0.3,0.4-0.7,0.8-1.2,1.1c-0.5,0.3-1,0.6-1.6,0.8
					c-0.6,0.2-1.3,0.3-2.1,0.3c-1,0-1.9-0.2-2.7-0.5c-0.8-0.3-1.5-0.7-2.1-1.3c-0.6-0.6-1-1.3-1.3-2.1s-0.5-1.7-0.5-2.8
					c0-1,0.2-1.8,0.5-2.7s0.7-1.5,1.3-2.1c0.6-0.6,1.2-1.1,2-1.4c0.8-0.3,1.6-0.5,2.6-0.5c1,0,1.8,0.2,2.6,0.5
					c0.8,0.3,1.4,0.7,2,1.3c0.5,0.6,1,1.2,1.3,2c0.3,0.8,0.4,1.7,0.4,2.6c0,0.2,0,0.4,0,0.6c0,0.2,0,0.5,0,0.7H428.8z M431.7,515.6
					c-0.8,0-1.5,0.2-2,0.7c-0.5,0.5-0.8,1.1-0.9,1.8h5.8c-0.1-0.7-0.4-1.3-0.9-1.8C433.3,515.9,432.6,515.6,431.7,515.6z"/>
				<path id="XMLID_1607_" class="st8" d="M446.6,517.9c0-0.6-0.1-1.1-0.4-1.5c-0.3-0.4-0.7-0.5-1.3-0.5c-0.6,0-1,0.2-1.3,0.6
					c-0.3,0.4-0.5,0.9-0.5,1.5v8.1h-3.2v-12.8h3.2v1c0.1-0.1,0.2-0.2,0.3-0.3s0.3-0.2,0.5-0.4c0.2-0.1,0.5-0.2,0.8-0.3
					s0.7-0.1,1.1-0.1c0.8,0,1.4,0.1,1.9,0.4s0.9,0.6,1.2,1s0.5,0.9,0.7,1.4c0.1,0.5,0.2,1.1,0.2,1.8v8.5h-3.2V517.9z"/>
				<path id="XMLID_1605_" class="st8" d="M455.6,513.1h2v2.7h-2v6c0,0.5,0.1,0.8,0.3,1c0.2,0.2,0.5,0.3,1,0.3h0.7v2.7
					c0,0-0.2,0-0.5,0.1c-0.3,0.1-0.7,0.1-1.3,0.1c-1.2,0-2.1-0.3-2.6-0.9c-0.5-0.6-0.8-1.4-0.8-2.5v-6.9h-1.2v-2.7h1.2v-2h3.2V513.1
					z"/>
				<path id="XMLID_1603_" class="st8" d="M462.1,516.5c0,0.6,0.4,1,1.1,1.2c0.3,0.1,0.6,0.2,0.9,0.2c0.3,0.1,0.6,0.1,0.9,0.2
					c0.5,0.2,1,0.3,1.3,0.6c0.4,0.2,0.7,0.5,1,0.8c0.3,0.3,0.4,0.7,0.6,1.1c0.1,0.4,0.2,0.9,0.2,1.5c0,0.7-0.1,1.2-0.4,1.7
					c-0.2,0.5-0.6,0.9-1,1.2s-0.9,0.6-1.5,0.8c-0.6,0.2-1.2,0.3-1.8,0.3c-0.9,0-1.6-0.1-2.2-0.4c-0.6-0.2-1.1-0.6-1.4-1
					c-0.4-0.4-0.6-0.9-0.7-1.4c-0.1-0.5-0.2-1.1-0.2-1.6h3.1c0,0.5,0.1,0.9,0.3,1.2c0.2,0.3,0.6,0.5,1.2,0.5c0.4,0,0.8-0.1,1.1-0.3
					c0.3-0.2,0.4-0.5,0.4-0.9c0-0.4-0.1-0.6-0.3-0.8c-0.2-0.2-0.5-0.4-1-0.5c-0.4-0.1-0.7-0.2-1-0.3c-0.3-0.1-0.6-0.2-1-0.3
					c-0.9-0.3-1.6-0.8-2-1.4c-0.4-0.6-0.7-1.4-0.7-2.4c0-0.5,0.1-1,0.3-1.5c0.2-0.5,0.5-0.9,0.9-1.2c0.4-0.3,0.9-0.6,1.4-0.8
					c0.5-0.2,1.1-0.3,1.8-0.3c1.4,0,2.4,0.3,3.2,1c0.8,0.7,1.1,1.7,1.2,3h-3c0-0.5-0.1-0.9-0.4-1.2c-0.2-0.3-0.6-0.4-1.1-0.4
					c-0.4,0-0.7,0.1-0.9,0.3S462.1,516.2,462.1,516.5z"/>
				<path id="XMLID_1601_" class="st7" d="M80,562h-3.3v-16.6H80V562z"/>
				<path id="XMLID_1599_" class="st7" d="M89.2,553.9c0-0.6-0.1-1.1-0.4-1.5c-0.3-0.4-0.7-0.5-1.3-0.5c-0.6,0-1,0.2-1.3,0.6
					c-0.3,0.4-0.5,0.9-0.5,1.5v8.1h-3.2v-12.8h3.2v1c0.1-0.1,0.2-0.2,0.3-0.3c0.1-0.1,0.3-0.2,0.5-0.4c0.2-0.1,0.5-0.2,0.8-0.3
					c0.3-0.1,0.7-0.1,1.1-0.1c0.8,0,1.4,0.1,1.9,0.4c0.5,0.2,0.9,0.6,1.2,1c0.3,0.4,0.5,0.9,0.7,1.4c0.1,0.5,0.2,1.1,0.2,1.8v8.5
					h-3.2V553.9z"/>
				<path id="XMLID_1597_" class="st7" d="M101,559.3c0.7,0,1.2-0.1,1.6-0.3c0.4-0.2,0.8-0.5,1.1-0.7l1.8,2.2
					c-0.2,0.2-0.4,0.4-0.7,0.6s-0.6,0.4-1,0.6c-0.4,0.2-0.8,0.3-1.3,0.4c-0.5,0.1-1,0.2-1.5,0.2c-1,0-1.9-0.2-2.7-0.5
					c-0.8-0.3-1.5-0.8-2.1-1.4c-0.6-0.6-1-1.3-1.3-2.1c-0.3-0.8-0.5-1.7-0.5-2.6c0-0.9,0.2-1.8,0.5-2.6s0.8-1.5,1.4-2.1
					c0.6-0.6,1.3-1.1,2.1-1.4c0.8-0.3,1.7-0.5,2.7-0.5c0.6,0,1.1,0.1,1.6,0.2c0.5,0.1,0.9,0.2,1.3,0.4s0.7,0.4,1,0.6
					c0.3,0.2,0.5,0.4,0.7,0.6l-1.8,2.2c-0.3-0.3-0.6-0.5-1-0.7c-0.4-0.2-1-0.3-1.6-0.3c-0.5,0-1,0.1-1.4,0.3
					c-0.4,0.2-0.8,0.5-1.1,0.8s-0.5,0.7-0.7,1.2c-0.2,0.5-0.2,0.9-0.2,1.5c0,0.6,0.1,1.1,0.3,1.5c0.2,0.5,0.4,0.8,0.8,1.2
					s0.7,0.6,1.1,0.7C100.1,559.2,100.5,559.3,101,559.3z"/>
				<path id="XMLID_1595_" class="st7" d="M112.7,552.4h-0.8c-0.6,0-1.1,0.1-1.3,0.4c-0.2,0.3-0.4,0.7-0.4,1.3v7.8H107v-12.8h3.2v1
					c0.2-0.3,0.5-0.6,0.9-0.8c0.4-0.2,0.9-0.3,1.6-0.3V552.4z"/>
				<path id="XMLID_1592_" class="st7" d="M116.9,556.6c0.1,0.8,0.4,1.5,1,2c0.6,0.5,1.3,0.7,2.2,0.7c0.8,0,1.5-0.2,2-0.5
					c0.5-0.4,0.9-0.8,1.3-1.3l2.4,1.4c-0.2,0.4-0.4,0.8-0.8,1.2c-0.3,0.4-0.7,0.8-1.2,1.1c-0.5,0.3-1,0.6-1.6,0.8s-1.3,0.3-2.1,0.3
					c-1,0-1.9-0.2-2.7-0.5c-0.8-0.3-1.5-0.7-2.1-1.3c-0.6-0.6-1-1.3-1.3-2.1c-0.3-0.8-0.5-1.7-0.5-2.8c0-1,0.2-1.8,0.5-2.7
					c0.3-0.8,0.7-1.5,1.3-2.1c0.6-0.6,1.2-1.1,2-1.4s1.6-0.5,2.6-0.5c1,0,1.8,0.2,2.6,0.5s1.4,0.7,2,1.3c0.5,0.6,1,1.2,1.3,2
					c0.3,0.8,0.4,1.7,0.4,2.6c0,0.2,0,0.4,0,0.6c0,0.2,0,0.5,0,0.7H116.9z M119.8,551.6c-0.8,0-1.5,0.2-2,0.7
					c-0.5,0.5-0.8,1.1-0.9,1.8h5.8c-0.1-0.7-0.4-1.3-0.9-1.8C121.4,551.9,120.7,551.6,119.8,551.6z"/>
				<path id="XMLID_1589_" class="st7" d="M127.5,557.8c0-0.6,0.1-1.1,0.3-1.7s0.5-1,0.9-1.3c0.4-0.4,0.8-0.7,1.4-0.9
					c0.5-0.2,1.2-0.3,1.8-0.3c0.6,0,1.1,0.1,1.4,0.2s0.7,0.2,0.8,0.3v-0.6c0-0.6-0.1-1-0.4-1.4s-0.7-0.5-1.3-0.5
					c-0.3,0-0.6,0-0.8,0.1s-0.4,0.2-0.5,0.3c-0.1,0.1-0.2,0.3-0.3,0.5c0,0.2-0.1,0.4-0.1,0.5h-3c0-1.2,0.4-2.2,1.2-2.9
					c0.7-0.7,1.9-1.1,3.4-1.1c0.9,0,1.7,0.1,2.3,0.4s1.1,0.6,1.5,1c0.4,0.4,0.6,0.9,0.8,1.5c0.2,0.6,0.2,1.3,0.2,2v8.1h-2.7v-0.8
					c-0.2,0.2-0.5,0.4-0.9,0.6c-0.4,0.2-1,0.3-1.8,0.3c-0.6,0-1.2-0.1-1.8-0.3c-0.5-0.2-1-0.5-1.4-0.9c-0.4-0.4-0.7-0.8-0.9-1.4
					C127.6,559,127.5,558.4,127.5,557.8z M130.5,557.7c0,0.5,0.2,1,0.5,1.3c0.3,0.3,0.8,0.5,1.4,0.5c0.5,0,1-0.2,1.3-0.5
					c0.4-0.3,0.5-0.8,0.5-1.3s-0.2-1-0.5-1.3c-0.4-0.3-0.8-0.5-1.3-0.5c-0.6,0-1,0.2-1.3,0.5C130.7,556.8,130.5,557.2,130.5,557.7z"
					/>
				<path id="XMLID_1587_" class="st7" d="M142.5,552.5c0,0.6,0.4,1,1.1,1.2c0.3,0.1,0.6,0.2,0.9,0.2c0.3,0.1,0.6,0.1,0.9,0.2
					c0.5,0.2,1,0.3,1.3,0.6s0.7,0.5,1,0.8c0.3,0.3,0.4,0.7,0.6,1.1c0.1,0.4,0.2,0.9,0.2,1.5c0,0.7-0.1,1.2-0.4,1.7
					c-0.2,0.5-0.6,0.9-1,1.2c-0.4,0.3-0.9,0.6-1.5,0.8c-0.6,0.2-1.2,0.3-1.8,0.3c-0.9,0-1.6-0.1-2.2-0.4c-0.6-0.2-1.1-0.6-1.4-1
					c-0.4-0.4-0.6-0.9-0.7-1.4c-0.1-0.5-0.2-1.1-0.2-1.6h3.1c0,0.5,0.1,0.9,0.3,1.2s0.6,0.5,1.2,0.5c0.4,0,0.8-0.1,1.1-0.3
					c0.3-0.2,0.4-0.5,0.4-0.9c0-0.4-0.1-0.6-0.3-0.8s-0.5-0.4-1-0.5c-0.4-0.1-0.7-0.2-1-0.3s-0.6-0.2-1-0.3c-0.9-0.3-1.6-0.8-2-1.4
					c-0.4-0.6-0.7-1.4-0.7-2.4c0-0.5,0.1-1,0.3-1.5c0.2-0.5,0.5-0.9,0.9-1.2c0.4-0.3,0.9-0.6,1.4-0.8c0.5-0.2,1.1-0.3,1.8-0.3
					c1.4,0,2.4,0.3,3.2,1c0.8,0.7,1.1,1.7,1.2,3h-3c0-0.5-0.1-0.9-0.4-1.2c-0.2-0.3-0.6-0.4-1.1-0.4c-0.4,0-0.7,0.1-0.9,0.3
					S142.5,552.2,142.5,552.5z"/>
				<path id="XMLID_1584_" class="st7" d="M153.1,556.6c0.1,0.8,0.4,1.5,1,2c0.6,0.5,1.3,0.7,2.2,0.7c0.8,0,1.5-0.2,2-0.5
					c0.5-0.4,0.9-0.8,1.3-1.3l2.4,1.4c-0.2,0.4-0.4,0.8-0.8,1.2c-0.3,0.4-0.7,0.8-1.2,1.1c-0.5,0.3-1,0.6-1.6,0.8s-1.3,0.3-2.1,0.3
					c-1,0-1.9-0.2-2.7-0.5c-0.8-0.3-1.5-0.7-2.1-1.3c-0.6-0.6-1-1.3-1.3-2.1c-0.3-0.8-0.5-1.7-0.5-2.8c0-1,0.2-1.8,0.5-2.7
					c0.3-0.8,0.7-1.5,1.3-2.1c0.6-0.6,1.2-1.1,2-1.4s1.6-0.5,2.6-0.5c1,0,1.8,0.2,2.6,0.5s1.4,0.7,2,1.3c0.5,0.6,1,1.2,1.3,2
					c0.3,0.8,0.4,1.7,0.4,2.6c0,0.2,0,0.4,0,0.6c0,0.2,0,0.5,0,0.7H153.1z M156,551.6c-0.8,0-1.5,0.2-2,0.7
					c-0.5,0.5-0.8,1.1-0.9,1.8h5.8c-0.1-0.7-0.4-1.3-0.9-1.8C157.6,551.9,156.9,551.6,156,551.6z"/>
				<path id="XMLID_1581_" class="st7" d="M169.9,548.3c-0.5,0-1-0.2-1.4-0.6s-0.6-0.8-0.6-1.3c0-0.5,0.2-1,0.6-1.4s0.8-0.6,1.4-0.6
					c0.5,0,1,0.2,1.4,0.6s0.6,0.8,0.6,1.4c0,0.5-0.2,1-0.6,1.3S170.4,548.3,169.9,548.3z M171.5,562h-3.2v-12.8h3.2V562z"/>
				<path id="XMLID_1579_" class="st7" d="M180.6,553.9c0-0.6-0.1-1.1-0.4-1.5c-0.3-0.4-0.7-0.5-1.3-0.5c-0.6,0-1,0.2-1.3,0.6
					c-0.3,0.4-0.5,0.9-0.5,1.5v8.1h-3.2v-12.8h3.2v1c0.1-0.1,0.2-0.2,0.3-0.3c0.1-0.1,0.3-0.2,0.5-0.4c0.2-0.1,0.5-0.2,0.8-0.3
					c0.3-0.1,0.7-0.1,1.1-0.1c0.8,0,1.4,0.1,1.9,0.4c0.5,0.2,0.9,0.6,1.2,1c0.3,0.4,0.5,0.9,0.7,1.4c0.1,0.5,0.2,1.1,0.2,1.8v8.5
					h-3.2V553.9z"/>
				<path id="XMLID_1577_" class="st7" d="M200.1,562h-3.2v-8.1c0-0.6-0.1-1.1-0.4-1.5c-0.3-0.4-0.7-0.6-1.3-0.6
					c-0.6,0-1,0.2-1.3,0.6c-0.3,0.4-0.4,0.9-0.4,1.5v8h-3.2v-12.8h3.2v1c0.2-0.2,0.5-0.4,0.9-0.7s1-0.4,1.9-0.4
					c0.8,0,1.4,0.1,1.9,0.4s0.9,0.6,1.2,1c0.3-0.3,0.7-0.7,1.2-0.9c0.5-0.3,1.2-0.4,2-0.4c0.8,0,1.5,0.1,2,0.4c0.6,0.2,1,0.6,1.3,1
					c0.3,0.4,0.6,0.9,0.7,1.4c0.2,0.5,0.2,1.1,0.2,1.8v8.5h-3.2v-8.1c0-0.6-0.1-1.1-0.4-1.5c-0.3-0.4-0.7-0.5-1.3-0.5
					s-1,0.2-1.3,0.6c-0.3,0.4-0.4,0.9-0.4,1.4V562z"/>
				<path id="XMLID_1574_" class="st7" d="M208.6,555.6c0-1,0.2-1.8,0.5-2.7c0.3-0.8,0.8-1.5,1.4-2.1c0.6-0.6,1.3-1.1,2.1-1.4
					s1.7-0.5,2.7-0.5c1,0,1.9,0.2,2.8,0.5s1.5,0.8,2.1,1.4c0.6,0.6,1,1.3,1.4,2.1c0.3,0.8,0.5,1.7,0.5,2.6s-0.2,1.8-0.5,2.6
					c-0.3,0.8-0.8,1.5-1.4,2.1c-0.6,0.6-1.3,1.1-2.1,1.4s-1.7,0.5-2.7,0.5c-1,0-1.9-0.2-2.7-0.5c-0.8-0.3-1.5-0.8-2.1-1.4
					c-0.6-0.6-1-1.3-1.4-2.1C208.7,557.4,208.6,556.5,208.6,555.6z M211.8,555.6c0,0.5,0.1,1,0.3,1.5s0.4,0.8,0.7,1.2
					c0.3,0.3,0.7,0.6,1.1,0.8c0.4,0.2,0.9,0.3,1.4,0.3c0.5,0,1-0.1,1.4-0.3c0.4-0.2,0.8-0.4,1.1-0.8s0.5-0.7,0.7-1.2
					c0.2-0.5,0.3-0.9,0.3-1.5s-0.1-1-0.3-1.5s-0.4-0.9-0.7-1.2c-0.3-0.3-0.7-0.6-1.1-0.8c-0.4-0.2-0.9-0.3-1.4-0.3
					c-0.5,0-1,0.1-1.4,0.3c-0.4,0.2-0.8,0.4-1.1,0.8c-0.3,0.3-0.5,0.7-0.7,1.2S211.8,555,211.8,555.6z"/>
				<path id="XMLID_1572_" class="st7" d="M229.6,552.4h-0.8c-0.6,0-1.1,0.1-1.3,0.4c-0.2,0.3-0.4,0.7-0.4,1.3v7.8h-3.2v-12.8h3.2v1
					c0.2-0.3,0.5-0.6,0.9-0.8c0.4-0.2,0.9-0.3,1.6-0.3V552.4z"/>
				<path id="XMLID_1570_" class="st7" d="M235.3,549.1h2v2.7h-2v6c0,0.5,0.1,0.8,0.3,1c0.2,0.2,0.5,0.3,1,0.3h0.7v2.7
					c0,0-0.2,0-0.5,0.1s-0.7,0.1-1.3,0.1c-1.2,0-2.1-0.3-2.6-0.9c-0.5-0.6-0.8-1.4-0.8-2.5v-6.9h-1.2v-2.7h1.2v-2h3.2V549.1z"/>
				<path id="XMLID_1567_" class="st7" d="M238.5,557.8c0-0.6,0.1-1.1,0.3-1.7s0.5-1,0.9-1.3c0.4-0.4,0.8-0.7,1.4-0.9
					c0.5-0.2,1.2-0.3,1.8-0.3c0.6,0,1.1,0.1,1.4,0.2c0.4,0.1,0.7,0.2,0.8,0.3v-0.6c0-0.6-0.1-1-0.4-1.4s-0.7-0.5-1.3-0.5
					c-0.3,0-0.6,0-0.8,0.1s-0.4,0.2-0.5,0.3c-0.1,0.1-0.2,0.3-0.3,0.5c0,0.2-0.1,0.4-0.1,0.5h-3c0-1.2,0.4-2.2,1.2-2.9
					c0.7-0.7,1.9-1.1,3.4-1.1c0.9,0,1.7,0.1,2.3,0.4c0.6,0.2,1.1,0.6,1.5,1c0.4,0.4,0.6,0.9,0.8,1.5c0.2,0.6,0.2,1.3,0.2,2v8.1h-2.7
					v-0.8c-0.2,0.2-0.5,0.4-0.9,0.6c-0.4,0.2-1,0.3-1.8,0.3c-0.6,0-1.2-0.1-1.8-0.3c-0.5-0.2-1-0.5-1.4-0.9
					c-0.4-0.4-0.7-0.8-0.9-1.4C238.6,559,238.5,558.4,238.5,557.8z M241.5,557.7c0,0.5,0.2,1,0.5,1.3c0.3,0.3,0.8,0.5,1.4,0.5
					c0.5,0,1-0.2,1.3-0.5c0.4-0.3,0.5-0.8,0.5-1.3s-0.2-1-0.5-1.3s-0.8-0.5-1.3-0.5c-0.6,0-1,0.2-1.3,0.5
					C241.7,556.8,241.5,557.2,241.5,557.7z"/>
				<path id="XMLID_1565_" class="st7" d="M253.9,562h-3.2v-17.5h3.2V562z"/>
				<path id="XMLID_1562_" class="st7" d="M257.9,548.3c-0.5,0-1-0.2-1.4-0.6c-0.4-0.4-0.6-0.8-0.6-1.3c0-0.5,0.2-1,0.6-1.4
					c0.4-0.4,0.8-0.6,1.4-0.6c0.5,0,1,0.2,1.4,0.6c0.4,0.4,0.6,0.8,0.6,1.4c0,0.5-0.2,1-0.6,1.3
					C258.9,548.1,258.4,548.3,257.9,548.3z M259.5,562h-3.2v-12.8h3.2V562z"/>
				<path id="XMLID_1560_" class="st7" d="M265.6,549.1h2v2.7h-2v6c0,0.5,0.1,0.8,0.3,1c0.2,0.2,0.5,0.3,1,0.3h0.7v2.7
					c0,0-0.2,0-0.5,0.1c-0.3,0.1-0.7,0.1-1.3,0.1c-1.2,0-2.1-0.3-2.6-0.9c-0.5-0.6-0.8-1.4-0.8-2.5v-6.9h-1.2v-2.7h1.2v-2h3.2V549.1
					z"/>
				<path id="XMLID_1558_" class="st7" d="M271.8,566.2l1.7-4.7l-4.9-12.3h3.6l3,8l2.9-8h3.3l-6.5,17H271.8z"/>
			</g>
		</g>
		<circle id="XMLID_110_" class="st3" cx="64.2" cy="518.2" r="5.5"/>
		<g id="XMLID_97_">
			<circle id="XMLID_106_" class="st3" cx="64.2" cy="554.9" r="5.5"/>
		</g>
	</g>
</g>
<g id="AparellReproductor">
	<g id="XMLID_311_">
		<g id="XMLID_736_">
			<path id="XMLID_768_" class="st7" d="M93,346.9c0,0.8-0.1,1.4-0.4,2s-0.6,1.1-1,1.5c-0.4,0.4-1,0.8-1.6,1s-1.3,0.3-2.1,0.3H86
				v6.9h-3.3v-16.6h5.1c1.7,0,2.9,0.4,3.8,1.2C92.5,344.2,93,345.4,93,346.9z M86,345v3.9h1.6c0.6,0,1.1-0.2,1.4-0.5
				s0.5-0.8,0.5-1.4c0-0.6-0.2-1.1-0.5-1.4c-0.3-0.3-0.8-0.5-1.4-0.5H86z"/>
			<path id="XMLID_766_" class="st7" d="M101.1,349.2h-0.8c-0.6,0-1.1,0.1-1.3,0.4c-0.2,0.3-0.4,0.7-0.4,1.3v7.8h-3.2v-12.8h3.2v1
				c0.2-0.3,0.5-0.6,0.9-0.8c0.4-0.2,0.9-0.3,1.6-0.3V349.2z"/>
			<path id="XMLID_763_" class="st7" d="M106.1,353.4c0.1,0.8,0.4,1.5,1,2c0.6,0.5,1.3,0.7,2.2,0.7c0.8,0,1.5-0.2,2-0.5
				c0.5-0.4,0.9-0.8,1.3-1.3l2.4,1.4c-0.2,0.4-0.4,0.8-0.8,1.2c-0.3,0.4-0.7,0.8-1.2,1.1c-0.5,0.3-1,0.6-1.6,0.8s-1.3,0.3-2.1,0.3
				c-1,0-1.9-0.2-2.7-0.5c-0.8-0.3-1.5-0.7-2.1-1.3c-0.6-0.6-1-1.3-1.3-2.1c-0.3-0.8-0.5-1.7-0.5-2.8c0-1,0.2-1.8,0.5-2.7
				c0.3-0.8,0.7-1.5,1.3-2.1c0.6-0.6,1.2-1.1,2-1.4s1.6-0.5,2.6-0.5c1,0,1.8,0.2,2.6,0.5s1.4,0.7,2,1.3c0.5,0.6,1,1.2,1.3,2
				c0.3,0.8,0.4,1.7,0.4,2.6c0,0.2,0,0.4,0,0.6c0,0.2,0,0.5,0,0.7H106.1z M109,348.4c-0.8,0-1.5,0.2-2,0.7c-0.5,0.5-0.8,1.1-0.9,1.8
				h5.8c-0.1-0.7-0.4-1.3-0.9-1.8C110.6,348.6,109.9,348.4,109,348.4z"/>
			<path id="XMLID_761_" class="st7" d="M127.7,358.7h-3.2v-8.1c0-0.6-0.1-1.1-0.4-1.5c-0.3-0.4-0.7-0.6-1.3-0.6
				c-0.6,0-1,0.2-1.3,0.6c-0.3,0.4-0.4,0.9-0.4,1.5v8h-3.2v-12.8h3.2v1c0.2-0.2,0.5-0.4,0.9-0.7s1-0.4,1.9-0.4
				c0.8,0,1.4,0.1,1.9,0.4s0.9,0.6,1.2,1c0.3-0.3,0.7-0.7,1.2-0.9c0.5-0.3,1.2-0.4,2-0.4c0.8,0,1.5,0.1,2,0.4c0.6,0.2,1,0.6,1.3,1
				c0.3,0.4,0.6,0.9,0.7,1.4c0.2,0.5,0.2,1.1,0.2,1.8v8.5h-3.2v-8.1c0-0.6-0.1-1.1-0.4-1.5c-0.3-0.4-0.7-0.5-1.3-0.5s-1,0.2-1.3,0.6
				c-0.3,0.4-0.4,0.9-0.4,1.4V358.7z"/>
			<path id="XMLID_758_" class="st7" d="M137,354.5c0-0.6,0.1-1.1,0.3-1.7s0.5-1,0.9-1.3c0.4-0.4,0.8-0.7,1.4-0.9
				c0.5-0.2,1.2-0.3,1.8-0.3c0.6,0,1.1,0.1,1.4,0.2s0.7,0.2,0.8,0.3v-0.6c0-0.6-0.1-1-0.4-1.4s-0.7-0.5-1.3-0.5
				c-0.3,0-0.6,0-0.8,0.1s-0.4,0.2-0.5,0.3c-0.1,0.1-0.2,0.3-0.3,0.5c0,0.2-0.1,0.4-0.1,0.5h-3c0-1.2,0.4-2.2,1.2-2.9
				c0.7-0.7,1.9-1.1,3.4-1.1c0.9,0,1.7,0.1,2.3,0.4s1.1,0.6,1.5,1c0.4,0.4,0.6,0.9,0.8,1.5c0.2,0.6,0.2,1.3,0.2,2v8.1h-2.7v-0.8
				c-0.2,0.2-0.5,0.4-0.9,0.6c-0.4,0.2-1,0.3-1.8,0.3c-0.6,0-1.2-0.1-1.8-0.3c-0.5-0.2-1-0.5-1.4-0.9c-0.4-0.4-0.7-0.8-0.9-1.4
				C137.1,355.8,137,355.2,137,354.5z M140.1,354.5c0,0.5,0.2,1,0.5,1.3c0.3,0.3,0.8,0.5,1.4,0.5c0.5,0,1-0.2,1.3-0.5
				c0.4-0.3,0.5-0.8,0.5-1.3s-0.2-1-0.5-1.3c-0.4-0.3-0.8-0.5-1.3-0.5c-0.6,0-1,0.2-1.3,0.5C140.2,353.6,140.1,354,140.1,354.5z"/>
			<path id="XMLID_756_" class="st7" d="M153.5,345.9h2v2.7h-2v6c0,0.5,0.1,0.8,0.3,1c0.2,0.2,0.5,0.3,1,0.3h0.7v2.7
				c0,0-0.2,0-0.5,0.1s-0.7,0.1-1.3,0.1c-1.2,0-2.1-0.3-2.6-0.9c-0.5-0.6-0.8-1.4-0.8-2.5v-6.9h-1.2v-2.7h1.2v-2h3.2V345.9z"/>
			<path id="XMLID_754_" class="st7" d="M161.2,353.9c0,0.6,0.1,1.1,0.4,1.5s0.7,0.6,1.3,0.6s1-0.2,1.3-0.6c0.3-0.4,0.5-0.9,0.5-1.5
				v-8h3.2v12.8h-3.2v-1c-0.2,0.2-0.5,0.5-0.9,0.7c-0.4,0.3-1,0.4-1.8,0.4c-0.7,0-1.3-0.1-1.8-0.3c-0.5-0.2-0.9-0.5-1.2-0.9
				c-0.3-0.4-0.6-0.9-0.7-1.4c-0.1-0.6-0.2-1.2-0.2-1.8v-8.5h3.2V353.9z"/>
			<path id="XMLID_752_" class="st7" d="M176.6,349.2h-0.8c-0.6,0-1.1,0.1-1.3,0.4c-0.2,0.3-0.4,0.7-0.4,1.3v7.8h-3.2v-12.8h3.2v1
				c0.2-0.3,0.5-0.6,0.9-0.8c0.4-0.2,0.9-0.3,1.6-0.3V349.2z"/>
			<path id="XMLID_749_" class="st7" d="M181.6,353.4c0.1,0.8,0.4,1.5,1,2c0.6,0.5,1.3,0.7,2.2,0.7c0.8,0,1.5-0.2,2-0.5
				c0.5-0.4,0.9-0.8,1.3-1.3l2.4,1.4c-0.2,0.4-0.4,0.8-0.8,1.2c-0.3,0.4-0.7,0.8-1.2,1.1c-0.5,0.3-1,0.6-1.6,0.8s-1.3,0.3-2.1,0.3
				c-1,0-1.9-0.2-2.7-0.5c-0.8-0.3-1.5-0.7-2.1-1.3c-0.6-0.6-1-1.3-1.3-2.1c-0.3-0.8-0.5-1.7-0.5-2.8c0-1,0.2-1.8,0.5-2.7
				c0.3-0.8,0.7-1.5,1.3-2.1c0.6-0.6,1.2-1.1,2-1.4s1.6-0.5,2.6-0.5c1,0,1.8,0.2,2.6,0.5s1.4,0.7,2,1.3c0.5,0.6,1,1.2,1.3,2
				c0.3,0.8,0.4,1.7,0.4,2.6c0,0.2,0,0.4,0,0.6c0,0.2,0,0.5,0,0.7H181.6z M184.5,348.4c-0.8,0-1.5,0.2-2,0.7
				c-0.5,0.5-0.8,1.1-0.9,1.8h5.8c-0.1-0.7-0.4-1.3-0.9-1.8C186.1,348.6,185.4,348.4,184.5,348.4z"/>
			<path id="XMLID_746_" class="st7" d="M201.3,358.7h-3v-17.5h3.2v6c0.4-0.4,0.9-0.7,1.5-1c0.7-0.3,1.4-0.5,2.3-0.5
				c1,0,1.8,0.2,2.6,0.5c0.8,0.3,1.5,0.8,2,1.3c0.6,0.6,1,1.3,1.3,2.1c0.3,0.8,0.5,1.7,0.5,2.7c0,0.9-0.2,1.8-0.5,2.6
				c-0.3,0.8-0.8,1.5-1.3,2.1c-0.6,0.6-1.3,1.1-2.1,1.4c-0.8,0.3-1.7,0.5-2.7,0.5c-0.8,0-1.6-0.1-2.2-0.4c-0.7-0.3-1.2-0.6-1.5-1
				V358.7z M201.3,352.3c0,0.6,0.1,1.1,0.3,1.5c0.2,0.5,0.4,0.8,0.7,1.2c0.3,0.3,0.7,0.6,1.1,0.8s0.9,0.3,1.5,0.3
				c0.5,0,1-0.1,1.5-0.3s0.8-0.4,1.1-0.8s0.5-0.7,0.7-1.2c0.2-0.5,0.2-1,0.2-1.5c0-0.5-0.1-1-0.3-1.5s-0.4-0.9-0.7-1.2
				c-0.3-0.3-0.7-0.6-1.1-0.8c-0.4-0.2-0.9-0.3-1.5-0.3c-0.5,0-1,0.1-1.5,0.3s-0.8,0.4-1.1,0.8c-0.3,0.3-0.5,0.7-0.7,1.2
				S201.3,351.8,201.3,352.3z"/>
			<path id="XMLID_743_" class="st7" d="M215.9,345.1c-0.5,0-1-0.2-1.4-0.6s-0.6-0.8-0.6-1.3c0-0.5,0.2-1,0.6-1.4s0.8-0.6,1.4-0.6
				c0.5,0,1,0.2,1.4,0.6s0.6,0.8,0.6,1.4c0,0.5-0.2,1-0.6,1.3S216.4,345.1,215.9,345.1z M217.5,358.7h-3.2v-12.8h3.2V358.7z"/>
			<path id="XMLID_741_" class="st7" d="M226.3,349.2h-0.8c-0.6,0-1.1,0.1-1.3,0.4c-0.2,0.3-0.4,0.7-0.4,1.3v7.8h-3.2v-12.8h3.2v1
				c0.2-0.3,0.5-0.6,0.9-0.8c0.4-0.2,0.9-0.3,1.6-0.3V349.2z"/>
			<path id="XMLID_739_" class="st7" d="M232.7,345.9h2v2.7h-2v6c0,0.5,0.1,0.8,0.3,1c0.2,0.2,0.5,0.3,1,0.3h0.7v2.7
				c0,0-0.2,0-0.5,0.1s-0.7,0.1-1.3,0.1c-1.2,0-2.1-0.3-2.6-0.9c-0.5-0.6-0.8-1.4-0.8-2.5v-6.9h-1.2v-2.7h1.2v-2h3.2V345.9z"/>
			<path id="XMLID_737_" class="st7" d="M244.1,350.7c0-0.6-0.1-1.1-0.4-1.5c-0.3-0.4-0.7-0.5-1.3-0.5c-0.6,0-1,0.2-1.3,0.6
				c-0.3,0.4-0.5,0.9-0.5,1.5v8.1h-3.2v-17.5h3.2v5.7c0.1-0.1,0.2-0.2,0.3-0.3c0.1-0.1,0.3-0.2,0.6-0.4c0.2-0.1,0.5-0.2,0.8-0.3
				s0.6-0.1,1-0.1c0.8,0,1.4,0.1,1.9,0.4c0.5,0.2,0.9,0.6,1.2,1c0.3,0.4,0.5,0.9,0.7,1.4c0.1,0.5,0.2,1.1,0.2,1.8v8.5h-3.2V350.7z"
				/>
		</g>
	</g>
	<g id="XMLID_251_">
		<g id="XMLID_911_">
			<path id="XMLID_969_" class="st7" d="M91.4,253.4c0,1.3-0.3,2.5-0.8,3.4c-0.6,1-1.3,1.7-2.3,2.2l5.4,10.7h-4.9l-4.9-9.8h-2v9.8
				h-4.6v-22.8h7.1c2.3,0,4,0.6,5.2,1.7S91.4,251.3,91.4,253.4z M81.9,250.8v5.3H84c0.8,0,1.5-0.2,1.9-0.7c0.5-0.5,0.7-1.1,0.7-2
				c0-0.8-0.2-1.4-0.7-1.9s-1.1-0.7-1.9-0.7H81.9z"/>
			<path id="XMLID_967_" class="st7" d="M95.4,269.7v-22.8h10.5v4.3H100v4.8h5.7v4.3H100v5.2h6v4.3H95.4z"/>
			<path id="XMLID_964_" class="st7" d="M123.2,253.4c0,1-0.2,2-0.5,2.8s-0.8,1.5-1.4,2.1c-0.6,0.6-1.4,1-2.2,1.3
				c-0.9,0.3-1.8,0.5-2.9,0.5h-2.5v9.5h-4.6v-22.8h7.1c2.3,0,4,0.6,5.2,1.7S123.2,251.3,123.2,253.4z M113.7,250.8v5.3h2.1
				c0.8,0,1.5-0.2,1.9-0.7c0.5-0.5,0.7-1.1,0.7-2c0-0.8-0.2-1.4-0.7-1.9s-1.1-0.7-1.9-0.7H113.7z"/>
			<path id="XMLID_961_" class="st7" d="M139.9,253.4c0,1.3-0.3,2.5-0.8,3.4c-0.6,1-1.3,1.7-2.3,2.2l5.4,10.7h-4.9l-4.9-9.8h-2v9.8
				h-4.6v-22.8h7.1c2.3,0,4,0.6,5.2,1.7S139.9,251.3,139.9,253.4z M130.4,250.8v5.3h2.1c0.8,0,1.5-0.2,1.9-0.7
				c0.5-0.5,0.7-1.1,0.7-2c0-0.8-0.2-1.4-0.7-1.9s-1.1-0.7-1.9-0.7H130.4z"/>
			<path id="XMLID_958_" class="st7" d="M142.2,258.3c0-1.7,0.3-3.2,0.9-4.7c0.6-1.5,1.4-2.7,2.4-3.8c1-1.1,2.3-1.9,3.7-2.5
				s3-0.9,4.8-0.9c1.8,0,3.4,0.3,4.9,0.9s2.7,1.4,3.8,2.5c1,1.1,1.8,2.3,2.4,3.7c0.6,1.4,0.9,3,0.9,4.7c0,1.7-0.3,3.2-0.8,4.7
				c-0.6,1.5-1.4,2.7-2.4,3.8s-2.3,1.9-3.8,2.5c-1.5,0.6-3.1,0.9-4.9,0.9c-1.8,0-3.5-0.3-4.9-0.9c-1.5-0.6-2.7-1.4-3.7-2.5
				c-1-1.1-1.8-2.3-2.4-3.7C142.5,261.6,142.2,260,142.2,258.3z M147,258.3c0,1.1,0.2,2.1,0.5,3s0.8,1.7,1.4,2.4
				c0.6,0.7,1.4,1.2,2.2,1.6c0.9,0.4,1.8,0.6,2.9,0.6c1.1,0,2.1-0.2,3-0.6c0.9-0.4,1.6-0.9,2.2-1.6c0.6-0.7,1.1-1.5,1.4-2.4
				c0.3-0.9,0.5-1.9,0.5-3c0-1.1-0.2-2.1-0.5-3c-0.3-0.9-0.8-1.7-1.4-2.4s-1.4-1.2-2.2-1.6c-0.9-0.4-1.9-0.6-2.9-0.6
				c-1.1,0-2.1,0.2-3,0.6c-0.9,0.4-1.6,0.9-2.2,1.6s-1.1,1.5-1.4,2.4C147.2,256.2,147,257.2,147,258.3z"/>
			<path id="XMLID_955_" class="st7" d="M173.5,246.9c1.9,0,3.5,0.3,5,0.8c1.5,0.5,2.7,1.3,3.8,2.2c1,1,1.8,2.2,2.4,3.6
				s0.8,3,0.8,4.8c0,1.8-0.3,3.3-0.8,4.8s-1.3,2.6-2.4,3.6s-2.3,1.8-3.8,2.3s-3.1,0.8-5,0.8h-4.6v-22.8H173.5z M173.5,265.7h0.3
				c2.2,0,3.9-0.6,5.1-1.9s1.9-3.1,1.9-5.6c0-2.4-0.6-4.3-1.8-5.5c-1.2-1.3-2.9-1.9-5.1-1.9h-0.3V265.7z"/>
			<path id="XMLID_953_" class="st7" d="M197.4,270.1c-1.6,0-2.9-0.2-4-0.7c-1.1-0.5-2.1-1.1-2.8-1.9c-0.7-0.8-1.3-1.8-1.7-2.9
				s-0.5-2.4-0.5-3.8v-13.9h4.6v13.9c0,1.5,0.4,2.7,1.1,3.6s1.9,1.4,3.4,1.4c1.5,0,2.6-0.5,3.4-1.4c0.7-0.9,1.1-2.2,1.1-3.7v-13.9
				h4.6v13.9c0,1.4-0.2,2.6-0.6,3.8c-0.4,1.1-1,2.1-1.8,3s-1.7,1.5-2.9,1.9C200.2,269.9,198.9,270.1,197.4,270.1z"/>
			<path id="XMLID_950_" class="st7" d="M228.8,267.1c-0.9,0.9-1.9,1.6-3.2,2.1c-1.3,0.6-2.7,0.9-4.4,0.9c-1.8,0-3.5-0.3-5-0.9
				c-1.5-0.6-2.7-1.4-3.8-2.5c-1-1.1-1.8-2.3-2.4-3.7c-0.6-1.4-0.8-3-0.8-4.7c0-1.7,0.3-3.2,0.9-4.7c0.6-1.5,1.4-2.7,2.4-3.8
				c1-1.1,2.3-1.9,3.7-2.5c1.5-0.6,3.1-0.9,4.9-0.9c1.7,0,3.1,0.2,4.3,0.7s2.3,1.1,3.3,1.9l-2.7,3.4c-0.5-0.5-1.2-0.9-2-1.2
				c-0.8-0.4-1.8-0.6-2.8-0.6c-1.1,0-2.1,0.2-3,0.6c-0.9,0.4-1.6,0.9-2.2,1.6c-0.6,0.7-1.1,1.5-1.4,2.4c-0.3,0.9-0.5,1.9-0.5,3
				c0,1.1,0.2,2.1,0.5,3s0.8,1.7,1.5,2.4c0.6,0.7,1.4,1.2,2.3,1.6c0.9,0.4,1.9,0.6,2.9,0.6c1.2,0,2.2-0.2,3-0.6
				c0.8-0.4,1.4-0.9,1.9-1.3L228.8,267.1z"/>
			<path id="XMLID_948_" class="st7" d="M239.2,251.1v18.5h-4.6v-18.5h-4.2v-4.3h12.9v4.3H239.2z"/>
			<path id="XMLID_946_" class="st7" d="M250.7,269.7h-4.6v-22.8h4.6V269.7z"/>
			<path id="XMLID_944_" class="st7" d="M252.7,246.9h5.1l6,17.1l6.1-17.1h4.9l-8.6,22.8h-5L252.7,246.9z"/>
			<path id="XMLID_942_" class="st7" d="M276.9,269.7v-22.8h10.5v4.3h-5.9v4.8h5.7v4.3h-5.7v5.2h6v4.3H276.9z"/>
			<path id="XMLID_940_" class="st7" d="M300.5,252.7c0,0.6,0.2,1.1,0.5,1.5c0.3,0.4,0.9,0.8,1.6,1.1c0.5,0.2,1.1,0.5,1.6,0.7
				c0.6,0.2,1.1,0.5,1.8,0.7c1.4,0.6,2.5,1.4,3.2,2.4c0.8,1,1.2,2.3,1.2,3.9c0,1.1-0.2,2.1-0.6,3c-0.4,0.9-0.9,1.6-1.6,2.2
				s-1.5,1.1-2.4,1.4c-0.9,0.3-1.9,0.5-3,0.5c-1.5,0-2.8-0.2-3.7-0.7c-1-0.5-1.7-1-2.3-1.7s-0.9-1.5-1.1-2.4
				c-0.2-0.9-0.3-1.8-0.2-2.7h4.4c0,0.5,0,0.9,0.1,1.3c0.1,0.4,0.3,0.8,0.5,1.1s0.5,0.6,0.9,0.8c0.4,0.2,0.8,0.3,1.4,0.3
				c0.8,0,1.5-0.2,2-0.7c0.5-0.4,0.8-1.1,0.8-2c0-0.8-0.2-1.4-0.7-1.8s-1-0.8-1.8-1.1c-0.6-0.3-1.3-0.6-2-0.8
				c-0.7-0.2-1.3-0.5-2-0.9c-1.1-0.6-2-1.4-2.5-2.4c-0.6-1-0.9-2.2-0.9-3.6c0-0.9,0.2-1.8,0.5-2.6s0.8-1.5,1.4-2
				c0.6-0.6,1.3-1,2.2-1.3c0.9-0.3,1.8-0.5,2.9-0.5c1.3,0,2.4,0.2,3.2,0.5c0.9,0.4,1.6,0.9,2.1,1.5s0.9,1.3,1.1,2.2
				c0.2,0.8,0.3,1.7,0.3,2.6h-4.2c0-0.8-0.2-1.5-0.7-2c-0.4-0.5-1.1-0.8-1.9-0.8c-0.8,0-1.4,0.2-1.8,0.7S300.5,252,300.5,252.7z"/>
			<path id="XMLID_938_" class="st7" d="M310.4,246.9h5.1l3.7,6.9l3.8-6.9h4.9l-6.5,11.4v11.5h-4.6v-11.4L310.4,246.9z"/>
			<path id="XMLID_936_" class="st7" d="M332.8,252.7c0,0.6,0.2,1.1,0.5,1.5c0.3,0.4,0.9,0.8,1.6,1.1c0.5,0.2,1.1,0.5,1.7,0.7
				c0.5,0.2,1.1,0.5,1.8,0.7c1.4,0.6,2.5,1.4,3.2,2.4c0.8,1,1.2,2.3,1.2,3.9c0,1.1-0.2,2.1-0.6,3c-0.4,0.9-0.9,1.6-1.6,2.2
				s-1.5,1.1-2.4,1.4s-1.9,0.5-3,0.5c-1.5,0-2.8-0.2-3.7-0.7c-1-0.5-1.7-1-2.3-1.7s-0.9-1.5-1.1-2.4c-0.2-0.9-0.3-1.8-0.2-2.7h4.4
				c0,0.5,0,0.9,0.1,1.3s0.3,0.8,0.5,1.1c0.2,0.3,0.5,0.6,0.9,0.8c0.4,0.2,0.8,0.3,1.4,0.3c0.8,0,1.5-0.2,2-0.7s0.8-1.1,0.8-2
				c0-0.8-0.2-1.4-0.7-1.8c-0.4-0.4-1-0.8-1.8-1.1c-0.6-0.3-1.3-0.6-2-0.8c-0.7-0.2-1.3-0.5-2-0.9c-1.1-0.6-2-1.4-2.5-2.4
				c-0.6-1-0.9-2.2-0.9-3.6c0-0.9,0.2-1.8,0.5-2.6s0.8-1.5,1.4-2c0.6-0.6,1.3-1,2.2-1.3c0.9-0.3,1.8-0.5,2.9-0.5
				c1.3,0,2.4,0.2,3.3,0.5c0.9,0.4,1.6,0.9,2.1,1.5s0.9,1.3,1.1,2.2c0.2,0.8,0.3,1.7,0.3,2.6h-4.2c0-0.8-0.2-1.5-0.7-2
				c-0.4-0.5-1.1-0.8-1.9-0.8c-0.8,0-1.4,0.2-1.8,0.7C333,251.5,332.8,252,332.8,252.7z"/>
			<path id="XMLID_934_" class="st7" d="M352.7,251.1v18.5h-4.6v-18.5h-4.2v-4.3h12.9v4.3H352.7z"/>
			<path id="XMLID_932_" class="st7" d="M359.6,269.7v-22.8H370v4.3h-5.9v4.8h5.7v4.3h-5.7v5.2h6v4.3H359.6z"/>
			<path id="XMLID_930_" class="st7" d="M388.2,269.7h-4.4l-6.3-17.1v17.1h-4.2v-22.8h6.8l6,16.9l6-16.9h6.7v22.8h-4.4v-17.1
				L388.2,269.7z"/>
			<path id="XMLID_927_" class="st7" d="M90.3,300.9h-7.8l-2.2,6.3h-4.5l8.3-22.8h4.8l8.6,22.8h-4.9L90.3,300.9z M83.9,297h5
				l-2.5-6.9L83.9,297z"/>
			<path id="XMLID_925_" class="st7" d="M103.9,292.2v15.1h-4.5v-22.8h4.8l9.8,15.3v-15.3h4.5v22.8h-4.6L103.9,292.2z"/>
			<path id="XMLID_922_" class="st7" d="M126.9,284.4c1.9,0,3.5,0.3,5,0.8c1.5,0.5,2.7,1.3,3.8,2.2c1,1,1.8,2.2,2.4,3.6
				s0.8,3,0.8,4.8c0,1.8-0.3,3.3-0.8,4.8s-1.3,2.6-2.4,3.6s-2.3,1.8-3.8,2.3s-3.1,0.8-5,0.8h-4.6v-22.8H126.9z M126.9,303.2h0.3
				c2.2,0,3.9-0.6,5.1-1.9s1.9-3.1,1.9-5.6c0-2.4-0.6-4.3-1.8-5.5c-1.2-1.3-2.9-1.9-5.1-1.9h-0.3V303.2z"/>
			<path id="XMLID_920_" class="st7" d="M152,297.7v9.5h-4.6v-22.8H158v4.3h-6v4.8h5.8v4.3H152z"/>
			<path id="XMLID_918_" class="st7" d="M161.2,307.2v-22.8h10.5v4.3h-5.9v4.8h5.7v4.3h-5.7v5.2h6v4.3H161.2z"/>
			<path id="XMLID_916_" class="st7" d="M182.8,288.7v18.5h-4.6v-18.5H174v-4.3h12.9v4.3H182.8z"/>
			<path id="XMLID_914_" class="st7" d="M198.6,307.6c-1.6,0-2.9-0.2-4-0.7c-1.1-0.5-2.1-1.1-2.8-1.9c-0.7-0.8-1.3-1.8-1.7-2.9
				s-0.5-2.4-0.5-3.8v-13.9h4.6v13.9c0,1.5,0.4,2.7,1.1,3.6s1.9,1.4,3.4,1.4c1.5,0,2.6-0.5,3.4-1.4c0.7-0.9,1.1-2.2,1.1-3.7v-13.9
				h4.6v13.9c0,1.4-0.2,2.6-0.6,3.8c-0.4,1.1-1,2.1-1.8,3s-1.7,1.5-2.9,1.9C201.4,307.4,200.1,307.6,198.6,307.6z"/>
			<path id="XMLID_912_" class="st7" d="M215.3,290.2c0,0.6,0.2,1.1,0.5,1.5c0.3,0.4,0.9,0.8,1.6,1.1c0.5,0.2,1.1,0.5,1.6,0.7
				s1.1,0.5,1.8,0.7c1.4,0.6,2.5,1.4,3.2,2.4c0.8,1,1.2,2.3,1.2,3.9c0,1.1-0.2,2.1-0.6,3s-0.9,1.6-1.6,2.2s-1.5,1.1-2.4,1.4
				c-0.9,0.3-1.9,0.5-3,0.5c-1.5,0-2.8-0.2-3.7-0.7c-1-0.5-1.7-1-2.3-1.7s-0.9-1.5-1.1-2.4c-0.2-0.9-0.3-1.8-0.2-2.7h4.4
				c0,0.5,0,0.9,0.1,1.3c0.1,0.4,0.3,0.8,0.5,1.1c0.2,0.3,0.5,0.6,0.9,0.8s0.8,0.3,1.4,0.3c0.8,0,1.5-0.2,2-0.7
				c0.5-0.4,0.8-1.1,0.8-2c0-0.8-0.2-1.4-0.7-1.8c-0.4-0.4-1-0.8-1.8-1.1c-0.6-0.3-1.3-0.6-2-0.8c-0.7-0.2-1.3-0.5-2-0.9
				c-1.1-0.6-2-1.4-2.5-2.4c-0.6-1-0.9-2.2-0.9-3.6c0-0.9,0.2-1.8,0.5-2.6s0.8-1.5,1.4-2c0.6-0.6,1.3-1,2.2-1.3
				c0.9-0.3,1.8-0.5,2.9-0.5c1.3,0,2.4,0.2,3.3,0.5s1.6,0.9,2.1,1.5s0.9,1.3,1.1,2.2s0.3,1.7,0.3,2.6h-4.2c0-0.8-0.2-1.5-0.7-2
				s-1.1-0.8-1.9-0.8c-0.8,0-1.4,0.2-1.8,0.7C215.5,289,215.3,289.5,215.3,290.2z"/>
		</g>
	</g>
	<circle id="XMLID_31_" class="st3" cx="64.3" cy="351.1" r="5.5"/>
</g>
<g id="Cap">
	<g id="XMLID_240_">
		<g id="XMLID_556_">
			<path id="XMLID_565_" class="st7" d="M94.2,82h-4.6v-9.6h-9.1V82h-4.6V59.2h4.6v8.9h9.1v-8.9h4.6V82z"/>
			<path id="XMLID_563_" class="st7" d="M99.1,82V59.2h10.5v4.3h-5.9v4.8h5.7v4.3h-5.7v5.2h6V82H99.1z"/>
			<path id="XMLID_560_" class="st7" d="M127,75.8h-7.8l-2.2,6.3h-4.5l8.3-22.8h4.8l8.6,22.8h-4.9L127,75.8z M120.6,71.9h5L123,65
				L120.6,71.9z"/>
			<path id="XMLID_557_" class="st7" d="M141.8,59.2c1.9,0,3.5,0.3,5,0.8c1.5,0.5,2.7,1.3,3.8,2.2c1,1,1.8,2.2,2.4,3.6
				s0.8,3,0.8,4.8c0,1.8-0.3,3.3-0.8,4.8s-1.3,2.6-2.4,3.6s-2.3,1.8-3.8,2.3s-3.1,0.8-5,0.8h-4.6V59.2H141.8z M141.7,78h0.3
				c2.2,0,3.9-0.6,5.1-1.9s1.9-3.1,1.9-5.6c0-2.4-0.6-4.3-1.8-5.5c-1.2-1.3-2.9-1.9-5.1-1.9h-0.3V78z"/>
		</g>
	</g>
	<g id="XMLID_1_">
		<g id="XMLID_39_">
			<g id="XMLID_1032_">
				<path id="XMLID_1108_" class="st8" d="M85.7,121.7c0,1-0.2,1.8-0.6,2.5c-0.4,0.7-1,1.2-1.7,1.6l3.9,7.8h-3.6l-3.5-7.1h-1.4v7.1
					h-3.3v-16.6h5.1c1.7,0,2.9,0.4,3.8,1.2C85.3,118.9,85.7,120.1,85.7,121.7z M78.8,119.8v3.9h1.6c0.6,0,1.1-0.2,1.4-0.5
					s0.5-0.8,0.5-1.4c0-0.6-0.2-1.1-0.5-1.4c-0.3-0.3-0.8-0.5-1.4-0.5H78.8z"/>
				<path id="XMLID_1105_" class="st8" d="M91.5,128.1c0.1,0.8,0.4,1.5,1,2c0.6,0.5,1.3,0.7,2.2,0.7c0.8,0,1.5-0.2,2-0.5
					c0.5-0.4,0.9-0.8,1.3-1.3l2.4,1.4c-0.2,0.4-0.4,0.8-0.8,1.2c-0.3,0.4-0.7,0.8-1.2,1.1c-0.5,0.3-1,0.6-1.6,0.8s-1.3,0.3-2.1,0.3
					c-1,0-1.9-0.2-2.7-0.5c-0.8-0.3-1.5-0.7-2.1-1.3c-0.6-0.6-1-1.3-1.3-2.1c-0.3-0.8-0.5-1.7-0.5-2.8c0-1,0.2-1.8,0.5-2.7
					c0.3-0.8,0.7-1.5,1.3-2.1c0.6-0.6,1.2-1.1,2-1.4s1.6-0.5,2.6-0.5c1,0,1.8,0.2,2.6,0.5s1.4,0.7,2,1.3c0.5,0.6,1,1.2,1.3,2
					c0.3,0.8,0.4,1.7,0.4,2.6c0,0.2,0,0.4,0,0.6c0,0.2,0,0.5,0,0.7H91.5z M94.4,123.2c-0.8,0-1.5,0.2-2,0.7
					c-0.5,0.5-0.8,1.1-0.9,1.8h5.8c-0.1-0.7-0.4-1.3-0.9-1.8C96,123.4,95.3,123.2,94.4,123.2z"/>
				<path id="XMLID_1102_" class="st8" d="M113.2,132.2c-0.4,0.4-0.9,0.8-1.6,1.1s-1.4,0.4-2.2,0.4c-1,0-1.9-0.2-2.7-0.5
					c-0.8-0.3-1.5-0.8-2.1-1.4c-0.6-0.6-1-1.3-1.3-2.1c-0.3-0.8-0.5-1.7-0.5-2.7c0-0.9,0.2-1.8,0.5-2.6c0.3-0.8,0.8-1.5,1.3-2.1
					c0.6-0.6,1.3-1.1,2.1-1.4c0.8-0.3,1.7-0.5,2.6-0.5c0.8,0,1.5,0.1,2.2,0.3c0.6,0.2,1.1,0.5,1.5,0.9V116h3.2v17.5h-3V132.2z
					 M106,127.1c0,0.5,0.1,1,0.3,1.5c0.2,0.5,0.4,0.8,0.7,1.2c0.3,0.3,0.7,0.6,1.1,0.8c0.4,0.2,0.9,0.3,1.4,0.3c0.5,0,1-0.1,1.5-0.3
					c0.4-0.2,0.8-0.5,1.1-0.8c0.3-0.3,0.5-0.7,0.7-1.2s0.3-1,0.3-1.5c0-0.5-0.1-1-0.3-1.5s-0.4-0.9-0.7-1.2s-0.7-0.6-1.1-0.8
					c-0.4-0.2-0.9-0.3-1.4-0.3c-0.5,0-1,0.1-1.5,0.3c-0.4,0.2-0.8,0.5-1.1,0.8c-0.3,0.3-0.6,0.7-0.7,1.2S106,126.6,106,127.1z"/>
				<path id="XMLID_1100_" class="st8" d="M122.4,128.7c0,0.6,0.1,1.1,0.4,1.5s0.7,0.6,1.3,0.6s1-0.2,1.3-0.6
					c0.3-0.4,0.5-0.9,0.5-1.5v-8h3.2v12.8h-3.2v-1c-0.2,0.2-0.5,0.5-0.9,0.7c-0.4,0.3-1,0.4-1.8,0.4c-0.7,0-1.3-0.1-1.8-0.3
					c-0.5-0.2-0.9-0.5-1.2-0.9c-0.3-0.4-0.6-0.9-0.7-1.4c-0.1-0.6-0.2-1.2-0.2-1.8v-8.5h3.2V128.7z"/>
				<path id="XMLID_1098_" class="st8" d="M138.4,130.8c0.7,0,1.2-0.1,1.6-0.3c0.4-0.2,0.8-0.5,1.1-0.7l1.8,2.2
					c-0.2,0.2-0.4,0.4-0.7,0.6s-0.6,0.4-1,0.6c-0.4,0.2-0.8,0.3-1.3,0.4c-0.5,0.1-1,0.2-1.5,0.2c-1,0-1.9-0.2-2.7-0.5
					c-0.8-0.3-1.5-0.8-2.1-1.4c-0.6-0.6-1-1.3-1.3-2.1c-0.3-0.8-0.5-1.7-0.5-2.6c0-0.9,0.2-1.8,0.5-2.6s0.8-1.5,1.4-2.1
					c0.6-0.6,1.3-1.1,2.1-1.4c0.8-0.3,1.7-0.5,2.7-0.5c0.6,0,1.1,0.1,1.6,0.2c0.5,0.1,0.9,0.2,1.3,0.4s0.7,0.4,1,0.6
					c0.3,0.2,0.5,0.4,0.7,0.6l-1.8,2.2c-0.3-0.3-0.6-0.5-1-0.7c-0.4-0.2-1-0.3-1.6-0.3c-0.5,0-1,0.1-1.4,0.3
					c-0.4,0.2-0.8,0.5-1.1,0.8s-0.5,0.7-0.7,1.2c-0.2,0.5-0.2,0.9-0.2,1.5c0,0.6,0.1,1.1,0.3,1.5c0.2,0.5,0.4,0.8,0.8,1.2
					s0.7,0.6,1.1,0.7C137.5,130.7,137.9,130.8,138.4,130.8z"/>
				<path id="XMLID_1096_" class="st8" d="M149,120.7h2v2.7h-2v6c0,0.5,0.1,0.8,0.3,1c0.2,0.2,0.5,0.3,1,0.3h0.7v2.7
					c0,0-0.2,0-0.5,0.1s-0.7,0.1-1.3,0.1c-1.2,0-2.1-0.3-2.6-0.9c-0.5-0.6-0.8-1.4-0.8-2.5v-6.9h-1.2v-2.7h1.2v-2h3.2V120.7z"/>
				<path id="XMLID_1093_" class="st8" d="M155.3,119.9c-0.5,0-1-0.2-1.4-0.6s-0.6-0.8-0.6-1.3c0-0.5,0.2-1,0.6-1.4s0.8-0.6,1.4-0.6
					c0.5,0,1,0.2,1.4,0.6s0.6,0.8,0.6,1.4c0,0.5-0.2,1-0.6,1.3S155.8,119.9,155.3,119.9z M156.9,133.5h-3.2v-12.8h3.2V133.5z"/>
				<path id="XMLID_1090_" class="st8" d="M159.5,127.1c0-1,0.2-1.8,0.5-2.7c0.3-0.8,0.8-1.5,1.4-2.1c0.6-0.6,1.3-1.1,2.1-1.4
					s1.7-0.5,2.7-0.5c1,0,1.9,0.2,2.8,0.5s1.5,0.8,2.1,1.4c0.6,0.6,1,1.3,1.4,2.1c0.3,0.8,0.5,1.7,0.5,2.6s-0.2,1.8-0.5,2.6
					c-0.3,0.8-0.8,1.5-1.4,2.1c-0.6,0.6-1.3,1.1-2.1,1.4s-1.7,0.5-2.7,0.5c-1,0-1.9-0.2-2.7-0.5c-0.8-0.3-1.5-0.8-2.1-1.4
					c-0.6-0.6-1-1.3-1.4-2.1C159.7,129,159.5,128.1,159.5,127.1z M162.7,127.1c0,0.5,0.1,1,0.3,1.5s0.4,0.8,0.7,1.2
					c0.3,0.3,0.7,0.6,1.1,0.8c0.4,0.2,0.9,0.3,1.4,0.3c0.5,0,1-0.1,1.4-0.3c0.4-0.2,0.8-0.4,1.1-0.8s0.5-0.7,0.7-1.2
					c0.2-0.5,0.3-0.9,0.3-1.5s-0.1-1-0.3-1.5s-0.4-0.9-0.7-1.2c-0.3-0.3-0.7-0.6-1.1-0.8c-0.4-0.2-0.9-0.3-1.4-0.3
					c-0.5,0-1,0.1-1.4,0.3c-0.4,0.2-0.8,0.4-1.1,0.8c-0.3,0.3-0.5,0.7-0.7,1.2S162.7,126.6,162.7,127.1z"/>
				<path id="XMLID_1088_" class="st8" d="M182.3,125.5c0-0.6-0.1-1.1-0.4-1.5c-0.3-0.4-0.7-0.5-1.3-0.5c-0.6,0-1,0.2-1.3,0.6
					c-0.3,0.4-0.5,0.9-0.5,1.5v8.1h-3.2v-12.8h3.2v1c0.1-0.1,0.2-0.2,0.3-0.3c0.1-0.1,0.3-0.2,0.5-0.4c0.2-0.1,0.5-0.2,0.8-0.3
					c0.3-0.1,0.7-0.1,1.1-0.1c0.8,0,1.4,0.1,1.9,0.4c0.5,0.2,0.9,0.6,1.2,1c0.3,0.4,0.5,0.9,0.7,1.4c0.1,0.5,0.2,1.1,0.2,1.8v8.5
					h-3.2V125.5z"/>
				<path id="XMLID_1085_" class="st8" d="M192.9,127.1c0-1,0.2-1.8,0.5-2.7c0.3-0.8,0.8-1.5,1.4-2.1c0.6-0.6,1.3-1.1,2.1-1.4
					s1.7-0.5,2.7-0.5c1,0,1.9,0.2,2.8,0.5s1.5,0.8,2.1,1.4c0.6,0.6,1,1.3,1.4,2.1c0.3,0.8,0.5,1.7,0.5,2.6s-0.2,1.8-0.5,2.6
					c-0.3,0.8-0.8,1.5-1.4,2.1c-0.6,0.6-1.3,1.1-2.1,1.4s-1.7,0.5-2.7,0.5c-1,0-1.9-0.2-2.7-0.5c-0.8-0.3-1.5-0.8-2.1-1.4
					c-0.6-0.6-1-1.3-1.4-2.1C193.1,129,192.9,128.1,192.9,127.1z M196.1,127.1c0,0.5,0.1,1,0.3,1.5s0.4,0.8,0.7,1.2
					c0.3,0.3,0.7,0.6,1.1,0.8c0.4,0.2,0.9,0.3,1.4,0.3c0.5,0,1-0.1,1.4-0.3c0.4-0.2,0.8-0.4,1.1-0.8s0.5-0.7,0.7-1.2
					c0.2-0.5,0.3-0.9,0.3-1.5s-0.1-1-0.3-1.5s-0.4-0.9-0.7-1.2c-0.3-0.3-0.7-0.6-1.1-0.8c-0.4-0.2-0.9-0.3-1.4-0.3
					c-0.5,0-1,0.1-1.4,0.3c-0.4,0.2-0.8,0.4-1.1,0.8c-0.3,0.3-0.5,0.7-0.7,1.2S196.1,126.6,196.1,127.1z"/>
				<path id="XMLID_1083_" class="st8" d="M212.5,120.7h1.9v2.7h-1.9v10.1h-3.2v-10.1h-1.2v-2.7h1.2v-0.6c0-0.6,0.1-1.2,0.2-1.7
					c0.1-0.5,0.4-0.9,0.7-1.3c0.3-0.4,0.7-0.6,1.3-0.8c0.5-0.2,1.2-0.3,1.9-0.3c0.1,0,0.2,0,0.5,0c0.2,0,0.4,0,0.6,0v2.7h-0.6
					c-0.5,0-0.9,0.1-1.1,0.4c-0.2,0.3-0.2,0.6-0.2,1V120.7z"/>
				<path id="XMLID_1081_" class="st8" d="M227.9,130.8c0.7,0,1.2-0.1,1.6-0.3c0.4-0.2,0.8-0.5,1.1-0.7l1.8,2.2
					c-0.2,0.2-0.4,0.4-0.7,0.6s-0.6,0.4-1,0.6c-0.4,0.2-0.8,0.3-1.3,0.4c-0.5,0.1-1,0.2-1.5,0.2c-1,0-1.9-0.2-2.7-0.5
					c-0.8-0.3-1.5-0.8-2.1-1.4c-0.6-0.6-1-1.3-1.3-2.1c-0.3-0.8-0.5-1.7-0.5-2.6c0-0.9,0.2-1.8,0.5-2.6s0.8-1.5,1.4-2.1
					c0.6-0.6,1.3-1.1,2.1-1.4c0.8-0.3,1.7-0.5,2.7-0.5c0.6,0,1.1,0.1,1.6,0.2c0.5,0.1,0.9,0.2,1.3,0.4s0.7,0.4,1,0.6
					c0.3,0.2,0.5,0.4,0.7,0.6l-1.8,2.2c-0.3-0.3-0.6-0.5-1-0.7c-0.4-0.2-1-0.3-1.6-0.3c-0.5,0-1,0.1-1.4,0.3
					c-0.4,0.2-0.8,0.5-1.1,0.8s-0.5,0.7-0.7,1.2c-0.2,0.5-0.2,0.9-0.2,1.5c0,0.6,0.1,1.1,0.3,1.5c0.2,0.5,0.4,0.8,0.8,1.2
					s0.7,0.6,1.1,0.7C227,130.7,227.4,130.8,227.9,130.8z"/>
				<path id="XMLID_1078_" class="st8" d="M233.4,127.1c0-1,0.2-1.8,0.5-2.7c0.3-0.8,0.8-1.5,1.4-2.1c0.6-0.6,1.3-1.1,2.1-1.4
					s1.7-0.5,2.7-0.5c1,0,1.9,0.2,2.8,0.5s1.5,0.8,2.1,1.4c0.6,0.6,1,1.3,1.4,2.1c0.3,0.8,0.5,1.7,0.5,2.6s-0.2,1.8-0.5,2.6
					c-0.3,0.8-0.8,1.5-1.4,2.1c-0.6,0.6-1.3,1.1-2.1,1.4s-1.7,0.5-2.7,0.5c-1,0-1.9-0.2-2.7-0.5c-0.8-0.3-1.5-0.8-2.1-1.4
					c-0.6-0.6-1-1.3-1.4-2.1C233.6,129,233.4,128.1,233.4,127.1z M236.6,127.1c0,0.5,0.1,1,0.3,1.5s0.4,0.8,0.7,1.2
					c0.3,0.3,0.7,0.6,1.1,0.8c0.4,0.2,0.9,0.3,1.4,0.3c0.5,0,1-0.1,1.4-0.3c0.4-0.2,0.8-0.4,1.1-0.8s0.5-0.7,0.7-1.2
					c0.2-0.5,0.3-0.9,0.3-1.5s-0.1-1-0.3-1.5s-0.4-0.9-0.7-1.2c-0.3-0.3-0.7-0.6-1.1-0.8c-0.4-0.2-0.9-0.3-1.4-0.3
					c-0.5,0-1,0.1-1.4,0.3c-0.4,0.2-0.8,0.4-1.1,0.8c-0.3,0.3-0.5,0.7-0.7,1.2S236.6,126.6,236.6,127.1z"/>
				<path id="XMLID_1075_" class="st8" d="M259.3,120.7h3v10.7c0,1.2-0.2,2.2-0.5,3.1c-0.3,0.8-0.8,1.5-1.4,2
					c-0.6,0.5-1.3,0.9-2.2,1.1c-0.8,0.2-1.8,0.3-2.7,0.3c-1,0-1.9-0.1-2.7-0.3c-0.8-0.2-1.5-0.5-2-0.8l1-2.5
					c0.4,0.2,0.9,0.5,1.6,0.7c0.7,0.2,1.4,0.3,2.2,0.3c0.5,0,1-0.1,1.4-0.2c0.4-0.1,0.8-0.3,1.2-0.5c0.3-0.2,0.6-0.5,0.8-0.9
					c0.2-0.3,0.3-0.8,0.3-1.2v-0.2c-0.1,0.2-0.3,0.3-0.5,0.5s-0.5,0.3-0.8,0.5c-0.3,0.1-0.6,0.3-1,0.3s-0.8,0.1-1.2,0.1
					c-1,0-1.9-0.2-2.7-0.5c-0.8-0.3-1.5-0.8-2.1-1.4c-0.6-0.6-1-1.3-1.4-2.1c-0.3-0.8-0.5-1.7-0.5-2.7c0-0.9,0.2-1.8,0.5-2.6
					c0.3-0.8,0.8-1.5,1.3-2.1c0.6-0.6,1.3-1.1,2.1-1.4c0.8-0.3,1.7-0.5,2.6-0.5c0.8,0,1.6,0.1,2.2,0.4s1.2,0.6,1.6,1V120.7z
					 M252.2,127.1c0,0.5,0.1,1,0.3,1.5c0.2,0.5,0.4,0.8,0.7,1.2c0.3,0.3,0.7,0.6,1.1,0.8c0.4,0.2,0.9,0.3,1.4,0.3
					c0.5,0,1-0.1,1.5-0.3c0.4-0.2,0.8-0.5,1.1-0.8s0.5-0.7,0.7-1.2c0.2-0.5,0.3-0.9,0.3-1.5c0-0.5-0.1-1-0.3-1.5
					c-0.2-0.5-0.4-0.9-0.7-1.2s-0.7-0.6-1.1-0.8c-0.4-0.2-0.9-0.3-1.4-0.3c-0.5,0-1,0.1-1.5,0.3c-0.4,0.2-0.8,0.5-1.1,0.8
					c-0.3,0.3-0.6,0.7-0.7,1.2C252.3,126.1,252.2,126.6,252.2,127.1z"/>
				<path id="XMLID_1073_" class="st8" d="M272.2,125.5c0-0.6-0.1-1.1-0.4-1.5c-0.3-0.4-0.7-0.5-1.3-0.5c-0.6,0-1,0.2-1.3,0.6
					c-0.3,0.4-0.5,0.9-0.5,1.5v8.1h-3.2v-12.8h3.2v1c0.1-0.1,0.2-0.2,0.3-0.3c0.1-0.1,0.3-0.2,0.5-0.4c0.2-0.1,0.5-0.2,0.8-0.3
					c0.3-0.1,0.7-0.1,1.1-0.1c0.8,0,1.4,0.1,1.9,0.4c0.5,0.2,0.9,0.6,1.2,1c0.3,0.4,0.5,0.9,0.7,1.4c0.1,0.5,0.2,1.1,0.2,1.8v8.5
					h-3.2V125.5z"/>
				<path id="XMLID_1070_" class="st8" d="M280,119.9c-0.5,0-1-0.2-1.4-0.6s-0.6-0.8-0.6-1.3c0-0.5,0.2-1,0.6-1.4s0.8-0.6,1.4-0.6
					c0.5,0,1,0.2,1.4,0.6s0.6,0.8,0.6,1.4c0,0.5-0.2,1-0.6,1.3S280.6,119.9,280,119.9z M281.6,133.5h-3.2v-12.8h3.2V133.5z"/>
				<path id="XMLID_1068_" class="st8" d="M288.5,120.7h2v2.7h-2v6c0,0.5,0.1,0.8,0.3,1c0.2,0.2,0.5,0.3,1,0.3h0.7v2.7
					c0,0-0.2,0-0.5,0.1s-0.7,0.1-1.3,0.1c-1.2,0-2.1-0.3-2.6-0.9c-0.5-0.6-0.8-1.4-0.8-2.5v-6.9h-1.2v-2.7h1.2v-2h3.2V120.7z"/>
				<path id="XMLID_1065_" class="st8" d="M294.8,119.9c-0.5,0-1-0.2-1.4-0.6s-0.6-0.8-0.6-1.3c0-0.5,0.2-1,0.6-1.4s0.8-0.6,1.4-0.6
					c0.5,0,1,0.2,1.4,0.6s0.6,0.8,0.6,1.4c0,0.5-0.2,1-0.6,1.3S295.3,119.9,294.8,119.9z M296.4,133.5h-3.2v-12.8h3.2V133.5z"/>
				<path id="XMLID_1063_" class="st8" d="M305,129.5l2.9-8.8h3.3l-4.5,12.8h-3.5l-4.6-12.8h3.6L305,129.5z"/>
				<path id="XMLID_1060_" class="st8" d="M315.5,128.1c0.1,0.8,0.4,1.5,1,2c0.6,0.5,1.3,0.7,2.2,0.7c0.8,0,1.5-0.2,2-0.5
					c0.5-0.4,0.9-0.8,1.3-1.3l2.4,1.4c-0.2,0.4-0.4,0.8-0.8,1.2c-0.3,0.4-0.7,0.8-1.2,1.1c-0.5,0.3-1,0.6-1.6,0.8s-1.3,0.3-2.1,0.3
					c-1,0-1.9-0.2-2.7-0.5c-0.8-0.3-1.5-0.7-2.1-1.3c-0.6-0.6-1-1.3-1.3-2.1c-0.3-0.8-0.5-1.7-0.5-2.8c0-1,0.2-1.8,0.5-2.7
					c0.3-0.8,0.7-1.5,1.3-2.1c0.6-0.6,1.2-1.1,2-1.4s1.6-0.5,2.6-0.5c1,0,1.8,0.2,2.6,0.5s1.4,0.7,2,1.3c0.5,0.6,1,1.2,1.3,2
					c0.3,0.8,0.4,1.7,0.4,2.6c0,0.2,0,0.4,0,0.6c0,0.2,0,0.5,0,0.7H315.5z M318.4,123.2c-0.8,0-1.5,0.2-2,0.7
					c-0.5,0.5-0.8,1.1-0.9,1.8h5.8c-0.1-0.7-0.4-1.3-0.9-1.8C320,123.4,319.3,123.2,318.4,123.2z"/>
				<path id="XMLID_1057_" class="st8" d="M78.5,163.7h-3.2v-17h3v1.2c0.3-0.3,0.8-0.6,1.4-1c0.6-0.3,1.5-0.5,2.5-0.5
					c1,0,1.9,0.2,2.7,0.5s1.5,0.8,2,1.4s1,1.3,1.3,2.1c0.3,0.8,0.5,1.7,0.5,2.7c0,0.9-0.2,1.8-0.5,2.6c-0.3,0.8-0.7,1.5-1.3,2.1
					c-0.6,0.6-1.3,1.1-2.1,1.4c-0.8,0.3-1.7,0.5-2.7,0.5c-0.8,0-1.6-0.1-2.2-0.4c-0.6-0.3-1.1-0.6-1.4-0.8V163.7z M78.4,153.1
					c0,0.5,0.1,1,0.3,1.5c0.2,0.5,0.4,0.9,0.7,1.2c0.3,0.3,0.7,0.6,1.1,0.8s0.9,0.3,1.5,0.3c0.5,0,1-0.1,1.5-0.3s0.8-0.4,1.1-0.8
					c0.3-0.3,0.5-0.7,0.7-1.2c0.2-0.5,0.2-1,0.2-1.5s-0.1-1-0.3-1.5c-0.2-0.5-0.4-0.9-0.7-1.2c-0.3-0.3-0.7-0.6-1.1-0.8
					c-0.4-0.2-0.9-0.3-1.5-0.3c-0.5,0-1,0.1-1.5,0.3s-0.8,0.5-1.1,0.8c-0.3,0.3-0.5,0.7-0.7,1.2C78.5,152.1,78.4,152.6,78.4,153.1z"
					/>
				<path id="XMLID_1054_" class="st8" d="M94.3,154.1c0.1,0.8,0.4,1.5,1,2c0.6,0.5,1.3,0.7,2.2,0.7c0.8,0,1.5-0.2,2-0.5
					c0.5-0.4,0.9-0.8,1.3-1.3l2.4,1.4c-0.2,0.4-0.4,0.8-0.8,1.2c-0.3,0.4-0.7,0.8-1.2,1.1c-0.5,0.3-1,0.6-1.6,0.8s-1.3,0.3-2.1,0.3
					c-1,0-1.9-0.2-2.7-0.5c-0.8-0.3-1.5-0.7-2.1-1.3c-0.6-0.6-1-1.3-1.3-2.1c-0.3-0.8-0.5-1.7-0.5-2.8c0-1,0.2-1.8,0.5-2.7
					c0.3-0.8,0.7-1.5,1.3-2.1c0.6-0.6,1.2-1.1,2-1.4s1.6-0.5,2.6-0.5c1,0,1.8,0.2,2.6,0.5s1.4,0.7,2,1.3c0.5,0.6,1,1.2,1.3,2
					c0.3,0.8,0.4,1.7,0.4,2.6c0,0.2,0,0.4,0,0.6c0,0.2,0,0.5,0,0.7H94.3z M97.2,149.2c-0.8,0-1.5,0.2-2,0.7
					c-0.5,0.5-0.8,1.1-0.9,1.8h5.8c-0.1-0.7-0.4-1.3-0.9-1.8C98.7,149.4,98.1,149.2,97.2,149.2z"/>
				<path id="XMLID_1052_" class="st8" d="M111.7,150h-0.8c-0.6,0-1.1,0.1-1.3,0.4c-0.2,0.3-0.4,0.7-0.4,1.3v7.8H106v-12.8h3.2v1
					c0.2-0.3,0.5-0.6,0.9-0.8c0.4-0.2,0.9-0.3,1.6-0.3V150z"/>
				<path id="XMLID_1050_" class="st8" d="M118.2,146.7h1.9v2.7h-1.9v10.1H115v-10.1h-1.2v-2.7h1.2v-0.6c0-0.6,0.1-1.2,0.2-1.7
					c0.1-0.5,0.4-0.9,0.7-1.3c0.3-0.4,0.7-0.6,1.3-0.8c0.5-0.2,1.2-0.3,1.9-0.3c0.1,0,0.2,0,0.5,0c0.2,0,0.4,0,0.6,0v2.7h-0.6
					c-0.5,0-0.9,0.1-1.1,0.4c-0.2,0.3-0.2,0.6-0.2,1V146.7z"/>
				<path id="XMLID_1047_" class="st8" d="M121.5,153.1c0-1,0.2-1.8,0.5-2.7c0.3-0.8,0.8-1.5,1.4-2.1c0.6-0.6,1.3-1.1,2.1-1.4
					s1.7-0.5,2.7-0.5c1,0,1.9,0.2,2.8,0.5s1.5,0.8,2.1,1.4c0.6,0.6,1,1.3,1.4,2.1c0.3,0.8,0.5,1.7,0.5,2.6s-0.2,1.8-0.5,2.6
					c-0.3,0.8-0.8,1.5-1.4,2.1c-0.6,0.6-1.3,1.1-2.1,1.4s-1.7,0.5-2.7,0.5c-1,0-1.9-0.2-2.7-0.5c-0.8-0.3-1.5-0.8-2.1-1.4
					c-0.6-0.6-1-1.3-1.4-2.1C121.6,155,121.5,154.1,121.5,153.1z M124.7,153.1c0,0.5,0.1,1,0.3,1.5s0.4,0.8,0.7,1.2
					c0.3,0.3,0.7,0.6,1.1,0.8c0.4,0.2,0.9,0.3,1.4,0.3c0.5,0,1-0.1,1.4-0.3c0.4-0.2,0.8-0.4,1.1-0.8s0.5-0.7,0.7-1.2
					c0.2-0.5,0.3-0.9,0.3-1.5s-0.1-1-0.3-1.5s-0.4-0.9-0.7-1.2c-0.3-0.3-0.7-0.6-1.1-0.8c-0.4-0.2-0.9-0.3-1.4-0.3
					c-0.5,0-1,0.1-1.4,0.3c-0.4,0.2-0.8,0.4-1.1,0.8c-0.3,0.3-0.5,0.7-0.7,1.2S124.7,152.6,124.7,153.1z"/>
				<path id="XMLID_1045_" class="st8" d="M143.2,150h-0.8c-0.6,0-1.1,0.1-1.3,0.4c-0.2,0.3-0.4,0.7-0.4,1.3v7.8h-3.2v-12.8h3.2v1
					c0.2-0.3,0.5-0.6,0.9-0.8c0.4-0.2,0.9-0.3,1.6-0.3V150z"/>
				<path id="XMLID_1043_" class="st8" d="M155.6,159.5h-3.2v-8.1c0-0.6-0.1-1.1-0.4-1.5c-0.3-0.4-0.7-0.6-1.3-0.6
					c-0.6,0-1,0.2-1.3,0.6c-0.3,0.4-0.4,0.9-0.4,1.5v8h-3.2v-12.8h3.2v1c0.2-0.2,0.5-0.4,0.9-0.7s1-0.4,1.9-0.4
					c0.8,0,1.4,0.1,1.9,0.4s0.9,0.6,1.2,1c0.3-0.3,0.7-0.7,1.2-0.9c0.5-0.3,1.2-0.4,2-0.4c0.8,0,1.5,0.1,2,0.4c0.6,0.2,1,0.6,1.3,1
					c0.3,0.4,0.6,0.9,0.7,1.4c0.2,0.5,0.2,1.1,0.2,1.8v8.5h-3.2v-8.1c0-0.6-0.1-1.1-0.4-1.5c-0.3-0.4-0.7-0.5-1.3-0.5
					s-1,0.2-1.3,0.6c-0.3,0.4-0.4,0.9-0.4,1.4V159.5z"/>
				<path id="XMLID_1040_" class="st8" d="M164.9,155.3c0-0.6,0.1-1.1,0.3-1.7s0.5-1,0.9-1.3c0.4-0.4,0.8-0.7,1.4-0.9
					c0.5-0.2,1.2-0.3,1.8-0.3c0.6,0,1.1,0.1,1.4,0.2s0.7,0.2,0.8,0.3V151c0-0.6-0.1-1-0.4-1.4s-0.7-0.5-1.3-0.5
					c-0.3,0-0.6,0-0.8,0.1s-0.4,0.2-0.5,0.3c-0.1,0.1-0.2,0.3-0.3,0.5c0,0.2-0.1,0.4-0.1,0.5h-3c0-1.2,0.4-2.2,1.2-2.9
					c0.7-0.7,1.9-1.1,3.4-1.1c0.9,0,1.7,0.1,2.3,0.4s1.1,0.6,1.5,1c0.4,0.4,0.6,0.9,0.8,1.5c0.2,0.6,0.2,1.3,0.2,2v8.1h-2.7v-0.8
					c-0.2,0.2-0.5,0.4-0.9,0.6c-0.4,0.2-1,0.3-1.8,0.3c-0.6,0-1.2-0.1-1.8-0.3c-0.5-0.2-1-0.5-1.4-0.9c-0.4-0.4-0.7-0.8-0.9-1.4
					C165,156.6,164.9,156,164.9,155.3z M168,155.3c0,0.5,0.2,1,0.5,1.3c0.3,0.3,0.8,0.5,1.4,0.5c0.5,0,1-0.2,1.3-0.5
					c0.4-0.3,0.5-0.8,0.5-1.3s-0.2-1-0.5-1.3c-0.4-0.3-0.8-0.5-1.3-0.5c-0.6,0-1,0.2-1.3,0.5C168.1,154.4,168,154.8,168,155.3z"/>
				<path id="XMLID_1038_" class="st8" d="M184.6,151.5c0-0.6-0.1-1.1-0.4-1.5c-0.3-0.4-0.7-0.5-1.3-0.5c-0.6,0-1,0.2-1.3,0.6
					c-0.3,0.4-0.5,0.9-0.5,1.5v8.1h-3.2v-12.8h3.2v1c0.1-0.1,0.2-0.2,0.3-0.3c0.1-0.1,0.3-0.2,0.5-0.4c0.2-0.1,0.5-0.2,0.8-0.3
					c0.3-0.1,0.7-0.1,1.1-0.1c0.8,0,1.4,0.1,1.9,0.4c0.5,0.2,0.9,0.6,1.2,1c0.3,0.4,0.5,0.9,0.7,1.4c0.1,0.5,0.2,1.1,0.2,1.8v8.5
					h-3.2V151.5z"/>
				<path id="XMLID_1036_" class="st8" d="M197,156.8c0.7,0,1.2-0.1,1.6-0.3c0.4-0.2,0.8-0.5,1.1-0.7l1.8,2.2
					c-0.2,0.2-0.4,0.4-0.7,0.6s-0.6,0.4-1,0.6c-0.4,0.2-0.8,0.3-1.3,0.4c-0.5,0.1-1,0.2-1.5,0.2c-1,0-1.9-0.2-2.7-0.5
					c-0.8-0.3-1.5-0.8-2.1-1.4c-0.6-0.6-1-1.3-1.3-2.1c-0.3-0.8-0.5-1.7-0.5-2.6c0-0.9,0.2-1.8,0.5-2.6s0.8-1.5,1.4-2.1
					c0.6-0.6,1.3-1.1,2.1-1.4c0.8-0.3,1.7-0.5,2.7-0.5c0.6,0,1.1,0.1,1.6,0.2c0.5,0.1,0.9,0.2,1.3,0.4s0.7,0.4,1,0.6
					c0.3,0.2,0.5,0.4,0.7,0.6l-1.8,2.2c-0.3-0.3-0.6-0.5-1-0.7c-0.4-0.2-1-0.3-1.6-0.3c-0.5,0-1,0.1-1.4,0.3
					c-0.4,0.2-0.8,0.5-1.1,0.8s-0.5,0.7-0.7,1.2c-0.2,0.5-0.2,0.9-0.2,1.5c0,0.6,0.1,1.1,0.3,1.5c0.2,0.5,0.4,0.8,0.8,1.2
					s0.7,0.6,1.1,0.7C196.1,156.7,196.6,156.8,197,156.8z"/>
				<path id="XMLID_1033_" class="st8" d="M206,154.1c0.1,0.8,0.4,1.5,1,2c0.6,0.5,1.3,0.7,2.2,0.7c0.8,0,1.5-0.2,2-0.5
					c0.5-0.4,0.9-0.8,1.3-1.3l2.4,1.4c-0.2,0.4-0.4,0.8-0.8,1.2c-0.3,0.4-0.7,0.8-1.2,1.1c-0.5,0.3-1,0.6-1.6,0.8s-1.3,0.3-2.1,0.3
					c-1,0-1.9-0.2-2.7-0.5c-0.8-0.3-1.5-0.7-2.1-1.3c-0.6-0.6-1-1.3-1.3-2.1c-0.3-0.8-0.5-1.7-0.5-2.8c0-1,0.2-1.8,0.5-2.7
					c0.3-0.8,0.7-1.5,1.3-2.1c0.6-0.6,1.2-1.1,2-1.4s1.6-0.5,2.6-0.5c1,0,1.8,0.2,2.6,0.5s1.4,0.7,2,1.3c0.5,0.6,1,1.2,1.3,2
					c0.3,0.8,0.4,1.7,0.4,2.6c0,0.2,0,0.4,0,0.6c0,0.2,0,0.5,0,0.7H206z M208.9,149.2c-0.8,0-1.5,0.2-2,0.7
					c-0.5,0.5-0.8,1.1-0.9,1.8h5.8c-0.1-0.7-0.4-1.3-0.9-1.8C210.4,149.4,209.7,149.2,208.9,149.2z"/>
			</g>
		</g>
		<g id="XMLID_62_">
			<circle id="XMLID_64_" class="st3" cx="63" cy="125.5" r="5.5"/>
		</g>
	</g>
</g>
<g id="guias" class="st9">
</g>
</svg>
