<?xml version="1.0" encoding="utf-8"?>
<!-- Generator: Adobe Illustrator 19.0.0, SVG Export Plug-In . SVG Version: 6.00 Build 0)  -->
<svg version="1.1" id="Capa_1" xmlns="http://www.w3.org/2000/svg" xmlns:xlink="http://www.w3.org/1999/xlink" x="0px" y="0px"
	 viewBox="570 -225.3 1440 1451.3" style="enable-background:new 570 -225.3 1440 1451.3;" xml:space="preserve">
<style type="text/css">
	.st0{fill:#F4F4F4;}
	.st1{fill:#181716;}
	.st2{fill:#FCD7A6;}
	.st3{fill:#FBE2E0;}
	.st4{fill:#F29700;}
	.st5{fill:#F8D2D0;}
	.st6{fill:none;stroke:#F0A0A0;stroke-width:6.0028;stroke-linecap:round;stroke-miterlimit:10;}
	.st7{fill:#F0A0A0;}
	.st8{fill:none;}
	.st9{font-family:'PlatformWeb-Regular';}
	.st10{font-size:24.0054px;}
	.st11{font-size:33.0075px;}
	.st12{fill:none;stroke:#181716;stroke-width:1.5003;stroke-miterlimit:10;}
</style>
<g id="bg">
	<rect x="570" y="-226" class="st0" width="1440" height="1452.7"/>
	<rect x="570" y="1019.3" class="st1" width="1440" height="207.3"/>
</g>
<g id="cos">
	<g>
		<g>
			<path class="st2" d="M1293.1-169.6c-0.4,0-0.7,0-1,0s-0.7,0-1,0c-44.9-0.4-62.4,35.1-59.8,80.4c2.5,44.3,19.6,91.2,60.6,92.1l0,0
				c0.1,0,0.2,0,0.3,0s0.2,0,0.3,0l0,0c41-0.9,58.1-47.8,60.6-92.1C1355.6-134.4,1338.1-170,1293.1-169.6z"/>
			<g>
				
					<ellipse transform="matrix(-0.1335 0.991 -0.991 -0.1335 1459.9435 -1420.4716)" class="st2" cx="1350.9" cy="-72" rx="23.8" ry="8"/>
				
					<ellipse transform="matrix(-0.991 0.1335 -0.1335 -0.991 2446.2825 -307.6975)" class="st2" cx="1233.5" cy="-71.8" rx="8" ry="23.8"/>
			</g>
			<rect x="1257" y="-29.3" class="st2" width="70.1" height="73.1"/>
			<g>
				<path class="st2" d="M1305,76.8L1256.9,3l0,0c0,20.9-16.9,37.8-37.8,37.8l0,0L1305,76.8z"/>
				<path class="st2" d="M1279.2,76.8L1327.3,3l0,0c0,20.9,16.9,37.8,37.8,37.8l0,0L1279.2,76.8z"/>
			</g>
		</g>
		<g>
			<rect x="1202.5" y="40.5" class="st2" width="178.7" height="281.4"/>
			<path class="st2" d="M1175.1,78.9h233.4v86.2c0,35.4-28.7,64-64,64h-105.4c-35.4,0-64-28.7-64-64V78.9z"/>
			<path class="st2" d="M1129.3,162.2h325.1v-59.3c0-34.5-28-62.4-62.4-62.4h-200.3c-34.5,0-62.4,28-62.4,62.4V162.2z"/>
			<path class="st2" d="M1381.2,321.9h-89.4V518h127.1c0,0,0-24.5,0-74.5C1418.9,395.5,1381.2,321.9,1381.2,321.9z"/>
			<path class="st2" d="M1202.4,321.9h89.4V518h-127.1c0,0,0-24.5,0-74.5C1164.7,395.5,1202.4,321.9,1202.4,321.9z"/>
			<g>
				<path class="st2" d="M1377.1,769c0,19.3-77.1,0-77.1,0V518c0,0,118.8-29.7,118.8,0C1418.9,624.8,1377.1,739.9,1377.1,769z"/>
				<path class="st2" d="M1356,1083.9h-41L1300,769h76.9c0,0,6.4,92.3,6.4,123.2C1383.3,978.9,1356,1083.9,1356,1083.9z"/>
				<path class="st2" d="M1363.8,1178.8c-0.1,2.3-2.4,6-4.9,9.3c-3.8,5-9.7,7.8-15.9,7.8h-29.7c-7,0-12.4-6.1-11.4-13.1l13.1-99h41
					C1355.9,1083.9,1364.8,1149.6,1363.8,1178.8z"/>
			</g>
			<g>
				<path class="st2" d="M1206.5,769c0,19.3,77.1,0,77.1,0V518c0,0-118.8-29.7-118.8,0C1164.7,624.8,1206.5,739.9,1206.5,769z"/>
				<path class="st2" d="M1227.6,1083.9h41l14.9-314.9h-76.9c0,0-6.4,92.3-6.4,123.2C1200.3,978.9,1227.6,1083.9,1227.6,1083.9z"/>
				<path class="st2" d="M1219.8,1178.8c0.1,2.3,2.4,6,4.9,9.3c3.8,5,9.7,7.8,15.9,7.8h29.7c7,0,12.4-6.1,11.4-13.1l-13.1-99h-41
					C1227.7,1083.9,1218.8,1149.6,1219.8,1178.8z"/>
			</g>
			<polygon class="st2" points="1474.8,311.5 1428.9,316.8 1401,99.4 1454.2,93.3 			"/>
			<path class="st2" d="M1489.6,496.1l-27,3.1l-33.7-182.5c0,0,42.4-39.8,43.8-27.7c2.5,21.5,8.9,43.4,12.1,73.1
				C1488.4,395.5,1489.6,496.1,1489.6,496.1z"/>
			<path class="st2" d="M1489.6,496.1v41.4c0,8.9-2.7,17.6-7.9,24.9l-32.9,46.8c-2.7,3.9-8,4.9-11.9,2.3l0,0
				c-3.7-2.4-5-7.1-3.1-11.1l20.4-42.3l-2.8-15.3l-14.6,28.8c-0.7,1.3-2.2,2-3.7,1.6l0,0c-1.5-0.4-2.5-1.9-2.3-3.4l3.1-27.7
				c0.8-7.2,3.3-14.1,7.4-20.1l21.2-22.9L1489.6,496.1z"/>
			<g>
				<polygon class="st2" points="1109.4,311.5 1155.3,316.8 1183.1,99.4 1130,93.3 				"/>
				<path class="st2" d="M1094.6,496.1l27,3.1l33.7-182.5c0,0-42.4-39.8-43.8-27.7c-2.5,21.5-8.9,43.4-12.1,73.1
					C1095.8,395.5,1094.6,496.1,1094.6,496.1z"/>
				<path class="st2" d="M1094.6,496.1v41.4c0,8.9,2.7,17.6,7.9,24.9l32.9,46.8c2.7,3.9,8,4.9,11.9,2.3l0,0c3.7-2.4,5-7.1,3.1-11.1
					l-20.4-42.2l2.8-15.3l14.6,28.8c0.7,1.3,2.2,2,3.7,1.6l0,0c1.5-0.4,2.5-1.9,2.3-3.4l-3.1-27.7c-0.8-7.2-3.3-14.1-7.4-20.1
					l-21.2-22.9L1094.6,496.1z"/>
			</g>
		</g>
	</g>
	<g>
		<g>
			<path class="st3" d="M1309.6,47.1L1309.6,47.1c3.9-2.5,8.4-3.9,13.1-3.9h6.3c7.9,0.5,12.9,3.1,16,7.1
				c21.4,27.7,48.6,65,55.8,114.3c1.7,11.9-15.2,35.7-19.8,39.1c-55.8,41.5-87.2-27.9-87.2-27.9l5-109.7
				C1299.1,58.4,1303.2,51.4,1309.6,47.1z"/>
			<circle class="st3" cx="1346.2" cy="169.9" r="54.6"/>
		</g>
		<g>
			<path class="st3" d="M1275.4,47.1L1275.4,47.1c-3.9-2.5-8.4-3.9-13.1-3.9h-6.3c-7.9,0.5-12.9,3.1-16,7.1
				c-21.4,27.7-48.6,65-55.8,114.3c-1.7,11.9,15.2,35.7,19.8,39.1c55.8,41.5,87.2-27.9,87.2-27.9l17.6-99l-22.5-10.6
				C1285.9,58.4,1281.8,51.4,1275.4,47.1z"/>
			<circle class="st3" cx="1238.8" cy="169.9" r="54.6"/>
		</g>
	</g>
	<path class="st4" d="M1292.1,489.5L1292.1,489.5c-30.3,0-54.9-24.6-54.9-54.9v-61.7c0-30.3,24.6-54.9,54.9-54.9l0,0
		c30.3,0,54.9,24.6,54.9,54.9v61.7C1347,465,1322.4,489.5,1292.1,489.5z"/>
	<g>
		<g>
			<g>
				<circle class="st5" cx="1259.7" cy="168.5" r="22.4"/>
				<circle class="st5" cx="1229.9" cy="179.3" r="24.4"/>
				<circle class="st5" cx="1268.6" cy="103.6" r="13.5"/>
				<rect x="1252.3" y="103.6" class="st5" width="29.9" height="61"/>
				<path class="st5" d="M1206.4,172.7c13.2-52.4,53.6-79.5,53.6-79.5l5.4,70.4C1265.5,163.5,1202.7,187.2,1206.4,172.7z"/>
			</g>
			<g>
				<circle class="st5" cx="1325.3" cy="168.5" r="22.4"/>
				<circle class="st5" cx="1355.1" cy="179.3" r="24.4"/>
				<circle class="st5" cx="1316.4" cy="103.6" r="13.5"/>
				<rect x="1302.8" y="103.7" class="st5" width="29.9" height="61"/>
				<path class="st5" d="M1378.6,172.7c-13.2-52.4-53.6-79.5-53.6-79.5l-5.4,70.4C1319.5,163.5,1382.2,187.2,1378.6,172.7z"/>
			</g>
		</g>
		<rect x="1285" y="42.8" class="st5" width="14.9" height="56.1"/>
		<g>
			
				<rect x="1302.7" y="87.2" transform="matrix(0.7071 -0.7071 0.7071 0.7071 302.2271 960.1982)" class="st5" width="14.9" height="56.1"/>
			
				<rect x="1267.4" y="87.2" transform="matrix(-0.7071 -0.7071 0.7071 -0.7071 2094.8733 1098.1581)" class="st5" width="14.9" height="56.1"/>
		</g>
	</g>
	<g>
		<path class="st6" d="M1460.2,534.9c0,0,20.9-17.7,20.3-35.7c-1.6-43.9,1.6-76-1.6-100.3c-8-60.9-24.9-73-27.9-100.5
			c-2.6-23.1,5-164.8-13-199.7c-19.1-36.9-65.2-41.5-97.4-33c-22.8,6-28.3,24.1-30.4,35.6c-1.6,8.8-1.8,16.5,2.7,35.8"/>
		<path class="st6" d="M1391.4,64.7c23.7,6.2,25.7,29.3,27.5,56.9s33.3,135.3,30.9,171.2c-2.4,35.9-1.1,91.7,6.5,115.8
			s21.6,54.8,23.8,80.9"/>
		<path class="st6" d="M1125.1,534.9c0,0-20.9-17.7-20.3-35.7c1.6-43.9-1.6-76,1.6-100.3c8-60.9,24.9-73,27.9-100.5
			c2.6-23.1-5-164.8,13-199.7c19.1-36.9,65.2-41.5,97.4-33c22.8,6,47.4,21.8,51.6,35.6c2.6,8.6,8.6,16.5,4.2,35.8"/>
		<path class="st6" d="M1193.9,64.7c-23.7,6.2-25.7,29.3-27.5,56.9s-33.3,135.3-30.9,171.2c2.4,35.9,1.1,91.7-6.5,115.8
			s-21.6,54.8-23.8,80.9"/>
		<path class="st6" d="M1340.5,65.8c0,0-23.1-47.7-24.2-62.9c-1.1-15.2,13.1-41.3,23.2-68.4c5.7-15.3,5-30.2,3.3-40.3
			c-1.3-7.6-6.4-14-13.5-16.9l-4.6-1.9"/>
		<line class="st6" x1="1316.4" y1="-0.5" x2="1322.2" y2="75.1"/>
		<path class="st6" d="M1243.3,64.9c0,0,23.1-46.8,24.2-62c1.1-15.2-13.1-41.3-23.2-68.4c-6.5-17.4-4.7-34.3-2.5-44.1
			c1.2-5.4,4.3-10.1,8.7-13.3l4.8-3.5"/>
		<line class="st6" x1="1267.5" y1="-0.5" x2="1261.6" y2="71.7"/>
		<path class="st6" d="M1296.2,185.4c0,0-3.9,223.5,0.4,234.6c4.3,11.1,78.3,67.9,82.1,115c8.8,108-27.9,228.6-29.6,234.1
			c-6.6,21.4,19,145.2,13.3,195.2s-26.4,117.2-29.7,141.5c-3.2,24.3-5.6,54.3-5.6,54.3"/>
		<path class="st6" d="M1325.3,450.6c13,13.8,18.6,46.7,16.4,84.3s8.4,197.7,2.4,249.2s-18.1,154.4-14.2,193
			c3.9,38.6,7.1,90.2,2.9,128.7"/>
		<path class="st6" d="M1295.1,416.6c-4.3,11.1-86.7,71.3-90.5,118.4c-8.8,108,27.9,228.6,29.6,234.1c6.6,21.4-19,145.2-13.3,195.2
			c5.7,50,26.4,117.2,29.7,141.5c3.2,24.3,5.6,54.3,5.6,54.3"/>
		<path class="st6" d="M1258.5,452.7c-13,13.8-19,44.6-16.9,82.2s-8.4,197.7-2.4,249.2s18.1,154.4,14.2,193
			c-3.9,38.6-7.1,90.2-2.9,128.7"/>
	</g>
	<path class="st7" d="M1297.6,114.1c0,0,4.3,6.4,3.8,7.8c-0.4,1.4-3.7,2.6-7.2,11c-2.3,5.8,0.9,11.3-0.6,12.4
		c-1.6,1.1-5.7,7.9-6.9,10.2c-8.9,16.7,4,34.6,13.3,41.2c9.3,6.5,18.4,6.7,24.3,9.3c8.2,3.5,19,5.8,25.3-5.3c0,0,4.1-8.5-1-24.1
		c-2.9-8.9-6.4-15.4-8.1-17.8c-5.5-7.7-11.2-11.2-13.8-12.6c-1.4-0.7-0.8-3.8,2-5c2.8-1.3,6-0.3,6-0.3l1-4c0,0-3.9-1.3-5.8-0.9
		c-1.9,0.3,2.1-4.2,2.3-7.3c0,0-2.7-2.3-4.4-1.7c0,0-1,3.7-3.5,7.7c0,0,1-9.6-5.9-14.6c0,0,1.6-8.1,2.1-8.8c0,0-3.2-1.7-4.5-1.4
		c0,0-1.9,8.1-2.2,8.3c-0.3,0.2-0.9,1.2-1.5,0.2c-0.6-1-0.8-9.6-0.8-9.6l-4.4,0.5c0,0,1.9,9.3,0.7,9.8c-0.4,0.2-0.8,0.8-1.6,0.1
		c-2.1-1.8-4.3-6.9-4.3-7.3C1301.8,111.4,1297.6,114.1,1297.6,114.1z"/>
	<g>
		<circle class="st4" cx="1258.8" cy="-127.1" r="13.6"/>
		<circle class="st4" cx="1279.1" cy="-138.7" r="14.7"/>
		<circle class="st4" cx="1301.7" cy="-140.1" r="16.3"/>
		<circle class="st4" cx="1252.6" cy="-121.6" r="8.1"/>
		<circle class="st4" cx="1332.1" cy="-121.6" r="8.1"/>
		<circle class="st4" cx="1321.1" cy="-133" r="11"/>
		<rect x="1252.6" y="-127.1" class="st4" width="79.6" height="13.6"/>
		<rect x="1278" y="-136.1" class="st4" width="14.3" height="17.6"/>
	</g>
	<g>
		<g>
			<rect x="1532.4" y="614.3" class="st8" width="360.9" height="195.4"/>
			<text transform="matrix(1 0 0 1 1646.938 631.8214)" class="st1 st9 st10">Nacimiento prematuro</text>
		</g>
		<g>
			<rect x="1526.6" y="518.6" class="st8" width="366.7" height="123.5"/>
			<text transform="matrix(1 0 0 1 1538.8241 542.772)" class="st1 st9 st11">APARATO REPRODUCTOR</text>
			<text transform="matrix(1 0 0 1 1779.7217 580.272)" class="st1 st9 st11">Y FETO</text>
		</g>
		<g>
			<rect x="689.7" y="597.7" class="st8" width="538.6" height="128.5"/>
			<text transform="matrix(1 0 0 1 689.6575 615.2576)" class="st9 st10">Lesiones por accidentes de</text>
			<text transform="matrix(1 0 0 1 689.6575 639.2576)" class="st9 st10">trabajo y de tráfico</text>
			<text transform="matrix(1 0 0 1 689.6575 675.2576)" class="st1 st9 st10">Incremento de la mortalidad</text>
		</g>
		<g>
			<rect x="689.7" y="539.6" class="st8" width="283.7" height="57.7"/>
			<text transform="matrix(1 0 0 1 689.657 563.7733)" class="st1 st9 st11">GENERAL / OTROS</text>
		</g>
		<line class="st12" x1="1185.8" y1="517.3" x2="689.7" y2="515.6"/>
		<circle class="st4" cx="678.3" cy="667.4" r="5.5"/>
		<circle class="st4" cx="678.3" cy="607.3" r="5.5"/>
		<circle class="st4" cx="1905.8" cy="624.2" r="5.5"/>
		<polyline class="st12" points="1325.3,375.7 1507.6,495.7 1893.3,494.6 		"/>
	</g>
	<g>
		<rect x="689.4" y="-55.7" class="st8" width="380.7" height="427.2"/>
		<text transform="matrix(1 0 0 1 689.3674 -38.1952)" class="st9 st10">Reducción del rendimiento </text>
		<text transform="matrix(1 0 0 1 689.3674 -14.1952)" class="st9 st10">cognitivo</text>
	</g>
	<g>
		<rect x="689.4" y="-113.8" class="st8" width="283.7" height="138.5"/>
		<text transform="matrix(1 0 0 1 689.3669 -89.6791)" class="st1 st9 st11">CABEZA</text>
	</g>
	<line class="st12" x1="1301.8" y1="-136.2" x2="689.4" y2="-137.9"/>
	<circle class="st4" cx="678" cy="-46.2" r="5.5"/>
</g>
</svg>
