<?xml version="1.0" encoding="utf-8"?>
<!-- Generator: Adobe Illustrator 19.0.0, SVG Export Plug-In . SVG Version: 6.00 Build 0)  -->
<svg version="1.1" xmlns="http://www.w3.org/2000/svg" xmlns:xlink="http://www.w3.org/1999/xlink" x="0px" y="0px"
	 viewBox="0 0 580.4 1438.3" style="enable-background:new 0 0 580.4 1438.3;" xml:space="preserve">
<style type="text/css">
	.st0{opacity:0.3;}
	.st1{fill:#FCD7A6;}
	.st2{fill:#FBE2E0;}
	.st3{fill:#F29700;}
	.st4{fill:#F8D2D0;}
	.st5{fill:none;stroke:#F0A0A0;stroke-width:6.0028;stroke-linecap:round;stroke-miterlimit:10;}
	.st6{fill:#F0A0A0;}
	.st7{fill:#181717;}
	.st8{fill:#010202;}
	.st9{display:none;}
</style>
<g id="Cos_1_" class="st0">
	<g id="XMLID_95_">
		<g id="XMLID_124_">
			<path id="XMLID_134_" class="st1" d="M380,21.9c-0.4,0-0.7,0-1,0c-0.3,0-0.7,0-1,0c-44.9-0.4-62.4,35.1-59.8,80.4
				c2.5,44.3,19.6,91.2,60.6,92.1v0c0.1,0,0.2,0,0.3,0c0.1,0,0.2,0,0.3,0v0c41-0.9,58.1-47.8,60.6-92.1
				C442.4,57,424.9,21.5,380,21.9z"/>
			<g id="XMLID_131_">
				
					<ellipse id="XMLID_133_" transform="matrix(0.9911 0.1335 -0.1335 0.9911 19.8714 -57.3451)" class="st1" cx="437.6" cy="119.5" rx="8" ry="23.8"/>
				
					<ellipse id="XMLID_132_" transform="matrix(-0.9911 0.1335 -0.1335 -0.9911 653.4425 195.2647)" class="st1" cx="320.2" cy="119.5" rx="8" ry="23.8"/>
			</g>
			<rect id="XMLID_129_" x="343.8" y="162.2" class="st1" width="70.1" height="73.1"/>
			<g id="XMLID_125_">
				<path id="XMLID_128_" class="st1" d="M391.8,268.3l-48.1-73.8l0,0c0,20.9-16.9,37.8-37.8,37.8l0,0L391.8,268.3z"/>
				<path id="XMLID_126_" class="st1" d="M366,268.3l48.1-73.8l0,0c0,20.9,16.9,37.8,37.8,37.8l0,0L366,268.3z"/>
			</g>
		</g>
		<g id="XMLID_96_">
			<rect id="XMLID_123_" x="289.3" y="231.9" class="st1" width="178.7" height="281.4"/>
			<path id="XMLID_122_" class="st1" d="M261.9,270.4h233.4v86.2c0,35.4-28.7,64-64,64H325.9c-35.4,0-64-28.7-64-64V270.4z"/>
			<path id="XMLID_121_" class="st1" d="M216.1,353.7h325.1v-59.3c0-34.5-28-62.4-62.4-62.4H278.5c-34.5,0-62.4,28-62.4,62.4V353.7z
				"/>
			<path id="XMLID_120_" class="st1" d="M468,513.4h-89.4v196.1h127.1c0,0,0-24.5,0-74.5C505.7,587,468,513.4,468,513.4z"/>
			<path id="XMLID_118_" class="st1" d="M289.2,513.4h89.4v196.1H251.5c0,0,0-24.5,0-74.5C251.5,587,289.2,513.4,289.2,513.4z"/>
			<g id="XMLID_113_">
				<path id="XMLID_117_" class="st1" d="M463.9,960.5c0,19.3-77.1,0-77.1,0v-251c0,0,118.8-29.7,118.8,0
					C505.7,816.2,463.9,931.4,463.9,960.5z"/>
				<path id="XMLID_116_" class="st1" d="M442.8,1275.3h-41l-14.9-314.8h76.9c0,0,6.4,92.3,6.4,123.2
					C470.1,1170.3,442.8,1275.3,442.8,1275.3z"/>
				<path id="XMLID_115_" class="st1" d="M450.6,1370.3c-0.1,2.3-2.4,6-4.9,9.3c-3.8,5-9.7,7.8-15.9,7.8H400
					c-7,0-12.4-6.1-11.4-13.1l13.1-99h41C442.7,1275.3,451.6,1341.1,450.6,1370.3z"/>
			</g>
			<g id="XMLID_105_">
				<path id="XMLID_111_" class="st1" d="M293.3,960.5c0,19.3,77.1,0,77.1,0v-251c0,0-118.8-29.7-118.8,0
					C251.5,816.2,293.3,931.4,293.3,960.5z"/>
				<path id="XMLID_109_" class="st1" d="M314.4,1275.3h41l14.9-314.8h-76.9c0,0-6.4,92.3-6.4,123.2
					C287.1,1170.3,314.4,1275.3,314.4,1275.3z"/>
				<path id="XMLID_107_" class="st1" d="M306.6,1370.3c0.1,2.3,2.4,6,4.9,9.3c3.8,5,9.7,7.8,15.9,7.8h29.7c7,0,12.4-6.1,11.4-13.1
					l-13.1-99h-41C314.5,1275.3,305.6,1341.1,306.6,1370.3z"/>
			</g>
			<polygon id="XMLID_104_" class="st1" points="561.6,503 515.7,508.3 487.9,290.9 541,284.8 			"/>
			<path id="XMLID_103_" class="st1" d="M576.4,687.6l-27,3.1l-33.7-182.5c0,0,42.4-39.8,43.8-27.7c2.5,21.5,8.9,43.4,12.1,73.1
				C575.2,587,576.4,687.6,576.4,687.6z"/>
			<path id="XMLID_102_" class="st1" d="M576.4,687.6v41.4c0,8.9-2.7,17.6-7.9,24.9l-32.9,46.8c-2.7,3.9-8,4.9-11.9,2.3h0
				c-3.7-2.4-5-7.1-3.1-11.1l20.4-42.3l-2.8-15.3l-14.6,28.8c-0.7,1.3-2.2,2-3.7,1.6l0,0c-1.5-0.4-2.5-1.9-2.3-3.4l3.1-27.7
				c0.8-7.2,3.3-14.1,7.4-20.1l21.2-22.9L576.4,687.6z"/>
			<g id="XMLID_98_">
				<polygon id="XMLID_101_" class="st1" points="196.2,503 242.1,508.3 270,290.9 216.8,284.8 				"/>
				<path id="XMLID_100_" class="st1" d="M181.4,687.6l27,3.1l33.7-182.5c0,0-42.4-39.8-43.8-27.7c-2.5,21.5-8.9,43.4-12.1,73.1
					C182.6,587,181.4,687.6,181.4,687.6z"/>
				<path id="XMLID_99_" class="st1" d="M181.4,687.6v41.4c0,8.9,2.7,17.6,7.9,24.9l32.9,46.8c2.7,3.9,8,4.9,11.9,2.3l0,0
					c3.7-2.4,5-7.1,3.1-11.1l-20.4-42.3l2.8-15.3l14.6,28.8c0.7,1.3,2.2,2,3.7,1.6h0c1.5-0.4,2.5-1.9,2.3-3.4l-3.1-27.7
					c-0.8-7.2-3.3-14.1-7.4-20.1l-21.2-22.9L181.4,687.6z"/>
			</g>
		</g>
	</g>
	<g id="XMLID_88_">
		<g id="XMLID_92_">
			<path id="XMLID_94_" class="st2" d="M396.4,238.6L396.4,238.6c3.9-2.5,8.4-3.9,13.1-3.9h6.3c7.9,0.5,12.9,3.1,16,7.1
				c21.4,27.7,48.6,65,55.8,114.3c1.7,11.9-15.2,35.7-19.8,39.1c-55.8,41.5-87.2-27.9-87.2-27.9l5-109.7
				C385.9,249.9,390,242.8,396.4,238.6z"/>
			<circle id="XMLID_93_" class="st2" cx="433" cy="361.4" r="54.6"/>
		</g>
		<g id="XMLID_89_">
			<path id="XMLID_91_" class="st2" d="M362.2,238.6L362.2,238.6c-3.9-2.5-8.4-3.9-13.1-3.9h-6.3c-7.9,0.5-12.9,3.1-16,7.1
				c-21.4,27.7-48.6,65-55.8,114.3c-1.7,11.9,15.2,35.7,19.8,39.1c55.8,41.5,87.2-27.9,87.2-27.9l17.6-99L373,257.6
				C372.7,249.9,368.6,242.8,362.2,238.6z"/>
			<circle id="XMLID_90_" class="st2" cx="325.6" cy="361.4" r="54.6"/>
		</g>
	</g>
	<path id="XMLID_2_" class="st3" d="M378.9,681L378.9,681c-30.3,0-54.9-24.6-54.9-54.9v-61.7c0-30.3,24.6-54.9,54.9-54.9h0
		c30.3,0,54.9,24.6,54.9,54.9v61.7C433.8,656.5,409.2,681,378.9,681z"/>
	<g id="XMLID_66_">
		<g id="XMLID_71_">
			<g id="XMLID_81_">
				<circle id="XMLID_86_" class="st4" cx="346.5" cy="360" r="22.4"/>
				<circle id="XMLID_85_" class="st4" cx="316.7" cy="370.8" r="24.4"/>
				<circle id="XMLID_84_" class="st4" cx="355.4" cy="295.1" r="13.5"/>
				<rect id="XMLID_83_" x="339.1" y="295.1" class="st4" width="29.9" height="61"/>
				<path id="XMLID_82_" class="st4" d="M293.2,364.2c13.2-52.4,53.6-79.5,53.6-79.5l5.4,70.4C352.3,355,289.6,378.7,293.2,364.2z"
					/>
			</g>
			<g id="XMLID_74_">
				<circle id="XMLID_80_" class="st4" cx="412.1" cy="360" r="22.4"/>
				<circle id="XMLID_79_" class="st4" cx="441.9" cy="370.8" r="24.4"/>
				<circle id="XMLID_78_" class="st4" cx="403.2" cy="295.1" r="13.5"/>
				<rect id="XMLID_76_" x="389.6" y="295.1" class="st4" width="29.9" height="61"/>
				<path id="XMLID_75_" class="st4" d="M465.4,364.2c-13.2-52.4-53.6-79.5-53.6-79.5l-5.4,70.4C406.3,355,469,378.7,465.4,364.2z"
					/>
			</g>
		</g>
		<rect id="XMLID_70_" x="371.8" y="234.3" class="st4" width="14.9" height="56.1"/>
		<g id="XMLID_67_">
			
				<rect id="XMLID_69_" x="389.5" y="278.7" transform="matrix(0.7071 -0.7071 0.7071 0.7071 -100.6674 370.5298)" class="st4" width="14.9" height="56.1"/>
			
				<rect id="XMLID_68_" x="354.2" y="278.7" transform="matrix(-0.7071 -0.7071 0.7071 -0.7071 400.4718 779.4422)" class="st4" width="14.9" height="56.1"/>
		</g>
	</g>
	<g id="XMLID_20_">
		<path id="XMLID_65_" class="st5" d="M547,726.4c0,0,20.9-17.7,20.3-35.7c-1.6-43.9,1.6-76-1.6-100.3c-8-60.9-24.9-73-27.9-100.5
			c-2.6-23.1,5-164.8-13-199.7c-19.1-36.9-65.2-41.5-97.4-33c-22.8,6-28.3,24.1-30.4,35.6c-1.6,8.8-1.8,16.5,2.7,35.8"/>
		<path id="XMLID_63_" class="st5" d="M478.2,256.1c23.7,6.2,25.7,29.3,27.5,56.9c1.8,27.6,33.3,135.3,30.9,171.2
			c-2.4,35.9-1.1,91.7,6.5,115.8s21.6,54.8,23.8,80.9"/>
		<path id="XMLID_61_" class="st5" d="M211.9,726.4c0,0-20.9-17.7-20.3-35.7c1.6-43.9-1.6-76,1.6-100.3c8-60.9,24.9-73,27.9-100.5
			c2.6-23.1-5-164.8,13-199.7c19.1-36.9,65.2-41.5,97.4-33c22.8,6,47.4,21.8,51.6,35.6c2.6,8.6,8.6,16.5,4.2,35.8"/>
		<path id="XMLID_60_" class="st5" d="M280.7,256.1c-23.7,6.2-25.7,29.3-27.5,56.9c-1.8,27.6-33.3,135.3-30.9,171.2
			c2.4,35.9,1.1,91.7-6.5,115.8S194.2,655,192,681"/>
		<path id="XMLID_55_" class="st5" d="M427.4,257.3c0,0-23.1-47.7-24.2-62.9c-1.1-15.2,13.1-41.3,23.2-68.4
			c5.7-15.3,5-30.2,3.3-40.3c-1.3-7.6-6.4-14-13.5-16.9l-4.6-1.9"/>
		<line id="XMLID_54_" class="st5" x1="403.2" y1="191" x2="409" y2="266.6"/>
		<path id="XMLID_48_" class="st5" d="M330.1,256.4c0,0,23.1-46.8,24.2-62c1.1-15.2-13.1-41.3-23.2-68.4
			c-6.5-17.4-4.7-34.3-2.5-44.1c1.2-5.4,4.3-10.1,8.7-13.3L342,65"/>
		<line id="XMLID_40_" class="st5" x1="354.3" y1="191" x2="348.4" y2="263.2"/>
		<path id="XMLID_29_" class="st5" d="M383,376.9c0,0-3.9,223.5,0.4,234.6c4.3,11.1,78.3,67.9,82.1,115
			c8.8,108-27.9,228.6-29.6,234.1c-6.6,21.4,19,145.2,13.3,195.2c-5.7,50-26.4,117.2-29.7,141.5c-3.2,24.3-5.6,54.3-5.6,54.3"/>
		<path id="XMLID_27_" class="st5" d="M412.1,642.1c13,13.8,18.6,46.7,16.4,84.3c-2.1,37.6,8.4,197.7,2.4,249.2
			c-6,51.5-18.1,154.4-14.2,193s7.1,90.2,2.9,128.7"/>
		<path id="XMLID_26_" class="st5" d="M381.9,608c-4.3,11.1-86.7,71.3-90.5,118.4c-8.8,108,27.9,228.6,29.6,234.1
			c6.6,21.4-19,145.2-13.3,195.2c5.7,50,26.4,117.2,29.7,141.5c3.2,24.3,5.6,54.3,5.6,54.3"/>
		<path id="XMLID_21_" class="st5" d="M345.3,644.2c-13,13.8-19,44.6-16.9,82.2c2.1,37.6-8.4,197.7-2.4,249.2
			c6,51.5,18.1,154.4,14.2,193c-3.9,38.6-7.1,90.2-2.9,128.7"/>
	</g>
	<path id="XMLID_18_" class="st6" d="M384.4,305.6c0,0,4.3,6.4,3.8,7.8c-0.4,1.4-3.7,2.6-7.2,11c-2.3,5.8,0.9,11.3-0.6,12.4
		c-1.6,1.1-5.7,7.9-6.9,10.2c-8.9,16.7,4,34.6,13.3,41.2c9.3,6.5,18.4,6.7,24.3,9.3c8.2,3.5,19,5.8,25.3-5.3c0,0,4.1-8.5-1-24.1
		c-2.9-8.9-6.4-15.4-8.1-17.8c-5.5-7.7-11.2-11.2-13.8-12.6c-1.4-0.7-0.8-3.8,2-5c2.8-1.3,6-0.3,6-0.3l1-4c0,0-3.9-1.3-5.8-0.9
		c-1.9,0.3,2.1-4.2,2.3-7.3c0,0-2.7-2.3-4.4-1.7c0,0-1,3.7-3.5,7.7c0,0,1-9.6-5.9-14.6c0,0,1.6-8.1,2.1-8.8c0,0-3.2-1.7-4.5-1.4
		c0,0-1.9,8.1-2.2,8.3c-0.3,0.2-0.9,1.2-1.5,0.2c-0.6-1-0.8-9.6-0.8-9.6l-4.4,0.5c0,0,1.9,9.3,0.7,9.8c-0.4,0.2-0.8,0.8-1.6,0.1
		c-2.1-1.8-4.3-6.9-4.3-7.3C388.6,302.8,384.4,305.6,384.4,305.6z"/>
	<g id="XMLID_5_">
		<circle id="XMLID_15_" class="st3" cx="345.6" cy="64.4" r="13.6"/>
		<circle id="XMLID_13_" class="st3" cx="365.9" cy="52.8" r="14.7"/>
		<circle id="XMLID_12_" class="st3" cx="388.5" cy="51.4" r="16.3"/>
		<circle id="XMLID_11_" class="st3" cx="339.4" cy="69.9" r="8.1"/>
		<circle id="XMLID_10_" class="st3" cx="418.9" cy="69.9" r="8.1"/>
		<circle id="XMLID_9_" class="st3" cx="407.9" cy="58.4" r="11"/>
		<rect id="XMLID_8_" x="339.4" y="64.4" class="st3" width="79.6" height="13.6"/>
		<rect id="XMLID_6_" x="364.8" y="55.4" class="st3" width="14.3" height="17.6"/>
	</g>
</g>
<g id="General_x2F_Altres">
	<g id="XMLID_481_">
		<g id="XMLID_728_">
			<path id="XMLID_760_" class="st7" d="M98.2,441.5h-4.4v-1.4c-0.6,0.5-1.4,0.9-2.3,1.2c-0.9,0.3-2.1,0.5-3.4,0.5
				c-1.7,0-3.3-0.3-4.8-0.9c-1.4-0.6-2.7-1.4-3.7-2.4c-1-1-1.8-2.3-2.4-3.7s-0.9-3.1-0.9-4.9c0-1.6,0.3-3.2,0.8-4.6
				c0.6-1.4,1.4-2.7,2.4-3.8c1-1.1,2.3-1.9,3.7-2.5c1.5-0.6,3.1-0.9,4.8-0.9c1.2,0,2.3,0.1,3.3,0.4s1.9,0.6,2.6,1
				c0.8,0.4,1.4,0.9,2,1.4c0.6,0.5,1.1,1.1,1.5,1.7l-3.6,2.6c-0.3-0.4-0.6-0.7-0.9-1.1c-0.4-0.4-0.8-0.7-1.2-0.9
				c-0.5-0.3-1-0.5-1.6-0.7c-0.6-0.2-1.3-0.2-2-0.2c-1,0-2,0.2-2.8,0.6c-0.9,0.4-1.6,0.9-2.2,1.5c-0.6,0.7-1.1,1.4-1.4,2.4
				c-0.3,0.9-0.5,1.9-0.5,3c0,1.2,0.2,2.2,0.5,3.1s0.9,1.7,1.5,2.4c0.6,0.7,1.4,1.2,2.3,1.5c0.9,0.4,1.8,0.5,2.9,0.5
				c1.3,0,2.4-0.2,3.4-0.6c0.9-0.4,1.6-0.9,2.1-1.4V433H90v-3.8h8.2V441.5z"/>
			<path id="XMLID_758_" class="st7" d="M102.8,441.5v-22.8h10.5v4.3h-5.9v4.8h5.7v4.3h-5.7v5.2h6v4.3H102.8z"/>
			<path id="XMLID_756_" class="st7" d="M122,426.4v15.1h-4.5v-22.8h4.8l9.8,15.3v-15.3h4.5v22.8H132L122,426.4z"/>
			<path id="XMLID_754_" class="st7" d="M141.5,441.5v-22.8h10.5v4.3h-5.9v4.8h5.7v4.3h-5.7v5.2h6v4.3H141.5z"/>
			<path id="XMLID_751_" class="st7" d="M170.4,425.2c0,1.3-0.3,2.5-0.8,3.4c-0.6,1-1.3,1.7-2.3,2.2l5.4,10.7h-4.9l-4.9-9.8h-2v9.8
				h-4.6v-22.8h7.1c2.3,0,4,0.6,5.2,1.7S170.4,423.1,170.4,425.2z M160.8,422.6v5.3h2.1c0.8,0,1.5-0.2,1.9-0.7
				c0.5-0.5,0.7-1.1,0.7-2c0-0.8-0.2-1.4-0.7-1.9s-1.1-0.7-1.9-0.7H160.8z"/>
			<path id="XMLID_747_" class="st7" d="M189.2,435.2h-7.8l-2.2,6.3h-4.5l8.3-22.8h4.8l8.6,22.8h-4.9L189.2,435.2z M182.8,431.3h5
				l-2.5-6.9L182.8,431.3z"/>
			<path id="XMLID_745_" class="st7" d="M199.4,441.5v-22.8h4.6v18.5h5.8v4.3H199.4z"/>
			<path id="XMLID_743_" class="st7" d="M215.4,447.3h-4.1l11.4-29.9h4.1L215.4,447.3z"/>
			<path id="XMLID_740_" class="st7" d="M240.7,435.2h-7.8l-2.2,6.3h-4.5l8.3-22.8h4.8l8.6,22.8H243L240.7,435.2z M234.3,431.3h5
				l-2.5-6.9L234.3,431.3z"/>
			<path id="XMLID_738_" class="st7" d="M250.9,441.5v-22.8h4.6v18.5h5.8v4.3H250.9z"/>
			<path id="XMLID_736_" class="st7" d="M270.8,422.9v18.5h-4.6v-18.5H262v-4.3h12.9v4.3H270.8z"/>
			<path id="XMLID_733_" class="st7" d="M292.7,425.2c0,1.3-0.3,2.5-0.8,3.4c-0.6,1-1.3,1.7-2.3,2.2l5.4,10.7h-4.9l-4.9-9.8h-2v9.8
				h-4.6v-22.8h7.1c2.3,0,4,0.6,5.2,1.7S292.7,423.1,292.7,425.2z M283.2,422.6v5.3h2.1c0.8,0,1.5-0.2,1.9-0.7
				c0.5-0.5,0.7-1.1,0.7-2c0-0.8-0.2-1.4-0.7-1.9s-1.1-0.7-1.9-0.7H283.2z"/>
			<path id="XMLID_731_" class="st7" d="M297.7,441.5v-22.8h10.5v4.3h-5.9v4.8h5.7v4.3h-5.7v5.2h6v4.3H297.7z"/>
			<path id="XMLID_729_" class="st7" d="M316.5,424.5c0,0.6,0.2,1.1,0.5,1.5c0.3,0.4,0.9,0.8,1.6,1.1c0.5,0.2,1.1,0.5,1.6,0.7
				s1.1,0.5,1.8,0.7c1.4,0.6,2.5,1.4,3.2,2.4c0.8,1,1.2,2.3,1.2,3.9c0,1.1-0.2,2.1-0.6,3s-0.9,1.6-1.6,2.2s-1.5,1.1-2.4,1.4
				c-0.9,0.3-1.9,0.5-3,0.5c-1.5,0-2.8-0.2-3.7-0.7c-1-0.5-1.7-1-2.3-1.7s-0.9-1.5-1.1-2.4c-0.2-0.9-0.3-1.8-0.2-2.7h4.4
				c0,0.5,0,0.9,0.1,1.3c0.1,0.4,0.3,0.8,0.5,1.1c0.2,0.3,0.5,0.6,0.9,0.8s0.8,0.3,1.4,0.3c0.8,0,1.5-0.2,2-0.7
				c0.5-0.4,0.8-1.1,0.8-2c0-0.8-0.2-1.4-0.7-1.8c-0.4-0.4-1-0.8-1.8-1.1c-0.6-0.3-1.3-0.6-2-0.8c-0.7-0.2-1.3-0.5-2-0.9
				c-1.1-0.6-2-1.4-2.5-2.4c-0.6-1-0.9-2.2-0.9-3.6c0-0.9,0.2-1.8,0.5-2.6s0.8-1.5,1.4-2c0.6-0.6,1.3-1,2.2-1.3
				c0.9-0.3,1.8-0.5,2.9-0.5c1.3,0,2.4,0.2,3.3,0.5s1.6,0.9,2.1,1.5s0.9,1.3,1.1,2.2s0.3,1.7,0.3,2.6h-4.2c0-0.8-0.2-1.5-0.7-2
				s-1.1-0.8-1.9-0.8c-0.8,0-1.4,0.2-1.8,0.7C316.8,423.3,316.5,423.8,316.5,424.5z"/>
		</g>
	</g>
	<g id="XMLID_73_">
		<g id="XMLID_342_">
			<g id="XMLID_1648_">
				<path id="XMLID_1785_" class="st8" d="M76.7,493v-16.6H80v13.5h4.2v3.1H76.7z"/>
				<path id="XMLID_1782_" class="st8" d="M88.2,487.6c0.1,0.8,0.4,1.5,1,2c0.6,0.5,1.3,0.7,2.2,0.7c0.8,0,1.5-0.2,2-0.5
					c0.5-0.4,0.9-0.8,1.3-1.3l2.4,1.4c-0.2,0.4-0.4,0.8-0.8,1.2c-0.3,0.4-0.7,0.8-1.2,1.1c-0.5,0.3-1,0.6-1.6,0.8s-1.3,0.3-2.1,0.3
					c-1,0-1.9-0.2-2.7-0.5c-0.8-0.3-1.5-0.7-2.1-1.3c-0.6-0.6-1-1.3-1.3-2.1c-0.3-0.8-0.5-1.7-0.5-2.8c0-1,0.2-1.8,0.5-2.7
					c0.3-0.8,0.7-1.5,1.3-2.1c0.6-0.6,1.2-1.1,2-1.4s1.6-0.5,2.6-0.5c1,0,1.8,0.2,2.6,0.5s1.4,0.7,2,1.3c0.5,0.6,1,1.2,1.3,2
					c0.3,0.8,0.4,1.7,0.4,2.6c0,0.2,0,0.4,0,0.6c0,0.2,0,0.5,0,0.7H88.2z M91.1,482.6c-0.8,0-1.5,0.2-2,0.7
					c-0.5,0.5-0.8,1.1-0.9,1.8H94c-0.1-0.7-0.4-1.3-0.9-1.8C92.6,482.9,91.9,482.6,91.1,482.6z"/>
				<path id="XMLID_1780_" class="st8" d="M101.4,483.5c0,0.6,0.4,1,1.1,1.2c0.3,0.1,0.6,0.2,0.9,0.2c0.3,0.1,0.6,0.1,0.9,0.2
					c0.5,0.2,1,0.3,1.3,0.6s0.7,0.5,1,0.8c0.3,0.3,0.4,0.7,0.6,1.1c0.1,0.4,0.2,0.9,0.2,1.5c0,0.7-0.1,1.2-0.4,1.7
					c-0.2,0.5-0.6,0.9-1,1.2c-0.4,0.3-0.9,0.6-1.5,0.8c-0.6,0.2-1.2,0.3-1.8,0.3c-0.9,0-1.6-0.1-2.2-0.4c-0.6-0.2-1.1-0.6-1.4-1
					c-0.4-0.4-0.6-0.9-0.7-1.4c-0.1-0.5-0.2-1.1-0.2-1.6h3.1c0,0.5,0.1,0.9,0.3,1.2s0.6,0.5,1.2,0.5c0.4,0,0.8-0.1,1.1-0.3
					c0.3-0.2,0.4-0.5,0.4-0.9c0-0.4-0.1-0.6-0.3-0.8s-0.5-0.4-1-0.5c-0.4-0.1-0.7-0.2-1-0.3s-0.6-0.2-1-0.3c-0.9-0.3-1.6-0.8-2-1.4
					c-0.4-0.6-0.7-1.4-0.7-2.4c0-0.5,0.1-1,0.3-1.5c0.2-0.5,0.5-0.9,0.9-1.2c0.4-0.3,0.9-0.6,1.4-0.8c0.5-0.2,1.1-0.3,1.8-0.3
					c1.4,0,2.4,0.3,3.2,1c0.8,0.7,1.1,1.7,1.2,3h-3c0-0.5-0.1-0.9-0.4-1.2c-0.2-0.3-0.6-0.4-1.1-0.4c-0.4,0-0.7,0.1-0.9,0.3
					S101.4,483.2,101.4,483.5z"/>
				<path id="XMLID_1777_" class="st8" d="M110.3,479.3c-0.5,0-1-0.2-1.4-0.6s-0.6-0.8-0.6-1.3c0-0.5,0.2-1,0.6-1.4s0.8-0.6,1.4-0.6
					c0.5,0,1,0.2,1.4,0.6s0.6,0.8,0.6,1.4c0,0.5-0.2,1-0.6,1.3S110.8,479.3,110.3,479.3z M111.9,493h-3.2v-12.8h3.2V493z"/>
				<path id="XMLID_1774_" class="st8" d="M113.3,486.6c0-1,0.2-1.8,0.5-2.7c0.3-0.8,0.8-1.5,1.4-2.1c0.6-0.6,1.3-1.1,2.1-1.4
					s1.7-0.5,2.7-0.5c1,0,1.9,0.2,2.8,0.5s1.5,0.8,2.1,1.4c0.6,0.6,1,1.3,1.4,2.1c0.3,0.8,0.5,1.7,0.5,2.6s-0.2,1.8-0.5,2.6
					c-0.3,0.8-0.8,1.5-1.4,2.1c-0.6,0.6-1.3,1.1-2.1,1.4s-1.7,0.5-2.7,0.5c-1,0-1.9-0.2-2.7-0.5c-0.8-0.3-1.5-0.8-2.1-1.4
					c-0.6-0.6-1-1.3-1.4-2.1C113.5,488.4,113.3,487.5,113.3,486.6z M116.5,486.5c0,0.5,0.1,1,0.3,1.5s0.4,0.8,0.7,1.2
					c0.3,0.3,0.7,0.6,1.1,0.8c0.4,0.2,0.9,0.3,1.4,0.3c0.5,0,1-0.1,1.4-0.3c0.4-0.2,0.8-0.4,1.1-0.8s0.5-0.7,0.7-1.2
					c0.2-0.5,0.3-0.9,0.3-1.5s-0.1-1-0.3-1.5s-0.4-0.9-0.7-1.2c-0.3-0.3-0.7-0.6-1.1-0.8c-0.4-0.2-0.9-0.3-1.4-0.3
					c-0.5,0-1,0.1-1.4,0.3c-0.4,0.2-0.8,0.4-1.1,0.8c-0.3,0.3-0.5,0.7-0.7,1.2S116.5,486,116.5,486.5z"/>
				<path id="XMLID_1772_" class="st8" d="M134.8,484.9c0-0.6-0.1-1.1-0.4-1.5c-0.3-0.4-0.7-0.5-1.3-0.5c-0.6,0-1,0.2-1.3,0.6
					c-0.3,0.4-0.5,0.9-0.5,1.5v8.1h-3.2v-12.8h3.2v1c0.1-0.1,0.2-0.2,0.3-0.3c0.1-0.1,0.3-0.2,0.5-0.4c0.2-0.1,0.5-0.2,0.8-0.3
					c0.3-0.1,0.7-0.1,1.1-0.1c0.8,0,1.4,0.1,1.9,0.4c0.5,0.2,0.9,0.6,1.2,1c0.3,0.4,0.5,0.9,0.7,1.4c0.1,0.5,0.2,1.1,0.2,1.8v8.5
					h-3.2V484.9z"/>
				<path id="XMLID_1770_" class="st8" d="M142.7,483.5c0,0.6,0.4,1,1.1,1.2c0.3,0.1,0.6,0.2,0.9,0.2c0.3,0.1,0.6,0.1,0.9,0.2
					c0.5,0.2,1,0.3,1.3,0.6s0.7,0.5,1,0.8c0.3,0.3,0.4,0.7,0.6,1.1c0.1,0.4,0.2,0.9,0.2,1.5c0,0.7-0.1,1.2-0.4,1.7
					c-0.2,0.5-0.6,0.9-1,1.2c-0.4,0.3-0.9,0.6-1.5,0.8c-0.6,0.2-1.2,0.3-1.8,0.3c-0.9,0-1.6-0.1-2.2-0.4c-0.6-0.2-1.1-0.6-1.4-1
					c-0.4-0.4-0.6-0.9-0.7-1.4c-0.1-0.5-0.2-1.1-0.2-1.6h3.1c0,0.5,0.1,0.9,0.3,1.2s0.6,0.5,1.2,0.5c0.4,0,0.8-0.1,1.1-0.3
					c0.3-0.2,0.4-0.5,0.4-0.9c0-0.4-0.1-0.6-0.3-0.8s-0.5-0.4-1-0.5c-0.4-0.1-0.7-0.2-1-0.3s-0.6-0.2-1-0.3c-0.9-0.3-1.6-0.8-2-1.4
					c-0.4-0.6-0.7-1.4-0.7-2.4c0-0.5,0.1-1,0.3-1.5c0.2-0.5,0.5-0.9,0.9-1.2c0.4-0.3,0.9-0.6,1.4-0.8c0.5-0.2,1.1-0.3,1.8-0.3
					c1.4,0,2.4,0.3,3.2,1c0.8,0.7,1.1,1.7,1.2,3h-3c0-0.5-0.1-0.9-0.4-1.2c-0.2-0.3-0.6-0.4-1.1-0.4c-0.4,0-0.7,0.1-0.9,0.3
					S142.7,483.2,142.7,483.5z"/>
				<path id="XMLID_1767_" class="st8" d="M156.8,497.2h-3.2v-17h3v1.2c0.3-0.3,0.8-0.6,1.4-1c0.6-0.3,1.5-0.5,2.5-0.5
					c1,0,1.9,0.2,2.7,0.5s1.5,0.8,2,1.4s1,1.3,1.3,2.1c0.3,0.8,0.5,1.7,0.5,2.7c0,0.9-0.2,1.8-0.5,2.6c-0.3,0.8-0.7,1.5-1.3,2.1
					c-0.6,0.6-1.3,1.1-2.1,1.4c-0.8,0.3-1.7,0.5-2.7,0.5c-0.8,0-1.6-0.1-2.2-0.4c-0.6-0.3-1.1-0.6-1.4-0.8V497.2z M156.7,486.5
					c0,0.5,0.1,1,0.3,1.5c0.2,0.5,0.4,0.9,0.7,1.2c0.3,0.3,0.7,0.6,1.1,0.8s0.9,0.3,1.5,0.3c0.5,0,1-0.1,1.5-0.3s0.8-0.4,1.1-0.8
					c0.3-0.3,0.5-0.7,0.7-1.2c0.2-0.5,0.2-1,0.2-1.5s-0.1-1-0.3-1.5c-0.2-0.5-0.4-0.9-0.7-1.2c-0.3-0.3-0.7-0.6-1.1-0.8
					c-0.4-0.2-0.9-0.3-1.5-0.3c-0.5,0-1,0.1-1.5,0.3s-0.8,0.5-1.1,0.8c-0.3,0.3-0.5,0.7-0.7,1.2C156.8,485.5,156.7,486,156.7,486.5z
					"/>
				<path id="XMLID_1764_" class="st8" d="M171.3,487.6c0.1,0.8,0.4,1.5,1,2c0.6,0.5,1.3,0.7,2.2,0.7c0.8,0,1.5-0.2,2-0.5
					c0.5-0.4,0.9-0.8,1.3-1.3l2.4,1.4c-0.2,0.4-0.4,0.8-0.8,1.2c-0.3,0.4-0.7,0.8-1.2,1.1c-0.5,0.3-1,0.6-1.6,0.8s-1.3,0.3-2.1,0.3
					c-1,0-1.9-0.2-2.7-0.5c-0.8-0.3-1.5-0.7-2.1-1.3c-0.6-0.6-1-1.3-1.3-2.1c-0.3-0.8-0.5-1.7-0.5-2.8c0-1,0.2-1.8,0.5-2.7
					c0.3-0.8,0.7-1.5,1.3-2.1c0.6-0.6,1.2-1.1,2-1.4s1.6-0.5,2.6-0.5c1,0,1.8,0.2,2.6,0.5s1.4,0.7,2,1.3c0.5,0.6,1,1.2,1.3,2
					c0.3,0.8,0.4,1.7,0.4,2.6c0,0.2,0,0.4,0,0.6c0,0.2,0,0.5,0,0.7H171.3z M174.2,482.6c-0.8,0-1.5,0.2-2,0.7
					c-0.5,0.5-0.8,1.1-0.9,1.8h5.8c-0.1-0.7-0.4-1.3-0.9-1.8C175.8,482.9,175.1,482.6,174.2,482.6z"/>
				<path id="XMLID_1762_" class="st8" d="M187.6,483.4h-0.8c-0.6,0-1.1,0.1-1.3,0.4c-0.2,0.3-0.4,0.7-0.4,1.3v7.8h-3.2v-12.8h3.2v1
					c0.2-0.3,0.5-0.6,0.9-0.8c0.4-0.2,0.9-0.3,1.6-0.3V483.4z"/>
				<path id="XMLID_1759_" class="st8" d="M192.1,488.8c0-0.6,0.1-1.1,0.3-1.7s0.5-1,0.9-1.3c0.4-0.4,0.8-0.7,1.4-0.9
					c0.5-0.2,1.2-0.3,1.8-0.3c0.6,0,1.1,0.1,1.4,0.2s0.7,0.2,0.8,0.3v-0.6c0-0.6-0.1-1-0.4-1.4s-0.7-0.5-1.3-0.5
					c-0.3,0-0.6,0-0.8,0.1s-0.4,0.2-0.5,0.3c-0.1,0.1-0.2,0.3-0.3,0.5c0,0.2-0.1,0.4-0.1,0.5h-3c0-1.2,0.4-2.2,1.2-2.9
					c0.7-0.7,1.9-1.1,3.4-1.1c0.9,0,1.7,0.1,2.3,0.4s1.1,0.6,1.5,1c0.4,0.4,0.6,0.9,0.8,1.5c0.2,0.6,0.2,1.3,0.2,2v8.1h-2.7v-0.8
					c-0.2,0.2-0.5,0.4-0.9,0.6c-0.4,0.2-1,0.3-1.8,0.3c-0.6,0-1.2-0.1-1.8-0.3c-0.5-0.2-1-0.5-1.4-0.9c-0.4-0.4-0.7-0.8-0.9-1.4
					C192.2,490,192.1,489.4,192.1,488.8z M195.1,488.7c0,0.5,0.2,1,0.5,1.3c0.3,0.3,0.8,0.5,1.4,0.5c0.5,0,1-0.2,1.3-0.5
					c0.4-0.3,0.5-0.8,0.5-1.3s-0.2-1-0.5-1.3c-0.4-0.3-0.8-0.5-1.3-0.5c-0.6,0-1,0.2-1.3,0.5C195.3,487.8,195.1,488.2,195.1,488.7z"
					/>
				<path id="XMLID_1757_" class="st8" d="M210,490.3c0.7,0,1.2-0.1,1.6-0.3c0.4-0.2,0.8-0.5,1.1-0.7l1.8,2.2
					c-0.2,0.2-0.4,0.4-0.7,0.6s-0.6,0.4-1,0.6c-0.4,0.2-0.8,0.3-1.3,0.4c-0.5,0.1-1,0.2-1.5,0.2c-1,0-1.9-0.2-2.7-0.5
					c-0.8-0.3-1.5-0.8-2.1-1.4c-0.6-0.6-1-1.3-1.3-2.1c-0.3-0.8-0.5-1.7-0.5-2.6c0-0.9,0.2-1.8,0.5-2.6s0.8-1.5,1.4-2.1
					c0.6-0.6,1.3-1.1,2.1-1.4c0.8-0.3,1.7-0.5,2.7-0.5c0.6,0,1.1,0.1,1.6,0.2c0.5,0.1,0.9,0.2,1.3,0.4s0.7,0.4,1,0.6
					c0.3,0.2,0.5,0.4,0.7,0.6l-1.8,2.2c-0.3-0.3-0.6-0.5-1-0.7c-0.4-0.2-1-0.3-1.6-0.3c-0.5,0-1,0.1-1.4,0.3
					c-0.4,0.2-0.8,0.5-1.1,0.8s-0.5,0.7-0.7,1.2c-0.2,0.5-0.2,0.9-0.2,1.5c0,0.6,0.1,1.1,0.3,1.5c0.2,0.5,0.4,0.8,0.8,1.2
					s0.7,0.6,1.1,0.7C209.1,490.2,209.5,490.3,210,490.3z"/>
				<path id="XMLID_1755_" class="st8" d="M221,490.3c0.7,0,1.2-0.1,1.6-0.3c0.4-0.2,0.8-0.5,1.1-0.7l1.8,2.2
					c-0.2,0.2-0.4,0.4-0.7,0.6s-0.6,0.4-1,0.6c-0.4,0.2-0.8,0.3-1.3,0.4c-0.5,0.1-1,0.2-1.5,0.2c-1,0-1.9-0.2-2.7-0.5
					c-0.8-0.3-1.5-0.8-2.1-1.4c-0.6-0.6-1-1.3-1.3-2.1c-0.3-0.8-0.5-1.7-0.5-2.6c0-0.9,0.2-1.8,0.5-2.6s0.8-1.5,1.4-2.1
					c0.6-0.6,1.3-1.1,2.1-1.4c0.8-0.3,1.7-0.5,2.7-0.5c0.6,0,1.1,0.1,1.6,0.2c0.5,0.1,0.9,0.2,1.3,0.4s0.7,0.4,1,0.6
					c0.3,0.2,0.5,0.4,0.7,0.6l-1.8,2.2c-0.3-0.3-0.6-0.5-1-0.7c-0.4-0.2-1-0.3-1.6-0.3c-0.5,0-1,0.1-1.4,0.3
					c-0.4,0.2-0.8,0.5-1.1,0.8s-0.5,0.7-0.7,1.2c-0.2,0.5-0.2,0.9-0.2,1.5c0,0.6,0.1,1.1,0.3,1.5c0.2,0.5,0.4,0.8,0.8,1.2
					s0.7,0.6,1.1,0.7C220.1,490.2,220.5,490.3,221,490.3z"/>
				<path id="XMLID_1752_" class="st8" d="M228.1,479.3c-0.5,0-1-0.2-1.4-0.6s-0.6-0.8-0.6-1.3c0-0.5,0.2-1,0.6-1.4s0.8-0.6,1.4-0.6
					c0.5,0,1,0.2,1.4,0.6s0.6,0.8,0.6,1.4c0,0.5-0.2,1-0.6,1.3S228.6,479.3,228.1,479.3z M229.7,493h-3.2v-12.8h3.2V493z"/>
				<path id="XMLID_1749_" class="st8" d="M241.5,491.7c-0.4,0.4-0.9,0.8-1.6,1.1s-1.4,0.4-2.2,0.4c-1,0-1.9-0.2-2.7-0.5
					c-0.8-0.3-1.5-0.8-2.1-1.4c-0.6-0.6-1-1.3-1.3-2.1c-0.3-0.8-0.5-1.7-0.5-2.7c0-0.9,0.2-1.8,0.5-2.6c0.3-0.8,0.8-1.5,1.3-2.1
					c0.6-0.6,1.3-1.1,2.1-1.4c0.8-0.3,1.7-0.5,2.6-0.5c0.8,0,1.5,0.1,2.2,0.3c0.6,0.2,1.1,0.5,1.5,0.9v-5.7h3.2V493h-3V491.7z
					 M234.3,486.5c0,0.5,0.1,1,0.3,1.5c0.2,0.5,0.4,0.8,0.7,1.2c0.3,0.3,0.7,0.6,1.1,0.8c0.4,0.2,0.9,0.3,1.4,0.3
					c0.5,0,1-0.1,1.5-0.3c0.4-0.2,0.8-0.5,1.1-0.8c0.3-0.3,0.5-0.7,0.7-1.2s0.3-1,0.3-1.5c0-0.5-0.1-1-0.3-1.5s-0.4-0.9-0.7-1.2
					s-0.7-0.6-1.1-0.8c-0.4-0.2-0.9-0.3-1.4-0.3c-0.5,0-1,0.1-1.5,0.3c-0.4,0.2-0.8,0.5-1.1,0.8c-0.3,0.3-0.6,0.7-0.7,1.2
					S234.3,486,234.3,486.5z"/>
				<path id="XMLID_1746_" class="st8" d="M249.3,487.6c0.1,0.8,0.4,1.5,1,2c0.6,0.5,1.3,0.7,2.2,0.7c0.8,0,1.5-0.2,2-0.5
					c0.5-0.4,0.9-0.8,1.3-1.3l2.4,1.4c-0.2,0.4-0.4,0.8-0.8,1.2c-0.3,0.4-0.7,0.8-1.2,1.1c-0.5,0.3-1,0.6-1.6,0.8
					c-0.6,0.2-1.3,0.3-2.1,0.3c-1,0-1.9-0.2-2.7-0.5c-0.8-0.3-1.5-0.7-2.1-1.3c-0.6-0.6-1-1.3-1.3-2.1s-0.5-1.7-0.5-2.8
					c0-1,0.2-1.8,0.5-2.7s0.7-1.5,1.3-2.1c0.6-0.6,1.2-1.1,2-1.4c0.8-0.3,1.6-0.5,2.6-0.5c1,0,1.8,0.2,2.6,0.5
					c0.8,0.3,1.4,0.7,2,1.3c0.5,0.6,1,1.2,1.3,2c0.3,0.8,0.4,1.7,0.4,2.6c0,0.2,0,0.4,0,0.6c0,0.2,0,0.5,0,0.7H249.3z M252.2,482.6
					c-0.8,0-1.5,0.2-2,0.7c-0.5,0.5-0.8,1.1-0.9,1.8h5.8c-0.1-0.7-0.4-1.3-0.9-1.8C253.8,482.9,253.1,482.6,252.2,482.6z"/>
				<path id="XMLID_1744_" class="st8" d="M266.5,484.9c0-0.6-0.1-1.1-0.4-1.5c-0.3-0.4-0.7-0.5-1.3-0.5c-0.6,0-1,0.2-1.3,0.6
					c-0.3,0.4-0.5,0.9-0.5,1.5v8.1h-3.2v-12.8h3.2v1c0.1-0.1,0.2-0.2,0.3-0.3s0.3-0.2,0.5-0.4c0.2-0.1,0.5-0.2,0.8-0.3
					s0.7-0.1,1.1-0.1c0.8,0,1.4,0.1,1.9,0.4s0.9,0.6,1.2,1s0.5,0.9,0.7,1.4c0.1,0.5,0.2,1.1,0.2,1.8v8.5h-3.2V484.9z"/>
				<path id="XMLID_1742_" class="st8" d="M275.1,480.1h2v2.7h-2v6c0,0.5,0.1,0.8,0.3,1c0.2,0.2,0.5,0.3,1,0.3h0.7v2.7
					c0,0-0.2,0-0.5,0.1c-0.3,0.1-0.7,0.1-1.3,0.1c-1.2,0-2.1-0.3-2.6-0.9c-0.5-0.6-0.8-1.4-0.8-2.5v-6.9h-1.2v-2.7h1.2v-2h3.2V480.1
					z"/>
				<path id="XMLID_1740_" class="st8" d="M281.1,483.5c0,0.6,0.4,1,1.1,1.2c0.3,0.1,0.6,0.2,0.9,0.2c0.3,0.1,0.6,0.1,0.9,0.2
					c0.5,0.2,1,0.3,1.3,0.6c0.4,0.2,0.7,0.5,1,0.8c0.3,0.3,0.4,0.7,0.6,1.1c0.1,0.4,0.2,0.9,0.2,1.5c0,0.7-0.1,1.2-0.4,1.7
					c-0.2,0.5-0.6,0.9-1,1.2c-0.4,0.3-0.9,0.6-1.5,0.8s-1.2,0.3-1.8,0.3c-0.9,0-1.6-0.1-2.2-0.4c-0.6-0.2-1.1-0.6-1.4-1
					c-0.4-0.4-0.6-0.9-0.7-1.4c-0.1-0.5-0.2-1.1-0.2-1.6h3.1c0,0.5,0.1,0.9,0.3,1.2c0.2,0.3,0.6,0.5,1.2,0.5c0.4,0,0.8-0.1,1.1-0.3
					s0.4-0.5,0.4-0.9c0-0.4-0.1-0.6-0.3-0.8c-0.2-0.2-0.5-0.4-1-0.5c-0.4-0.1-0.7-0.2-1-0.3c-0.3-0.1-0.6-0.2-1-0.3
					c-0.9-0.3-1.6-0.8-2-1.4c-0.4-0.6-0.7-1.4-0.7-2.4c0-0.5,0.1-1,0.3-1.5s0.5-0.9,0.9-1.2c0.4-0.3,0.9-0.6,1.4-0.8
					c0.5-0.2,1.1-0.3,1.8-0.3c1.4,0,2.4,0.3,3.2,1c0.8,0.7,1.1,1.7,1.2,3h-3c0-0.5-0.1-0.9-0.4-1.2c-0.2-0.3-0.6-0.4-1.1-0.4
					c-0.4,0-0.7,0.1-0.9,0.3S281.1,483.2,281.1,483.5z"/>
				<path id="XMLID_1737_" class="st8" d="M302,491.7c-0.4,0.4-0.9,0.8-1.6,1.1s-1.4,0.4-2.2,0.4c-1,0-1.9-0.2-2.7-0.5
					c-0.8-0.3-1.5-0.8-2.1-1.4c-0.6-0.6-1-1.3-1.3-2.1c-0.3-0.8-0.5-1.7-0.5-2.7c0-0.9,0.2-1.8,0.5-2.6s0.8-1.5,1.3-2.1
					c0.6-0.6,1.3-1.1,2.1-1.4c0.8-0.3,1.7-0.5,2.6-0.5c0.8,0,1.5,0.1,2.2,0.3c0.6,0.2,1.1,0.5,1.5,0.9v-5.7h3.2V493h-3V491.7z
					 M294.8,486.5c0,0.5,0.1,1,0.3,1.5c0.2,0.5,0.4,0.8,0.7,1.2c0.3,0.3,0.7,0.6,1.1,0.8s0.9,0.3,1.4,0.3c0.5,0,1-0.1,1.5-0.3
					s0.8-0.5,1.1-0.8c0.3-0.3,0.5-0.7,0.7-1.2s0.3-1,0.3-1.5c0-0.5-0.1-1-0.3-1.5s-0.4-0.9-0.7-1.2s-0.7-0.6-1.1-0.8
					c-0.4-0.2-0.9-0.3-1.4-0.3c-0.5,0-1,0.1-1.5,0.3c-0.4,0.2-0.8,0.5-1.1,0.8s-0.6,0.7-0.7,1.2S294.8,486,294.8,486.5z"/>
				<path id="XMLID_1734_" class="st8" d="M309.8,487.6c0.1,0.8,0.4,1.5,1,2c0.6,0.5,1.3,0.7,2.2,0.7c0.8,0,1.5-0.2,2-0.5
					c0.5-0.4,0.9-0.8,1.3-1.3l2.4,1.4c-0.2,0.4-0.4,0.8-0.8,1.2c-0.3,0.4-0.7,0.8-1.2,1.1c-0.5,0.3-1,0.6-1.6,0.8
					c-0.6,0.2-1.3,0.3-2.1,0.3c-1,0-1.9-0.2-2.7-0.5s-1.5-0.7-2.1-1.3c-0.6-0.6-1-1.3-1.3-2.1c-0.3-0.8-0.5-1.7-0.5-2.8
					c0-1,0.2-1.8,0.5-2.7c0.3-0.8,0.7-1.5,1.3-2.1c0.6-0.6,1.2-1.1,2-1.4c0.8-0.3,1.6-0.5,2.6-0.5c1,0,1.8,0.2,2.6,0.5
					c0.8,0.3,1.4,0.7,2,1.3c0.5,0.6,1,1.2,1.3,2c0.3,0.8,0.4,1.7,0.4,2.6c0,0.2,0,0.4,0,0.6c0,0.2,0,0.5,0,0.7H309.8z M312.7,482.6
					c-0.8,0-1.5,0.2-2,0.7c-0.5,0.5-0.8,1.1-0.9,1.8h5.8c-0.1-0.7-0.4-1.3-0.9-1.8S313.5,482.6,312.7,482.6z"/>
				<path id="XMLID_1732_" class="st8" d="M327.7,480.1h1.9v2.7h-1.9V493h-3.2v-10.1h-1.2v-2.7h1.2v-0.6c0-0.6,0.1-1.2,0.2-1.7
					c0.1-0.5,0.4-0.9,0.7-1.3c0.3-0.4,0.7-0.6,1.3-0.8c0.5-0.2,1.2-0.3,1.9-0.3c0.1,0,0.2,0,0.5,0c0.2,0,0.4,0,0.6,0v2.7H329
					c-0.5,0-0.9,0.1-1.1,0.4c-0.2,0.3-0.2,0.6-0.2,1V480.1z"/>
				<path id="XMLID_1729_" class="st8" d="M333.1,487.6c0.1,0.8,0.4,1.5,1,2c0.6,0.5,1.3,0.7,2.2,0.7c0.8,0,1.5-0.2,2-0.5
					c0.5-0.4,0.9-0.8,1.3-1.3l2.4,1.4c-0.2,0.4-0.4,0.8-0.8,1.2c-0.3,0.4-0.7,0.8-1.2,1.1c-0.5,0.3-1,0.6-1.6,0.8
					c-0.6,0.2-1.3,0.3-2.1,0.3c-1,0-1.9-0.2-2.7-0.5s-1.5-0.7-2.1-1.3c-0.6-0.6-1-1.3-1.3-2.1c-0.3-0.8-0.5-1.7-0.5-2.8
					c0-1,0.2-1.8,0.5-2.7c0.3-0.8,0.7-1.5,1.3-2.1c0.6-0.6,1.2-1.1,2-1.4c0.8-0.3,1.6-0.5,2.6-0.5c1,0,1.8,0.2,2.6,0.5
					c0.8,0.3,1.4,0.7,2,1.3c0.5,0.6,1,1.2,1.3,2c0.3,0.8,0.4,1.7,0.4,2.6c0,0.2,0,0.4,0,0.6c0,0.2,0,0.5,0,0.7H333.1z M336,482.6
					c-0.8,0-1.5,0.2-2,0.7c-0.5,0.5-0.8,1.1-0.9,1.8h5.8c-0.1-0.7-0.4-1.3-0.9-1.8S336.9,482.6,336,482.6z"/>
				<path id="XMLID_1726_" class="st8" d="M345.3,479.3c-0.5,0-1-0.2-1.4-0.6c-0.4-0.4-0.6-0.8-0.6-1.3c0-0.5,0.2-1,0.6-1.4
					c0.4-0.4,0.8-0.6,1.4-0.6c0.5,0,1,0.2,1.4,0.6c0.4,0.4,0.6,0.8,0.6,1.4c0,0.5-0.2,1-0.6,1.3
					C346.3,479.1,345.8,479.3,345.3,479.3z M346.9,493h-3.2v-12.8h3.2V493z"/>
				<path id="XMLID_1724_" class="st8" d="M355.5,484.9c0-0.6-0.1-1.1-0.4-1.5c-0.3-0.4-0.7-0.5-1.3-0.5c-0.6,0-1,0.2-1.3,0.6
					c-0.3,0.4-0.5,0.9-0.5,1.5v8.1h-3.2v-12.8h3.2v1c0.1-0.1,0.2-0.2,0.3-0.3s0.3-0.2,0.5-0.4c0.2-0.1,0.5-0.2,0.8-0.3
					s0.7-0.1,1.1-0.1c0.8,0,1.4,0.1,1.9,0.4s0.9,0.6,1.2,1s0.5,0.9,0.7,1.4c0.1,0.5,0.2,1.1,0.2,1.8v8.5h-3.2V484.9z"/>
				<path id="XMLID_1721_" class="st8" d="M360.1,488.8c0-0.6,0.1-1.1,0.3-1.7c0.2-0.5,0.5-1,0.9-1.3s0.8-0.7,1.4-0.9
					c0.5-0.2,1.2-0.3,1.8-0.3c0.6,0,1.1,0.1,1.4,0.2c0.4,0.1,0.7,0.2,0.8,0.3v-0.6c0-0.6-0.1-1-0.4-1.4s-0.7-0.5-1.3-0.5
					c-0.3,0-0.6,0-0.8,0.1c-0.2,0.1-0.4,0.2-0.5,0.3c-0.1,0.1-0.2,0.3-0.3,0.5c0,0.2-0.1,0.4-0.1,0.5h-3c0-1.2,0.4-2.2,1.2-2.9
					c0.7-0.7,1.9-1.1,3.4-1.1c0.9,0,1.7,0.1,2.3,0.4c0.6,0.2,1.1,0.6,1.5,1c0.4,0.4,0.6,0.9,0.8,1.5c0.2,0.6,0.2,1.3,0.2,2v8.1h-2.7
					v-0.8c-0.2,0.2-0.5,0.4-0.9,0.6c-0.4,0.2-1,0.3-1.8,0.3c-0.6,0-1.2-0.1-1.8-0.3c-0.5-0.2-1-0.5-1.4-0.9
					c-0.4-0.4-0.7-0.8-0.9-1.4C360.2,490,360.1,489.4,360.1,488.8z M363.1,488.7c0,0.5,0.2,1,0.5,1.3c0.3,0.3,0.8,0.5,1.4,0.5
					c0.5,0,1-0.2,1.3-0.5c0.4-0.3,0.5-0.8,0.5-1.3s-0.2-1-0.5-1.3c-0.4-0.3-0.8-0.5-1.3-0.5c-0.6,0-1,0.2-1.3,0.5
					C363.3,487.8,363.1,488.2,363.1,488.7z"/>
				<path id="XMLID_1718_" class="st8" d="M377,479.3c-0.5,0-1-0.2-1.4-0.6c-0.4-0.4-0.6-0.8-0.6-1.3c0-0.5,0.2-1,0.6-1.4
					c0.4-0.4,0.8-0.6,1.4-0.6c0.5,0,1,0.2,1.4,0.6c0.4,0.4,0.6,0.8,0.6,1.4c0,0.5-0.2,1-0.6,1.3C378,479.1,377.6,479.3,377,479.3z
					 M378.6,493h-3.2v-12.8h3.2V493z"/>
				<path id="XMLID_1716_" class="st8" d="M387.9,480.1h2v2.7h-2v6c0,0.5,0.1,0.8,0.3,1c0.2,0.2,0.5,0.3,1,0.3h0.7v2.7
					c0,0-0.2,0-0.5,0.1c-0.3,0.1-0.7,0.1-1.3,0.1c-1.2,0-2.1-0.3-2.6-0.9c-0.5-0.6-0.8-1.4-0.8-2.5v-6.9h-1.2v-2.7h1.2v-2h3.2V480.1
					z"/>
				<path id="XMLID_1714_" class="st8" d="M397,483.4h-0.8c-0.6,0-1.1,0.1-1.3,0.4s-0.4,0.7-0.4,1.3v7.8h-3.2v-12.8h3.2v1
					c0.2-0.3,0.5-0.6,0.9-0.8c0.4-0.2,0.9-0.3,1.6-0.3V483.4z"/>
				<path id="XMLID_1710_" class="st8" d="M397.4,488.8c0-0.6,0.1-1.1,0.3-1.7c0.2-0.5,0.5-1,0.9-1.3s0.8-0.7,1.4-0.9
					c0.5-0.2,1.2-0.3,1.8-0.3c0.6,0,1.1,0.1,1.4,0.2c0.4,0.1,0.7,0.2,0.8,0.3v-0.6c0-0.6-0.1-1-0.4-1.4s-0.7-0.5-1.3-0.5
					c-0.3,0-0.6,0-0.8,0.1c-0.2,0.1-0.4,0.2-0.5,0.3c-0.1,0.1-0.2,0.3-0.3,0.5c0,0.2-0.1,0.4-0.1,0.5h-3c0-1.2,0.4-2.2,1.2-2.9
					c0.7-0.7,1.9-1.1,3.4-1.1c0.9,0,1.7,0.1,2.3,0.4c0.6,0.2,1.1,0.6,1.5,1c0.4,0.4,0.6,0.9,0.8,1.5c0.2,0.6,0.2,1.3,0.2,2v8.1h-2.7
					v-0.8c-0.2,0.2-0.5,0.4-0.9,0.6c-0.4,0.2-1,0.3-1.8,0.3c-0.6,0-1.2-0.1-1.8-0.3c-0.5-0.2-1-0.5-1.4-0.9
					c-0.4-0.4-0.7-0.8-0.9-1.4C397.6,490,397.4,489.4,397.4,488.8z M402.4,475.9l1.8,3.3h-3l-1.9-3.3H402.4z M400.5,488.7
					c0,0.5,0.2,1,0.5,1.3c0.3,0.3,0.8,0.5,1.4,0.5c0.5,0,1-0.2,1.3-0.5c0.4-0.3,0.5-0.8,0.5-1.3s-0.2-1-0.5-1.3
					c-0.4-0.3-0.8-0.5-1.3-0.5c-0.6,0-1,0.2-1.3,0.5C400.6,487.8,400.5,488.2,400.5,488.7z"/>
				<path id="XMLID_1708_" class="st8" d="M415.9,484.9c0-0.6-0.1-1.1-0.4-1.5c-0.3-0.4-0.7-0.5-1.3-0.5c-0.6,0-1,0.2-1.3,0.6
					c-0.3,0.4-0.5,0.9-0.5,1.5v8.1h-3.2v-12.8h3.2v1c0.1-0.1,0.2-0.2,0.3-0.3s0.3-0.2,0.5-0.4c0.2-0.1,0.5-0.2,0.8-0.3
					s0.7-0.1,1.1-0.1c0.8,0,1.4,0.1,1.9,0.4s0.9,0.6,1.2,1s0.5,0.9,0.7,1.4c0.1,0.5,0.2,1.1,0.2,1.8v8.5h-3.2V484.9z"/>
				<path id="XMLID_1706_" class="st8" d="M423.7,483.5c0,0.6,0.4,1,1.1,1.2c0.3,0.1,0.6,0.2,0.9,0.2c0.3,0.1,0.6,0.1,0.9,0.2
					c0.5,0.2,1,0.3,1.3,0.6c0.4,0.2,0.7,0.5,1,0.8c0.3,0.3,0.4,0.7,0.6,1.1c0.1,0.4,0.2,0.9,0.2,1.5c0,0.7-0.1,1.2-0.4,1.7
					c-0.2,0.5-0.6,0.9-1,1.2s-0.9,0.6-1.5,0.8c-0.6,0.2-1.2,0.3-1.8,0.3c-0.9,0-1.6-0.1-2.2-0.4c-0.6-0.2-1.1-0.6-1.4-1
					c-0.4-0.4-0.6-0.9-0.7-1.4c-0.1-0.5-0.2-1.1-0.2-1.6h3.1c0,0.5,0.1,0.9,0.3,1.2c0.2,0.3,0.6,0.5,1.2,0.5c0.4,0,0.8-0.1,1.1-0.3
					c0.3-0.2,0.4-0.5,0.4-0.9c0-0.4-0.1-0.6-0.3-0.8c-0.2-0.2-0.5-0.4-1-0.5c-0.4-0.1-0.7-0.2-1-0.3c-0.3-0.1-0.6-0.2-1-0.3
					c-0.9-0.3-1.6-0.8-2-1.4c-0.4-0.6-0.7-1.4-0.7-2.4c0-0.5,0.1-1,0.3-1.5c0.2-0.5,0.5-0.9,0.9-1.2c0.4-0.3,0.9-0.6,1.4-0.8
					c0.5-0.2,1.1-0.3,1.8-0.3c1.4,0,2.4,0.3,3.2,1c0.8,0.7,1.1,1.7,1.2,3h-3c0-0.5-0.1-0.9-0.4-1.2c-0.2-0.3-0.6-0.4-1.1-0.4
					c-0.4,0-0.7,0.1-0.9,0.3S423.7,483.2,423.7,483.5z"/>
				<path id="XMLID_1703_" class="st8" d="M432.6,479.3c-0.5,0-1-0.2-1.4-0.6c-0.4-0.4-0.6-0.8-0.6-1.3c0-0.5,0.2-1,0.6-1.4
					c0.4-0.4,0.8-0.6,1.4-0.6c0.5,0,1,0.2,1.4,0.6c0.4,0.4,0.6,0.8,0.6,1.4c0,0.5-0.2,1-0.6,1.3
					C433.6,479.1,433.2,479.3,432.6,479.3z M434.2,493H431v-12.8h3.2V493z"/>
				<path id="XMLID_1701_" class="st8" d="M439.9,480.1h2v2.7h-2v6c0,0.5,0.1,0.8,0.3,1c0.2,0.2,0.5,0.3,1,0.3h0.7v2.7
					c0,0-0.2,0-0.5,0.1c-0.3,0.1-0.7,0.1-1.3,0.1c-1.2,0-2.1-0.3-2.6-0.9c-0.5-0.6-0.8-1.4-0.8-2.5v-6.9h-1.2v-2.7h1.2v-2h3.2V480.1
					z"/>
				<path id="XMLID_1698_" class="st7" d="M86,524.4h-5.7l-1.6,4.6h-3.3l6-16.6h3.5l6.3,16.6h-3.5L86,524.4z M81.4,521.6H85l-1.8-5
					L81.4,521.6z"/>
				<path id="XMLID_1696_" class="st7" d="M96.2,524.2c0,0.6,0.1,1.1,0.4,1.5s0.7,0.6,1.3,0.6s1-0.2,1.3-0.6
					c0.3-0.4,0.5-0.9,0.5-1.5v-8h3.2V529h-3.2v-1c-0.2,0.2-0.5,0.5-0.9,0.7c-0.4,0.3-1,0.4-1.8,0.4c-0.7,0-1.3-0.1-1.8-0.3
					c-0.5-0.2-0.9-0.5-1.2-0.9c-0.3-0.4-0.6-0.9-0.7-1.4c-0.1-0.6-0.2-1.2-0.2-1.8v-8.5h3.2V524.2z"/>
				<path id="XMLID_1693_" class="st7" d="M115.8,516.1h3v10.7c0,1.2-0.2,2.2-0.5,3.1c-0.3,0.8-0.8,1.5-1.4,2
					c-0.6,0.5-1.3,0.9-2.2,1.1c-0.8,0.2-1.8,0.3-2.7,0.3c-1,0-1.9-0.1-2.7-0.3c-0.8-0.2-1.5-0.5-2-0.8l1-2.5
					c0.4,0.2,0.9,0.5,1.6,0.7c0.7,0.2,1.4,0.3,2.2,0.3c0.5,0,1-0.1,1.4-0.2c0.4-0.1,0.8-0.3,1.2-0.5c0.3-0.2,0.6-0.5,0.8-0.9
					c0.2-0.3,0.3-0.8,0.3-1.2v-0.2c-0.1,0.2-0.3,0.3-0.5,0.5s-0.5,0.3-0.8,0.5c-0.3,0.1-0.6,0.3-1,0.3s-0.8,0.1-1.2,0.1
					c-1,0-1.9-0.2-2.7-0.5c-0.8-0.3-1.5-0.8-2.1-1.4c-0.6-0.6-1-1.3-1.4-2.1c-0.3-0.8-0.5-1.7-0.5-2.7c0-0.9,0.2-1.8,0.5-2.6
					c0.3-0.8,0.8-1.5,1.3-2.1c0.6-0.6,1.3-1.1,2.1-1.4c0.8-0.3,1.7-0.5,2.6-0.5c0.8,0,1.6,0.1,2.2,0.4s1.2,0.6,1.6,1V516.1z
					 M108.7,522.6c0,0.5,0.1,1,0.3,1.5c0.2,0.5,0.4,0.8,0.7,1.2c0.3,0.3,0.7,0.6,1.1,0.8c0.4,0.2,0.9,0.3,1.4,0.3
					c0.5,0,1-0.1,1.5-0.3c0.4-0.2,0.8-0.5,1.1-0.8s0.5-0.7,0.7-1.2c0.2-0.5,0.3-0.9,0.3-1.5c0-0.5-0.1-1-0.3-1.5
					c-0.2-0.5-0.4-0.9-0.7-1.2s-0.7-0.6-1.1-0.8c-0.4-0.2-0.9-0.3-1.4-0.3c-0.5,0-1,0.1-1.5,0.3c-0.4,0.2-0.8,0.5-1.1,0.8
					c-0.3,0.3-0.6,0.7-0.7,1.2C108.8,521.5,108.7,522,108.7,522.6z"/>
				<path id="XMLID_1691_" class="st7" d="M131.8,529h-3.2v-8.1c0-0.6-0.1-1.1-0.4-1.5c-0.3-0.4-0.7-0.6-1.3-0.6
					c-0.6,0-1,0.2-1.3,0.6c-0.3,0.4-0.4,0.9-0.4,1.5v8h-3.2v-12.8h3.2v1c0.2-0.2,0.5-0.4,0.9-0.7s1-0.4,1.9-0.4
					c0.8,0,1.4,0.1,1.9,0.4s0.9,0.6,1.2,1c0.3-0.3,0.7-0.7,1.2-0.9c0.5-0.3,1.2-0.4,2-0.4c0.8,0,1.5,0.1,2,0.4c0.6,0.2,1,0.6,1.3,1
					c0.3,0.4,0.6,0.9,0.7,1.4c0.2,0.5,0.2,1.1,0.2,1.8v8.5h-3.2v-8.1c0-0.6-0.1-1.1-0.4-1.5c-0.3-0.4-0.7-0.5-1.3-0.5
					s-1,0.2-1.3,0.6c-0.3,0.4-0.4,0.9-0.4,1.4V529z"/>
				<path id="XMLID_1688_" class="st7" d="M144.5,523.6c0.1,0.8,0.4,1.5,1,2c0.6,0.5,1.3,0.7,2.2,0.7c0.8,0,1.5-0.2,2-0.5
					c0.5-0.4,0.9-0.8,1.3-1.3l2.4,1.4c-0.2,0.4-0.4,0.8-0.8,1.2c-0.3,0.4-0.7,0.8-1.2,1.1c-0.5,0.3-1,0.6-1.6,0.8s-1.3,0.3-2.1,0.3
					c-1,0-1.9-0.2-2.7-0.5c-0.8-0.3-1.5-0.7-2.1-1.3c-0.6-0.6-1-1.3-1.3-2.1c-0.3-0.8-0.5-1.7-0.5-2.8c0-1,0.2-1.8,0.5-2.7
					c0.3-0.8,0.7-1.5,1.3-2.1c0.6-0.6,1.2-1.1,2-1.4s1.6-0.5,2.6-0.5c1,0,1.8,0.2,2.6,0.5s1.4,0.7,2,1.3c0.5,0.6,1,1.2,1.3,2
					c0.3,0.8,0.4,1.7,0.4,2.6c0,0.2,0,0.4,0,0.6c0,0.2,0,0.5,0,0.7H144.5z M147.4,518.6c-0.8,0-1.5,0.2-2,0.7
					c-0.5,0.5-0.8,1.1-0.9,1.8h5.8c-0.1-0.7-0.4-1.3-0.9-1.8C148.9,518.9,148.2,518.6,147.4,518.6z"/>
				<path id="XMLID_1686_" class="st7" d="M162.9,520.9c0-0.6-0.1-1.1-0.4-1.5c-0.3-0.4-0.7-0.5-1.3-0.5c-0.6,0-1,0.2-1.3,0.6
					c-0.3,0.4-0.5,0.9-0.5,1.5v8.1h-3.2v-12.8h3.2v1c0.1-0.1,0.2-0.2,0.3-0.3c0.1-0.1,0.3-0.2,0.5-0.4c0.2-0.1,0.5-0.2,0.8-0.3
					c0.3-0.1,0.7-0.1,1.1-0.1c0.8,0,1.4,0.1,1.9,0.4c0.5,0.2,0.9,0.6,1.2,1c0.3,0.4,0.5,0.9,0.7,1.4c0.1,0.5,0.2,1.1,0.2,1.8v8.5
					h-3.2V520.9z"/>
				<path id="XMLID_1684_" class="st7" d="M172.7,516.1h2v2.7h-2v6c0,0.5,0.1,0.8,0.3,1c0.2,0.2,0.5,0.3,1,0.3h0.7v2.7
					c0,0-0.2,0-0.5,0.1s-0.7,0.1-1.3,0.1c-1.2,0-2.1-0.3-2.6-0.9c-0.5-0.6-0.8-1.4-0.8-2.5v-6.9h-1.2v-2.7h1.2v-2h3.2V516.1z"/>
				<path id="XMLID_1681_" class="st7" d="M192.2,527.7c-0.4,0.4-0.9,0.8-1.6,1.1s-1.4,0.4-2.2,0.4c-1,0-1.9-0.2-2.7-0.5
					c-0.8-0.3-1.5-0.8-2.1-1.4c-0.6-0.6-1-1.3-1.3-2.1c-0.3-0.8-0.5-1.7-0.5-2.7c0-0.9,0.2-1.8,0.5-2.6c0.3-0.8,0.8-1.5,1.3-2.1
					c0.6-0.6,1.3-1.1,2.1-1.4c0.8-0.3,1.7-0.5,2.6-0.5c0.8,0,1.5,0.1,2.2,0.3c0.6,0.2,1.1,0.5,1.5,0.9v-5.7h3.2V529h-3V527.7z
					 M185,522.5c0,0.5,0.1,1,0.3,1.5c0.2,0.5,0.4,0.8,0.7,1.2c0.3,0.3,0.7,0.6,1.1,0.8c0.4,0.2,0.9,0.3,1.4,0.3c0.5,0,1-0.1,1.5-0.3
					c0.4-0.2,0.8-0.5,1.1-0.8c0.3-0.3,0.5-0.7,0.7-1.2s0.3-1,0.3-1.5c0-0.5-0.1-1-0.3-1.5s-0.4-0.9-0.7-1.2s-0.7-0.6-1.1-0.8
					c-0.4-0.2-0.9-0.3-1.4-0.3c-0.5,0-1,0.1-1.5,0.3c-0.4,0.2-0.8,0.5-1.1,0.8c-0.3,0.3-0.6,0.7-0.7,1.2S185,522,185,522.5z"/>
				<path id="XMLID_1678_" class="st7" d="M201.2,523.6c0.1,0.8,0.4,1.5,1,2c0.6,0.5,1.3,0.7,2.2,0.7c0.8,0,1.5-0.2,2-0.5
					c0.5-0.4,0.9-0.8,1.3-1.3l2.4,1.4c-0.2,0.4-0.4,0.8-0.8,1.2c-0.3,0.4-0.7,0.8-1.2,1.1c-0.5,0.3-1,0.6-1.6,0.8s-1.3,0.3-2.1,0.3
					c-1,0-1.9-0.2-2.7-0.5c-0.8-0.3-1.5-0.7-2.1-1.3c-0.6-0.6-1-1.3-1.3-2.1c-0.3-0.8-0.5-1.7-0.5-2.8c0-1,0.2-1.8,0.5-2.7
					c0.3-0.8,0.7-1.5,1.3-2.1c0.6-0.6,1.2-1.1,2-1.4s1.6-0.5,2.6-0.5c1,0,1.8,0.2,2.6,0.5s1.4,0.7,2,1.3c0.5,0.6,1,1.2,1.3,2
					c0.3,0.8,0.4,1.7,0.4,2.6c0,0.2,0,0.4,0,0.6c0,0.2,0,0.5,0,0.7H201.2z M204.1,518.6c-0.8,0-1.5,0.2-2,0.7
					c-0.5,0.5-0.8,1.1-0.9,1.8h5.8c-0.1-0.7-0.4-1.3-0.9-1.8C205.7,518.9,205,518.6,204.1,518.6z"/>
				<path id="XMLID_1676_" class="st7" d="M221,529h-3.2v-17.5h3.2V529z"/>
				<path id="XMLID_1673_" class="st7" d="M223.7,524.8c0-0.6,0.1-1.1,0.3-1.7s0.5-1,0.9-1.3c0.4-0.4,0.8-0.7,1.4-0.9
					c0.5-0.2,1.2-0.3,1.8-0.3c0.6,0,1.1,0.1,1.4,0.2s0.7,0.2,0.8,0.3v-0.6c0-0.6-0.1-1-0.4-1.4s-0.7-0.5-1.3-0.5
					c-0.3,0-0.6,0-0.8,0.1s-0.4,0.2-0.5,0.3c-0.1,0.1-0.2,0.3-0.3,0.5c0,0.2-0.1,0.4-0.1,0.5h-3c0-1.2,0.4-2.2,1.2-2.9
					c0.7-0.7,1.9-1.1,3.4-1.1c0.9,0,1.7,0.1,2.3,0.4s1.1,0.6,1.5,1c0.4,0.4,0.6,0.9,0.8,1.5c0.2,0.6,0.2,1.3,0.2,2v8.1h-2.7v-0.8
					c-0.2,0.2-0.5,0.4-0.9,0.6c-0.4,0.2-1,0.3-1.8,0.3c-0.6,0-1.2-0.1-1.8-0.3c-0.5-0.2-1-0.5-1.4-0.9c-0.4-0.4-0.7-0.8-0.9-1.4
					C223.8,526,223.7,525.4,223.7,524.8z M226.7,524.7c0,0.5,0.2,1,0.5,1.3c0.3,0.3,0.8,0.5,1.4,0.5c0.5,0,1-0.2,1.3-0.5
					c0.4-0.3,0.5-0.8,0.5-1.3s-0.2-1-0.5-1.3c-0.4-0.3-0.8-0.5-1.3-0.5c-0.6,0-1,0.2-1.3,0.5C226.9,523.8,226.7,524.2,226.7,524.7z"
					/>
				<path id="XMLID_1671_" class="st7" d="M251.3,529h-3.2v-8.1c0-0.6-0.1-1.1-0.4-1.5c-0.3-0.4-0.7-0.6-1.3-0.6
					c-0.6,0-1,0.2-1.3,0.6c-0.3,0.4-0.4,0.9-0.4,1.5v8h-3.2v-12.8h3.2v1c0.2-0.2,0.5-0.4,0.9-0.7s1-0.4,1.9-0.4
					c0.8,0,1.4,0.1,1.9,0.4s0.9,0.6,1.2,1c0.3-0.3,0.7-0.7,1.2-0.9c0.5-0.3,1.2-0.4,2-0.4c0.8,0,1.5,0.1,2,0.4c0.6,0.2,1,0.6,1.3,1
					s0.6,0.9,0.7,1.4c0.2,0.5,0.2,1.1,0.2,1.8v8.5h-3.2v-8.1c0-0.6-0.1-1.1-0.4-1.5c-0.3-0.4-0.7-0.5-1.3-0.5s-1,0.2-1.3,0.6
					c-0.3,0.4-0.4,0.9-0.4,1.4V529z"/>
				<path id="XMLID_1668_" class="st7" d="M260.6,522.6c0-1,0.2-1.8,0.5-2.7c0.3-0.8,0.8-1.5,1.4-2.1c0.6-0.6,1.3-1.1,2.1-1.4
					s1.7-0.5,2.7-0.5c1,0,1.9,0.2,2.8,0.5s1.5,0.8,2.1,1.4c0.6,0.6,1,1.3,1.4,2.1c0.3,0.8,0.5,1.7,0.5,2.6s-0.2,1.8-0.5,2.6
					c-0.3,0.8-0.8,1.5-1.4,2.1c-0.6,0.6-1.3,1.1-2.1,1.4s-1.7,0.5-2.7,0.5c-1,0-1.9-0.2-2.7-0.5c-0.8-0.3-1.5-0.8-2.1-1.4
					s-1-1.3-1.4-2.1C260.7,524.4,260.6,523.5,260.6,522.6z M263.8,522.6c0,0.5,0.1,1,0.3,1.5s0.4,0.8,0.7,1.2
					c0.3,0.3,0.7,0.6,1.1,0.8c0.4,0.2,0.9,0.3,1.4,0.3c0.5,0,1-0.1,1.4-0.3c0.4-0.2,0.8-0.4,1.1-0.8c0.3-0.3,0.5-0.7,0.7-1.2
					c0.2-0.5,0.3-0.9,0.3-1.5s-0.1-1-0.3-1.5s-0.4-0.9-0.7-1.2c-0.3-0.3-0.7-0.6-1.1-0.8s-0.9-0.3-1.4-0.3c-0.5,0-1,0.1-1.4,0.3
					c-0.4,0.2-0.8,0.4-1.1,0.8c-0.3,0.3-0.5,0.7-0.7,1.2S263.8,522,263.8,522.6z"/>
				<path id="XMLID_1666_" class="st7" d="M282.3,519.4h-0.8c-0.6,0-1.1,0.1-1.3,0.4c-0.2,0.3-0.4,0.7-0.4,1.3v7.8h-3.2v-12.8h3.2v1
					c0.2-0.3,0.5-0.6,0.9-0.8s0.9-0.3,1.6-0.3V519.4z"/>
				<path id="XMLID_1664_" class="st7" d="M288.7,516.1h2v2.7h-2v6c0,0.5,0.1,0.8,0.3,1c0.2,0.2,0.5,0.3,1,0.3h0.7v2.7
					c0,0-0.2,0-0.5,0.1c-0.3,0.1-0.7,0.1-1.3,0.1c-1.2,0-2.1-0.3-2.6-0.9c-0.5-0.6-0.8-1.4-0.8-2.5v-6.9h-1.2v-2.7h1.2v-2h3.2V516.1
					z"/>
				<path id="XMLID_1661_" class="st7" d="M292.7,524.8c0-0.6,0.1-1.1,0.3-1.7c0.2-0.5,0.5-1,0.9-1.3c0.4-0.4,0.8-0.7,1.4-0.9
					c0.5-0.2,1.2-0.3,1.8-0.3c0.6,0,1.1,0.1,1.4,0.2c0.4,0.1,0.7,0.2,0.8,0.3v-0.6c0-0.6-0.1-1-0.4-1.4s-0.7-0.5-1.3-0.5
					c-0.3,0-0.6,0-0.8,0.1c-0.2,0.1-0.4,0.2-0.5,0.3c-0.1,0.1-0.2,0.3-0.3,0.5c0,0.2-0.1,0.4-0.1,0.5h-3c0-1.2,0.4-2.2,1.2-2.9
					c0.7-0.7,1.9-1.1,3.4-1.1c0.9,0,1.7,0.1,2.3,0.4c0.6,0.2,1.1,0.6,1.5,1c0.4,0.4,0.6,0.9,0.8,1.5c0.2,0.6,0.2,1.3,0.2,2v8.1h-2.7
					v-0.8c-0.2,0.2-0.5,0.4-0.9,0.6c-0.4,0.2-1,0.3-1.8,0.3c-0.6,0-1.2-0.1-1.8-0.3c-0.5-0.2-1-0.5-1.4-0.9
					c-0.4-0.4-0.7-0.8-0.9-1.4S292.7,525.4,292.7,524.8z M295.8,524.7c0,0.5,0.2,1,0.5,1.3c0.3,0.3,0.8,0.5,1.4,0.5
					c0.5,0,1-0.2,1.3-0.5c0.4-0.3,0.5-0.8,0.5-1.3s-0.2-1-0.5-1.3s-0.8-0.5-1.3-0.5c-0.6,0-1,0.2-1.3,0.5
					C295.9,523.8,295.8,524.2,295.8,524.7z"/>
				<path id="XMLID_1659_" class="st7" d="M308.9,529h-3.2v-17.5h3.2V529z"/>
				<path id="XMLID_1656_" class="st7" d="M313.6,515.3c-0.5,0-1-0.2-1.4-0.6c-0.4-0.4-0.6-0.8-0.6-1.3c0-0.5,0.2-1,0.6-1.4
					c0.4-0.4,0.8-0.6,1.4-0.6c0.5,0,1,0.2,1.4,0.6c0.4,0.4,0.6,0.8,0.6,1.4c0,0.5-0.2,1-0.6,1.3
					C314.6,515.1,314.1,515.3,313.6,515.3z M315.2,529H312v-12.8h3.2V529z"/>
				<path id="XMLID_1654_" class="st7" d="M322,516.1h2v2.7h-2v6c0,0.5,0.1,0.8,0.3,1c0.2,0.2,0.5,0.3,1,0.3h0.7v2.7
					c0,0-0.2,0-0.5,0.1c-0.3,0.1-0.7,0.1-1.3,0.1c-1.2,0-2.1-0.3-2.6-0.9c-0.5-0.6-0.8-1.4-0.8-2.5v-6.9h-1.2v-2.7h1.2v-2h3.2V516.1
					z"/>
				<path id="XMLID_1651_" class="st7" d="M326,524.8c0-0.6,0.1-1.1,0.3-1.7c0.2-0.5,0.5-1,0.9-1.3c0.4-0.4,0.8-0.7,1.4-0.9
					c0.5-0.2,1.2-0.3,1.8-0.3c0.6,0,1.1,0.1,1.4,0.2c0.4,0.1,0.7,0.2,0.8,0.3v-0.6c0-0.6-0.1-1-0.4-1.4s-0.7-0.5-1.3-0.5
					c-0.3,0-0.6,0-0.8,0.1c-0.2,0.1-0.4,0.2-0.5,0.3c-0.1,0.1-0.2,0.3-0.3,0.5c0,0.2-0.1,0.4-0.1,0.5h-3c0-1.2,0.4-2.2,1.2-2.9
					c0.7-0.7,1.9-1.1,3.4-1.1c0.9,0,1.7,0.1,2.3,0.4c0.6,0.2,1.1,0.6,1.5,1c0.4,0.4,0.6,0.9,0.8,1.5c0.2,0.6,0.2,1.3,0.2,2v8.1h-2.7
					v-0.8c-0.2,0.2-0.5,0.4-0.9,0.6c-0.4,0.2-1,0.3-1.8,0.3c-0.6,0-1.2-0.1-1.8-0.3c-0.5-0.2-1-0.5-1.4-0.9
					c-0.4-0.4-0.7-0.8-0.9-1.4S326,525.4,326,524.8z M329.1,524.7c0,0.5,0.2,1,0.5,1.3c0.3,0.3,0.8,0.5,1.4,0.5c0.5,0,1-0.2,1.3-0.5
					c0.4-0.3,0.5-0.8,0.5-1.3s-0.2-1-0.5-1.3s-0.8-0.5-1.3-0.5c-0.6,0-1,0.2-1.3,0.5C329.2,523.8,329.1,524.2,329.1,524.7z"/>
				<path id="XMLID_1649_" class="st7" d="M342.5,516.1h2v2.7h-2v6c0,0.5,0.1,0.8,0.3,1c0.2,0.2,0.5,0.3,1,0.3h0.7v2.7
					c0,0-0.2,0-0.5,0.1c-0.3,0.1-0.7,0.1-1.3,0.1c-1.2,0-2.1-0.3-2.6-0.9c-0.5-0.6-0.8-1.4-0.8-2.5v-6.9h-1.2v-2.7h1.2v-2h3.2V516.1
					z"/>
			</g>
		</g>
		<circle id="XMLID_110_" class="st3" cx="64.2" cy="485.2" r="5.5"/>
		<g id="XMLID_97_">
			<circle id="XMLID_106_" class="st3" cx="64.2" cy="521.9" r="5.5"/>
		</g>
	</g>
</g>
<g id="AparellReproductor">
	<g id="XMLID_300_">
		<g id="XMLID_791_">
			<path id="XMLID_831_" class="st7" d="M86,314.8v10.9h-3.2v-16.6h3.5l7.1,11.1v-11.1h3.2v16.6h-3.3L86,314.8z"/>
			<path id="XMLID_828_" class="st7" d="M99.4,321.5c0-0.6,0.1-1.1,0.3-1.7s0.5-1,0.9-1.3c0.4-0.4,0.8-0.7,1.4-0.9
				c0.5-0.2,1.2-0.3,1.8-0.3c0.6,0,1.1,0.1,1.4,0.2s0.7,0.2,0.8,0.3v-0.6c0-0.6-0.1-1-0.4-1.4s-0.7-0.5-1.3-0.5
				c-0.3,0-0.6,0-0.8,0.1s-0.4,0.2-0.5,0.3c-0.1,0.1-0.2,0.3-0.3,0.5c0,0.2-0.1,0.4-0.1,0.5h-3c0-1.2,0.4-2.2,1.2-2.9
				c0.7-0.7,1.9-1.1,3.4-1.1c0.9,0,1.7,0.1,2.3,0.4s1.1,0.6,1.5,1c0.4,0.4,0.6,0.9,0.8,1.5c0.2,0.6,0.2,1.3,0.2,2v8.1h-2.7v-0.8
				c-0.2,0.2-0.5,0.4-0.9,0.6c-0.4,0.2-1,0.3-1.8,0.3c-0.6,0-1.2-0.1-1.8-0.3c-0.5-0.2-1-0.5-1.4-0.9c-0.4-0.4-0.7-0.8-0.9-1.4
				C99.5,322.8,99.4,322.2,99.4,321.5z M102.4,321.5c0,0.5,0.2,1,0.5,1.3c0.3,0.3,0.8,0.5,1.4,0.5c0.5,0,1-0.2,1.3-0.5
				c0.4-0.3,0.5-0.8,0.5-1.3s-0.2-1-0.5-1.3c-0.4-0.3-0.8-0.5-1.3-0.5c-0.6,0-1,0.2-1.3,0.5C102.6,320.6,102.4,321,102.4,321.5z"/>
			<path id="XMLID_825_" class="st7" d="M113.9,312.1c-0.5,0-1-0.2-1.4-0.6s-0.6-0.8-0.6-1.3c0-0.5,0.2-1,0.6-1.4s0.8-0.6,1.4-0.6
				c0.5,0,1,0.2,1.4,0.6s0.6,0.8,0.6,1.4c0,0.5-0.2,1-0.6,1.3S114.5,312.1,113.9,312.1z M115.5,325.7h-3.2v-12.8h3.2V325.7z"/>
			<path id="XMLID_823_" class="st7" d="M124.1,321.7l-2.9,4h-3.5l4.7-6.6l-4.4-6.3h3.7l2.6,3.6l2.6-3.6h3.5l-4.4,6.2l4.6,6.6H127
				L124.1,321.7z"/>
			<path id="XMLID_820_" class="st7" d="M134.4,320.4c0.1,0.8,0.4,1.5,1,2c0.6,0.5,1.3,0.7,2.2,0.7c0.8,0,1.5-0.2,2-0.5
				c0.5-0.4,0.9-0.8,1.3-1.3l2.4,1.4c-0.2,0.4-0.4,0.8-0.8,1.2c-0.3,0.4-0.7,0.8-1.2,1.1c-0.5,0.3-1,0.6-1.6,0.8s-1.3,0.3-2.1,0.3
				c-1,0-1.9-0.2-2.7-0.5c-0.8-0.3-1.5-0.7-2.1-1.3c-0.6-0.6-1-1.3-1.3-2.1c-0.3-0.8-0.5-1.7-0.5-2.8c0-1,0.2-1.8,0.5-2.7
				c0.3-0.8,0.7-1.5,1.3-2.1c0.6-0.6,1.2-1.1,2-1.4s1.6-0.5,2.6-0.5c1,0,1.8,0.2,2.6,0.5s1.4,0.7,2,1.3c0.5,0.6,1,1.2,1.3,2
				c0.3,0.8,0.4,1.7,0.4,2.6c0,0.2,0,0.4,0,0.6c0,0.2,0,0.5,0,0.7H134.4z M137.3,315.4c-0.8,0-1.5,0.2-2,0.7
				c-0.5,0.5-0.8,1.1-0.9,1.8h5.8c-0.1-0.7-0.4-1.3-0.9-1.8C138.9,315.6,138.2,315.4,137.3,315.4z"/>
			<path id="XMLID_818_" class="st7" d="M156.1,325.7h-3.2v-8.1c0-0.6-0.1-1.1-0.4-1.5c-0.3-0.4-0.7-0.6-1.3-0.6
				c-0.6,0-1,0.2-1.3,0.6c-0.3,0.4-0.4,0.9-0.4,1.5v8h-3.2v-12.8h3.2v1c0.2-0.2,0.5-0.4,0.9-0.7s1-0.4,1.9-0.4
				c0.8,0,1.4,0.1,1.9,0.4s0.9,0.6,1.2,1c0.3-0.3,0.7-0.7,1.2-0.9c0.5-0.3,1.2-0.4,2-0.4c0.8,0,1.5,0.1,2,0.4c0.6,0.2,1,0.6,1.3,1
				c0.3,0.4,0.6,0.9,0.7,1.4c0.2,0.5,0.2,1.1,0.2,1.8v8.5h-3.2v-8.1c0-0.6-0.1-1.1-0.4-1.5c-0.3-0.4-0.7-0.5-1.3-0.5s-1,0.2-1.3,0.6
				c-0.3,0.4-0.4,0.9-0.4,1.4V325.7z"/>
			<path id="XMLID_815_" class="st7" d="M168.7,320.4c0.1,0.8,0.4,1.5,1,2c0.6,0.5,1.3,0.7,2.2,0.7c0.8,0,1.5-0.2,2-0.5
				c0.5-0.4,0.9-0.8,1.3-1.3l2.4,1.4c-0.2,0.4-0.4,0.8-0.8,1.2c-0.3,0.4-0.7,0.8-1.2,1.1c-0.5,0.3-1,0.6-1.6,0.8s-1.3,0.3-2.1,0.3
				c-1,0-1.9-0.2-2.7-0.5c-0.8-0.3-1.5-0.7-2.1-1.3c-0.6-0.6-1-1.3-1.3-2.1c-0.3-0.8-0.5-1.7-0.5-2.8c0-1,0.2-1.8,0.5-2.7
				c0.3-0.8,0.7-1.5,1.3-2.1c0.6-0.6,1.2-1.1,2-1.4s1.6-0.5,2.6-0.5c1,0,1.8,0.2,2.6,0.5s1.4,0.7,2,1.3c0.5,0.6,1,1.2,1.3,2
				c0.3,0.8,0.4,1.7,0.4,2.6c0,0.2,0,0.4,0,0.6c0,0.2,0,0.5,0,0.7H168.7z M171.6,315.4c-0.8,0-1.5,0.2-2,0.7
				c-0.5,0.5-0.8,1.1-0.9,1.8h5.8c-0.1-0.7-0.4-1.3-0.9-1.8C173.2,315.6,172.5,315.4,171.6,315.4z"/>
			<path id="XMLID_813_" class="st7" d="M187.2,317.7c0-0.6-0.1-1.1-0.4-1.5c-0.3-0.4-0.7-0.5-1.3-0.5c-0.6,0-1,0.2-1.3,0.6
				c-0.3,0.4-0.5,0.9-0.5,1.5v8.1h-3.2v-12.8h3.2v1c0.1-0.1,0.2-0.2,0.3-0.3c0.1-0.1,0.3-0.2,0.5-0.4c0.2-0.1,0.5-0.2,0.8-0.3
				c0.3-0.1,0.7-0.1,1.1-0.1c0.8,0,1.4,0.1,1.9,0.4c0.5,0.2,0.9,0.6,1.2,1c0.3,0.4,0.5,0.9,0.7,1.4c0.1,0.5,0.2,1.1,0.2,1.8v8.5
				h-3.2V317.7z"/>
			<path id="XMLID_811_" class="st7" d="M197,312.9h2v2.7h-2v6c0,0.5,0.1,0.8,0.3,1c0.2,0.2,0.5,0.3,1,0.3h0.7v2.7
				c0,0-0.2,0-0.5,0.1s-0.7,0.1-1.3,0.1c-1.2,0-2.1-0.3-2.6-0.9c-0.5-0.6-0.8-1.4-0.8-2.5v-6.9h-1.2v-2.7h1.2v-2h3.2V312.9z"/>
			<path id="XMLID_808_" class="st7" d="M209.7,329.9h-3.2v-17h3v1.2c0.3-0.3,0.8-0.6,1.4-1c0.6-0.3,1.5-0.5,2.5-0.5
				c1,0,1.9,0.2,2.7,0.5s1.5,0.8,2,1.4s1,1.3,1.3,2.1c0.3,0.8,0.5,1.7,0.5,2.7c0,0.9-0.2,1.8-0.5,2.6c-0.3,0.8-0.7,1.5-1.3,2.1
				c-0.6,0.6-1.3,1.1-2.1,1.4c-0.8,0.3-1.7,0.5-2.7,0.5c-0.8,0-1.6-0.1-2.2-0.4c-0.6-0.3-1.1-0.6-1.4-0.8V329.9z M209.6,319.3
				c0,0.5,0.1,1,0.3,1.5c0.2,0.5,0.4,0.9,0.7,1.2c0.3,0.3,0.7,0.6,1.1,0.8s0.9,0.3,1.5,0.3c0.5,0,1-0.1,1.5-0.3s0.8-0.4,1.1-0.8
				c0.3-0.3,0.5-0.7,0.7-1.2c0.2-0.5,0.2-1,0.2-1.5s-0.1-1-0.3-1.5c-0.2-0.5-0.4-0.9-0.7-1.2c-0.3-0.3-0.7-0.6-1.1-0.8
				c-0.4-0.2-0.9-0.3-1.5-0.3c-0.5,0-1,0.1-1.5,0.3s-0.8,0.5-1.1,0.8c-0.3,0.3-0.5,0.7-0.7,1.2C209.7,318.3,209.6,318.8,209.6,319.3
				z"/>
			<path id="XMLID_806_" class="st7" d="M228.2,316.2h-0.8c-0.6,0-1.1,0.1-1.3,0.4c-0.2,0.3-0.4,0.7-0.4,1.3v7.8h-3.2v-12.8h3.2v1
				c0.2-0.3,0.5-0.6,0.9-0.8c0.4-0.2,0.9-0.3,1.6-0.3V316.2z"/>
			<path id="XMLID_803_" class="st7" d="M233.2,320.4c0.1,0.8,0.4,1.5,1,2c0.6,0.5,1.3,0.7,2.2,0.7c0.8,0,1.5-0.2,2-0.5
				c0.5-0.4,0.9-0.8,1.3-1.3l2.4,1.4c-0.2,0.4-0.4,0.8-0.8,1.2c-0.3,0.4-0.7,0.8-1.2,1.1c-0.5,0.3-1,0.6-1.6,0.8s-1.3,0.3-2.1,0.3
				c-1,0-1.9-0.2-2.7-0.5c-0.8-0.3-1.5-0.7-2.1-1.3c-0.6-0.6-1-1.3-1.3-2.1c-0.3-0.8-0.5-1.7-0.5-2.8c0-1,0.2-1.8,0.5-2.7
				c0.3-0.8,0.7-1.5,1.3-2.1c0.6-0.6,1.2-1.1,2-1.4s1.6-0.5,2.6-0.5c1,0,1.8,0.2,2.6,0.5s1.4,0.7,2,1.3c0.5,0.6,1,1.2,1.3,2
				c0.3,0.8,0.4,1.7,0.4,2.6c0,0.2,0,0.4,0,0.6c0,0.2,0,0.5,0,0.7H233.2z M236.1,315.4c-0.8,0-1.5,0.2-2,0.7
				c-0.5,0.5-0.8,1.1-0.9,1.8h5.8c-0.1-0.7-0.4-1.3-0.9-1.8C237.7,315.6,237,315.4,236.1,315.4z"/>
			<path id="XMLID_801_" class="st7" d="M254.9,325.7h-3.2v-8.1c0-0.6-0.1-1.1-0.4-1.5c-0.3-0.4-0.7-0.6-1.3-0.6
				c-0.6,0-1,0.2-1.3,0.6c-0.3,0.4-0.4,0.9-0.4,1.5v8H245v-12.8h3.2v1c0.2-0.2,0.5-0.4,0.9-0.7s1-0.4,1.9-0.4c0.8,0,1.4,0.1,1.9,0.4
				s0.9,0.6,1.2,1c0.3-0.3,0.7-0.7,1.2-0.9c0.5-0.3,1.2-0.4,2-0.4c0.8,0,1.5,0.1,2,0.4s1,0.6,1.3,1c0.3,0.4,0.6,0.9,0.7,1.4
				c0.2,0.5,0.2,1.1,0.2,1.8v8.5h-3.2v-8.1c0-0.6-0.1-1.1-0.4-1.5c-0.3-0.4-0.7-0.5-1.3-0.5s-1,0.2-1.3,0.6
				c-0.3,0.4-0.4,0.9-0.4,1.4V325.7z"/>
			<path id="XMLID_798_" class="st7" d="M264.1,321.5c0-0.6,0.1-1.1,0.3-1.7c0.2-0.5,0.5-1,0.9-1.3s0.8-0.7,1.4-0.9
				c0.5-0.2,1.2-0.3,1.8-0.3c0.6,0,1.1,0.1,1.4,0.2c0.4,0.1,0.7,0.2,0.8,0.3v-0.6c0-0.6-0.1-1-0.4-1.4s-0.7-0.5-1.3-0.5
				c-0.3,0-0.6,0-0.8,0.1c-0.2,0.1-0.4,0.2-0.5,0.3c-0.1,0.1-0.2,0.3-0.3,0.5c0,0.2-0.1,0.4-0.1,0.5h-3c0-1.2,0.4-2.2,1.2-2.9
				c0.7-0.7,1.9-1.1,3.4-1.1c0.9,0,1.7,0.1,2.3,0.4c0.6,0.2,1.1,0.6,1.5,1c0.4,0.4,0.6,0.9,0.8,1.5c0.2,0.6,0.2,1.3,0.2,2v8.1h-2.7
				v-0.8c-0.2,0.2-0.5,0.4-0.9,0.6c-0.4,0.2-1,0.3-1.8,0.3c-0.6,0-1.2-0.1-1.8-0.3c-0.5-0.2-1-0.5-1.4-0.9c-0.4-0.4-0.7-0.8-0.9-1.4
				C264.3,322.8,264.1,322.2,264.1,321.5z M267.2,321.5c0,0.5,0.2,1,0.5,1.3c0.3,0.3,0.8,0.5,1.4,0.5c0.5,0,1-0.2,1.3-0.5
				c0.4-0.3,0.5-0.8,0.5-1.3s-0.2-1-0.5-1.3c-0.4-0.3-0.8-0.5-1.3-0.5c-0.6,0-1,0.2-1.3,0.5C267.3,320.6,267.2,321,267.2,321.5z"/>
			<path id="XMLID_796_" class="st7" d="M280.6,312.9h2v2.7h-2v6c0,0.5,0.1,0.8,0.3,1c0.2,0.2,0.5,0.3,1,0.3h0.7v2.7
				c0,0-0.2,0-0.5,0.1c-0.3,0.1-0.7,0.1-1.3,0.1c-1.2,0-2.1-0.3-2.6-0.9c-0.5-0.6-0.8-1.4-0.8-2.5v-6.9h-1.2v-2.7h1.2v-2h3.2V312.9z
				"/>
			<path id="XMLID_794_" class="st7" d="M288.3,320.9c0,0.6,0.1,1.1,0.4,1.5s0.7,0.6,1.3,0.6s1-0.2,1.3-0.6c0.3-0.4,0.5-0.9,0.5-1.5
				v-8h3.2v12.8h-3.2v-1c-0.2,0.2-0.5,0.5-0.9,0.7c-0.4,0.3-1,0.4-1.8,0.4c-0.7,0-1.3-0.1-1.8-0.3c-0.5-0.2-0.9-0.5-1.2-0.9
				c-0.3-0.4-0.6-0.9-0.7-1.4c-0.1-0.6-0.2-1.2-0.2-1.8v-8.5h3.2V320.9z"/>
			<path id="XMLID_792_" class="st7" d="M303.7,316.2h-0.8c-0.6,0-1.1,0.1-1.3,0.4c-0.2,0.3-0.4,0.7-0.4,1.3v7.8H298v-12.8h3.2v1
				c0.2-0.3,0.5-0.6,0.9-0.8s0.9-0.3,1.6-0.3V316.2z"/>
		</g>
	</g>
	<g id="XMLID_240_">
		<g id="XMLID_917_">
			<path id="XMLID_975_" class="st7" d="M90.3,230.4h-7.8l-2.2,6.3h-4.5l8.3-22.8h4.8l8.6,22.8h-4.9L90.3,230.4z M83.9,226.5h5
				l-2.5-6.9L83.9,226.5z"/>
			<path id="XMLID_972_" class="st7" d="M113.5,220.4c0,1-0.2,2-0.5,2.8s-0.8,1.5-1.4,2.1c-0.6,0.6-1.4,1-2.2,1.3
				c-0.9,0.3-1.8,0.5-2.9,0.5H104v9.5h-4.6v-22.8h7.1c2.3,0,4,0.6,5.2,1.7S113.5,218.3,113.5,220.4z M104,217.8v5.3h2.1
				c0.8,0,1.5-0.2,1.9-0.7c0.5-0.5,0.7-1.1,0.7-2c0-0.8-0.2-1.4-0.7-1.9s-1.1-0.7-1.9-0.7H104z"/>
			<path id="XMLID_969_" class="st7" d="M126.6,230.4h-7.8l-2.2,6.3H112l8.3-22.8h4.8l8.6,22.8h-4.9L126.6,230.4z M120.2,226.5h5
				l-2.5-6.9L120.2,226.5z"/>
			<path id="XMLID_966_" class="st7" d="M149.8,220.4c0,1.3-0.3,2.5-0.8,3.4c-0.6,1-1.3,1.7-2.3,2.2l5.4,10.7h-4.9l-4.9-9.8h-2v9.8
				h-4.6v-22.8h7.1c2.3,0,4,0.6,5.2,1.7S149.8,218.3,149.8,220.4z M140.3,217.8v5.3h2.1c0.8,0,1.5-0.2,1.9-0.7
				c0.5-0.5,0.7-1.1,0.7-2c0-0.8-0.2-1.4-0.7-1.9s-1.1-0.7-1.9-0.7H140.3z"/>
			<path id="XMLID_964_" class="st7" d="M153.8,236.7v-22.8h10.5v4.3h-5.9v4.8h5.7v4.3h-5.7v5.2h6v4.3H153.8z"/>
			<path id="XMLID_962_" class="st7" d="M167.6,236.7v-22.8h4.6v18.5h5.8v4.3H167.6z"/>
			<path id="XMLID_960_" class="st7" d="M180.8,236.7v-22.8h4.6v18.5h5.8v4.3H180.8z"/>
			<path id="XMLID_957_" class="st7" d="M213.7,220.4c0,1.3-0.3,2.5-0.8,3.4c-0.6,1-1.3,1.7-2.3,2.2l5.4,10.7H211l-4.9-9.8h-2v9.8
				h-4.6v-22.8h7.1c2.3,0,4,0.6,5.2,1.7S213.7,218.3,213.7,220.4z M204.2,217.8v5.3h2.1c0.8,0,1.5-0.2,1.9-0.7
				c0.5-0.5,0.7-1.1,0.7-2c0-0.8-0.2-1.4-0.7-1.9s-1.1-0.7-1.9-0.7H204.2z"/>
			<path id="XMLID_955_" class="st7" d="M217.7,236.7v-22.8h10.5v4.3h-5.9v4.8h5.7v4.3h-5.7v5.2h6v4.3H217.7z"/>
			<path id="XMLID_952_" class="st7" d="M245.5,220.4c0,1-0.2,2-0.5,2.8s-0.8,1.5-1.4,2.1c-0.6,0.6-1.4,1-2.2,1.3
				c-0.9,0.3-1.8,0.5-2.9,0.5H236v9.5h-4.6v-22.8h7.1c2.3,0,4,0.6,5.2,1.7C244.9,216.7,245.5,218.3,245.5,220.4z M236,217.8v5.3h2.1
				c0.8,0,1.5-0.2,1.9-0.7c0.5-0.5,0.7-1.1,0.7-2c0-0.8-0.2-1.4-0.7-1.9s-1.1-0.7-1.9-0.7H236z"/>
			<path id="XMLID_949_" class="st7" d="M262.2,220.4c0,1.3-0.3,2.5-0.8,3.4c-0.6,1-1.3,1.7-2.3,2.2l5.4,10.7h-4.9l-4.9-9.8h-2v9.8
				h-4.6v-22.8h7.1c2.3,0,4,0.6,5.2,1.7C261.6,216.7,262.2,218.3,262.2,220.4z M252.6,217.8v5.3h2.1c0.8,0,1.5-0.2,1.9-0.7
				c0.5-0.5,0.7-1.1,0.7-2c0-0.8-0.2-1.4-0.7-1.9s-1.1-0.7-1.9-0.7H252.6z"/>
			<path id="XMLID_946_" class="st7" d="M264.5,225.3c0-1.7,0.3-3.2,0.9-4.7c0.6-1.5,1.4-2.7,2.4-3.8c1-1.1,2.3-1.9,3.7-2.5
				s3-0.9,4.8-0.9c1.8,0,3.4,0.3,4.9,0.9c1.5,0.6,2.7,1.4,3.8,2.5c1,1.1,1.8,2.3,2.4,3.7c0.6,1.4,0.9,3,0.9,4.7
				c0,1.7-0.3,3.2-0.8,4.7s-1.4,2.7-2.4,3.8s-2.3,1.9-3.8,2.5c-1.5,0.6-3.1,0.9-4.9,0.9c-1.8,0-3.5-0.3-4.9-0.9
				c-1.5-0.6-2.7-1.4-3.7-2.5c-1-1.1-1.8-2.3-2.4-3.7S264.5,227,264.5,225.3z M269.3,225.3c0,1.1,0.2,2.1,0.5,3
				c0.3,0.9,0.8,1.7,1.4,2.4c0.6,0.7,1.4,1.2,2.2,1.6c0.9,0.4,1.8,0.6,2.9,0.6c1.1,0,2.1-0.2,3-0.6c0.9-0.4,1.6-0.9,2.2-1.6
				c0.6-0.7,1.1-1.5,1.4-2.4c0.3-0.9,0.5-1.9,0.5-3c0-1.1-0.2-2.1-0.5-3c-0.3-0.9-0.8-1.7-1.4-2.4c-0.6-0.7-1.4-1.2-2.2-1.6
				c-0.9-0.4-1.9-0.6-2.9-0.6c-1.1,0-2.1,0.2-3,0.6c-0.9,0.4-1.6,0.9-2.2,1.6s-1.1,1.5-1.4,2.4C269.5,223.2,269.3,224.2,269.3,225.3
				z"/>
			<path id="XMLID_943_" class="st7" d="M295.8,213.9c1.9,0,3.5,0.3,5,0.8c1.5,0.5,2.7,1.3,3.8,2.2c1,1,1.8,2.2,2.4,3.6
				c0.6,1.4,0.8,3,0.8,4.8c0,1.8-0.3,3.3-0.8,4.8c-0.5,1.4-1.3,2.6-2.4,3.6c-1,1-2.3,1.8-3.8,2.3s-3.1,0.8-5,0.8h-4.6v-22.8H295.8z
				 M295.8,232.7h0.3c2.2,0,3.9-0.6,5.1-1.9c1.2-1.3,1.9-3.1,1.9-5.6c0-2.4-0.6-4.3-1.8-5.5c-1.2-1.3-2.9-1.9-5.1-1.9h-0.3V232.7z"
				/>
			<path id="XMLID_941_" class="st7" d="M319.7,237.1c-1.6,0-2.9-0.2-4-0.7c-1.1-0.5-2.1-1.1-2.8-1.9c-0.7-0.8-1.3-1.8-1.7-2.9
				s-0.5-2.4-0.5-3.8v-13.9h4.6v13.9c0,1.5,0.4,2.7,1.1,3.6c0.7,0.9,1.9,1.4,3.4,1.4c1.5,0,2.6-0.5,3.4-1.4s1.1-2.2,1.1-3.7v-13.9
				h4.6v13.9c0,1.4-0.2,2.6-0.6,3.8c-0.4,1.1-1,2.1-1.8,3c-0.8,0.8-1.7,1.5-2.9,1.9C322.5,236.9,321.2,237.1,319.7,237.1z"/>
			<path id="XMLID_939_" class="st7" d="M351.1,234.1c-0.9,0.9-1.9,1.6-3.2,2.1c-1.3,0.6-2.7,0.9-4.4,0.9c-1.8,0-3.5-0.3-5-0.9
				c-1.5-0.6-2.7-1.4-3.8-2.5c-1-1.1-1.8-2.3-2.4-3.7s-0.8-3-0.8-4.7c0-1.7,0.3-3.2,0.9-4.7c0.6-1.5,1.4-2.7,2.4-3.8
				s2.3-1.9,3.7-2.5s3.1-0.9,4.9-0.9c1.7,0,3.1,0.2,4.3,0.7c1.2,0.5,2.3,1.1,3.3,1.9l-2.7,3.4c-0.5-0.5-1.2-0.9-2-1.2
				c-0.8-0.4-1.8-0.6-2.8-0.6c-1.1,0-2.1,0.2-3,0.6c-0.9,0.4-1.6,0.9-2.2,1.6c-0.6,0.7-1.1,1.5-1.4,2.4c-0.3,0.9-0.5,1.9-0.5,3
				c0,1.1,0.2,2.1,0.5,3c0.3,0.9,0.8,1.7,1.5,2.4c0.6,0.7,1.4,1.2,2.3,1.6c0.9,0.4,1.9,0.6,2.9,0.6c1.2,0,2.2-0.2,3-0.6
				c0.8-0.4,1.4-0.9,1.9-1.3L351.1,234.1z"/>
			<path id="XMLID_937_" class="st7" d="M361.5,218.1v18.5h-4.6v-18.5h-4.2v-4.3h12.9v4.3H361.5z"/>
			<path id="XMLID_934_" class="st7" d="M366.3,225.3c0-1.7,0.3-3.2,0.9-4.7c0.6-1.5,1.4-2.7,2.4-3.8c1-1.1,2.3-1.9,3.7-2.5
				s3-0.9,4.8-0.9c1.8,0,3.4,0.3,4.9,0.9c1.5,0.6,2.7,1.4,3.8,2.5c1,1.1,1.8,2.3,2.4,3.7c0.6,1.4,0.9,3,0.9,4.7
				c0,1.7-0.3,3.2-0.8,4.7s-1.4,2.7-2.4,3.8s-2.3,1.9-3.8,2.5c-1.5,0.6-3.1,0.9-4.9,0.9c-1.8,0-3.5-0.3-4.9-0.9
				c-1.5-0.6-2.7-1.4-3.7-2.5c-1-1.1-1.8-2.3-2.4-3.7S366.3,227,366.3,225.3z M371.1,225.3c0,1.1,0.2,2.1,0.5,3
				c0.3,0.9,0.8,1.7,1.4,2.4c0.6,0.7,1.4,1.2,2.2,1.6c0.9,0.4,1.8,0.6,2.9,0.6c1.1,0,2.1-0.2,3-0.6c0.9-0.4,1.6-0.9,2.2-1.6
				c0.6-0.7,1.1-1.5,1.4-2.4c0.3-0.9,0.5-1.9,0.5-3c0-1.1-0.2-2.1-0.5-3c-0.3-0.9-0.8-1.7-1.4-2.4c-0.6-0.7-1.4-1.2-2.2-1.6
				c-0.9-0.4-1.9-0.6-2.9-0.6c-1.1,0-2.1,0.2-3,0.6c-0.9,0.4-1.6,0.9-2.2,1.6s-1.1,1.5-1.4,2.4C371.3,223.2,371.1,224.2,371.1,225.3
				z"/>
			<path id="XMLID_931_" class="st7" d="M407,220.4c0,1.3-0.3,2.5-0.8,3.4c-0.6,1-1.3,1.7-2.3,2.2l5.4,10.7h-4.9l-4.9-9.8h-2v9.8
				H393v-22.8h7.1c2.3,0,4,0.6,5.2,1.7C406.4,216.7,407,218.3,407,220.4z M397.5,217.8v5.3h2.1c0.8,0,1.5-0.2,1.9-0.7
				c0.5-0.5,0.7-1.1,0.7-2c0-0.8-0.2-1.4-0.7-1.9s-1.1-0.7-1.9-0.7H397.5z"/>
			<path id="XMLID_929_" class="st7" d="M81.9,274.2h-4.6v-22.8h4.6V274.2z"/>
			<path id="XMLID_927_" class="st7" d="M95.9,264.7v9.5h-4.6v-22.8h10.6v4.3h-6v4.8h5.8v4.3H95.9z"/>
			<path id="XMLID_925_" class="st7" d="M105,274.2v-22.8h10.5v4.3h-5.9v4.8h5.7v4.3h-5.7v5.2h6v4.3H105z"/>
			<path id="XMLID_922_" class="st7" d="M126.6,255.7v18.5H122v-18.5h-4.2v-4.3h12.9v4.3H126.6z"/>
			<path id="XMLID_920_" class="st7" d="M142.4,274.6c-1.6,0-2.9-0.2-4-0.7c-1.1-0.5-2.1-1.1-2.8-1.9c-0.7-0.8-1.3-1.8-1.7-2.9
				s-0.5-2.4-0.5-3.8v-13.9h4.6v13.9c0,1.5,0.4,2.7,1.1,3.6s1.9,1.4,3.4,1.4c1.5,0,2.6-0.5,3.4-1.4c0.7-0.9,1.1-2.2,1.1-3.7v-13.9
				h4.6v13.9c0,1.4-0.2,2.6-0.6,3.8c-0.4,1.1-1,2.1-1.8,3s-1.7,1.5-2.9,1.9C145.2,274.4,143.9,274.6,142.4,274.6z"/>
			<path id="XMLID_918_" class="st7" d="M159.1,257.2c0,0.6,0.2,1.1,0.5,1.5c0.3,0.4,0.9,0.8,1.6,1.1c0.5,0.2,1.1,0.5,1.6,0.7
				s1.1,0.5,1.8,0.7c1.4,0.6,2.5,1.4,3.2,2.4c0.8,1,1.2,2.3,1.2,3.9c0,1.1-0.2,2.1-0.6,3s-0.9,1.6-1.6,2.2s-1.5,1.1-2.4,1.4
				c-0.9,0.3-1.9,0.5-3,0.5c-1.5,0-2.8-0.2-3.7-0.7c-1-0.5-1.7-1-2.3-1.7s-0.9-1.5-1.1-2.4c-0.2-0.9-0.3-1.8-0.2-2.7h4.4
				c0,0.5,0,0.9,0.1,1.3c0.1,0.4,0.3,0.8,0.5,1.1c0.2,0.3,0.5,0.6,0.9,0.8s0.8,0.3,1.4,0.3c0.8,0,1.5-0.2,2-0.7
				c0.5-0.4,0.8-1.1,0.8-2c0-0.8-0.2-1.4-0.7-1.8c-0.4-0.4-1-0.8-1.8-1.1c-0.6-0.3-1.3-0.6-2-0.8c-0.7-0.2-1.3-0.5-2-0.9
				c-1.1-0.6-2-1.4-2.5-2.4c-0.6-1-0.9-2.2-0.9-3.6c0-0.9,0.2-1.8,0.5-2.6s0.8-1.5,1.4-2c0.6-0.6,1.3-1,2.2-1.3
				c0.9-0.3,1.8-0.5,2.9-0.5c1.3,0,2.4,0.2,3.3,0.5s1.6,0.9,2.1,1.5s0.9,1.3,1.1,2.2s0.3,1.7,0.3,2.6h-4.2c0-0.8-0.2-1.5-0.7-2
				s-1.1-0.8-1.9-0.8c-0.8,0-1.4,0.2-1.8,0.7C159.3,256,159.1,256.5,159.1,257.2z"/>
		</g>
	</g>
	<circle id="XMLID_4_" class="st3" cx="64.3" cy="318.1" r="5.5"/>
</g>
<g id="Cap">
	<g id="XMLID_231_">
		<g id="XMLID_550_">
			<path id="XMLID_557_" class="st7" d="M94.7,79.5c-0.9,0.9-1.9,1.6-3.2,2.1c-1.3,0.6-2.7,0.9-4.4,0.9c-1.8,0-3.5-0.3-5-0.9
				c-1.5-0.6-2.7-1.4-3.8-2.5c-1-1.1-1.8-2.3-2.4-3.7c-0.6-1.4-0.8-3-0.8-4.7c0-1.7,0.3-3.2,0.9-4.7c0.6-1.5,1.4-2.7,2.4-3.8
				c1-1.1,2.3-1.9,3.7-2.5c1.5-0.6,3.1-0.9,4.9-0.9c1.7,0,3.1,0.2,4.3,0.7s2.3,1.1,3.3,1.9l-2.7,3.4c-0.5-0.5-1.2-0.9-2-1.2
				c-0.8-0.4-1.8-0.6-2.8-0.6c-1.1,0-2.1,0.2-3,0.6c-0.9,0.4-1.6,0.9-2.2,1.6c-0.6,0.7-1.1,1.5-1.4,2.4c-0.3,0.9-0.5,1.9-0.5,3
				c0,1.1,0.2,2.1,0.5,3s0.8,1.7,1.5,2.4c0.6,0.7,1.4,1.2,2.3,1.6c0.9,0.4,1.9,0.6,2.9,0.6c1.2,0,2.2-0.2,3-0.6
				c0.8-0.4,1.4-0.9,1.9-1.3L94.7,79.5z"/>
			<path id="XMLID_554_" class="st7" d="M111.2,75.8h-7.8l-2.2,6.3h-4.5l8.3-22.8h4.8l8.6,22.8h-4.9L111.2,75.8z M104.8,71.9h5
				l-2.5-6.9L104.8,71.9z"/>
			<path id="XMLID_551_" class="st7" d="M135.4,65.8c0,1-0.2,2-0.5,2.8s-0.8,1.5-1.4,2.1c-0.6,0.6-1.4,1-2.2,1.3
				c-0.9,0.3-1.8,0.5-2.9,0.5h-2.5V82h-4.6V59.2h7.1c2.3,0,4,0.6,5.2,1.7S135.4,63.6,135.4,65.8z M125.9,63.2v5.3h2.1
				c0.8,0,1.5-0.2,1.9-0.7c0.5-0.5,0.7-1.1,0.7-2c0-0.8-0.2-1.4-0.7-1.9s-1.1-0.7-1.9-0.7H125.9z"/>
		</g>
	</g>
	<g id="XMLID_1_">
		<g id="XMLID_3_">
			<g id="XMLID_998_">
				<path id="XMLID_1068_" class="st8" d="M85.7,121.7c0,1-0.2,1.8-0.6,2.5c-0.4,0.7-1,1.2-1.7,1.6l3.9,7.8h-3.6l-3.5-7.1h-1.4v7.1
					h-3.3v-16.6h5.1c1.7,0,2.9,0.4,3.8,1.2C85.3,118.9,85.7,120.1,85.7,121.7z M78.8,119.8v3.9h1.6c0.6,0,1.1-0.2,1.4-0.5
					s0.5-0.8,0.5-1.4c0-0.6-0.2-1.1-0.5-1.4c-0.3-0.3-0.8-0.5-1.4-0.5H78.8z"/>
				<path id="XMLID_1065_" class="st8" d="M91.5,128.1c0.1,0.8,0.4,1.5,1,2c0.6,0.5,1.3,0.7,2.2,0.7c0.8,0,1.5-0.2,2-0.5
					c0.5-0.4,0.9-0.8,1.3-1.3l2.4,1.4c-0.2,0.4-0.4,0.8-0.8,1.2c-0.3,0.4-0.7,0.8-1.2,1.1c-0.5,0.3-1,0.6-1.6,0.8s-1.3,0.3-2.1,0.3
					c-1,0-1.9-0.2-2.7-0.5c-0.8-0.3-1.5-0.7-2.1-1.3c-0.6-0.6-1-1.3-1.3-2.1c-0.3-0.8-0.5-1.7-0.5-2.8c0-1,0.2-1.8,0.5-2.7
					c0.3-0.8,0.7-1.5,1.3-2.1c0.6-0.6,1.2-1.1,2-1.4s1.6-0.5,2.6-0.5c1,0,1.8,0.2,2.6,0.5s1.4,0.7,2,1.3c0.5,0.6,1,1.2,1.3,2
					c0.3,0.8,0.4,1.7,0.4,2.6c0,0.2,0,0.4,0,0.6c0,0.2,0,0.5,0,0.7H91.5z M94.4,123.2c-0.8,0-1.5,0.2-2,0.7
					c-0.5,0.5-0.8,1.1-0.9,1.8h5.8c-0.1-0.7-0.4-1.3-0.9-1.8C96,123.4,95.3,123.2,94.4,123.2z"/>
				<path id="XMLID_1062_" class="st8" d="M113.2,132.2c-0.4,0.4-0.9,0.8-1.6,1.1s-1.4,0.4-2.2,0.4c-1,0-1.9-0.2-2.7-0.5
					c-0.8-0.3-1.5-0.8-2.1-1.4c-0.6-0.6-1-1.3-1.3-2.1c-0.3-0.8-0.5-1.7-0.5-2.7c0-0.9,0.2-1.8,0.5-2.6c0.3-0.8,0.8-1.5,1.3-2.1
					c0.6-0.6,1.3-1.1,2.1-1.4c0.8-0.3,1.7-0.5,2.6-0.5c0.8,0,1.5,0.1,2.2,0.3c0.6,0.2,1.1,0.5,1.5,0.9V116h3.2v17.5h-3V132.2z
					 M106,127.1c0,0.5,0.1,1,0.3,1.5c0.2,0.5,0.4,0.8,0.7,1.2c0.3,0.3,0.7,0.6,1.1,0.8c0.4,0.2,0.9,0.3,1.4,0.3c0.5,0,1-0.1,1.5-0.3
					c0.4-0.2,0.8-0.5,1.1-0.8c0.3-0.3,0.5-0.7,0.7-1.2s0.3-1,0.3-1.5c0-0.5-0.1-1-0.3-1.5s-0.4-0.9-0.7-1.2s-0.7-0.6-1.1-0.8
					c-0.4-0.2-0.9-0.3-1.4-0.3c-0.5,0-1,0.1-1.5,0.3c-0.4,0.2-0.8,0.5-1.1,0.8c-0.3,0.3-0.6,0.7-0.7,1.2S106,126.6,106,127.1z"/>
				<path id="XMLID_1060_" class="st8" d="M122.4,128.7c0,0.6,0.1,1.1,0.4,1.5s0.7,0.6,1.3,0.6s1-0.2,1.3-0.6
					c0.3-0.4,0.5-0.9,0.5-1.5v-8h3.2v12.8h-3.2v-1c-0.2,0.2-0.5,0.5-0.9,0.7c-0.4,0.3-1,0.4-1.8,0.4c-0.7,0-1.3-0.1-1.8-0.3
					c-0.5-0.2-0.9-0.5-1.2-0.9c-0.3-0.4-0.6-0.9-0.7-1.4c-0.1-0.6-0.2-1.2-0.2-1.8v-8.5h3.2V128.7z"/>
				<path id="XMLID_1058_" class="st8" d="M138.4,130.8c0.7,0,1.2-0.1,1.6-0.3c0.4-0.2,0.8-0.5,1.1-0.7l1.8,2.2
					c-0.2,0.2-0.4,0.4-0.7,0.6s-0.6,0.4-1,0.6c-0.4,0.2-0.8,0.3-1.3,0.4c-0.5,0.1-1,0.2-1.5,0.2c-1,0-1.9-0.2-2.7-0.5
					c-0.8-0.3-1.5-0.8-2.1-1.4c-0.6-0.6-1-1.3-1.3-2.1c-0.3-0.8-0.5-1.7-0.5-2.6c0-0.9,0.2-1.8,0.5-2.6s0.8-1.5,1.4-2.1
					c0.6-0.6,1.3-1.1,2.1-1.4c0.8-0.3,1.7-0.5,2.7-0.5c0.6,0,1.1,0.1,1.6,0.2c0.5,0.1,0.9,0.2,1.3,0.4s0.7,0.4,1,0.6
					c0.3,0.2,0.5,0.4,0.7,0.6l-1.8,2.2c-0.3-0.3-0.6-0.5-1-0.7c-0.4-0.2-1-0.3-1.6-0.3c-0.5,0-1,0.1-1.4,0.3
					c-0.4,0.2-0.8,0.5-1.1,0.8s-0.5,0.7-0.7,1.2c-0.2,0.5-0.2,0.9-0.2,1.5c0,0.6,0.1,1.1,0.3,1.5c0.2,0.5,0.4,0.8,0.8,1.2
					s0.7,0.6,1.1,0.7C137.5,130.7,137.9,130.8,138.4,130.8z"/>
				<path id="XMLID_1056_" class="st8" d="M150.6,130.8c0.7,0,1.2-0.1,1.6-0.3c0.4-0.2,0.8-0.5,1.1-0.7l1.8,2.2
					c-0.2,0.2-0.4,0.4-0.7,0.6s-0.6,0.4-1,0.6c-0.4,0.2-0.8,0.3-1.3,0.4c-0.5,0.1-1,0.2-1.5,0.2c-1,0-1.9-0.2-2.7-0.5
					c-0.8-0.3-1.5-0.8-2.1-1.4c-0.6-0.6-1-1.3-1.3-2.1c-0.3-0.8-0.5-1.7-0.5-2.6c0-0.9,0.2-1.8,0.5-2.6s0.8-1.5,1.4-2.1
					c0.6-0.6,1.3-1.1,2.1-1.4c0.8-0.3,1.7-0.5,2.7-0.5c0.6,0,1.1,0.1,1.6,0.2c0.5,0.1,0.9,0.2,1.3,0.4s0.7,0.4,1,0.6
					c0.3,0.2,0.5,0.4,0.7,0.6l-1.8,2.2c-0.3-0.3-0.6-0.5-1-0.7c-0.4-0.2-1-0.3-1.6-0.3c-0.5,0-1,0.1-1.4,0.3
					c-0.4,0.2-0.8,0.5-1.1,0.8s-0.5,0.7-0.7,1.2c-0.2,0.5-0.2,0.9-0.2,1.5c0,0.6,0.1,1.1,0.3,1.5c0.2,0.5,0.4,0.8,0.8,1.2
					s0.7,0.6,1.1,0.7C149.7,130.7,150.1,130.8,150.6,130.8z"/>
				<path id="XMLID_1053_" class="st8" d="M159,119.9c-0.5,0-1-0.2-1.4-0.6s-0.6-0.8-0.6-1.3c0-0.5,0.2-1,0.6-1.4s0.8-0.6,1.4-0.6
					c0.5,0,1,0.2,1.4,0.6s0.6,0.8,0.6,1.4c0,0.5-0.2,1-0.6,1.3S159.5,119.9,159,119.9z M160.6,133.5h-3.2v-12.8h3.2V133.5z"/>
				<path id="XMLID_1049_" class="st8" d="M163.2,127.1c0-1,0.2-1.8,0.5-2.7c0.3-0.8,0.8-1.5,1.4-2.1c0.6-0.6,1.3-1.1,2.1-1.4
					s1.7-0.5,2.7-0.5c1,0,1.9,0.2,2.8,0.5s1.5,0.8,2.1,1.4c0.6,0.6,1,1.3,1.4,2.1c0.3,0.8,0.5,1.7,0.5,2.6s-0.2,1.8-0.5,2.6
					c-0.3,0.8-0.8,1.5-1.4,2.1c-0.6,0.6-1.3,1.1-2.1,1.4s-1.7,0.5-2.7,0.5c-1,0-1.9-0.2-2.7-0.5c-0.8-0.3-1.5-0.8-2.1-1.4
					c-0.6-0.6-1-1.3-1.4-2.1C163.3,129,163.2,128.1,163.2,127.1z M166.4,127.1c0,0.5,0.1,1,0.3,1.5s0.4,0.8,0.7,1.2
					c0.3,0.3,0.7,0.6,1.1,0.8c0.4,0.2,0.9,0.3,1.4,0.3c0.5,0,1-0.1,1.4-0.3c0.4-0.2,0.8-0.4,1.1-0.8s0.5-0.7,0.7-1.2
					c0.2-0.5,0.3-0.9,0.3-1.5s-0.1-1-0.3-1.5s-0.4-0.9-0.7-1.2c-0.3-0.3-0.7-0.6-1.1-0.8c-0.4-0.2-0.9-0.3-1.4-0.3
					c-0.5,0-1,0.1-1.4,0.3c-0.4,0.2-0.8,0.4-1.1,0.8c-0.3,0.3-0.5,0.7-0.7,1.2S166.4,126.6,166.4,127.1z M173.3,116.5l-1.9,3.3h-3
					l1.8-3.3H173.3z"/>
				<path id="XMLID_1046_" class="st8" d="M194,132.2c-0.4,0.4-0.9,0.8-1.6,1.1s-1.4,0.4-2.2,0.4c-1,0-1.9-0.2-2.7-0.5
					c-0.8-0.3-1.5-0.8-2.1-1.4c-0.6-0.6-1-1.3-1.3-2.1c-0.3-0.8-0.5-1.7-0.5-2.7c0-0.9,0.2-1.8,0.5-2.6c0.3-0.8,0.8-1.5,1.3-2.1
					c0.6-0.6,1.3-1.1,2.1-1.4c0.8-0.3,1.7-0.5,2.6-0.5c0.8,0,1.5,0.1,2.2,0.3c0.6,0.2,1.1,0.5,1.5,0.9V116h3.2v17.5h-3V132.2z
					 M186.8,127.1c0,0.5,0.1,1,0.3,1.5c0.2,0.5,0.4,0.8,0.7,1.2c0.3,0.3,0.7,0.6,1.1,0.8c0.4,0.2,0.9,0.3,1.4,0.3
					c0.5,0,1-0.1,1.5-0.3c0.4-0.2,0.8-0.5,1.1-0.8c0.3-0.3,0.5-0.7,0.7-1.2s0.3-1,0.3-1.5c0-0.5-0.1-1-0.3-1.5s-0.4-0.9-0.7-1.2
					s-0.7-0.6-1.1-0.8c-0.4-0.2-0.9-0.3-1.4-0.3c-0.5,0-1,0.1-1.5,0.3c-0.4,0.2-0.8,0.5-1.1,0.8c-0.3,0.3-0.6,0.7-0.7,1.2
					S186.8,126.6,186.8,127.1z"/>
				<path id="XMLID_1043_" class="st8" d="M203,128.1c0.1,0.8,0.4,1.5,1,2c0.6,0.5,1.3,0.7,2.2,0.7c0.8,0,1.5-0.2,2-0.5
					c0.5-0.4,0.9-0.8,1.3-1.3l2.4,1.4c-0.2,0.4-0.4,0.8-0.8,1.2c-0.3,0.4-0.7,0.8-1.2,1.1c-0.5,0.3-1,0.6-1.6,0.8s-1.3,0.3-2.1,0.3
					c-1,0-1.9-0.2-2.7-0.5c-0.8-0.3-1.5-0.7-2.1-1.3c-0.6-0.6-1-1.3-1.3-2.1c-0.3-0.8-0.5-1.7-0.5-2.8c0-1,0.2-1.8,0.5-2.7
					c0.3-0.8,0.7-1.5,1.3-2.1c0.6-0.6,1.2-1.1,2-1.4s1.6-0.5,2.6-0.5c1,0,1.8,0.2,2.6,0.5s1.4,0.7,2,1.3c0.5,0.6,1,1.2,1.3,2
					c0.3,0.8,0.4,1.7,0.4,2.6c0,0.2,0,0.4,0,0.6c0,0.2,0,0.5,0,0.7H203z M205.9,123.2c-0.8,0-1.5,0.2-2,0.7
					c-0.5,0.5-0.8,1.1-0.9,1.8h5.8c-0.1-0.7-0.4-1.3-0.9-1.8C207.5,123.4,206.8,123.2,205.9,123.2z"/>
				<path id="XMLID_1041_" class="st8" d="M218,133.5h-3.2V116h3.2V133.5z"/>
				<path id="XMLID_1039_" class="st8" d="M231.6,124h-0.8c-0.6,0-1.1,0.1-1.3,0.4c-0.2,0.3-0.4,0.7-0.4,1.3v7.8h-3.2v-12.8h3.2v1
					c0.2-0.3,0.5-0.6,0.9-0.8c0.4-0.2,0.9-0.3,1.6-0.3V124z"/>
				<path id="XMLID_1036_" class="st8" d="M236.6,128.1c0.1,0.8,0.4,1.5,1,2c0.6,0.5,1.3,0.7,2.2,0.7c0.8,0,1.5-0.2,2-0.5
					c0.5-0.4,0.9-0.8,1.3-1.3l2.4,1.4c-0.2,0.4-0.4,0.8-0.8,1.2c-0.3,0.4-0.7,0.8-1.2,1.1c-0.5,0.3-1,0.6-1.6,0.8s-1.3,0.3-2.1,0.3
					c-1,0-1.9-0.2-2.7-0.5c-0.8-0.3-1.5-0.7-2.1-1.3c-0.6-0.6-1-1.3-1.3-2.1c-0.3-0.8-0.5-1.7-0.5-2.8c0-1,0.2-1.8,0.5-2.7
					c0.3-0.8,0.7-1.5,1.3-2.1c0.6-0.6,1.2-1.1,2-1.4s1.6-0.5,2.6-0.5c1,0,1.8,0.2,2.6,0.5s1.4,0.7,2,1.3c0.5,0.6,1,1.2,1.3,2
					c0.3,0.8,0.4,1.7,0.4,2.6c0,0.2,0,0.4,0,0.6c0,0.2,0,0.5,0,0.7H236.6z M239.5,123.2c-0.8,0-1.5,0.2-2,0.7
					c-0.5,0.5-0.8,1.1-0.9,1.8h5.8c-0.1-0.7-0.4-1.3-0.9-1.8C241.1,123.4,240.4,123.2,239.5,123.2z"/>
				<path id="XMLID_1034_" class="st8" d="M255.1,125.5c0-0.6-0.1-1.1-0.4-1.5c-0.3-0.4-0.7-0.5-1.3-0.5c-0.6,0-1,0.2-1.3,0.6
					c-0.3,0.4-0.5,0.9-0.5,1.5v8.1h-3.2v-12.8h3.2v1c0.1-0.1,0.2-0.2,0.3-0.3c0.1-0.1,0.3-0.2,0.5-0.4c0.2-0.1,0.5-0.2,0.8-0.3
					c0.3-0.1,0.7-0.1,1.1-0.1c0.8,0,1.4,0.1,1.9,0.4c0.5,0.2,0.9,0.6,1.2,1c0.3,0.4,0.5,0.9,0.7,1.4c0.1,0.5,0.2,1.1,0.2,1.8v8.5
					h-3.2V125.5z"/>
				<path id="XMLID_1031_" class="st8" d="M271.3,132.2c-0.4,0.4-0.9,0.8-1.6,1.1s-1.4,0.4-2.2,0.4c-1,0-1.9-0.2-2.7-0.5
					c-0.8-0.3-1.5-0.8-2.1-1.4c-0.6-0.6-1-1.3-1.3-2.1c-0.3-0.8-0.5-1.7-0.5-2.7c0-0.9,0.2-1.8,0.5-2.6c0.3-0.8,0.8-1.5,1.3-2.1
					c0.6-0.6,1.3-1.1,2.1-1.4c0.8-0.3,1.7-0.5,2.6-0.5c0.8,0,1.5,0.1,2.2,0.3c0.6,0.2,1.1,0.5,1.5,0.9V116h3.2v17.5h-3V132.2z
					 M264.1,127.1c0,0.5,0.1,1,0.3,1.5c0.2,0.5,0.4,0.8,0.7,1.2c0.3,0.3,0.7,0.6,1.1,0.8c0.4,0.2,0.9,0.3,1.4,0.3
					c0.5,0,1-0.1,1.5-0.3c0.4-0.2,0.8-0.5,1.1-0.8c0.3-0.3,0.5-0.7,0.7-1.2s0.3-1,0.3-1.5c0-0.5-0.1-1-0.3-1.5s-0.4-0.9-0.7-1.2
					s-0.7-0.6-1.1-0.8c-0.4-0.2-0.9-0.3-1.4-0.3c-0.5,0-1,0.1-1.5,0.3c-0.4,0.2-0.8,0.5-1.1,0.8c-0.3,0.3-0.6,0.7-0.7,1.2
					S264.1,126.6,264.1,127.1z"/>
				<path id="XMLID_1028_" class="st8" d="M279,119.9c-0.5,0-1-0.2-1.4-0.6s-0.6-0.8-0.6-1.3c0-0.5,0.2-1,0.6-1.4s0.8-0.6,1.4-0.6
					c0.5,0,1,0.2,1.4,0.6s0.6,0.8,0.6,1.4c0,0.5-0.2,1-0.6,1.3S279.6,119.9,279,119.9z M280.6,133.5h-3.2v-12.8h3.2V133.5z"/>
				<path id="XMLID_1026_" class="st8" d="M293.6,133.5h-3.2v-8.1c0-0.6-0.1-1.1-0.4-1.5c-0.3-0.4-0.7-0.6-1.3-0.6
					c-0.6,0-1,0.2-1.3,0.6c-0.3,0.4-0.4,0.9-0.4,1.5v8h-3.2v-12.8h3.2v1c0.2-0.2,0.5-0.4,0.9-0.7s1-0.4,1.9-0.4
					c0.8,0,1.4,0.1,1.9,0.4s0.9,0.6,1.2,1c0.3-0.3,0.7-0.7,1.2-0.9c0.5-0.3,1.2-0.4,2-0.4c0.8,0,1.5,0.1,2,0.4c0.6,0.2,1,0.6,1.3,1
					c0.3,0.4,0.6,0.9,0.7,1.4c0.2,0.5,0.2,1.1,0.2,1.8v8.5h-3.2v-8.1c0-0.6-0.1-1.1-0.4-1.5c-0.3-0.4-0.7-0.5-1.3-0.5
					s-1,0.2-1.3,0.6c-0.3,0.4-0.4,0.9-0.4,1.4V133.5z"/>
				<path id="XMLID_1023_" class="st8" d="M306.2,128.1c0.1,0.8,0.4,1.5,1,2c0.6,0.5,1.3,0.7,2.2,0.7c0.8,0,1.5-0.2,2-0.5
					c0.5-0.4,0.9-0.8,1.3-1.3l2.4,1.4c-0.2,0.4-0.4,0.8-0.8,1.2c-0.3,0.4-0.7,0.8-1.2,1.1c-0.5,0.3-1,0.6-1.6,0.8s-1.3,0.3-2.1,0.3
					c-1,0-1.9-0.2-2.7-0.5c-0.8-0.3-1.5-0.7-2.1-1.3c-0.6-0.6-1-1.3-1.3-2.1c-0.3-0.8-0.5-1.7-0.5-2.8c0-1,0.2-1.8,0.5-2.7
					c0.3-0.8,0.7-1.5,1.3-2.1c0.6-0.6,1.2-1.1,2-1.4s1.6-0.5,2.6-0.5c1,0,1.8,0.2,2.6,0.5s1.4,0.7,2,1.3c0.5,0.6,1,1.2,1.3,2
					c0.3,0.8,0.4,1.7,0.4,2.6c0,0.2,0,0.4,0,0.6c0,0.2,0,0.5,0,0.7H306.2z M309.1,123.2c-0.8,0-1.5,0.2-2,0.7
					c-0.5,0.5-0.8,1.1-0.9,1.8h5.8c-0.1-0.7-0.4-1.3-0.9-1.8C310.7,123.4,310,123.2,309.1,123.2z"/>
				<path id="XMLID_1021_" class="st8" d="M324.7,125.5c0-0.6-0.1-1.1-0.4-1.5c-0.3-0.4-0.7-0.5-1.3-0.5c-0.6,0-1,0.2-1.3,0.6
					c-0.3,0.4-0.5,0.9-0.5,1.5v8.1H318v-12.8h3.2v1c0.1-0.1,0.2-0.2,0.3-0.3c0.1-0.1,0.3-0.2,0.5-0.4c0.2-0.1,0.5-0.2,0.8-0.3
					c0.3-0.1,0.7-0.1,1.1-0.1c0.8,0,1.4,0.1,1.9,0.4c0.5,0.2,0.9,0.6,1.2,1c0.3,0.4,0.5,0.9,0.7,1.4c0.1,0.5,0.2,1.1,0.2,1.8v8.5
					h-3.2V125.5z"/>
				<path id="XMLID_1019_" class="st8" d="M334.5,120.7h2v2.7h-2v6c0,0.5,0.1,0.8,0.3,1c0.2,0.2,0.5,0.3,1,0.3h0.7v2.7
					c0,0-0.2,0-0.5,0.1s-0.7,0.1-1.3,0.1c-1.2,0-2.1-0.3-2.6-0.9c-0.5-0.6-0.8-1.4-0.8-2.5v-6.9h-1.2v-2.7h1.2v-2h3.2V120.7z"/>
				<path id="XMLID_1017_" class="st8" d="M350.2,130.8c0.7,0,1.2-0.1,1.6-0.3c0.4-0.2,0.8-0.5,1.1-0.7l1.8,2.2
					c-0.2,0.2-0.4,0.4-0.7,0.6s-0.6,0.4-1,0.6c-0.4,0.2-0.8,0.3-1.3,0.4c-0.5,0.1-1,0.2-1.5,0.2c-1,0-1.9-0.2-2.7-0.5
					c-0.8-0.3-1.5-0.8-2.1-1.4c-0.6-0.6-1-1.3-1.3-2.1c-0.3-0.8-0.5-1.7-0.5-2.6c0-0.9,0.2-1.8,0.5-2.6s0.8-1.5,1.4-2.1
					c0.6-0.6,1.3-1.1,2.1-1.4c0.8-0.3,1.7-0.5,2.7-0.5c0.6,0,1.1,0.1,1.6,0.2c0.5,0.1,0.9,0.2,1.3,0.4s0.7,0.4,1,0.6
					c0.3,0.2,0.5,0.4,0.7,0.6l-1.8,2.2c-0.3-0.3-0.6-0.5-1-0.7c-0.4-0.2-1-0.3-1.6-0.3c-0.5,0-1,0.1-1.4,0.3
					c-0.4,0.2-0.8,0.5-1.1,0.8s-0.5,0.7-0.7,1.2c-0.2,0.5-0.2,0.9-0.2,1.5c0,0.6,0.1,1.1,0.3,1.5c0.2,0.5,0.4,0.8,0.8,1.2
					s0.7,0.6,1.1,0.7C349.3,130.7,349.7,130.8,350.2,130.8z"/>
				<path id="XMLID_1014_" class="st8" d="M355.8,127.1c0-1,0.2-1.8,0.5-2.7c0.3-0.8,0.8-1.5,1.4-2.1c0.6-0.6,1.3-1.1,2.1-1.4
					s1.7-0.5,2.7-0.5c1,0,1.9,0.2,2.8,0.5s1.5,0.8,2.1,1.4c0.6,0.6,1,1.3,1.4,2.1c0.3,0.8,0.5,1.7,0.5,2.6s-0.2,1.8-0.5,2.6
					c-0.3,0.8-0.8,1.5-1.4,2.1c-0.6,0.6-1.3,1.1-2.1,1.4s-1.7,0.5-2.7,0.5c-1,0-1.9-0.2-2.7-0.5c-0.8-0.3-1.5-0.8-2.1-1.4
					c-0.6-0.6-1-1.3-1.4-2.1C355.9,129,355.8,128.1,355.8,127.1z M359,127.1c0,0.5,0.1,1,0.3,1.5s0.4,0.8,0.7,1.2
					c0.3,0.3,0.7,0.6,1.1,0.8c0.4,0.2,0.9,0.3,1.4,0.3c0.5,0,1-0.1,1.4-0.3c0.4-0.2,0.8-0.4,1.1-0.8s0.5-0.7,0.7-1.2
					c0.2-0.5,0.3-0.9,0.3-1.5s-0.1-1-0.3-1.5s-0.4-0.9-0.7-1.2c-0.3-0.3-0.7-0.6-1.1-0.8c-0.4-0.2-0.9-0.3-1.4-0.3
					c-0.5,0-1,0.1-1.4,0.3c-0.4,0.2-0.8,0.4-1.1,0.8c-0.3,0.3-0.5,0.7-0.7,1.2S359,126.6,359,127.1z"/>
				<path id="XMLID_1011_" class="st8" d="M381.7,120.7h3v10.7c0,1.2-0.2,2.2-0.5,3.1c-0.3,0.8-0.8,1.5-1.4,2
					c-0.6,0.5-1.3,0.9-2.2,1.1c-0.8,0.2-1.8,0.3-2.7,0.3c-1,0-1.9-0.1-2.7-0.3c-0.8-0.2-1.5-0.5-2-0.8l1-2.5
					c0.4,0.2,0.9,0.5,1.6,0.7c0.7,0.2,1.4,0.3,2.2,0.3c0.5,0,1-0.1,1.4-0.2c0.4-0.1,0.8-0.3,1.2-0.5c0.3-0.2,0.6-0.5,0.8-0.9
					c0.2-0.3,0.3-0.8,0.3-1.2v-0.2c-0.1,0.2-0.3,0.3-0.5,0.5s-0.5,0.3-0.8,0.5c-0.3,0.1-0.6,0.3-1,0.3s-0.8,0.1-1.2,0.1
					c-1,0-1.9-0.2-2.7-0.5c-0.8-0.3-1.5-0.8-2.1-1.4c-0.6-0.6-1-1.3-1.4-2.1c-0.3-0.8-0.5-1.7-0.5-2.7c0-0.9,0.2-1.8,0.5-2.6
					c0.3-0.8,0.8-1.5,1.3-2.1c0.6-0.6,1.3-1.1,2.1-1.4c0.8-0.3,1.7-0.5,2.6-0.5c0.8,0,1.6,0.1,2.2,0.4s1.2,0.6,1.6,1V120.7z
					 M374.5,127.1c0,0.5,0.1,1,0.3,1.5c0.2,0.5,0.4,0.8,0.7,1.2c0.3,0.3,0.7,0.6,1.1,0.8c0.4,0.2,0.9,0.3,1.4,0.3
					c0.5,0,1-0.1,1.5-0.3c0.4-0.2,0.8-0.5,1.1-0.8s0.5-0.7,0.7-1.2c0.2-0.5,0.3-0.9,0.3-1.5c0-0.5-0.1-1-0.3-1.5
					c-0.2-0.5-0.4-0.9-0.7-1.2s-0.7-0.6-1.1-0.8c-0.4-0.2-0.9-0.3-1.4-0.3c-0.5,0-1,0.1-1.5,0.3c-0.4,0.2-0.8,0.5-1.1,0.8
					c-0.3,0.3-0.6,0.7-0.7,1.2C374.6,126.1,374.5,126.6,374.5,127.1z"/>
				<path id="XMLID_1009_" class="st8" d="M394.5,125.5c0-0.6-0.1-1.1-0.4-1.5c-0.3-0.4-0.7-0.5-1.3-0.5c-0.6,0-1,0.2-1.3,0.6
					c-0.3,0.4-0.5,0.9-0.5,1.5v8.1h-3.2v-12.8h3.2v1c0.1-0.1,0.2-0.2,0.3-0.3c0.1-0.1,0.3-0.2,0.5-0.4c0.2-0.1,0.5-0.2,0.8-0.3
					c0.3-0.1,0.7-0.1,1.1-0.1c0.8,0,1.4,0.1,1.9,0.4c0.5,0.2,0.9,0.6,1.2,1c0.3,0.4,0.5,0.9,0.7,1.4c0.1,0.5,0.2,1.1,0.2,1.8v8.5
					h-3.2V125.5z"/>
				<path id="XMLID_1006_" class="st8" d="M402.4,119.9c-0.5,0-1-0.2-1.4-0.6s-0.6-0.8-0.6-1.3c0-0.5,0.2-1,0.6-1.4s0.8-0.6,1.4-0.6
					c0.5,0,1,0.2,1.4,0.6s0.6,0.8,0.6,1.4c0,0.5-0.2,1-0.6,1.3S402.9,119.9,402.4,119.9z M404,133.5h-3.2v-12.8h3.2V133.5z"/>
				<path id="XMLID_1004_" class="st8" d="M410.8,120.7h2v2.7h-2v6c0,0.5,0.1,0.8,0.3,1c0.2,0.2,0.5,0.3,1,0.3h0.7v2.7
					c0,0-0.2,0-0.5,0.1s-0.7,0.1-1.3,0.1c-1.2,0-2.1-0.3-2.6-0.9c-0.5-0.6-0.8-1.4-0.8-2.5v-6.9h-1.2v-2.7h1.2v-2h3.2V120.7z"/>
				<path id="XMLID_1001_" class="st8" d="M417.1,119.9c-0.5,0-1-0.2-1.4-0.6s-0.6-0.8-0.6-1.3c0-0.5,0.2-1,0.6-1.4s0.8-0.6,1.4-0.6
					c0.5,0,1,0.2,1.4,0.6s0.6,0.8,0.6,1.4c0,0.5-0.2,1-0.6,1.3S417.7,119.9,417.1,119.9z M418.7,133.5h-3.2v-12.8h3.2V133.5z"/>
				<path id="XMLID_999_" class="st8" d="M425,128.7c0,0.6,0.1,1.1,0.4,1.5s0.7,0.6,1.3,0.6s1-0.2,1.3-0.6c0.3-0.4,0.5-0.9,0.5-1.5
					v-8h3.2v12.8h-3.2v-1c-0.2,0.2-0.5,0.5-0.9,0.7c-0.4,0.3-1,0.4-1.8,0.4c-0.7,0-1.3-0.1-1.8-0.3c-0.5-0.2-0.9-0.5-1.2-0.9
					c-0.3-0.4-0.6-0.9-0.7-1.4c-0.1-0.6-0.2-1.2-0.2-1.8v-8.5h3.2V128.7z"/>
			</g>
		</g>
		<g id="XMLID_62_">
			<circle id="XMLID_64_" class="st3" cx="63" cy="125.5" r="5.5"/>
		</g>
	</g>
</g>
<g id="guias" class="st9">
</g>
</svg>
