<?xml version="1.0" encoding="utf-8"?>
<!-- Generator: Adobe Illustrator 19.0.0, SVG Export Plug-In . SVG Version: 6.00 Build 0)  -->
<svg version="1.1" id="Capa_1" xmlns="http://www.w3.org/2000/svg" xmlns:xlink="http://www.w3.org/1999/xlink" x="0px" y="0px"
	 viewBox="570 -225.3 1440 1451.3" style="enable-background:new 570 -225.3 1440 1451.3;" xml:space="preserve">
<style type="text/css">
	.st0{fill:#F4F4F4;}
	.st1{fill:#181716;}
	.st2{fill:#C1D9AE;}
	.st3{fill:#FBE2E0;}
	.st4{fill:#F8D2D0;}
	.st5{fill:none;stroke:#F0A0A0;stroke-width:6.0028;stroke-linecap:round;stroke-miterlimit:10;}
	.st6{fill:#F0A0A0;}
	.st7{fill:#3AA336;}
	.st8{fill:none;}
	.st9{font-family:'PlatformWeb-Regular';}
	.st10{font-size:24.0054px;}
	.st11{font-size:33.0075px;}
	.st12{fill:none;stroke:#181716;stroke-width:1.5003;stroke-miterlimit:10;}
</style>
<g id="bg">
	<rect x="570" y="-226" class="st0" width="1440" height="1452.7"/>
	<rect x="570" y="1019.3" class="st1" width="1440" height="207.3"/>
</g>
<g id="cos_1_">
	<g>
		<g>
			<path class="st2" d="M1291.6-169c-0.4,0-0.7,0-1,0s-0.7,0-1,0c-44.9-0.4-62.4,35.1-59.8,80.4c2.5,44.3,19.6,91.2,60.6,92.1l0,0
				c0.1,0,0.2,0,0.3,0s0.2,0,0.3,0l0,0c41-0.9,58.1-47.8,60.6-92.1C1354-133.9,1336.6-169.4,1291.6-169z"/>
			<g>
				
					<ellipse transform="matrix(-0.1335 0.991 -0.991 -0.1335 1458.7888 -1418.2954)" class="st2" cx="1349.4" cy="-71.4" rx="23.8" ry="8"/>
				
					<ellipse transform="matrix(-0.991 0.1335 -0.1335 -0.991 2443.3459 -306.5164)" class="st2" cx="1231.9" cy="-71.3" rx="8" ry="23.8"/>
			</g>
			<rect x="1255.5" y="-28.8" class="st2" width="70.1" height="73.1"/>
			<g>
				<path class="st2" d="M1303.5,77.3l-48.1-73.8l0,0c0,20.9-16.9,37.8-37.8,37.8l0,0L1303.5,77.3z"/>
				<path class="st2" d="M1277.7,77.3l48.1-73.8l0,0c0,20.9,16.9,37.8,37.8,37.8l0,0L1277.7,77.3z"/>
			</g>
		</g>
		<g>
			<rect x="1201" y="41" class="st2" width="178.7" height="281.4"/>
			<path class="st2" d="M1173.6,79.5H1407v86.2c0,35.4-28.7,64-64,64h-105.4c-35.4,0-64-28.7-64-64V79.5z"/>
			<path class="st2" d="M1127.7,162.8h325.1v-59.3c0-34.5-28-62.4-62.4-62.4h-200.2c-34.5,0-62.4,28-62.4,62.4L1127.7,162.8
				L1127.7,162.8z"/>
			<path class="st2" d="M1379.6,322.4h-89.4v196.1h127.1c0,0,0-24.5,0-74.5C1417.4,396.1,1379.6,322.4,1379.6,322.4z"/>
			<path class="st2" d="M1200.9,322.4h89.4v196.1h-127.1c0,0,0-24.5,0-74.5C1163.2,396.1,1200.9,322.4,1200.9,322.4z"/>
			<g>
				<path class="st2" d="M1375.6,769.6c0,19.3-77.1,0-77.1,0v-251c0,0,118.8-29.7,118.8,0C1417.4,625.3,1375.6,740.5,1375.6,769.6z"
					/>
				<path class="st2" d="M1354.5,1084.4h-41l-14.9-314.8h76.9c0,0,6.4,92.3,6.4,123.2C1381.8,979.4,1354.5,1084.4,1354.5,1084.4z"/>
				<path class="st2" d="M1362.3,1179.4c-0.1,2.3-2.4,6-4.9,9.3c-3.8,5-9.7,7.8-15.9,7.8h-29.7c-7,0-12.4-6.1-11.4-13.1l13.1-99h41
					C1354.4,1084.4,1363.3,1150.2,1362.3,1179.4z"/>
			</g>
			<g>
				<path class="st2" d="M1204.9,769.6c0,19.3,77.1,0,77.1,0v-251c0,0-118.8-29.7-118.8,0C1163.2,625.3,1204.9,740.5,1204.9,769.6z"
					/>
				<path class="st2" d="M1226.1,1084.4h41l14.9-314.8h-76.9c0,0-6.4,92.3-6.4,123.2C1198.8,979.4,1226.1,1084.4,1226.1,1084.4z"/>
				<path class="st2" d="M1218.3,1179.4c0.1,2.3,2.4,6,4.9,9.3c3.8,5,9.7,7.8,15.9,7.8h29.7c7,0,12.4-6.1,11.4-13.1l-13.1-99h-41
					C1226.2,1084.4,1217.2,1150.2,1218.3,1179.4z"/>
			</g>
			<polygon class="st2" points="1473.3,312 1427.4,317.4 1399.5,100 1452.7,93.8 			"/>
			<path class="st2" d="M1488.1,496.7l-27,3.1l-33.7-182.5c0,0,42.4-39.8,43.8-27.7c2.5,21.5,8.9,43.4,12.1,73.1
				C1486.9,396.1,1488.1,496.7,1488.1,496.7z"/>
			<path class="st2" d="M1488.1,496.7v41.4c0,8.9-2.7,17.6-7.9,24.9l-32.9,46.8c-2.7,3.9-8,4.9-11.9,2.3l0,0
				c-3.7-2.4-5-7.1-3.1-11.1l20.4-42.3l-2.8-15.3l-14.6,28.8c-0.7,1.3-2.2,2-3.7,1.6l0,0c-1.5-0.4-2.5-1.9-2.3-3.4l3.1-27.7
				c0.8-7.2,3.3-14.1,7.4-20.1l21.2-22.9L1488.1,496.7z"/>
			<g>
				<polygon class="st2" points="1107.9,312 1153.8,317.4 1181.6,100 1128.5,93.8 				"/>
				<path class="st2" d="M1093.1,496.7l27,3.1l33.7-182.5c0,0-42.4-39.8-43.8-27.7c-2.5,21.5-8.9,43.4-12.1,73.1
					C1094.3,396.1,1093.1,496.7,1093.1,496.7z"/>
				<path class="st2" d="M1093.1,496.7v41.4c0,8.9,2.7,17.6,7.9,24.9l32.9,46.8c2.7,3.9,8,4.9,11.9,2.3l0,0c3.7-2.4,5-7.1,3.1-11.1
					l-20.4-42.3l2.8-15.3l14.6,28.8c0.7,1.3,2.2,2,3.7,1.6l0,0c1.5-0.4,2.5-1.9,2.3-3.4l-3.1-27.7c-0.8-7.2-3.3-14.1-7.4-20.1
					l-21.2-22.9L1093.1,496.7z"/>
			</g>
		</g>
	</g>
	<g>
		<g>
			<path class="st3" d="M1308.1,47.7L1308.1,47.7c3.9-2.5,8.4-3.9,13.1-3.9h6.3c7.9,0.5,12.9,3.1,16,7.1
				c21.4,27.7,48.6,65,55.8,114.3c1.7,11.9-15.2,35.7-19.8,39.1c-55.8,41.5-87.2-27.9-87.2-27.9l5-109.7
				C1297.6,59,1301.6,51.9,1308.1,47.7z"/>
			<circle class="st3" cx="1344.7" cy="170.4" r="54.6"/>
		</g>
		<g>
			<path class="st3" d="M1273.8,47.7L1273.8,47.7c-3.9-2.5-8.4-3.9-13.1-3.9h-6.3c-7.9,0.5-12.9,3.1-16,7.1
				c-21.4,27.7-48.6,65-55.8,114.3c-1.7,11.9,15.2,35.7,19.8,39.1c55.8,41.5,87.2-27.9,87.2-27.9l17.6-99l-22.5-10.6
				C1284.4,59,1280.3,51.9,1273.8,47.7z"/>
			<circle class="st3" cx="1237.3" cy="170.4" r="54.6"/>
		</g>
	</g>
	<path class="st4" d="M1290.6,490.1L1290.6,490.1c-30.3,0-54.9-24.6-54.9-54.9v-61.7c0-30.3,24.6-54.9,54.9-54.9l0,0
		c30.3,0,54.9,24.6,54.9,54.9v61.7C1345.5,465.5,1320.9,490.1,1290.6,490.1z"/>
	<g>
		<g>
			<g>
				<circle class="st4" cx="1258.2" cy="169.1" r="22.4"/>
				<circle class="st4" cx="1228.4" cy="179.9" r="24.4"/>
				<circle class="st4" cx="1267.1" cy="104.2" r="13.5"/>
				<rect x="1250.8" y="104.2" class="st4" width="29.9" height="61"/>
				<path class="st4" d="M1204.9,173.3c13.2-52.4,53.6-79.5,53.6-79.5l5.4,70.4C1264,164.1,1201.2,187.8,1204.9,173.3z"/>
			</g>
			<g>
				<circle class="st4" cx="1323.7" cy="169.1" r="22.4"/>
				<circle class="st4" cx="1353.6" cy="179.9" r="24.4"/>
				<circle class="st4" cx="1314.9" cy="104.2" r="13.5"/>
				<rect x="1301.3" y="104.2" class="st4" width="29.9" height="61"/>
				<path class="st4" d="M1377.1,173.3c-13.2-52.4-53.6-79.5-53.6-79.5l-5.4,70.4C1318,164.1,1380.7,187.8,1377.1,173.3z"/>
			</g>
		</g>
		<rect x="1283.5" y="43.3" class="st4" width="14.9" height="56.1"/>
		<g>
			
				<rect x="1301.2" y="87.8" transform="matrix(0.7071 -0.7071 0.7071 0.7071 301.3832 959.253)" class="st4" width="14.9" height="56.1"/>
			
				<rect x="1265.9" y="87.8" transform="matrix(-0.7071 -0.7071 0.7071 -0.7071 2091.8228 1098.1621)" class="st4" width="14.9" height="56.1"/>
		</g>
	</g>
	<g>
		<path class="st5" d="M1458.7,535.5c0,0,20.9-17.7,20.3-35.7c-1.6-43.9,1.6-76-1.6-100.3c-8-60.9-24.9-73-27.9-100.5
			c-2.6-23.1,5-164.8-13-199.7c-19.1-36.9-65.2-41.5-97.4-33c-22.8,6-28.3,24.1-30.4,35.6c-1.6,8.8-1.8,16.5,2.7,35.8"/>
		<path class="st5" d="M1389.9,65.2c23.7,6.2,25.7,29.3,27.5,56.9s33.3,135.3,30.9,171.2c-2.4,35.9-1.1,91.7,6.5,115.8
			s21.6,54.8,23.8,80.9"/>
		<path class="st5" d="M1123.5,535.5c0,0-20.9-17.7-20.3-35.7c1.6-43.9-1.6-76,1.6-100.3c8-60.9,24.9-73,27.9-100.5
			c2.6-23.1-5-164.8,13-199.7c19.1-36.9,65.2-41.5,97.4-33c22.8,6,47.4,21.8,51.6,35.6c2.6,8.6,8.6,16.5,4.2,35.8"/>
		<path class="st5" d="M1192.4,65.2c-23.7,6.2-25.7,29.3-27.5,56.9s-33.3,135.3-30.9,171.2c2.4,35.9,1.1,91.7-6.5,115.8
			s-21.6,54.8-23.8,80.9"/>
		<path class="st5" d="M1339,66.4c0,0-23.1-47.7-24.2-62.9c-1.1-15.2,13.1-41.3,23.2-68.4c5.7-15.3,5-30.2,3.3-40.3
			c-1.3-7.6-6.4-14-13.5-16.9l-4.6-1.9"/>
		<line class="st5" x1="1314.9" y1="0.1" x2="1320.7" y2="75.7"/>
		<path class="st5" d="M1241.8,65.5c0,0,23.1-46.8,24.2-62s-13.1-41.3-23.2-68.4c-6.5-17.4-4.7-34.3-2.5-44.1
			c1.2-5.4,4.3-10.1,8.7-13.3l4.8-3.5"/>
		<line class="st5" x1="1265.9" y1="0.1" x2="1260.1" y2="72.3"/>
		<path class="st5" d="M1294.7,185.9c0,0-3.9,223.5,0.4,234.6c4.3,11.1,78.3,67.9,82.1,115c8.8,108-27.9,228.6-29.6,234.1
			c-6.6,21.4,19,145.2,13.3,195.2s-26.4,117.2-29.7,141.5c-3.2,24.3-5.6,54.3-5.6,54.3"/>
		<path class="st5" d="M1323.7,451.1c13,13.8,18.6,46.7,16.4,84.3c-2.1,37.6,8.4,197.7,2.4,249.2s-18.1,154.4-14.2,193
			c3.9,38.6,7.1,90.2,2.9,128.7"/>
		<path class="st5" d="M1293.6,417.1c-4.3,11.1-86.7,71.3-90.5,118.4c-8.8,108,27.9,228.6,29.6,234.1c6.6,21.4-19,145.2-13.3,195.2
			c5.7,50,26.4,117.2,29.7,141.5c3.2,24.3,5.6,54.3,5.6,54.3"/>
		<path class="st5" d="M1256.9,453.3c-13,13.8-19,44.6-16.9,82.2c2.1,37.6-8.4,197.7-2.4,249.2s18.1,154.4,14.2,193
			c-3.9,38.6-7.1,90.2-2.9,128.7"/>
	</g>
	<path class="st6" d="M1296.1,114.7c0,0,4.3,6.4,3.8,7.8c-0.4,1.4-3.7,2.6-7.2,11c-2.3,5.8,0.9,11.3-0.6,12.4
		c-1.6,1.1-5.7,7.9-6.9,10.2c-8.9,16.7,4,34.6,13.3,41.2c9.3,6.5,18.4,6.7,24.3,9.3c8.2,3.5,19,5.8,25.3-5.3c0,0,4.1-8.5-1-24.1
		c-2.9-8.9-6.4-15.4-8.1-17.8c-5.5-7.7-11.2-11.2-13.8-12.6c-1.4-0.7-0.8-3.8,2-5c2.8-1.3,6-0.3,6-0.3l1-4c0,0-3.9-1.3-5.8-0.9
		c-1.9,0.3,2.1-4.2,2.3-7.3c0,0-2.7-2.3-4.4-1.7c0,0-1,3.7-3.5,7.7c0,0,1-9.6-5.9-14.6c0,0,1.6-8.1,2.1-8.8c0,0-3.2-1.7-4.5-1.4
		c0,0-1.9,8.1-2.2,8.3c-0.3,0.2-0.9,1.2-1.5,0.2c-0.6-1-0.8-9.6-0.8-9.6l-4.4,0.5c0,0,1.9,9.3,0.7,9.8c-0.4,0.2-0.8,0.8-1.6,0.1
		c-2.1-1.8-4.3-6.9-4.3-7.3C1300.3,111.9,1296.1,114.7,1296.1,114.7z"/>
	<g>
		<circle class="st7" cx="1257.3" cy="-126.5" r="13.6"/>
		<circle class="st7" cx="1277.6" cy="-138.1" r="14.7"/>
		<circle class="st7" cx="1300.2" cy="-139.5" r="16.3"/>
		<circle class="st7" cx="1251" cy="-121" r="8.1"/>
		<circle class="st7" cx="1330.6" cy="-121" r="8.1"/>
		<circle class="st7" cx="1319.6" cy="-132.5" r="11"/>
		<rect x="1251" y="-126.5" class="st7" width="79.6" height="13.6"/>
		<rect x="1276.5" y="-135.5" class="st7" width="14.3" height="17.6"/>
	</g>
	<g>
		<rect x="688.1" y="-55.2" class="st8" width="380.7" height="354.3"/>
		<text transform="matrix(1 0 0 1 688.1489 -37.6406)" class="st1 st9 st10">Problemes de salut mental</text>
	</g>
	<g>
		<rect x="688.1" y="-113.3" class="st8" width="283.7" height="41.9"/>
		<text transform="matrix(1 0 0 1 688.1494 -89.1254)" class="st1 st9 st11">CaP</text>
	</g>
	<line class="st12" x1="1300.6" y1="-135.6" x2="688.1" y2="-137.3"/>
	<g>
		<rect x="688.1" y="598.3" class="st8" width="538.6" height="474.6"/>
		<text transform="matrix(1 0 0 1 688.1489 615.8124)" class="st1 st9 st10">Molèsties, estrès</text>
		<text transform="matrix(1 0 0 1 688.1489 651.8124)" class="st1 st9 st10">Pitjor estat de salut general</text>
		<text transform="matrix(1 0 0 1 688.1489 687.8124)" class="st1 st9 st10">Augment de la mortalitat</text>
	</g>
	<g>
		<rect x="688.1" y="540.2" class="st8" width="283.7" height="57.7"/>
		<text transform="matrix(1 0 0 1 688.1484 564.328)" class="st1 st9 st11">GENERAL/ALTRES</text>
	</g>
	<line class="st12" x1="1184.3" y1="517.8" x2="688.1" y2="516.1"/>
	<g>
		<circle class="st7" cx="676.8" cy="607.8" r="5.5"/>
	</g>
	<circle class="st7" cx="676.8" cy="643.8" r="5.5"/>
	<circle class="st7" cx="676.8" cy="679.7" r="5.5"/>
	<circle class="st7" cx="676.8" cy="-45.6" r="5.5"/>
</g>
</svg>
