<?xml version="1.0" encoding="utf-8"?>
<!-- Generator: Adobe Illustrator 19.0.0, SVG Export Plug-In . SVG Version: 6.00 Build 0)  -->
<svg version="1.1" id="Capa_1" xmlns="http://www.w3.org/2000/svg" xmlns:xlink="http://www.w3.org/1999/xlink" x="0px" y="0px"
	 viewBox="570 -225.3 1440 1451.3" style="enable-background:new 570 -225.3 1440 1451.3;" xml:space="preserve">
<style type="text/css">
	.st0{fill:#F4F4F4;}
	.st1{fill:#181716;}
	.st2{fill:#E3D5E9;}
	.st3{fill:#F1EAF5;}
	.st4{fill:#F8D2D0;}
	.st5{fill:#D5BFDD;}
	.st6{fill:none;stroke:#BB94C2;stroke-width:6.0014;stroke-miterlimit:10;}
	.st7{fill:#BB94C2;}
	.st8{fill:none;}
	.st9{font-family:'PlatformWeb-Regular';}
	.st10{font-size:24.0054px;}
	.st11{font-size:33.0075px;}
	.st12{fill:none;stroke:#181716;stroke-width:1.5003;stroke-miterlimit:10;}
</style>
<g id="bg">
	<rect x="570" y="-228.1" class="st0" width="1440" height="1452.7"/>
	<rect x="570" y="1017.2" class="st1" width="1440" height="207.3"/>
</g>
<g id="cos">
	<g>
		<g>
			<path class="st2" d="M1292.6-171.4c-0.4,0-0.7,0-1,0s-0.7,0-1,0c-44.9-0.4-62.4,35.1-59.8,80.4c2.5,44.3,19.6,91.2,60.6,92.1l0,0
				c0.1,0,0.2,0,0.3,0s0.2,0,0.3,0l0,0c41-0.9,58.1-47.8,60.6-92.1C1355-136.3,1337.5-171.8,1292.6-171.4z"/>
			<g>
				
					<ellipse transform="matrix(-0.1335 0.991 -0.991 -0.1335 1457.4265 -1421.929)" class="st2" cx="1350.3" cy="-73.8" rx="23.8" ry="8"/>
				
					<ellipse transform="matrix(-0.991 0.1335 -0.1335 -0.991 2444.821 -311.3018)" class="st2" cx="1232.8" cy="-73.7" rx="8" ry="23.8"/>
			</g>
			<rect x="1256.5" y="-31.2" class="st2" width="70.1" height="73.1"/>
			<g>
				<path class="st2" d="M1304.4,74.9l-48.1-73.8l0,0c0,20.9-16.9,37.8-37.8,37.8l0,0L1304.4,74.9z"/>
				<path class="st2" d="M1278.7,74.9l48.1-73.8l0,0c0,20.9,16.9,37.8,37.8,37.8l0,0L1278.7,74.9z"/>
			</g>
		</g>
		<g>
			<rect x="1201.9" y="38.6" class="st2" width="178.7" height="281.4"/>
			<path class="st2" d="M1174.5,77.1h233.4v86.2c0,35.4-28.7,64-64,64h-105.3c-35.4,0-64-28.7-64-64L1174.5,77.1L1174.5,77.1z"/>
			<path class="st2" d="M1128.7,160.3h325.1V101c0-34.5-28-62.4-62.4-62.4h-200.3c-34.5,0-62.4,28-62.4,62.4V160.3L1128.7,160.3z"/>
			<path class="st2" d="M1380.6,320h-89.4v196.1h127.1c0,0,0-24.5,0-74.5C1418.3,393.7,1380.6,320,1380.6,320z"/>
			<path class="st2" d="M1201.9,320h89.4v196.1h-127.1c0,0,0-24.5,0-74.5C1164.2,393.7,1201.9,320,1201.9,320z"/>
			<g>
				<path class="st2" d="M1376.6,767.1c0,19.3-77.1,0-77.1,0v-251c0,0,118.8-29.7,118.8,0C1418.3,622.9,1376.6,738.1,1376.6,767.1z"
					/>
				<path class="st2" d="M1355.4,1082h-41l-14.9-314.8h76.9c0,0,6.4,92.3,6.4,123.2C1382.8,977,1355.4,1082,1355.4,1082z"/>
				<path class="st2" d="M1363.2,1177c-0.1,2.3-2.4,6-4.9,9.3c-3.8,5-9.7,7.8-15.9,7.8h-29.7c-7,0-12.4-6.1-11.4-13.1l13.1-99h41
					C1355.3,1082,1364.3,1147.7,1363.2,1177z"/>
			</g>
			<g>
				<path class="st2" d="M1205.9,767.1c0,19.3,77.1,0,77.1,0v-251c0,0-118.8-29.7-118.8,0C1164.2,622.9,1205.9,738.1,1205.9,767.1z"
					/>
				<path class="st2" d="M1227.1,1082h41l14.9-314.9h-76.9c0,0-6.4,92.3-6.4,123.2C1199.7,977,1227.1,1082,1227.1,1082z"/>
				<path class="st2" d="M1219.2,1177c0.1,2.3,2.4,6,4.9,9.3c3.8,5,9.7,7.8,15.9,7.8h29.7c7,0,12.4-6.1,11.4-13.1l-13.1-99h-41
					C1227.1,1082,1218.2,1147.7,1219.2,1177z"/>
			</g>
			<polygon class="st2" points="1474.2,309.6 1428.3,314.9 1400.5,97.6 1453.6,91.4 			"/>
			<path class="st2" d="M1489,494.3l-27,3.1l-33.7-182.5c0,0,42.4-39.8,43.8-27.7c2.5,21.5,8.9,43.4,12.1,73.1
				C1487.8,393.6,1489,494.3,1489,494.3z"/>
			<path class="st2" d="M1489,494.3v41.4c0,8.9-2.7,17.6-7.9,24.9l-32.9,46.8c-2.7,3.9-8,4.9-11.9,2.3l0,0c-3.7-2.4-5-7.1-3.1-11.1
				l20.4-42.3l-2.8-15.3l-14.6,28.9c-0.7,1.3-2.2,2-3.7,1.6l0,0c-1.5-0.4-2.5-1.9-2.3-3.4l3.1-27.7c0.8-7.2,3.3-14.1,7.4-20.1
				l21.2-22.9L1489,494.3z"/>
			<g>
				<polygon class="st2" points="1108.8,309.6 1154.7,314.9 1182.6,97.6 1129.4,91.4 				"/>
				<path class="st2" d="M1094,494.3l27,3.1l33.7-182.5c0,0-42.4-39.8-43.8-27.7c-2.5,21.5-8.9,43.4-12.1,73.1
					C1095.2,393.6,1094,494.3,1094,494.3z"/>
				<path class="st2" d="M1094,494.3v41.4c0,8.9,2.7,17.6,7.9,24.9l32.9,46.8c2.7,3.9,8,4.9,11.9,2.3l0,0c3.7-2.4,5-7.1,3.1-11.1
					l-20.4-42.3l2.8-15.3l14.6,28.8c0.7,1.3,2.2,2,3.7,1.6l0,0c1.5-0.4,2.5-1.9,2.3-3.4l-3.1-27.7c-0.8-7.2-3.3-14.1-7.4-20.1
					l-21.3-22.8L1094,494.3z"/>
			</g>
		</g>
	</g>
	<g>
		<g>
			<path class="st3" d="M1309,45.3L1309,45.3c3.9-2.5,8.4-3.9,13.1-3.9h6.3c7.9,0.5,12.9,3.1,16,7.1c21.4,27.7,48.6,65,55.8,114.3
				c1.7,11.9-15.2,35.7-19.8,39.1c-55.8,41.5-87.2-27.9-87.2-27.9l5-109.7C1298.5,56.6,1302.6,49.5,1309,45.3z"/>
			<circle class="st3" cx="1345.6" cy="168" r="54.6"/>
		</g>
		<g>
			<path class="st3" d="M1274.8,45.3L1274.8,45.3c-3.9-2.5-8.4-3.9-13.1-3.9h-6.3c-7.9,0.5-12.9,3.1-16,7.1
				c-21.4,27.7-48.6,65-55.8,114.3c-1.7,11.9,15.2,35.7,19.8,39.1c55.8,41.5,87.2-27.9,87.2-27.9l17.6-99l-22.5-10.6
				C1285.3,56.6,1281.2,49.5,1274.8,45.3z"/>
			<circle class="st3" cx="1238.2" cy="168" r="54.6"/>
		</g>
	</g>
	<path class="st4" d="M1291.5,487.7L1291.5,487.7c-30.3,0-54.9-24.6-54.9-54.9v-61.7c0-30.3,24.6-54.9,54.9-54.9l0,0
		c30.3,0,54.9,24.6,54.9,54.9v61.7C1346.4,463.1,1321.8,487.7,1291.5,487.7z"/>
	<g>
		<g>
			<g>
				<circle class="st5" cx="1259.2" cy="166.6" r="22.4"/>
				<circle class="st5" cx="1229.3" cy="177.4" r="24.4"/>
				<circle class="st5" cx="1268" cy="101.8" r="13.5"/>
				<rect x="1251.7" y="101.8" class="st5" width="29.9" height="61"/>
				<path class="st5" d="M1205.8,170.8c13.2-52.4,53.6-79.5,53.6-79.5l5.4,70.4C1264.9,161.7,1202.2,185.3,1205.8,170.8z"/>
			</g>
			<g>
				<circle class="st5" cx="1324.7" cy="166.6" r="22.4"/>
				<circle class="st5" cx="1354.5" cy="177.4" r="24.4"/>
				<circle class="st5" cx="1315.8" cy="101.8" r="13.5"/>
				<rect x="1302.2" y="101.8" class="st5" width="29.9" height="61"/>
				<path class="st5" d="M1378,170.8c-13.2-52.4-53.6-79.5-53.6-79.5l-5.4,70.4C1318.9,161.7,1381.7,185.3,1378,170.8z"/>
			</g>
		</g>
		<rect x="1284.5" y="40.9" class="st5" width="14.9" height="56.1"/>
		<g>
			
				<rect x="1302.1" y="85.4" transform="matrix(0.7071 -0.7071 0.7071 0.7071 303.308 959.2394)" class="st5" width="14.9" height="56.1"/>
			
				<rect x="1266.9" y="85.5" transform="matrix(-0.7071 -0.7071 0.7071 -0.7071 2095.1577 1094.8928)" class="st5" width="14.9" height="56.1"/>
		</g>
	</g>
	<g>
		<path class="st6" d="M1459.6,533.1c0,0,20.9-17.7,20.3-35.7c-1.6-43.9,1.6-76-1.6-100.3c-8-60.9-24.9-73-27.9-100.5
			c-2.6-23.1,5-164.8-13-199.7c-19.1-36.9-65.2-41.5-97.4-33c-22.8,6-28.3,24.1-30.4,35.6c-1.6,8.8-1.8,16.5,2.7,35.8"/>
		<path class="st6" d="M1390.8,62.8c23.7,6.2,25.7,29.3,27.5,56.9c1.8,27.6,33.3,135.3,30.9,171.2c-2.4,35.9-1.1,91.7,6.5,115.8
			c7.6,24.1,21.6,54.8,23.8,80.9"/>
		<path class="st6" d="M1124.5,533.1c0,0-20.9-17.7-20.3-35.7c1.6-43.9-1.6-76,1.6-100.3c8-60.9,24.9-73,27.9-100.5
			c2.6-23.1-5-164.8,13-199.7c19.1-36.9,65.2-41.5,97.4-33c22.8,6,47.4,21.8,51.6,35.6c2.6,8.6,8.6,16.5,4.2,35.8"/>
		<path class="st6" d="M1193.3,62.8c-23.7,6.2-25.7,29.3-27.5,56.9c-1.8,27.6-33.3,135.3-30.9,171.2c2.4,35.9,1.1,91.7-6.5,115.8
			c-7.6,24.1-21.6,54.8-23.8,80.9"/>
		<path class="st6" d="M1340,63.9c0,0-23.1-47.7-24.2-62.9c-1.1-15.2,13.1-41.3,23.2-68.4c5.7-15.3,5-30.2,3.3-40.3
			c-1.3-7.6-6.4-14-13.5-16.9l-4.6-1.9"/>
		<line class="st6" x1="1315.8" y1="-2.4" x2="1321.6" y2="73.2"/>
		<path class="st6" d="M1242.7,63.1c0,0,23.1-46.8,24.2-62s-13.1-41.3-23.2-68.4c-6.5-17.4-4.7-34.3-2.5-44.1
			c1.2-5.4,4.3-10.1,8.7-13.3l4.8-3.5"/>
		<line class="st6" x1="1266.9" y1="-2.4" x2="1261.1" y2="69.8"/>
		<path class="st6" d="M1295.6,183.5c0,0-3.9,223.5,0.4,234.6c4.3,11.1,78.3,67.9,82.1,115c8.8,108-27.9,228.6-29.6,234.1
			c-6.6,21.4,19,145.2,13.3,195.2c-5.7,50-26.4,117.2-29.7,141.5c-3.2,24.3-5.6,54.3-5.6,54.3"/>
		<path class="st6" d="M1324.7,448.7c13,13.8,18.6,46.7,16.4,84.3c-2.1,37.6,8.4,197.7,2.4,249.2s-18.1,154.4-14.2,193
			c3.9,38.6,7.1,90.2,2.9,128.7"/>
		<path class="st6" d="M1294.5,414.7c-4.3,11.1-86.7,71.3-90.5,118.4c-8.8,108,27.9,228.6,29.6,234.1c6.6,21.4-19,145.2-13.3,195.2
			c5.7,50,26.4,117.2,29.7,141.5c3.2,24.3,5.6,54.3,5.6,54.3"/>
		<path class="st6" d="M1257.9,450.9c-13,13.8-19,44.6-16.9,82.2c2.1,37.6-8.4,197.7-2.4,249.2s18.1,154.4,14.2,193
			c-3.9,38.6-7.1,90.2-2.9,128.7"/>
	</g>
	<path class="st7" d="M1297,112.2c0,0,4.3,6.4,3.8,7.8c-0.4,1.4-3.7,2.6-7.2,11c-2.3,5.8,0.9,11.3-0.6,12.4
		c-1.6,1.1-5.7,7.9-6.9,10.2c-8.9,16.7,4,34.6,13.3,41.2c9.3,6.5,18.4,6.7,24.3,9.3c8.2,3.5,19,5.8,25.3-5.3c0,0,4.1-8.5-1-24.1
		c-2.9-8.9-6.4-15.4-8.1-17.8c-5.5-7.7-11.2-11.2-13.8-12.6c-1.4-0.7-0.8-3.8,2-5c2.8-1.3,6-0.3,6-0.3l1-4c0,0-3.9-1.3-5.8-0.9
		c-1.9,0.3,2.1-4.2,2.3-7.3c0,0-2.7-2.3-4.4-1.7c0,0-1,3.7-3.5,7.7c0,0,1-9.6-5.9-14.6c0,0,1.6-8.1,2.1-8.8c0,0-3.2-1.7-4.5-1.4
		c0,0-1.9,8.1-2.2,8.3c-0.3,0.2-0.9,1.2-1.5,0.2c-0.6-1-0.8-9.6-0.8-9.6l-4.4,0.5c0,0,1.9,9.3,0.7,9.8c-0.4,0.2-0.8,0.8-1.6,0.1
		c-2.1-1.8-4.3-6.9-4.3-7.3C1301.2,109.5,1297,112.2,1297,112.2z"/>
	<g>
		<circle class="st7" cx="1258.2" cy="-128.9" r="13.6"/>
		<circle class="st7" cx="1278.5" cy="-140.5" r="14.7"/>
		<circle class="st7" cx="1301.1" cy="-141.9" r="16.3"/>
		<circle class="st7" cx="1252" cy="-123.4" r="8.1"/>
		<circle class="st7" cx="1331.6" cy="-123.4" r="8.1"/>
		<circle class="st7" cx="1320.5" cy="-134.9" r="11"/>
		<rect x="1252" y="-128.9" class="st7" width="79.6" height="13.6"/>
		<rect x="1277.5" y="-137.9" class="st7" width="14.3" height="17.6"/>
	</g>
	<g>
		<g>
			<rect x="689.1" y="-57.6" class="st8" width="380.7" height="354.3"/>
			<text transform="matrix(1 0 0 1 689.0818 -40.0035)" class="st1 st9 st10">Demencia</text>
			<text transform="matrix(1 0 0 1 689.0818 -4.0035)" class="st1 st9 st10">Deterioro cognitivo</text>
			<text transform="matrix(1 0 0 1 689.0818 31.9965)" class="st1 st9 st10">Enfermedades </text>
			<text transform="matrix(1 0 0 1 689.0818 55.9965)" class="st1 st9 st10">neurodegenerativas</text>
			<text transform="matrix(1 0 0 1 689.0818 91.9965)" class="st1 st9 st10">Problemas de salud mental</text>
			<text transform="matrix(1 0 0 1 689.0818 127.9965)" class="st1 st9 st10">Ictus</text>
			<text transform="matrix(1 0 0 1 689.0818 163.9965)" class="st1 st9 st10">Enfermedades cerebrovasculares</text>
		</g>
		<g>
			<rect x="689.1" y="-115.7" class="st8" width="283.7" height="138.5"/>
			<text transform="matrix(1 0 0 1 689.0813 -91.4874)" class="st1 st9 st11">Cabeza</text>
		</g>
		<line class="st12" x1="1301.5" y1="-138" x2="689.1" y2="-139.7"/>
		<g>
			<rect x="689.1" y="595.9" class="st8" width="538.6" height="474.6"/>
			<text transform="matrix(1 0 0 1 689.0818 613.4492)" class="st1 st9 st10">Obesidad</text>
			<text transform="matrix(1 0 0 1 689.0818 649.4492)" class="st1 st9 st10">Diabetes</text>
			<text transform="matrix(1 0 0 1 689.0818 685.4492)" class="st1 st9 st10">Síndrome metabólico</text>
			<text transform="matrix(1 0 0 1 689.0818 721.4492)" class="st1 st9 st10">Cáncer de colon</text>
			<text transform="matrix(1 0 0 1 689.0818 757.4492)" class="st1 st9 st10">Incremento de la mortalidad</text>
		</g>
		<g>
			<rect x="689.1" y="537.8" class="st8" width="283.7" height="57.7"/>
			<text transform="matrix(1 0 0 1 689.0813 561.965)" class="st1 st9 st11">General/Otros</text>
		</g>
		<line class="st12" x1="1185.3" y1="515.4" x2="689.1" y2="513.7"/>
		<circle class="st7" cx="677.7" cy="642.8" r="5.5"/>
		<circle class="st7" cx="677.7" cy="715.3" r="5.5"/>
		<circle class="st7" cx="677.7" cy="679" r="5.5"/>
		<g>
			<circle class="st7" cx="677.7" cy="750.2" r="5.5"/>
		</g>
		<g>
			<circle class="st7" cx="677.7" cy="605.4" r="5.5"/>
		</g>
		<circle class="st7" cx="677.7" cy="119.6" r="5.5"/>
		<circle class="st7" cx="677.7" cy="155.3" r="5.5"/>
		<circle class="st7" cx="677.7" cy="-11.4" r="5.5"/>
		<circle class="st7" cx="677.7" cy="-48" r="5.5"/>
		<circle class="st7" cx="677.7" cy="83.8" r="5.5"/>
		<circle class="st7" cx="677.7" cy="25.3" r="5.5"/>
		<circle class="st7" cx="1905.3" cy="-45.5" r="5.5"/>
		<circle class="st7" cx="1905.3" cy="934.3" r="5.5"/>
		<circle class="st7" cx="677.7" cy="428.4" r="5.5"/>
		<g>
			<rect x="1534.9" y="-56.8" class="st8" width="357.8" height="214.7"/>
			<text transform="matrix(1 0 0 1 1603.7574 -39.178)" class="st1 st9 st10">Enfermedades respiratorias</text>
		</g>
		<g>
			<rect x="1507.5" y="-114.7" class="st8" width="385.2" height="138.5"/>
			<text transform="matrix(1 0 0 1 1552.6404 -90.5511)" class="st1 st9 st11">Aparato respiratorio  </text>
		</g>
		<polyline class="st12" points="1892.8,-137.1 1529.9,-138.6 1350.3,133.4 		"/>
		<g>
			<rect x="689.1" y="418.5" class="st8" width="357.8" height="48.9"/>
			<text transform="matrix(1 0 0 1 689.0811 436.1019)" class="st1 st9 st10">Cáncer de mama </text>
		</g>
		<g>
			<rect x="689.1" y="359.1" class="st8" width="385.2" height="138.5"/>
			<text transform="matrix(1 0 0 1 689.0801 383.2736)" class="st1 st9 st11">Pecho</text>
		</g>
		<polyline class="st12" points="689.1,336.7 1051.9,335.2 1201.9,144.2 		"/>
		<circle class="st7" cx="1905.3" cy="300.4" r="5.5"/>
		<circle class="st7" cx="1905" cy="335.4" r="5.5"/>
		<g>
			<rect x="1535.8" y="288.8" class="st8" width="357.8" height="151.9"/>
			<text transform="matrix(1 0 0 1 1675.7881 306.4009)" class="st1 st9 st10">Infarto de miocardio </text>
			<text transform="matrix(1 0 0 1 1561.1887 342.4009)" class="st1 st9 st10">Enfermedades cardiovasculares</text>
		</g>
		<g>
			<rect x="1508.4" y="230" class="st8" width="385.2" height="321.3"/>
			<text transform="matrix(1 0 0 1 1725.2363 254.2219)" class="st1 st9 st11">Corazón</text>
		</g>
		<polyline class="st12" points="1893.6,207.7 1530.9,206.3 1330.1,164.9 		"/>
		<g>
			<rect x="1534.9" y="922.9" class="st8" width="357.8" height="133.5"/>
			<text transform="matrix(1 0 0 1 1746.7039 940.5186)" class="st1 st9 st10">Hipertensión</text>
		</g>
		<g>
			<rect x="1507.5" y="864.5" class="st8" width="385.2" height="59.8"/>
			<text transform="matrix(1 0 0 1 1755.9089 888.6785)" class="st1 st9 st11">Arterias  </text>
		</g>
		<line class="st12" x1="1892.8" y1="840.7" x2="1353.1" y2="839"/>
	</g>
</g>
</svg>
