<?xml version="1.0" encoding="utf-8"?>
<!-- Generator: Adobe Illustrator 19.0.0, SVG Export Plug-In . SVG Version: 6.00 Build 0)  -->
<svg version="1.1" id="Capa_1" xmlns="http://www.w3.org/2000/svg" xmlns:xlink="http://www.w3.org/1999/xlink" x="0px" y="0px"
	 viewBox="570 -225.3 1440 1451.3" style="enable-background:new 570 -225.3 1440 1451.3;" xml:space="preserve">
<style type="text/css">
	.st0{fill:#F4F4F4;}
	.st1{fill:#181716;}
	.st2{fill:#F6C2C0;}
	.st3{fill:#FBE2E0;}
	.st4{fill:#F8D2D0;}
	.st5{fill:none;stroke:#F0A0A0;stroke-width:6.0028;stroke-linecap:round;stroke-miterlimit:10;}
	.st6{fill:#F0A0A0;}
	.st7{fill:none;}
	.st8{font-family:'PlatformWeb-Regular';}
	.st9{font-size:24.0054px;}
	.st10{fill:#004F9F;}
	.st11{fill:#BB94C2;}
	.st12{fill:#F29700;}
	.st13{fill:#34B7EB;}
	.st14{fill:#3AA336;}
	.st15{fill:#E55465;}
	.st16{font-size:33.0075px;}
	.st17{fill:none;stroke:#181716;stroke-width:1.5003;stroke-miterlimit:10;}
	.st18{fill:none;stroke:#E55465;stroke-width:6.0028;stroke-linecap:round;stroke-miterlimit:10;}
</style>
<g id="bg">
	<rect x="570" y="-227.7" class="st0" width="1440" height="1452.7"/>
	<rect x="570" y="1017.6" class="st1" width="1440" height="207.3"/>
</g>
<g id="Cos">
	<g>
		<g>
			<path class="st2" d="M1292.7-171c-0.4,0-0.7,0-1,0c-0.3,0-0.7,0-1,0c-44.9-0.4-62.4,35.1-59.8,80.4c2.5,44.3,19.6,91.2,60.6,92.1
				l0,0c0.1,0,0.2,0,0.3,0c0.1,0,0.2,0,0.3,0l0,0c41-0.9,58.1-47.8,60.6-92.1C1355.1-135.9,1337.6-171.4,1292.7-171z"/>
			<g>
				
					<ellipse transform="matrix(-0.1335 0.991 -0.991 -0.1335 1458.1018 -1421.2815)" class="st2" cx="1350.4" cy="-73.2" rx="23.8" ry="8"/>
				
					<ellipse transform="matrix(-0.991 0.1335 -0.1335 -0.991 2444.9253 -310.709)" class="st2" cx="1232.9" cy="-73.4" rx="8" ry="23.8"/>
			</g>
			<rect x="1256.6" y="-30.8" class="st2" width="70.1" height="73.1"/>
			<g>
				<path class="st2" d="M1304.5,75.3l-48.1-73.8l0,0c0,20.9-16.9,37.8-37.8,37.8l0,0L1304.5,75.3z"/>
				<path class="st2" d="M1278.8,75.3l48.1-73.8l0,0c0,20.9,16.9,37.8,37.8,37.8l0,0L1278.8,75.3z"/>
			</g>
		</g>
		<g>
			<rect x="1202" y="39" class="st2" width="178.7" height="281.4"/>
			<path class="st2" d="M1174.7,77.5h233.4v86.2c0,35.4-28.7,64-64,64h-105.4c-35.4,0-64-28.7-64-64V77.5z"/>
			<path class="st2" d="M1128.8,160.8h325.1v-59.3c0-34.5-28-62.4-62.4-62.4h-200.3c-34.5,0-62.4,28-62.4,62.4V160.8z"/>
			<path class="st2" d="M1380.7,320.4h-89.4v196.1h127.1c0,0,0-24.5,0-74.5C1418.4,394.1,1380.7,320.4,1380.7,320.4z"/>
			<path class="st2" d="M1202,320.4h89.4v196.1h-127.1c0,0,0-24.5,0-74.5C1164.3,394.1,1202,320.4,1202,320.4z"/>
			<g>
				<path class="st2" d="M1376.7,767.6c0,19.3-77.1,0-77.1,0v-251c0,0,118.8-29.7,118.8,0C1418.4,623.3,1376.7,738.5,1376.7,767.6z"
					/>
				<path class="st2" d="M1355.5,1082.4h-41l-14.9-314.8h76.9c0,0,6.4,92.3,6.4,123.2C1382.9,977.4,1355.5,1082.4,1355.5,1082.4z"/>
				<path class="st2" d="M1363.4,1177.4c-0.1,2.3-2.4,6-4.9,9.3c-3.8,5-9.7,7.8-15.9,7.8h-29.7c-7,0-12.4-6.1-11.4-13.1l13.1-99h41
					C1355.5,1082.4,1364.4,1148.2,1363.4,1177.4z"/>
			</g>
			<g>
				<path class="st2" d="M1206,767.6c0,19.3,77.1,0,77.1,0v-251c0,0-118.8-29.7-118.8,0C1164.3,623.3,1206,738.5,1206,767.6z"/>
				<path class="st2" d="M1227.2,1082.4h41l14.9-314.8h-76.9c0,0-6.4,92.3-6.4,123.2C1199.8,977.4,1227.2,1082.4,1227.2,1082.4z"/>
				<path class="st2" d="M1219.4,1177.4c0.1,2.3,2.4,6,4.9,9.3c3.8,5,9.7,7.8,15.9,7.8h29.7c7,0,12.4-6.1,11.4-13.1l-13.1-99h-41
					C1227.3,1082.4,1218.3,1148.2,1219.4,1177.4z"/>
			</g>
			<polygon class="st2" points="1474.4,310 1428.5,315.4 1400.6,98 1453.8,91.8 			"/>
			<path class="st2" d="M1489.2,494.7l-27,3.1l-33.7-182.5c0,0,42.4-39.8,43.8-27.7c2.5,21.5,8.9,43.4,12.1,73.1
				C1488,394.1,1489.2,494.7,1489.2,494.7z"/>
			<path class="st2" d="M1489.2,494.7v41.4c0,8.9-2.7,17.6-7.9,24.9l-32.9,46.8c-2.7,3.9-8,4.9-11.9,2.3l0,0
				c-3.7-2.4-5-7.1-3.1-11.1l20.4-42.3l-2.8-15.3l-14.6,28.9c-0.7,1.3-2.2,2-3.7,1.6l0,0c-1.5-0.4-2.5-1.9-2.3-3.4l3.1-27.7
				c0.8-7.2,3.3-14.1,7.4-20.1l21.2-22.9L1489.2,494.7z"/>
			<g>
				<polygon class="st2" points="1109,310 1154.9,315.4 1182.7,98 1129.6,91.8 				"/>
				<path class="st2" d="M1094.2,494.7l27,3.1l33.7-182.5c0,0-42.4-39.8-43.8-27.7c-2.5,21.5-8.9,43.4-12.1,73.1
					C1095.4,394.1,1094.2,494.7,1094.2,494.7z"/>
				<path class="st2" d="M1094.2,494.7v41.4c0,8.9,2.7,17.6,7.9,24.9l32.9,46.8c2.7,3.9,8,4.9,11.9,2.3l0,0c3.7-2.4,5-7.1,3.1-11.1
					l-20.4-42.3l2.8-15.3l14.6,28.9c0.7,1.3,2.2,2,3.7,1.6l0,0c1.5-0.4,2.5-1.9,2.3-3.4l-3.1-27.7c-0.8-7.2-3.3-14.1-7.4-20.1
					l-21.2-22.9L1094.2,494.7z"/>
			</g>
		</g>
	</g>
	<g>
		<g>
			<path class="st3" d="M1309.2,45.7L1309.2,45.7c3.9-2.5,8.4-3.9,13.1-3.9h6.3c7.9,0.5,12.9,3.1,16,7.1
				c21.4,27.7,48.6,65,55.8,114.3c1.7,11.9-15.2,35.7-19.8,39.1c-55.8,41.5-87.2-27.9-87.2-27.9l5-109.7
				C1298.7,57,1302.7,49.9,1309.2,45.7z"/>
			<circle class="st3" cx="1345.8" cy="168.4" r="54.6"/>
		</g>
		<g>
			<path class="st3" d="M1274.9,45.7L1274.9,45.7c-3.9-2.5-8.4-3.9-13.1-3.9h-6.3c-7.9,0.5-12.9,3.1-16,7.1
				c-21.4,27.7-48.6,65-55.8,114.3c-1.7,11.9,15.2,35.7,19.8,39.1c55.8,41.5,87.2-27.9,87.2-27.9l17.6-99l-22.5-10.6
				C1285.4,57,1281.4,49.9,1274.9,45.7z"/>
			<circle class="st3" cx="1238.3" cy="168.4" r="54.6"/>
		</g>
	</g>
	<path class="st4" d="M1291.7,488.1L1291.7,488.1c-30.3,0-54.9-24.6-54.9-54.9v-61.7c0-30.3,24.6-54.9,54.9-54.9l0,0
		c30.3,0,54.9,24.6,54.9,54.9v61.7C1346.5,463.5,1322,488.1,1291.7,488.1z"/>
	<g>
		<g>
			<g>
				<circle class="st4" cx="1259.3" cy="167.1" r="22.4"/>
				<circle class="st4" cx="1229.5" cy="177.9" r="24.4"/>
				<circle class="st4" cx="1268.2" cy="102.2" r="13.5"/>
				<rect x="1251.8" y="102.2" class="st4" width="29.9" height="61"/>
				<path class="st4" d="M1206,171.3c13.2-52.4,53.6-79.5,53.6-79.5l5.4,70.4C1265,162.1,1202.3,185.8,1206,171.3z"/>
			</g>
			<g>
				<circle class="st4" cx="1324.8" cy="167.1" r="22.4"/>
				<circle class="st4" cx="1354.6" cy="177.9" r="24.4"/>
				<circle class="st4" cx="1315.9" cy="102.2" r="13.5"/>
				<rect x="1302.4" y="102.2" class="st4" width="29.9" height="61"/>
				<path class="st4" d="M1378.1,171.3c-13.2-52.4-53.6-79.5-53.6-79.5l-5.4,70.4C1319.1,162.1,1381.8,185.8,1378.1,171.3z"/>
			</g>
		</g>
		<rect x="1284.6" y="41.3" class="st4" width="14.9" height="56.1"/>
		<g>
			
				<rect x="1302.2" y="85.8" transform="matrix(0.7071 -0.7071 0.7071 0.7071 303.0683 959.4214)" class="st4" width="14.9" height="56.1"/>
			
				<rect x="1246.3" y="106.4" transform="matrix(0.7071 -0.7071 0.7071 0.7071 292.7509 934.4564)" class="st4" width="56.1" height="14.9"/>
		</g>
	</g>
	<g>
		<circle class="st4" cx="1258.4" cy="-128.5" r="13.6"/>
		<circle class="st4" cx="1278.7" cy="-140.1" r="14.7"/>
		<circle class="st4" cx="1301.3" cy="-141.5" r="16.3"/>
		<circle class="st4" cx="1252.1" cy="-123" r="8.1"/>
		<circle class="st4" cx="1331.7" cy="-123" r="8.1"/>
		<circle class="st4" cx="1320.7" cy="-134.5" r="11"/>
		<rect x="1252.1" y="-128.5" class="st4" width="79.6" height="13.6"/>
		<rect x="1277.6" y="-137.5" class="st4" width="14.3" height="17.6"/>
	</g>
	<g>
		<path class="st5" d="M1459.8,533.5c0,0,20.9-17.7,20.3-35.7c-1.6-43.9,1.6-76-1.6-100.3c-8-60.9-24.9-73-27.9-100.5
			c-2.6-23.1,5-164.8-13-199.7c-19.1-36.9-65.2-41.5-97.4-33c-22.8,6-28.3,24.1-30.4,35.6c-1.6,8.8-1.8,16.5,2.7,35.8"/>
		<path class="st5" d="M1390.9,63.2c23.7,6.2,25.7,29.3,27.5,56.9s33.3,135.3,30.9,171.2s-1.1,91.7,6.5,115.8s21.6,54.8,23.8,80.9"
			/>
		<path class="st5" d="M1124.6,533.5c0,0-20.9-17.7-20.3-35.7c1.6-43.9-1.6-76,1.6-100.3c8-60.9,24.9-73,27.9-100.5
			c2.6-23.1-5-164.8,13-199.7c19.1-36.9,65.2-41.5,97.4-33c22.8,6,47.4,21.8,51.6,35.6c2.6,8.6,8.6,16.5,4.2,35.8"/>
		<path class="st5" d="M1193.5,63.2c-23.7,6.2-25.7,29.3-27.5,56.9s-33.3,135.3-30.9,171.2c2.4,35.9,1.1,91.7-6.5,115.8
			s-21.6,54.8-23.8,80.9"/>
		<path class="st5" d="M1339.1-119.9c0,0,10.1,25.8,0,53s-24.3,53.3-23.2,68.4c1.1,15.2,24.2,62.9,24.2,62.9"/>
		<line class="st5" x1="1315.9" y1="-1.9" x2="1321.8" y2="73.7"/>
		<path class="st5" d="M1243.8-119.9c0,0-10.1,25.8,0,53c10.1,27.2,24.3,53.3,23.2,68.4s-24.2,62-24.2,62"/>
		<line class="st5" x1="1267" y1="-1.9" x2="1261.2" y2="70.3"/>
		<path class="st5" d="M1295.8,183.9c0,0-3.9,223.5,0.4,234.6c4.3,11.1,78.3,67.9,82.1,115c8.8,108-27.9,228.6-29.6,234.1
			c-6.6,21.4,19,145.2,13.3,195.2s-26.4,117.2-29.7,141.5c-3.2,24.3-5.6,54.3-5.6,54.3"/>
		<path class="st5" d="M1324.8,449.2c13,13.8,18.6,46.7,16.4,84.3c-2.1,37.6,8.4,197.7,2.4,249.2s-18.1,154.4-14.2,193
			c3.9,38.6,7.1,90.2,2.9,128.7"/>
		<path class="st5" d="M1294.6,415.1c-4.3,11.1-86.7,71.3-90.5,118.4c-8.8,108,27.9,228.6,29.6,234.1c6.6,21.4-19,145.2-13.3,195.2
			c5.7,50,26.4,117.2,29.7,141.5c3.2,24.3,5.6,54.3,5.6,54.3"/>
		<path class="st5" d="M1258,451.3c-13,13.8-19,44.6-16.9,82.2c2.1,37.6-8.4,197.7-2.4,249.2s18.1,154.4,14.2,193
			c-3.9,38.6-7.1,90.2-2.9,128.7"/>
	</g>
	<path class="st6" d="M1297.2,112.7c0,0,4.3,6.4,3.8,7.8c-0.4,1.4-3.7,2.6-7.2,11c-2.3,5.8,0.9,11.3-0.6,12.4
		c-1.6,1.1-5.7,7.9-6.9,10.2c-8.9,16.7,4,34.6,13.3,41.2c9.3,6.5,18.4,6.7,24.3,9.3c8.2,3.5,19,5.8,25.3-5.3c0,0,4.1-8.5-1-24.1
		c-2.9-8.9-6.4-15.4-8.1-17.8c-5.5-7.7-11.2-11.2-13.8-12.6c-1.4-0.7-0.8-3.8,2-5c2.8-1.3,6-0.3,6-0.3l1-4c0,0-3.9-1.3-5.8-0.9
		c-1.9,0.3,2.1-4.2,2.3-7.3c0,0-2.7-2.3-4.4-1.7c0,0-1,3.7-3.5,7.7c0,0,1-9.6-5.9-14.6c0,0,1.6-8.1,2.1-8.8c0,0-3.2-1.7-4.5-1.4
		c0,0-1.9,8.1-2.2,8.3c-0.3,0.2-0.9,1.2-1.5,0.2s-0.8-9.6-0.8-9.6l-4.4,0.5c0,0,1.9,9.3,0.7,9.8c-0.4,0.2-0.8,0.8-1.6,0.1
		c-2.1-1.8-4.3-6.9-4.3-7.3C1301.4,109.9,1297.2,112.7,1297.2,112.7z"/>
</g>
<g id="General">
	<g>
		<g>
			<rect x="689.3" y="596" class="st7" width="538.6" height="474.6"/>
			<text transform="matrix(1 0 0 1 689.2622 613.5876)" class="st1 st8 st9">Obesidad</text>
			<text transform="matrix(1 0 0 1 689.2622 649.5876)" class="st1 st8 st9">Diabetes</text>
			<text transform="matrix(1 0 0 1 689.2622 685.5876)" class="st1 st8 st9">Síndrome metabólico</text>
			<text transform="matrix(1 0 0 1 689.2622 721.5876)" class="st1 st8 st9">Molestias, estrés</text>
			<text transform="matrix(1 0 0 1 689.2622 757.5876)" class="st1 st8 st9">Trastorno del sueño</text>
			<text transform="matrix(1 0 0 1 689.2622 793.5876)" class="st8 st9">Lesiones por accidentes de trabajo y de tráfico</text>
			<text transform="matrix(1 0 0 1 689.2622 829.5878)" class="st1 st8 st9">Cáncer de colon</text>
			<text transform="matrix(1 0 0 1 689.2622 865.6877)" class="st1 st8 st9">Inflamación sistémica</text>
			<text transform="matrix(1 0 0 1 689.2622 901.6877)" class="st1 st8 st9">Peor estado de salud general</text>
			<text transform="matrix(1 0 0 1 689.2622 937.6877)" class="st1 st8 st9">Incremento de la mortalidad</text>
		</g>
		<circle class="st10" cx="677.9" cy="750.3" r="5.5"/>
		<circle class="st11" cx="677.9" cy="605.9" r="5.5"/>
		<circle class="st12" cx="677.9" cy="784.8" r="5.5"/>
		<g>
			<circle class="st13" cx="677.9" cy="642.5" r="5.5"/>
			<circle class="st11" cx="663.9" cy="642.5" r="5.5"/>
		</g>
		<g>
			<circle class="st10" cx="677.9" cy="714.6" r="5.5"/>
			<circle class="st14" cx="664.1" cy="714.6" r="5.5"/>
		</g>
		<circle class="st14" cx="677.9" cy="892.4" r="5.5"/>
		<g>
			<circle class="st12" cx="651.6" cy="928" r="5.5"/>
			<ellipse class="st11" cx="638.4" cy="928" rx="5.5" ry="5.5"/>
			<circle class="st14" cx="625.4" cy="928" r="5.5"/>
			<circle class="st10" cx="664.7" cy="928" r="5.5"/>
			<circle class="st13" cx="677.9" cy="928" r="5.5"/>
		</g>
		<circle class="st11" cx="677.9" cy="676.8" r="5.5"/>
		<circle class="st11" cx="677.9" cy="819.7" r="5.5"/>
		<circle class="st13" cx="677.9" cy="856.7" r="5.5"/>
	</g>
	<g>
		<g>
			<path class="st15" d="M1292.8-171.3c-0.4,0-0.7,0-1,0c-0.3,0-0.7,0-1,0c-44.9-0.4-62.4,35.1-59.8,80.4
				c2.5,44.3,19.6,91.2,60.6,92.1l0,0c0.1,0,0.2,0,0.3,0c0.1,0,0.2,0,0.3,0l0,0c41-0.9,58.1-47.8,60.6-92.1
				C1355.2-136.1,1337.7-171.7,1292.8-171.3z"/>
			<g>
				
					<ellipse transform="matrix(-0.1335 0.991 -0.991 -0.1335 1458.1213 -1421.781)" class="st15" cx="1350.6" cy="-73.5" rx="23.8" ry="8"/>
				
					<ellipse transform="matrix(-0.991 0.1335 -0.1335 -0.991 2445.0974 -311.1212)" class="st15" cx="1233" cy="-73.6" rx="8" ry="23.8"/>
			</g>
			<rect x="1256.6" y="-31" class="st15" width="70.1" height="73.1"/>
			<g>
				<path class="st15" d="M1304.6,75.1l-48.2-73.8l0,0c0,20.9-16.9,37.8-37.8,37.8l0,0L1304.6,75.1z"/>
				<path class="st15" d="M1278.8,75.1L1327,1.3l0,0c0,20.9,16.9,37.8,37.8,37.8l0,0L1278.8,75.1z"/>
			</g>
		</g>
		<g>
			<rect x="1202.1" y="38.8" class="st15" width="178.7" height="281.4"/>
			<path class="st15" d="M1174.7,77.3h233.4v86.2c0,35.4-28.7,64-64,64h-105.4c-35.4,0-64-28.7-64-64V77.3z"/>
			<path class="st15" d="M1128.9,160.5H1454v-59.3c0-34.5-28-62.4-62.4-62.4h-200.3c-34.5,0-62.4,28-62.4,62.4L1128.9,160.5
				L1128.9,160.5z"/>
			<path class="st15" d="M1380.8,320.2h-89.4v196.1h127.1c0,0,0-24.5,0-74.5C1418.5,393.8,1380.8,320.2,1380.8,320.2z"/>
			<path class="st15" d="M1202,320.2h89.4v196.1h-127.1c0,0,0-24.5,0-74.5C1164.3,393.8,1202,320.2,1202,320.2z"/>
			<g>
				<path class="st15" d="M1376.7,767.3c0,19.3-77.1,0-77.1,0v-251c0,0,118.8-29.7,118.8,0C1418.5,623.1,1376.7,738.2,1376.7,767.3z
					"/>
				<path class="st15" d="M1355.6,1082.2h-41l-15-314.9h76.9c0,0,6.4,92.3,6.4,123.2C1382.9,977.2,1355.6,1082.2,1355.6,1082.2z"/>
				<path class="st15" d="M1363.4,1177.2c-0.1,2.3-2.4,6-4.9,9.3c-3.8,5-9.7,7.8-15.9,7.8h-29.7c-7,0-12.4-6.1-11.4-13.1l13.1-99h41
					C1355.5,1082.2,1364.4,1147.9,1363.4,1177.2z"/>
			</g>
			<g>
				<path class="st15" d="M1206.1,767.3c0,19.3,77.1,0,77.1,0v-251c0,0-118.8-29.7-118.8,0C1164.3,623.1,1206.1,738.2,1206.1,767.3z
					"/>
				<path class="st15" d="M1227.2,1082.2h41l15-314.9h-76.9c0,0-6.4,92.3-6.4,123.2C1199.9,977.2,1227.2,1082.2,1227.2,1082.2z"/>
				<path class="st15" d="M1219.4,1177.2c0.1,2.3,2.4,6,4.9,9.3c3.8,5,9.7,7.8,15.9,7.8h29.8c7,0,12.4-6.1,11.4-13.1l-13.1-99h-41
					C1227.3,1082.2,1218.4,1147.9,1219.4,1177.2z"/>
			</g>
			<polygon class="st15" points="1474.4,309.8 1428.5,315.1 1400.7,97.8 1453.8,91.6 			"/>
			<path class="st15" d="M1489.2,494.5l-27,3.1l-33.7-182.5c0,0,42.4-39.8,43.8-27.7c2.5,21.5,8.9,43.4,12.1,73.1
				C1488,393.8,1489.2,494.5,1489.2,494.5z"/>
			<path class="st15" d="M1489.2,494.5v41.4c0,8.9-2.7,17.6-7.9,24.9l-32.9,46.8c-2.7,3.9-8,4.9-11.9,2.3l0,0
				c-3.7-2.4-5-7.1-3.1-11.1l20.4-42.3l-2.8-15.3l-14.6,28.8c-0.7,1.3-2.2,2-3.7,1.6l0,0c-1.5-0.4-2.5-1.9-2.3-3.4l3.1-27.7
				c0.8-7.2,3.3-14.1,7.4-20.1l21.2-22.9L1489.2,494.5z"/>
			<g>
				<polygon class="st15" points="1109,309.8 1154.9,315.1 1182.8,97.8 1129.6,91.6 				"/>
				<path class="st15" d="M1094.2,494.5l27,3.1l33.7-182.5c0,0-42.4-39.8-43.8-27.7c-2.5,21.5-8.9,43.4-12.1,73.1
					C1095.4,393.8,1094.2,494.5,1094.2,494.5z"/>
				<path class="st15" d="M1094.2,494.5v41.4c0,8.9,2.7,17.6,7.9,24.9l32.9,46.8c2.7,3.9,8,4.9,11.9,2.3l0,0c3.7-2.4,5-7.1,3.1-11.1
					l-20.4-42.3l2.8-15.3L1147,570c0.7,1.3,2.2,2,3.7,1.6l0,0c1.5-0.4,2.5-1.9,2.3-3.4l-3.1-27.7c-0.8-7.2-3.3-14.1-7.4-20.1
					l-21.2-22.9L1094.2,494.5z"/>
			</g>
		</g>
	</g>
	<g>
		<g>
			<path class="st3" d="M1309.2,45.5L1309.2,45.5c3.9-2.5,8.4-3.9,13.1-3.9h6.3c7.9,0.5,12.9,3.1,16,7.1
				c21.4,27.7,48.6,65,55.8,114.3c1.7,11.9-15.2,35.7-19.8,39.1c-55.8,41.5-87.2-27.9-87.2-27.9l5-109.7
				C1298.7,56.7,1302.8,49.7,1309.2,45.5z"/>
			<circle class="st3" cx="1345.8" cy="168.2" r="54.6"/>
		</g>
		<g>
			<path class="st3" d="M1275,45.5L1275,45.5c-3.9-2.5-8.4-3.9-13.1-3.9h-6.3c-7.9,0.5-12.9,3.1-16,7.1
				c-21.4,27.7-48.6,65-55.8,114.3c-1.7,11.9,15.2,35.7,19.8,39.1c55.8,41.5,87.2-27.9,87.2-27.9l17.6-99l-22.5-10.6
				C1285.5,56.7,1281.4,49.7,1275,45.5z"/>
			<circle class="st3" cx="1238.4" cy="168.2" r="54.6"/>
		</g>
	</g>
	<path class="st4" d="M1291.7,487.9L1291.7,487.9c-30.3,0-54.9-24.6-54.9-54.9v-61.7c0-30.3,24.6-54.9,54.9-54.9l0,0
		c30.3,0,54.9,24.6,54.9,54.9V433C1346.6,463.3,1322,487.9,1291.7,487.9z"/>
	<g>
		<g>
			<g>
				<circle class="st4" cx="1259.3" cy="166.8" r="22.4"/>
				<circle class="st4" cx="1229.5" cy="177.6" r="24.4"/>
				<circle class="st4" cx="1268.2" cy="102" r="13.5"/>
				<rect x="1251.9" y="102" class="st4" width="29.9" height="61"/>
				<path class="st4" d="M1206,171c13.2-52.4,53.6-79.5,53.6-79.5l5.4,70.4C1265.1,161.8,1202.4,185.5,1206,171z"/>
			</g>
			<g>
				<circle class="st4" cx="1324.9" cy="166.8" r="22.4"/>
				<circle class="st4" cx="1354.7" cy="177.6" r="24.4"/>
				<circle class="st4" cx="1316" cy="102" r="13.5"/>
				<rect x="1302.5" y="101.9" class="st4" width="29.9" height="61"/>
				<path class="st4" d="M1378.2,171c-13.2-52.4-53.6-79.5-53.6-79.5l-5.4,70.4C1319.1,161.8,1381.8,185.5,1378.2,171z"/>
			</g>
		</g>
		<rect x="1284.6" y="41.1" class="st4" width="14.9" height="56.1"/>
		<g>
			
				<rect x="1302.3" y="85.6" transform="matrix(0.7071 -0.7071 0.7071 0.7071 303.2256 959.4091)" class="st4" width="14.9" height="56.1"/>
			
				<rect x="1246.3" y="106.1" transform="matrix(0.7071 -0.7071 0.7071 0.7071 292.9878 934.3862)" class="st4" width="56.1" height="14.9"/>
		</g>
	</g>
	<g>
		<path class="st5" d="M1459.8,533.2c0,0,20.9-17.7,20.3-35.7c-1.6-43.9,1.6-76-1.6-100.3c-8-60.9-24.9-73-27.9-100.5
			c-2.6-23.1,5-164.8-13-199.7c-19.1-36.9-65.2-41.5-97.4-33c-22.8,6-28.3,24.1-30.4,35.6c-1.6,8.8-1.8,16.5,2.7,35.8"/>
		<path class="st5" d="M1391,63c23.7,6.2,25.7,29.3,27.5,56.9s33.3,135.3,30.9,171.2c-2.4,35.9-1.1,91.7,6.5,115.8
			s21.6,54.8,23.8,80.9"/>
		<path class="st5" d="M1124.7,533.2c0,0-20.9-17.7-20.3-35.7c1.6-43.9-1.6-76,1.6-100.3c8-60.9,24.9-73,27.9-100.5
			c2.6-23.1-5-164.8,13-199.7c19.1-36.9,65.2-41.5,97.4-33c22.8,6,47.4,21.8,51.6,35.6c2.6,8.6,8.6,16.5,4.2,35.8"/>
		<path class="st5" d="M1193.5,63c-23.7,6.2-25.7,29.3-27.5,56.9s-33.3,135.3-30.9,171.2c2.4,35.9,1.1,91.7-6.5,115.8
			s-21.6,54.8-23.8,80.9"/>
		<path class="st5" d="M1340.1,64.1c0,0-23.1-47.7-24.2-62.9c-1.1-15.2,13.1-41.3,23.2-68.4c5.7-15.3,5-30.2,3.3-40.3
			c-1.3-7.6-6.4-14-13.5-16.9l-4.6-1.9"/>
		<line class="st5" x1="1316" y1="-2.2" x2="1321.8" y2="73.4"/>
		<path class="st5" d="M1242.9,63.3c0,0,23.1-46.8,24.2-62c1.1-15.2-13.1-41.3-23.2-68.4c-6.5-17.4-4.7-34.3-2.5-44.1
			c1.2-5.4,4.3-10.1,8.7-13.3l4.8-3.5"/>
		<line class="st5" x1="1267.1" y1="-2.2" x2="1261.2" y2="70"/>
		<path class="st5" d="M1295.8,183.7c0,0-3.9,223.5,0.4,234.6c4.3,11.1,78.3,67.9,82.1,115c8.8,108-27.9,228.6-29.6,234.1
			c-6.6,21.4,19,145.2,13.3,195.2s-26.4,117.2-29.7,141.5c-3.2,24.3-5.6,54.3-5.6,54.3"/>
		<path class="st5" d="M1324.9,448.9c13,13.8,18.6,46.7,16.4,84.3c-2.1,37.6,8.4,197.7,2.4,249.2s-18.1,154.4-14.2,193
			c3.9,38.6,7.1,90.2,2.9,128.7"/>
		<path class="st5" d="M1294.7,414.9c-4.3,11.1-86.7,71.3-90.5,118.4c-8.8,108,27.9,228.6,29.6,234.1c6.6,21.4-19,145.2-13.3,195.2
			s26.4,117.2,29.7,141.5c3.2,24.3,5.6,54.3,5.6,54.3"/>
		<path class="st5" d="M1258.1,451c-13,13.8-19,44.6-16.9,82.2s-8.4,197.7-2.4,249.2s18.1,154.4,14.2,193
			c-3.9,38.6-7.1,90.2-2.9,128.7"/>
	</g>
	<path class="st6" d="M1297.2,112.4c0,0,4.3,6.4,3.8,7.8c-0.4,1.4-3.7,2.6-7.2,11c-2.3,5.8,0.9,11.3-0.6,12.4
		c-1.6,1.1-5.7,7.9-6.9,10.2c-8.9,16.7,4,34.6,13.3,41.2c9.3,6.5,18.4,6.7,24.3,9.3c8.2,3.5,19,5.8,25.3-5.3c0,0,4.1-8.5-1-24.1
		c-2.9-8.9-6.4-15.4-8.1-17.8c-5.5-7.7-11.2-11.2-13.8-12.6c-1.4-0.7-0.8-3.8,2-5c2.8-1.3,6-0.3,6-0.3l1-4c0,0-3.9-1.3-5.8-0.9
		c-1.9,0.3,2.1-4.2,2.3-7.3c0,0-2.7-2.3-4.4-1.7c0,0-1,3.7-3.5,7.7c0,0,1-9.6-5.9-14.6c0,0,1.6-8.1,2.1-8.8c0,0-3.2-1.7-4.5-1.4
		c0,0-1.9,8.1-2.2,8.3c-0.3,0.2-0.9,1.2-1.5,0.2s-0.8-9.6-0.8-9.6l-4.4,0.5c0,0,1.9,9.3,0.7,9.8c-0.4,0.2-0.8,0.8-1.6,0.1
		c-2.1-1.8-4.3-6.9-4.3-7.3C1301.4,109.7,1297.2,112.4,1297.2,112.4z"/>
	<g>
		<circle class="st4" cx="1258.4" cy="-128.7" r="13.6"/>
		<circle class="st4" cx="1278.7" cy="-140.4" r="14.7"/>
		<circle class="st4" cx="1301.3" cy="-141.8" r="16.3"/>
		<circle class="st4" cx="1252.2" cy="-123.3" r="8.1"/>
		<circle class="st4" cx="1331.7" cy="-123.3" r="8.1"/>
		<circle class="st4" cx="1320.7" cy="-134.7" r="11"/>
		<rect x="1252.2" y="-128.7" class="st4" width="79.6" height="13.6"/>
		<rect x="1277.6" y="-137.8" class="st4" width="14.3" height="17.6"/>
	</g>
	<g>
		<rect x="689.3" y="538" class="st7" width="283.7" height="57.7"/>
		<text transform="matrix(1 0 0 1 689.2617 562.1031)" class="st1 st8 st16">General/Otros</text>
	</g>
	<line class="st17" x1="1185.4" y1="515.6" x2="689.3" y2="513.9"/>
</g>
<g id="Pit_1_">
	<g>
		<g>
			<path class="st15" d="M1309.5,45.1L1309.5,45.1c3.9-2.5,8.4-3.9,13.1-3.9h6.3c7.9,0.5,12.9,3.1,16,7.1
				c21.4,27.7,48.6,65,55.8,114.3c1.7,11.9-15.2,35.7-19.8,39.1c-55.8,41.5-87.2-27.9-87.2-27.9l5-109.7
				C1299,56.4,1303,49.3,1309.5,45.1z"/>
			<circle class="st15" cx="1346.1" cy="167.8" r="54.6"/>
		</g>
		<g>
			<path class="st15" d="M1275.2,45.1L1275.2,45.1c-3.9-2.5-8.4-3.9-13.1-3.9h-6.3c-7.9,0.5-12.9,3.1-16,7.1
				c-21.4,27.7-48.6,65-55.8,114.3c-1.7,11.9,15.2,35.7,19.8,39.1c55.8,41.5,87.2-27.9,87.2-27.9l17.6-99l-22.5-10.6
				C1285.8,56.4,1281.7,49.3,1275.2,45.1z"/>
			<circle class="st15" cx="1238.7" cy="167.8" r="54.6"/>
		</g>
	</g>
	<g>
		<g>
			<g>
				<circle class="st4" cx="1259.6" cy="166.4" r="22.4"/>
				<circle class="st4" cx="1229.8" cy="177.2" r="24.4"/>
				<circle class="st4" cx="1268.5" cy="101.6" r="13.5"/>
				<rect x="1252.2" y="101.6" class="st4" width="29.9" height="61"/>
				<path class="st4" d="M1206.3,170.6c13.2-52.4,53.6-79.5,53.6-79.5l5.4,70.4C1265.4,161.5,1202.6,185.1,1206.3,170.6z"/>
			</g>
			<g>
				<circle class="st4" cx="1325.1" cy="166.4" r="22.4"/>
				<circle class="st4" cx="1355" cy="177.2" r="24.4"/>
				<circle class="st4" cx="1316.3" cy="101.6" r="13.5"/>
				<rect x="1302.7" y="101.6" class="st4" width="29.9" height="61"/>
				<path class="st4" d="M1378.5,170.6c-13.2-52.4-53.6-79.5-53.6-79.5l-5.4,70.4C1319.4,161.5,1382.1,185.1,1378.5,170.6z"/>
			</g>
		</g>
		<rect x="1284.9" y="40.7" class="st4" width="14.9" height="56.1"/>
		<g>
			
				<rect x="1302.6" y="85.2" transform="matrix(0.7071 -0.7071 0.7071 0.7071 303.6003 959.5176)" class="st4" width="14.9" height="56.1"/>
			
				<rect x="1246.7" y="105.8" transform="matrix(0.7071 -0.7071 0.7071 0.7071 293.2589 934.5507)" class="st4" width="56.1" height="14.9"/>
		</g>
	</g>
	<g>
		<path class="st5" d="M1361.5,60.3c-7.3,0.5-14.4,1.7-21,3.4c-22.8,6-28.3,24.1-30.4,35.6c-1.6,8.8-1.8,16.5,2.7,35.8"/>
		<path class="st5" d="M1226.5,60.5c6.3,0.6,12.3,1.7,18,3.2c22.8,6,47.4,21.8,51.6,35.6c2.6,8.6,8.6,16.5,4.2,35.8"/>
		<line class="st5" x1="1316.3" y1="-2.6" x2="1322.1" y2="73"/>
		<path class="st5" d="M1243.2,62.9c0,0,23.1-46.8,24.2-62"/>
		<line class="st5" x1="1267.3" y1="-2.6" x2="1261.5" y2="69.6"/>
	</g>
	<g>
		<circle class="st11" cx="678.2" cy="428.2" r="5.5"/>
		<g>
			<rect x="689.5" y="418.3" class="st7" width="357.8" height="48.9"/>
			<text transform="matrix(1 0 0 1 689.5474 435.8657)" class="st1 st8 st9">Cáncer de mama </text>
		</g>
		<g>
			<rect x="689.5" y="358.9" class="st7" width="385.2" height="138.5"/>
			<text transform="matrix(1 0 0 1 689.5464 383.0371)" class="st1 st8 st16">Pecho</text>
		</g>
		<polyline class="st17" points="689.5,336.5 1052.4,335 1202.4,144 		"/>
	</g>
	<path class="st6" d="M1297.2,112.7c0,0,4.3,6.4,3.8,7.8c-0.4,1.4-3.7,2.6-7.2,11c-2.3,5.8,0.9,11.3-0.6,12.4
		c-1.6,1.1-5.7,7.9-6.9,10.2c-8.9,16.7,4,34.6,13.3,41.2c9.3,6.5,18.4,6.7,24.3,9.3c8.2,3.5,19,5.8,25.3-5.3c0,0,4.1-8.5-1-24.1
		c-2.9-8.9-6.4-15.4-8.1-17.8c-5.5-7.7-11.2-11.2-13.8-12.6c-1.4-0.7-0.8-3.8,2-5c2.8-1.3,6-0.3,6-0.3l1-4c0,0-3.9-1.3-5.8-0.9
		c-1.9,0.3,2.1-4.2,2.3-7.3c0,0-2.7-2.3-4.4-1.7c0,0-1,3.7-3.5,7.7c0,0,1-9.6-5.9-14.6c0,0,1.6-8.1,2.1-8.8c0,0-3.2-1.7-4.5-1.4
		c0,0-1.9,8.1-2.2,8.3c-0.3,0.2-0.9,1.2-1.5,0.2s-0.8-9.6-0.8-9.6l-4.4,0.5c0,0,1.9,9.3,0.7,9.8c-0.4,0.2-0.8,0.8-1.6,0.1
		c-2.1-1.8-4.3-6.9-4.3-7.3C1301.3,110,1297.2,112.7,1297.2,112.7z"/>
</g>
<g id="AparellRespiratori">
	<g>
		<g>
			<g>
				<circle class="st15" cx="1259.8" cy="166.2" r="22.4"/>
				<circle class="st15" cx="1230" cy="177" r="24.4"/>
				<circle class="st15" cx="1268.6" cy="101.3" r="13.5"/>
				<rect x="1252.3" y="101.3" class="st15" width="29.9" height="61"/>
				<path class="st15" d="M1206.4,170.4c13.2-52.4,53.6-79.5,53.6-79.5l5.4,70.4C1265.5,161.2,1202.8,184.9,1206.4,170.4z"/>
			</g>
			<g>
				<circle class="st15" cx="1325.3" cy="166.2" r="22.4"/>
				<circle class="st15" cx="1355.1" cy="177" r="24.4"/>
				<circle class="st15" cx="1316.4" cy="101.3" r="13.5"/>
				<rect x="1302.8" y="101.3" class="st15" width="29.9" height="61"/>
				<path class="st15" d="M1378.6,170.4c-13.2-52.4-53.6-79.5-53.6-79.5l-5.4,70.4C1319.5,161.2,1382.3,184.9,1378.6,170.4z"/>
			</g>
		</g>
		<rect x="1285.1" y="40.4" class="st15" width="14.9" height="56.1"/>
		<g>
			
				<rect x="1302.7" y="84.9" transform="matrix(0.7071 -0.7071 0.7071 0.7071 303.8658 959.4943)" class="st15" width="14.9" height="56.1"/>
			
				<rect x="1246.9" y="105.7" transform="matrix(0.7071 -0.7071 0.7071 0.7071 293.4552 934.6646)" class="st15" width="56.1" height="14.9"/>
		</g>
	</g>
	<g>
		<path class="st5" d="M1315.1,83.4c-2.7,5.4-4.1,11-4.9,15.6c-1.6,8.8-1.8,16.5,2.7,35.8"/>
		<path class="st5" d="M1283.8,83c6.3,5.2,10.9,10.8,12.5,16c2.6,8.6,8.6,16.5,4.2,35.8"/>
	</g>
	<path class="st6" d="M1297.7,111.8c0,0,4.3,6.4,3.8,7.8c-0.4,1.4-3.7,2.6-7.2,11c-2.3,5.8,0.9,11.3-0.6,12.4
		c-1.6,1.1-5.7,7.9-6.9,10.2c-8.9,16.7,4,34.6,13.3,41.2c9.3,6.5,18.4,6.7,24.3,9.3c8.2,3.5,19,5.8,25.3-5.3c0,0,4.1-8.5-1-24.1
		c-2.9-8.9-6.4-15.4-8.1-17.8c-5.5-7.7-11.2-11.2-13.8-12.6c-1.4-0.7-0.8-3.8,2-5c2.8-1.3,6-0.3,6-0.3l1-4c0,0-3.9-1.3-5.8-0.9
		c-1.9,0.3,2.1-4.2,2.3-7.3c0,0-2.7-2.3-4.4-1.7c0,0-1,3.7-3.5,7.7c0,0,1-9.6-5.9-14.6c0,0,1.6-8.1,2.1-8.8c0,0-3.2-1.7-4.5-1.4
		c0,0-1.9,8.1-2.2,8.3c-0.3,0.2-0.9,1.2-1.5,0.2s-0.8-9.6-0.8-9.6l-4.4,0.5c0,0,1.9,9.3,0.7,9.8c-0.4,0.2-0.8,0.8-1.6,0.1
		c-2.1-1.8-4.3-6.9-4.3-7.3C1301.8,109,1297.7,111.8,1297.7,111.8z"/>
	<g>
		<circle class="st13" cx="1905.9" cy="-45.9" r="5.5"/>
		<circle class="st13" cx="1905.9" cy="14.3" r="5.5"/>
		<circle class="st13" cx="1905.9" cy="50.1" r="5.5"/>
		<circle class="st11" cx="1919.7" cy="50.1" r="5.5"/>
		<circle class="st13" cx="1905.9" cy="85.9" r="5.5"/>
		<circle class="st13" cx="1905.9" cy="122" r="5.5"/>
		<g>
			<rect x="1535.5" y="-57.3" class="st7" width="357.8" height="214.7"/>
			<text transform="matrix(1 0 0 1 1662.1104 -39.6882)" class="st1 st8 st9">Enfermedad Pulmonar </text>
			<text transform="matrix(1 0 0 1 1611.7109 -13.6882)" class="st1 st8 st9">Obstructiva Crónica (EPOC)</text>
			<text transform="matrix(1 0 0 1 1820.4084 20.3117)" class="st1 st8 st9">Asma</text>
			<text transform="matrix(1 0 0 1 1609.4111 56.3117)" class="st1 st8 st9">Enfermedades respiratorias </text>
			<text transform="matrix(1 0 0 1 1774.8088 92.3117)" class="st1 st8 st9">Neumonía</text>
			<text transform="matrix(1 0 0 1 1693.1099 128.3117)" class="st1 st8 st9">Cáncer de pulmón</text>
		</g>
		<g>
			<rect x="1508.1" y="-115.2" class="st7" width="385.2" height="138.5"/>
			<text transform="matrix(1 0 0 1 1559.252 -91.0615)" class="st1 st8 st16">Aparato respiratorio  </text>
		</g>
		<polyline class="st17" points="1893.4,-137.6 1530.5,-139.1 1350.9,133 		"/>
	</g>
</g>
<g id="Cor">
	<path class="st15" d="M1297.3,112.7c0,0,4.3,6.4,3.8,7.8c-0.4,1.4-3.7,2.6-7.2,11c-2.3,5.8,0.9,11.3-0.6,12.4
		c-1.6,1.1-5.7,7.9-6.9,10.2c-8.9,16.7,4,34.6,13.3,41.2c9.3,6.5,18.4,6.7,24.3,9.3c8.2,3.5,19,5.8,25.3-5.3c0,0,4.1-8.5-1-24.1
		c-2.9-8.9-6.4-15.4-8.1-17.8c-5.5-7.7-11.2-11.2-13.8-12.6c-1.4-0.7-0.8-3.8,2-5c2.8-1.3,6-0.3,6-0.3l1-4c0,0-3.9-1.3-5.8-0.9
		c-1.9,0.3,2.1-4.2,2.3-7.3c0,0-2.7-2.3-4.4-1.7c0,0-1,3.7-3.5,7.7c0,0,1-9.6-5.9-14.6c0,0,1.6-8.1,2.1-8.8c0,0-3.2-1.7-4.5-1.4
		c0,0-1.9,8.1-2.2,8.3c-0.3,0.2-0.9,1.2-1.5,0.2s-0.8-9.6-0.8-9.6l-4.4,0.5c0,0,1.9,9.3,0.7,9.8c-0.4,0.2-0.8,0.8-1.6,0.1
		c-2.1-1.8-4.3-6.9-4.3-7.3C1301.5,110,1297.3,112.7,1297.3,112.7z"/>
	<g>
		<circle class="st10" cx="1919.1" cy="407.7" r="5.5"/>
		<circle class="st11" cx="1932.9" cy="407.7" r="5.5"/>
		<circle class="st10" cx="1919.3" cy="300.9" r="5.5"/>
		<circle class="st11" cx="1933.2" cy="300.9" r="5.5"/>
		<circle class="st13" cx="1905.5" cy="300.9" r="5.5"/>
		<circle class="st13" cx="1905.3" cy="335.9" r="5.5"/>
		<circle class="st13" cx="1905.3" cy="371.8" r="5.5"/>
		<circle class="st13" cx="1905.3" cy="407.7" r="5.5"/>
		<g>
			<rect x="1536.1" y="289.3" class="st7" width="357.8" height="151.9"/>
			<text transform="matrix(1 0 0 1 1675.0538 306.8598)" class="st1 st8 st9">Infarto de miocardio </text>
			<text transform="matrix(1 0 0 1 1795.6522 342.8598)" class="st1 st8 st9">Arritmia</text>
			<text transform="matrix(1 0 0 1 1620.3542 378.8598)" class="st1 st8 st9">Fallo congestivo cardíaco</text>
			<text transform="matrix(1 0 0 1 1557.4543 414.8598)" class="st1 st8 st9">Enfermedades cardiovasculares</text>
		</g>
		<g>
			<rect x="1508.7" y="230.5" class="st7" width="385.2" height="321.3"/>
			<text transform="matrix(1 0 0 1 1725.5022 254.6812)" class="st1 st8 st16">Corazón</text>
		</g>
		<polyline class="st17" points="1893.9,208.2 1531.1,206.8 1330.3,165.4 		"/>
	</g>
</g>
<g id="AparellReproductor_1_">
	<path class="st15" d="M1292.1,488.2L1292.1,488.2c-30.3,0-54.9-24.6-54.9-54.9v-61.7c0-30.3,24.6-54.9,54.9-54.9l0,0
		c30.3,0,54.9,24.6,54.9,54.9v61.7C1347,463.7,1322.4,488.2,1292.1,488.2z"/>
	<g>
		<path class="st5" d="M1294.7,310.9c-0.3,52.6-0.1,102.6,1.9,107.8c2.3,6,25,25.3,45.9,49.3"/>
		<path class="st5" d="M1325.3,449.3"/>
		<path class="st5" d="M1295.1,415.2c-2.4,6.1-28.5,27.2-52.1,52.8"/>
		<path class="st5" d="M1258.5,451.4"/>
	</g>
	<g>
		<g>
			<rect x="1532.4" y="613" class="st7" width="360.9" height="195.4"/>
			<text transform="matrix(1 0 0 1 1656.9669 630.5197)" class="st1 st8 st9">Nacimiento prematuro</text>
			<text transform="matrix(1 0 0 1 1651.767 666.5197)" class="st1 st8 st9">Peso reducido al nacer </text>
			<text transform="matrix(1 0 0 1 1757.2659 702.5197)" class="st1 st8 st9">Preclampsia</text>
			<text transform="matrix(1 0 0 1 1604.7672 738.5197)" class="st1 st8 st9">Reducción en la calidad del </text>
			<text transform="matrix(1 0 0 1 1785.5651 765.5199)" class="st1 st8 st9">esperma</text>
		</g>
		<g>
			<rect x="1526.6" y="517.3" class="st7" width="366.7" height="123.5"/>
			<text transform="matrix(1 0 0 1 1542.8528 541.4698)" class="st1 st8 st16">Aparato reproductor</text>
			<text transform="matrix(1 0 0 1 1791.751 578.9698)" class="st1 st8 st16">y feto</text>
		</g>
		<polyline class="st17" points="1325.3,374.4 1507.7,494.4 1893.4,493.2 		"/>
		<circle class="st13" cx="1905.9" cy="622.9" r="5.5"/>
		<circle class="st13" cx="1905.9" cy="660.4" r="5.5"/>
		<circle class="st13" cx="1905.9" cy="730.4" r="5.5"/>
		<circle class="st12" cx="1919.7" cy="622.9" r="5.5"/>
		<circle class="st13" cx="1905.9" cy="696.5" r="5.5"/>
	</g>
</g>
<g id="Cap">
	<g>
		<g>
			<rect x="689.2" y="-56.5" class="st7" width="380.7" height="427.2"/>
			<text transform="matrix(1 0 0 1 689.2378 -38.9043)" class="st1 st8 st9">Demencia</text>
			<text transform="matrix(1 0 0 1 689.2378 -2.9044)" class="st1 st8 st9">Deterioro cognitivo</text>
			<text transform="matrix(1 0 0 1 689.2378 33.0956)" class="st1 st8 st9">Enfermedades </text>
			<text transform="matrix(1 0 0 1 689.2378 57.0956)" class="st1 st8 st9">neurodegenerativas</text>
			<text transform="matrix(1 0 0 1 689.2378 93.0956)" class="st1 st8 st9">Problemas de salud mental</text>
			<text transform="matrix(1 0 0 1 689.2378 129.0956)" class="st1 st8 st9">Ictus</text>
			<text transform="matrix(1 0 0 1 689.2378 165.0956)" class="st1 st8 st9">Enfermedades cerebrovasculares</text>
			<text transform="matrix(1 0 0 1 689.2378 201.1958)" class="st1 st8 st9">Autismo y problemas de </text>
			<text transform="matrix(1 0 0 1 689.2378 225.1958)" class="st1 st8 st9">conducta en niños</text>
			<text transform="matrix(1 0 0 1 689.2378 261.1958)" class="st8 st9">Tinnitus o sordera</text>
			<text transform="matrix(1 0 0 1 689.2378 297.1958)" class="st8 st9">Reducción del rendimiento </text>
			<text transform="matrix(1 0 0 1 689.2378 321.1958)" class="st8 st9">cognitivo</text>
		</g>
		<circle class="st13" cx="677.9" cy="193.6" r="5.5"/>
		<circle class="st10" cx="677.9" cy="253.2" r="5.5"/>
		<circle class="st12" cx="677.9" cy="289.6" r="5.5"/>
		<g>
			<circle class="st13" cx="677.9" cy="121.1" r="5.5"/>
			<circle class="st11" cx="650.2" cy="121.1" r="5.5"/>
			<circle class="st10" cx="664.1" cy="121.1" r="5.5"/>
		</g>
		<g>
			<circle class="st13" cx="677.9" cy="-46.9" r="5.5"/>
			<circle class="st11" cx="664.1" cy="-46.9" r="5.5"/>
		</g>
		<g>
			<circle class="st13" cx="677.9" cy="25.2" r="5.5"/>
			<circle class="st11" cx="664.1" cy="25.2" r="5.5"/>
		</g>
		<g>
			<circle class="st10" cx="677.9" cy="157.3" r="5.5"/>
			<circle class="st11" cx="664.1" cy="157.3" r="5.5"/>
		</g>
		<g>
			<circle class="st10" cx="677.9" cy="-10.2" r="5.5"/>
			<circle class="st11" cx="664.1" cy="-10.2" r="5.5"/>
		</g>
		<circle class="st14" cx="650.2" cy="85" r="5.5"/>
		<circle class="st11" cx="664.1" cy="85" r="5.5"/>
		<circle class="st13" cx="677.9" cy="85" r="5.5"/>
	</g>
	<path class="st15" d="M1331.7-131c-0.2,0-0.4,0-0.6,0c0.4-1.1,0.6-2.2,0.6-3.4c0-6.1-4.9-11-11-11c-1.2,0-2.4,0.2-3.5,0.6
		c-1.6-7.4-8.1-12.9-15.9-12.9c-5.3,0-10,2.6-13,6.5c-2.6-2.2-5.9-3.6-9.6-3.6c-7.9,0-14.3,6.2-14.7,14c-1.7-0.8-3.6-1.2-5.6-1.2
		c-7.5,0-13.6,6.1-13.6,13.6c0,0.6,0.1,1.2,0.1,1.8c-0.6,1.1-0.9,2.4-0.9,3.7c0,4.5,3.6,8.1,8.1,8.1h79.6c4.5,0,8.1-3.6,8.1-8.1
		C1339.8-127.4,1336.2-131,1331.7-131z M1311.5-128.5h-0.5c0.1-0.1,0.2-0.1,0.3-0.2C1311.4-128.6,1311.4-128.5,1311.5-128.5z"/>
	<g>
		<rect x="689.2" y="-115.2" class="st7" width="283.7" height="41.9"/>
		<text transform="matrix(1 0 0 1 689.2383 -91.062)" class="st1 st8 st16">Cabeza</text>
	</g>
	<line class="st17" x1="1301.7" y1="-137.6" x2="689.2" y2="-139.3"/>
</g>
<g id="Arteries">
	<g>
		<path class="st18" d="M1460.1,533.6c0,0,20.9-17.7,20.3-35.7c-1.6-43.9,1.6-76-1.6-100.3c-8-60.9-24.9-73-27.9-100.5
			c-2.6-23.1,5-164.8-13-199.7c-19.1-36.9-65.2-41.5-97.4-33c-22.8,6-28.3,24.1-30.4,35.6c-1.6,8.8-1.8,16.5,2.7,35.8"/>
		<path class="st18" d="M1391.3,63.3c23.7,6.2,25.7,29.3,27.5,56.9c1.8,27.6,33.3,135.3,30.9,171.2c-2.4,35.9-1.1,91.7,6.5,115.8
			c7.6,24.1,21.6,54.8,23.8,80.9"/>
		<path class="st18" d="M1125,533.6c0,0-20.9-17.7-20.3-35.7c1.6-43.9-1.6-76,1.6-100.3c8-60.9,24.9-73,27.9-100.5
			c2.6-23.1-5-164.8,13-199.7c19.1-36.9,65.2-41.5,97.4-33c22.8,6,47.4,21.8,51.6,35.6c2.6,8.6,8.6,16.5,4.2,35.8"/>
		<path class="st18" d="M1193.8,63.3c-23.7,6.2-25.7,29.3-27.5,56.9c-1.8,27.6-33.3,135.3-30.9,171.2c2.4,35.9,1.1,91.7-6.5,115.8
			s-21.6,54.8-23.8,80.9"/>
		<path class="st18" d="M1340.4,64.5c0,0-23.1-47.7-24.2-62.9c-1.1-15.2,13.1-41.3,23.2-68.4c5.7-15.3,5-30.2,3.3-40.3
			c-1.3-7.6-6.4-14-13.5-16.9l-4.6-1.9"/>
		<line class="st18" x1="1316.3" y1="-1.8" x2="1322.1" y2="73.8"/>
		<path class="st18" d="M1243.2,63.6c0,0,23.1-46.8,24.2-62s-13.1-41.3-23.2-68.4c-6.5-17.4-4.7-34.3-2.5-44.1
			c1.2-5.4,4.3-10.1,8.7-13.3l4.8-3.5"/>
		<line class="st18" x1="1267.4" y1="-1.8" x2="1261.5" y2="70.4"/>
		<path class="st18" d="M1296.1,184.1c0,0-3.9,223.5,0.4,234.6c4.3,11.1,78.3,67.9,82.1,115c8.8,108-27.9,228.6-29.6,234.1
			c-6.6,21.4,19,145.2,13.3,195.2c-5.7,50-26.4,117.2-29.7,141.5s-5.6,54.3-5.6,54.3"/>
		<path class="st18" d="M1325.2,449.3c13,13.8,18.6,46.7,16.4,84.3c-2.1,37.6,8.4,197.7,2.4,249.2s-18.1,154.4-14.2,193
			s7.1,90.2,2.9,128.7"/>
		<path class="st18" d="M1295,415.2c-4.3,11.1-86.7,71.3-90.5,118.4c-8.8,108,27.9,228.6,29.6,234.1c6.6,21.4-19,145.2-13.3,195.2
			c5.7,50,26.4,117.2,29.7,141.5c3.2,24.3,5.6,54.3,5.6,54.3"/>
		<path class="st18" d="M1258.4,451.4c-13,13.8-19,44.6-16.9,82.2c2.1,37.6-8.4,197.7-2.4,249.2s18.1,154.4,14.2,193
			c-3.9,38.6-7.1,90.2-2.9,128.7"/>
	</g>
	<g>
		<circle class="st11" cx="1919.6" cy="934.8" r="5.5"/>
		<circle class="st10" cx="1905.7" cy="934.8" r="5.5"/>
		<circle class="st13" cx="1905.7" cy="971.3" r="5.5"/>
		<g>
			<rect x="1535.4" y="923.5" class="st7" width="357.8" height="133.5"/>
			<text transform="matrix(1 0 0 1 1745.1812 941.0255)" class="st1 st8 st9">Hipertensión</text>
			<text transform="matrix(1 0 0 1 1601.0833 977.0255)" class="st1 st8 st9">Trombosis venosa profunda</text>
		</g>
		<g>
			<rect x="1508" y="865" class="st7" width="385.2" height="59.8"/>
			<text transform="matrix(1 0 0 1 1752.3862 889.1852)" class="st1 st8 st16">Arterias  </text>
		</g>
		<line class="st17" x1="1893.2" y1="841.3" x2="1353.5" y2="839.6"/>
	</g>
</g>
<g id="b-General">
	<path class="st15" d="M1291.4,320.2L1291.4,320.2H1202c0,0-37.7,73.6-37.7,121.7c0,49.9,0,74.5,0,74.5c0,106.7,41.7,221.9,41.7,251
		c0,0.4,0,0.8,0.1,1.2c-0.7,10.7-6.3,93.2-6.3,122c0,86.7,27.4,191.7,27.4,191.7h0.1c0,0-8.9,65.7-7.9,95c0.1,2.3,2.4,6,4.9,9.3
		c3.8,5,9.7,7.8,15.9,7.8h29.8c7,0,12.4-6.1,11.4-13.1l-13.1-99l14.9-315v-251h8.2l0,0h8.2v251l14.9,314.8l-13.1,99
		c-0.9,6.9,4.5,13.1,11.4,13.1h29.7c6.2,0,12.1-2.8,15.9-7.8c2.5-3.3,4.9-7,4.9-9.3c1-29.2-7.9-95-7.9-95h0.1
		c0,0,27.4-105,27.4-191.7c0-28.8-5.6-111.3-6.3-122c0.1-0.4,0.1-0.8,0.1-1.2c0-29.1,41.7-144.2,41.7-251c0,0,0-24.5,0-74.5
		c0-48.1-37.7-121.7-37.7-121.7h-89.3L1291.4,320.2L1291.4,320.2z"/>
	<path class="st15" d="M1484.4,360.5c-3.2-29.6-9.6-51.5-12.1-73.1l-18.5-195.9l-0.6,0.1c-4.6-29.9-30.5-52.8-61.7-52.8h-10.8l0,0
		h-20.3c-18.8-2.1-33.5-18.1-33.5-37.5l-0.2,0.3v-16.3c8.6-9.3,14.9-21.9,19.1-36c0.4,0.3,0.9,0.5,1.4,0.6
		c4.4,0.6,9.3-9.5,11.1-22.5c1.8-13-0.4-24-4.7-24.6c-0.3,0-0.5,0-0.8,0c0.7-42.2-17.2-74.5-60-74.1c-0.4,0-0.7,0-1,0
		c-0.3,0-0.7,0-1,0c-42.8-0.4-60.7,31.9-60,74.1c-0.3,0-0.5,0-0.8,0c-4.4,0.6-6.5,11.6-4.7,24.6c1.8,13,6.7,23.1,11.1,22.5
		c0.5-0.1,1-0.3,1.4-0.6c4.2,14.1,10.4,26.7,19.1,36V1.5l-0.2-0.3c0,19.4-14.6,35.4-33.5,37.5h-20.9l0,0h-10.8
		c-33.7,0-61.1,26.7-62.4,60.1l-17.8,188.6c-2.5,21.5-8.9,43.4-12.1,73.1c-3.6,33.3-4.8,133.9-4.8,133.9v41.4
		c0,8.9,2.7,17.6,7.9,24.9l32.9,46.8c2.7,3.9,8,4.9,11.9,2.3c3.7-2.4,5-7.1,3.1-11.1l-20.4-42.3l2.8-15.3l14.6,28.8
		c0.7,1.3,2.2,2,3.7,1.6s2.5-1.9,2.3-3.4l-3.1-27.7c-0.8-7.2-3.3-14.1-7.4-20.1l-21.2-22.9l33.7-182.5l19.8-154.6v2.9
		c0,21.7,10.8,40.9,27.4,52.5V320h178.7V215.9c16.5-11.6,27.4-30.8,27.4-52.5v-2.9h0.6l19.8,154.6l33.7,182.5l-21.2,22.9
		c-4,6-6.6,12.9-7.4,20.1l-3.1,27.7c-0.2,1.6,0.8,3,2.3,3.4c1.4,0.4,3-0.3,3.7-1.6l14.6-28.8l2.8,15.3l-20.4,42.3
		c-1.9,3.9-0.6,8.7,3.1,11.1l0,0c3.9,2.6,9.2,1.6,11.9-2.3l32.9-46.8c5.1-7.3,7.9-16,7.9-24.9v-41.4
		C1489.2,494.5,1488,393.8,1484.4,360.5z"/>
</g>
<g id="b-Pit">
	<path class="st15" d="M1286.9,153.1c1.2-2.2,5.3-9.1,6.9-10.2c1.5-1.1-1.7-6.6,0.6-12.4c3.5-8.4,6.7-9.6,7.2-11
		c0.4-1.4-3.6-7.4-3.3-6.8l-5.8-5.8l-10.3,10.4v46.1h-0.3c0.2,1.3,0.3,2.5,0.3,3.9c0,12.4-10,22.4-22.4,22.4c-2.7,0-5.3-0.5-7.7-1.3
		c-3.9,8.4-12.3,14.1-22.2,14.1c-13.5,0-24.4-10.9-24.4-24.4c0-2.3,0.3-4.5,0.9-6.6l0,0c13.1-51.8,52.8-79,53.6-79.5
		c2.3-1.9,5.3-3.1,8.6-3.1c5.6,0,10.5,3.5,12.5,8.4l3.9-3.9V57.7c-1.7-5.1-5.1-9.6-9.7-12.6c-3.9-2.5-8.4-3.9-13.1-3.9h-6.2
		c-7.9,0.5-12.9,3.1-16,7.1c-21.4,27.7-48.6,65-55.8,114.3c-0.2,1.2-0.2,2.6,0,4c0,0.4,0,0.8,0,1.2c0,30.1,24.4,54.6,54.6,54.6
		c24.3,0,44.9-15.9,51.9-37.8C1284.8,176,1281,164.3,1286.9,153.1z"/>
	<path class="st15" d="M1400.8,162.5c-7.2-49.3-34.4-86.6-55.8-114.3c-3.1-4-8.1-6.6-16-7.1h-6.3c-4.6,0-9.2,1.3-13.1,3.9l0,0
		c-4.6,3-8,7.5-9.7,12.6v35.7l3.9,3.9c2-4.9,6.9-8.4,12.5-8.4c3.3,0,6.3,1.2,8.6,3.1c0.8,0.6,40.6,27.7,53.6,79.5
		c0.6,2.1,0.9,4.3,0.9,6.6c0,13.5-10.9,24.4-24.4,24.4c-2.6,0-5.1-0.4-7.4-1.2c-6.4,7.6-15.9,5.4-23.2,2.3c-5.9-2.6-15-2.8-24.3-9.3
		c-0.9-0.6-1.9-1.4-2.8-2.3c8.9,18,27.5,30.3,48.9,30.3c30.1,0,54.6-24.4,54.6-54.6c0-0.4,0-0.8,0-1.2
		C1401,165.1,1401,163.7,1400.8,162.5z"/>
</g>
<path id="b-AparellRespiratori" class="st15" d="M1378.6,171.5c-13.1-51.8-52.8-79-53.6-79.5c-2.3-1.9-5.3-3.1-8.6-3.1
	c-5.6,0-10.5,3.5-12.5,8.4l-3.9-4V41.5h-14.9v51.8l-3.9,3.9c-2-4.9-6.9-8.4-12.5-8.4c-3.3,0-6.3,1.2-8.6,3.1
	c-0.8,0.6-40.6,27.7-53.6,79.5l0,0c-0.6,2.1-0.9,4.3-0.9,6.6c0,13.5,10.9,24.4,24.4,24.4c9.8,0,18.3-5.8,22.2-14.1
	c2.4,0.9,5,1.3,7.7,1.3c12.4,0,22.4-10,22.4-22.4c0-1.3-0.1-2.6-0.3-3.9h0.3v-46l10.3-10.3l5.8,5.8c-0.4-0.6-0.6-1-0.6-1
	s4.2-2.7,4.2-2.3c0,0.4,2.2,5.5,4.3,7.3c0.8,0.7,1.2,0,1.6-0.1c1.2-0.5-0.7-9.8-0.7-9.8l4.4-0.5c0,0,0.2,8.6,0.8,9.6s1.2,0,1.5-0.2
	s2.2-8.3,2.2-8.3c1.3-0.4,4.5,1.4,4.5,1.4c-0.5,0.7-2.1,8.8-2.1,8.8c6.9,5,5.9,14.6,5.9,14.6c2.5-4,3.5-7.7,3.5-7.7
	c1.7-0.5,4.4,1.7,4.4,1.7c-0.2,3.2-4.3,7.6-2.3,7.3c1.9-0.3,5.8,0.9,5.8,0.9l-1,4c0,0-3.2-1-6,0.3c-2.8,1.3-3.4,4.3-2,5
	c2.6,1.4,8.3,4.9,13.8,12.6c1.7,2.4,5.2,8.9,8.1,17.8c5.1,15.6,1,24.1,1,24.1c-0.6,1.1-1.3,2.1-2.1,3c2.3,0.8,4.9,1.2,7.5,1.2
	c13.5,0,24.4-10.9,24.4-24.4C1379.5,175.8,1379.2,173.6,1378.6,171.5z"/>
<path id="b-Cor" class="st15" d="M1297.3,112.7c0,0,4.3,6.4,3.8,7.8c-0.4,1.4-3.7,2.6-7.2,11c-2.3,5.8,0.9,11.3-0.6,12.4
	c-1.6,1.1-5.7,7.9-6.9,10.2c-8.9,16.7,4,34.6,13.3,41.2c9.3,6.5,18.4,6.7,24.3,9.3c8.2,3.5,19,5.8,25.3-5.3c0,0,4.1-8.5-1-24.1
	c-2.9-8.9-6.4-15.4-8.1-17.8c-5.5-7.7-11.2-11.2-13.8-12.6c-1.4-0.7-0.8-3.8,2-5c2.8-1.3,6-0.3,6-0.3l1-4c0,0-3.9-1.3-5.8-0.9
	c-1.9,0.3,2.1-4.2,2.3-7.3c0,0-2.7-2.3-4.4-1.7c0,0-1,3.7-3.5,7.7c0,0,1-9.6-5.9-14.6c0,0,1.6-8.1,2.1-8.8c0,0-3.2-1.7-4.5-1.4
	c0,0-1.9,8.1-2.2,8.3c-0.3,0.2-0.9,1.2-1.5,0.2s-0.8-9.6-0.8-9.6l-4.4,0.5c0,0,1.9,9.3,0.7,9.8c-0.4,0.2-0.8,0.8-1.6,0.1
	c-2.1-1.8-4.3-6.9-4.3-7.3C1301.5,110,1297.3,112.7,1297.3,112.7z"/>
<path id="b-AparellReproductor" class="st15" d="M1292.1,488.2L1292.1,488.2c-30.3,0-54.9-24.6-54.9-54.9v-61.7
	c0-30.3,24.6-54.9,54.9-54.9l0,0c30.3,0,54.9,24.6,54.9,54.9v61.7C1347,463.7,1322.4,488.2,1292.1,488.2z"/>
<path id="b-Cap" class="st15" d="M1331.7-131c-0.2,0-0.4,0-0.6,0c0.4-1.1,0.6-2.2,0.6-3.4c0-6.1-4.9-11-11-11
	c-1.2,0-2.4,0.2-3.5,0.6c-1.6-7.4-8.1-12.9-15.9-12.9c-5.3,0-10,2.6-13,6.5c-2.6-2.2-5.9-3.6-9.6-3.6c-7.9,0-14.3,6.2-14.7,14
	c-1.7-0.8-3.6-1.2-5.6-1.2c-7.5,0-13.6,6.1-13.6,13.6c0,0.6,0.1,1.2,0.1,1.8c-0.6,1.1-0.9,2.4-0.9,3.7c0,4.5,3.6,8.1,8.1,8.1h79.6
	c4.5,0,8.1-3.6,8.1-8.1C1339.8-127.4,1336.2-131,1331.7-131z M1311.5-128.5h-0.5c0.1-0.1,0.2-0.1,0.3-0.2
	C1311.4-128.6,1311.4-128.5,1311.5-128.5z"/>
<g id="b-Arteries">
	<path class="st18" d="M1460.1,533.6c0,0,20.9-17.7,20.3-35.7c-1.6-43.9,1.6-76-1.6-100.3c-8-60.9-24.9-73-27.9-100.5
		c-2.6-23.1,5-164.8-13-199.7c-19.1-36.9-65.2-41.5-97.4-33c-22.8,6-28.3,24.1-30.4,35.6c-1.6,8.8-1.8,16.5,2.7,35.8"/>
	<path class="st18" d="M1391.3,63.3c23.7,6.2,25.7,29.3,27.5,56.9c1.8,27.6,33.3,135.3,30.9,171.2c-2.4,35.9-1.1,91.7,6.5,115.8
		c7.6,24.1,21.6,54.8,23.8,80.9"/>
	<path class="st18" d="M1125,533.6c0,0-20.9-17.7-20.3-35.7c1.6-43.9-1.6-76,1.6-100.3c8-60.9,24.9-73,27.9-100.5
		c2.6-23.1-5-164.8,13-199.7c19.1-36.9,65.2-41.5,97.4-33c22.8,6,47.4,21.8,51.6,35.6c2.6,8.6,8.6,16.5,4.2,35.8"/>
	<path class="st18" d="M1193.8,63.3c-23.7,6.2-25.7,29.3-27.5,56.9c-1.8,27.6-33.3,135.3-30.9,171.2c2.4,35.9,1.1,91.7-6.5,115.8
		s-21.6,54.8-23.8,80.9"/>
	<path class="st18" d="M1340.4,64.5c0,0-23.1-47.7-24.2-62.9c-1.1-15.2,13.1-41.3,23.2-68.4c5.7-15.3,5-30.2,3.3-40.3
		c-1.3-7.6-6.4-14-13.5-16.9l-4.6-1.9"/>
	<line class="st18" x1="1316.3" y1="-1.8" x2="1322.1" y2="73.8"/>
	<path class="st18" d="M1243.2,63.6c0,0,23.1-46.8,24.2-62s-13.1-41.3-23.2-68.4c-6.5-17.4-4.7-34.3-2.5-44.1
		c1.2-5.4,4.3-10.1,8.7-13.3l4.8-3.5"/>
	<line class="st18" x1="1267.4" y1="-1.8" x2="1261.5" y2="70.4"/>
	<path class="st18" d="M1296.1,184.1c0,0-3.9,223.5,0.4,234.6c4.3,11.1,78.3,67.9,82.1,115c8.8,108-27.9,228.6-29.6,234.1
		c-6.6,21.4,19,145.2,13.3,195.2c-5.7,50-26.4,117.2-29.7,141.5s-5.6,54.3-5.6,54.3"/>
	<path class="st18" d="M1325.2,449.3c13,13.8,18.6,46.7,16.4,84.3c-2.1,37.6,8.4,197.7,2.4,249.2s-18.1,154.4-14.2,193
		s7.1,90.2,2.9,128.7"/>
	<path class="st18" d="M1295,415.2c-4.3,11.1-86.7,71.3-90.5,118.4c-8.8,108,27.9,228.6,29.6,234.1c6.6,21.4-19,145.2-13.3,195.2
		c5.7,50,26.4,117.2,29.7,141.5c3.2,24.3,5.6,54.3,5.6,54.3"/>
	<path class="st18" d="M1258.4,451.4c-13,13.8-19,44.6-16.9,82.2c2.1,37.6-8.4,197.7-2.4,249.2s18.1,154.4,14.2,193
		c-3.9,38.6-7.1,90.2-2.9,128.7"/>
</g>
</svg>
