<?xml version="1.0" encoding="utf-8"?>
<!-- Generator: Adobe Illustrator 19.0.0, SVG Export Plug-In . SVG Version: 6.00 Build 0)  -->
<svg version="1.1" id="Capa_1" xmlns="http://www.w3.org/2000/svg" xmlns:xlink="http://www.w3.org/1999/xlink" x="0px" y="0px"
	 viewBox="570 -225.3 1440 1451.3" style="enable-background:new 570 -225.3 1440 1451.3;" xml:space="preserve">
<style type="text/css">
	.st0{fill:#F4F4F4;}
	.st1{fill:#181716;}
	.st2{fill:#C3E4F9;}
	.st3{fill:#FBE2E0;}
	.st4{fill:#75C6F0;}
	.st5{fill:none;stroke:#34B7EB;stroke-width:6.0014;stroke-miterlimit:10;}
	.st6{fill:#34B7EB;}
	.st7{fill:none;}
	.st8{font-family:'PlatformWeb-Regular';}
	.st9{font-size:24.0054px;}
	.st10{font-size:33.0075px;}
	.st11{fill:none;stroke:#181716;stroke-width:1.5003;stroke-miterlimit:10;}
</style>
<g id="bg">
	<rect x="570" y="-226" class="st0" width="1440" height="1452.7"/>
	<rect x="570" y="1019.3" class="st1" width="1440" height="207.3"/>
</g>
<g id="cos">
	<g>
		<g>
			<path class="st2" d="M1292.4-169.2c-0.4,0-0.7,0-1,0s-0.7,0-1,0c-44.9-0.4-62.4,35.1-59.8,80.4c2.5,44.3,19.6,91.2,60.6,92.1l0,0
				c0.1,0,0.2,0,0.3,0s0.2,0,0.3,0l0,0c41-0.9,58.1-47.8,60.6-92.1C1354.8-134,1337.4-169.6,1292.4-169.2z"/>
			<g>
				
					<ellipse transform="matrix(-0.1335 0.991 -0.991 -0.1335 1459.4382 -1419.2358)" class="st2" cx="1350.2" cy="-71.6" rx="23.8" ry="8"/>
				
					<ellipse transform="matrix(-0.991 0.1335 -0.1335 -0.991 2444.7166 -306.7741)" class="st2" cx="1232.6" cy="-71.4" rx="8" ry="23.8"/>
			</g>
			<rect x="1256.3" y="-28.9" class="st2" width="70.1" height="73.1"/>
			<g>
				<path class="st2" d="M1304.2,77.2l-48.1-73.8l0,0c0,20.9-16.9,37.8-37.8,37.8l0,0L1304.2,77.2z"/>
				<path class="st2" d="M1278.5,77.2l48.1-73.8l0,0c0,20.9,16.9,37.8,37.8,37.8l0,0L1278.5,77.2z"/>
			</g>
		</g>
		<g>
			<rect x="1201.7" y="40.9" class="st2" width="178.7" height="281.4"/>
			<path class="st2" d="M1174.4,79.4h233.4v86.2c0,35.4-28.7,64-64,64h-105.4c-35.4,0-64-28.7-64-64V79.4z"/>
			<path class="st2" d="M1128.5,162.6h325.1v-59.3c0-34.5-28-62.4-62.4-62.4H1191c-34.5,0-62.4,28-62.4,62.4L1128.5,162.6
				L1128.5,162.6z"/>
			<path class="st2" d="M1380.4,322.3H1291v196.1h127.1c0,0,0-24.5,0-74.5C1418.1,395.9,1380.4,322.3,1380.4,322.3z"/>
			<path class="st2" d="M1201.7,322.3h89.4v196.1H1164c0,0,0-24.5,0-74.5C1164,395.9,1201.7,322.3,1201.7,322.3z"/>
			<g>
				<path class="st2" d="M1376.4,769.4c0,19.3-77.1,0-77.1,0v-251c0,0,118.8-29.7,118.8,0C1418.1,625.2,1376.4,740.4,1376.4,769.4z"
					/>
				<path class="st2" d="M1355.2,1084.3h-41l-14.9-314.8h76.9c0,0,6.4,92.3,6.4,123.2C1382.6,979.3,1355.2,1084.3,1355.2,1084.3z"/>
				<path class="st2" d="M1363.1,1179.3c-0.1,2.3-2.4,6-4.9,9.3c-3.8,5-9.7,7.8-15.9,7.8h-29.7c-7,0-12.4-6.1-11.4-13.1l13.1-99h41
					C1355.2,1084.3,1364.1,1150,1363.1,1179.3z"/>
			</g>
			<g>
				<path class="st2" d="M1205.7,769.4c0,19.3,77.1,0,77.1,0v-251c0,0-118.8-29.7-118.8,0C1164,625.2,1205.7,740.4,1205.7,769.4z"/>
				<path class="st2" d="M1226.9,1084.3h41l14.9-314.8h-76.9c0,0-6.4,92.3-6.4,123.2C1199.5,979.3,1226.9,1084.3,1226.9,1084.3z"/>
				<path class="st2" d="M1219.1,1179.3c0.1,2.3,2.4,6,4.9,9.3c3.8,5,9.7,7.8,15.9,7.8h29.7c7,0,12.4-6.1,11.4-13.1l-13.1-99h-41
					C1227,1084.3,1218,1150,1219.1,1179.3z"/>
			</g>
			<polygon class="st2" points="1474.1,311.9 1428.2,317.2 1400.3,99.9 1453.5,93.7 			"/>
			<path class="st2" d="M1488.9,496.6l-27,3.1l-33.7-182.5c0,0,42.4-39.8,43.8-27.7c2.5,21.5,8.9,43.4,12.1,73.1
				C1487.7,395.9,1488.9,496.6,1488.9,496.6z"/>
			<path class="st2" d="M1488.9,496.6V538c0,8.9-2.7,17.6-7.9,24.9l-32.9,46.8c-2.7,3.9-8,4.9-11.9,2.3l0,0c-3.7-2.4-5-7.1-3.1-11.1
				l20.4-42.3l-2.8-15.3l-14.6,28.8c-0.7,1.3-2.2,2-3.7,1.6l0,0c-1.5-0.4-2.5-1.9-2.3-3.4l3.1-27.7c0.8-7.2,3.3-14.1,7.4-20.1
				l21.2-22.9L1488.9,496.6z"/>
			<g>
				<polygon class="st2" points="1108.7,311.9 1154.6,317.2 1182.4,99.9 1129.3,93.7 				"/>
				<path class="st2" d="M1093.9,496.6l27,3.1l33.7-182.5c0,0-42.4-39.8-43.8-27.7c-2.5,21.5-8.9,43.4-12.1,73.1
					C1095.1,395.9,1093.9,496.6,1093.9,496.6z"/>
				<path class="st2" d="M1093.9,496.6V538c0,8.9,2.7,17.6,7.9,24.9l32.9,46.8c2.7,3.9,8,4.9,11.9,2.3l0,0c3.7-2.4,5-7.1,3.1-11.1
					l-20.4-42.3l2.8-15.3l14.6,28.8c0.7,1.3,2.2,2,3.7,1.6l0,0c1.5-0.4,2.5-1.9,2.3-3.4l-3.1-27.7c-0.8-7.2-3.3-14.1-7.4-20.1
					l-21.2-22.9L1093.9,496.6z"/>
			</g>
		</g>
	</g>
	<g>
		<g>
			<path class="st3" d="M1308.9,47.6L1308.9,47.6c3.9-2.5,8.4-3.9,13.1-3.9h6.3c7.9,0.5,12.9,3.1,16,7.1
				c21.4,27.7,48.6,65,55.8,114.3c1.7,11.9-15.2,35.7-19.8,39.1c-55.8,41.5-87.2-27.9-87.2-27.9l5-109.7
				C1298.4,58.8,1302.4,51.8,1308.9,47.6z"/>
			<circle class="st3" cx="1345.5" cy="170.3" r="54.6"/>
		</g>
		<g>
			<path class="st3" d="M1274.6,47.6L1274.6,47.6c-3.9-2.5-8.4-3.9-13.1-3.9h-6.3c-7.9,0.5-12.9,3.1-16,7.1
				c-21.4,27.7-48.6,65-55.8,114.3c-1.7,11.9,15.2,35.7,19.8,39.1c55.8,41.5,87.2-27.9,87.2-27.9l17.6-99l-22.5-10.6
				C1285.1,58.8,1281.1,51.8,1274.6,47.6z"/>
			<circle class="st3" cx="1238.1" cy="170.3" r="54.6"/>
		</g>
	</g>
	<path class="st4" d="M1291.4,490L1291.4,490c-30.3,0-54.9-24.6-54.9-54.9v-61.7c0-30.3,24.6-54.9,54.9-54.9l0,0
		c30.3,0,54.9,24.6,54.9,54.9v61.7C1346.3,465.4,1321.7,490,1291.4,490z"/>
	<g>
		<g>
			<g>
				<circle class="st4" cx="1259" cy="168.9" r="22.4"/>
				<circle class="st4" cx="1229.2" cy="179.7" r="24.4"/>
				<circle class="st4" cx="1267.9" cy="104.1" r="13.5"/>
				<rect x="1251.5" y="104.1" class="st4" width="29.9" height="61"/>
				<path class="st4" d="M1205.7,173.1c13.2-52.4,53.6-79.5,53.6-79.5l5.4,70.4C1264.8,164,1202,187.6,1205.7,173.1z"/>
			</g>
			<g>
				<circle class="st4" cx="1324.5" cy="168.9" r="22.4"/>
				<circle class="st4" cx="1354.3" cy="179.7" r="24.4"/>
				<circle class="st4" cx="1315.6" cy="104.1" r="13.5"/>
				<rect x="1302.1" y="104" class="st4" width="29.9" height="61"/>
				<path class="st4" d="M1377.9,173.1c-13.2-52.4-53.6-79.5-53.6-79.5l-5.4,70.4C1318.8,164,1381.5,187.6,1377.9,173.1z"/>
			</g>
		</g>
		<rect x="1284.3" y="43.2" class="st4" width="14.9" height="56.1"/>
		<g>
			
				<rect x="1302" y="87.7" transform="matrix(0.7071 -0.7071 0.7071 0.7071 301.6507 959.816)" class="st4" width="14.9" height="56.1"/>
			
				<rect x="1266.7" y="87.7" transform="matrix(-0.7071 -0.7071 0.7071 -0.7071 2093.198 1098.5051)" class="st4" width="14.9" height="56.1"/>
		</g>
	</g>
	<g>
		<path class="st5" d="M1459.5,535.4c0,0,20.9-17.7,20.3-35.7c-1.6-43.9,1.6-76-1.6-100.3c-8-60.9-24.9-73-27.9-100.5
			c-2.6-23.1,5-164.8-13-199.7c-19.1-36.9-65.2-41.5-97.4-33c-22.8,6-28.3,24.1-30.4,35.6c-1.6,8.8-1.8,16.5,2.7,35.8"/>
		<path class="st5" d="M1390.6,65.1c23.7,6.2,25.7,29.3,27.5,56.9s33.3,135.3,30.9,171.2c-2.4,35.9-1.1,91.7,6.5,115.8
			s21.6,54.8,23.8,80.9"/>
		<path class="st5" d="M1124.3,535.4c0,0-20.9-17.7-20.3-35.7c1.6-43.9-1.6-76,1.6-100.3c8-60.9,24.9-73,27.9-100.5
			c2.6-23.1-5-164.8,13-199.7c19.1-36.9,65.2-41.5,97.4-33c22.8,6,47.4,21.8,51.6,35.6c2.6,8.6,8.6,16.5,4.2,35.8"/>
		<path class="st5" d="M1193.2,65.1c-23.7,6.2-25.7,29.3-27.5,56.9c-1.8,27.6-33.3,135.3-30.9,171.2c2.4,35.9,1.1,91.7-6.5,115.8
			c-7.6,24.1-21.6,54.8-23.8,80.9"/>
		<path class="st5" d="M1339.8,66.2c0,0-23.1-47.7-24.2-62.9s13.1-41.3,23.2-68.4c5.7-15.3,5-30.2,3.3-40.3
			c-1.3-7.6-6.4-14-13.5-16.9l-4.6-1.9"/>
		<line class="st5" x1="1315.6" y1="-0.1" x2="1321.5" y2="75.5"/>
		<path class="st5" d="M1242.6,65.4c0,0,23.1-46.8,24.2-62c1.1-15.2-13.1-41.3-23.2-68.4c-6.5-17.4-4.7-34.3-2.5-44.1
			c1.2-5.4,4.3-10.1,8.7-13.3l4.8-3.5"/>
		<line class="st5" x1="1266.7" y1="-0.1" x2="1260.9" y2="72.1"/>
		<path class="st5" d="M1295.5,185.8c0,0-3.9,223.5,0.4,234.6c4.3,11.1,78.3,67.9,82.1,115c8.8,108-27.9,228.6-29.6,234.1
			c-6.6,21.4,19,145.2,13.3,195.2c-5.7,50-26.4,117.2-29.7,141.5c-3.2,24.3-5.6,54.3-5.6,54.3"/>
		<path class="st5" d="M1324.5,451c13,13.8,18.6,46.7,16.4,84.3c-2.1,37.6,8.4,197.7,2.4,249.2s-18.1,154.4-14.2,193
			c3.9,38.6,7.1,90.2,2.9,128.7"/>
		<path class="st5" d="M1294.4,417c-4.3,11.1-86.7,71.3-90.5,118.4c-8.8,108,27.9,228.6,29.6,234.1c6.6,21.4-19,145.2-13.3,195.2
			c5.7,50,26.4,117.2,29.7,141.5c3.2,24.3,5.6,54.3,5.6,54.3"/>
		<path class="st5" d="M1257.7,453.1c-13,13.8-19,44.6-16.9,82.2c2.1,37.6-8.4,197.7-2.4,249.2s18.1,154.4,14.2,193
			c-3.9,38.6-7.1,90.2-2.9,128.7"/>
	</g>
	<path class="st6" d="M1296.9,114.5c0,0,4.3,6.4,3.8,7.8c-0.4,1.4-3.7,2.6-7.2,11c-2.3,5.8,0.9,11.3-0.6,12.4
		c-1.6,1.1-5.7,7.9-6.9,10.2c-8.9,16.7,4,34.6,13.3,41.2c9.3,6.5,18.4,6.7,24.3,9.3c8.2,3.5,19,5.8,25.3-5.3c0,0,4.1-8.5-1-24.1
		c-2.9-8.9-6.4-15.4-8.1-17.8c-5.5-7.7-11.2-11.2-13.8-12.6c-1.4-0.7-0.8-3.8,2-5c2.8-1.3,6-0.3,6-0.3l1-4c0,0-3.9-1.3-5.8-0.9
		c-1.9,0.3,2.1-4.2,2.3-7.3c0,0-2.7-2.3-4.4-1.7c0,0-1,3.7-3.5,7.7c0,0,1-9.6-5.9-14.6c0,0,1.6-8.1,2.1-8.8c0,0-3.2-1.7-4.5-1.4
		c0,0-1.9,8.1-2.2,8.3c-0.3,0.2-0.9,1.2-1.5,0.2c-0.6-1-0.8-9.6-0.8-9.6l-4.4,0.5c0,0,1.9,9.3,0.7,9.8c-0.4,0.2-0.8,0.8-1.6,0.1
		c-2.1-1.8-4.3-6.9-4.3-7.3C1301.1,111.8,1296.9,114.5,1296.9,114.5z"/>
	<g>
		<circle class="st6" cx="1258.1" cy="-126.6" r="13.6"/>
		<circle class="st6" cx="1278.4" cy="-138.2" r="14.7"/>
		<circle class="st6" cx="1301" cy="-139.7" r="16.3"/>
		<circle class="st6" cx="1251.8" cy="-121.1" r="8.1"/>
		<circle class="st6" cx="1331.4" cy="-121.1" r="8.1"/>
		<circle class="st6" cx="1320.4" cy="-132.6" r="11"/>
		<rect x="1251.8" y="-126.6" class="st6" width="79.6" height="13.6"/>
		<rect x="1277.3" y="-135.7" class="st6" width="14.3" height="17.6"/>
	</g>
	<g>
		<rect x="688.9" y="-55.3" class="st7" width="380.7" height="354.3"/>
		<text transform="matrix(1 0 0 1 688.9348 -37.7677)" class="st1 st8 st9">Demencia</text>
		<text transform="matrix(1 0 0 1 688.9348 -1.7677)" class="st1 st8 st9">Enfermedades </text>
		<text transform="matrix(1 0 0 1 688.9348 22.2323)" class="st1 st8 st9">neurodegenerativas</text>
		<text transform="matrix(1 0 0 1 688.9348 58.2323)" class="st1 st8 st9">Problemas de salud mental</text>
		<text transform="matrix(1 0 0 1 688.9348 94.2323)" class="st1 st8 st9">Ictus</text>
		<text transform="matrix(1 0 0 1 688.9348 130.2323)" class="st1 st8 st9">Autismo y problemas de </text>
		<text transform="matrix(1 0 0 1 688.9348 154.2323)" class="st1 st8 st9">conducta en niños</text>
	</g>
	<g>
		<rect x="688.9" y="-113.4" class="st7" width="283.7" height="138.5"/>
		<text transform="matrix(1 0 0 1 688.9343 -89.2516)" class="st1 st8 st10">Cabeza</text>
	</g>
	<line class="st11" x1="1301.4" y1="-135.8" x2="688.9" y2="-137.5"/>
	<g>
		<rect x="1531.7" y="614.7" class="st7" width="360.9" height="195.4"/>
		<text transform="matrix(1 0 0 1 1654.2158 632.2489)" class="st1 st8 st9">Nacimiento prematuro</text>
		<text transform="matrix(1 0 0 1 1650.0159 668.2489)" class="st1 st8 st9">Peso reducido al nacer </text>
		<text transform="matrix(1 0 0 1 1755.5148 704.2489)" class="st1 st8 st9">Preclampsia</text>
		<text transform="matrix(1 0 0 1 1602.0161 740.2489)" class="st1 st8 st9">Reducción en la calidad del </text>
		<text transform="matrix(1 0 0 1 1780.8137 766.249)" class="st1 st8 st9">esperma</text>
	</g>
	<g>
		<rect x="1525.9" y="519.1" class="st7" width="366.7" height="123.5"/>
		<text transform="matrix(1 0 0 1 1545.1018 543.1992)" class="st1 st8 st10">Aparato reproductor</text>
		<text transform="matrix(1 0 0 1 1793.0002 580.6992)" class="st1 st8 st10">y feto</text>
	</g>
	<g>
		<rect x="688.9" y="598.1" class="st7" width="538.6" height="474.6"/>
		<text transform="matrix(1 0 0 1 688.9348 615.6851)" class="st1 st8 st9">Diabetes</text>
		<text transform="matrix(1 0 0 1 688.9348 651.6851)" class="st1 st8 st9">Inflamación sistémica</text>
		<text transform="matrix(1 0 0 1 688.9348 687.6851)" class="st1 st8 st9">Incremento de la mortalidad</text>
	</g>
	<g>
		<rect x="688.9" y="540.1" class="st7" width="283.7" height="57.7"/>
		<text transform="matrix(1 0 0 1 688.9343 564.2008)" class="st1 st8 st10">General/Otros</text>
	</g>
	<line class="st11" x1="1185.1" y1="517.7" x2="688.9" y2="516"/>
	<circle class="st6" cx="677.6" cy="645.1" r="5.5"/>
	<circle class="st6" cx="677.6" cy="681.3" r="5.5"/>
	<circle class="st6" cx="677.6" cy="607.7" r="5.5"/>
	<circle class="st6" cx="1905.1" cy="624.6" r="5.5"/>
	<circle class="st6" cx="1905.1" cy="662.1" r="5.5"/>
	<circle class="st6" cx="1905.1" cy="732.1" r="5.5"/>
	<circle class="st6" cx="1905.1" cy="698.2" r="5.5"/>
	<circle class="st6" cx="677.6" cy="123.7" r="5.5"/>
	<circle class="st6" cx="677.6" cy="-9.1" r="5.5"/>
	<circle class="st6" cx="677.6" cy="-45.8" r="5.5"/>
	<circle class="st6" cx="677.6" cy="87" r="5.5"/>
	<circle class="st6" cx="677.6" cy="50.4" r="5.5"/>
	<circle class="st6" cx="1905.1" cy="-43.2" r="5.5"/>
	<circle class="st6" cx="1905.1" cy="17" r="5.5"/>
	<circle class="st6" cx="1905.1" cy="52.9" r="5.5"/>
	<circle class="st6" cx="1905.1" cy="88.7" r="5.5"/>
	<circle class="st6" cx="1905.1" cy="124.8" r="5.5"/>
	<circle class="st6" cx="1905.1" cy="936.6" r="5.5"/>
	<g>
		<rect x="1534.8" y="-54.5" class="st7" width="357.8" height="214.7"/>
		<text transform="matrix(1 0 0 1 1661.3522 -36.9421)" class="st1 st8 st9">Enfermedad Pulmonar </text>
		<text transform="matrix(1 0 0 1 1608.9528 -9.9418)" class="st1 st8 st9">Obstructiva Crónica (EPOC)</text>
		<text transform="matrix(1 0 0 1 1818.6504 23.0579)" class="st1 st8 st9">Asma</text>
		<text transform="matrix(1 0 0 1 1607.6528 59.0579)" class="st1 st8 st9">Enfermedades respiratorias </text>
		<text transform="matrix(1 0 0 1 1772.0508 95.0579)" class="st1 st8 st9">Neumonía</text>
		<text transform="matrix(1 0 0 1 1691.3518 131.0579)" class="st1 st8 st9">Cáncer de pulmón</text>
	</g>
	<g>
		<rect x="1507.4" y="-112.4" class="st7" width="385.2" height="138.5"/>
		<text transform="matrix(1 0 0 1 1558.4939 -88.3154)" class="st1 st8 st10">Aparato respiratorio  </text>
	</g>
	<polyline class="st11" points="1892.6,-134.8 1529.8,-136.3 1350.1,135.7 	"/>
	<circle class="st6" cx="1905.1" cy="302.6" r="5.5"/>
	<circle class="st6" cx="1904.9" cy="337.7" r="5.5"/>
	<circle class="st6" cx="1904.9" cy="373.6" r="5.5"/>
	<circle class="st6" cx="1904.9" cy="409.5" r="5.5"/>
	<g>
		<rect x="1535.7" y="291.1" class="st7" width="357.8" height="151.9"/>
		<text transform="matrix(1 0 0 1 1678.6412 308.6367)" class="st1 st8 st9">Infarto de miocardio </text>
		<text transform="matrix(1 0 0 1 1799.2396 344.6367)" class="st1 st8 st9">Arritmia</text>
		<text transform="matrix(1 0 0 1 1620.9414 380.6367)" class="st1 st8 st9">Fallo congestivo cardíaco</text>
		<text transform="matrix(1 0 0 1 1561.0417 416.6367)" class="st1 st8 st9">Enfermedades cardiovasculares</text>
	</g>
	<g>
		<rect x="1508.3" y="232.3" class="st7" width="385.2" height="321.3"/>
		<text transform="matrix(1 0 0 1 1729.0896 256.4578)" class="st1 st8 st10">Corazón</text>
	</g>
	<polyline class="st11" points="1893.5,210 1530.7,208.6 1329.9,167.2 	"/>
	<g>
		<rect x="1534.8" y="925.2" class="st7" width="357.8" height="133.5"/>
		<text transform="matrix(1 0 0 1 1602.4128 942.7545)" class="st1 st8 st9">Trombosis venosa profunda</text>
	</g>
	<g>
		<rect x="1507.4" y="866.8" class="st7" width="385.2" height="59.8"/>
		<text transform="matrix(1 0 0 1 1751.7615 890.9141)" class="st1 st8 st10">Arterias  </text>
	</g>
	<line class="st11" x1="1892.6" y1="843" x2="1348.4" y2="841.3"/>
	<polyline class="st11" points="1324.5,376.1 1506.9,496.2 1892.6,495 	"/>
</g>
</svg>
