<?xml version="1.0" encoding="utf-8"?>
<!-- Generator: Adobe Illustrator 21.1.0, SVG Export Plug-In . SVG Version: 6.00 Build 0)  -->
<svg version="1.1" id="Capa_1" xmlns="http://www.w3.org/2000/svg" xmlns:xlink="http://www.w3.org/1999/xlink" x="0px" y="0px"
	 viewBox="0 0 1440 1451.3" style="enable-background:new 0 0 1440 1451.3;" xml:space="preserve">
<style type="text/css">
	.st0{fill:#F4F4F4;}
	.st1{fill:#181716;}
	.st2{fill:#6E6E6D;}
	.st3{fill:#9B9B9B;}
	.st4{fill:none;stroke:#181716;stroke-width:6.0014;stroke-miterlimit:10;}
	.st5{fill:none;}
	.st6{font-family:'Platform'; font-weight: 300; letter-spacing: 1px;}
	.st7{font-size:33.0075px;}
	.st8{letter-spacing:1;}
	.st9{fill:none;stroke:#181716;stroke-width:1.5003;stroke-miterlimit:10;}
	.st10{font-size:24.0054px;}
	.st11{fill:#004F9F;}
	.st12{fill:#BB94C2;}
	.st13{fill:#F29700;}
	.st14{fill:#34B7EB;}
	.st15{fill:#3AA336;}
@font-face {
  font-family: 'Platform';
  src: url('../fonts/Platform-Regular.eot');
  src: url('../fonts/Platform-Regular.eot?#iefix') format('embedded-opentype'),
  url('../fonts/Platform-Regular.woff') format('woff'),
  url('../fonts/Platform-Regular.ttf') format('truetype'),
  url('../fonts/Platform-Regular.otf') format('opentype'),
  url('../fonts/Platform-Regular.svg#Platform-Regular') format('svg');
  font-weight: 300;
  font-style: normal;
}
</style>
<g id="bg">
	<rect y="0" class="st0" width="1440" height="1452.7"/>
	<rect y="1245.3" class="st1" width="1440" height="207.3"/>
</g>
<g id="cos">
	<g>
		<g>
			<g>
				<path class="st2" d="M722.6,57c-0.4,0-0.7,0-1,0c-0.3,0-0.7,0-1,0c-44.9-0.4-62.4,35.1-59.8,80.4c2.5,44.3,19.6,91.2,60.6,92.1
					v0c0.1,0,0.2,0,0.3,0c0.1,0,0.2,0,0.3,0v0c41-0.9,58.1-47.8,60.6-92.1C785,92.1,767.5,56.6,722.6,57z"/>
				<g>
					
						<ellipse transform="matrix(0.1335 -0.9911 0.9911 0.1335 522.8657 907.2722)" class="st2" cx="780.3" cy="154.6" rx="23.8" ry="8"/>
					
						<ellipse transform="matrix(0.9911 -0.1335 0.1335 0.9911 -14.7091 89.853)" class="st2" cx="662.8" cy="154.6" rx="8" ry="23.8"/>
				</g>
				<rect x="686.5" y="197.3" class="st2" width="70.1" height="73.1"/>
				<g>
					<path class="st2" d="M734.4,303.4l-48.1-73.8v0c0,20.9-16.9,37.8-37.8,37.8h0L734.4,303.4z"/>
					<path class="st2" d="M708.7,303.4l48.1-73.8v0c0,20.9,16.9,37.8,37.8,37.8l0,0L708.7,303.4z"/>
				</g>
			</g>
			<g>
				<rect x="631.9" y="267" class="st2" width="178.7" height="281.4"/>
				<path class="st2" d="M604.5,305.5h233.4v86.2c0,35.4-28.7,64-64,64H668.6c-35.4,0-64-28.7-64-64V305.5z"/>
				<path class="st2" d="M558.7,388.8h325.1v-59.3c0-34.5-28-62.4-62.4-62.4H621.1c-34.5,0-62.4,28-62.4,62.4V388.8z"/>
				<path class="st2" d="M810.6,548.5h-89.4v196.1h127.1c0,0,0-24.5,0-74.5C848.3,622.1,810.6,548.5,810.6,548.5z"/>
				<path class="st2" d="M631.9,548.5h89.4v196.1H594.2c0,0,0-24.5,0-74.5C594.2,622.1,631.9,548.5,631.9,548.5z"/>
				<g>
					<path class="st2" d="M806.6,995.6c0,19.3-77.1,0-77.1,0v-251c0,0,118.8-29.7,118.8,0C848.3,851.3,806.6,966.5,806.6,995.6z"/>
					<path class="st2" d="M785.4,1310.4h-41l-14.9-314.8h76.9c0,0,6.4,92.3,6.4,123.2C812.8,1205.4,785.4,1310.4,785.4,1310.4z"/>
					<path class="st2" d="M793.2,1405.4c-0.1,2.3-2.4,6-4.9,9.3c-3.8,5-9.7,7.8-15.9,7.8h-29.7c-7,0-12.4-6.1-11.4-13.1l13.1-99h41
						C785.3,1310.4,794.3,1376.2,793.2,1405.4z"/>
				</g>
				<g>
					<path class="st2" d="M635.9,995.6c0,19.3,77.1,0,77.1,0v-251c0,0-118.8-29.7-118.8,0C594.2,851.3,635.9,966.5,635.9,995.6z"/>
					<path class="st2" d="M657.1,1310.4h41L713,995.6h-76.9c0,0-6.4,92.3-6.4,123.2C629.7,1205.4,657.1,1310.4,657.1,1310.4z"/>
					<path class="st2" d="M649.2,1405.4c0.1,2.3,2.4,6,4.9,9.3c3.8,5,9.7,7.8,15.9,7.8h29.7c7,0,12.4-6.1,11.4-13.1l-13.1-99h-41
						C657.1,1310.4,648.2,1376.2,649.2,1405.4z"/>
				</g>
				<polygon class="st2" points="904.2,538.1 858.3,543.4 830.5,326 883.6,319.9 				"/>
				<path class="st2" d="M919,722.7l-27,3.1l-33.7-182.5c0,0,42.4-39.8,43.8-27.7c2.5,21.5,8.9,43.4,12.1,73.1
					C917.8,622.1,919,722.7,919,722.7z"/>
				<path class="st2" d="M919,722.7v41.4c0,8.9-2.7,17.6-7.9,24.9l-32.9,46.8c-2.7,3.9-8,4.9-11.9,2.3l0,0c-3.7-2.4-5-7.1-3.1-11.1
					l20.4-42.3l-2.8-15.3l-14.6,28.8c-0.7,1.3-2.2,2-3.7,1.6l0,0c-1.5-0.4-2.5-1.9-2.3-3.4l3.1-27.7c0.8-7.2,3.3-14.1,7.4-20.1
					l21.2-22.9L919,722.7z"/>
				<g>
					<polygon class="st2" points="538.8,538.1 584.7,543.4 612.6,326 559.4,319.9 					"/>
					<path class="st2" d="M524,722.7l27,3.1l33.7-182.5c0,0-42.4-39.8-43.8-27.7c-2.5,21.5-8.9,43.4-12.1,73.1
						C525.2,622.1,524,722.7,524,722.7z"/>
					<path class="st2" d="M524,722.7v41.4c0,8.9,2.7,17.6,7.9,24.9l32.9,46.8c2.7,3.9,8,4.9,11.9,2.3h0c3.7-2.4,5-7.1,3.1-11.1
						l-20.4-42.3l2.8-15.3l14.6,28.8c0.7,1.3,2.2,2,3.7,1.6l0,0c1.5-0.4,2.5-1.9,2.3-3.4l-3.1-27.7c-0.8-7.2-3.3-14.1-7.4-20.1
						L551,725.9L524,722.7z"/>
				</g>
			</g>
		</g>
		<g>
			<g>
				<path class="st3" d="M739.1,273.7L739.1,273.7c3.9-2.5,8.4-3.9,13.1-3.9h6.3c7.9,0.5,12.9,3.1,16,7.1
					c21.4,27.7,48.6,65,55.8,114.3c1.7,11.9-15.2,35.7-19.8,39.1c-55.8,41.5-87.2-27.9-87.2-27.9l5-109.7
					C728.5,285,732.6,277.9,739.1,273.7z"/>
				<circle class="st3" cx="775.6" cy="396.5" r="54.6"/>
			</g>
			<g>
				<path class="st3" d="M704.8,273.7L704.8,273.7c-3.9-2.5-8.4-3.9-13.1-3.9h-6.3c-7.9,0.5-12.9,3.1-16,7.1
					c-21.4,27.7-48.6,65-55.8,114.3c-1.7,11.9,15.2,35.7,19.8,39.1c55.8,41.5,87.2-27.9,87.2-27.9l17.6-99l-22.5-10.6
					C715.3,285,711.3,277.9,704.8,273.7z"/>
				<circle class="st3" cx="668.2" cy="396.5" r="54.6"/>
			</g>
		</g>
		<path class="st3" d="M721.5,716.1L721.5,716.1c-30.3,0-54.9-24.6-54.9-54.9v-61.7c0-30.3,24.6-54.9,54.9-54.9h0
			c30.3,0,54.9,24.6,54.9,54.9v61.7C776.4,691.6,751.8,716.1,721.5,716.1z"/>
		<g>
			<g>
				<g>
					<circle class="st2" cx="689.2" cy="395.1" r="22.4"/>
					<circle class="st2" cx="659.3" cy="405.9" r="24.4"/>
					<circle class="st2" cx="698" cy="330.2" r="13.5"/>
					<rect x="681.7" y="330.2" class="st2" width="29.9" height="61"/>
					<path class="st2" d="M635.8,399.3c13.2-52.4,53.6-79.5,53.6-79.5l5.4,70.4C694.9,390.1,632.2,413.8,635.8,399.3z"/>
				</g>
				<g>
					<circle class="st2" cx="754.7" cy="395.1" r="22.4"/>
					<circle class="st2" cx="784.5" cy="405.9" r="24.4"/>
					<circle class="st2" cx="745.8" cy="330.2" r="13.5"/>
					
						<rect x="732.3" y="330.2" transform="matrix(-1 4.443855e-11 -4.443855e-11 -1 1494.4082 721.4508)" class="st2" width="29.9" height="61"/>
					<path class="st2" d="M808,399.3c-13.2-52.4-53.6-79.5-53.6-79.5l-5.4,70.4C748.9,390.1,811.7,413.8,808,399.3z"/>
				</g>
			</g>
			<rect x="714.5" y="269.4" class="st2" width="14.9" height="56.1"/>
			<g>
				
					<rect x="732.1" y="313.8" transform="matrix(0.7071 -0.7071 0.7071 0.7071 -25.132 623.0818)" class="st2" width="14.9" height="56.1"/>
				
					<rect x="696.8" y="313.8" transform="matrix(-0.7071 -0.7071 0.7071 -0.7071 960.5497 1081.6287)" class="st2" width="14.9" height="56.1"/>
			</g>
		</g>
		<g>
			<path class="st4" d="M889.6,761.5c0,0,20.9-17.7,20.3-35.7c-1.6-43.9,1.6-76-1.6-100.3c-8-60.9-24.9-73-27.9-100.5
				c-2.6-23.1,5-164.8-13-199.7c-19.1-36.9-65.2-41.5-97.4-33c-22.8,6-28.3,24.1-30.4,35.6c-1.6,8.8-1.8,16.5,2.7,35.8"/>
			<path class="st4" d="M820.8,291.2c23.7,6.2,25.7,29.3,27.5,56.9c1.8,27.6,33.3,135.3,30.9,171.2c-2.4,35.9-1.1,91.7,6.5,115.8
				c7.6,24.1,21.6,54.8,23.8,80.9"/>
			<path class="st4" d="M554.5,761.5c0,0-20.9-17.7-20.3-35.7c1.6-43.9-1.6-76,1.6-100.3c8-60.9,24.9-73,27.9-100.5
				c2.6-23.1-5-164.8,13-199.7c19.1-36.9,65.2-41.5,97.4-33c22.8,6,47.4,21.8,51.6,35.6c2.6,8.6,8.6,16.5,4.2,35.8"/>
			<path class="st4" d="M623.3,291.2c-23.7,6.2-25.7,29.3-27.5,56.9c-1.8,27.6-33.3,135.3-30.9,171.2c2.4,35.9,1.1,91.7-6.5,115.8
				c-7.6,24.1-21.6,54.8-23.8,80.9"/>
			<path class="st4" d="M770,292.4c0,0-23.1-47.7-24.2-62.9c-1.1-15.2,13.1-41.3,23.2-68.4c5.7-15.3,5-30.2,3.3-40.3
				c-1.3-7.6-6.4-14-13.5-16.9l-4.6-1.9"/>
			<line class="st4" x1="745.8" y1="226.1" x2="751.6" y2="301.7"/>
			<path class="st4" d="M672.7,291.5c0,0,23.1-46.8,24.2-62s-13.1-41.3-23.2-68.4c-6.5-17.4-4.7-34.3-2.5-44.1
				c1.2-5.4,4.3-10.1,8.7-13.3l4.8-3.5"/>
			<line class="st4" x1="696.9" y1="226.1" x2="691.1" y2="298.3"/>
			<path class="st4" d="M725.6,412c0,0-3.9,223.5,0.4,234.6c4.3,11.1,78.3,67.9,82.1,115c8.8,108-27.9,228.6-29.6,234.1
				c-6.6,21.4,19,145.2,13.3,195.2s-26.4,117.2-29.7,141.5c-3.2,24.3-5.6,54.3-5.6,54.3"/>
			<path class="st4" d="M754.7,677.2c13,13.8,18.6,46.7,16.4,84.3c-2.1,37.6,8.4,197.7,2.4,249.2c-6,51.5-18.1,154.4-14.2,193
				c3.9,38.6,7.1,90.2,2.9,128.7"/>
			<path class="st4" d="M724.5,643.1c-4.3,11.1-86.7,71.3-90.5,118.4c-8.8,108,27.9,228.6,29.6,234.1c6.6,21.4-19,145.2-13.3,195.2
				s26.4,117.2,29.7,141.5c3.2,24.3,5.6,54.3,5.6,54.3"/>
			<path class="st4" d="M687.9,679.3c-13,13.8-19,44.6-16.9,82.2s-8.4,197.7-2.4,249.2s18.1,154.4,14.2,193
				c-3.9,38.6-7.1,90.2-2.9,128.7"/>
		</g>
		<path class="st1" d="M727,340.7c0,0,4.3,6.4,3.8,7.8c-0.4,1.4-3.7,2.6-7.2,11c-2.3,5.8,0.9,11.3-0.6,12.4
			c-1.6,1.1-5.7,7.9-6.9,10.2c-8.9,16.7,4,34.6,13.3,41.2c9.3,6.5,18.4,6.7,24.3,9.3c8.2,3.5,19,5.8,25.3-5.3c0,0,4.1-8.5-1-24.1
			c-2.9-8.9-6.4-15.4-8.1-17.8c-5.5-7.7-11.2-11.2-13.8-12.6c-1.4-0.7-0.8-3.8,2-5c2.8-1.3,6-0.3,6-0.3l1-4c0,0-3.9-1.3-5.8-0.9
			c-1.9,0.3,2.1-4.2,2.3-7.3c0,0-2.7-2.3-4.4-1.7c0,0-1,3.7-3.5,7.7c0,0,1-9.6-5.9-14.6c0,0,1.6-8.1,2.1-8.8c0,0-3.2-1.7-4.5-1.4
			c0,0-1.9,8.1-2.2,8.3c-0.3,0.2-0.9,1.2-1.5,0.2c-0.6-1-0.8-9.6-0.8-9.6l-4.4,0.5c0,0,1.9,9.3,0.7,9.8c-0.4,0.2-0.8,0.8-1.6,0.1
			c-2.1-1.8-4.3-6.9-4.3-7.3C731.2,337.9,727,340.7,727,340.7z"/>
		<g>
			<circle class="st3" cx="688.2" cy="99.5" r="13.6"/>
			<circle class="st3" cx="708.5" cy="87.9" r="14.7"/>
			<circle class="st3" cx="731.2" cy="86.5" r="16.3"/>
			<circle class="st3" cx="682" cy="105" r="8.1"/>
			<circle class="st3" cx="761.6" cy="105" r="8.1"/>
			<circle class="st3" cx="750.5" cy="93.5" r="11"/>
			<rect x="682" y="99.5" class="st3" width="79.6" height="13.6"/>
			<rect x="707.5" y="90.5" class="st3" width="14.3" height="17.6"/>
		</g>
	</g>
	<g>
		<rect x="119.1" y="112.8" class="st5" width="283.7" height="41.9"/>
		<text transform="matrix(1 0 0 1 119.0916 136.9007)" class="st1 st6 st7 st8">Cap</text>
	</g>
	<line class="st9" x1="731.5" y1="90.4" x2="119.1" y2="88.7"/>
	<g>
		<rect x="961.8" y="840.9" class="st5" width="360.9" height="195.4"/>
		<text transform="matrix(1 0 0 1 1097.9751 858.4022)"><tspan x="0" y="0" class="st1 st6 st10 st8">Naixement prematur </tspan><tspan x="16.2" y="36" class="st1 st6 st10 st8">Pes reduït al néixer  </tspan><tspan x="78.1" y="72" class="st1 st6 st10 st8">Preeclàmpsia</tspan><tspan x="-62.3" y="108" class="st1 st6 st10 st8">Reducció de la qualitat de </tspan><tspan x="117" y="134" class="st1 st6 st10 st8">l&apos;esperma</tspan></text>
	</g>
	<g>
		<rect x="956" y="745.2" class="st5" width="366.7" height="123.5"/>
		<text transform="matrix(1 0 0 1 970.7407 769.3527)"><tspan x="0" y="0" class="st1 st6 st7">Aparell reproductor i </tspan><tspan x="271.7" y="37.5" class="st1 st6 st7">fetus</tspan></text>
	</g>
	<g>
		<rect x="119.1" y="789.8" class="st5" width="283.7" height="57.7"/>
		<text transform="matrix(1 0 0 1 119.0906 813.9298)" class="st1 st6 st7 st8">General / Altres           </text>
	</g>
	<line class="st9" x1="615.3" y1="767.4" x2="119.1" y2="765.7"/>
	<g>
		<g>
			<rect x="119.1" y="847.9" class="st5" width="538.6" height="474.6"/>
			<text transform="matrix(1 0 0 1 119.0911 865.4142)"><tspan x="0" y="0" class="st1 st6 st10 st8">Obesitat</tspan><tspan x="0" y="36" class="st1 st6 st10 st8">Diabetis</tspan><tspan x="0" y="72" class="st1 st6 st10 st8">Síndrome metabòlica</tspan><tspan x="0" y="108" class="st1 st6 st10 st8">Molèsties, estrès </tspan><tspan x="0" y="144" class="st1 st6 st10 st8">Trastorn del son</tspan><tspan x="0" y="180" class="st6 st10">Lesions per accidents de feina i trànsit</tspan><tspan x="0" y="216" class="st1 st6 st10 st8">Càncer de còlon</tspan><tspan x="0" y="252.1" class="st1 st6 st10 st8">Inflamació sistèmica</tspan><tspan x="0" y="288.1" class="st1 st6 st10 st8">Pitjor estat de salut general</tspan><tspan x="0" y="324.1" class="st1 st6 st10 st8">Augment de la mortalitat</tspan></text>
		</g>
		<circle class="st11" cx="107.7" cy="1002.1" r="5.5"/>
		<circle class="st12" cx="107.7" cy="857.7" r="5.5"/>
		<circle class="st13" cx="107.7" cy="1036.6" r="5.5"/>
		<g>
			<circle class="st14" cx="107.7" cy="894.4" r="5.5"/>
			<circle class="st12" cx="93.7" cy="894.4" r="5.5"/>
		</g>
		<g>
			<circle class="st11" cx="107.7" cy="966.4" r="5.5"/>
			<circle class="st15" cx="93.9" cy="966.4" r="5.5"/>
		</g>
		<circle class="st15" cx="107.7" cy="1144.2" r="5.5"/>
		<g>
			<circle class="st13" cx="81.4" cy="1179.8" r="5.5"/>
			
				<ellipse transform="matrix(0.9674 -0.2532 0.2532 0.9674 -296.4869 55.7135)" class="st12" cx="68.2" cy="1179.8" rx="5.5" ry="5.5"/>
			<circle class="st15" cx="55.3" cy="1179.8" r="5.5"/>
			<circle class="st11" cx="94.6" cy="1179.8" r="5.5"/>
			<circle class="st14" cx="107.7" cy="1179.8" r="5.5"/>
		</g>
		<circle class="st12" cx="107.7" cy="928.7" r="5.5"/>
		<circle class="st12" cx="107.7" cy="1071.6" r="5.5"/>
		<circle class="st14" cx="107.7" cy="1108.6" r="5.5"/>
	</g>
	<circle class="st14" cx="1335.3" cy="850.8" r="5.5"/>
	<circle class="st14" cx="1335.3" cy="888.3" r="5.5"/>
	<circle class="st14" cx="1335.3" cy="958.3" r="5.5"/>
	<circle class="st13" cx="1349.1" cy="850.8" r="5.5"/>
	<circle class="st14" cx="1335.3" cy="924.4" r="5.5"/>
	<g>
		<g>
			<rect x="119.1" y="170.8" class="st5" width="380.7" height="427.2"/>
			<text transform="matrix(1 0 0 1 119.0911 188.3856)"><tspan x="0" y="0" class="st1 st6 st10 st8">Demència</tspan><tspan x="0" y="36" class="st1 st6 st10 st8">Deteriorament cognitiu </tspan><tspan x="0" y="72" class="st1 st6 st10 st8">Malalties neurodegeneratives </tspan><tspan x="0" y="108" class="st1 st6 st10 st8">Problemes de salut mental </tspan><tspan x="0" y="144" class="st1 st6 st10 st8">Ictus</tspan><tspan x="0" y="180" class="st1 st6 st10 st8">Malalties cerebrovasculars </tspan><tspan x="0" y="216" class="st1 st6 st10 st8">Autisme i problemes de</tspan><tspan x="0" y="242" class="st1 st6 st10 st8">conducta en nens</tspan><tspan x="0" y="278.1" class="st6 st10 st8">Tinnitus o sordesa</tspan><tspan x="0" y="314.1" class="st6 st10 st8">Reducció del rendiment cognitiu</tspan></text>
		</g>
		<circle class="st14" cx="107.7" cy="394.4" r="5.5"/>
		<circle class="st11" cx="107.7" cy="456.9" r="5.5"/>
		<circle class="st13" cx="107.7" cy="493.3" r="5.5"/>
		<g>
			<circle class="st14" cx="107.7" cy="322.6" r="5.5"/>
			<circle class="st12" cx="80" cy="322.6" r="5.5"/>
			<circle class="st11" cx="93.9" cy="322.6" r="5.5"/>
		</g>
		<g>
			<circle class="st14" cx="107.7" cy="180.4" r="5.5"/>
			<circle class="st12" cx="93.9" cy="180.4" r="5.5"/>
		</g>
		<g>
			<circle class="st14" cx="107.7" cy="252.5" r="5.5"/>
			<circle class="st12" cx="93.9" cy="252.5" r="5.5"/>
		</g>
		<g>
			<circle class="st11" cx="107.7" cy="361" r="5.5"/>
			<circle class="st12" cx="93.9" cy="361" r="5.5"/>
		</g>
		<g>
			<circle class="st11" cx="107.7" cy="217.1" r="5.5"/>
			<circle class="st12" cx="93.9" cy="217.1" r="5.5"/>
		</g>
		<circle class="st15" cx="80" cy="287.7" r="5.5"/>
		<circle class="st12" cx="93.9" cy="287.7" r="5.5"/>
		<circle class="st14" cx="107.7" cy="287.7" r="5.5"/>
	</g>
	<circle class="st14" cx="1335.3" cy="183" r="5.5"/>
	<circle class="st14" cx="1335.3" cy="242.9" r="5.5"/>
	<g>
		<circle class="st12" cx="1349.1" cy="279" r="5.5"/>
		<circle class="st14" cx="1335.3" cy="278.8" r="5.5"/>
	</g>
	<circle class="st14" cx="1335.3" cy="350.9" r="5.5"/>
	<circle class="st14" cx="1335.3" cy="315" r="5.5"/>
	<circle class="st12" cx="1349.1" cy="1162.7" r="5.5"/>
	<circle class="st11" cx="1335.3" cy="1162.7" r="5.5"/>
	<circle class="st14" cx="1335.3" cy="1199.2" r="5.5"/>
	<circle class="st12" cx="107.7" cy="688.9" r="5.5"/>
	<g>
		<rect x="964.9" y="171.7" class="st5" width="357.8" height="214.7"/>
		<text transform="matrix(1 0 0 1 995.9065 189.2115)"><tspan x="0" y="0" class="st1 st6 st10 st8">Malaltia Pulmonar Obstructiva </tspan><tspan x="152.4" y="26" class="st1 st6 st10 st8">Crònica (MPOC) </tspan><tspan x="267.9" y="62" class="st1 st6 st10 st8">Asma</tspan><tspan x="81" y="98" class="st1 st6 st10 st8">Malalties respiratòries  </tspan><tspan x="207.7" y="134" class="st1 st6 st10 st8">Pneumònia</tspan><tspan x="139.6" y="170" class="st1 st6 st10 st8">Càncer de pulmó</tspan></text>
	</g>
	<g>
		<rect x="937.5" y="113.7" class="st5" width="385.2" height="138.5"/>
		<text transform="matrix(1 0 0 1 998.9602 137.838)" class="st1 st6 st7 st8">Aparell respiratori</text>
	</g>
	<polyline class="st9" points="1322.8,91.3 959.9,89.9 780.3,361.9 	"/>
	<g>
		<rect x="119.1" y="679" class="st5" width="357.8" height="48.9"/>
		<text transform="matrix(1 0 0 1 119.0898 696.5709)" class="st1 st6 st10 st8">Càncer de pit </text>
	</g>
	<g>
		<rect x="119.1" y="619.6" class="st5" width="385.2" height="49.5"/>
		<text transform="matrix(1 0 0 1 119.0908 643.7427)" class="st1 st6 st7 st8">Pit</text>
	</g>
	<polyline class="st9" points="119.1,597.2 481.9,595.8 631.9,404.7 	"/>
	<circle class="st11" cx="1348.8" cy="635.7" r="5.5"/>
	<circle class="st12" cx="1362.6" cy="635.7" r="5.5"/>
	<circle class="st11" cx="1349.1" cy="528.8" r="5.5"/>
	<circle class="st12" cx="1362.9" cy="528.8" r="5.5"/>
	<circle class="st14" cx="1335.3" cy="528.8" r="5.5"/>
	<circle class="st14" cx="1335" cy="563.8" r="5.5"/>
	<circle class="st14" cx="1335" cy="599.7" r="5.5"/>
	<circle class="st14" cx="1335" cy="635.7" r="5.5"/>
	<g>
		<rect x="894.9" y="517.2" class="st5" width="428.7" height="151.9"/>
		<text transform="matrix(1 0 0 1 1129.9082 534.7914)"><tspan x="0" y="0" class="st1 st6 st10 st8">Infart de miocardi</tspan><tspan x="108.5" y="36" class="st1 st6 st10 st8">Arrítmia</tspan><tspan x="-170.1" y="72" class="st1 st6 st10 st8">Insuficiència congestiva cardíaca</tspan><tspan x="-83.8" y="108" class="st1 st6 st10 st8">Malalties cardiovasculars</tspan></text>
	</g>
	<g>
		<rect x="938.4" y="458.5" class="st5" width="385.2" height="66.7"/>
		<text transform="matrix(1 0 0 1 1256.8457 482.6114)" class="st1 st6 st7 st8">Cor</text>
	</g>
	<polyline class="st9" points="1323.7,436.1 960.9,434.7 760.1,393.3 	"/>
	<g>
		<rect x="964.9" y="1151.4" class="st5" width="357.8" height="133.5"/>
		<text transform="matrix(1 0 0 1 1192.7 1168.9081)"><tspan x="0" y="0" class="st1 st6 st10 st8">Hipertensió</tspan><tspan x="-165.8" y="36" class="st1 st6 st10 st8">Trombosi venosa profunda</tspan></text>
	</g>
	<g>
		<rect x="937.5" y="1092.9" class="st5" width="385.2" height="59.8"/>
		<text transform="matrix(1 0 0 1 1190.1697 1117.0677)" class="st1 st6 st7 st8">Artèries</text>
	</g>
	<line class="st9" x1="1322.8" y1="1069.2" x2="778.6" y2="1067.5"/>
	<polyline class="st9" points="754.7,602.3 937.1,722.3 1322.8,721.1 	"/>
</g>
</svg>
