<?xml version="1.0" encoding="utf-8"?>
<!-- Generator: Adobe Illustrator 19.0.0, SVG Export Plug-In . SVG Version: 6.00 Build 0)  -->
<svg version="1.1" id="Capa_1" xmlns="http://www.w3.org/2000/svg" xmlns:xlink="http://www.w3.org/1999/xlink" x="0px" y="0px"
	 viewBox="570 -225.3 1440 1451.3" style="enable-background:new 570 -225.3 1440 1451.3;" xml:space="preserve">
<style type="text/css">
	.st0{fill:#F4F4F4;}
	.st1{fill:#181716;}
	.st2{fill:#C1D9AE;}
	.st3{fill:#FBE2E0;}
	.st4{fill:#F8D2D0;}
	.st5{fill:none;stroke:#F0A0A0;stroke-width:6.0028;stroke-linecap:round;stroke-miterlimit:10;}
	.st6{fill:#F0A0A0;}
	.st7{fill:#3AA336;}
	.st8{fill:none;}
	.st9{enable-background:new    ;}
	.st10{fill:none;stroke:#181716;stroke-width:1.5003;stroke-miterlimit:10;}
</style>
<g id="bg">
	<rect x="570" y="-226" class="st0" width="1440" height="1452.7"/>
	<rect x="570" y="1019.3" class="st1" width="1440" height="207.3"/>
</g>
<g id="cos">
	<g>
		<g>
			<path class="st2" d="M1292.4-169.3c-0.4,0-0.7,0-1,0s-0.7,0-1,0c-44.9-0.4-62.4,35.1-59.8,80.4c2.5,44.3,19.6,91.2,60.6,92.1l0,0
				c0.1,0,0.2,0,0.3,0s0.2,0,0.3,0l0,0c41-0.9,58.1-47.8,60.6-92.1C1354.9-134.2,1337.4-169.8,1292.4-169.3z"/>
			<g>
				
					<ellipse transform="matrix(-0.1335 0.991 -0.991 -0.1335 1459.3275 -1419.4047)" class="st2" cx="1350.2" cy="-71.7" rx="23.8" ry="8"/>
				
					<ellipse transform="matrix(-0.991 0.1335 -0.1335 -0.991 2444.9023 -307.213)" class="st2" cx="1232.8" cy="-71.6" rx="8" ry="23.8"/>
			</g>
			<rect x="1256.3" y="-29.1" class="st2" width="70.1" height="73.1"/>
			<g>
				<path class="st2" d="M1304.3,77l-48.1-73.8l0,0c0,20.9-16.9,37.8-37.8,37.8l0,0L1304.3,77z"/>
				<path class="st2" d="M1278.5,77l48.1-73.8l0,0c0,20.9,16.9,37.8,37.8,37.8l0,0L1278.5,77z"/>
			</g>
		</g>
		<g>
			<rect x="1201.8" y="40.7" class="st2" width="178.7" height="281.4"/>
			<path class="st2" d="M1174.4,79.2h233.4v86.2c0,35.4-28.7,64-64,64h-105.4c-35.4,0-64-28.7-64-64V79.2z"/>
			<path class="st2" d="M1128.6,162.4h325.1v-59.3c0-34.5-28-62.4-62.4-62.4H1191c-34.5,0-62.4,28-62.4,62.4V162.4z"/>
			<path class="st2" d="M1380.5,322.1h-89.4v196.1h127.1c0,0,0-24.5,0-74.5C1418.2,395.8,1380.5,322.1,1380.5,322.1z"/>
			<path class="st2" d="M1201.7,322.1h89.4v196.1H1164c0,0,0-24.5,0-74.5C1164,395.8,1201.7,322.1,1201.7,322.1z"/>
			<g>
				<path class="st2" d="M1376.4,769.2c0,19.3-77.1,0-77.1,0v-251c0,0,118.8-29.7,118.8,0C1418.2,625,1376.4,740.2,1376.4,769.2z"/>
				<path class="st2" d="M1355.3,1084.1h-41l-14.9-314.8h76.9c0,0,6.4,92.3,6.4,123.2C1382.6,979.1,1355.3,1084.1,1355.3,1084.1z"/>
				<path class="st2" d="M1363.1,1179.1c-0.1,2.3-2.4,6-4.9,9.3c-3.8,5-9.7,7.8-15.9,7.8h-29.7c-7,0-12.4-6.1-11.4-13.1l13.1-99h41
					C1355.2,1084.1,1364.1,1149.8,1363.1,1179.1z"/>
			</g>
			<g>
				<path class="st2" d="M1205.8,769.2c0,19.3,77.1,0,77.1,0v-251c0,0-118.8-29.7-118.8,0C1164,625,1205.8,740.2,1205.8,769.2z"/>
				<path class="st2" d="M1226.9,1084.1h41l14.9-314.8h-76.9c0,0-6.4,92.3-6.4,123.2C1199.6,979.1,1226.9,1084.1,1226.9,1084.1z"/>
				<path class="st2" d="M1219.1,1179.1c0.1,2.3,2.4,6,4.9,9.3c3.8,5,9.7,7.8,15.9,7.8h29.7c7,0,12.4-6.1,11.4-13.1l-13.1-99h-41
					C1227,1084.1,1218.1,1149.8,1219.1,1179.1z"/>
			</g>
			<polygon class="st2" points="1474.1,311.7 1428.2,317 1400.4,99.7 1453.5,93.5 			"/>
			<path class="st2" d="M1488.9,496.4l-27,3.1L1428.2,317c0,0,42.4-39.8,43.8-27.7c2.5,21.5,8.9,43.4,12.1,73.1
				C1487.7,395.7,1488.9,496.4,1488.9,496.4z"/>
			<path class="st2" d="M1488.9,496.4v41.4c0,8.9-2.7,17.6-7.9,24.9l-32.9,46.8c-2.7,3.9-8,4.9-11.9,2.3l0,0
				c-3.7-2.4-5-7.1-3.1-11.1l20.4-42.3l-2.8-15.3l-14.6,28.9c-0.7,1.3-2.2,2-3.7,1.6l0,0c-1.5-0.4-2.5-1.9-2.3-3.4l3.1-27.7
				c0.8-7.2,3.3-14.1,7.4-20.1l21.2-22.9L1488.9,496.4z"/>
			<g>
				<polygon class="st2" points="1108.7,311.7 1154.6,317 1182.4,99.7 1129.3,93.5 				"/>
				<path class="st2" d="M1093.9,496.4l27,3.1l33.7-182.5c0,0-42.4-39.8-43.8-27.7c-2.5,21.5-8.9,43.4-12.1,73.1
					C1095.1,395.7,1093.9,496.4,1093.9,496.4z"/>
				<path class="st2" d="M1093.9,496.4v41.4c0,8.9,2.7,17.6,7.9,24.9l32.9,46.8c2.7,3.9,8,4.9,11.9,2.3l0,0c3.7-2.4,5-7.1,3.1-11.1
					l-20.4-42.3l2.8-15.3l14.6,28.8c0.7,1.3,2.2,2,3.7,1.6l0,0c1.5-0.4,2.5-1.9,2.3-3.4l-3.1-27.7c-0.8-7.2-3.3-14.1-7.4-20.1
					l-21.2-22.9L1093.9,496.4z"/>
			</g>
		</g>
	</g>
	<g>
		<g>
			<path class="st3" d="M1308.9,47.4L1308.9,47.4c3.9-2.5,8.4-3.9,13.1-3.9h6.3c7.9,0.5,12.9,3.1,16,7.1
				c21.4,27.7,48.6,65,55.8,114.3c1.7,11.9-15.2,35.7-19.8,39.1c-55.8,41.5-87.2-27.9-87.2-27.9l5-109.7
				C1298.4,58.7,1302.5,51.6,1308.9,47.4z"/>
			<circle class="st3" cx="1345.5" cy="170.1" r="54.6"/>
		</g>
		<g>
			<path class="st3" d="M1274.7,47.4L1274.7,47.4c-3.9-2.5-8.4-3.9-13.1-3.9h-6.3c-7.9,0.5-12.9,3.1-16,7.1
				c-21.4,27.7-48.6,65-55.8,114.3c-1.7,11.9,15.2,35.7,19.8,39.1c55.8,41.5,87.2-27.9,87.2-27.9l17.6-99l-22.5-10.6
				C1285.2,58.7,1281.1,51.6,1274.7,47.4z"/>
			<circle class="st3" cx="1238.1" cy="170.1" r="54.6"/>
		</g>
	</g>
	<path class="st4" d="M1291.4,489.8L1291.4,489.8c-30.3,0-54.9-24.6-54.9-54.9v-61.7c0-30.3,24.6-54.9,54.9-54.9l0,0
		c30.3,0,54.9,24.6,54.9,54.9v61.7C1346.3,465.2,1321.7,489.8,1291.4,489.8z"/>
	<g>
		<g>
			<g>
				<circle class="st4" cx="1259" cy="168.7" r="22.4"/>
				<circle class="st4" cx="1229.2" cy="179.5" r="24.4"/>
				<circle class="st4" cx="1267.9" cy="103.9" r="13.5"/>
				<rect x="1251.6" y="103.9" class="st4" width="29.9" height="61"/>
				<path class="st4" d="M1205.7,172.9c13.2-52.4,53.6-79.5,53.6-79.5l5.4,70.4C1264.8,163.8,1202,187.4,1205.7,172.9z"/>
			</g>
			<g>
				<circle class="st4" cx="1324.6" cy="168.7" r="22.4"/>
				<circle class="st4" cx="1354.4" cy="179.5" r="24.4"/>
				<circle class="st4" cx="1315.7" cy="103.9" r="13.5"/>
				<rect x="1302.1" y="103.9" class="st4" width="29.9" height="61"/>
				<path class="st4" d="M1377.9,172.9c-13.2-52.4-53.6-79.5-53.6-79.5l-5.4,70.4C1318.8,163.8,1381.5,187.4,1377.9,172.9z"/>
			</g>
		</g>
		<rect x="1284.3" y="43" class="st4" width="14.9" height="56.1"/>
		<g>
			
				<rect x="1302" y="87.5" transform="matrix(0.7071 -0.7071 0.7071 0.7071 301.8427 959.7487)" class="st4" width="14.9" height="56.1"/>
			
				<rect x="1266.7" y="87.5" transform="matrix(-0.7071 -0.7071 0.7071 -0.7071 2093.4087 1098.1632)" class="st4" width="14.9" height="56.1"/>
		</g>
	</g>
	<g>
		<path class="st5" d="M1459.5,535.2c0,0,20.9-17.7,20.3-35.7c-1.6-43.9,1.6-76-1.6-100.3c-8-60.9-24.9-73-27.9-100.5
			c-2.6-23.1,5-164.8-13-199.7c-19.1-36.9-65.2-41.5-97.4-33c-22.8,6-28.3,24.1-30.4,35.6c-1.6,8.8-1.8,16.5,2.7,35.8"/>
		<path class="st5" d="M1390.7,64.9c23.7,6.2,25.7,29.3,27.5,56.9c1.8,27.6,33.3,135.3,30.9,171.2c-2.4,35.9-1.1,91.7,6.5,115.8
			c7.6,24.1,21.6,54.8,23.8,80.9"/>
		<path class="st5" d="M1124.4,535.2c0,0-20.9-17.7-20.3-35.7c1.6-43.9-1.6-76,1.6-100.3c8-60.9,24.9-73,27.9-100.5
			c2.6-23.1-5-164.8,13-199.7c19.1-36.9,65.2-41.5,97.4-33c22.8,6,47.4,21.8,51.6,35.6c2.6,8.6,8.6,16.5,4.2,35.8"/>
		<path class="st5" d="M1193.2,64.9c-23.7,6.2-25.7,29.3-27.5,56.9c-1.8,27.6-33.3,135.3-30.9,171.2c2.4,35.9,1.1,91.7-6.5,115.8
			c-7.6,24.1-21.6,54.8-23.8,80.9"/>
		<path class="st5" d="M1339.8,66c0,0-23.1-47.7-24.2-62.9s13.1-41.3,23.2-68.4c5.7-15.3,5-30.2,3.3-40.3c-1.3-7.6-6.4-14-13.5-16.9
			l-4.6-1.9"/>
		<line class="st5" x1="1315.7" y1="-0.3" x2="1321.5" y2="75.3"/>
		<path class="st5" d="M1242.6,65.2c0,0,23.1-46.8,24.2-62c1.1-15.2-13.1-41.3-23.2-68.4c-6.5-17.4-4.7-34.3-2.5-44.1
			c1.2-5.4,4.3-10.1,8.7-13.3l4.8-3.5"/>
		<line class="st5" x1="1266.8" y1="-0.3" x2="1260.9" y2="71.9"/>
		<path class="st5" d="M1295.5,185.6c0,0-3.9,223.5,0.4,234.6c4.3,11.1,78.3,67.9,82.1,115c8.8,108-27.9,228.6-29.6,234.1
			c-6.6,21.4,19,145.2,13.3,195.2c-5.7,50-26.4,117.2-29.7,141.5c-3.2,24.3-5.6,54.3-5.6,54.3"/>
		<path class="st5" d="M1324.6,450.8c13,13.8,18.6,46.7,16.4,84.3c-2.1,37.6,8.4,197.7,2.4,249.2s-18.1,154.4-14.2,193
			c3.9,38.6,7.1,90.2,2.9,128.7"/>
		<path class="st5" d="M1294.4,416.8c-4.3,11.1-86.7,71.3-90.5,118.4c-8.8,108,27.9,228.6,29.6,234.1c6.6,21.4-19,145.2-13.3,195.2
			c5.7,50,26.4,117.2,29.7,141.5c3.2,24.3,5.6,54.3,5.6,54.3"/>
		<path class="st5" d="M1257.8,453c-13,13.8-19,44.6-16.9,82.2c2.1,37.6-8.4,197.7-2.4,249.2s18.1,154.4,14.2,193
			c-3.9,38.6-7.1,90.2-2.9,128.7"/>
	</g>
	<path class="st6" d="M1296.9,114.3c0,0,4.3,6.4,3.8,7.8c-0.4,1.4-3.7,2.6-7.2,11c-2.3,5.8,0.9,11.3-0.6,12.4
		c-1.6,1.1-5.7,7.9-6.9,10.2c-8.9,16.7,4,34.6,13.3,41.2c9.3,6.5,18.4,6.7,24.3,9.3c8.2,3.5,19,5.8,25.3-5.3c0,0,4.1-8.5-1-24.1
		c-2.9-8.9-6.4-15.4-8.1-17.8c-5.5-7.7-11.2-11.2-13.8-12.6c-1.4-0.7-0.8-3.8,2-5c2.8-1.3,6-0.3,6-0.3l1-4c0,0-3.9-1.3-5.8-0.9
		c-1.9,0.3,2.1-4.2,2.3-7.3c0,0-2.7-2.3-4.4-1.7c0,0-1,3.7-3.5,7.7c0,0,1-9.6-5.9-14.6c0,0,1.6-8.1,2.1-8.8c0,0-3.2-1.7-4.5-1.4
		c0,0-1.9,8.1-2.2,8.3c-0.3,0.2-0.9,1.2-1.5,0.2c-0.6-1-0.8-9.6-0.8-9.6l-4.4,0.5c0,0,1.9,9.3,0.7,9.8c-0.4,0.2-0.8,0.8-1.6,0.1
		c-2.1-1.8-4.3-6.9-4.3-7.3C1301.1,111.6,1296.9,114.3,1296.9,114.3z"/>
	<g>
		<circle class="st7" cx="1258.1" cy="-126.8" r="13.6"/>
		<circle class="st7" cx="1278.4" cy="-138.4" r="14.7"/>
		<circle class="st7" cx="1301" cy="-139.8" r="16.3"/>
		<circle class="st7" cx="1251.9" cy="-121.3" r="8.1"/>
		<circle class="st7" cx="1331.4" cy="-121.3" r="8.1"/>
		<circle class="st7" cx="1320.4" cy="-132.8" r="11"/>
		<rect x="1251.9" y="-126.8" class="st7" width="79.6" height="13.6"/>
		<rect x="1277.3" y="-135.9" class="st7" width="14.3" height="17.6"/>
	</g>
	<g>
		<rect x="689" y="-55.5" class="st8" width="380.7" height="354.3"/>
		<g class="st9">
			<path class="st1" d="M699.4-50.1c0,0.7-0.1,1.4-0.4,2c-0.2,0.6-0.6,1.1-1,1.5s-0.9,0.7-1.5,0.9c-0.6,0.2-1.3,0.3-2,0.3h-1.9v7.5
				h-2.4v-16.6h4.3c1.6,0,2.8,0.4,3.6,1.1S699.4-51.6,699.4-50.1z M692.6-52.5v5.1h1.8c0.8,0,1.5-0.2,1.9-0.7
				c0.4-0.5,0.6-1.1,0.6-1.9c0-0.8-0.2-1.4-0.6-1.8c-0.4-0.4-1.1-0.7-1.9-0.7H692.6z"/>
			<path class="st1" d="M706.2-48.5h-0.6c-0.8,0-1.4,0.2-1.7,0.6c-0.4,0.4-0.5,1-0.5,1.8v8.1h-2.3v-12.8h2.3v1.2
				c0.2-0.4,0.6-0.7,1-0.9s1.1-0.4,1.8-0.3V-48.5z"/>
			<path class="st1" d="M706.5-44.4c0-1,0.2-1.9,0.5-2.7c0.3-0.8,0.8-1.5,1.4-2.1c0.6-0.6,1.3-1.1,2.1-1.4c0.8-0.3,1.7-0.5,2.6-0.5
				c1,0,1.8,0.2,2.7,0.5s1.5,0.8,2.1,1.4c0.6,0.6,1,1.3,1.4,2.1c0.3,0.8,0.5,1.7,0.5,2.7s-0.2,1.8-0.5,2.7c-0.3,0.8-0.8,1.5-1.4,2.1
				c-0.6,0.6-1.3,1-2.1,1.4c-0.8,0.3-1.7,0.5-2.6,0.5c-1,0-1.8-0.2-2.7-0.5c-0.8-0.3-1.5-0.8-2.1-1.4c-0.6-0.6-1-1.3-1.4-2.1
				C706.7-42.5,706.5-43.4,706.5-44.4z M708.8-44.4c0,0.7,0.1,1.3,0.3,1.8c0.2,0.6,0.5,1,0.9,1.4c0.4,0.4,0.8,0.7,1.4,1
				c0.5,0.2,1.1,0.3,1.7,0.3c0.6,0,1.2-0.1,1.8-0.3c0.5-0.2,1-0.5,1.4-1c0.4-0.4,0.7-0.9,0.9-1.4c0.2-0.6,0.3-1.2,0.3-1.8
				c0-0.7-0.1-1.3-0.3-1.8c-0.2-0.6-0.5-1-0.9-1.5s-0.8-0.7-1.4-1c-0.5-0.2-1.1-0.3-1.7-0.3c-0.6,0-1.2,0.1-1.8,0.3
				c-0.5,0.2-1,0.5-1.4,1c-0.4,0.4-0.7,0.9-0.9,1.5C708.9-45.7,708.8-45,708.8-44.4z"/>
			<path class="st1" d="M723.7-38h-2.2v-17.5h2.3v6.5c0.2-0.2,0.4-0.5,0.7-0.7c0.3-0.2,0.6-0.5,1-0.6c0.4-0.2,0.8-0.3,1.3-0.5
				c0.5-0.1,1-0.2,1.5-0.2c1,0,1.8,0.2,2.6,0.5c0.8,0.3,1.5,0.8,2,1.3c0.6,0.6,1,1.3,1.3,2.1c0.3,0.8,0.5,1.7,0.5,2.7
				c0,0.9-0.2,1.8-0.5,2.6s-0.8,1.5-1.3,2.1c-0.6,0.6-1.3,1.1-2.1,1.4c-0.8,0.3-1.7,0.5-2.7,0.5c-0.6,0-1.1-0.1-1.5-0.2
				s-0.9-0.3-1.3-0.5s-0.7-0.4-1-0.6c-0.3-0.2-0.5-0.4-0.6-0.6V-38z M723.7-44.4c0,0.7,0.1,1.3,0.3,1.8c0.2,0.6,0.5,1,0.9,1.5
				s0.8,0.7,1.4,0.9c0.5,0.2,1.1,0.3,1.8,0.3s1.2-0.1,1.8-0.3c0.5-0.2,1-0.5,1.4-0.9s0.7-0.9,0.9-1.5c0.2-0.6,0.3-1.2,0.3-1.8
				c0-0.7-0.1-1.3-0.3-1.8c-0.2-0.6-0.5-1-0.9-1.5c-0.4-0.4-0.8-0.7-1.4-1c-0.5-0.2-1.1-0.3-1.8-0.3c-0.7,0-1.2,0.1-1.8,0.3
				c-0.5,0.2-1,0.6-1.4,1s-0.7,0.9-0.9,1.5C723.8-45.7,723.7-45,723.7-44.4z"/>
			<path class="st1" d="M738.7-38h-2.3v-17.5h2.3V-38z"/>
			<path class="st1" d="M742.8-43.7c0.1,1.2,0.5,2.2,1.2,2.9c0.7,0.7,1.7,1,2.9,1c1,0,1.8-0.2,2.5-0.7s1.1-1.1,1.5-1.8l1.8,0.9
				c-0.2,0.5-0.5,1-0.8,1.4c-0.3,0.4-0.8,0.8-1.2,1.2c-0.5,0.3-1,0.6-1.6,0.8c-0.6,0.2-1.3,0.3-2.1,0.3c-1,0-1.8-0.2-2.6-0.5
				c-0.8-0.3-1.5-0.8-2.1-1.3s-1-1.3-1.3-2.1c-0.3-0.8-0.5-1.7-0.5-2.7c0-1,0.2-1.9,0.5-2.7c0.3-0.8,0.7-1.5,1.3-2.1
				c0.6-0.6,1.2-1.1,2-1.4c0.8-0.3,1.6-0.5,2.5-0.5c0.9,0,1.8,0.1,2.6,0.4c0.8,0.3,1.4,0.7,2,1.3s1,1.2,1.3,2
				c0.3,0.8,0.5,1.6,0.5,2.6c0,0.1,0,0.3,0,0.5c0,0.2,0,0.4,0,0.6H742.8z M746.7-49c-1.1,0-1.9,0.3-2.6,0.9
				c-0.7,0.6-1.1,1.5-1.2,2.6h7.8c-0.1-1.1-0.5-1.9-1.2-2.5C748.7-48.7,747.8-49,746.7-49z"/>
			<path class="st1" d="M763.6-38h-2.3v-8.2c0-0.8-0.2-1.5-0.5-2c-0.4-0.5-0.9-0.7-1.6-0.7c-0.8,0-1.3,0.3-1.7,0.8
				c-0.4,0.5-0.6,1.2-0.6,2.1v8.1h-2.3v-12.8h2.3v1.2c0.1-0.1,0.2-0.3,0.4-0.4c0.2-0.2,0.4-0.3,0.6-0.4c0.2-0.1,0.5-0.2,0.8-0.3
				s0.7-0.1,1.1-0.1c0.8,0,1.5,0.2,2,0.5c0.5,0.3,0.9,0.7,1.1,1.2c0.3-0.5,0.7-0.9,1.2-1.2c0.5-0.3,1.2-0.5,2.1-0.5
				c0.7,0,1.4,0.1,1.9,0.3c0.5,0.2,1,0.6,1.3,1s0.6,0.9,0.7,1.4c0.2,0.5,0.2,1.1,0.2,1.7v8.5h-2.3v-8.3c0-0.8-0.2-1.5-0.5-2
				c-0.4-0.5-0.9-0.7-1.7-0.7c-0.7,0-1.3,0.2-1.7,0.7s-0.6,1.1-0.6,1.9V-38z"/>
			<path class="st1" d="M772.1-42.1c0-0.6,0.1-1.2,0.3-1.7c0.2-0.5,0.5-1,0.9-1.3c0.4-0.4,0.8-0.7,1.4-0.9s1.1-0.3,1.8-0.3
				c0.7,0,1.2,0.1,1.7,0.3c0.4,0.2,0.8,0.4,1,0.6v-1.1c0-0.8-0.2-1.5-0.6-1.9c-0.4-0.4-0.9-0.7-1.7-0.7c-0.8,0-1.3,0.2-1.6,0.6
				c-0.3,0.4-0.5,0.9-0.5,1.4h-2.1c0-0.6,0.1-1.1,0.3-1.6c0.2-0.5,0.5-0.9,0.8-1.2c0.4-0.3,0.8-0.6,1.3-0.8c0.5-0.2,1.2-0.3,1.9-0.3
				c0.8,0,1.5,0.1,2.1,0.3c0.6,0.2,1,0.5,1.4,0.9c0.4,0.4,0.6,0.9,0.8,1.5s0.3,1.2,0.3,1.9v8.3h-2v-1c-0.3,0.4-0.7,0.6-1.2,0.9
				c-0.5,0.2-1.1,0.3-1.7,0.3c-0.6,0-1.2-0.1-1.7-0.3c-0.5-0.2-1-0.5-1.4-0.9s-0.7-0.8-0.9-1.4C772.2-40.8,772.1-41.4,772.1-42.1z
				 M774.3-42.1c0,0.7,0.2,1.3,0.7,1.7c0.4,0.5,1,0.7,1.7,0.7c0.7,0,1.3-0.2,1.8-0.7c0.5-0.5,0.7-1,0.7-1.7c0-0.7-0.2-1.3-0.7-1.7
				s-1.1-0.7-1.8-0.7s-1.3,0.2-1.7,0.7C774.5-43.3,774.3-42.8,774.3-42.1z"/>
			<path class="st1" d="M785.5-47.6c0,0.8,0.4,1.3,1.3,1.6c0.3,0.1,0.7,0.2,1,0.3s0.7,0.2,1,0.3c0.9,0.3,1.6,0.8,2.1,1.3
				c0.5,0.6,0.7,1.3,0.7,2.4c0,0.6-0.1,1.2-0.3,1.7c-0.2,0.5-0.5,0.9-0.9,1.2c-0.4,0.3-0.9,0.6-1.4,0.7c-0.5,0.2-1.1,0.2-1.7,0.2
				c-0.8,0-1.5-0.1-2.1-0.3c-0.6-0.2-1-0.5-1.3-0.9c-0.3-0.4-0.6-0.8-0.7-1.3s-0.2-1-0.2-1.6h2.2c0,0.3,0,0.6,0.1,0.9
				c0.1,0.3,0.2,0.5,0.4,0.7s0.4,0.4,0.6,0.5s0.6,0.2,1,0.2c0.6,0,1-0.1,1.5-0.4c0.4-0.3,0.6-0.7,0.6-1.3c0-0.5-0.1-0.9-0.4-1.2
				c-0.3-0.3-0.6-0.5-1.1-0.7c-0.4-0.1-0.7-0.2-1.1-0.3c-0.4-0.1-0.8-0.2-1.2-0.4c-0.8-0.4-1.4-0.8-1.8-1.4c-0.4-0.6-0.5-1.2-0.5-2
				c0-0.5,0.1-1,0.3-1.4c0.2-0.4,0.5-0.8,0.8-1.1c0.4-0.3,0.8-0.5,1.3-0.7c0.5-0.2,1-0.3,1.6-0.3c1.3,0,2.3,0.4,3,1.1
				c0.6,0.7,1,1.7,1,2.8h-2.1c0-0.7-0.2-1.2-0.5-1.5s-0.8-0.6-1.4-0.6c-0.5,0-1,0.1-1.3,0.4S785.5-48.1,785.5-47.6z"/>
			<path class="st1" d="M807.3-39.9c-0.2,0.2-0.4,0.5-0.7,0.7c-0.3,0.3-0.6,0.5-1,0.7c-0.4,0.2-0.8,0.4-1.3,0.5s-1,0.2-1.5,0.2
				c-1,0-1.8-0.2-2.7-0.5c-0.8-0.3-1.5-0.8-2.1-1.4s-1-1.3-1.3-2.1c-0.3-0.8-0.5-1.7-0.5-2.7c0-0.9,0.2-1.8,0.5-2.6
				c0.3-0.8,0.8-1.5,1.3-2.1c0.6-0.6,1.3-1.1,2.1-1.4s1.7-0.5,2.6-0.5c1,0,1.9,0.2,2.6,0.6c0.7,0.4,1.3,0.8,1.7,1.3v-6.3h2.3V-38
				h-2.2V-39.9z M798.6-44.4c0,0.7,0.1,1.3,0.3,1.8c0.2,0.6,0.5,1,0.9,1.5c0.4,0.4,0.8,0.7,1.4,0.9c0.5,0.2,1.1,0.3,1.7,0.3
				c0.6,0,1.2-0.1,1.8-0.3c0.5-0.2,1-0.5,1.4-0.9c0.4-0.4,0.7-0.9,0.9-1.5c0.2-0.6,0.3-1.2,0.3-1.8c0-0.7-0.1-1.3-0.3-1.8
				c-0.2-0.6-0.5-1-0.9-1.5c-0.4-0.4-0.8-0.7-1.4-1c-0.5-0.2-1.1-0.3-1.8-0.3c-0.6,0-1.2,0.1-1.8,0.3c-0.5,0.2-1,0.6-1.4,1
				c-0.4,0.4-0.7,0.9-0.9,1.5C798.7-45.7,798.6-45,798.6-44.4z"/>
			<path class="st1" d="M813.6-43.7c0.1,1.2,0.5,2.2,1.2,2.9c0.7,0.7,1.7,1,2.9,1c1,0,1.8-0.2,2.5-0.7s1.1-1.1,1.5-1.8l1.8,0.9
				c-0.2,0.5-0.5,1-0.8,1.4c-0.3,0.4-0.8,0.8-1.2,1.2c-0.5,0.3-1,0.6-1.6,0.8c-0.6,0.2-1.3,0.3-2.1,0.3c-1,0-1.8-0.2-2.6-0.5
				c-0.8-0.3-1.5-0.8-2.1-1.3s-1-1.3-1.3-2.1c-0.3-0.8-0.5-1.7-0.5-2.7c0-1,0.2-1.9,0.5-2.7c0.3-0.8,0.7-1.5,1.3-2.1
				c0.6-0.6,1.2-1.1,2-1.4c0.8-0.3,1.6-0.5,2.5-0.5c0.9,0,1.8,0.1,2.6,0.4c0.8,0.3,1.4,0.7,2,1.3s1,1.2,1.3,2
				c0.3,0.8,0.5,1.6,0.5,2.6c0,0.1,0,0.3,0,0.5c0,0.2,0,0.4,0,0.6H813.6z M817.5-49c-1.1,0-1.9,0.3-2.6,0.9
				c-0.7,0.6-1.1,1.5-1.2,2.6h7.8c-0.1-1.1-0.5-1.9-1.2-2.5C819.5-48.7,818.6-49,817.5-49z"/>
			<path class="st1" d="M830.9-47.6c0,0.8,0.4,1.3,1.3,1.6c0.3,0.1,0.7,0.2,1,0.3s0.7,0.2,1,0.3c0.9,0.3,1.6,0.8,2.1,1.3
				c0.5,0.6,0.7,1.3,0.7,2.4c0,0.6-0.1,1.2-0.3,1.7c-0.2,0.5-0.5,0.9-0.9,1.2c-0.4,0.3-0.9,0.6-1.4,0.7c-0.5,0.2-1.1,0.2-1.7,0.2
				c-0.8,0-1.5-0.1-2.1-0.3c-0.6-0.2-1-0.5-1.3-0.9c-0.3-0.4-0.6-0.8-0.7-1.3s-0.2-1-0.2-1.6h2.2c0,0.3,0,0.6,0.1,0.9
				c0.1,0.3,0.2,0.5,0.4,0.7s0.4,0.4,0.6,0.5s0.6,0.2,1,0.2c0.6,0,1-0.1,1.5-0.4c0.4-0.3,0.6-0.7,0.6-1.3c0-0.5-0.1-0.9-0.4-1.2
				c-0.3-0.3-0.6-0.5-1.1-0.7c-0.4-0.1-0.7-0.2-1.1-0.3c-0.4-0.1-0.8-0.2-1.2-0.4c-0.8-0.4-1.4-0.8-1.8-1.4c-0.4-0.6-0.5-1.2-0.5-2
				c0-0.5,0.1-1,0.3-1.4c0.2-0.4,0.5-0.8,0.8-1.1c0.4-0.3,0.8-0.5,1.3-0.7c0.5-0.2,1-0.3,1.6-0.3c1.3,0,2.3,0.4,3,1.1
				c0.6,0.7,1,1.7,1,2.8h-2.1c0-0.7-0.2-1.2-0.5-1.5s-0.8-0.6-1.4-0.6c-0.5,0-1,0.1-1.3,0.4S830.9-48.1,830.9-47.6z"/>
			<path class="st1" d="M838.3-42.1c0-0.6,0.1-1.2,0.3-1.7c0.2-0.5,0.5-1,0.9-1.3c0.4-0.4,0.8-0.7,1.4-0.9c0.5-0.2,1.1-0.3,1.8-0.3
				c0.7,0,1.2,0.1,1.7,0.3c0.4,0.2,0.8,0.4,1,0.6v-1.1c0-0.8-0.2-1.5-0.6-1.9c-0.4-0.4-0.9-0.7-1.7-0.7c-0.8,0-1.3,0.2-1.6,0.6
				c-0.3,0.4-0.5,0.9-0.5,1.4h-2.1c0-0.6,0.1-1.1,0.3-1.6c0.2-0.5,0.5-0.9,0.8-1.2s0.8-0.6,1.3-0.8c0.5-0.2,1.2-0.3,1.9-0.3
				c0.8,0,1.5,0.1,2.1,0.3c0.6,0.2,1,0.5,1.4,0.9c0.4,0.4,0.6,0.9,0.8,1.5c0.2,0.6,0.3,1.2,0.3,1.9v8.3h-2v-1
				c-0.3,0.4-0.7,0.6-1.2,0.9c-0.5,0.2-1.1,0.3-1.7,0.3c-0.6,0-1.2-0.1-1.7-0.3c-0.5-0.2-1-0.5-1.4-0.9c-0.4-0.4-0.7-0.8-0.9-1.4
				C838.4-40.8,838.3-41.4,838.3-42.1z M840.5-42.1c0,0.7,0.2,1.3,0.7,1.7c0.4,0.5,1,0.7,1.7,0.7c0.7,0,1.3-0.2,1.8-0.7
				c0.5-0.5,0.7-1,0.7-1.7c0-0.7-0.2-1.3-0.7-1.7s-1.1-0.7-1.8-0.7c-0.7,0-1.3,0.2-1.7,0.7C840.7-43.3,840.5-42.8,840.5-42.1z"/>
			<path class="st1" d="M852.1-38h-2.3v-17.5h2.3V-38z"/>
			<path class="st1" d="M856.7-42.6c0,0.9,0.2,1.5,0.5,2c0.4,0.5,0.9,0.7,1.7,0.7s1.3-0.3,1.7-0.8c0.4-0.5,0.6-1.2,0.6-2v-8.2h2.3
				V-38h-2.3v-1.2c-0.2,0.3-0.5,0.6-1,0.9s-1.1,0.4-1.9,0.4c-0.7,0-1.3-0.1-1.8-0.3s-0.9-0.6-1.2-1c-0.3-0.4-0.6-0.9-0.7-1.4
				c-0.1-0.5-0.2-1.1-0.2-1.8v-8.5h2.3V-42.6z"/>
			<path class="st1" d="M876.3-39.9c-0.2,0.2-0.4,0.5-0.7,0.7c-0.3,0.3-0.6,0.5-1,0.7s-0.8,0.4-1.3,0.5c-0.5,0.1-1,0.2-1.5,0.2
				c-1,0-1.8-0.2-2.7-0.5c-0.8-0.3-1.5-0.8-2.1-1.4s-1-1.3-1.3-2.1c-0.3-0.8-0.5-1.7-0.5-2.7c0-0.9,0.2-1.8,0.5-2.6
				c0.3-0.8,0.8-1.5,1.3-2.1c0.6-0.6,1.3-1.1,2.1-1.4s1.7-0.5,2.6-0.5c1,0,1.9,0.2,2.6,0.6c0.7,0.4,1.3,0.8,1.7,1.3v-6.3h2.3V-38
				h-2.2V-39.9z M867.6-44.4c0,0.7,0.1,1.3,0.3,1.8c0.2,0.6,0.5,1,0.9,1.5c0.4,0.4,0.8,0.7,1.4,0.9c0.5,0.2,1.1,0.3,1.7,0.3
				c0.6,0,1.2-0.1,1.8-0.3c0.5-0.2,1-0.5,1.4-0.9c0.4-0.4,0.7-0.9,0.9-1.5c0.2-0.6,0.3-1.2,0.3-1.8c0-0.7-0.1-1.3-0.3-1.8
				c-0.2-0.6-0.5-1-0.9-1.5s-0.8-0.7-1.4-1c-0.5-0.2-1.1-0.3-1.8-0.3c-0.6,0-1.2,0.1-1.8,0.3c-0.5,0.2-1,0.6-1.4,1s-0.7,0.9-0.9,1.5
				C867.7-45.7,867.6-45,867.6-44.4z"/>
			<path class="st1" d="M893.5-38h-2.3v-8.2c0-0.8-0.2-1.5-0.5-2c-0.4-0.5-0.9-0.7-1.6-0.7c-0.8,0-1.3,0.3-1.7,0.8
				c-0.4,0.5-0.6,1.2-0.6,2.1v8.1h-2.3v-12.8h2.3v1.2c0.1-0.1,0.2-0.3,0.4-0.4s0.4-0.3,0.6-0.4c0.2-0.1,0.5-0.2,0.8-0.3
				c0.3-0.1,0.7-0.1,1.1-0.1c0.8,0,1.5,0.2,2,0.5c0.5,0.3,0.9,0.7,1.1,1.2c0.3-0.5,0.7-0.9,1.2-1.2c0.5-0.3,1.2-0.5,2.1-0.5
				c0.7,0,1.4,0.1,1.9,0.3c0.5,0.2,1,0.6,1.3,1s0.6,0.9,0.7,1.4c0.2,0.5,0.2,1.1,0.2,1.7v8.5h-2.3v-8.3c0-0.8-0.2-1.5-0.5-2
				c-0.4-0.5-0.9-0.7-1.7-0.7c-0.7,0-1.3,0.2-1.7,0.7s-0.6,1.1-0.6,1.9V-38z"/>
			<path class="st1" d="M904.2-43.7c0.1,1.2,0.5,2.2,1.2,2.9c0.7,0.7,1.7,1,2.9,1c1,0,1.8-0.2,2.5-0.7s1.1-1.1,1.5-1.8l1.8,0.9
				c-0.2,0.5-0.5,1-0.8,1.4c-0.3,0.4-0.8,0.8-1.2,1.2c-0.5,0.3-1,0.6-1.6,0.8s-1.3,0.3-2.1,0.3c-1,0-1.8-0.2-2.6-0.5
				c-0.8-0.3-1.5-0.8-2.1-1.3s-1-1.3-1.3-2.1c-0.3-0.8-0.5-1.7-0.5-2.7c0-1,0.2-1.9,0.5-2.7c0.3-0.8,0.7-1.5,1.3-2.1
				c0.6-0.6,1.2-1.1,2-1.4c0.8-0.3,1.6-0.5,2.5-0.5c0.9,0,1.8,0.1,2.6,0.4c0.8,0.3,1.4,0.7,2,1.3c0.5,0.5,1,1.2,1.3,2
				c0.3,0.8,0.5,1.6,0.5,2.6c0,0.1,0,0.3,0,0.5c0,0.2,0,0.4,0,0.6H904.2z M908.1-49c-1.1,0-1.9,0.3-2.6,0.9
				c-0.7,0.6-1.1,1.5-1.2,2.6h7.8c-0.1-1.1-0.5-1.9-1.2-2.5C910.2-48.7,909.2-49,908.1-49z"/>
			<path class="st1" d="M923-46.2c0-0.9-0.2-1.5-0.6-2c-0.4-0.5-0.9-0.7-1.7-0.7c-0.8,0-1.4,0.3-1.8,0.8s-0.6,1.2-0.6,2v8.2h-2.3
				v-12.8h2.3v1.2c0.1-0.1,0.2-0.3,0.4-0.4s0.4-0.3,0.6-0.4c0.2-0.1,0.5-0.2,0.8-0.3s0.7-0.1,1.1-0.1c0.7,0,1.4,0.1,1.9,0.4
				s0.9,0.6,1.2,1s0.6,0.9,0.7,1.4c0.1,0.5,0.2,1.1,0.2,1.8v8.5H923V-46.2z"/>
			<path class="st1" d="M930-50.8h2.4v1.9H930v7.3c0,0.6,0.1,1,0.3,1.3c0.2,0.3,0.6,0.4,1.2,0.4h0.9v1.9c-0.1,0-0.3,0-0.5,0.1
				s-0.6,0.1-0.9,0.1c-1.2,0-2-0.3-2.5-0.8s-0.7-1.4-0.7-2.4v-7.8h-1.3v-1.9h1.3v-2h2.3V-50.8z"/>
			<path class="st1" d="M933.3-42.1c0-0.6,0.1-1.2,0.3-1.7c0.2-0.5,0.5-1,0.9-1.3c0.4-0.4,0.8-0.7,1.4-0.9c0.5-0.2,1.1-0.3,1.8-0.3
				c0.7,0,1.2,0.1,1.7,0.3c0.4,0.2,0.8,0.4,1,0.6v-1.1c0-0.8-0.2-1.5-0.6-1.9c-0.4-0.4-0.9-0.7-1.7-0.7c-0.8,0-1.3,0.2-1.6,0.6
				c-0.3,0.4-0.5,0.9-0.5,1.4h-2.1c0-0.6,0.1-1.1,0.3-1.6c0.2-0.5,0.5-0.9,0.8-1.2c0.4-0.3,0.8-0.6,1.3-0.8c0.5-0.2,1.2-0.3,1.9-0.3
				c0.8,0,1.5,0.1,2.1,0.3c0.6,0.2,1,0.5,1.4,0.9c0.4,0.4,0.6,0.9,0.8,1.5c0.2,0.6,0.3,1.2,0.3,1.9v8.3h-2v-1
				c-0.3,0.4-0.7,0.6-1.2,0.9c-0.5,0.2-1.1,0.3-1.7,0.3c-0.6,0-1.2-0.1-1.7-0.3c-0.5-0.2-1-0.5-1.4-0.9c-0.4-0.4-0.7-0.8-0.9-1.4
				C933.4-40.8,933.3-41.4,933.3-42.1z M935.5-42.1c0,0.7,0.2,1.3,0.7,1.7c0.4,0.5,1,0.7,1.7,0.7c0.7,0,1.3-0.2,1.8-0.7
				c0.5-0.5,0.7-1,0.7-1.7c0-0.7-0.2-1.3-0.7-1.7s-1.1-0.7-1.8-0.7c-0.7,0-1.3,0.2-1.7,0.7C935.7-43.3,935.5-42.8,935.5-42.1z"/>
			<path class="st1" d="M947.2-38h-2.3v-17.5h2.3V-38z"/>
		</g>
	</g>
	<g>
		<rect x="689" y="-113.6" class="st8" width="283.7" height="41.9"/>
		<g class="st9">
			<path class="st1" d="M709.1-92c-0.4,0.4-0.8,0.7-1.3,1.1c-0.5,0.4-1.1,0.7-1.7,1c-0.6,0.3-1.3,0.5-2.1,0.7s-1.6,0.3-2.4,0.3
				c-1.8,0-3.4-0.3-4.8-0.9c-1.5-0.6-2.7-1.4-3.7-2.5s-1.8-2.3-2.4-3.7c-0.6-1.5-0.8-3-0.8-4.8c0-1.7,0.3-3.3,0.9-4.8
				s1.4-2.7,2.4-3.8c1-1.1,2.3-1.9,3.7-2.5c1.4-0.6,3-0.9,4.8-0.9c1.5,0,2.9,0.2,4.1,0.7s2.3,1.1,3.3,1.9l-1.9,2.4
				c-0.7-0.6-1.5-1.1-2.4-1.4s-1.9-0.6-3.1-0.6c-1.3,0-2.4,0.2-3.4,0.7c-1,0.4-1.9,1.1-2.6,1.8s-1.3,1.7-1.7,2.8
				c-0.4,1.1-0.6,2.3-0.6,3.5c0,1.3,0.2,2.5,0.6,3.6c0.4,1.1,1,2,1.7,2.8c0.7,0.8,1.6,1.4,2.7,1.8s2.2,0.7,3.4,0.7
				c1.3,0,2.4-0.2,3.3-0.7c0.9-0.5,1.7-1,2.3-1.5L709.1-92z"/>
			<path class="st1" d="M724.4-96.9h-8.6l-2.8,7.5h-3.2l8.6-22.8h3.4l9,22.8h-3.4L724.4-96.9z M716.9-99.7h6.5l-3.3-8.4L716.9-99.7z
				"/>
			<path class="st1" d="M745.6-96c0,1-0.2,2-0.5,2.8c-0.3,0.8-0.8,1.5-1.4,2.1c-0.6,0.6-1.3,1-2.2,1.3c-0.8,0.3-1.8,0.4-2.8,0.4
				h-6.3v-22.8h5.9c2.1,0,3.8,0.5,4.9,1.5s1.7,2.5,1.7,4.5c0,1.1-0.2,2.1-0.7,2.9s-1.1,1.5-1.9,1.9c1,0.4,1.8,1.1,2.4,2
				C745.3-98.6,745.6-97.4,745.6-96z M735.7-109.5v6.9h2.5c1.1,0,2-0.3,2.6-0.9s0.9-1.5,0.9-2.6s-0.3-2-0.9-2.5
				c-0.6-0.6-1.4-0.9-2.6-0.9H735.7z M735.7-99.8v7.5h2.7c1.3,0,2.2-0.4,2.9-1.1c0.6-0.7,1-1.6,1-2.8c0-1.1-0.3-2-1-2.7
				c-0.6-0.7-1.6-1-2.9-1H735.7z"/>
			<path class="st1" d="M748.3-89.4v-22.8h9.9v3h-6.7v6.6h6.5v3h-6.5v7.2h6.8v3H748.3z"/>
			<path class="st1" d="M760.4-89.4v-2.4l13.1-17.4h-12.9v-3h17.3v2.4l-13.2,17.4h13.2v3H760.4z"/>
			<path class="st1" d="M793.6-96.9H785l-2.8,7.5H779l8.6-22.8h3.4l9,22.8h-3.4L793.6-96.9z M786-99.7h6.5l-3.3-8.4L786-99.7z"/>
		</g>
	</g>
	<line class="st10" x1="1301.4" y1="-135.9" x2="689" y2="-137.7"/>
	<g>
		<rect x="689" y="597.9" class="st8" width="538.6" height="474.6"/>
		<g class="st9">
			<path class="st1" d="M700.2,615.5H698l-5.5-13.5v13.5h-2.2v-16.6h3.4l5.5,13.8l5.5-13.8h3.3v16.6h-2.3V602L700.2,615.5z"/>
			<path class="st1" d="M709.9,609.1c0-1,0.2-1.9,0.5-2.7c0.3-0.8,0.8-1.5,1.4-2.1c0.6-0.6,1.3-1.1,2.1-1.4c0.8-0.3,1.7-0.5,2.6-0.5
				c1,0,1.8,0.2,2.7,0.5s1.5,0.8,2.1,1.4c0.6,0.6,1,1.3,1.4,2.1c0.3,0.8,0.5,1.7,0.5,2.7s-0.2,1.8-0.5,2.7c-0.3,0.8-0.8,1.5-1.4,2.1
				c-0.6,0.6-1.3,1-2.1,1.4c-0.8,0.3-1.7,0.5-2.6,0.5c-1,0-1.8-0.2-2.7-0.5c-0.8-0.3-1.5-0.8-2.1-1.4c-0.6-0.6-1-1.3-1.4-2.1
				C710,611,709.9,610.1,709.9,609.1z M712.2,609.1c0,0.7,0.1,1.3,0.3,1.8c0.2,0.6,0.5,1,0.9,1.4c0.4,0.4,0.8,0.7,1.4,1
				c0.5,0.2,1.1,0.3,1.7,0.3c0.6,0,1.2-0.1,1.8-0.3c0.5-0.2,1-0.5,1.4-1c0.4-0.4,0.7-0.9,0.9-1.4c0.2-0.6,0.3-1.2,0.3-1.8
				c0-0.7-0.1-1.3-0.3-1.8c-0.2-0.6-0.5-1-0.9-1.5s-0.8-0.7-1.4-1c-0.5-0.2-1.1-0.3-1.7-0.3c-0.6,0-1.2,0.1-1.8,0.3
				c-0.5,0.2-1,0.5-1.4,1c-0.4,0.4-0.7,0.9-0.9,1.5C712.3,607.8,712.2,608.4,712.2,609.1z"/>
			<path class="st1" d="M727.2,615.5h-2.3v-17.5h2.3V615.5z"/>
			<path class="st1" d="M731.3,609.8c0.1,1.2,0.5,2.2,1.2,2.9c0.7,0.7,1.7,1,2.9,1c1,0,1.8-0.2,2.5-0.7s1.1-1.1,1.5-1.8l1.8,0.9
				c-0.2,0.5-0.5,1-0.8,1.4c-0.3,0.4-0.8,0.8-1.2,1.2c-0.5,0.3-1,0.6-1.6,0.8c-0.6,0.2-1.3,0.3-2.1,0.3c-1,0-1.8-0.2-2.6-0.5
				c-0.8-0.3-1.5-0.8-2.1-1.3s-1-1.3-1.3-2.1c-0.3-0.8-0.5-1.7-0.5-2.7c0-1,0.2-1.9,0.5-2.7c0.3-0.8,0.7-1.5,1.3-2.1
				c0.6-0.6,1.2-1.1,2-1.4c0.8-0.3,1.6-0.5,2.5-0.5c0.9,0,1.8,0.1,2.6,0.4c0.8,0.3,1.4,0.7,2,1.3s1,1.2,1.3,2
				c0.3,0.8,0.5,1.6,0.5,2.6c0,0.1,0,0.3,0,0.5c0,0.2,0,0.4,0,0.6H731.3z M735.1,604.4c-1.1,0-1.9,0.3-2.6,0.9
				c-0.7,0.6-1.1,1.5-1.2,2.6h7.8c-0.1-1.1-0.5-1.9-1.2-2.5C737.2,604.7,736.3,604.4,735.1,604.4z"/>
			<path class="st1" d="M744.9,605.9c0,0.8,0.4,1.3,1.3,1.6c0.3,0.1,0.7,0.2,1,0.3s0.7,0.2,1,0.3c0.9,0.3,1.6,0.8,2.1,1.3
				c0.5,0.6,0.7,1.3,0.7,2.4c0,0.6-0.1,1.2-0.3,1.7c-0.2,0.5-0.5,0.9-0.9,1.2c-0.4,0.3-0.9,0.6-1.4,0.7c-0.5,0.2-1.1,0.2-1.7,0.2
				c-0.8,0-1.5-0.1-2.1-0.3c-0.6-0.2-1-0.5-1.3-0.9c-0.3-0.4-0.6-0.8-0.7-1.3s-0.2-1-0.2-1.6h2.2c0,0.3,0,0.6,0.1,0.9
				c0.1,0.3,0.2,0.5,0.4,0.7s0.4,0.4,0.6,0.5s0.6,0.2,1,0.2c0.6,0,1-0.1,1.5-0.4c0.4-0.3,0.6-0.7,0.6-1.3c0-0.5-0.1-0.9-0.4-1.2
				c-0.3-0.3-0.6-0.5-1.1-0.7c-0.4-0.1-0.7-0.2-1.1-0.3c-0.4-0.1-0.8-0.2-1.2-0.4c-0.8-0.4-1.4-0.8-1.8-1.4c-0.4-0.6-0.5-1.2-0.5-2
				c0-0.5,0.1-1,0.3-1.4c0.2-0.4,0.5-0.8,0.8-1.1c0.4-0.3,0.8-0.5,1.3-0.7c0.5-0.2,1-0.3,1.6-0.3c1.3,0,2.3,0.4,3,1.1
				c0.6,0.7,1,1.7,1,2.8h-2.1c0-0.7-0.2-1.2-0.5-1.5s-0.8-0.6-1.4-0.6c-0.5,0-1,0.1-1.3,0.4S744.9,605.4,744.9,605.9z"/>
			<path class="st1" d="M755.2,602.7h2.4v1.9h-2.4v7.3c0,0.6,0.1,1,0.3,1.3c0.2,0.3,0.6,0.4,1.2,0.4h0.9v1.9c-0.1,0-0.3,0-0.5,0.1
				s-0.6,0.1-0.9,0.1c-1.2,0-2-0.3-2.5-0.8s-0.7-1.4-0.7-2.4v-7.8h-1.3v-1.9h1.3v-2h2.3V602.7z"/>
			<path class="st1" d="M760.3,601.4c-0.4,0-0.8-0.1-1.1-0.4c-0.3-0.3-0.4-0.7-0.4-1.1c0-0.4,0.1-0.8,0.4-1.1
				c0.3-0.3,0.7-0.4,1.1-0.4c0.4,0,0.8,0.1,1.1,0.4c0.3,0.3,0.5,0.6,0.5,1.1c0,0.4-0.2,0.8-0.5,1.1
				C761.1,601.3,760.7,601.4,760.3,601.4z M761.5,615.5h-2.3v-12.8h2.3V615.5z"/>
			<path class="st1" d="M763.3,611.4c0-0.6,0.1-1.2,0.3-1.7c0.2-0.5,0.5-1,0.9-1.3c0.4-0.4,0.8-0.7,1.4-0.9s1.1-0.3,1.8-0.3
				c0.7,0,1.2,0.1,1.7,0.3c0.4,0.2,0.8,0.4,1,0.6v-1.1c0-0.8-0.2-1.5-0.6-1.9c-0.4-0.4-0.9-0.7-1.7-0.7c-0.8,0-1.3,0.2-1.6,0.6
				c-0.3,0.4-0.5,0.9-0.5,1.4h-2.1c0-0.6,0.1-1.1,0.3-1.6c0.2-0.5,0.5-0.9,0.8-1.2c0.4-0.3,0.8-0.6,1.3-0.8c0.5-0.2,1.2-0.3,1.9-0.3
				c0.8,0,1.5,0.1,2.1,0.3c0.6,0.2,1,0.5,1.4,0.9c0.4,0.4,0.6,0.9,0.8,1.5s0.3,1.2,0.3,1.9v8.3h-2v-1c-0.3,0.4-0.7,0.6-1.2,0.9
				c-0.5,0.2-1.1,0.3-1.7,0.3c-0.6,0-1.2-0.1-1.7-0.3c-0.5-0.2-1-0.5-1.4-0.9s-0.7-0.8-0.9-1.4C763.4,612.6,763.3,612,763.3,611.4z
				 M765.5,611.4c0,0.7,0.2,1.3,0.7,1.7c0.4,0.5,1,0.7,1.7,0.7c0.7,0,1.3-0.2,1.8-0.7c0.5-0.5,0.7-1,0.7-1.7c0-0.7-0.2-1.3-0.7-1.7
				s-1.1-0.7-1.8-0.7s-1.3,0.2-1.7,0.7C765.7,610.1,765.5,610.7,765.5,611.4z"/>
			<path class="st1" d="M776.6,605.9c0,0.8,0.4,1.3,1.3,1.6c0.3,0.1,0.7,0.2,1,0.3s0.7,0.2,1,0.3c0.9,0.3,1.6,0.8,2.1,1.3
				c0.5,0.6,0.7,1.3,0.7,2.4c0,0.6-0.1,1.2-0.3,1.7c-0.2,0.5-0.5,0.9-0.9,1.2c-0.4,0.3-0.9,0.6-1.4,0.7c-0.5,0.2-1.1,0.2-1.7,0.2
				c-0.8,0-1.5-0.1-2.1-0.3c-0.6-0.2-1-0.5-1.3-0.9c-0.3-0.4-0.6-0.8-0.7-1.3s-0.2-1-0.2-1.6h2.2c0,0.3,0,0.6,0.1,0.9
				c0.1,0.3,0.2,0.5,0.4,0.7s0.4,0.4,0.6,0.5s0.6,0.2,1,0.2c0.6,0,1-0.1,1.5-0.4c0.4-0.3,0.6-0.7,0.6-1.3c0-0.5-0.1-0.9-0.4-1.2
				c-0.3-0.3-0.6-0.5-1.1-0.7c-0.4-0.1-0.7-0.2-1.1-0.3c-0.4-0.1-0.8-0.2-1.2-0.4c-0.8-0.4-1.4-0.8-1.8-1.4c-0.4-0.6-0.5-1.2-0.5-2
				c0-0.5,0.1-1,0.3-1.4c0.2-0.4,0.5-0.8,0.8-1.1c0.4-0.3,0.8-0.5,1.3-0.7c0.5-0.2,1-0.3,1.6-0.3c1.3,0,2.3,0.4,3,1.1
				c0.6,0.7,1,1.7,1,2.8h-2.1c0-0.7-0.2-1.2-0.5-1.5s-0.8-0.6-1.4-0.6c-0.5,0-1,0.1-1.3,0.4S776.6,605.4,776.6,605.9z"/>
			<path class="st1" d="M784.9,615.6c-0.4-0.1-0.7-0.3-0.9-0.6s-0.3-0.6-0.3-1c0-0.5,0.1-0.8,0.4-1.1c0.3-0.3,0.7-0.4,1.2-0.4
				c0.5,0,0.8,0.2,1.1,0.5c0.3,0.3,0.4,0.7,0.4,1.2c0,0.3,0,0.5-0.1,0.8c-0.1,0.2-0.2,0.5-0.3,0.8l-1.1,2.4h-1.7L784.9,615.6z"/>
			<path class="st1" d="M794.1,609.8c0.1,1.2,0.5,2.2,1.2,2.9c0.7,0.7,1.7,1,2.9,1c1,0,1.8-0.2,2.5-0.7s1.1-1.1,1.5-1.8l1.8,0.9
				c-0.2,0.5-0.5,1-0.8,1.4c-0.3,0.4-0.8,0.8-1.2,1.2c-0.5,0.3-1,0.6-1.6,0.8c-0.6,0.2-1.3,0.3-2.1,0.3c-1,0-1.8-0.2-2.6-0.5
				c-0.8-0.3-1.5-0.8-2.1-1.3s-1-1.3-1.3-2.1c-0.3-0.8-0.5-1.7-0.5-2.7c0-1,0.2-1.9,0.5-2.7c0.3-0.8,0.7-1.5,1.3-2.1
				c0.6-0.6,1.2-1.1,2-1.4c0.8-0.3,1.6-0.5,2.5-0.5c0.9,0,1.8,0.1,2.6,0.4c0.8,0.3,1.4,0.7,2,1.3s1,1.2,1.3,2
				c0.3,0.8,0.5,1.6,0.5,2.6c0,0.1,0,0.3,0,0.5c0,0.2,0,0.4,0,0.6H794.1z M798,604.4c-1.1,0-1.9,0.3-2.6,0.9
				c-0.7,0.6-1.1,1.5-1.2,2.6h7.8c-0.1-1.1-0.5-1.9-1.2-2.5C800.1,604.7,799.2,604.4,798,604.4z"/>
			<path class="st1" d="M807.8,605.9c0,0.8,0.4,1.3,1.3,1.6c0.3,0.1,0.7,0.2,1,0.3s0.7,0.2,1,0.3c0.9,0.3,1.6,0.8,2.1,1.3
				c0.5,0.6,0.7,1.3,0.7,2.4c0,0.6-0.1,1.2-0.3,1.7c-0.2,0.5-0.5,0.9-0.9,1.2c-0.4,0.3-0.9,0.6-1.4,0.7c-0.5,0.2-1.1,0.2-1.7,0.2
				c-0.8,0-1.5-0.1-2.1-0.3c-0.6-0.2-1-0.5-1.3-0.9c-0.3-0.4-0.6-0.8-0.7-1.3s-0.2-1-0.2-1.6h2.2c0,0.3,0,0.6,0.1,0.9
				c0.1,0.3,0.2,0.5,0.4,0.7s0.4,0.4,0.6,0.5s0.6,0.2,1,0.2c0.6,0,1-0.1,1.5-0.4c0.4-0.3,0.6-0.7,0.6-1.3c0-0.5-0.1-0.9-0.4-1.2
				c-0.3-0.3-0.6-0.5-1.1-0.7c-0.4-0.1-0.7-0.2-1.1-0.3c-0.4-0.1-0.8-0.2-1.2-0.4c-0.8-0.4-1.4-0.8-1.8-1.4c-0.4-0.6-0.5-1.2-0.5-2
				c0-0.5,0.1-1,0.3-1.4c0.2-0.4,0.5-0.8,0.8-1.1c0.4-0.3,0.8-0.5,1.3-0.7c0.5-0.2,1-0.3,1.6-0.3c1.3,0,2.3,0.4,3,1.1
				c0.6,0.7,1,1.7,1,2.8h-2.1c0-0.7-0.2-1.2-0.5-1.5s-0.8-0.6-1.4-0.6c-0.5,0-1,0.1-1.3,0.4S807.8,605.4,807.8,605.9z"/>
			<path class="st1" d="M818.1,602.7h2.4v1.9h-2.4v7.3c0,0.6,0.1,1,0.3,1.3c0.2,0.3,0.6,0.4,1.2,0.4h0.9v1.9c-0.1,0-0.3,0-0.5,0.1
				s-0.6,0.1-0.9,0.1c-1.2,0-2-0.3-2.5-0.8s-0.7-1.4-0.7-2.4v-7.8h-1.3v-1.9h1.3v-2h2.3V602.7z"/>
			<path class="st1" d="M827.2,605h-0.6c-0.8,0-1.4,0.2-1.7,0.6c-0.4,0.4-0.5,1-0.5,1.8v8.1h-2.3v-12.8h2.3v1.2
				c0.2-0.4,0.6-0.7,1-0.9s1.1-0.4,1.8-0.3V605z"/>
			<path class="st1" d="M829.9,609.8c0.1,1.2,0.5,2.2,1.2,2.9c0.7,0.7,1.7,1,2.9,1c1,0,1.8-0.2,2.5-0.7s1.1-1.1,1.5-1.8l1.8,0.9
				c-0.2,0.5-0.5,1-0.8,1.4c-0.3,0.4-0.8,0.8-1.2,1.2c-0.5,0.3-1,0.6-1.6,0.8c-0.6,0.2-1.3,0.3-2.1,0.3c-1,0-1.8-0.2-2.6-0.5
				c-0.8-0.3-1.5-0.8-2.1-1.3s-1-1.3-1.3-2.1c-0.3-0.8-0.5-1.7-0.5-2.7c0-1,0.2-1.9,0.5-2.7c0.3-0.8,0.7-1.5,1.3-2.1
				c0.6-0.6,1.2-1.1,2-1.4c0.8-0.3,1.6-0.5,2.5-0.5c0.9,0,1.8,0.1,2.6,0.4c0.8,0.3,1.4,0.7,2,1.3s1,1.2,1.3,2s0.5,1.6,0.5,2.6
				c0,0.1,0,0.3,0,0.5c0,0.2,0,0.4,0,0.6H829.9z M833.8,604.4c-1.1,0-1.9,0.3-2.6,0.9c-0.7,0.6-1.1,1.5-1.2,2.6h7.8
				c-0.1-1.1-0.5-1.9-1.2-2.5C835.8,604.7,834.9,604.4,833.8,604.4z M836.8,598.4l-1.9,3.2h-2.2l1.9-3.2H836.8z"/>
			<path class="st1" d="M843.5,605.9c0,0.8,0.4,1.3,1.3,1.6c0.3,0.1,0.7,0.2,1,0.3s0.7,0.2,1,0.3c0.9,0.3,1.6,0.8,2.1,1.3
				c0.5,0.6,0.7,1.3,0.7,2.4c0,0.6-0.1,1.2-0.3,1.7c-0.2,0.5-0.5,0.9-0.9,1.2c-0.4,0.3-0.9,0.6-1.4,0.7c-0.5,0.2-1.1,0.2-1.7,0.2
				c-0.8,0-1.5-0.1-2.1-0.3c-0.6-0.2-1-0.5-1.3-0.9c-0.3-0.4-0.6-0.8-0.7-1.3c-0.1-0.5-0.2-1-0.2-1.6h2.2c0,0.3,0,0.6,0.1,0.9
				c0.1,0.3,0.2,0.5,0.4,0.7s0.4,0.4,0.6,0.5c0.3,0.1,0.6,0.2,1,0.2c0.6,0,1-0.1,1.5-0.4c0.4-0.3,0.6-0.7,0.6-1.3
				c0-0.5-0.1-0.9-0.4-1.2c-0.3-0.3-0.6-0.5-1.1-0.7c-0.4-0.1-0.7-0.2-1.1-0.3c-0.4-0.1-0.8-0.2-1.2-0.4c-0.8-0.4-1.4-0.8-1.8-1.4
				c-0.4-0.6-0.5-1.2-0.5-2c0-0.5,0.1-1,0.3-1.4c0.2-0.4,0.5-0.8,0.8-1.1c0.4-0.3,0.8-0.5,1.3-0.7c0.5-0.2,1-0.3,1.6-0.3
				c1.3,0,2.3,0.4,3,1.1c0.6,0.7,1,1.7,1,2.8h-2.1c0-0.7-0.2-1.2-0.5-1.5c-0.3-0.4-0.8-0.6-1.4-0.6c-0.5,0-1,0.1-1.3,0.4
				C843.7,605,843.5,605.4,843.5,605.9z"/>
		</g>
		<g class="st9">
			<path class="st1" d="M699.4,639.4c0,0.7-0.1,1.4-0.4,2c-0.2,0.6-0.6,1.1-1,1.5s-0.9,0.7-1.5,0.9c-0.6,0.2-1.3,0.3-2,0.3h-1.9v7.5
				h-2.4v-16.6h4.3c1.6,0,2.8,0.4,3.6,1.1S699.4,637.9,699.4,639.4z M692.6,636.9v5.1h1.8c0.8,0,1.5-0.2,1.9-0.7
				c0.4-0.5,0.6-1.1,0.6-1.9c0-0.8-0.2-1.4-0.6-1.8c-0.4-0.4-1.1-0.7-1.9-0.7H692.6z"/>
			<path class="st1" d="M702.1,645.8c0.1,1.2,0.5,2.2,1.2,2.9c0.7,0.7,1.7,1,2.9,1c1,0,1.8-0.2,2.5-0.7s1.1-1.1,1.5-1.8l1.8,0.9
				c-0.2,0.5-0.5,1-0.8,1.4c-0.3,0.4-0.8,0.8-1.2,1.2c-0.5,0.3-1,0.6-1.6,0.8c-0.6,0.2-1.3,0.3-2.1,0.3c-1,0-1.8-0.2-2.6-0.5
				c-0.8-0.3-1.5-0.8-2.1-1.3s-1-1.3-1.3-2.1c-0.3-0.8-0.5-1.7-0.5-2.7c0-1,0.2-1.9,0.5-2.7c0.3-0.8,0.7-1.5,1.3-2.1
				c0.6-0.6,1.2-1.1,2-1.4c0.8-0.3,1.6-0.5,2.5-0.5c0.9,0,1.8,0.1,2.6,0.4c0.8,0.3,1.4,0.7,2,1.3s1,1.2,1.3,2
				c0.3,0.8,0.5,1.6,0.5,2.6c0,0.1,0,0.3,0,0.5c0,0.2,0,0.4,0,0.6H702.1z M706,640.4c-1.1,0-1.9,0.3-2.6,0.9
				c-0.7,0.6-1.1,1.5-1.2,2.6h7.8c-0.1-1.1-0.5-1.9-1.2-2.5C708,640.7,707.1,640.4,706,640.4z"/>
			<path class="st1" d="M713.5,645.1c0-1,0.2-1.9,0.5-2.7c0.3-0.8,0.8-1.5,1.4-2.1c0.6-0.6,1.3-1.1,2.1-1.4c0.8-0.3,1.7-0.5,2.6-0.5
				c1,0,1.8,0.2,2.7,0.5s1.5,0.8,2.1,1.4c0.6,0.6,1,1.3,1.4,2.1c0.3,0.8,0.5,1.7,0.5,2.7s-0.2,1.8-0.5,2.7c-0.3,0.8-0.8,1.5-1.4,2.1
				c-0.6,0.6-1.3,1-2.1,1.4c-0.8,0.3-1.7,0.5-2.6,0.5c-1,0-1.8-0.2-2.7-0.5c-0.8-0.3-1.5-0.8-2.1-1.4c-0.6-0.6-1-1.3-1.4-2.1
				C713.6,647,713.5,646.1,713.5,645.1z M715.8,645.1c0,0.7,0.1,1.3,0.3,1.8c0.2,0.6,0.5,1,0.9,1.4c0.4,0.4,0.8,0.7,1.4,1
				c0.5,0.2,1.1,0.3,1.7,0.3c0.6,0,1.2-0.1,1.8-0.3c0.5-0.2,1-0.5,1.4-1c0.4-0.4,0.7-0.9,0.9-1.4c0.2-0.6,0.3-1.2,0.3-1.8
				c0-0.7-0.1-1.3-0.3-1.8c-0.2-0.6-0.5-1-0.9-1.5s-0.8-0.7-1.4-1c-0.5-0.2-1.1-0.3-1.7-0.3c-0.6,0-1.2,0.1-1.8,0.3
				c-0.5,0.2-1,0.5-1.4,1c-0.4,0.4-0.7,0.9-0.9,1.5C715.9,643.8,715.8,644.4,715.8,645.1z"/>
			<path class="st1" d="M733.6,641H733c-0.8,0-1.4,0.2-1.7,0.6c-0.4,0.4-0.5,1-0.5,1.8v8.1h-2.3v-12.8h2.3v1.2
				c0.2-0.4,0.6-0.7,1-0.9s1.1-0.4,1.8-0.3V641z"/>
			<path class="st1" d="M740.7,645.8c0.1,1.2,0.5,2.2,1.2,2.9c0.7,0.7,1.7,1,2.9,1c1,0,1.8-0.2,2.5-0.7s1.1-1.1,1.5-1.8l1.8,0.9
				c-0.2,0.5-0.5,1-0.8,1.4c-0.3,0.4-0.8,0.8-1.2,1.2c-0.5,0.3-1,0.6-1.6,0.8c-0.6,0.2-1.3,0.3-2.1,0.3c-1,0-1.8-0.2-2.6-0.5
				c-0.8-0.3-1.5-0.8-2.1-1.3s-1-1.3-1.3-2.1c-0.3-0.8-0.5-1.7-0.5-2.7c0-1,0.2-1.9,0.5-2.7c0.3-0.8,0.7-1.5,1.3-2.1
				c0.6-0.6,1.2-1.1,2-1.4c0.8-0.3,1.6-0.5,2.5-0.5c0.9,0,1.8,0.1,2.6,0.4c0.8,0.3,1.4,0.7,2,1.3s1,1.2,1.3,2
				c0.3,0.8,0.5,1.6,0.5,2.6c0,0.1,0,0.3,0,0.5c0,0.2,0,0.4,0,0.6H740.7z M744.6,640.4c-1.1,0-1.9,0.3-2.6,0.9
				c-0.7,0.6-1.1,1.5-1.2,2.6h7.8c-0.1-1.1-0.5-1.9-1.2-2.5C746.6,640.7,745.7,640.4,744.6,640.4z"/>
			<path class="st1" d="M754.3,641.9c0,0.8,0.4,1.3,1.3,1.6c0.3,0.1,0.7,0.2,1,0.3s0.7,0.2,1,0.3c0.9,0.3,1.6,0.8,2.1,1.3
				c0.5,0.6,0.7,1.3,0.7,2.4c0,0.6-0.1,1.2-0.3,1.7c-0.2,0.5-0.5,0.9-0.9,1.2c-0.4,0.3-0.9,0.6-1.4,0.7c-0.5,0.2-1.1,0.2-1.7,0.2
				c-0.8,0-1.5-0.1-2.1-0.3c-0.6-0.2-1-0.5-1.3-0.9c-0.3-0.4-0.6-0.8-0.7-1.3s-0.2-1-0.2-1.6h2.2c0,0.3,0,0.6,0.1,0.9
				c0.1,0.3,0.2,0.5,0.4,0.7s0.4,0.4,0.6,0.5s0.6,0.2,1,0.2c0.6,0,1-0.1,1.5-0.4c0.4-0.3,0.6-0.7,0.6-1.3c0-0.5-0.1-0.9-0.4-1.2
				c-0.3-0.3-0.6-0.5-1.1-0.7c-0.4-0.1-0.7-0.2-1.1-0.3c-0.4-0.1-0.8-0.2-1.2-0.4c-0.8-0.4-1.4-0.8-1.8-1.4c-0.4-0.6-0.5-1.2-0.5-2
				c0-0.5,0.1-1,0.3-1.4c0.2-0.4,0.5-0.8,0.8-1.1c0.4-0.3,0.8-0.5,1.3-0.7c0.5-0.2,1-0.3,1.6-0.3c1.3,0,2.3,0.4,3,1.1
				c0.6,0.7,1,1.7,1,2.8H758c0-0.7-0.2-1.2-0.5-1.5s-0.8-0.6-1.4-0.6c-0.5,0-1,0.1-1.3,0.4S754.3,641.4,754.3,641.9z"/>
			<path class="st1" d="M764.6,638.7h2.4v1.9h-2.4v7.3c0,0.6,0.1,1,0.3,1.3c0.2,0.3,0.6,0.4,1.2,0.4h0.9v1.9c-0.1,0-0.3,0-0.5,0.1
				s-0.6,0.1-0.9,0.1c-1.2,0-2-0.3-2.5-0.8s-0.7-1.4-0.7-2.4v-7.8H761v-1.9h1.3v-2h2.3V638.7z"/>
			<path class="st1" d="M767.9,647.4c0-0.6,0.1-1.2,0.3-1.7c0.2-0.5,0.5-1,0.9-1.3c0.4-0.4,0.8-0.7,1.4-0.9s1.1-0.3,1.8-0.3
				c0.7,0,1.2,0.1,1.7,0.3c0.4,0.2,0.8,0.4,1,0.6v-1.1c0-0.8-0.2-1.5-0.6-1.9c-0.4-0.4-0.9-0.7-1.7-0.7c-0.8,0-1.3,0.2-1.6,0.6
				c-0.3,0.4-0.5,0.9-0.5,1.4h-2.1c0-0.6,0.1-1.1,0.3-1.6c0.2-0.5,0.5-0.9,0.8-1.2c0.4-0.3,0.8-0.6,1.3-0.8c0.5-0.2,1.2-0.3,1.9-0.3
				c0.8,0,1.5,0.1,2.1,0.3c0.6,0.2,1,0.5,1.4,0.9c0.4,0.4,0.6,0.9,0.8,1.5s0.3,1.2,0.3,1.9v8.3h-2v-1c-0.3,0.4-0.7,0.6-1.2,0.9
				c-0.5,0.2-1.1,0.3-1.7,0.3c-0.6,0-1.2-0.1-1.7-0.3c-0.5-0.2-1-0.5-1.4-0.9s-0.7-0.8-0.9-1.4C768,648.6,767.9,648,767.9,647.4z
				 M770.1,647.4c0,0.7,0.2,1.3,0.7,1.7c0.4,0.5,1,0.7,1.7,0.7c0.7,0,1.3-0.2,1.8-0.7c0.5-0.5,0.7-1,0.7-1.7c0-0.7-0.2-1.3-0.7-1.7
				s-1.1-0.7-1.8-0.7s-1.3,0.2-1.7,0.7C770.4,646.1,770.1,646.7,770.1,647.4z"/>
			<path class="st1" d="M789.9,649.6c-0.2,0.2-0.4,0.5-0.7,0.7c-0.3,0.3-0.6,0.5-1,0.7c-0.4,0.2-0.8,0.4-1.3,0.5s-1,0.2-1.5,0.2
				c-1,0-1.8-0.2-2.7-0.5c-0.8-0.3-1.5-0.8-2.1-1.4s-1-1.3-1.3-2.1c-0.3-0.8-0.5-1.7-0.5-2.7c0-0.9,0.2-1.8,0.5-2.6
				c0.3-0.8,0.8-1.5,1.3-2.1c0.6-0.6,1.3-1.1,2.1-1.4s1.7-0.5,2.6-0.5c1,0,1.9,0.2,2.6,0.6c0.7,0.4,1.3,0.8,1.7,1.3v-6.3h2.3v17.5
				h-2.2V649.6z M781.2,645.1c0,0.7,0.1,1.3,0.3,1.8c0.2,0.6,0.5,1,0.9,1.5c0.4,0.4,0.8,0.7,1.4,0.9c0.5,0.2,1.1,0.3,1.7,0.3
				c0.6,0,1.2-0.1,1.8-0.3c0.5-0.2,1-0.5,1.4-0.9c0.4-0.4,0.7-0.9,0.9-1.5c0.2-0.6,0.3-1.2,0.3-1.8c0-0.7-0.1-1.3-0.3-1.8
				c-0.2-0.6-0.5-1-0.9-1.5c-0.4-0.4-0.8-0.7-1.4-1c-0.5-0.2-1.1-0.3-1.8-0.3c-0.6,0-1.2,0.1-1.8,0.3c-0.5,0.2-1,0.6-1.4,1
				c-0.4,0.4-0.7,0.9-0.9,1.5C781.3,643.8,781.2,644.4,781.2,645.1z"/>
			<path class="st1" d="M793.8,645.1c0-1,0.2-1.9,0.5-2.7c0.3-0.8,0.8-1.5,1.4-2.1c0.6-0.6,1.3-1.1,2.1-1.4c0.8-0.3,1.7-0.5,2.6-0.5
				c1,0,1.8,0.2,2.7,0.5s1.5,0.8,2.1,1.4c0.6,0.6,1,1.3,1.4,2.1c0.3,0.8,0.5,1.7,0.5,2.7s-0.2,1.8-0.5,2.7c-0.3,0.8-0.8,1.5-1.4,2.1
				c-0.6,0.6-1.3,1-2.1,1.4c-0.8,0.3-1.7,0.5-2.6,0.5c-1,0-1.8-0.2-2.7-0.5c-0.8-0.3-1.5-0.8-2.1-1.4c-0.6-0.6-1-1.3-1.4-2.1
				C794,647,793.8,646.1,793.8,645.1z M796.1,645.1c0,0.7,0.1,1.3,0.3,1.8c0.2,0.6,0.5,1,0.9,1.4c0.4,0.4,0.8,0.7,1.4,1
				c0.5,0.2,1.1,0.3,1.7,0.3c0.6,0,1.2-0.1,1.8-0.3c0.5-0.2,1-0.5,1.4-1c0.4-0.4,0.7-0.9,0.9-1.4c0.2-0.6,0.3-1.2,0.3-1.8
				c0-0.7-0.1-1.3-0.3-1.8c-0.2-0.6-0.5-1-0.9-1.5s-0.8-0.7-1.4-1c-0.5-0.2-1.1-0.3-1.7-0.3c-0.6,0-1.2,0.1-1.8,0.3
				c-0.5,0.2-1,0.5-1.4,1c-0.4,0.4-0.7,0.9-0.9,1.5C796.2,643.8,796.1,644.4,796.1,645.1z"/>
			<path class="st1" d="M822.9,649.6c-0.2,0.2-0.4,0.5-0.7,0.7c-0.3,0.3-0.6,0.5-1,0.7c-0.4,0.2-0.8,0.4-1.3,0.5s-1,0.2-1.5,0.2
				c-1,0-1.8-0.2-2.7-0.5c-0.8-0.3-1.5-0.8-2.1-1.4s-1-1.3-1.3-2.1c-0.3-0.8-0.5-1.7-0.5-2.7c0-0.9,0.2-1.8,0.5-2.6
				c0.3-0.8,0.8-1.5,1.3-2.1c0.6-0.6,1.3-1.1,2.1-1.4s1.7-0.5,2.6-0.5c1,0,1.9,0.2,2.6,0.6c0.7,0.4,1.3,0.8,1.7,1.3v-6.3h2.3v17.5
				h-2.2V649.6z M814.2,645.1c0,0.7,0.1,1.3,0.3,1.8c0.2,0.6,0.5,1,0.9,1.5c0.4,0.4,0.8,0.7,1.4,0.9c0.5,0.2,1.1,0.3,1.7,0.3
				c0.6,0,1.2-0.1,1.8-0.3c0.5-0.2,1-0.5,1.4-0.9c0.4-0.4,0.7-0.9,0.9-1.5c0.2-0.6,0.3-1.2,0.3-1.8c0-0.7-0.1-1.3-0.3-1.8
				c-0.2-0.6-0.5-1-0.9-1.5c-0.4-0.4-0.8-0.7-1.4-1c-0.5-0.2-1.1-0.3-1.8-0.3c-0.6,0-1.2,0.1-1.8,0.3c-0.5,0.2-1,0.6-1.4,1
				c-0.4,0.4-0.7,0.9-0.9,1.5C814.3,643.8,814.2,644.4,814.2,645.1z"/>
			<path class="st1" d="M829.2,645.8c0.1,1.2,0.5,2.2,1.2,2.9c0.7,0.7,1.7,1,2.9,1c1,0,1.8-0.2,2.5-0.7s1.1-1.1,1.5-1.8l1.8,0.9
				c-0.2,0.5-0.5,1-0.8,1.4c-0.3,0.4-0.8,0.8-1.2,1.2c-0.5,0.3-1,0.6-1.6,0.8c-0.6,0.2-1.3,0.3-2.1,0.3c-1,0-1.8-0.2-2.6-0.5
				c-0.8-0.3-1.5-0.8-2.1-1.3s-1-1.3-1.3-2.1c-0.3-0.8-0.5-1.7-0.5-2.7c0-1,0.2-1.9,0.5-2.7c0.3-0.8,0.7-1.5,1.3-2.1
				c0.6-0.6,1.2-1.1,2-1.4c0.8-0.3,1.6-0.5,2.5-0.5c0.9,0,1.8,0.1,2.6,0.4c0.8,0.3,1.4,0.7,2,1.3s1,1.2,1.3,2
				c0.3,0.8,0.5,1.6,0.5,2.6c0,0.1,0,0.3,0,0.5c0,0.2,0,0.4,0,0.6H829.2z M833.1,640.4c-1.1,0-1.9,0.3-2.6,0.9
				c-0.7,0.6-1.1,1.5-1.2,2.6h7.8c-0.1-1.1-0.5-1.9-1.2-2.5C835.1,640.7,834.2,640.4,833.1,640.4z"/>
			<path class="st1" d="M846.5,641.9c0,0.8,0.4,1.3,1.3,1.6c0.3,0.1,0.7,0.2,1,0.3s0.7,0.2,1,0.3c0.9,0.3,1.6,0.8,2.1,1.3
				c0.5,0.6,0.7,1.3,0.7,2.4c0,0.6-0.1,1.2-0.3,1.7c-0.2,0.5-0.5,0.9-0.9,1.2c-0.4,0.3-0.9,0.6-1.4,0.7c-0.5,0.2-1.1,0.2-1.7,0.2
				c-0.8,0-1.5-0.1-2.1-0.3c-0.6-0.2-1-0.5-1.3-0.9c-0.3-0.4-0.6-0.8-0.7-1.3c-0.1-0.5-0.2-1-0.2-1.6h2.2c0,0.3,0,0.6,0.1,0.9
				c0.1,0.3,0.2,0.5,0.4,0.7s0.4,0.4,0.6,0.5c0.3,0.1,0.6,0.2,1,0.2c0.6,0,1-0.1,1.5-0.4c0.4-0.3,0.6-0.7,0.6-1.3
				c0-0.5-0.1-0.9-0.4-1.2c-0.3-0.3-0.6-0.5-1.1-0.7c-0.4-0.1-0.7-0.2-1.1-0.3c-0.4-0.1-0.8-0.2-1.2-0.4c-0.8-0.4-1.4-0.8-1.8-1.4
				c-0.4-0.6-0.5-1.2-0.5-2c0-0.5,0.1-1,0.3-1.4c0.2-0.4,0.5-0.8,0.8-1.1c0.4-0.3,0.8-0.5,1.3-0.7c0.5-0.2,1-0.3,1.6-0.3
				c1.3,0,2.3,0.4,3,1.1c0.6,0.7,1,1.7,1,2.8h-2.1c0-0.7-0.2-1.2-0.5-1.5c-0.3-0.4-0.8-0.6-1.4-0.6c-0.5,0-1,0.1-1.3,0.4
				C846.7,641,846.5,641.4,846.5,641.9z"/>
			<path class="st1" d="M853.8,647.4c0-0.6,0.1-1.2,0.3-1.7c0.2-0.5,0.5-1,0.9-1.3c0.4-0.4,0.8-0.7,1.4-0.9c0.5-0.2,1.1-0.3,1.8-0.3
				c0.7,0,1.2,0.1,1.7,0.3c0.4,0.2,0.8,0.4,1,0.6v-1.1c0-0.8-0.2-1.5-0.6-1.9c-0.4-0.4-0.9-0.7-1.7-0.7c-0.8,0-1.3,0.2-1.6,0.6
				c-0.3,0.4-0.5,0.9-0.5,1.4h-2.1c0-0.6,0.1-1.1,0.3-1.6c0.2-0.5,0.5-0.9,0.8-1.2c0.4-0.3,0.8-0.6,1.3-0.8c0.5-0.2,1.2-0.3,1.9-0.3
				c0.8,0,1.5,0.1,2.1,0.3c0.6,0.2,1,0.5,1.4,0.9c0.4,0.4,0.6,0.9,0.8,1.5c0.2,0.6,0.3,1.2,0.3,1.9v8.3h-2v-1
				c-0.3,0.4-0.7,0.6-1.2,0.9c-0.5,0.2-1.1,0.3-1.7,0.3c-0.6,0-1.2-0.1-1.7-0.3c-0.5-0.2-1-0.5-1.4-0.9c-0.4-0.4-0.7-0.8-0.9-1.4
				C854,648.6,853.8,648,853.8,647.4z M856.1,647.4c0,0.7,0.2,1.3,0.7,1.7c0.4,0.5,1,0.7,1.7,0.7c0.7,0,1.3-0.2,1.8-0.7
				c0.5-0.5,0.7-1,0.7-1.7c0-0.7-0.2-1.3-0.7-1.7s-1.1-0.7-1.8-0.7c-0.7,0-1.3,0.2-1.7,0.7C856.3,646.1,856.1,646.7,856.1,647.4z"/>
			<path class="st1" d="M867.7,651.5h-2.3v-17.5h2.3V651.5z"/>
			<path class="st1" d="M872.3,646.9c0,0.9,0.2,1.5,0.5,2c0.4,0.5,0.9,0.7,1.7,0.7s1.3-0.3,1.7-0.8c0.4-0.5,0.6-1.2,0.6-2v-8.2h2.3
				v12.8h-2.3v-1.2c-0.2,0.3-0.5,0.6-1,0.9s-1.1,0.4-1.9,0.4c-0.7,0-1.3-0.1-1.8-0.3s-0.9-0.6-1.2-1c-0.3-0.4-0.6-0.9-0.7-1.4
				c-0.1-0.5-0.2-1.1-0.2-1.8v-8.5h2.3V646.9z"/>
			<path class="st1" d="M891.8,649.6c-0.2,0.2-0.4,0.5-0.7,0.7c-0.3,0.3-0.6,0.5-1,0.7s-0.8,0.4-1.3,0.5c-0.5,0.1-1,0.2-1.5,0.2
				c-1,0-1.8-0.2-2.7-0.5c-0.8-0.3-1.5-0.8-2.1-1.4s-1-1.3-1.3-2.1c-0.3-0.8-0.5-1.7-0.5-2.7c0-0.9,0.2-1.8,0.5-2.6
				c0.3-0.8,0.8-1.5,1.3-2.1c0.6-0.6,1.3-1.1,2.1-1.4s1.7-0.5,2.6-0.5c1,0,1.9,0.2,2.6,0.6c0.7,0.4,1.3,0.8,1.7,1.3v-6.3h2.3v17.5
				h-2.2V649.6z M883.2,645.1c0,0.7,0.1,1.3,0.3,1.8c0.2,0.6,0.5,1,0.9,1.5c0.4,0.4,0.8,0.7,1.4,0.9c0.5,0.2,1.1,0.3,1.7,0.3
				c0.6,0,1.2-0.1,1.8-0.3c0.5-0.2,1-0.5,1.4-0.9c0.4-0.4,0.7-0.9,0.9-1.5c0.2-0.6,0.3-1.2,0.3-1.8c0-0.7-0.1-1.3-0.3-1.8
				c-0.2-0.6-0.5-1-0.9-1.5s-0.8-0.7-1.4-1c-0.5-0.2-1.1-0.3-1.8-0.3c-0.6,0-1.2,0.1-1.8,0.3c-0.5,0.2-1,0.6-1.4,1s-0.7,0.9-0.9,1.5
				C883.3,643.8,883.2,644.4,883.2,645.1z"/>
			<path class="st1" d="M910.4,638.7h2.2v10.7c0,1.2-0.2,2.2-0.5,3.1c-0.3,0.8-0.8,1.5-1.4,2c-0.6,0.5-1.3,0.9-2.1,1.1
				c-0.8,0.2-1.7,0.3-2.6,0.3c-1.1,0-2.1-0.1-3-0.4c-0.9-0.3-1.6-0.6-2.1-0.9l0.9-1.8c0.4,0.3,1,0.5,1.7,0.8
				c0.7,0.3,1.5,0.4,2.5,0.4c0.6,0,1.2-0.1,1.7-0.2s1-0.4,1.4-0.7c0.4-0.3,0.7-0.7,1-1.2c0.2-0.5,0.3-1.1,0.3-1.7v-0.4
				c-0.1,0.2-0.3,0.5-0.6,0.7c-0.2,0.2-0.6,0.5-0.9,0.7s-0.8,0.4-1.2,0.5s-1,0.2-1.6,0.2c-1,0-1.8-0.2-2.7-0.5
				c-0.8-0.3-1.5-0.8-2.1-1.3s-1-1.3-1.4-2.1c-0.3-0.8-0.5-1.7-0.5-2.7c0-0.9,0.2-1.8,0.5-2.6c0.3-0.8,0.8-1.5,1.4-2.1
				c0.6-0.6,1.3-1.1,2.1-1.4c0.8-0.3,1.7-0.5,2.6-0.5c1,0,1.9,0.2,2.6,0.6s1.4,0.8,1.8,1.4V638.7z M901.8,645.1
				c0,0.7,0.1,1.3,0.3,1.8c0.2,0.6,0.5,1,0.9,1.5c0.4,0.4,0.8,0.7,1.4,0.9c0.5,0.2,1.1,0.3,1.7,0.3c0.6,0,1.2-0.1,1.8-0.3
				c0.5-0.2,1-0.5,1.4-0.9c0.4-0.4,0.7-0.9,0.9-1.5c0.2-0.6,0.3-1.2,0.3-1.8c0-0.7-0.1-1.3-0.3-1.8c-0.2-0.6-0.5-1-0.9-1.5
				s-0.8-0.7-1.4-1c-0.5-0.2-1.1-0.3-1.8-0.3c-0.6,0-1.2,0.1-1.8,0.3c-0.5,0.2-1,0.6-1.4,1s-0.7,0.9-0.9,1.5
				C901.9,643.8,901.8,644.4,901.8,645.1z"/>
			<path class="st1" d="M916.7,645.8c0.1,1.2,0.5,2.2,1.2,2.9c0.7,0.7,1.7,1,2.9,1c1,0,1.8-0.2,2.5-0.7s1.1-1.1,1.5-1.8l1.8,0.9
				c-0.2,0.5-0.5,1-0.8,1.4c-0.3,0.4-0.8,0.8-1.2,1.2c-0.5,0.3-1,0.6-1.6,0.8s-1.3,0.3-2.1,0.3c-1,0-1.8-0.2-2.6-0.5
				c-0.8-0.3-1.5-0.8-2.1-1.3s-1-1.3-1.3-2.1c-0.3-0.8-0.5-1.7-0.5-2.7c0-1,0.2-1.9,0.5-2.7c0.3-0.8,0.7-1.5,1.3-2.1
				c0.6-0.6,1.2-1.1,2-1.4c0.8-0.3,1.6-0.5,2.5-0.5c0.9,0,1.8,0.1,2.6,0.4c0.8,0.3,1.4,0.7,2,1.3c0.5,0.5,1,1.2,1.3,2
				c0.3,0.8,0.5,1.6,0.5,2.6c0,0.1,0,0.3,0,0.5c0,0.2,0,0.4,0,0.6H916.7z M920.6,640.4c-1.1,0-1.9,0.3-2.6,0.9
				c-0.7,0.6-1.1,1.5-1.2,2.6h7.8c-0.1-1.1-0.5-1.9-1.2-2.5C922.6,640.7,921.7,640.4,920.6,640.4z"/>
			<path class="st1" d="M935.4,643.3c0-0.9-0.2-1.5-0.6-2c-0.4-0.5-0.9-0.7-1.7-0.7c-0.8,0-1.4,0.3-1.8,0.8s-0.6,1.2-0.6,2v8.2h-2.3
				v-12.8h2.3v1.2c0.1-0.1,0.2-0.3,0.4-0.4s0.4-0.3,0.6-0.4c0.2-0.1,0.5-0.2,0.8-0.3s0.7-0.1,1.1-0.1c0.7,0,1.4,0.1,1.9,0.4
				s0.9,0.6,1.2,1s0.6,0.9,0.7,1.4c0.1,0.5,0.2,1.1,0.2,1.8v8.5h-2.3V643.3z"/>
			<path class="st1" d="M941.8,645.8c0.1,1.2,0.5,2.2,1.2,2.9c0.7,0.7,1.7,1,2.9,1c1,0,1.8-0.2,2.5-0.7s1.1-1.1,1.5-1.8l1.8,0.9
				c-0.2,0.5-0.5,1-0.8,1.4c-0.3,0.4-0.8,0.8-1.2,1.2c-0.5,0.3-1,0.6-1.6,0.8s-1.3,0.3-2.1,0.3c-1,0-1.8-0.2-2.6-0.5
				c-0.8-0.3-1.5-0.8-2.1-1.3s-1-1.3-1.3-2.1c-0.3-0.8-0.5-1.7-0.5-2.7c0-1,0.2-1.9,0.5-2.7c0.3-0.8,0.7-1.5,1.3-2.1
				c0.6-0.6,1.2-1.1,2-1.4c0.8-0.3,1.6-0.5,2.5-0.5c0.9,0,1.8,0.1,2.6,0.4c0.8,0.3,1.4,0.7,2,1.3c0.5,0.5,1,1.2,1.3,2
				c0.3,0.8,0.5,1.6,0.5,2.6c0,0.1,0,0.3,0,0.5c0,0.2,0,0.4,0,0.6H941.8z M945.7,640.4c-1.1,0-1.9,0.3-2.6,0.9
				c-0.7,0.6-1.1,1.5-1.2,2.6h7.8c-0.1-1.1-0.5-1.9-1.2-2.5C947.7,640.7,946.8,640.4,945.7,640.4z"/>
			<path class="st1" d="M958.8,641h-0.6c-0.8,0-1.4,0.2-1.7,0.6c-0.4,0.4-0.5,1-0.5,1.8v8.1h-2.3v-12.8h2.3v1.2
				c0.2-0.4,0.6-0.7,1-0.9s1.1-0.4,1.8-0.3V641z"/>
			<path class="st1" d="M959.3,647.4c0-0.6,0.1-1.2,0.3-1.7c0.2-0.5,0.5-1,0.9-1.3c0.4-0.4,0.8-0.7,1.4-0.9c0.5-0.2,1.1-0.3,1.8-0.3
				c0.7,0,1.2,0.1,1.7,0.3c0.4,0.2,0.8,0.4,1,0.6v-1.1c0-0.8-0.2-1.5-0.6-1.9c-0.4-0.4-0.9-0.7-1.7-0.7c-0.8,0-1.3,0.2-1.6,0.6
				c-0.3,0.4-0.5,0.9-0.5,1.4h-2.1c0-0.6,0.1-1.1,0.3-1.6c0.2-0.5,0.5-0.9,0.8-1.2c0.4-0.3,0.8-0.6,1.3-0.8c0.5-0.2,1.2-0.3,1.9-0.3
				c0.8,0,1.5,0.1,2.1,0.3c0.6,0.2,1,0.5,1.4,0.9c0.4,0.4,0.6,0.9,0.8,1.5c0.2,0.6,0.3,1.2,0.3,1.9v8.3h-2v-1
				c-0.3,0.4-0.7,0.6-1.2,0.9c-0.5,0.2-1.1,0.3-1.7,0.3c-0.6,0-1.2-0.1-1.7-0.3c-0.5-0.2-1-0.5-1.4-0.9c-0.4-0.4-0.7-0.8-0.9-1.4
				C959.4,648.6,959.3,648,959.3,647.4z M961.5,647.4c0,0.7,0.2,1.3,0.7,1.7c0.4,0.5,1,0.7,1.7,0.7c0.7,0,1.3-0.2,1.8-0.7
				c0.5-0.5,0.7-1,0.7-1.7c0-0.7-0.2-1.3-0.7-1.7s-1.1-0.7-1.8-0.7c-0.7,0-1.3,0.2-1.7,0.7C961.8,646.1,961.5,646.7,961.5,647.4z"/>
			<path class="st1" d="M973.2,651.5h-2.3v-17.5h2.3V651.5z"/>
		</g>
		<g class="st9">
			<path class="st1" d="M692.6,687.5h-2.4v-16.6h2.4V687.5z"/>
			<path class="st1" d="M702,679.3c0-0.9-0.2-1.5-0.6-2c-0.4-0.5-0.9-0.7-1.7-0.7c-0.8,0-1.4,0.3-1.8,0.8c-0.4,0.5-0.6,1.2-0.6,2
				v8.2h-2.3v-12.8h2.3v1.2c0.1-0.1,0.2-0.3,0.4-0.4c0.2-0.2,0.4-0.3,0.6-0.4c0.2-0.1,0.5-0.2,0.8-0.3c0.3-0.1,0.7-0.1,1.1-0.1
				c0.7,0,1.4,0.1,1.9,0.4c0.5,0.2,0.9,0.6,1.2,1c0.3,0.4,0.6,0.9,0.7,1.4c0.1,0.5,0.2,1.1,0.2,1.8v8.5H702V679.3z"/>
			<path class="st1" d="M712.6,685.7c0.4,0,0.8,0,1.2-0.1s0.7-0.2,0.9-0.4c0.3-0.1,0.5-0.3,0.7-0.5c0.2-0.2,0.4-0.3,0.6-0.5l1.3,1.4
				c-0.2,0.2-0.4,0.5-0.7,0.7s-0.6,0.5-1,0.7c-0.4,0.2-0.8,0.4-1.3,0.5c-0.5,0.1-1.1,0.2-1.7,0.2c-1,0-1.9-0.2-2.7-0.5
				c-0.8-0.3-1.5-0.8-2.1-1.4c-0.6-0.6-1-1.3-1.3-2.1c-0.3-0.8-0.5-1.7-0.5-2.6s0.2-1.8,0.5-2.6c0.3-0.8,0.8-1.5,1.4-2.1
				c0.6-0.6,1.3-1.1,2.1-1.4c0.8-0.3,1.7-0.5,2.6-0.5c0.6,0,1.2,0.1,1.7,0.2c0.5,0.1,1,0.3,1.4,0.5c0.4,0.2,0.7,0.4,1,0.7
				s0.5,0.5,0.7,0.7l-1.4,1.4c-0.3-0.4-0.8-0.7-1.3-1c-0.5-0.3-1.2-0.5-2-0.5c-0.6,0-1.2,0.1-1.7,0.3c-0.5,0.2-1,0.6-1.3,1
				s-0.7,0.9-0.9,1.5c-0.2,0.6-0.3,1.2-0.3,1.8c0,0.7,0.1,1.3,0.3,1.9c0.2,0.6,0.5,1,0.9,1.4s0.8,0.7,1.4,0.9
				C711.4,685.6,712,685.7,712.6,685.7z"/>
			<path class="st1" d="M723.9,677h-0.6c-0.8,0-1.4,0.2-1.7,0.6c-0.4,0.4-0.5,1-0.5,1.8v8.1h-2.3v-12.8h2.3v1.2
				c0.2-0.4,0.6-0.7,1-0.9s1.1-0.4,1.8-0.3V677z"/>
			<path class="st1" d="M726.6,681.8c0.1,1.2,0.5,2.2,1.2,2.9c0.7,0.7,1.7,1,2.9,1c1,0,1.8-0.2,2.5-0.7s1.1-1.1,1.5-1.8l1.8,0.9
				c-0.2,0.5-0.5,1-0.8,1.4c-0.3,0.4-0.8,0.8-1.2,1.2c-0.5,0.3-1,0.6-1.6,0.8c-0.6,0.2-1.3,0.3-2.1,0.3c-1,0-1.8-0.2-2.6-0.5
				c-0.8-0.3-1.5-0.8-2.1-1.3s-1-1.3-1.3-2.1c-0.3-0.8-0.5-1.7-0.5-2.7c0-1,0.2-1.9,0.5-2.7c0.3-0.8,0.7-1.5,1.3-2.1
				c0.6-0.6,1.2-1.1,2-1.4c0.8-0.3,1.6-0.5,2.5-0.5c0.9,0,1.8,0.1,2.6,0.4c0.8,0.3,1.4,0.7,2,1.3s1,1.2,1.3,2
				c0.3,0.8,0.5,1.6,0.5,2.6c0,0.1,0,0.3,0,0.5c0,0.2,0,0.4,0,0.6H726.6z M730.5,676.4c-1.1,0-1.9,0.3-2.6,0.9
				c-0.7,0.6-1.1,1.5-1.2,2.6h7.8c-0.1-1.1-0.5-1.9-1.2-2.5C732.5,676.7,731.6,676.4,730.5,676.4z"/>
			<path class="st1" d="M747.4,687.5h-2.3v-8.2c0-0.8-0.2-1.5-0.5-2c-0.4-0.5-0.9-0.7-1.6-0.7c-0.8,0-1.3,0.3-1.7,0.8
				c-0.4,0.5-0.6,1.2-0.6,2.1v8.1h-2.3v-12.8h2.3v1.2c0.1-0.1,0.2-0.3,0.4-0.4c0.2-0.2,0.4-0.3,0.6-0.4c0.2-0.1,0.5-0.2,0.8-0.3
				s0.7-0.1,1.1-0.1c0.8,0,1.5,0.2,2,0.5c0.5,0.3,0.9,0.7,1.1,1.2c0.3-0.5,0.7-0.9,1.2-1.2c0.5-0.3,1.2-0.5,2.1-0.5
				c0.7,0,1.4,0.1,1.9,0.3c0.5,0.2,1,0.6,1.3,1s0.6,0.9,0.7,1.4c0.2,0.5,0.2,1.1,0.2,1.7v8.5h-2.3v-8.3c0-0.8-0.2-1.5-0.5-2
				c-0.4-0.5-0.9-0.7-1.7-0.7c-0.7,0-1.3,0.2-1.7,0.7s-0.6,1.1-0.6,1.9V687.5z"/>
			<path class="st1" d="M758.2,681.8c0.1,1.2,0.5,2.2,1.2,2.9c0.7,0.7,1.7,1,2.9,1c1,0,1.8-0.2,2.5-0.7s1.1-1.1,1.5-1.8l1.8,0.9
				c-0.2,0.5-0.5,1-0.8,1.4c-0.3,0.4-0.8,0.8-1.2,1.2c-0.5,0.3-1,0.6-1.6,0.8c-0.6,0.2-1.3,0.3-2.1,0.3c-1,0-1.8-0.2-2.6-0.5
				c-0.8-0.3-1.5-0.8-2.1-1.3s-1-1.3-1.3-2.1c-0.3-0.8-0.5-1.7-0.5-2.7c0-1,0.2-1.9,0.5-2.7c0.3-0.8,0.7-1.5,1.3-2.1
				c0.6-0.6,1.2-1.1,2-1.4c0.8-0.3,1.6-0.5,2.5-0.5c0.9,0,1.8,0.1,2.6,0.4c0.8,0.3,1.4,0.7,2,1.3s1,1.2,1.3,2
				c0.3,0.8,0.5,1.6,0.5,2.6c0,0.1,0,0.3,0,0.5c0,0.2,0,0.4,0,0.6H758.2z M762.1,676.4c-1.1,0-1.9,0.3-2.6,0.9
				c-0.7,0.6-1.1,1.5-1.2,2.6h7.8c-0.1-1.1-0.5-1.9-1.2-2.5C764.1,676.7,763.2,676.4,762.1,676.4z"/>
			<path class="st1" d="M776.9,679.3c0-0.9-0.2-1.5-0.6-2c-0.4-0.5-0.9-0.7-1.7-0.7c-0.8,0-1.4,0.3-1.8,0.8c-0.4,0.5-0.6,1.2-0.6,2
				v8.2H770v-12.8h2.3v1.2c0.1-0.1,0.2-0.3,0.4-0.4c0.2-0.2,0.4-0.3,0.6-0.4c0.2-0.1,0.5-0.2,0.8-0.3c0.3-0.1,0.7-0.1,1.1-0.1
				c0.7,0,1.4,0.1,1.9,0.4c0.5,0.2,0.9,0.6,1.2,1c0.3,0.4,0.6,0.9,0.7,1.4c0.1,0.5,0.2,1.1,0.2,1.8v8.5h-2.3V679.3z"/>
			<path class="st1" d="M783.9,674.7h2.4v1.9h-2.4v7.3c0,0.6,0.1,1,0.3,1.3c0.2,0.3,0.6,0.4,1.2,0.4h0.9v1.9c-0.1,0-0.3,0-0.5,0.1
				s-0.6,0.1-0.9,0.1c-1.2,0-2-0.3-2.5-0.8s-0.7-1.4-0.7-2.4v-7.8h-1.3v-1.9h1.3v-2h2.3V674.7z"/>
			<path class="st1" d="M786.8,681.1c0-1,0.2-1.9,0.5-2.7c0.3-0.8,0.8-1.5,1.4-2.1c0.6-0.6,1.3-1.1,2.1-1.4c0.8-0.3,1.7-0.5,2.6-0.5
				c1,0,1.8,0.2,2.7,0.5s1.5,0.8,2.1,1.4c0.6,0.6,1,1.3,1.4,2.1c0.3,0.8,0.5,1.7,0.5,2.7s-0.2,1.8-0.5,2.7c-0.3,0.8-0.8,1.5-1.4,2.1
				c-0.6,0.6-1.3,1-2.1,1.4c-0.8,0.3-1.7,0.5-2.6,0.5c-1,0-1.8-0.2-2.7-0.5c-0.8-0.3-1.5-0.8-2.1-1.4c-0.6-0.6-1-1.3-1.4-2.1
				C787,683,786.8,682.1,786.8,681.1z M789.1,681.1c0,0.7,0.1,1.3,0.3,1.8c0.2,0.6,0.5,1,0.9,1.4c0.4,0.4,0.8,0.7,1.4,1
				c0.5,0.2,1.1,0.3,1.7,0.3c0.6,0,1.2-0.1,1.8-0.3c0.5-0.2,1-0.5,1.4-1c0.4-0.4,0.7-0.9,0.9-1.4c0.2-0.6,0.3-1.2,0.3-1.8
				c0-0.7-0.1-1.3-0.3-1.8c-0.2-0.6-0.5-1-0.9-1.5s-0.8-0.7-1.4-1c-0.5-0.2-1.1-0.3-1.7-0.3c-0.6,0-1.2,0.1-1.8,0.3
				c-0.5,0.2-1,0.5-1.4,1c-0.4,0.4-0.7,0.9-0.9,1.5C789.2,679.8,789.1,680.4,789.1,681.1z"/>
			<path class="st1" d="M815.9,685.6c-0.2,0.2-0.4,0.5-0.7,0.7c-0.3,0.3-0.6,0.5-1,0.7c-0.4,0.2-0.8,0.4-1.3,0.5s-1,0.2-1.5,0.2
				c-1,0-1.8-0.2-2.7-0.5c-0.8-0.3-1.5-0.8-2.1-1.4s-1-1.3-1.3-2.1c-0.3-0.8-0.5-1.7-0.5-2.7c0-0.9,0.2-1.8,0.5-2.6
				c0.3-0.8,0.8-1.5,1.3-2.1c0.6-0.6,1.3-1.1,2.1-1.4s1.7-0.5,2.6-0.5c1,0,1.9,0.2,2.6,0.6c0.7,0.4,1.3,0.8,1.7,1.3v-6.3h2.3v17.5
				h-2.2V685.6z M807.2,681.1c0,0.7,0.1,1.3,0.3,1.8c0.2,0.6,0.5,1,0.9,1.5c0.4,0.4,0.8,0.7,1.4,0.9c0.5,0.2,1.1,0.3,1.7,0.3
				c0.6,0,1.2-0.1,1.8-0.3c0.5-0.2,1-0.5,1.4-0.9c0.4-0.4,0.7-0.9,0.9-1.5c0.2-0.6,0.3-1.2,0.3-1.8c0-0.7-0.1-1.3-0.3-1.8
				c-0.2-0.6-0.5-1-0.9-1.5c-0.4-0.4-0.8-0.7-1.4-1c-0.5-0.2-1.1-0.3-1.8-0.3c-0.6,0-1.2,0.1-1.8,0.3c-0.5,0.2-1,0.6-1.4,1
				c-0.4,0.4-0.7,0.9-0.9,1.5C807.3,679.8,807.2,680.4,807.2,681.1z"/>
			<path class="st1" d="M822.2,681.8c0.1,1.2,0.5,2.2,1.2,2.9c0.7,0.7,1.7,1,2.9,1c1,0,1.8-0.2,2.5-0.7s1.1-1.1,1.5-1.8l1.8,0.9
				c-0.2,0.5-0.5,1-0.8,1.4c-0.3,0.4-0.8,0.8-1.2,1.2c-0.5,0.3-1,0.6-1.6,0.8c-0.6,0.2-1.3,0.3-2.1,0.3c-1,0-1.8-0.2-2.6-0.5
				c-0.8-0.3-1.5-0.8-2.1-1.3s-1-1.3-1.3-2.1c-0.3-0.8-0.5-1.7-0.5-2.7c0-1,0.2-1.9,0.5-2.7c0.3-0.8,0.7-1.5,1.3-2.1
				c0.6-0.6,1.2-1.1,2-1.4c0.8-0.3,1.6-0.5,2.5-0.5c0.9,0,1.8,0.1,2.6,0.4c0.8,0.3,1.4,0.7,2,1.3s1,1.2,1.3,2
				c0.3,0.8,0.5,1.6,0.5,2.6c0,0.1,0,0.3,0,0.5c0,0.2,0,0.4,0,0.6H822.2z M826.1,676.4c-1.1,0-1.9,0.3-2.6,0.9
				c-0.7,0.6-1.1,1.5-1.2,2.6h7.8c-0.1-1.1-0.5-1.9-1.2-2.5C828.1,676.7,827.2,676.4,826.1,676.4z"/>
			<path class="st1" d="M840,687.5h-2.3v-17.5h2.3V687.5z"/>
			<path class="st1" d="M841.8,683.4c0-0.6,0.1-1.2,0.3-1.7c0.2-0.5,0.5-1,0.9-1.3c0.4-0.4,0.8-0.7,1.4-0.9c0.5-0.2,1.1-0.3,1.8-0.3
				c0.7,0,1.2,0.1,1.7,0.3c0.4,0.2,0.8,0.4,1,0.6v-1.1c0-0.8-0.2-1.5-0.6-1.9c-0.4-0.4-0.9-0.7-1.7-0.7c-0.8,0-1.3,0.2-1.6,0.6
				c-0.3,0.4-0.5,0.9-0.5,1.4h-2.1c0-0.6,0.1-1.1,0.3-1.6c0.2-0.5,0.5-0.9,0.8-1.2c0.4-0.3,0.8-0.6,1.3-0.8c0.5-0.2,1.2-0.3,1.9-0.3
				c0.8,0,1.5,0.1,2.1,0.3c0.6,0.2,1,0.5,1.4,0.9c0.4,0.4,0.6,0.9,0.8,1.5c0.2,0.6,0.3,1.2,0.3,1.9v8.3h-2v-1
				c-0.3,0.4-0.7,0.6-1.2,0.9c-0.5,0.2-1.1,0.3-1.7,0.3c-0.6,0-1.2-0.1-1.7-0.3c-0.5-0.2-1-0.5-1.4-0.9c-0.4-0.4-0.7-0.8-0.9-1.4
				C841.9,684.6,841.8,684,841.8,683.4z M844,683.4c0,0.7,0.2,1.3,0.7,1.7c0.4,0.5,1,0.7,1.7,0.7c0.7,0,1.3-0.2,1.8-0.7
				c0.5-0.5,0.7-1,0.7-1.7c0-0.7-0.2-1.3-0.7-1.7s-1.1-0.7-1.8-0.7c-0.7,0-1.3,0.2-1.7,0.7C844.2,682.1,844,682.7,844,683.4z"/>
			<path class="st1" d="M866,687.5h-2.3v-8.2c0-0.8-0.2-1.5-0.5-2c-0.4-0.5-0.9-0.7-1.6-0.7c-0.8,0-1.3,0.3-1.7,0.8
				c-0.4,0.5-0.6,1.2-0.6,2.1v8.1h-2.3v-12.8h2.3v1.2c0.1-0.1,0.2-0.3,0.4-0.4s0.4-0.3,0.6-0.4c0.2-0.1,0.5-0.2,0.8-0.3
				c0.3-0.1,0.7-0.1,1.1-0.1c0.8,0,1.5,0.2,2,0.5c0.5,0.3,0.9,0.7,1.1,1.2c0.3-0.5,0.7-0.9,1.2-1.2c0.5-0.3,1.2-0.5,2.1-0.5
				c0.7,0,1.4,0.1,1.9,0.3c0.5,0.2,1,0.6,1.3,1s0.6,0.9,0.7,1.4c0.2,0.5,0.2,1.1,0.2,1.7v8.5h-2.3v-8.3c0-0.8-0.2-1.5-0.5-2
				c-0.4-0.5-0.9-0.7-1.7-0.7c-0.7,0-1.3,0.2-1.7,0.7s-0.6,1.1-0.6,1.9V687.5z"/>
			<path class="st1" d="M874.5,681.1c0-1,0.2-1.9,0.5-2.7c0.3-0.8,0.8-1.5,1.4-2.1c0.6-0.6,1.3-1.1,2.1-1.4c0.8-0.3,1.7-0.5,2.6-0.5
				c1,0,1.8,0.2,2.7,0.5s1.5,0.8,2.1,1.4c0.6,0.6,1,1.3,1.4,2.1c0.3,0.8,0.5,1.7,0.5,2.7s-0.2,1.8-0.5,2.7c-0.3,0.8-0.8,1.5-1.4,2.1
				s-1.3,1-2.1,1.4s-1.7,0.5-2.6,0.5c-1,0-1.8-0.2-2.7-0.5c-0.8-0.3-1.5-0.8-2.1-1.4s-1-1.3-1.4-2.1S874.5,682.1,874.5,681.1z
				 M876.8,681.1c0,0.7,0.1,1.3,0.3,1.8c0.2,0.6,0.5,1,0.9,1.4c0.4,0.4,0.8,0.7,1.4,1c0.5,0.2,1.1,0.3,1.7,0.3
				c0.6,0,1.2-0.1,1.8-0.3c0.5-0.2,1-0.5,1.4-1s0.7-0.9,0.9-1.4c0.2-0.6,0.3-1.2,0.3-1.8c0-0.7-0.1-1.3-0.3-1.8
				c-0.2-0.6-0.5-1-0.9-1.5c-0.4-0.4-0.8-0.7-1.4-1c-0.5-0.2-1.1-0.3-1.7-0.3c-0.6,0-1.2,0.1-1.8,0.3c-0.5,0.2-1,0.5-1.4,1
				s-0.7,0.9-0.9,1.5C876.9,679.8,876.8,680.4,876.8,681.1z"/>
			<path class="st1" d="M894.6,677H894c-0.8,0-1.4,0.2-1.7,0.6c-0.4,0.4-0.5,1-0.5,1.8v8.1h-2.3v-12.8h2.3v1.2
				c0.2-0.4,0.6-0.7,1-0.9s1.1-0.4,1.8-0.3V677z"/>
			<path class="st1" d="M899,674.7h2.4v1.9H899v7.3c0,0.6,0.1,1,0.3,1.3c0.2,0.3,0.6,0.4,1.2,0.4h0.9v1.9c-0.1,0-0.3,0-0.5,0.1
				s-0.6,0.1-0.9,0.1c-1.2,0-2-0.3-2.5-0.8s-0.7-1.4-0.7-2.4v-7.8h-1.3v-1.9h1.3v-2h2.3V674.7z"/>
			<path class="st1" d="M902.3,683.4c0-0.6,0.1-1.2,0.3-1.7c0.2-0.5,0.5-1,0.9-1.3c0.4-0.4,0.8-0.7,1.4-0.9c0.5-0.2,1.1-0.3,1.8-0.3
				c0.7,0,1.2,0.1,1.7,0.3c0.4,0.2,0.8,0.4,1,0.6v-1.1c0-0.8-0.2-1.5-0.6-1.9c-0.4-0.4-0.9-0.7-1.7-0.7c-0.8,0-1.3,0.2-1.6,0.6
				c-0.3,0.4-0.5,0.9-0.5,1.4h-2.1c0-0.6,0.1-1.1,0.3-1.6c0.2-0.5,0.5-0.9,0.8-1.2c0.4-0.3,0.8-0.6,1.3-0.8c0.5-0.2,1.2-0.3,1.9-0.3
				c0.8,0,1.5,0.1,2.1,0.3c0.6,0.2,1,0.5,1.4,0.9c0.4,0.4,0.6,0.9,0.8,1.5c0.2,0.6,0.3,1.2,0.3,1.9v8.3h-2v-1
				c-0.3,0.4-0.7,0.6-1.2,0.9c-0.5,0.2-1.1,0.3-1.7,0.3c-0.6,0-1.2-0.1-1.7-0.3c-0.5-0.2-1-0.5-1.4-0.9c-0.4-0.4-0.7-0.8-0.9-1.4
				C902.4,684.6,902.3,684,902.3,683.4z M904.5,683.4c0,0.7,0.2,1.3,0.7,1.7c0.4,0.5,1,0.7,1.7,0.7c0.7,0,1.3-0.2,1.8-0.7
				c0.5-0.5,0.7-1,0.7-1.7c0-0.7-0.2-1.3-0.7-1.7s-1.1-0.7-1.8-0.7c-0.7,0-1.3,0.2-1.7,0.7C904.7,682.1,904.5,682.7,904.5,683.4z"/>
			<path class="st1" d="M916.2,687.5h-2.3v-17.5h2.3V687.5z"/>
			<path class="st1" d="M919.6,673.4c-0.4,0-0.8-0.1-1.1-0.4s-0.4-0.7-0.4-1.1c0-0.4,0.1-0.8,0.4-1.1s0.7-0.4,1.1-0.4
				c0.4,0,0.8,0.1,1.1,0.4s0.5,0.6,0.5,1.1c0,0.4-0.2,0.8-0.5,1.1S920.1,673.4,919.6,673.4z M920.8,687.5h-2.3v-12.8h2.3V687.5z"/>
			<path class="st1" d="M933.5,685.6c-0.2,0.2-0.4,0.5-0.7,0.7c-0.3,0.3-0.6,0.5-1,0.7s-0.8,0.4-1.3,0.5c-0.5,0.1-1,0.2-1.5,0.2
				c-1,0-1.8-0.2-2.7-0.5c-0.8-0.3-1.5-0.8-2.1-1.4s-1-1.3-1.3-2.1c-0.3-0.8-0.5-1.7-0.5-2.7c0-0.9,0.2-1.8,0.5-2.6
				c0.3-0.8,0.8-1.5,1.3-2.1c0.6-0.6,1.3-1.1,2.1-1.4s1.7-0.5,2.6-0.5c1,0,1.9,0.2,2.6,0.6c0.7,0.4,1.3,0.8,1.7,1.3v-6.3h2.3v17.5
				h-2.2V685.6z M924.9,681.1c0,0.7,0.1,1.3,0.3,1.8c0.2,0.6,0.5,1,0.9,1.5c0.4,0.4,0.8,0.7,1.4,0.9c0.5,0.2,1.1,0.3,1.7,0.3
				c0.6,0,1.2-0.1,1.8-0.3c0.5-0.2,1-0.5,1.4-0.9c0.4-0.4,0.7-0.9,0.9-1.5c0.2-0.6,0.3-1.2,0.3-1.8c0-0.7-0.1-1.3-0.3-1.8
				c-0.2-0.6-0.5-1-0.9-1.5s-0.8-0.7-1.4-1c-0.5-0.2-1.1-0.3-1.8-0.3c-0.6,0-1.2,0.1-1.8,0.3c-0.5,0.2-1,0.6-1.4,1s-0.7,0.9-0.9,1.5
				C925,679.8,924.9,680.4,924.9,681.1z"/>
			<path class="st1" d="M937.5,683.4c0-0.6,0.1-1.2,0.3-1.7c0.2-0.5,0.5-1,0.9-1.3c0.4-0.4,0.8-0.7,1.4-0.9c0.5-0.2,1.1-0.3,1.8-0.3
				c0.7,0,1.2,0.1,1.7,0.3c0.4,0.2,0.8,0.4,1,0.6v-1.1c0-0.8-0.2-1.5-0.6-1.9c-0.4-0.4-0.9-0.7-1.7-0.7c-0.8,0-1.3,0.2-1.6,0.6
				c-0.3,0.4-0.5,0.9-0.5,1.4H938c0-0.6,0.1-1.1,0.3-1.6c0.2-0.5,0.5-0.9,0.8-1.2c0.4-0.3,0.8-0.6,1.3-0.8c0.5-0.2,1.2-0.3,1.9-0.3
				c0.8,0,1.5,0.1,2.1,0.3c0.6,0.2,1,0.5,1.4,0.9c0.4,0.4,0.6,0.9,0.8,1.5c0.2,0.6,0.3,1.2,0.3,1.9v8.3h-2v-1
				c-0.3,0.4-0.7,0.6-1.2,0.9c-0.5,0.2-1.1,0.3-1.7,0.3c-0.6,0-1.2-0.1-1.7-0.3c-0.5-0.2-1-0.5-1.4-0.9c-0.4-0.4-0.7-0.8-0.9-1.4
				C937.6,684.6,937.5,684,937.5,683.4z M939.7,683.4c0,0.7,0.2,1.3,0.7,1.7c0.4,0.5,1,0.7,1.7,0.7c0.7,0,1.3-0.2,1.8-0.7
				c0.5-0.5,0.7-1,0.7-1.7c0-0.7-0.2-1.3-0.7-1.7s-1.1-0.7-1.8-0.7c-0.7,0-1.3,0.2-1.7,0.7C939.9,682.1,939.7,682.7,939.7,683.4z"/>
			<path class="st1" d="M959.5,685.6c-0.2,0.2-0.4,0.5-0.7,0.7c-0.3,0.3-0.6,0.5-1,0.7s-0.8,0.4-1.3,0.5c-0.5,0.1-1,0.2-1.5,0.2
				c-1,0-1.8-0.2-2.7-0.5c-0.8-0.3-1.5-0.8-2.1-1.4s-1-1.3-1.3-2.1c-0.3-0.8-0.5-1.7-0.5-2.7c0-0.9,0.2-1.8,0.5-2.6
				c0.3-0.8,0.8-1.5,1.3-2.1c0.6-0.6,1.3-1.1,2.1-1.4s1.7-0.5,2.6-0.5c1,0,1.9,0.2,2.6,0.6c0.7,0.4,1.3,0.8,1.7,1.3v-6.3h2.3v17.5
				h-2.2V685.6z M950.8,681.1c0,0.7,0.1,1.3,0.3,1.8c0.2,0.6,0.5,1,0.9,1.5c0.4,0.4,0.8,0.7,1.4,0.9c0.5,0.2,1.1,0.3,1.7,0.3
				c0.6,0,1.2-0.1,1.8-0.3c0.5-0.2,1-0.5,1.4-0.9c0.4-0.4,0.7-0.9,0.9-1.5c0.2-0.6,0.3-1.2,0.3-1.8c0-0.7-0.1-1.3-0.3-1.8
				c-0.2-0.6-0.5-1-0.9-1.5s-0.8-0.7-1.4-1c-0.5-0.2-1.1-0.3-1.8-0.3c-0.6,0-1.2,0.1-1.8,0.3c-0.5,0.2-1,0.6-1.4,1s-0.7,0.9-0.9,1.5
				C950.9,679.8,950.8,680.4,950.8,681.1z"/>
		</g>
	</g>
	<g>
		<rect x="689" y="539.9" class="st8" width="283.7" height="57.7"/>
		<g class="st9">
			<path class="st1" d="M711,564h-3.2v-1.7c-0.6,0.6-1.5,1-2.6,1.5c-1.1,0.4-2.3,0.6-3.8,0.6c-1.7,0-3.3-0.3-4.7-0.9
				c-1.4-0.6-2.7-1.4-3.7-2.4c-1-1-1.8-2.3-2.4-3.7s-0.9-3.1-0.9-4.8c0-1.7,0.3-3.3,0.9-4.7s1.4-2.7,2.4-3.8c1-1.1,2.3-1.9,3.7-2.5
				c1.4-0.6,3-0.9,4.7-0.9c1.1,0,2.2,0.1,3.1,0.3c0.9,0.2,1.8,0.5,2.5,0.9c0.7,0.4,1.4,0.8,1.9,1.3c0.5,0.5,1,1,1.4,1.5l-2.4,2
				c-0.3-0.4-0.7-0.7-1.1-1.1c-0.4-0.4-0.9-0.7-1.4-1c-0.5-0.3-1.1-0.5-1.8-0.7c-0.7-0.2-1.4-0.3-2.2-0.3c-1.2,0-2.3,0.2-3.3,0.7
				c-1,0.4-1.9,1.1-2.6,1.8c-0.7,0.8-1.3,1.7-1.7,2.8c-0.4,1.1-0.6,2.3-0.6,3.6c0,1.3,0.2,2.5,0.6,3.6c0.4,1.1,1,2,1.7,2.8
				c0.7,0.8,1.6,1.4,2.6,1.8c1,0.4,2.2,0.6,3.4,0.6c1.4,0,2.6-0.2,3.6-0.7c1-0.4,1.9-1,2.6-1.7v-4h-4.2v-2.8h7.4V564z"/>
			<path class="st1" d="M714.4,564v-22.8h9.9v3h-6.7v6.6h6.5v3h-6.5v7.2h6.8v3H714.4z"/>
			<path class="st1" d="M730.5,546.7V564h-3.2v-22.8h3.3l11.6,17.5v-17.5h3.2V564h-3.3L730.5,546.7z"/>
			<path class="st1" d="M749,564v-22.8h9.9v3h-6.7v6.6h6.5v3h-6.5v7.2h6.8v3H749z"/>
			<path class="st1" d="M774.6,547.4c0,1.4-0.3,2.6-0.9,3.6c-0.6,1-1.5,1.7-2.6,2.2l5.7,10.9h-3.5l-5.4-10.3h-2.7V564H762v-22.8h5.9
				c2.1,0,3.8,0.5,5,1.6C774,543.8,774.6,545.3,774.6,547.4z M765.2,544v7h2.5c1.2,0,2-0.3,2.6-1c0.6-0.6,0.9-1.5,0.9-2.6
				c0-1.1-0.3-1.9-0.9-2.5c-0.6-0.6-1.5-0.9-2.6-0.9H765.2z"/>
			<path class="st1" d="M791.9,556.5h-8.6l-2.8,7.5h-3.2l8.6-22.8h3.4l9,22.8h-3.4L791.9,556.5z M784.4,553.7h6.5l-3.3-8.4
				L784.4,553.7z"/>
			<path class="st1" d="M800,564v-22.8h3.2V561h6.6v3H800z"/>
			<path class="st1" d="M813,569.8H810l11.8-29.9h2.9L813,569.8z"/>
			<path class="st1" d="M824.7,552.6c0-1.7,0.3-3.3,0.9-4.8c0.6-1.5,1.4-2.7,2.4-3.8c1-1.1,2.3-1.9,3.7-2.5s3-0.9,4.7-0.9
				c1.7,0,3.3,0.3,4.8,0.9s2.7,1.4,3.7,2.5c1,1.1,1.8,2.3,2.4,3.8s0.9,3,0.9,4.7s-0.3,3.3-0.9,4.7s-1.4,2.7-2.4,3.8
				c-1,1.1-2.3,1.9-3.7,2.5c-1.4,0.6-3,0.9-4.7,0.9s-3.3-0.3-4.7-0.9c-1.4-0.6-2.7-1.4-3.7-2.5c-1-1.1-1.8-2.3-2.4-3.8
				C825,555.9,824.7,554.3,824.7,552.6z M828.1,552.6c0,1.3,0.2,2.5,0.6,3.6c0.4,1.1,1,2,1.7,2.8s1.6,1.4,2.6,1.8
				c1,0.4,2.1,0.7,3.4,0.7c1.3,0,2.4-0.2,3.4-0.7s1.9-1.1,2.6-1.8c0.7-0.8,1.3-1.7,1.7-2.8s0.6-2.3,0.6-3.6c0-1.3-0.2-2.5-0.6-3.5
				c-0.4-1.1-1-2-1.7-2.8c-0.7-0.8-1.6-1.4-2.6-1.8c-1-0.4-2.2-0.7-3.4-0.7c-1.3,0-2.4,0.2-3.4,0.7c-1,0.4-1.9,1.1-2.6,1.8
				c-0.7,0.8-1.3,1.7-1.7,2.8C828.3,550.1,828.1,551.3,828.1,552.6z"/>
			<path class="st1" d="M856,544.2V564h-3.2v-19.8h-4.7v-3h12.6v3H856z"/>
			<path class="st1" d="M875.6,547.4c0,1.4-0.3,2.6-0.9,3.6c-0.6,1-1.5,1.7-2.6,2.2l5.7,10.9h-3.5l-5.4-10.3h-2.7V564H863v-22.8h5.9
				c2.1,0,3.8,0.5,5,1.6S875.6,545.3,875.6,547.4z M866.2,544v7h2.5c1.2,0,2-0.3,2.6-1c0.6-0.6,0.9-1.5,0.9-2.6
				c0-1.1-0.3-1.9-0.9-2.5c-0.6-0.6-1.5-0.9-2.6-0.9H866.2z"/>
			<path class="st1" d="M877.6,552.6c0-1.7,0.3-3.3,0.9-4.8s1.4-2.7,2.4-3.8c1-1.1,2.3-1.9,3.7-2.5c1.4-0.6,3-0.9,4.7-0.9
				c1.7,0,3.3,0.3,4.8,0.9s2.7,1.4,3.7,2.5c1,1.1,1.8,2.3,2.4,3.8s0.9,3,0.9,4.7s-0.3,3.3-0.9,4.7s-1.4,2.7-2.4,3.8
				c-1,1.1-2.3,1.9-3.7,2.5c-1.4,0.6-3,0.9-4.7,0.9c-1.7,0-3.3-0.3-4.7-0.9c-1.4-0.6-2.7-1.4-3.7-2.5c-1-1.1-1.8-2.3-2.4-3.8
				C877.9,555.9,877.6,554.3,877.6,552.6z M881,552.6c0,1.3,0.2,2.5,0.6,3.6s1,2,1.7,2.8c0.7,0.8,1.6,1.4,2.6,1.8s2.1,0.7,3.4,0.7
				c1.3,0,2.4-0.2,3.4-0.7s1.9-1.1,2.6-1.8c0.7-0.8,1.3-1.7,1.7-2.8s0.6-2.3,0.6-3.6c0-1.3-0.2-2.5-0.6-3.5c-0.4-1.1-1-2-1.7-2.8
				c-0.7-0.8-1.6-1.4-2.6-1.8c-1-0.4-2.2-0.7-3.4-0.7c-1.3,0-2.4,0.2-3.4,0.7c-1,0.4-1.9,1.1-2.6,1.8c-0.7,0.8-1.3,1.7-1.7,2.8
				C881.2,550.1,881,551.3,881,552.6z"/>
			<path class="st1" d="M906.2,546.6c0,0.8,0.2,1.4,0.6,1.9s0.9,0.9,1.6,1.3c0.7,0.3,1.4,0.6,2.1,0.9c0.7,0.3,1.4,0.6,2.1,1
				c1.2,0.6,2.2,1.4,2.9,2.3c0.7,1,1,2.2,1,3.7c0,1-0.2,1.9-0.5,2.7s-0.8,1.5-1.4,2.1c-0.6,0.6-1.3,1-2.2,1.4s-1.8,0.5-2.9,0.5
				c-1.3,0-2.4-0.2-3.4-0.6c-0.9-0.4-1.6-0.9-2.2-1.6c-0.5-0.7-0.9-1.4-1.2-2.3c-0.2-0.9-0.3-1.8-0.3-2.7h3.1c0,0.6,0.1,1.2,0.2,1.7
				c0.1,0.5,0.4,1,0.7,1.4c0.3,0.4,0.7,0.7,1.2,0.9c0.5,0.2,1.1,0.3,1.8,0.3c1.1,0,2-0.3,2.7-0.9c0.7-0.6,1.1-1.5,1.1-2.7
				c0-0.9-0.2-1.7-0.7-2.2s-1-1-1.8-1.4c-0.7-0.4-1.5-0.7-2.3-1c-0.8-0.3-1.5-0.6-2.3-1c-1-0.6-1.8-1.3-2.4-2.2
				c-0.6-0.9-0.8-2.1-0.8-3.4c0-0.8,0.1-1.6,0.4-2.3c0.3-0.7,0.7-1.4,1.3-1.9c0.6-0.5,1.2-1,2-1.3c0.8-0.3,1.7-0.5,2.7-0.5
				c1.2,0,2.2,0.2,3.1,0.5s1.5,0.8,2,1.4c0.5,0.6,0.9,1.3,1.1,2s0.3,1.6,0.3,2.4h-3c0-1-0.3-1.9-0.9-2.6c-0.6-0.7-1.4-1-2.5-1
				c-1.1,0-1.9,0.3-2.4,0.9C906.5,545,906.2,545.7,906.2,546.6z"/>
		</g>
	</g>
	<line class="st10" x1="1185.1" y1="517.5" x2="689" y2="515.8"/>
	<g>
		<circle class="st7" cx="677.6" cy="607.5" r="5.5"/>
	</g>
	<circle class="st7" cx="677.6" cy="643.5" r="5.5"/>
	<circle class="st7" cx="677.6" cy="679.4" r="5.5"/>
	<circle class="st7" cx="677.6" cy="-45.9" r="5.5"/>
</g>
</svg>
