<?xml version="1.0" encoding="utf-8"?>
<!-- Generator: Adobe Illustrator 19.0.0, SVG Export Plug-In . SVG Version: 6.00 Build 0)  -->
<svg version="1.1" xmlns="http://www.w3.org/2000/svg" xmlns:xlink="http://www.w3.org/1999/xlink" x="0px" y="0px"
	 viewBox="0 0 580.4 1467.2" style="enable-background:new 0 0 580.4 1467.2;" xml:space="preserve">
<style type="text/css">
	.st0{opacity:0.3;}
	.st1{fill:#C1D9AE;}
	.st2{fill:#FBE2E0;}
	.st3{opacity:0.3;fill:#F8D2D0;}
	.st4{fill:#F8D2D0;}
	.st5{fill:none;stroke:#F0A0A0;stroke-width:6.0028;stroke-linecap:round;stroke-miterlimit:10;}
	.st6{opacity:0.3;fill:#F0A0A0;}
	.st7{fill:#3AA336;}
	.st8{fill:#181717;}
	.st9{display:none;}
</style>
<g id="Cos_1_">
	<g id="XMLID_91_" class="st0">
		<g id="XMLID_121_">
			<path id="XMLID_131_" class="st1" d="M380,53.7c-0.4,0-0.7,0-1,0c-0.3,0-0.7,0-1,0c-44.9-0.4-62.4,35.1-59.8,80.4
				c2.5,44.3,19.6,91.2,60.6,92.1v0c0.1,0,0.2,0,0.3,0c0.1,0,0.2,0,0.3,0v0c41-0.9,58.1-47.8,60.6-92.1
				C442.4,88.8,424.9,53.3,380,53.7z"/>
			<g id="XMLID_126_">
				
					<ellipse id="XMLID_129_" transform="matrix(0.9911 0.1335 -0.1335 0.9911 24.1127 -57.0611)" class="st1" cx="437.6" cy="151.3" rx="8" ry="23.8"/>
				
					<ellipse id="XMLID_128_" transform="matrix(-0.9911 0.1335 -0.1335 -0.9911 657.6839 258.5289)" class="st1" cx="320.2" cy="151.3" rx="8" ry="23.8"/>
			</g>
			<rect id="XMLID_125_" x="343.8" y="193.9" class="st1" width="70.1" height="73.1"/>
			<g id="XMLID_122_">
				<path id="XMLID_124_" class="st1" d="M391.8,300l-48.1-73.8l0,0c0,20.9-16.9,37.8-37.8,37.8h0L391.8,300z"/>
				<path id="XMLID_123_" class="st1" d="M366,300l48.1-73.8l0,0c0,20.9,16.9,37.8,37.8,37.8l0,0L366,300z"/>
			</g>
		</g>
		<g id="XMLID_92_">
			<rect id="XMLID_118_" x="289.3" y="263.7" class="st1" width="178.7" height="281.4"/>
			<path id="XMLID_117_" class="st1" d="M261.9,302.2h233.4v86.2c0,35.4-28.7,64-64,64H325.9c-35.4,0-64-28.7-64-64V302.2z"/>
			<path id="XMLID_3_" class="st1" d="M216.1,385.5h325.1v-59.3c0-34.5-28-62.4-62.4-62.4H278.5c-34.5,0-62.4,28-62.4,62.4V385.5z"
				/>
			<path id="XMLID_115_" class="st1" d="M468,545.1h-89.4v196.1h127.1c0,0,0-24.5,0-74.5C505.7,618.8,468,545.1,468,545.1z"/>
			<path id="XMLID_113_" class="st1" d="M289.2,545.1h89.4v196.1H251.5c0,0,0-24.5,0-74.5C251.5,618.8,289.2,545.1,289.2,545.1z"/>
			<g id="XMLID_105_">
				<path id="XMLID_111_" class="st1" d="M463.9,992.3c0,19.3-77.1,0-77.1,0v-251c0,0,118.8-29.7,118.8,0
					C505.7,848,463.9,963.2,463.9,992.3z"/>
				<path id="XMLID_109_" class="st1" d="M442.8,1307.1h-41l-14.9-314.8h76.9c0,0,6.4,92.3,6.4,123.2
					C470.1,1202.1,442.8,1307.1,442.8,1307.1z"/>
				<path id="XMLID_107_" class="st1" d="M450.6,1402.1c-0.1,2.3-2.4,6-4.9,9.3c-3.8,5-9.7,7.8-15.9,7.8H400
					c-7,0-12.4-6.1-11.4-13.1l13.1-99h41C442.7,1307.1,451.6,1372.9,450.6,1402.1z"/>
			</g>
			<g id="XMLID_101_">
				<path id="XMLID_104_" class="st1" d="M293.3,992.3c0,19.3,77.1,0,77.1,0v-251c0,0-118.8-29.7-118.8,0
					C251.5,848,293.3,963.2,293.3,992.3z"/>
				<path id="XMLID_103_" class="st1" d="M314.4,1307.1h41l14.9-314.8h-76.9c0,0-6.4,92.3-6.4,123.2
					C287.1,1202.1,314.4,1307.1,314.4,1307.1z"/>
				<path id="XMLID_102_" class="st1" d="M306.6,1402.1c0.1,2.3,2.4,6,4.9,9.3c3.8,5,9.7,7.8,15.9,7.8h29.7c7,0,12.4-6.1,11.4-13.1
					l-13.1-99h-41C314.5,1307.1,305.6,1372.9,306.6,1402.1z"/>
			</g>
			<polygon id="XMLID_100_" class="st1" points="561.6,534.7 515.7,540.1 487.9,322.7 541,316.5 			"/>
			<path id="XMLID_99_" class="st1" d="M576.4,719.4l-27,3.1l-33.7-182.5c0,0,42.4-39.8,43.8-27.7c2.5,21.5,8.9,43.4,12.1,73.1
				C575.2,618.8,576.4,719.4,576.4,719.4z"/>
			<path id="XMLID_98_" class="st1" d="M576.4,719.4v41.4c0,8.9-2.7,17.6-7.9,24.9l-32.9,46.8c-2.7,3.9-8,4.9-11.9,2.3l0,0
				c-3.7-2.4-5-7.1-3.1-11.1l20.4-42.3l-2.8-15.3L523.6,795c-0.7,1.3-2.2,2-3.7,1.6l0,0c-1.5-0.4-2.5-1.9-2.3-3.4l3.1-27.7
				c0.8-7.2,3.3-14.1,7.4-20.1l21.2-22.9L576.4,719.4z"/>
			<g id="XMLID_93_">
				<polygon id="XMLID_96_" class="st1" points="196.2,534.7 242.1,540.1 270,322.7 216.8,316.5 				"/>
				<path id="XMLID_95_" class="st1" d="M181.4,719.4l27,3.1l33.7-182.5c0,0-42.4-39.8-43.8-27.7c-2.5,21.5-8.9,43.4-12.1,73.1
					C182.6,618.8,181.4,719.4,181.4,719.4z"/>
				<path id="XMLID_94_" class="st1" d="M181.4,719.4v41.4c0,8.9,2.7,17.6,7.9,24.9l32.9,46.8c2.7,3.9,8,4.9,11.9,2.3l0,0
					c3.7-2.4,5-7.1,3.1-11.1l-20.4-42.3l2.8-15.3l14.6,28.8c0.7,1.3,2.2,2,3.7,1.6l0,0c1.5-0.4,2.5-1.9,2.3-3.4l-3.1-27.7
					c-0.8-7.2-3.3-14.1-7.4-20.1l-21.2-22.9L181.4,719.4z"/>
			</g>
		</g>
	</g>
	<g id="XMLID_84_" class="st0">
		<g id="XMLID_88_">
			<path id="XMLID_90_" class="st2" d="M396.4,270.4L396.4,270.4c3.9-2.5,8.4-3.9,13.1-3.9h6.3c7.9,0.5,12.9,3.1,16,7.1
				c21.4,27.7,48.6,65,55.8,114.3c1.7,11.9-15.2,35.7-19.8,39.1C412,468.5,380.6,399,380.6,399l5-109.7
				C385.9,281.7,390,274.6,396.4,270.4z"/>
			<circle id="XMLID_89_" class="st2" cx="433" cy="393.1" r="54.6"/>
		</g>
		<g id="XMLID_85_">
			<path id="XMLID_87_" class="st2" d="M362.2,270.4L362.2,270.4c-3.9-2.5-8.4-3.9-13.1-3.9h-6.3c-7.9,0.5-12.9,3.1-16,7.1
				c-21.4,27.7-48.6,65-55.8,114.3c-1.7,11.9,15.2,35.7,19.8,39.1C346.6,468.5,378,399,378,399l17.6-99L373,289.4
				C372.7,281.7,368.6,274.6,362.2,270.4z"/>
			<circle id="XMLID_86_" class="st2" cx="325.6" cy="393.1" r="54.6"/>
		</g>
	</g>
	<path id="XMLID_2_" class="st3" d="M378.9,712.8L378.9,712.8c-30.3,0-54.9-24.6-54.9-54.9v-61.7c0-30.3,24.6-54.9,54.9-54.9h0
		c30.3,0,54.9,24.6,54.9,54.9v61.7C433.8,688.2,409.2,712.8,378.9,712.8z"/>
	<g id="XMLID_59_" class="st0">
		<g id="XMLID_66_">
			<g id="XMLID_75_">
				<circle id="XMLID_82_" class="st4" cx="346.5" cy="391.8" r="22.4"/>
				<circle id="XMLID_81_" class="st4" cx="316.7" cy="402.6" r="24.4"/>
				<circle id="XMLID_80_" class="st4" cx="355.4" cy="326.9" r="13.5"/>
				<rect id="XMLID_79_" x="339.1" y="326.9" class="st4" width="29.9" height="61"/>
				<path id="XMLID_76_" class="st4" d="M293.2,396c13.2-52.4,53.6-79.5,53.6-79.5l5.4,70.4C352.3,386.8,289.6,410.5,293.2,396z"/>
			</g>
			<g id="XMLID_67_">
				<circle id="XMLID_74_" class="st4" cx="412.1" cy="391.8" r="22.4"/>
				<circle id="XMLID_71_" class="st4" cx="441.9" cy="402.6" r="24.4"/>
				<circle id="XMLID_70_" class="st4" cx="403.2" cy="326.9" r="13.5"/>
				<rect id="XMLID_69_" x="389.6" y="326.9" class="st4" width="29.9" height="61"/>
				<path id="XMLID_68_" class="st4" d="M465.4,396c-13.2-52.4-53.6-79.5-53.6-79.5l-5.4,70.4C406.3,386.8,469,410.5,465.4,396z"/>
			</g>
		</g>
		<rect id="XMLID_65_" x="371.8" y="266" class="st4" width="14.9" height="56.1"/>
		<g id="XMLID_60_">
			
				<rect id="XMLID_63_" x="389.5" y="310.5" transform="matrix(0.7071 -0.7071 0.7071 0.7071 -123.1352 379.8364)" class="st4" width="14.9" height="56.1"/>
			
				<rect id="XMLID_61_" x="354.2" y="310.5" transform="matrix(-0.7071 -0.7071 0.7071 -0.7071 378.0023 833.6846)" class="st4" width="14.9" height="56.1"/>
		</g>
	</g>
	<g id="XMLID_21_" class="st0">
		<path id="XMLID_58_" class="st5" d="M547,758.2c0,0,20.9-17.7,20.3-35.7c-1.6-43.9,1.6-76-1.6-100.3c-8-60.9-24.9-73-27.9-100.5
			c-2.6-23.1,5-164.8-13-199.7c-19.1-36.9-65.2-41.5-97.4-33c-22.8,6-28.3,24.1-30.4,35.6c-1.6,8.8-1.8,16.5,2.7,35.8"/>
		<path id="XMLID_57_" class="st5" d="M478.2,287.9c23.7,6.2,25.7,29.3,27.5,56.9c1.8,27.6,33.3,135.3,30.9,171.2
			c-2.4,35.9-1.1,91.7,6.5,115.8c7.6,24.1,21.6,54.8,23.8,80.9"/>
		<path id="XMLID_56_" class="st5" d="M211.9,758.2c0,0-20.9-17.7-20.3-35.7c1.6-43.9-1.6-76,1.6-100.3c8-60.9,24.9-73,27.9-100.5
			c2.6-23.1-5-164.8,13-199.7c19.1-36.9,65.2-41.5,97.4-33c22.8,6,47.4,21.8,51.6,35.6c2.6,8.6,8.6,16.5,4.2,35.8"/>
		<path id="XMLID_55_" class="st5" d="M280.7,287.9c-23.7,6.2-25.7,29.3-27.5,56.9c-1.8,27.6-33.3,135.3-30.9,171.2
			c2.4,35.9,1.1,91.7-6.5,115.8c-7.6,24.1-21.6,54.8-23.8,80.9"/>
		<path id="XMLID_54_" class="st5" d="M427.4,289.1c0,0-23.1-47.7-24.2-62.9c-1.1-15.2,13.1-41.3,23.2-68.4
			c5.7-15.3,5-30.2,3.3-40.3c-1.3-7.6-6.4-14-13.5-16.9l-4.6-1.9"/>
		<line id="XMLID_48_" class="st5" x1="403.2" y1="222.8" x2="409" y2="298.4"/>
		<path id="XMLID_47_" class="st5" d="M330.1,288.2c0,0,23.1-46.8,24.2-62c1.1-15.2-13.1-41.3-23.2-68.4
			c-6.5-17.4-4.7-34.3-2.5-44.1c1.2-5.4,4.3-10.1,8.7-13.3l4.8-3.5"/>
		<line id="XMLID_44_" class="st5" x1="354.3" y1="222.8" x2="348.4" y2="295"/>
		<path id="XMLID_40_" class="st5" d="M383,408.6c0,0-3.9,223.5,0.4,234.6c4.3,11.1,78.3,67.9,82.1,115
			c8.8,108-27.9,228.6-29.6,234.1c-6.6,21.4,19,145.2,13.3,195.2c-5.7,50-26.4,117.2-29.7,141.5c-3.2,24.3-5.6,54.3-5.6,54.3"/>
		<path id="XMLID_29_" class="st5" d="M412.1,673.8c13,13.8,18.6,46.7,16.4,84.3c-2.1,37.6,8.4,197.7,2.4,249.2
			c-6,51.5-18.1,154.4-14.2,193c3.9,38.6,7.1,90.2,2.9,128.7"/>
		<path id="XMLID_27_" class="st5" d="M381.9,639.8c-4.3,11.1-86.7,71.3-90.5,118.4c-8.8,108,27.9,228.6,29.6,234.1
			c6.6,21.4-19,145.2-13.3,195.2c5.7,50,26.4,117.2,29.7,141.5c3.2,24.3,5.6,54.3,5.6,54.3"/>
		<path id="XMLID_26_" class="st5" d="M345.3,676c-13,13.8-19,44.6-16.9,82.2c2.1,37.6-8.4,197.7-2.4,249.2
			c6,51.5,18.1,154.4,14.2,193c-3.9,38.6-7.1,90.2-2.9,128.7"/>
	</g>
	<path id="XMLID_20_" class="st6" d="M384.4,337.4c0,0,4.3,6.4,3.8,7.8c-0.4,1.4-3.7,2.6-7.2,11c-2.3,5.8,0.9,11.3-0.6,12.4
		c-1.6,1.1-5.7,7.9-6.9,10.2c-8.9,16.7,4,34.6,13.3,41.2c9.3,6.5,18.4,6.7,24.3,9.3c8.2,3.5,19,5.8,25.3-5.3c0,0,4.1-8.5-1-24.1
		c-2.9-8.9-6.4-15.4-8.1-17.8c-5.5-7.7-11.2-11.2-13.8-12.6c-1.4-0.7-0.8-3.8,2-5c2.8-1.3,6-0.3,6-0.3l1-4c0,0-3.9-1.3-5.8-0.9
		c-1.9,0.3,2.1-4.2,2.3-7.3c0,0-2.7-2.3-4.4-1.7c0,0-1,3.7-3.5,7.7c0,0,1-9.6-5.9-14.6c0,0,1.6-8.1,2.1-8.8c0,0-3.2-1.7-4.5-1.4
		c0,0-1.9,8.1-2.2,8.3c-0.3,0.2-0.9,1.2-1.5,0.2c-0.6-1-0.8-9.6-0.8-9.6l-4.4,0.5c0,0,1.9,9.3,0.7,9.8c-0.4,0.2-0.8,0.8-1.6,0.1
		c-2.1-1.8-4.3-6.9-4.3-7.3C388.6,334.6,384.4,337.4,384.4,337.4z"/>
	<g id="XMLID_6_" class="st0">
		<circle id="XMLID_18_" class="st7" cx="345.6" cy="96.2" r="13.6"/>
		<circle id="XMLID_15_" class="st7" cx="365.9" cy="84.6" r="14.7"/>
		<circle id="XMLID_13_" class="st7" cx="388.5" cy="83.2" r="16.3"/>
		<circle id="XMLID_12_" class="st7" cx="339.4" cy="101.7" r="8.1"/>
		<circle id="XMLID_11_" class="st7" cx="418.9" cy="101.7" r="8.1"/>
		<circle id="XMLID_10_" class="st7" cx="407.9" cy="90.2" r="11"/>
		<rect id="XMLID_9_" x="339.4" y="96.2" class="st7" width="79.6" height="13.6"/>
		<rect id="XMLID_8_" x="364.8" y="87.2" class="st7" width="14.3" height="17.6"/>
	</g>
</g>
<g id="General_x2F_Altres">
	<g id="XMLID_368_">
		<g id="XMLID_625_">
			<path id="XMLID_656_" class="st8" d="M98.2,248.3h-4.4V247c-0.6,0.5-1.4,0.9-2.3,1.2c-0.9,0.3-2.1,0.5-3.4,0.5
				c-1.7,0-3.3-0.3-4.8-0.9c-1.4-0.6-2.7-1.4-3.7-2.4c-1-1-1.8-2.3-2.4-3.7s-0.9-3.1-0.9-4.9c0-1.6,0.3-3.2,0.8-4.6
				c0.6-1.4,1.4-2.7,2.4-3.8c1-1.1,2.3-1.9,3.7-2.5c1.5-0.6,3.1-0.9,4.8-0.9c1.2,0,2.3,0.1,3.3,0.4s1.9,0.6,2.6,1
				c0.8,0.4,1.4,0.9,2,1.4c0.6,0.5,1.1,1.1,1.5,1.7l-3.6,2.6c-0.3-0.4-0.6-0.7-0.9-1.1c-0.4-0.4-0.8-0.7-1.2-0.9
				c-0.5-0.3-1-0.5-1.6-0.7c-0.6-0.2-1.3-0.2-2-0.2c-1,0-2,0.2-2.8,0.6c-0.9,0.4-1.6,0.9-2.2,1.5c-0.6,0.7-1.1,1.4-1.4,2.4
				c-0.3,0.9-0.5,1.9-0.5,3c0,1.2,0.2,2.2,0.5,3.1s0.9,1.7,1.5,2.4c0.6,0.7,1.4,1.2,2.3,1.5c0.9,0.4,1.8,0.5,2.9,0.5
				c1.3,0,2.4-0.2,3.4-0.6c0.9-0.4,1.6-0.9,2.1-1.4v-2.6H90v-3.8h8.2V248.3z"/>
			<path id="XMLID_654_" class="st8" d="M102.8,248.3v-22.8h10.5v4.3h-5.9v4.8h5.7v4.3h-5.7v5.2h6v4.3H102.8z"/>
			<path id="XMLID_652_" class="st8" d="M122,233.3v15.1h-4.5v-22.8h4.8l9.8,15.3v-15.3h4.5v22.8H132L122,233.3z"/>
			<path id="XMLID_650_" class="st8" d="M141.5,248.3v-22.8h10.5v4.3h-5.9v4.8h5.7v4.3h-5.7v5.2h6v4.3H141.5z"/>
			<path id="XMLID_647_" class="st8" d="M170.4,232c0,1.3-0.3,2.5-0.8,3.4c-0.6,1-1.3,1.7-2.3,2.2l5.4,10.7h-4.9l-4.9-9.8h-2v9.8
				h-4.6v-22.8h7.1c2.3,0,4,0.6,5.2,1.7S170.4,229.9,170.4,232z M160.8,229.5v5.3h2.1c0.8,0,1.5-0.2,1.9-0.7c0.5-0.5,0.7-1.1,0.7-2
				c0-0.8-0.2-1.4-0.7-1.9s-1.1-0.7-1.9-0.7H160.8z"/>
			<path id="XMLID_644_" class="st8" d="M189.2,242.1h-7.8l-2.2,6.3h-4.5l8.3-22.8h4.8l8.6,22.8h-4.9L189.2,242.1z M182.8,238.2h5
				l-2.5-6.9L182.8,238.2z"/>
			<path id="XMLID_642_" class="st8" d="M199.4,248.3v-22.8h4.6V244h5.8v4.3H199.4z"/>
			<path id="XMLID_640_" class="st8" d="M215.4,254.1h-4.1l11.4-29.9h4.1L215.4,254.1z"/>
			<path id="XMLID_637_" class="st8" d="M240.7,242.1h-7.8l-2.2,6.3h-4.5l8.3-22.8h4.8l8.6,22.8H243L240.7,242.1z M234.3,238.2h5
				l-2.5-6.9L234.3,238.2z"/>
			<path id="XMLID_635_" class="st8" d="M250.9,248.3v-22.8h4.6V244h5.8v4.3H250.9z"/>
			<path id="XMLID_633_" class="st8" d="M270.8,229.8v18.5h-4.6v-18.5H262v-4.3h12.9v4.3H270.8z"/>
			<path id="XMLID_630_" class="st8" d="M292.7,232c0,1.3-0.3,2.5-0.8,3.4c-0.6,1-1.3,1.7-2.3,2.2l5.4,10.7h-4.9l-4.9-9.8h-2v9.8
				h-4.6v-22.8h7.1c2.3,0,4,0.6,5.2,1.7S292.7,229.9,292.7,232z M283.2,229.5v5.3h2.1c0.8,0,1.5-0.2,1.9-0.7c0.5-0.5,0.7-1.1,0.7-2
				c0-0.8-0.2-1.4-0.7-1.9s-1.1-0.7-1.9-0.7H283.2z"/>
			<path id="XMLID_628_" class="st8" d="M297.7,248.3v-22.8h10.5v4.3h-5.9v4.8h5.7v4.3h-5.7v5.2h6v4.3H297.7z"/>
			<path id="XMLID_626_" class="st8" d="M316.5,231.3c0,0.6,0.2,1.1,0.5,1.5c0.3,0.4,0.9,0.8,1.6,1.1c0.5,0.2,1.1,0.5,1.6,0.7
				s1.1,0.5,1.8,0.7c1.4,0.6,2.5,1.4,3.2,2.4c0.8,1,1.2,2.3,1.2,3.9c0,1.1-0.2,2.1-0.6,3s-0.9,1.6-1.6,2.2s-1.5,1.1-2.4,1.4
				c-0.9,0.3-1.9,0.5-3,0.5c-1.5,0-2.8-0.2-3.7-0.7c-1-0.5-1.7-1-2.3-1.7s-0.9-1.5-1.1-2.4c-0.2-0.9-0.3-1.8-0.2-2.7h4.4
				c0,0.5,0,0.9,0.1,1.3c0.1,0.4,0.3,0.8,0.5,1.1c0.2,0.3,0.5,0.6,0.9,0.8s0.8,0.3,1.4,0.3c0.8,0,1.5-0.2,2-0.7
				c0.5-0.4,0.8-1.1,0.8-2c0-0.8-0.2-1.4-0.7-1.8c-0.4-0.4-1-0.8-1.8-1.1c-0.6-0.3-1.3-0.6-2-0.8c-0.7-0.2-1.3-0.5-2-0.9
				c-1.1-0.6-2-1.4-2.5-2.4c-0.6-1-0.9-2.2-0.9-3.6c0-0.9,0.2-1.8,0.5-2.6s0.8-1.5,1.4-2c0.6-0.6,1.3-1,2.2-1.3
				c0.9-0.3,1.8-0.5,2.9-0.5c1.3,0,2.4,0.2,3.3,0.5s1.6,0.9,2.1,1.5s0.9,1.3,1.1,2.2s0.3,1.7,0.3,2.6h-4.2c0-0.8-0.2-1.5-0.7-2
				s-1.1-0.8-1.9-0.8c-0.8,0-1.4,0.2-1.8,0.7C316.8,230.1,316.5,230.7,316.5,231.3z"/>
		</g>
	</g>
	<g id="XMLID_73_">
		<g id="XMLID_212_">
			<g id="XMLID_1542_">
				<path id="XMLID_1696_" class="st8" d="M87.5,299.8h-3.2l-4.6-12.4v12.4h-3.1v-16.6h5l4.4,12.3l4.4-12.3h4.8v16.6h-3.2v-12.4
					L87.5,299.8z"/>
				<path id="XMLID_1693_" class="st8" d="M98.1,293.4c0-1,0.2-1.8,0.5-2.7c0.3-0.8,0.8-1.5,1.4-2.1c0.6-0.6,1.3-1.1,2.1-1.4
					s1.7-0.5,2.7-0.5c1,0,1.9,0.2,2.8,0.5s1.5,0.8,2.1,1.4c0.6,0.6,1,1.3,1.4,2.1c0.3,0.8,0.5,1.7,0.5,2.6s-0.2,1.8-0.5,2.6
					c-0.3,0.8-0.8,1.5-1.4,2.1c-0.6,0.6-1.3,1.1-2.1,1.4s-1.7,0.5-2.7,0.5c-1,0-1.9-0.2-2.7-0.5c-0.8-0.3-1.5-0.8-2.1-1.4
					c-0.6-0.6-1-1.3-1.4-2.1C98.2,295.2,98.1,294.4,98.1,293.4z M101.3,293.4c0,0.5,0.1,1,0.3,1.5s0.4,0.8,0.7,1.2
					c0.3,0.3,0.7,0.6,1.1,0.8c0.4,0.2,0.9,0.3,1.4,0.3c0.5,0,1-0.1,1.4-0.3c0.4-0.2,0.8-0.4,1.1-0.8s0.5-0.7,0.7-1.2
					c0.2-0.5,0.3-0.9,0.3-1.5s-0.1-1-0.3-1.5s-0.4-0.9-0.7-1.2c-0.3-0.3-0.7-0.6-1.1-0.8c-0.4-0.2-0.9-0.3-1.4-0.3
					c-0.5,0-1,0.1-1.4,0.3c-0.4,0.2-0.8,0.4-1.1,0.8c-0.3,0.3-0.5,0.7-0.7,1.2S101.3,292.9,101.3,293.4z"/>
				<path id="XMLID_1691_" class="st8" d="M117.3,299.8h-3.2v-17.5h3.2V299.8z"/>
				<path id="XMLID_1687_" class="st8" d="M123.3,294.4c0.1,0.8,0.4,1.5,1,2c0.6,0.5,1.3,0.7,2.2,0.7c0.8,0,1.5-0.2,2-0.5
					c0.5-0.4,0.9-0.8,1.3-1.3l2.4,1.4c-0.2,0.4-0.4,0.8-0.8,1.2c-0.3,0.4-0.7,0.8-1.2,1.1c-0.5,0.3-1,0.6-1.6,0.8s-1.3,0.3-2.1,0.3
					c-1,0-1.9-0.2-2.7-0.5c-0.8-0.3-1.5-0.7-2.1-1.3c-0.6-0.6-1-1.3-1.3-2.1c-0.3-0.8-0.5-1.7-0.5-2.8c0-1,0.2-1.8,0.5-2.7
					c0.3-0.8,0.7-1.5,1.3-2.1c0.6-0.6,1.2-1.1,2-1.4s1.6-0.5,2.6-0.5c1,0,1.8,0.2,2.6,0.5s1.4,0.7,2,1.3c0.5,0.6,1,1.2,1.3,2
					c0.3,0.8,0.4,1.7,0.4,2.6c0,0.2,0,0.4,0,0.6c0,0.2,0,0.5,0,0.7H123.3z M126.1,282.8l1.8,3.3h-3l-1.9-3.3H126.1z M126.2,289.5
					c-0.8,0-1.5,0.2-2,0.7c-0.5,0.5-0.8,1.1-0.9,1.8h5.8c-0.1-0.7-0.4-1.3-0.9-1.8C127.8,289.7,127.1,289.5,126.2,289.5z"/>
				<path id="XMLID_1685_" class="st8" d="M137.8,290.4c0,0.6,0.4,1,1.1,1.2c0.3,0.1,0.6,0.2,0.9,0.2c0.3,0.1,0.6,0.1,0.9,0.2
					c0.5,0.2,1,0.3,1.3,0.6s0.7,0.5,1,0.8c0.3,0.3,0.4,0.7,0.6,1.1c0.1,0.4,0.2,0.9,0.2,1.5c0,0.7-0.1,1.2-0.4,1.7
					c-0.2,0.5-0.6,0.9-1,1.2c-0.4,0.3-0.9,0.6-1.5,0.8c-0.6,0.2-1.2,0.3-1.8,0.3c-0.9,0-1.6-0.1-2.2-0.4c-0.6-0.2-1.1-0.6-1.4-1
					c-0.4-0.4-0.6-0.9-0.7-1.4c-0.1-0.5-0.2-1.1-0.2-1.6h3.1c0,0.5,0.1,0.9,0.3,1.2s0.6,0.5,1.2,0.5c0.4,0,0.8-0.1,1.1-0.3
					c0.3-0.2,0.4-0.5,0.4-0.9c0-0.4-0.1-0.6-0.3-0.8s-0.5-0.4-1-0.5c-0.4-0.1-0.7-0.2-1-0.3s-0.6-0.2-1-0.3c-0.9-0.3-1.6-0.8-2-1.4
					c-0.4-0.6-0.7-1.4-0.7-2.4c0-0.5,0.1-1,0.3-1.5c0.2-0.5,0.5-0.9,0.9-1.2c0.4-0.3,0.9-0.6,1.4-0.8c0.5-0.2,1.1-0.3,1.8-0.3
					c1.4,0,2.4,0.3,3.2,1c0.8,0.7,1.1,1.7,1.2,3h-3c0-0.5-0.1-0.9-0.4-1.2c-0.2-0.3-0.6-0.4-1.1-0.4c-0.4,0-0.7,0.1-0.9,0.3
					S137.8,290.1,137.8,290.4z"/>
				<path id="XMLID_1683_" class="st8" d="M149.8,287h2v2.7h-2v6c0,0.5,0.1,0.8,0.3,1c0.2,0.2,0.5,0.3,1,0.3h0.7v2.7
					c0,0-0.2,0-0.5,0.1s-0.7,0.1-1.3,0.1c-1.2,0-2.1-0.3-2.6-0.9c-0.5-0.6-0.8-1.4-0.8-2.5v-6.9h-1.2V287h1.2v-2h3.2V287z"/>
				<path id="XMLID_1680_" class="st8" d="M156.1,286.2c-0.5,0-1-0.2-1.4-0.6s-0.6-0.8-0.6-1.3c0-0.5,0.2-1,0.6-1.4s0.8-0.6,1.4-0.6
					c0.5,0,1,0.2,1.4,0.6s0.6,0.8,0.6,1.4c0,0.5-0.2,1-0.6,1.3S156.6,286.2,156.1,286.2z M157.7,299.8h-3.2V287h3.2V299.8z"/>
				<path id="XMLID_1677_" class="st8" d="M163.7,294.4c0.1,0.8,0.4,1.5,1,2c0.6,0.5,1.3,0.7,2.2,0.7c0.8,0,1.5-0.2,2-0.5
					c0.5-0.4,0.9-0.8,1.3-1.3l2.4,1.4c-0.2,0.4-0.4,0.8-0.8,1.2c-0.3,0.4-0.7,0.8-1.2,1.1c-0.5,0.3-1,0.6-1.6,0.8s-1.3,0.3-2.1,0.3
					c-1,0-1.9-0.2-2.7-0.5c-0.8-0.3-1.5-0.7-2.1-1.3c-0.6-0.6-1-1.3-1.3-2.1c-0.3-0.8-0.5-1.7-0.5-2.8c0-1,0.2-1.8,0.5-2.7
					c0.3-0.8,0.7-1.5,1.3-2.1c0.6-0.6,1.2-1.1,2-1.4s1.6-0.5,2.6-0.5c1,0,1.8,0.2,2.6,0.5s1.4,0.7,2,1.3c0.5,0.6,1,1.2,1.3,2
					c0.3,0.8,0.4,1.7,0.4,2.6c0,0.2,0,0.4,0,0.6c0,0.2,0,0.5,0,0.7H163.7z M166.6,289.5c-0.8,0-1.5,0.2-2,0.7
					c-0.5,0.5-0.8,1.1-0.9,1.8h5.8c-0.1-0.7-0.4-1.3-0.9-1.8C168.2,289.7,167.5,289.5,166.6,289.5z"/>
				<path id="XMLID_1675_" class="st8" d="M178.1,290.4c0,0.6,0.4,1,1.1,1.2c0.3,0.1,0.6,0.2,0.9,0.2c0.3,0.1,0.6,0.1,0.9,0.2
					c0.5,0.2,1,0.3,1.3,0.6s0.7,0.5,1,0.8c0.3,0.3,0.4,0.7,0.6,1.1c0.1,0.4,0.2,0.9,0.2,1.5c0,0.7-0.1,1.2-0.4,1.7
					c-0.2,0.5-0.6,0.9-1,1.2c-0.4,0.3-0.9,0.6-1.5,0.8c-0.6,0.2-1.2,0.3-1.8,0.3c-0.9,0-1.6-0.1-2.2-0.4c-0.6-0.2-1.1-0.6-1.4-1
					c-0.4-0.4-0.6-0.9-0.7-1.4c-0.1-0.5-0.2-1.1-0.2-1.6h3.1c0,0.5,0.1,0.9,0.3,1.2s0.6,0.5,1.2,0.5c0.4,0,0.8-0.1,1.1-0.3
					c0.3-0.2,0.4-0.5,0.4-0.9c0-0.4-0.1-0.6-0.3-0.8s-0.5-0.4-1-0.5c-0.4-0.1-0.7-0.2-1-0.3s-0.6-0.2-1-0.3c-0.9-0.3-1.6-0.8-2-1.4
					c-0.4-0.6-0.7-1.4-0.7-2.4c0-0.5,0.1-1,0.3-1.5c0.2-0.5,0.5-0.9,0.9-1.2c0.4-0.3,0.9-0.6,1.4-0.8c0.5-0.2,1.1-0.3,1.8-0.3
					c1.4,0,2.4,0.3,3.2,1c0.8,0.7,1.1,1.7,1.2,3h-3c0-0.5-0.1-0.9-0.4-1.2c-0.2-0.3-0.6-0.4-1.1-0.4c-0.4,0-0.7,0.1-0.9,0.3
					S178.1,290.1,178.1,290.4z"/>
				<path id="XMLID_1673_" class="st8" d="M187.6,299.9c-0.4-0.1-0.8-0.3-1-0.7s-0.4-0.7-0.4-1.2c0-0.6,0.2-1.1,0.6-1.5
					c0.4-0.4,0.9-0.6,1.5-0.6s1.1,0.2,1.5,0.6c0.4,0.4,0.6,0.9,0.6,1.5c0,0.3,0,0.6-0.1,0.9c-0.1,0.3-0.2,0.6-0.4,0.9l-1.3,2.6h-2.2
					L187.6,299.9z"/>
				<path id="XMLID_1670_" class="st8" d="M200.6,294.4c0.1,0.8,0.4,1.5,1,2c0.6,0.5,1.3,0.7,2.2,0.7c0.8,0,1.5-0.2,2-0.5
					c0.5-0.4,0.9-0.8,1.3-1.3l2.4,1.4c-0.2,0.4-0.4,0.8-0.8,1.2c-0.3,0.4-0.7,0.8-1.2,1.1c-0.5,0.3-1,0.6-1.6,0.8s-1.3,0.3-2.1,0.3
					c-1,0-1.9-0.2-2.7-0.5c-0.8-0.3-1.5-0.7-2.1-1.3c-0.6-0.6-1-1.3-1.3-2.1c-0.3-0.8-0.5-1.7-0.5-2.8c0-1,0.2-1.8,0.5-2.7
					c0.3-0.8,0.7-1.5,1.3-2.1c0.6-0.6,1.2-1.1,2-1.4s1.6-0.5,2.6-0.5c1,0,1.8,0.2,2.6,0.5s1.4,0.7,2,1.3c0.5,0.6,1,1.2,1.3,2
					c0.3,0.8,0.4,1.7,0.4,2.6c0,0.2,0,0.4,0,0.6c0,0.2,0,0.5,0,0.7H200.6z M203.5,289.5c-0.8,0-1.5,0.2-2,0.7
					c-0.5,0.5-0.8,1.1-0.9,1.8h5.8c-0.1-0.7-0.4-1.3-0.9-1.8C205.1,289.7,204.4,289.5,203.5,289.5z"/>
				<path id="XMLID_1668_" class="st8" d="M215.1,290.4c0,0.6,0.4,1,1.1,1.2c0.3,0.1,0.6,0.2,0.9,0.2c0.3,0.1,0.6,0.1,0.9,0.2
					c0.5,0.2,1,0.3,1.3,0.6s0.7,0.5,1,0.8c0.3,0.3,0.4,0.7,0.6,1.1c0.1,0.4,0.2,0.9,0.2,1.5c0,0.7-0.1,1.2-0.4,1.7
					c-0.2,0.5-0.6,0.9-1,1.2c-0.4,0.3-0.9,0.6-1.5,0.8c-0.6,0.2-1.2,0.3-1.8,0.3c-0.9,0-1.6-0.1-2.2-0.4c-0.6-0.2-1.1-0.6-1.4-1
					c-0.4-0.4-0.6-0.9-0.7-1.4c-0.1-0.5-0.2-1.1-0.2-1.6h3.1c0,0.5,0.1,0.9,0.3,1.2s0.6,0.5,1.2,0.5c0.4,0,0.8-0.1,1.1-0.3
					c0.3-0.2,0.4-0.5,0.4-0.9c0-0.4-0.1-0.6-0.3-0.8s-0.5-0.4-1-0.5c-0.4-0.1-0.7-0.2-1-0.3s-0.6-0.2-1-0.3c-0.9-0.3-1.6-0.8-2-1.4
					c-0.4-0.6-0.7-1.4-0.7-2.4c0-0.5,0.1-1,0.3-1.5c0.2-0.5,0.5-0.9,0.9-1.2c0.4-0.3,0.9-0.6,1.4-0.8c0.5-0.2,1.1-0.3,1.8-0.3
					c1.4,0,2.4,0.3,3.2,1c0.8,0.7,1.1,1.7,1.2,3h-3c0-0.5-0.1-0.9-0.4-1.2c-0.2-0.3-0.6-0.4-1.1-0.4c-0.4,0-0.7,0.1-0.9,0.3
					S215.1,290.1,215.1,290.4z"/>
				<path id="XMLID_1666_" class="st8" d="M227.1,287h2v2.7h-2v6c0,0.5,0.1,0.8,0.3,1c0.2,0.2,0.5,0.3,1,0.3h0.7v2.7
					c0,0-0.2,0-0.5,0.1s-0.7,0.1-1.3,0.1c-1.2,0-2.1-0.3-2.6-0.9c-0.5-0.6-0.8-1.4-0.8-2.5v-6.9h-1.2V287h1.2v-2h3.2V287z"/>
				<path id="XMLID_1664_" class="st8" d="M237.5,290.3h-0.8c-0.6,0-1.1,0.1-1.3,0.4c-0.2,0.3-0.4,0.7-0.4,1.3v7.8h-3.2V287h3.2v1
					c0.2-0.3,0.5-0.6,0.9-0.8c0.4-0.2,0.9-0.3,1.6-0.3V290.3z"/>
				<path id="XMLID_1660_" class="st8" d="M242.5,294.4c0.1,0.8,0.4,1.5,1,2c0.6,0.5,1.3,0.7,2.2,0.7c0.8,0,1.5-0.2,2-0.5
					c0.5-0.4,0.9-0.8,1.3-1.3l2.4,1.4c-0.2,0.4-0.4,0.8-0.8,1.2c-0.3,0.4-0.7,0.8-1.2,1.1c-0.5,0.3-1,0.6-1.6,0.8
					c-0.6,0.2-1.3,0.3-2.1,0.3c-1,0-1.9-0.2-2.7-0.5c-0.8-0.3-1.5-0.7-2.1-1.3c-0.6-0.6-1-1.3-1.3-2.1c-0.3-0.8-0.5-1.7-0.5-2.8
					c0-1,0.2-1.8,0.5-2.7c0.3-0.8,0.7-1.5,1.3-2.1c0.6-0.6,1.2-1.1,2-1.4s1.6-0.5,2.6-0.5c1,0,1.8,0.2,2.6,0.5
					c0.8,0.3,1.4,0.7,2,1.3c0.5,0.6,1,1.2,1.3,2c0.3,0.8,0.4,1.7,0.4,2.6c0,0.2,0,0.4,0,0.6c0,0.2,0,0.5,0,0.7H242.5z M245.2,282.8
					l1.8,3.3h-3l-1.9-3.3H245.2z M245.4,289.5c-0.8,0-1.5,0.2-2,0.7c-0.5,0.5-0.8,1.1-0.9,1.8h5.8c-0.1-0.7-0.4-1.3-0.9-1.8
					S246.3,289.5,245.4,289.5z"/>
				<path id="XMLID_1658_" class="st8" d="M256.9,290.4c0,0.6,0.4,1,1.1,1.2c0.3,0.1,0.6,0.2,0.9,0.2c0.3,0.1,0.6,0.1,0.9,0.2
					c0.5,0.2,1,0.3,1.3,0.6c0.4,0.2,0.7,0.5,1,0.8c0.3,0.3,0.4,0.7,0.6,1.1c0.1,0.4,0.2,0.9,0.2,1.5c0,0.7-0.1,1.2-0.4,1.7
					c-0.2,0.5-0.6,0.9-1,1.2s-0.9,0.6-1.5,0.8c-0.6,0.2-1.2,0.3-1.8,0.3c-0.9,0-1.6-0.1-2.2-0.4c-0.6-0.2-1.1-0.6-1.4-1
					c-0.4-0.4-0.6-0.9-0.7-1.4c-0.1-0.5-0.2-1.1-0.2-1.6h3.1c0,0.5,0.1,0.9,0.3,1.2c0.2,0.3,0.6,0.5,1.2,0.5c0.4,0,0.8-0.1,1.1-0.3
					c0.3-0.2,0.4-0.5,0.4-0.9c0-0.4-0.1-0.6-0.3-0.8c-0.2-0.2-0.5-0.4-1-0.5c-0.4-0.1-0.7-0.2-1-0.3c-0.3-0.1-0.6-0.2-1-0.3
					c-0.9-0.3-1.6-0.8-2-1.4c-0.4-0.6-0.7-1.4-0.7-2.4c0-0.5,0.1-1,0.3-1.5c0.2-0.5,0.5-0.9,0.9-1.2c0.4-0.3,0.9-0.6,1.4-0.8
					c0.5-0.2,1.1-0.3,1.8-0.3c1.4,0,2.4,0.3,3.2,1c0.8,0.7,1.1,1.7,1.2,3h-3c0-0.5-0.1-0.9-0.4-1.2c-0.2-0.3-0.6-0.4-1.1-0.4
					c-0.4,0-0.7,0.1-0.9,0.3S256.9,290.1,256.9,290.4z"/>
				<path id="XMLID_1655_" class="st8" d="M86.9,324c0,0.8-0.1,1.4-0.4,2s-0.6,1.1-1,1.5c-0.4,0.4-1,0.8-1.6,1s-1.3,0.3-2.1,0.3H80
					v6.9h-3.3v-16.6h5.1c1.7,0,2.9,0.4,3.8,1.2C86.5,321.3,86.9,322.4,86.9,324z M80,322.1v3.9h1.6c0.6,0,1.1-0.2,1.4-0.5
					s0.5-0.8,0.5-1.4c0-0.6-0.2-1.1-0.5-1.4c-0.3-0.3-0.8-0.5-1.4-0.5H80z"/>
				<path id="XMLID_1652_" class="st8" d="M91.1,322.2c-0.5,0-1-0.2-1.4-0.6s-0.6-0.8-0.6-1.3c0-0.5,0.2-1,0.6-1.4s0.8-0.6,1.4-0.6
					c0.5,0,1,0.2,1.4,0.6s0.6,0.8,0.6,1.4c0,0.5-0.2,1-0.6,1.3S91.6,322.2,91.1,322.2z M92.7,335.8h-3.2V323h3.2V335.8z"/>
				<path id="XMLID_1650_" class="st8" d="M99.5,323h2v2.7h-2v6c0,0.5,0.1,0.8,0.3,1c0.2,0.2,0.5,0.3,1,0.3h0.7v2.7
					c0,0-0.2,0-0.5,0.1s-0.7,0.1-1.3,0.1c-1.2,0-2.1-0.3-2.6-0.9c-0.5-0.6-0.8-1.4-0.8-2.5v-6.9h-1.2V323h1.2v-2h3.2V323z"/>
				<path id="XMLID_1647_" class="st8" d="M107.4,335.8c0,0.6-0.1,1.2-0.2,1.7c-0.1,0.5-0.4,1-0.7,1.3c-0.3,0.4-0.7,0.7-1.3,0.9
					s-1.2,0.3-1.9,0.3h-0.9v-2.8h0.6c0.3,0,0.5,0,0.7-0.1c0.2-0.1,0.3-0.2,0.4-0.3c0.1-0.1,0.1-0.3,0.2-0.5c0-0.2,0-0.4,0-0.6V323
					h3.2V335.8z M105.8,322.2c-0.5,0-1-0.2-1.4-0.6s-0.6-0.8-0.6-1.3c0-0.5,0.2-1,0.6-1.4s0.8-0.6,1.4-0.6c0.5,0,1,0.2,1.4,0.6
					s0.6,0.8,0.6,1.4c0,0.5-0.2,1-0.6,1.3S106.3,322.2,105.8,322.2z"/>
				<path id="XMLID_1644_" class="st8" d="M110,329.4c0-1,0.2-1.8,0.5-2.7c0.3-0.8,0.8-1.5,1.4-2.1c0.6-0.6,1.3-1.1,2.1-1.4
					s1.7-0.5,2.7-0.5c1,0,1.9,0.2,2.8,0.5s1.5,0.8,2.1,1.4c0.6,0.6,1,1.3,1.4,2.1c0.3,0.8,0.5,1.7,0.5,2.6s-0.2,1.8-0.5,2.6
					c-0.3,0.8-0.8,1.5-1.4,2.1c-0.6,0.6-1.3,1.1-2.1,1.4s-1.7,0.5-2.7,0.5c-1,0-1.9-0.2-2.7-0.5c-0.8-0.3-1.5-0.8-2.1-1.4
					c-0.6-0.6-1-1.3-1.4-2.1C110.2,331.3,110,330.4,110,329.4z M113.2,329.4c0,0.5,0.1,1,0.3,1.5s0.4,0.8,0.7,1.2
					c0.3,0.3,0.7,0.6,1.1,0.8c0.4,0.2,0.9,0.3,1.4,0.3c0.5,0,1-0.1,1.4-0.3c0.4-0.2,0.8-0.4,1.1-0.8s0.5-0.7,0.7-1.2
					c0.2-0.5,0.3-0.9,0.3-1.5s-0.1-1-0.3-1.5s-0.4-0.9-0.7-1.2c-0.3-0.3-0.7-0.6-1.1-0.8c-0.4-0.2-0.9-0.3-1.4-0.3
					c-0.5,0-1,0.1-1.4,0.3c-0.4,0.2-0.8,0.4-1.1,0.8c-0.3,0.3-0.5,0.7-0.7,1.2S113.2,328.9,113.2,329.4z"/>
				<path id="XMLID_1642_" class="st8" d="M131.8,326.3H131c-0.6,0-1.1,0.1-1.3,0.4c-0.2,0.3-0.4,0.7-0.4,1.3v7.8h-3.2V323h3.2v1
					c0.2-0.3,0.5-0.6,0.9-0.8c0.4-0.2,0.9-0.3,1.6-0.3V326.3z"/>
				<path id="XMLID_1639_" class="st8" d="M142.1,330.4c0.1,0.8,0.4,1.5,1,2c0.6,0.5,1.3,0.7,2.2,0.7c0.8,0,1.5-0.2,2-0.5
					c0.5-0.4,0.9-0.8,1.3-1.3l2.4,1.4c-0.2,0.4-0.4,0.8-0.8,1.2c-0.3,0.4-0.7,0.8-1.2,1.1c-0.5,0.3-1,0.6-1.6,0.8s-1.3,0.3-2.1,0.3
					c-1,0-1.9-0.2-2.7-0.5c-0.8-0.3-1.5-0.7-2.1-1.3c-0.6-0.6-1-1.3-1.3-2.1c-0.3-0.8-0.5-1.7-0.5-2.8c0-1,0.2-1.8,0.5-2.7
					c0.3-0.8,0.7-1.5,1.3-2.1c0.6-0.6,1.2-1.1,2-1.4s1.6-0.5,2.6-0.5c1,0,1.8,0.2,2.6,0.5s1.4,0.7,2,1.3c0.5,0.6,1,1.2,1.3,2
					c0.3,0.8,0.4,1.7,0.4,2.6c0,0.2,0,0.4,0,0.6c0,0.2,0,0.5,0,0.7H142.1z M145,325.5c-0.8,0-1.5,0.2-2,0.7
					c-0.5,0.5-0.8,1.1-0.9,1.8h5.8c-0.1-0.7-0.4-1.3-0.9-1.8C146.6,325.7,145.9,325.5,145,325.5z"/>
				<path id="XMLID_1637_" class="st8" d="M156.5,326.4c0,0.6,0.4,1,1.1,1.2c0.3,0.1,0.6,0.2,0.9,0.2c0.3,0.1,0.6,0.1,0.9,0.2
					c0.5,0.2,1,0.3,1.3,0.6s0.7,0.5,1,0.8c0.3,0.3,0.4,0.7,0.6,1.1c0.1,0.4,0.2,0.9,0.2,1.5c0,0.7-0.1,1.2-0.4,1.7
					c-0.2,0.5-0.6,0.9-1,1.2c-0.4,0.3-0.9,0.6-1.5,0.8c-0.6,0.2-1.2,0.3-1.8,0.3c-0.9,0-1.6-0.1-2.2-0.4c-0.6-0.2-1.1-0.6-1.4-1
					c-0.4-0.4-0.6-0.9-0.7-1.4c-0.1-0.5-0.2-1.1-0.2-1.6h3.1c0,0.5,0.1,0.9,0.3,1.2s0.6,0.5,1.2,0.5c0.4,0,0.8-0.1,1.1-0.3
					c0.3-0.2,0.4-0.5,0.4-0.9c0-0.4-0.1-0.6-0.3-0.8s-0.5-0.4-1-0.5c-0.4-0.1-0.7-0.2-1-0.3s-0.6-0.2-1-0.3c-0.9-0.3-1.6-0.8-2-1.4
					c-0.4-0.6-0.7-1.4-0.7-2.4c0-0.5,0.1-1,0.3-1.5c0.2-0.5,0.5-0.9,0.9-1.2c0.4-0.3,0.9-0.6,1.4-0.8c0.5-0.2,1.1-0.3,1.8-0.3
					c1.4,0,2.4,0.3,3.2,1c0.8,0.7,1.1,1.7,1.2,3h-3c0-0.5-0.1-0.9-0.4-1.2c-0.2-0.3-0.6-0.4-1.1-0.4c-0.4,0-0.7,0.1-0.9,0.3
					S156.5,326.1,156.5,326.4z"/>
				<path id="XMLID_1635_" class="st8" d="M168.6,323h2v2.7h-2v6c0,0.5,0.1,0.8,0.3,1c0.2,0.2,0.5,0.3,1,0.3h0.7v2.7
					c0,0-0.2,0-0.5,0.1s-0.7,0.1-1.3,0.1c-1.2,0-2.1-0.3-2.6-0.9c-0.5-0.6-0.8-1.4-0.8-2.5v-6.9h-1.2V323h1.2v-2h3.2V323z"/>
				<path id="XMLID_1632_" class="st8" d="M172.6,331.6c0-0.6,0.1-1.1,0.3-1.7s0.5-1,0.9-1.3c0.4-0.4,0.8-0.7,1.4-0.9
					c0.5-0.2,1.2-0.3,1.8-0.3c0.6,0,1.1,0.1,1.4,0.2s0.7,0.2,0.8,0.3v-0.6c0-0.6-0.1-1-0.4-1.4s-0.7-0.5-1.3-0.5
					c-0.3,0-0.6,0-0.8,0.1s-0.4,0.2-0.5,0.3c-0.1,0.1-0.2,0.3-0.3,0.5c0,0.2-0.1,0.4-0.1,0.5h-3c0-1.2,0.4-2.2,1.2-2.9
					c0.7-0.7,1.9-1.1,3.4-1.1c0.9,0,1.7,0.1,2.3,0.4s1.1,0.6,1.5,1c0.4,0.4,0.6,0.9,0.8,1.5c0.2,0.6,0.2,1.3,0.2,2v8.1h-2.7V335
					c-0.2,0.2-0.5,0.4-0.9,0.6c-0.4,0.2-1,0.3-1.8,0.3c-0.6,0-1.2-0.1-1.8-0.3c-0.5-0.2-1-0.5-1.4-0.9c-0.4-0.4-0.7-0.8-0.9-1.4
					C172.7,332.9,172.6,332.3,172.6,331.6z M175.6,331.6c0,0.5,0.2,1,0.5,1.3c0.3,0.3,0.8,0.5,1.4,0.5c0.5,0,1-0.2,1.3-0.5
					c0.4-0.3,0.5-0.8,0.5-1.3s-0.2-1-0.5-1.3c-0.4-0.3-0.8-0.5-1.3-0.5c-0.6,0-1,0.2-1.3,0.5C175.8,330.7,175.6,331.1,175.6,331.6z"
					/>
				<path id="XMLID_1630_" class="st8" d="M189,323h2v2.7h-2v6c0,0.5,0.1,0.8,0.3,1c0.2,0.2,0.5,0.3,1,0.3h0.7v2.7
					c0,0-0.2,0-0.5,0.1s-0.7,0.1-1.3,0.1c-1.2,0-2.1-0.3-2.6-0.9c-0.5-0.6-0.8-1.4-0.8-2.5v-6.9h-1.2V323h1.2v-2h3.2V323z"/>
				<path id="XMLID_1627_" class="st8" d="M208.5,334.5c-0.4,0.4-0.9,0.8-1.6,1.1s-1.4,0.4-2.2,0.4c-1,0-1.9-0.2-2.7-0.5
					c-0.8-0.3-1.5-0.8-2.1-1.4c-0.6-0.6-1-1.3-1.3-2.1c-0.3-0.8-0.5-1.7-0.5-2.7c0-0.9,0.2-1.8,0.5-2.6c0.3-0.8,0.8-1.5,1.3-2.1
					c0.6-0.6,1.3-1.1,2.1-1.4c0.8-0.3,1.7-0.5,2.6-0.5c0.8,0,1.5,0.1,2.2,0.3c0.6,0.2,1.1,0.5,1.5,0.9v-5.7h3.2v17.5h-3V334.5z
					 M201.2,329.4c0,0.5,0.1,1,0.3,1.5c0.2,0.5,0.4,0.8,0.7,1.2c0.3,0.3,0.7,0.6,1.1,0.8c0.4,0.2,0.9,0.3,1.4,0.3
					c0.5,0,1-0.1,1.5-0.3c0.4-0.2,0.8-0.5,1.1-0.8c0.3-0.3,0.5-0.7,0.7-1.2s0.3-1,0.3-1.5c0-0.5-0.1-1-0.3-1.5s-0.4-0.9-0.7-1.2
					s-0.7-0.6-1.1-0.8c-0.4-0.2-0.9-0.3-1.4-0.3c-0.5,0-1,0.1-1.5,0.3c-0.4,0.2-0.8,0.5-1.1,0.8c-0.3,0.3-0.6,0.7-0.7,1.2
					S201.2,328.9,201.2,329.4z"/>
				<path id="XMLID_1624_" class="st8" d="M217.5,330.4c0.1,0.8,0.4,1.5,1,2c0.6,0.5,1.3,0.7,2.2,0.7c0.8,0,1.5-0.2,2-0.5
					c0.5-0.4,0.9-0.8,1.3-1.3l2.4,1.4c-0.2,0.4-0.4,0.8-0.8,1.2c-0.3,0.4-0.7,0.8-1.2,1.1c-0.5,0.3-1,0.6-1.6,0.8s-1.3,0.3-2.1,0.3
					c-1,0-1.9-0.2-2.7-0.5c-0.8-0.3-1.5-0.7-2.1-1.3c-0.6-0.6-1-1.3-1.3-2.1c-0.3-0.8-0.5-1.7-0.5-2.8c0-1,0.2-1.8,0.5-2.7
					c0.3-0.8,0.7-1.5,1.3-2.1c0.6-0.6,1.2-1.1,2-1.4s1.6-0.5,2.6-0.5c1,0,1.8,0.2,2.6,0.5s1.4,0.7,2,1.3c0.5,0.6,1,1.2,1.3,2
					c0.3,0.8,0.4,1.7,0.4,2.6c0,0.2,0,0.4,0,0.6c0,0.2,0,0.5,0,0.7H217.5z M220.4,325.5c-0.8,0-1.5,0.2-2,0.7
					c-0.5,0.5-0.8,1.1-0.9,1.8h5.8c-0.1-0.7-0.4-1.3-0.9-1.8C221.9,325.7,221.2,325.5,220.4,325.5z"/>
				<path id="XMLID_1622_" class="st8" d="M236.9,326.4c0,0.6,0.4,1,1.1,1.2c0.3,0.1,0.6,0.2,0.9,0.2c0.3,0.1,0.6,0.1,0.9,0.2
					c0.5,0.2,1,0.3,1.3,0.6s0.7,0.5,1,0.8c0.3,0.3,0.4,0.7,0.6,1.1c0.1,0.4,0.2,0.9,0.2,1.5c0,0.7-0.1,1.2-0.4,1.7
					c-0.2,0.5-0.6,0.9-1,1.2c-0.4,0.3-0.9,0.6-1.5,0.8c-0.6,0.2-1.2,0.3-1.8,0.3c-0.9,0-1.6-0.1-2.2-0.4c-0.6-0.2-1.1-0.6-1.4-1
					c-0.4-0.4-0.6-0.9-0.7-1.4c-0.1-0.5-0.2-1.1-0.2-1.6h3.1c0,0.5,0.1,0.9,0.3,1.2s0.6,0.5,1.2,0.5c0.4,0,0.8-0.1,1.1-0.3
					c0.3-0.2,0.4-0.5,0.4-0.9c0-0.4-0.1-0.6-0.3-0.8s-0.5-0.4-1-0.5c-0.4-0.1-0.7-0.2-1-0.3s-0.6-0.2-1-0.3c-0.9-0.3-1.6-0.8-2-1.4
					c-0.4-0.6-0.7-1.4-0.7-2.4c0-0.5,0.1-1,0.3-1.5c0.2-0.5,0.5-0.9,0.9-1.2c0.4-0.3,0.9-0.6,1.4-0.8c0.5-0.2,1.1-0.3,1.8-0.3
					c1.4,0,2.4,0.3,3.2,1c0.8,0.7,1.1,1.7,1.2,3h-3c0-0.5-0.1-0.9-0.4-1.2c-0.2-0.3-0.6-0.4-1.1-0.4c-0.4,0-0.7,0.1-0.9,0.3
					S236.9,326.1,236.9,326.4z"/>
				<path id="XMLID_1619_" class="st8" d="M245,331.6c0-0.6,0.1-1.1,0.3-1.7c0.2-0.5,0.5-1,0.9-1.3s0.8-0.7,1.4-0.9
					c0.5-0.2,1.2-0.3,1.8-0.3c0.6,0,1.1,0.1,1.4,0.2c0.4,0.1,0.7,0.2,0.8,0.3v-0.6c0-0.6-0.1-1-0.4-1.4s-0.7-0.5-1.3-0.5
					c-0.3,0-0.6,0-0.8,0.1c-0.2,0.1-0.4,0.2-0.5,0.3c-0.1,0.1-0.2,0.3-0.3,0.5c0,0.2-0.1,0.4-0.1,0.5h-3c0-1.2,0.4-2.2,1.2-2.9
					c0.7-0.7,1.9-1.1,3.4-1.1c0.9,0,1.7,0.1,2.3,0.4c0.6,0.2,1.1,0.6,1.5,1c0.4,0.4,0.6,0.9,0.8,1.5c0.2,0.6,0.2,1.3,0.2,2v8.1h-2.7
					V335c-0.2,0.2-0.5,0.4-0.9,0.6c-0.4,0.2-1,0.3-1.8,0.3c-0.6,0-1.2-0.1-1.8-0.3c-0.5-0.2-1-0.5-1.4-0.9c-0.4-0.4-0.7-0.8-0.9-1.4
					C245.1,332.9,245,332.3,245,331.6z M248,331.6c0,0.5,0.2,1,0.5,1.3c0.3,0.3,0.8,0.5,1.4,0.5c0.5,0,1-0.2,1.3-0.5
					c0.4-0.3,0.5-0.8,0.5-1.3s-0.2-1-0.5-1.3c-0.4-0.3-0.8-0.5-1.3-0.5c-0.6,0-1,0.2-1.3,0.5C248.2,330.7,248,331.1,248,331.6z"/>
				<path id="XMLID_1617_" class="st8" d="M261.1,335.8h-3.2v-17.5h3.2V335.8z"/>
				<path id="XMLID_1615_" class="st8" d="M267.4,331c0,0.6,0.1,1.1,0.4,1.5s0.7,0.6,1.3,0.6s1-0.2,1.3-0.6c0.3-0.4,0.5-0.9,0.5-1.5
					v-8h3.2v12.8h-3.2v-1c-0.2,0.2-0.5,0.5-0.9,0.7s-1,0.4-1.8,0.4c-0.7,0-1.3-0.1-1.8-0.3c-0.5-0.2-0.9-0.5-1.2-0.9
					s-0.6-0.9-0.7-1.4c-0.1-0.6-0.2-1.2-0.2-1.8V323h3.2V331z"/>
				<path id="XMLID_1613_" class="st8" d="M280.9,323h2v2.7h-2v6c0,0.5,0.1,0.8,0.3,1c0.2,0.2,0.5,0.3,1,0.3h0.7v2.7
					c0,0-0.2,0-0.5,0.1c-0.3,0.1-0.7,0.1-1.3,0.1c-1.2,0-2.1-0.3-2.6-0.9c-0.5-0.6-0.8-1.4-0.8-2.5v-6.9h-1.2V323h1.2v-2h3.2V323z"
					/>
				<path id="XMLID_1610_" class="st8" d="M300.3,323h3v10.7c0,1.2-0.2,2.2-0.5,3.1c-0.3,0.8-0.8,1.5-1.4,2
					c-0.6,0.5-1.3,0.9-2.2,1.1c-0.8,0.2-1.8,0.3-2.8,0.3c-1,0-1.9-0.1-2.7-0.3c-0.8-0.2-1.5-0.5-2-0.8l1-2.5
					c0.4,0.2,0.9,0.5,1.6,0.7c0.7,0.2,1.4,0.3,2.2,0.3c0.5,0,1-0.1,1.4-0.2c0.4-0.1,0.8-0.3,1.2-0.5c0.3-0.2,0.6-0.5,0.8-0.9
					c0.2-0.3,0.3-0.8,0.3-1.2v-0.2c-0.1,0.2-0.3,0.3-0.5,0.5c-0.2,0.2-0.5,0.3-0.8,0.5c-0.3,0.1-0.6,0.3-1,0.3
					c-0.4,0.1-0.8,0.1-1.2,0.1c-1,0-1.9-0.2-2.7-0.5c-0.8-0.3-1.5-0.8-2.1-1.4c-0.6-0.6-1-1.3-1.4-2.1c-0.3-0.8-0.5-1.7-0.5-2.7
					c0-0.9,0.2-1.8,0.5-2.6s0.8-1.5,1.3-2.1c0.6-0.6,1.3-1.1,2.1-1.4c0.8-0.3,1.7-0.5,2.6-0.5c0.8,0,1.6,0.1,2.2,0.4s1.2,0.6,1.6,1
					V323z M293.1,329.4c0,0.5,0.1,1,0.3,1.5c0.2,0.5,0.4,0.8,0.7,1.2c0.3,0.3,0.7,0.6,1.1,0.8s0.9,0.3,1.4,0.3c0.5,0,1-0.1,1.5-0.3
					s0.8-0.5,1.1-0.8c0.3-0.3,0.5-0.7,0.7-1.2c0.2-0.5,0.3-0.9,0.3-1.5c0-0.5-0.1-1-0.3-1.5c-0.2-0.5-0.4-0.9-0.7-1.2
					s-0.7-0.6-1.1-0.8c-0.4-0.2-0.9-0.3-1.4-0.3c-0.5,0-1,0.1-1.5,0.3c-0.4,0.2-0.8,0.5-1.1,0.8s-0.6,0.7-0.7,1.2
					C293.2,328.4,293.1,328.9,293.1,329.4z"/>
				<path id="XMLID_1607_" class="st8" d="M309.3,330.4c0.1,0.8,0.4,1.5,1,2c0.6,0.5,1.3,0.7,2.2,0.7c0.8,0,1.5-0.2,2-0.5
					c0.5-0.4,0.9-0.8,1.3-1.3l2.4,1.4c-0.2,0.4-0.4,0.8-0.8,1.2c-0.3,0.4-0.7,0.8-1.2,1.1c-0.5,0.3-1,0.6-1.6,0.8
					c-0.6,0.2-1.3,0.3-2.1,0.3c-1,0-1.9-0.2-2.7-0.5c-0.8-0.3-1.5-0.7-2.1-1.3c-0.6-0.6-1-1.3-1.3-2.1s-0.5-1.7-0.5-2.8
					c0-1,0.2-1.8,0.5-2.7s0.7-1.5,1.3-2.1c0.6-0.6,1.2-1.1,2-1.4c0.8-0.3,1.6-0.5,2.6-0.5c1,0,1.8,0.2,2.6,0.5
					c0.8,0.3,1.4,0.7,2,1.3c0.5,0.6,1,1.2,1.3,2c0.3,0.8,0.4,1.7,0.4,2.6c0,0.2,0,0.4,0,0.6c0,0.2,0,0.5,0,0.7H309.3z M312.2,325.5
					c-0.8,0-1.5,0.2-2,0.7c-0.5,0.5-0.8,1.1-0.9,1.8h5.8c-0.1-0.7-0.4-1.3-0.9-1.8C313.8,325.7,313.1,325.5,312.2,325.5z"/>
				<path id="XMLID_1605_" class="st8" d="M327.8,327.8c0-0.6-0.1-1.1-0.4-1.5c-0.3-0.4-0.7-0.5-1.3-0.5c-0.6,0-1,0.2-1.3,0.6
					c-0.3,0.4-0.5,0.9-0.5,1.5v8.1H321V323h3.2v1c0.1-0.1,0.2-0.2,0.3-0.3s0.3-0.2,0.5-0.4c0.2-0.1,0.5-0.2,0.8-0.3s0.7-0.1,1.1-0.1
					c0.8,0,1.4,0.1,1.9,0.4s0.9,0.6,1.2,1s0.5,0.9,0.7,1.4c0.1,0.5,0.2,1.1,0.2,1.8v8.5h-3.2V327.8z"/>
				<path id="XMLID_1602_" class="st8" d="M336.9,330.4c0.1,0.8,0.4,1.5,1,2c0.6,0.5,1.3,0.7,2.2,0.7c0.8,0,1.5-0.2,2-0.5
					c0.5-0.4,0.9-0.8,1.3-1.3l2.4,1.4c-0.2,0.4-0.4,0.8-0.8,1.2c-0.3,0.4-0.7,0.8-1.2,1.1c-0.5,0.3-1,0.6-1.6,0.8
					c-0.6,0.2-1.3,0.3-2.1,0.3c-1,0-1.9-0.2-2.7-0.5s-1.5-0.7-2.1-1.3c-0.6-0.6-1-1.3-1.3-2.1c-0.3-0.8-0.5-1.7-0.5-2.8
					c0-1,0.2-1.8,0.5-2.7c0.3-0.8,0.7-1.5,1.3-2.1c0.6-0.6,1.2-1.1,2-1.4c0.8-0.3,1.6-0.5,2.6-0.5c1,0,1.8,0.2,2.6,0.5
					c0.8,0.3,1.4,0.7,2,1.3c0.5,0.6,1,1.2,1.3,2c0.3,0.8,0.4,1.7,0.4,2.6c0,0.2,0,0.4,0,0.6c0,0.2,0,0.5,0,0.7H336.9z M339.8,325.5
					c-0.8,0-1.5,0.2-2,0.7c-0.5,0.5-0.8,1.1-0.9,1.8h5.8c-0.1-0.7-0.4-1.3-0.9-1.8S340.7,325.5,339.8,325.5z"/>
				<path id="XMLID_1600_" class="st8" d="M354.4,326.3h-0.8c-0.6,0-1.1,0.1-1.3,0.4c-0.2,0.3-0.4,0.7-0.4,1.3v7.8h-3.2V323h3.2v1
					c0.2-0.3,0.5-0.6,0.9-0.8s0.9-0.3,1.6-0.3V326.3z"/>
				<path id="XMLID_1597_" class="st8" d="M356,331.6c0-0.6,0.1-1.1,0.3-1.7c0.2-0.5,0.5-1,0.9-1.3s0.8-0.7,1.4-0.9
					c0.5-0.2,1.2-0.3,1.8-0.3c0.6,0,1.1,0.1,1.4,0.2c0.4,0.1,0.7,0.2,0.8,0.3v-0.6c0-0.6-0.1-1-0.4-1.4s-0.7-0.5-1.3-0.5
					c-0.3,0-0.6,0-0.8,0.1c-0.2,0.1-0.4,0.2-0.5,0.3c-0.1,0.1-0.2,0.3-0.3,0.5c0,0.2-0.1,0.4-0.1,0.5h-3c0-1.2,0.4-2.2,1.2-2.9
					c0.7-0.7,1.9-1.1,3.4-1.1c0.9,0,1.7,0.1,2.3,0.4c0.6,0.2,1.1,0.6,1.5,1c0.4,0.4,0.6,0.9,0.8,1.5c0.2,0.6,0.2,1.3,0.2,2v8.1h-2.7
					V335c-0.2,0.2-0.5,0.4-0.9,0.6c-0.4,0.2-1,0.3-1.8,0.3c-0.6,0-1.2-0.1-1.8-0.3c-0.5-0.2-1-0.5-1.4-0.9c-0.4-0.4-0.7-0.8-0.9-1.4
					C356.1,332.9,356,332.3,356,331.6z M359.1,331.6c0,0.5,0.2,1,0.5,1.3c0.3,0.3,0.8,0.5,1.4,0.5c0.5,0,1-0.2,1.3-0.5
					c0.4-0.3,0.5-0.8,0.5-1.3s-0.2-1-0.5-1.3c-0.4-0.3-0.8-0.5-1.3-0.5c-0.6,0-1,0.2-1.3,0.5C359.2,330.7,359.1,331.1,359.1,331.6z"
					/>
				<path id="XMLID_1595_" class="st8" d="M372.2,335.8h-3.2v-17.5h3.2V335.8z"/>
				<path id="XMLID_1592_" class="st8" d="M86,367.3h-5.7l-1.6,4.6h-3.3l6-16.6h3.5l6.3,16.6h-3.5L86,367.3z M81.4,364.4H85l-1.8-5
					L81.4,364.4z"/>
				<path id="XMLID_1590_" class="st8" d="M96.2,367c0,0.6,0.1,1.1,0.4,1.5s0.7,0.6,1.3,0.6s1-0.2,1.3-0.6c0.3-0.4,0.5-0.9,0.5-1.5
					v-8h3.2v12.8h-3.2v-1c-0.2,0.2-0.5,0.5-0.9,0.7c-0.4,0.3-1,0.4-1.8,0.4c-0.7,0-1.3-0.1-1.8-0.3c-0.5-0.2-0.9-0.5-1.2-0.9
					c-0.3-0.4-0.6-0.9-0.7-1.4c-0.1-0.6-0.2-1.2-0.2-1.8V359h3.2V367z"/>
				<path id="XMLID_1587_" class="st8" d="M115.8,359h3v10.7c0,1.2-0.2,2.2-0.5,3.1c-0.3,0.8-0.8,1.5-1.4,2
					c-0.6,0.5-1.3,0.9-2.2,1.1c-0.8,0.2-1.8,0.3-2.7,0.3c-1,0-1.9-0.1-2.7-0.3c-0.8-0.2-1.5-0.5-2-0.8l1-2.5
					c0.4,0.2,0.9,0.5,1.6,0.7c0.7,0.2,1.4,0.3,2.2,0.3c0.5,0,1-0.1,1.4-0.2c0.4-0.1,0.8-0.3,1.2-0.5c0.3-0.2,0.6-0.5,0.8-0.9
					c0.2-0.3,0.3-0.8,0.3-1.2v-0.2c-0.1,0.2-0.3,0.3-0.5,0.5s-0.5,0.3-0.8,0.5c-0.3,0.1-0.6,0.3-1,0.3s-0.8,0.1-1.2,0.1
					c-1,0-1.9-0.2-2.7-0.5c-0.8-0.3-1.5-0.8-2.1-1.4c-0.6-0.6-1-1.3-1.4-2.1c-0.3-0.8-0.5-1.7-0.5-2.7c0-0.9,0.2-1.8,0.5-2.6
					c0.3-0.8,0.8-1.5,1.3-2.1c0.6-0.6,1.3-1.1,2.1-1.4c0.8-0.3,1.7-0.5,2.6-0.5c0.8,0,1.6,0.1,2.2,0.4s1.2,0.6,1.6,1V359z
					 M108.7,365.4c0,0.5,0.1,1,0.3,1.5c0.2,0.5,0.4,0.8,0.7,1.2c0.3,0.3,0.7,0.6,1.1,0.8c0.4,0.2,0.9,0.3,1.4,0.3
					c0.5,0,1-0.1,1.5-0.3c0.4-0.2,0.8-0.5,1.1-0.8s0.5-0.7,0.7-1.2c0.2-0.5,0.3-0.9,0.3-1.5c0-0.5-0.1-1-0.3-1.5
					c-0.2-0.5-0.4-0.9-0.7-1.2s-0.7-0.6-1.1-0.8c-0.4-0.2-0.9-0.3-1.4-0.3c-0.5,0-1,0.1-1.5,0.3c-0.4,0.2-0.8,0.5-1.1,0.8
					c-0.3,0.3-0.6,0.7-0.7,1.2C108.8,364.4,108.7,364.9,108.7,365.4z"/>
				<path id="XMLID_1585_" class="st8" d="M131.8,371.8h-3.2v-8.1c0-0.6-0.1-1.1-0.4-1.5c-0.3-0.4-0.7-0.6-1.3-0.6
					c-0.6,0-1,0.2-1.3,0.6c-0.3,0.4-0.4,0.9-0.4,1.5v8h-3.2V359h3.2v1c0.2-0.2,0.5-0.4,0.9-0.7s1-0.4,1.9-0.4c0.8,0,1.4,0.1,1.9,0.4
					s0.9,0.6,1.2,1c0.3-0.3,0.7-0.7,1.2-0.9c0.5-0.3,1.2-0.4,2-0.4c0.8,0,1.5,0.1,2,0.4c0.6,0.2,1,0.6,1.3,1
					c0.3,0.4,0.6,0.9,0.7,1.4c0.2,0.5,0.2,1.1,0.2,1.8v8.5h-3.2v-8.1c0-0.6-0.1-1.1-0.4-1.5c-0.3-0.4-0.7-0.5-1.3-0.5
					s-1,0.2-1.3,0.6c-0.3,0.4-0.4,0.9-0.4,1.4V371.8z"/>
				<path id="XMLID_1582_" class="st8" d="M144.5,366.5c0.1,0.8,0.4,1.5,1,2c0.6,0.5,1.3,0.7,2.2,0.7c0.8,0,1.5-0.2,2-0.5
					c0.5-0.4,0.9-0.8,1.3-1.3l2.4,1.4c-0.2,0.4-0.4,0.8-0.8,1.2c-0.3,0.4-0.7,0.8-1.2,1.1c-0.5,0.3-1,0.6-1.6,0.8s-1.3,0.3-2.1,0.3
					c-1,0-1.9-0.2-2.7-0.5c-0.8-0.3-1.5-0.7-2.1-1.3c-0.6-0.6-1-1.3-1.3-2.1c-0.3-0.8-0.5-1.7-0.5-2.8c0-1,0.2-1.8,0.5-2.7
					c0.3-0.8,0.7-1.5,1.3-2.1c0.6-0.6,1.2-1.1,2-1.4s1.6-0.5,2.6-0.5c1,0,1.8,0.2,2.6,0.5s1.4,0.7,2,1.3c0.5,0.6,1,1.2,1.3,2
					c0.3,0.8,0.4,1.7,0.4,2.6c0,0.2,0,0.4,0,0.6c0,0.2,0,0.5,0,0.7H144.5z M147.4,361.5c-0.8,0-1.5,0.2-2,0.7
					c-0.5,0.5-0.8,1.1-0.9,1.8h5.8c-0.1-0.7-0.4-1.3-0.9-1.8C148.9,361.7,148.2,361.5,147.4,361.5z"/>
				<path id="XMLID_1580_" class="st8" d="M162.9,363.8c0-0.6-0.1-1.1-0.4-1.5c-0.3-0.4-0.7-0.5-1.3-0.5c-0.6,0-1,0.2-1.3,0.6
					c-0.3,0.4-0.5,0.9-0.5,1.5v8.1h-3.2V359h3.2v1c0.1-0.1,0.2-0.2,0.3-0.3c0.1-0.1,0.3-0.2,0.5-0.4c0.2-0.1,0.5-0.2,0.8-0.3
					c0.3-0.1,0.7-0.1,1.1-0.1c0.8,0,1.4,0.1,1.9,0.4c0.5,0.2,0.9,0.6,1.2,1c0.3,0.4,0.5,0.9,0.7,1.4c0.1,0.5,0.2,1.1,0.2,1.8v8.5
					h-3.2V363.8z"/>
				<path id="XMLID_1578_" class="st8" d="M172.7,359h2v2.7h-2v6c0,0.5,0.1,0.8,0.3,1c0.2,0.2,0.5,0.3,1,0.3h0.7v2.7
					c0,0-0.2,0-0.5,0.1s-0.7,0.1-1.3,0.1c-1.2,0-2.1-0.3-2.6-0.9c-0.5-0.6-0.8-1.4-0.8-2.5v-6.9h-1.2V359h1.2v-2h3.2V359z"/>
				<path id="XMLID_1575_" class="st8" d="M192.2,370.6c-0.4,0.4-0.9,0.8-1.6,1.1s-1.4,0.4-2.2,0.4c-1,0-1.9-0.2-2.7-0.5
					c-0.8-0.3-1.5-0.8-2.1-1.4c-0.6-0.6-1-1.3-1.3-2.1c-0.3-0.8-0.5-1.7-0.5-2.7c0-0.9,0.2-1.8,0.5-2.6c0.3-0.8,0.8-1.5,1.3-2.1
					c0.6-0.6,1.3-1.1,2.1-1.4c0.8-0.3,1.7-0.5,2.6-0.5c0.8,0,1.5,0.1,2.2,0.3c0.6,0.2,1.1,0.5,1.5,0.9v-5.7h3.2v17.5h-3V370.6z
					 M185,365.4c0,0.5,0.1,1,0.3,1.5c0.2,0.5,0.4,0.8,0.7,1.2c0.3,0.3,0.7,0.6,1.1,0.8c0.4,0.2,0.9,0.3,1.4,0.3c0.5,0,1-0.1,1.5-0.3
					c0.4-0.2,0.8-0.5,1.1-0.8c0.3-0.3,0.5-0.7,0.7-1.2s0.3-1,0.3-1.5c0-0.5-0.1-1-0.3-1.5s-0.4-0.9-0.7-1.2s-0.7-0.6-1.1-0.8
					c-0.4-0.2-0.9-0.3-1.4-0.3c-0.5,0-1,0.1-1.5,0.3c-0.4,0.2-0.8,0.5-1.1,0.8c-0.3,0.3-0.6,0.7-0.7,1.2S185,364.9,185,365.4z"/>
				<path id="XMLID_1572_" class="st8" d="M201.2,366.5c0.1,0.8,0.4,1.5,1,2c0.6,0.5,1.3,0.7,2.2,0.7c0.8,0,1.5-0.2,2-0.5
					c0.5-0.4,0.9-0.8,1.3-1.3l2.4,1.4c-0.2,0.4-0.4,0.8-0.8,1.2c-0.3,0.4-0.7,0.8-1.2,1.1c-0.5,0.3-1,0.6-1.6,0.8s-1.3,0.3-2.1,0.3
					c-1,0-1.9-0.2-2.7-0.5c-0.8-0.3-1.5-0.7-2.1-1.3c-0.6-0.6-1-1.3-1.3-2.1c-0.3-0.8-0.5-1.7-0.5-2.8c0-1,0.2-1.8,0.5-2.7
					c0.3-0.8,0.7-1.5,1.3-2.1c0.6-0.6,1.2-1.1,2-1.4s1.6-0.5,2.6-0.5c1,0,1.8,0.2,2.6,0.5s1.4,0.7,2,1.3c0.5,0.6,1,1.2,1.3,2
					c0.3,0.8,0.4,1.7,0.4,2.6c0,0.2,0,0.4,0,0.6c0,0.2,0,0.5,0,0.7H201.2z M204.1,361.5c-0.8,0-1.5,0.2-2,0.7
					c-0.5,0.5-0.8,1.1-0.9,1.8h5.8c-0.1-0.7-0.4-1.3-0.9-1.8C205.7,361.7,205,361.5,204.1,361.5z"/>
				<path id="XMLID_1570_" class="st8" d="M221,371.8h-3.2v-17.5h3.2V371.8z"/>
				<path id="XMLID_1567_" class="st8" d="M223.7,367.6c0-0.6,0.1-1.1,0.3-1.7s0.5-1,0.9-1.3c0.4-0.4,0.8-0.7,1.4-0.9
					c0.5-0.2,1.2-0.3,1.8-0.3c0.6,0,1.1,0.1,1.4,0.2s0.7,0.2,0.8,0.3v-0.6c0-0.6-0.1-1-0.4-1.4s-0.7-0.5-1.3-0.5
					c-0.3,0-0.6,0-0.8,0.1s-0.4,0.2-0.5,0.3c-0.1,0.1-0.2,0.3-0.3,0.5c0,0.2-0.1,0.4-0.1,0.5h-3c0-1.2,0.4-2.2,1.2-2.9
					c0.7-0.7,1.9-1.1,3.4-1.1c0.9,0,1.7,0.1,2.3,0.4s1.1,0.6,1.5,1c0.4,0.4,0.6,0.9,0.8,1.5c0.2,0.6,0.2,1.3,0.2,2v8.1h-2.7V371
					c-0.2,0.2-0.5,0.4-0.9,0.6c-0.4,0.2-1,0.3-1.8,0.3c-0.6,0-1.2-0.1-1.8-0.3c-0.5-0.2-1-0.5-1.4-0.9c-0.4-0.4-0.7-0.8-0.9-1.4
					C223.8,368.9,223.7,368.3,223.7,367.6z M226.7,367.6c0,0.5,0.2,1,0.5,1.3c0.3,0.3,0.8,0.5,1.4,0.5c0.5,0,1-0.2,1.3-0.5
					c0.4-0.3,0.5-0.8,0.5-1.3s-0.2-1-0.5-1.3c-0.4-0.3-0.8-0.5-1.3-0.5c-0.6,0-1,0.2-1.3,0.5C226.9,366.7,226.7,367.1,226.7,367.6z"
					/>
				<path id="XMLID_1565_" class="st8" d="M251.3,371.8h-3.2v-8.1c0-0.6-0.1-1.1-0.4-1.5c-0.3-0.4-0.7-0.6-1.3-0.6
					c-0.6,0-1,0.2-1.3,0.6c-0.3,0.4-0.4,0.9-0.4,1.5v8h-3.2V359h3.2v1c0.2-0.2,0.5-0.4,0.9-0.7s1-0.4,1.9-0.4c0.8,0,1.4,0.1,1.9,0.4
					s0.9,0.6,1.2,1c0.3-0.3,0.7-0.7,1.2-0.9c0.5-0.3,1.2-0.4,2-0.4c0.8,0,1.5,0.1,2,0.4c0.6,0.2,1,0.6,1.3,1s0.6,0.9,0.7,1.4
					c0.2,0.5,0.2,1.1,0.2,1.8v8.5h-3.2v-8.1c0-0.6-0.1-1.1-0.4-1.5c-0.3-0.4-0.7-0.5-1.3-0.5s-1,0.2-1.3,0.6
					c-0.3,0.4-0.4,0.9-0.4,1.4V371.8z"/>
				<path id="XMLID_1562_" class="st8" d="M260.6,365.4c0-1,0.2-1.8,0.5-2.7c0.3-0.8,0.8-1.5,1.4-2.1c0.6-0.6,1.3-1.1,2.1-1.4
					s1.7-0.5,2.7-0.5c1,0,1.9,0.2,2.8,0.5s1.5,0.8,2.1,1.4c0.6,0.6,1,1.3,1.4,2.1c0.3,0.8,0.5,1.7,0.5,2.6s-0.2,1.8-0.5,2.6
					c-0.3,0.8-0.8,1.5-1.4,2.1c-0.6,0.6-1.3,1.1-2.1,1.4s-1.7,0.5-2.7,0.5c-1,0-1.9-0.2-2.7-0.5c-0.8-0.3-1.5-0.8-2.1-1.4
					s-1-1.3-1.4-2.1C260.7,367.3,260.6,366.4,260.6,365.4z M263.8,365.4c0,0.5,0.1,1,0.3,1.5s0.4,0.8,0.7,1.2
					c0.3,0.3,0.7,0.6,1.1,0.8c0.4,0.2,0.9,0.3,1.4,0.3c0.5,0,1-0.1,1.4-0.3c0.4-0.2,0.8-0.4,1.1-0.8c0.3-0.3,0.5-0.7,0.7-1.2
					c0.2-0.5,0.3-0.9,0.3-1.5s-0.1-1-0.3-1.5s-0.4-0.9-0.7-1.2c-0.3-0.3-0.7-0.6-1.1-0.8s-0.9-0.3-1.4-0.3c-0.5,0-1,0.1-1.4,0.3
					c-0.4,0.2-0.8,0.4-1.1,0.8c-0.3,0.3-0.5,0.7-0.7,1.2S263.8,364.9,263.8,365.4z"/>
				<path id="XMLID_1560_" class="st8" d="M282.3,362.3h-0.8c-0.6,0-1.1,0.1-1.3,0.4c-0.2,0.3-0.4,0.7-0.4,1.3v7.8h-3.2V359h3.2v1
					c0.2-0.3,0.5-0.6,0.9-0.8s0.9-0.3,1.6-0.3V362.3z"/>
				<path id="XMLID_1558_" class="st8" d="M288.7,359h2v2.7h-2v6c0,0.5,0.1,0.8,0.3,1c0.2,0.2,0.5,0.3,1,0.3h0.7v2.7
					c0,0-0.2,0-0.5,0.1c-0.3,0.1-0.7,0.1-1.3,0.1c-1.2,0-2.1-0.3-2.6-0.9c-0.5-0.6-0.8-1.4-0.8-2.5v-6.9h-1.2V359h1.2v-2h3.2V359z"
					/>
				<path id="XMLID_1555_" class="st8" d="M292.7,367.6c0-0.6,0.1-1.1,0.3-1.7c0.2-0.5,0.5-1,0.9-1.3c0.4-0.4,0.8-0.7,1.4-0.9
					c0.5-0.2,1.2-0.3,1.8-0.3c0.6,0,1.1,0.1,1.4,0.2c0.4,0.1,0.7,0.2,0.8,0.3v-0.6c0-0.6-0.1-1-0.4-1.4s-0.7-0.5-1.3-0.5
					c-0.3,0-0.6,0-0.8,0.1c-0.2,0.1-0.4,0.2-0.5,0.3c-0.1,0.1-0.2,0.3-0.3,0.5c0,0.2-0.1,0.4-0.1,0.5h-3c0-1.2,0.4-2.2,1.2-2.9
					c0.7-0.7,1.9-1.1,3.4-1.1c0.9,0,1.7,0.1,2.3,0.4c0.6,0.2,1.1,0.6,1.5,1c0.4,0.4,0.6,0.9,0.8,1.5c0.2,0.6,0.2,1.3,0.2,2v8.1h-2.7
					V371c-0.2,0.2-0.5,0.4-0.9,0.6c-0.4,0.2-1,0.3-1.8,0.3c-0.6,0-1.2-0.1-1.8-0.3c-0.5-0.2-1-0.5-1.4-0.9c-0.4-0.4-0.7-0.8-0.9-1.4
					S292.7,368.3,292.7,367.6z M295.8,367.6c0,0.5,0.2,1,0.5,1.3c0.3,0.3,0.8,0.5,1.4,0.5c0.5,0,1-0.2,1.3-0.5
					c0.4-0.3,0.5-0.8,0.5-1.3s-0.2-1-0.5-1.3s-0.8-0.5-1.3-0.5c-0.6,0-1,0.2-1.3,0.5C295.9,366.7,295.8,367.1,295.8,367.6z"/>
				<path id="XMLID_1553_" class="st8" d="M308.9,371.8h-3.2v-17.5h3.2V371.8z"/>
				<path id="XMLID_1550_" class="st8" d="M313.6,358.2c-0.5,0-1-0.2-1.4-0.6c-0.4-0.4-0.6-0.8-0.6-1.3c0-0.5,0.2-1,0.6-1.4
					c0.4-0.4,0.8-0.6,1.4-0.6c0.5,0,1,0.2,1.4,0.6c0.4,0.4,0.6,0.8,0.6,1.4c0,0.5-0.2,1-0.6,1.3C314.6,358,314.1,358.2,313.6,358.2z
					 M315.2,371.8H312V359h3.2V371.8z"/>
				<path id="XMLID_1548_" class="st8" d="M322,359h2v2.7h-2v6c0,0.5,0.1,0.8,0.3,1c0.2,0.2,0.5,0.3,1,0.3h0.7v2.7
					c0,0-0.2,0-0.5,0.1c-0.3,0.1-0.7,0.1-1.3,0.1c-1.2,0-2.1-0.3-2.6-0.9c-0.5-0.6-0.8-1.4-0.8-2.5v-6.9h-1.2V359h1.2v-2h3.2V359z"
					/>
				<path id="XMLID_1545_" class="st8" d="M326,367.6c0-0.6,0.1-1.1,0.3-1.7c0.2-0.5,0.5-1,0.9-1.3c0.4-0.4,0.8-0.7,1.4-0.9
					c0.5-0.2,1.2-0.3,1.8-0.3c0.6,0,1.1,0.1,1.4,0.2c0.4,0.1,0.7,0.2,0.8,0.3v-0.6c0-0.6-0.1-1-0.4-1.4s-0.7-0.5-1.3-0.5
					c-0.3,0-0.6,0-0.8,0.1c-0.2,0.1-0.4,0.2-0.5,0.3c-0.1,0.1-0.2,0.3-0.3,0.5c0,0.2-0.1,0.4-0.1,0.5h-3c0-1.2,0.4-2.2,1.2-2.9
					c0.7-0.7,1.9-1.1,3.4-1.1c0.9,0,1.7,0.1,2.3,0.4c0.6,0.2,1.1,0.6,1.5,1c0.4,0.4,0.6,0.9,0.8,1.5c0.2,0.6,0.2,1.3,0.2,2v8.1h-2.7
					V371c-0.2,0.2-0.5,0.4-0.9,0.6c-0.4,0.2-1,0.3-1.8,0.3c-0.6,0-1.2-0.1-1.8-0.3c-0.5-0.2-1-0.5-1.4-0.9c-0.4-0.4-0.7-0.8-0.9-1.4
					S326,368.3,326,367.6z M329.1,367.6c0,0.5,0.2,1,0.5,1.3c0.3,0.3,0.8,0.5,1.4,0.5c0.5,0,1-0.2,1.3-0.5c0.4-0.3,0.5-0.8,0.5-1.3
					s-0.2-1-0.5-1.3s-0.8-0.5-1.3-0.5c-0.6,0-1,0.2-1.3,0.5C329.2,366.7,329.1,367.1,329.1,367.6z"/>
				<path id="XMLID_1543_" class="st8" d="M342.5,359h2v2.7h-2v6c0,0.5,0.1,0.8,0.3,1c0.2,0.2,0.5,0.3,1,0.3h0.7v2.7
					c0,0-0.2,0-0.5,0.1c-0.3,0.1-0.7,0.1-1.3,0.1c-1.2,0-2.1-0.3-2.6-0.9c-0.5-0.6-0.8-1.4-0.8-2.5v-6.9h-1.2V359h1.2v-2h3.2V359z"
					/>
			</g>
		</g>
		<circle id="XMLID_110_" class="st7" cx="64.2" cy="292.1" r="5.5"/>
		<g id="XMLID_97_">
			<circle id="XMLID_106_" class="st7" cx="64.2" cy="328.8" r="5.5"/>
		</g>
		<circle id="XMLID_78_" class="st7" cx="64.2" cy="365.1" r="5.5"/>
	</g>
</g>
<g id="Cap">
	<g id="XMLID_202_">
		<g id="XMLID_447_">
			<path id="XMLID_454_" class="st8" d="M94.7,79.5c-0.9,0.9-1.9,1.6-3.2,2.1c-1.3,0.6-2.7,0.9-4.4,0.9c-1.8,0-3.5-0.3-5-0.9
				c-1.5-0.6-2.7-1.4-3.8-2.5c-1-1.1-1.8-2.3-2.4-3.7c-0.6-1.4-0.8-3-0.8-4.7c0-1.7,0.3-3.2,0.9-4.7c0.6-1.5,1.4-2.7,2.4-3.8
				c1-1.1,2.3-1.9,3.7-2.5c1.5-0.6,3.1-0.9,4.9-0.9c1.7,0,3.1,0.2,4.3,0.7s2.3,1.1,3.3,1.9l-2.7,3.4c-0.5-0.5-1.2-0.9-2-1.2
				c-0.8-0.4-1.8-0.6-2.8-0.6c-1.1,0-2.1,0.2-3,0.6c-0.9,0.4-1.6,0.9-2.2,1.6c-0.6,0.7-1.1,1.5-1.4,2.4c-0.3,0.9-0.5,1.9-0.5,3
				c0,1.1,0.2,2.1,0.5,3s0.8,1.7,1.5,2.4c0.6,0.7,1.4,1.2,2.3,1.6c0.9,0.4,1.9,0.6,2.9,0.6c1.2,0,2.2-0.2,3-0.6
				c0.8-0.4,1.4-0.9,1.9-1.3L94.7,79.5z"/>
			<path id="XMLID_451_" class="st8" d="M111.2,75.8h-7.8l-2.2,6.3h-4.5l8.3-22.8h4.8l8.6,22.8h-4.9L111.2,75.8z M104.8,71.9h5
				l-2.5-6.9L104.8,71.9z"/>
			<path id="XMLID_448_" class="st8" d="M135.4,65.8c0,1-0.2,2-0.5,2.8s-0.8,1.5-1.4,2.1c-0.6,0.6-1.4,1-2.2,1.3
				c-0.9,0.3-1.8,0.5-2.9,0.5h-2.5V82h-4.6V59.2h7.1c2.3,0,4,0.6,5.2,1.7S135.4,63.6,135.4,65.8z M125.9,63.2v5.3h2.1
				c0.8,0,1.5-0.2,1.9-0.7c0.5-0.5,0.7-1.1,0.7-2c0-0.8-0.2-1.4-0.7-1.9s-1.1-0.7-1.9-0.7H125.9z"/>
		</g>
	</g>
	<g id="XMLID_1_">
		<g id="XMLID_4_">
			<g id="XMLID_769_">
				<path id="XMLID_821_" class="st8" d="M85.7,121.7c0,0.8-0.1,1.4-0.4,2s-0.6,1.1-1,1.5c-0.4,0.4-1,0.8-1.6,1s-1.3,0.3-2.1,0.3
					h-1.8v6.9h-3.3v-16.6h5.1c1.7,0,2.9,0.4,3.8,1.2C85.3,119,85.7,120.1,85.7,121.7z M78.8,119.8v3.9h1.6c0.6,0,1.1-0.2,1.4-0.5
					s0.5-0.8,0.5-1.4c0-0.6-0.2-1.1-0.5-1.4c-0.3-0.3-0.8-0.5-1.4-0.5H78.8z"/>
				<path id="XMLID_819_" class="st8" d="M93.9,124h-0.8c-0.6,0-1.1,0.1-1.3,0.4c-0.2,0.3-0.4,0.7-0.4,1.3v7.8h-3.2v-12.8h3.2v1
					c0.2-0.3,0.5-0.6,0.9-0.8c0.4-0.2,0.9-0.3,1.6-0.3V124z"/>
				<path id="XMLID_816_" class="st8" d="M95.5,127.1c0-1,0.2-1.8,0.5-2.7c0.3-0.8,0.8-1.5,1.4-2.1c0.6-0.6,1.3-1.1,2.1-1.4
					s1.7-0.5,2.7-0.5c1,0,1.9,0.2,2.8,0.5s1.5,0.8,2.1,1.4c0.6,0.6,1,1.3,1.4,2.1c0.3,0.8,0.5,1.7,0.5,2.6s-0.2,1.8-0.5,2.6
					c-0.3,0.8-0.8,1.5-1.4,2.1c-0.6,0.6-1.3,1.1-2.1,1.4s-1.7,0.5-2.7,0.5c-1,0-1.9-0.2-2.7-0.5c-0.8-0.3-1.5-0.8-2.1-1.4
					c-0.6-0.6-1-1.3-1.4-2.1C95.6,129,95.5,128.1,95.5,127.1z M98.7,127.1c0,0.5,0.1,1,0.3,1.5s0.4,0.8,0.7,1.2
					c0.3,0.3,0.7,0.6,1.1,0.8c0.4,0.2,0.9,0.3,1.4,0.3c0.5,0,1-0.1,1.4-0.3c0.4-0.2,0.8-0.4,1.1-0.8s0.5-0.7,0.7-1.2
					c0.2-0.5,0.3-0.9,0.3-1.5s-0.1-1-0.3-1.5s-0.4-0.9-0.7-1.2c-0.3-0.3-0.7-0.6-1.1-0.8c-0.4-0.2-0.9-0.3-1.4-0.3
					c-0.5,0-1,0.1-1.4,0.3c-0.4,0.2-0.8,0.4-1.1,0.8c-0.3,0.3-0.5,0.7-0.7,1.2S98.7,126.6,98.7,127.1z"/>
				<path id="XMLID_813_" class="st8" d="M114.6,133.5h-3V116h3.2v6c0.4-0.4,0.9-0.7,1.5-1c0.7-0.3,1.4-0.5,2.3-0.5
					c1,0,1.8,0.2,2.6,0.5c0.8,0.3,1.5,0.8,2,1.3c0.6,0.6,1,1.3,1.3,2.1c0.3,0.8,0.5,1.7,0.5,2.7c0,0.9-0.2,1.8-0.5,2.6
					c-0.3,0.8-0.8,1.5-1.3,2.1c-0.6,0.6-1.3,1.1-2.1,1.4c-0.8,0.3-1.7,0.5-2.7,0.5c-0.8,0-1.6-0.1-2.2-0.4c-0.7-0.3-1.2-0.6-1.5-1
					V133.5z M114.6,127.1c0,0.6,0.1,1.1,0.3,1.5c0.2,0.5,0.4,0.8,0.7,1.2c0.3,0.3,0.7,0.6,1.1,0.8s0.9,0.3,1.5,0.3
					c0.5,0,1-0.1,1.5-0.3s0.8-0.4,1.1-0.8s0.5-0.7,0.7-1.2c0.2-0.5,0.2-1,0.2-1.5c0-0.5-0.1-1-0.3-1.5s-0.4-0.9-0.7-1.2
					c-0.3-0.3-0.7-0.6-1.1-0.8c-0.4-0.2-0.9-0.3-1.5-0.3c-0.5,0-1,0.1-1.5,0.3s-0.8,0.4-1.1,0.8c-0.3,0.3-0.5,0.7-0.7,1.2
					S114.6,126.6,114.6,127.1z"/>
				<path id="XMLID_811_" class="st8" d="M130.8,133.5h-3.2V116h3.2V133.5z"/>
				<path id="XMLID_808_" class="st8" d="M136.8,128.1c0.1,0.8,0.4,1.5,1,2c0.6,0.5,1.3,0.7,2.2,0.7c0.8,0,1.5-0.2,2-0.5
					c0.5-0.4,0.9-0.8,1.3-1.3l2.4,1.4c-0.2,0.4-0.4,0.8-0.8,1.2c-0.3,0.4-0.7,0.8-1.2,1.1c-0.5,0.3-1,0.6-1.6,0.8s-1.3,0.3-2.1,0.3
					c-1,0-1.9-0.2-2.7-0.5c-0.8-0.3-1.5-0.7-2.1-1.3c-0.6-0.6-1-1.3-1.3-2.1c-0.3-0.8-0.5-1.7-0.5-2.8c0-1,0.2-1.8,0.5-2.7
					c0.3-0.8,0.7-1.5,1.3-2.1c0.6-0.6,1.2-1.1,2-1.4s1.6-0.5,2.6-0.5c1,0,1.8,0.2,2.6,0.5s1.4,0.7,2,1.3c0.5,0.6,1,1.2,1.3,2
					c0.3,0.8,0.4,1.7,0.4,2.6c0,0.2,0,0.4,0,0.6c0,0.2,0,0.5,0,0.7H136.8z M139.7,123.2c-0.8,0-1.5,0.2-2,0.7
					c-0.5,0.5-0.8,1.1-0.9,1.8h5.8c-0.1-0.7-0.4-1.3-0.9-1.8C141.2,123.4,140.5,123.2,139.7,123.2z"/>
				<path id="XMLID_806_" class="st8" d="M158.4,133.5h-3.2v-8.1c0-0.6-0.1-1.1-0.4-1.5c-0.3-0.4-0.7-0.6-1.3-0.6
					c-0.6,0-1,0.2-1.3,0.6c-0.3,0.4-0.4,0.9-0.4,1.5v8h-3.2v-12.8h3.2v1c0.2-0.2,0.5-0.4,0.9-0.7s1-0.4,1.9-0.4
					c0.8,0,1.4,0.1,1.9,0.4s0.9,0.6,1.2,1c0.3-0.3,0.7-0.7,1.2-0.9c0.5-0.3,1.2-0.4,2-0.4c0.8,0,1.5,0.1,2,0.4c0.6,0.2,1,0.6,1.3,1
					c0.3,0.4,0.6,0.9,0.7,1.4c0.2,0.5,0.2,1.1,0.2,1.8v8.5h-3.2v-8.1c0-0.6-0.1-1.1-0.4-1.5c-0.3-0.4-0.7-0.5-1.3-0.5
					s-1,0.2-1.3,0.6c-0.3,0.4-0.4,0.9-0.4,1.4V133.5z"/>
				<path id="XMLID_803_" class="st8" d="M171,128.1c0.1,0.8,0.4,1.5,1,2c0.6,0.5,1.3,0.7,2.2,0.7c0.8,0,1.5-0.2,2-0.5
					c0.5-0.4,0.9-0.8,1.3-1.3l2.4,1.4c-0.2,0.4-0.4,0.8-0.8,1.2c-0.3,0.4-0.7,0.8-1.2,1.1c-0.5,0.3-1,0.6-1.6,0.8s-1.3,0.3-2.1,0.3
					c-1,0-1.9-0.2-2.7-0.5c-0.8-0.3-1.5-0.7-2.1-1.3c-0.6-0.6-1-1.3-1.3-2.1c-0.3-0.8-0.5-1.7-0.5-2.8c0-1,0.2-1.8,0.5-2.7
					c0.3-0.8,0.7-1.5,1.3-2.1c0.6-0.6,1.2-1.1,2-1.4s1.6-0.5,2.6-0.5c1,0,1.8,0.2,2.6,0.5s1.4,0.7,2,1.3c0.5,0.6,1,1.2,1.3,2
					c0.3,0.8,0.4,1.7,0.4,2.6c0,0.2,0,0.4,0,0.6c0,0.2,0,0.5,0,0.7H171z M173.9,123.2c-0.8,0-1.5,0.2-2,0.7
					c-0.5,0.5-0.8,1.1-0.9,1.8h5.8c-0.1-0.7-0.4-1.3-0.9-1.8C175.5,123.4,174.8,123.2,173.9,123.2z"/>
				<path id="XMLID_801_" class="st8" d="M185.5,124.1c0,0.6,0.4,1,1.1,1.2c0.3,0.1,0.6,0.2,0.9,0.2c0.3,0.1,0.6,0.1,0.9,0.2
					c0.5,0.2,1,0.3,1.3,0.6s0.7,0.5,1,0.8c0.3,0.3,0.4,0.7,0.6,1.1c0.1,0.4,0.2,0.9,0.2,1.5c0,0.7-0.1,1.2-0.4,1.7
					c-0.2,0.5-0.6,0.9-1,1.2c-0.4,0.3-0.9,0.6-1.5,0.8c-0.6,0.2-1.2,0.3-1.8,0.3c-0.9,0-1.6-0.1-2.2-0.4c-0.6-0.2-1.1-0.6-1.4-1
					c-0.4-0.4-0.6-0.9-0.7-1.4c-0.1-0.5-0.2-1.1-0.2-1.6h3.1c0,0.5,0.1,0.9,0.3,1.2s0.6,0.5,1.2,0.5c0.4,0,0.8-0.1,1.1-0.3
					c0.3-0.2,0.4-0.5,0.4-0.9c0-0.4-0.1-0.6-0.3-0.8s-0.5-0.4-1-0.5c-0.4-0.1-0.7-0.2-1-0.3s-0.6-0.2-1-0.3c-0.9-0.3-1.6-0.8-2-1.4
					c-0.4-0.6-0.7-1.4-0.7-2.4c0-0.5,0.1-1,0.3-1.5c0.2-0.5,0.5-0.9,0.9-1.2c0.4-0.3,0.9-0.6,1.4-0.8c0.5-0.2,1.1-0.3,1.8-0.3
					c1.4,0,2.4,0.3,3.2,1c0.8,0.7,1.1,1.7,1.2,3h-3c0-0.5-0.1-0.9-0.4-1.2c-0.2-0.3-0.6-0.4-1.1-0.4c-0.4,0-0.7,0.1-0.9,0.3
					S185.5,123.8,185.5,124.1z"/>
				<path id="XMLID_798_" class="st8" d="M208.8,132.2c-0.4,0.4-0.9,0.8-1.6,1.1s-1.4,0.4-2.2,0.4c-1,0-1.9-0.2-2.7-0.5
					c-0.8-0.3-1.5-0.8-2.1-1.4c-0.6-0.6-1-1.3-1.3-2.1c-0.3-0.8-0.5-1.7-0.5-2.7c0-0.9,0.2-1.8,0.5-2.6c0.3-0.8,0.8-1.5,1.3-2.1
					c0.6-0.6,1.3-1.1,2.1-1.4c0.8-0.3,1.7-0.5,2.6-0.5c0.8,0,1.5,0.1,2.2,0.3c0.6,0.2,1.1,0.5,1.5,0.9V116h3.2v17.5h-3V132.2z
					 M201.6,127.1c0,0.5,0.1,1,0.3,1.5c0.2,0.5,0.4,0.8,0.7,1.2c0.3,0.3,0.7,0.6,1.1,0.8c0.4,0.2,0.9,0.3,1.4,0.3
					c0.5,0,1-0.1,1.5-0.3c0.4-0.2,0.8-0.5,1.1-0.8c0.3-0.3,0.5-0.7,0.7-1.2s0.3-1,0.3-1.5c0-0.5-0.1-1-0.3-1.5s-0.4-0.9-0.7-1.2
					s-0.7-0.6-1.1-0.8c-0.4-0.2-0.9-0.3-1.4-0.3c-0.5,0-1,0.1-1.5,0.3c-0.4,0.2-0.8,0.5-1.1,0.8c-0.3,0.3-0.6,0.7-0.7,1.2
					S201.6,126.6,201.6,127.1z"/>
				<path id="XMLID_795_" class="st8" d="M217.8,128.1c0.1,0.8,0.4,1.5,1,2c0.6,0.5,1.3,0.7,2.2,0.7c0.8,0,1.5-0.2,2-0.5
					c0.5-0.4,0.9-0.8,1.3-1.3l2.4,1.4c-0.2,0.4-0.4,0.8-0.8,1.2c-0.3,0.4-0.7,0.8-1.2,1.1c-0.5,0.3-1,0.6-1.6,0.8s-1.3,0.3-2.1,0.3
					c-1,0-1.9-0.2-2.7-0.5c-0.8-0.3-1.5-0.7-2.1-1.3c-0.6-0.6-1-1.3-1.3-2.1c-0.3-0.8-0.5-1.7-0.5-2.8c0-1,0.2-1.8,0.5-2.7
					c0.3-0.8,0.7-1.5,1.3-2.1c0.6-0.6,1.2-1.1,2-1.4s1.6-0.5,2.6-0.5c1,0,1.8,0.2,2.6,0.5s1.4,0.7,2,1.3c0.5,0.6,1,1.2,1.3,2
					c0.3,0.8,0.4,1.7,0.4,2.6c0,0.2,0,0.4,0,0.6c0,0.2,0,0.5,0,0.7H217.8z M220.7,123.2c-0.8,0-1.5,0.2-2,0.7
					c-0.5,0.5-0.8,1.1-0.9,1.8h5.8c-0.1-0.7-0.4-1.3-0.9-1.8C222.3,123.4,221.6,123.2,220.7,123.2z"/>
				<path id="XMLID_793_" class="st8" d="M237.2,124.1c0,0.6,0.4,1,1.1,1.2c0.3,0.1,0.6,0.2,0.9,0.2c0.3,0.1,0.6,0.1,0.9,0.2
					c0.5,0.2,1,0.3,1.3,0.6s0.7,0.5,1,0.8c0.3,0.3,0.4,0.7,0.6,1.1c0.1,0.4,0.2,0.9,0.2,1.5c0,0.7-0.1,1.2-0.4,1.7
					c-0.2,0.5-0.6,0.9-1,1.2c-0.4,0.3-0.9,0.6-1.5,0.8c-0.6,0.2-1.2,0.3-1.8,0.3c-0.9,0-1.6-0.1-2.2-0.4c-0.6-0.2-1.1-0.6-1.4-1
					c-0.4-0.4-0.6-0.9-0.7-1.4c-0.1-0.5-0.2-1.1-0.2-1.6h3.1c0,0.5,0.1,0.9,0.3,1.2s0.6,0.5,1.2,0.5c0.4,0,0.8-0.1,1.1-0.3
					c0.3-0.2,0.4-0.5,0.4-0.9c0-0.4-0.1-0.6-0.3-0.8s-0.5-0.4-1-0.5c-0.4-0.1-0.7-0.2-1-0.3s-0.6-0.2-1-0.3c-0.9-0.3-1.6-0.8-2-1.4
					c-0.4-0.6-0.7-1.4-0.7-2.4c0-0.5,0.1-1,0.3-1.5c0.2-0.5,0.5-0.9,0.9-1.2c0.4-0.3,0.9-0.6,1.4-0.8c0.5-0.2,1.1-0.3,1.8-0.3
					c1.4,0,2.4,0.3,3.2,1c0.8,0.7,1.1,1.7,1.2,3h-3c0-0.5-0.1-0.9-0.4-1.2c-0.2-0.3-0.6-0.4-1.1-0.4c-0.4,0-0.7,0.1-0.9,0.3
					S237.2,123.8,237.2,124.1z"/>
				<path id="XMLID_790_" class="st8" d="M245.3,129.3c0-0.6,0.1-1.1,0.3-1.7s0.5-1,0.9-1.3c0.4-0.4,0.8-0.7,1.4-0.9
					c0.5-0.2,1.2-0.3,1.8-0.3c0.6,0,1.1,0.1,1.4,0.2s0.7,0.2,0.8,0.3V125c0-0.6-0.1-1-0.4-1.4s-0.7-0.5-1.3-0.5
					c-0.3,0-0.6,0-0.8,0.1s-0.4,0.2-0.5,0.3c-0.1,0.1-0.2,0.3-0.3,0.5c0,0.2-0.1,0.4-0.1,0.5h-3c0-1.2,0.4-2.2,1.2-2.9
					c0.7-0.7,1.9-1.1,3.4-1.1c0.9,0,1.7,0.1,2.3,0.4s1.1,0.6,1.5,1c0.4,0.4,0.6,0.9,0.8,1.5c0.2,0.6,0.2,1.3,0.2,2v8.1h-2.7v-0.8
					c-0.2,0.2-0.5,0.4-0.9,0.6c-0.4,0.2-1,0.3-1.8,0.3c-0.6,0-1.2-0.1-1.8-0.3c-0.5-0.2-1-0.5-1.4-0.9c-0.4-0.4-0.7-0.8-0.9-1.4
					C245.4,130.6,245.3,130,245.3,129.3z M248.3,129.3c0,0.5,0.2,1,0.5,1.3c0.3,0.3,0.8,0.5,1.4,0.5c0.5,0,1-0.2,1.3-0.5
					c0.4-0.3,0.5-0.8,0.5-1.3s-0.2-1-0.5-1.3c-0.4-0.3-0.8-0.5-1.3-0.5c-0.6,0-1,0.2-1.3,0.5C248.5,128.4,248.3,128.8,248.3,129.3z"
					/>
				<path id="XMLID_788_" class="st8" d="M261.4,133.5h-3.2V116h3.2V133.5z"/>
				<path id="XMLID_786_" class="st8" d="M267.7,128.7c0,0.6,0.1,1.1,0.4,1.5s0.7,0.6,1.3,0.6s1-0.2,1.3-0.6
					c0.3-0.4,0.5-0.9,0.5-1.5v-8h3.2v12.8h-3.2v-1c-0.2,0.2-0.5,0.5-0.9,0.7c-0.4,0.3-1,0.4-1.8,0.4c-0.7,0-1.3-0.1-1.8-0.3
					c-0.5-0.2-0.9-0.5-1.2-0.9c-0.3-0.4-0.6-0.9-0.7-1.4c-0.1-0.6-0.2-1.2-0.2-1.8v-8.5h3.2V128.7z"/>
				<path id="XMLID_784_" class="st8" d="M281.2,120.7h2v2.7h-2v6c0,0.5,0.1,0.8,0.3,1c0.2,0.2,0.5,0.3,1,0.3h0.7v2.7
					c0,0-0.2,0-0.5,0.1s-0.7,0.1-1.3,0.1c-1.2,0-2.1-0.3-2.6-0.9c-0.5-0.6-0.8-1.4-0.8-2.5v-6.9h-1.2v-2.7h1.2v-2h3.2V120.7z"/>
				<path id="XMLID_782_" class="st8" d="M300.6,133.5h-3.2v-8.1c0-0.6-0.1-1.1-0.4-1.5c-0.3-0.4-0.7-0.6-1.3-0.6
					c-0.6,0-1,0.2-1.3,0.6c-0.3,0.4-0.4,0.9-0.4,1.5v8h-3.2v-12.8h3.2v1c0.2-0.2,0.5-0.4,0.9-0.7s1-0.4,1.9-0.4
					c0.8,0,1.4,0.1,1.9,0.4s0.9,0.6,1.2,1c0.3-0.3,0.7-0.7,1.2-0.9c0.5-0.3,1.2-0.4,2-0.4c0.8,0,1.5,0.1,2,0.4c0.6,0.2,1,0.6,1.3,1
					c0.3,0.4,0.6,0.9,0.7,1.4c0.2,0.5,0.2,1.1,0.2,1.8v8.5h-3.2v-8.1c0-0.6-0.1-1.1-0.4-1.5c-0.3-0.4-0.7-0.5-1.3-0.5
					s-1,0.2-1.3,0.6c-0.3,0.4-0.4,0.9-0.4,1.4V133.5z"/>
				<path id="XMLID_779_" class="st8" d="M313.2,128.1c0.1,0.8,0.4,1.5,1,2c0.6,0.5,1.3,0.7,2.2,0.7c0.8,0,1.5-0.2,2-0.5
					c0.5-0.4,0.9-0.8,1.3-1.3l2.4,1.4c-0.2,0.4-0.4,0.8-0.8,1.2c-0.3,0.4-0.7,0.8-1.2,1.1c-0.5,0.3-1,0.6-1.6,0.8s-1.3,0.3-2.1,0.3
					c-1,0-1.9-0.2-2.7-0.5c-0.8-0.3-1.5-0.7-2.1-1.3c-0.6-0.6-1-1.3-1.3-2.1c-0.3-0.8-0.5-1.7-0.5-2.8c0-1,0.2-1.8,0.5-2.7
					c0.3-0.8,0.7-1.5,1.3-2.1c0.6-0.6,1.2-1.1,2-1.4s1.6-0.5,2.6-0.5c1,0,1.8,0.2,2.6,0.5s1.4,0.7,2,1.3c0.5,0.6,1,1.2,1.3,2
					c0.3,0.8,0.4,1.7,0.4,2.6c0,0.2,0,0.4,0,0.6c0,0.2,0,0.5,0,0.7H313.2z M316.1,123.2c-0.8,0-1.5,0.2-2,0.7
					c-0.5,0.5-0.8,1.1-0.9,1.8h5.8c-0.1-0.7-0.4-1.3-0.9-1.8C317.7,123.4,317,123.2,316.1,123.2z"/>
				<path id="XMLID_777_" class="st8" d="M331.7,125.5c0-0.6-0.1-1.1-0.4-1.5c-0.3-0.4-0.7-0.5-1.3-0.5c-0.6,0-1,0.2-1.3,0.6
					c-0.3,0.4-0.5,0.9-0.5,1.5v8.1H325v-12.8h3.2v1c0.1-0.1,0.2-0.2,0.3-0.3c0.1-0.1,0.3-0.2,0.5-0.4c0.2-0.1,0.5-0.2,0.8-0.3
					c0.3-0.1,0.7-0.1,1.1-0.1c0.8,0,1.4,0.1,1.9,0.4c0.5,0.2,0.9,0.6,1.2,1c0.3,0.4,0.5,0.9,0.7,1.4c0.1,0.5,0.2,1.1,0.2,1.8v8.5
					h-3.2V125.5z"/>
				<path id="XMLID_775_" class="st8" d="M341.5,120.7h2v2.7h-2v6c0,0.5,0.1,0.8,0.3,1c0.2,0.2,0.5,0.3,1,0.3h0.7v2.7
					c0,0-0.2,0-0.5,0.1s-0.7,0.1-1.3,0.1c-1.2,0-2.1-0.3-2.6-0.9c-0.5-0.6-0.8-1.4-0.8-2.5v-6.9h-1.2v-2.7h1.2v-2h3.2V120.7z"/>
				<path id="XMLID_772_" class="st8" d="M345.5,129.3c0-0.6,0.1-1.1,0.3-1.7s0.5-1,0.9-1.3c0.4-0.4,0.8-0.7,1.4-0.9
					c0.5-0.2,1.2-0.3,1.8-0.3c0.6,0,1.1,0.1,1.4,0.2s0.7,0.2,0.8,0.3V125c0-0.6-0.1-1-0.4-1.4s-0.7-0.5-1.3-0.5
					c-0.3,0-0.6,0-0.8,0.1s-0.4,0.2-0.5,0.3c-0.1,0.1-0.2,0.3-0.3,0.5c0,0.2-0.1,0.4-0.1,0.5h-3c0-1.2,0.4-2.2,1.2-2.9
					c0.7-0.7,1.9-1.1,3.4-1.1c0.9,0,1.7,0.1,2.3,0.4s1.1,0.6,1.5,1c0.4,0.4,0.6,0.9,0.8,1.5c0.2,0.6,0.2,1.3,0.2,2v8.1h-2.7v-0.8
					c-0.2,0.2-0.5,0.4-0.9,0.6c-0.4,0.2-1,0.3-1.8,0.3c-0.6,0-1.2-0.1-1.8-0.3c-0.5-0.2-1-0.5-1.4-0.9c-0.4-0.4-0.7-0.8-0.9-1.4
					C345.6,130.6,345.5,130,345.5,129.3z M348.5,129.3c0,0.5,0.2,1,0.5,1.3c0.3,0.3,0.8,0.5,1.4,0.5c0.5,0,1-0.2,1.3-0.5
					c0.4-0.3,0.5-0.8,0.5-1.3s-0.2-1-0.5-1.3c-0.4-0.3-0.8-0.5-1.3-0.5c-0.6,0-1,0.2-1.3,0.5C348.7,128.4,348.5,128.8,348.5,129.3z"
					/>
				<path id="XMLID_770_" class="st8" d="M361.6,133.5h-3.2V116h3.2V133.5z"/>
			</g>
		</g>
		<g id="XMLID_62_">
			<circle id="XMLID_64_" class="st7" cx="63" cy="125.5" r="5.5"/>
		</g>
	</g>
</g>
<g id="guias" class="st9">
</g>
</svg>
