<?xml version="1.0" encoding="utf-8"?>
<!-- Generator: Adobe Illustrator 19.0.0, SVG Export Plug-In . SVG Version: 6.00 Build 0)  -->
<svg version="1.1" id="Capa_1" xmlns="http://www.w3.org/2000/svg" xmlns:xlink="http://www.w3.org/1999/xlink" x="0px" y="0px"
	 viewBox="570 -225.3 1440 1451.3" style="enable-background:new 570 -225.3 1440 1451.3;" xml:space="preserve">
<style type="text/css">
	.st0{fill:#F4F4F4;}
	.st1{fill:#181716;}
	.st2{fill:#F6C2C0;}
	.st3{fill:#FBE2E0;}
	.st4{fill:#F8D2D0;}
	.st5{fill:none;stroke:#F0A0A0;stroke-width:6.0028;stroke-linecap:round;stroke-miterlimit:10;}
	.st6{fill:#F0A0A0;}
	.st7{fill:#E55465;}
	.st8{fill:none;}
	.st9{font-family:'PlatformWeb-Regular';}
	.st10{font-size:33.0075px;}
	.st11{fill:none;stroke:#181716;stroke-width:1.5003;stroke-miterlimit:10;}
	.st12{font-size:24.0054px;}
	.st13{fill:#004F9F;}
	.st14{fill:#BB94C2;}
	.st15{fill:#F29700;}
	.st16{fill:#34B7EB;}
	.st17{fill:#3AA336;}
	.st18{fill:none;stroke:#E55465;stroke-width:6.0028;stroke-linecap:round;stroke-miterlimit:10;}
</style>
<g id="Capa_1_1_">
	<g id="bg">
		<rect x="570" y="-228.6" class="st0" width="1440" height="1452.7"/>
		<rect x="570" y="1016.7" class="st1" width="1440" height="207.3"/>
	</g>
	<g id="Cos">
		<g>
			<g>
				<path class="st2" d="M1292.7-171.9c-0.4,0-0.7,0-1,0c-0.3,0-0.7,0-1,0c-44.9-0.4-62.4,35.1-59.8,80.4
					c2.5,44.3,19.6,91.2,60.6,92.1l0,0c0.1,0,0.2,0,0.3,0c0.1,0,0.2,0,0.3,0l0,0c41-0.9,58.1-47.8,60.6-92.1
					C1355.1-136.8,1337.6-172.3,1292.7-171.9z"/>
				<g>
					
						<ellipse transform="matrix(-0.1335 0.991 -0.991 -0.1335 1457.2274 -1422.2478)" class="st2" cx="1350.4" cy="-74.1" rx="23.8" ry="8"/>
					
						<ellipse transform="matrix(-0.991 0.1335 -0.1335 -0.991 2444.8093 -312.439)" class="st2" cx="1232.9" cy="-74.3" rx="8" ry="23.8"/>
				</g>
				<rect x="1256.6" y="-31.7" class="st2" width="70.1" height="73.1"/>
				<g>
					<path class="st2" d="M1304.5,74.4l-48.1-73.8l0,0c0,20.9-16.9,37.8-37.8,37.8l0,0L1304.5,74.4z"/>
					<path class="st2" d="M1278.8,74.4l48.1-73.8l0,0c0,20.9,16.9,37.8,37.8,37.8l0,0L1278.8,74.4z"/>
				</g>
			</g>
			<g>
				<rect x="1202" y="38.1" class="st2" width="178.7" height="281.4"/>
				<path class="st2" d="M1174.7,76.6h233.4v86.2c0,35.4-28.7,64-64,64h-105.4c-35.4,0-64-28.7-64-64V76.6z"/>
				<path class="st2" d="M1128.8,159.9h325.1v-59.3c0-34.5-28-62.4-62.4-62.4h-200.3c-34.5,0-62.4,28-62.4,62.4V159.9z"/>
				<path class="st2" d="M1380.7,319.5h-89.4v196.1h127.1c0,0,0-24.5,0-74.5C1418.4,393.2,1380.7,319.5,1380.7,319.5z"/>
				<path class="st2" d="M1202,319.5h89.4v196.1h-127.1c0,0,0-24.5,0-74.5C1164.3,393.2,1202,319.5,1202,319.5z"/>
				<g>
					<path class="st2" d="M1376.7,766.7c0,19.3-77.1,0-77.1,0v-251c0,0,118.8-29.7,118.8,0C1418.4,622.4,1376.7,737.6,1376.7,766.7z
						"/>
					<path class="st2" d="M1355.5,1081.5h-41l-14.9-314.8h76.9c0,0,6.4,92.3,6.4,123.2C1382.9,976.5,1355.5,1081.5,1355.5,1081.5z"
						/>
					<path class="st2" d="M1363.4,1176.5c-0.1,2.3-2.4,6-4.9,9.3c-3.8,5-9.7,7.8-15.9,7.8h-29.7c-7,0-12.4-6.1-11.4-13.1l13.1-99h41
						C1355.5,1081.5,1364.4,1147.3,1363.4,1176.5z"/>
				</g>
				<g>
					<path class="st2" d="M1206,766.7c0,19.3,77.1,0,77.1,0v-251c0,0-118.8-29.7-118.8,0C1164.3,622.4,1206,737.6,1206,766.7z"/>
					<path class="st2" d="M1227.2,1081.5h41l14.9-314.8h-76.9c0,0-6.4,92.3-6.4,123.2C1199.8,976.5,1227.2,1081.5,1227.2,1081.5z"/>
					<path class="st2" d="M1219.4,1176.5c0.1,2.3,2.4,6,4.9,9.3c3.8,5,9.7,7.8,15.9,7.8h29.7c7,0,12.4-6.1,11.4-13.1l-13.1-99h-41
						C1227.3,1081.5,1218.3,1147.3,1219.4,1176.5z"/>
				</g>
				<polygon class="st2" points="1474.4,309.1 1428.5,314.5 1400.6,97.1 1453.8,90.9 				"/>
				<path class="st2" d="M1489.2,493.8l-27,3.1l-33.7-182.5c0,0,42.4-39.8,43.8-27.7c2.5,21.5,8.9,43.4,12.1,73.1
					C1488,393.2,1489.2,493.8,1489.2,493.8z"/>
				<path class="st2" d="M1489.2,493.8v41.4c0,8.9-2.7,17.6-7.9,24.9l-32.9,46.8c-2.7,3.9-8,4.9-11.9,2.3l0,0
					c-3.7-2.4-5-7.1-3.1-11.1l20.4-42.3l-2.8-15.3l-14.6,28.9c-0.7,1.3-2.2,2-3.7,1.6l0,0c-1.5-0.4-2.5-1.9-2.3-3.4l3.1-27.7
					c0.8-7.2,3.3-14.1,7.4-20.1l21.2-22.9L1489.2,493.8z"/>
				<g>
					<polygon class="st2" points="1109,309.1 1154.9,314.5 1182.7,97.1 1129.6,90.9 					"/>
					<path class="st2" d="M1094.2,493.8l27,3.1l33.7-182.5c0,0-42.4-39.8-43.8-27.7c-2.5,21.5-8.9,43.4-12.1,73.1
						C1095.4,393.2,1094.2,493.8,1094.2,493.8z"/>
					<path class="st2" d="M1094.2,493.8v41.4c0,8.9,2.7,17.6,7.9,24.9l32.9,46.8c2.7,3.9,8,4.9,11.9,2.3l0,0c3.7-2.4,5-7.1,3.1-11.1
						l-20.4-42.3l2.8-15.3l14.6,28.9c0.7,1.3,2.2,2,3.7,1.6l0,0c1.5-0.4,2.5-1.9,2.3-3.4l-3.1-27.7c-0.8-7.2-3.3-14.1-7.4-20.1
						l-21.2-22.9L1094.2,493.8z"/>
				</g>
			</g>
		</g>
		<g>
			<g>
				<path class="st3" d="M1309.2,44.8L1309.2,44.8c3.9-2.5,8.4-3.9,13.1-3.9h6.3c7.9,0.5,12.9,3.1,16,7.1
					c21.4,27.7,48.6,65,55.8,114.3c1.7,11.9-15.2,35.7-19.8,39.1c-55.8,41.5-87.2-27.9-87.2-27.9l5-109.7
					C1298.7,56.1,1302.7,49,1309.2,44.8z"/>
				<circle class="st3" cx="1345.8" cy="167.5" r="54.6"/>
			</g>
			<g>
				<path class="st3" d="M1274.9,44.8L1274.9,44.8c-3.9-2.5-8.4-3.9-13.1-3.9h-6.3c-7.9,0.5-12.9,3.1-16,7.1
					c-21.4,27.7-48.6,65-55.8,114.3c-1.7,11.9,15.2,35.7,19.8,39.1c55.8,41.5,87.2-27.9,87.2-27.9l17.6-99l-22.5-10.6
					C1285.4,56.1,1281.4,49,1274.9,44.8z"/>
				<circle class="st3" cx="1238.3" cy="167.5" r="54.6"/>
			</g>
		</g>
		<path class="st4" d="M1291.7,487.2L1291.7,487.2c-30.3,0-54.9-24.6-54.9-54.9v-61.7c0-30.3,24.6-54.9,54.9-54.9l0,0
			c30.3,0,54.9,24.6,54.9,54.9v61.7C1346.5,462.6,1322,487.2,1291.7,487.2z"/>
		<g>
			<g>
				<g>
					<circle class="st4" cx="1259.3" cy="166.2" r="22.4"/>
					<circle class="st4" cx="1229.5" cy="177" r="24.4"/>
					<circle class="st4" cx="1268.2" cy="101.3" r="13.5"/>
					<rect x="1251.8" y="101.3" class="st4" width="29.9" height="61"/>
					<path class="st4" d="M1206,170.4c13.2-52.4,53.6-79.5,53.6-79.5l5.4,70.4C1265,161.2,1202.3,184.9,1206,170.4z"/>
				</g>
				<g>
					<circle class="st4" cx="1324.8" cy="166.2" r="22.4"/>
					<circle class="st4" cx="1354.6" cy="177" r="24.4"/>
					<circle class="st4" cx="1315.9" cy="101.3" r="13.5"/>
					<rect x="1302.4" y="101.3" class="st4" width="29.9" height="61"/>
					<path class="st4" d="M1378.1,170.4c-13.2-52.4-53.6-79.5-53.6-79.5l-5.4,70.4C1319.1,161.2,1381.8,184.9,1378.1,170.4z"/>
				</g>
			</g>
			<rect x="1284.6" y="40.4" class="st4" width="14.9" height="56.1"/>
			<g>
				
					<rect x="1302.2" y="84.9" transform="matrix(0.7071 -0.7071 0.7071 0.7071 303.7026 959.1639)" class="st4" width="14.9" height="56.1"/>
				
					<rect x="1246.3" y="105.5" transform="matrix(0.7071 -0.7071 0.7071 0.7071 293.369 934.1749)" class="st4" width="56.1" height="14.9"/>
			</g>
		</g>
		<g>
			<circle class="st4" cx="1258.4" cy="-129.4" r="13.6"/>
			<circle class="st4" cx="1278.7" cy="-141" r="14.7"/>
			<circle class="st4" cx="1301.3" cy="-142.4" r="16.3"/>
			<circle class="st4" cx="1252.1" cy="-123.9" r="8.1"/>
			<circle class="st4" cx="1331.7" cy="-123.9" r="8.1"/>
			<circle class="st4" cx="1320.7" cy="-135.4" r="11"/>
			<rect x="1252.1" y="-129.4" class="st4" width="79.6" height="13.6"/>
			<rect x="1277.6" y="-138.4" class="st4" width="14.3" height="17.6"/>
		</g>
		<g>
			<path class="st5" d="M1459.8,532.6c0,0,20.9-17.7,20.3-35.7c-1.6-43.9,1.6-76-1.6-100.3c-8-60.9-24.9-73-27.9-100.5
				c-2.6-23.1,5-164.8-13-199.7c-19.1-36.9-65.2-41.5-97.4-33c-22.8,6-28.3,24.1-30.4,35.6c-1.6,8.8-1.8,16.5,2.7,35.8"/>
			<path class="st5" d="M1390.9,62.3c23.7,6.2,25.7,29.3,27.5,56.9s33.3,135.3,30.9,171.2s-1.1,91.7,6.5,115.8s21.6,54.8,23.8,80.9"
				/>
			<path class="st5" d="M1124.6,532.6c0,0-20.9-17.7-20.3-35.7c1.6-43.9-1.6-76,1.6-100.3c8-60.9,24.9-73,27.9-100.5
				c2.6-23.1-5-164.8,13-199.7c19.1-36.9,65.2-41.5,97.4-33c22.8,6,47.4,21.8,51.6,35.6c2.6,8.6,8.6,16.5,4.2,35.8"/>
			<path class="st5" d="M1193.5,62.3c-23.7,6.2-25.7,29.3-27.5,56.9s-33.3,135.3-30.9,171.2c2.4,35.9,1.1,91.7-6.5,115.8
				s-21.6,54.8-23.8,80.9"/>
			<path class="st5" d="M1339.1-120.8c0,0,10.1,25.8,0,53s-24.3,53.3-23.2,68.4c1.1,15.2,24.2,62.9,24.2,62.9"/>
			<line class="st5" x1="1315.9" y1="-2.8" x2="1321.8" y2="72.8"/>
			<path class="st5" d="M1243.8-120.8c0,0-10.1,25.8,0,53c10.1,27.2,24.3,53.3,23.2,68.4s-24.2,62-24.2,62"/>
			<line class="st5" x1="1267" y1="-2.8" x2="1261.2" y2="69.4"/>
			<path class="st5" d="M1295.8,183c0,0-3.9,223.5,0.4,234.6c4.3,11.1,78.3,67.9,82.1,115c8.8,108-27.9,228.6-29.6,234.1
				c-6.6,21.4,19,145.2,13.3,195.2s-26.4,117.2-29.7,141.5c-3.2,24.3-5.6,54.3-5.6,54.3"/>
			<path class="st5" d="M1324.8,448.3c13,13.8,18.6,46.7,16.4,84.3c-2.1,37.6,8.4,197.7,2.4,249.2s-18.1,154.4-14.2,193
				c3.9,38.6,7.1,90.2,2.9,128.7"/>
			<path class="st5" d="M1294.6,414.2c-4.3,11.1-86.7,71.3-90.5,118.4c-8.8,108,27.9,228.6,29.6,234.1c6.6,21.4-19,145.2-13.3,195.2
				c5.7,50,26.4,117.2,29.7,141.5c3.2,24.3,5.6,54.3,5.6,54.3"/>
			<path class="st5" d="M1258,450.4c-13,13.8-19,44.6-16.9,82.2c2.1,37.6-8.4,197.7-2.4,249.2s18.1,154.4,14.2,193
				c-3.9,38.6-7.1,90.2-2.9,128.7"/>
		</g>
		<path class="st6" d="M1297.2,111.8c0,0,4.3,6.4,3.8,7.8c-0.4,1.4-3.7,2.6-7.2,11c-2.3,5.8,0.9,11.3-0.6,12.4
			c-1.6,1.1-5.7,7.9-6.9,10.2c-8.9,16.7,4,34.6,13.3,41.2c9.3,6.5,18.4,6.7,24.3,9.3c8.2,3.5,19,5.8,25.3-5.3c0,0,4.1-8.5-1-24.1
			c-2.9-8.9-6.4-15.4-8.1-17.8c-5.5-7.7-11.2-11.2-13.8-12.6c-1.4-0.7-0.8-3.8,2-5c2.8-1.3,6-0.3,6-0.3l1-4c0,0-3.9-1.3-5.8-0.9
			c-1.9,0.3,2.1-4.2,2.3-7.3c0,0-2.7-2.3-4.4-1.7c0,0-1,3.7-3.5,7.7c0,0,1-9.6-5.9-14.6c0,0,1.6-8.1,2.1-8.8c0,0-3.2-1.7-4.5-1.4
			c0,0-1.9,8.1-2.2,8.3c-0.3,0.2-0.9,1.2-1.5,0.2s-0.8-9.6-0.8-9.6l-4.4,0.5c0,0,1.9,9.3,0.7,9.8c-0.4,0.2-0.8,0.8-1.6,0.1
			c-2.1-1.8-4.3-6.9-4.3-7.3C1301.4,109,1297.2,111.8,1297.2,111.8z"/>
	</g>
	<g id="General">
		<g>
			<g>
				<path class="st7" d="M1293-171.6c-0.4,0-0.7,0-1,0s-0.7,0-1,0c-44.9-0.4-62.4,35.1-59.8,80.4c2.5,44.3,19.6,91.2,60.6,92.1l0,0
					c0.1,0,0.2,0,0.3,0s0.2,0,0.3,0l0,0c41-0.9,58.1-47.8,60.6-92.1C1355.5-136.4,1338-172,1293-171.6z"/>
				<g>
					
						<ellipse transform="matrix(-0.1335 0.991 -0.991 -0.1335 1458.042 -1422.4712)" class="st7" cx="1350.9" cy="-73.8" rx="23.8" ry="8"/>
					
						<ellipse transform="matrix(-0.991 0.1335 -0.1335 -0.991 2445.6582 -311.6957)" class="st7" cx="1233.3" cy="-73.9" rx="8" ry="23.8"/>
				</g>
				<rect x="1256.9" y="-31.3" class="st7" width="70.1" height="73.1"/>
				<g>
					<path class="st7" d="M1304.9,74.8L1256.8,1l0,0c0,20.9-16.9,37.8-37.8,37.8l0,0L1304.9,74.8z"/>
					<path class="st7" d="M1279.1,74.8L1327.2,1l0,0c0,20.9,16.9,37.8,37.8,37.8l0,0L1279.1,74.8z"/>
				</g>
			</g>
			<g>
				<rect x="1202.4" y="38.5" class="st7" width="178.7" height="281.4"/>
				<path class="st7" d="M1175,77h233.4v86.2c0,35.4-28.7,64-64,64H1239c-35.4,0-64-28.7-64-64V77z"/>
				<path class="st7" d="M1129.2,160.2h325.1v-59.3c0-34.5-28-62.4-62.4-62.4h-200.3c-34.5,0-62.4,28-62.4,62.4V160.2L1129.2,160.2z
					"/>
				<path class="st7" d="M1381.1,319.9h-89.4V516h127.1c0,0,0-24.5,0-74.5C1418.8,393.5,1381.1,319.9,1381.1,319.9z"/>
				<path class="st7" d="M1202.3,319.9h89.4V516h-127.1c0,0,0-24.5,0-74.5C1164.6,393.5,1202.3,319.9,1202.3,319.9z"/>
				<g>
					<path class="st7" d="M1377,767c0,19.3-77.1,0-77.1,0V516c0,0,118.8-29.7,118.8,0C1418.8,622.8,1377,737.9,1377,767z"/>
					<path class="st7" d="M1355.9,1081.9h-41L1300,767.1h76.9c0,0,6.4,92.3,6.4,123.2C1383.2,976.9,1355.9,1081.9,1355.9,1081.9z"/>
					<path class="st7" d="M1363.7,1176.9c-0.1,2.3-2.4,6-4.9,9.3c-3.8,5-9.7,7.8-15.9,7.8h-29.7c-7,0-12.4-6.1-11.4-13.1l13.1-99h41
						C1355.8,1081.9,1364.7,1147.6,1363.7,1176.9z"/>
				</g>
				<g>
					<path class="st7" d="M1206.4,767c0,19.3,77.1,0,77.1,0V516c0,0-118.8-29.7-118.8,0C1164.6,622.8,1206.4,737.9,1206.4,767z"/>
					<path class="st7" d="M1227.5,1081.9h41l14.9-314.8h-76.9c0,0-6.4,92.3-6.4,123.2C1200.2,976.9,1227.5,1081.9,1227.5,1081.9z"/>
					<path class="st7" d="M1219.7,1176.9c0.1,2.3,2.4,6,4.9,9.3c3.8,5,9.7,7.8,15.9,7.8h29.7c7,0,12.4-6.1,11.4-13.1l-13.1-99h-41
						C1227.6,1081.9,1218.7,1147.6,1219.7,1176.9z"/>
				</g>
				<polygon class="st7" points="1474.7,309.5 1428.8,314.8 1401,97.5 1454.1,91.3 				"/>
				<path class="st7" d="M1489.5,494.2l-27,3.1l-33.7-182.5c0,0,42.4-39.8,43.8-27.7c2.5,21.5,8.9,43.4,12.1,73.1
					C1488.3,393.5,1489.5,494.2,1489.5,494.2z"/>
				<path class="st7" d="M1489.5,494.2v41.4c0,8.9-2.7,17.6-7.9,24.9l-32.8,46.9c-2.7,3.9-8,4.9-11.9,2.3l0,0
					c-3.7-2.4-5-7.1-3.1-11.1l20.4-42.3l-2.8-15.3l-14.6,28.8c-0.7,1.3-2.2,2-3.7,1.6l0,0c-1.5-0.4-2.5-1.9-2.3-3.4l3.1-27.7
					c0.8-7.2,3.3-14.1,7.4-20.1l21.2-22.9L1489.5,494.2z"/>
				<g>
					<polygon class="st7" points="1109.3,309.5 1155.2,314.8 1183,97.5 1129.9,91.3 					"/>
					<path class="st7" d="M1094.5,494.2l27,3.1l33.7-182.5c0,0-42.4-39.8-43.8-27.7c-2.5,21.5-8.9,43.4-12.1,73.1
						C1095.7,393.5,1094.5,494.2,1094.5,494.2z"/>
					<path class="st7" d="M1094.5,494.2v41.4c0,8.9,2.7,17.6,7.9,24.9l32.9,46.8c2.7,3.9,8,4.9,11.9,2.3l0,0c3.7-2.4,5-7.1,3.1-11.1
						l-20.4-42.3l2.8-15.3l14.6,28.8c0.7,1.3,2.2,2,3.7,1.6l0,0c1.5-0.4,2.5-1.9,2.3-3.4l-3.1-27.7c-0.8-7.2-3.3-14.1-7.4-20.1
						l-21.2-22.9L1094.5,494.2z"/>
				</g>
			</g>
		</g>
		<g>
			<g>
				<path class="st3" d="M1309.5,45.2L1309.5,45.2c3.9-2.5,8.4-3.9,13.1-3.9h6.3c7.9,0.5,12.9,3.1,16,7.1
					c21.4,27.7,48.6,65,55.8,114.3c1.7,11.9-15.2,35.7-19.8,39.1c-55.8,41.5-87.2-27.9-87.2-27.9l5-109.7
					C1299,56.4,1303.1,49.4,1309.5,45.2z"/>
				<circle class="st3" cx="1346.1" cy="167.9" r="54.6"/>
			</g>
			<g>
				<path class="st3" d="M1275.3,45.2L1275.3,45.2c-3.9-2.5-8.4-3.9-13.1-3.9h-6.3c-7.9,0.5-12.9,3.1-16,7.1
					c-21.4,27.7-48.6,65-55.8,114.3c-1.7,11.9,15.2,35.7,19.8,39.1c55.8,41.5,87.2-27.9,87.2-27.9l17.6-99l-22.5-10.6
					C1285.8,56.4,1281.7,49.4,1275.3,45.2z"/>
				<circle class="st3" cx="1238.7" cy="167.9" r="54.6"/>
			</g>
		</g>
		<path class="st4" d="M1292,487.6L1292,487.6c-30.3,0-54.9-24.6-54.9-54.9V371c0-30.3,24.6-54.9,54.9-54.9l0,0
			c30.3,0,54.9,24.6,54.9,54.9v61.7C1346.9,463,1322.3,487.6,1292,487.6z"/>
		<g>
			<g>
				<g>
					<circle class="st4" cx="1259.6" cy="166.5" r="22.4"/>
					<circle class="st4" cx="1229.8" cy="177.3" r="24.4"/>
					<circle class="st4" cx="1268.5" cy="101.7" r="13.5"/>
					<rect x="1252.2" y="101.7" class="st4" width="29.9" height="61"/>
					<path class="st4" d="M1206.3,170.7c13.2-52.4,53.6-79.5,53.6-79.5l5.4,70.4C1265.4,161.5,1202.6,185.2,1206.3,170.7z"/>
				</g>
				<g>
					<circle class="st4" cx="1325.2" cy="166.5" r="22.4"/>
					<circle class="st4" cx="1355" cy="177.3" r="24.4"/>
					<circle class="st4" cx="1316.3" cy="101.7" r="13.5"/>
					<rect x="1302.7" y="101.6" class="st4" width="29.9" height="61"/>
					<path class="st4" d="M1378.5,170.7c-13.2-52.4-53.6-79.5-53.6-79.5l-5.4,70.4C1319.4,161.5,1382.1,185.2,1378.5,170.7z"/>
				</g>
			</g>
			<rect x="1284.9" y="40.8" class="st4" width="14.9" height="56.1"/>
			<g>
				
					<rect x="1302.6" y="85.4" transform="matrix(0.7071 -0.7071 0.7071 0.7071 303.5023 959.569)" class="st4" width="14.9" height="56.1"/>
				
					<rect x="1246.6" y="105.9" transform="matrix(0.7071 -0.7071 0.7071 0.7071 293.2124 934.5241)" class="st4" width="56.1" height="14.9"/>
			</g>
		</g>
		<g>
			<path class="st5" d="M1460.1,532.9c0,0,20.9-17.7,20.3-35.7c-1.6-43.9,1.6-76-1.6-100.3c-8-60.9-24.9-73-27.9-100.5
				c-2.6-23.1,5-164.8-13-199.7c-19.1-36.9-65.2-41.5-97.4-33c-22.8,6-28.3,24.1-30.4,35.6c-1.6,8.8-1.8,16.5,2.7,35.8"/>
			<path class="st5" d="M1391.3,62.7c23.7,6.2,25.7,29.3,27.5,56.9c1.8,27.6,33.3,135.3,30.9,171.2c-2.4,35.9-1.1,91.7,6.5,115.8
				c7.6,24.1,21.6,54.8,23.8,80.9"/>
			<path class="st5" d="M1125,532.9c0,0-20.9-17.7-20.3-35.7c1.6-43.9-1.6-76,1.6-100.3c8-60.9,24.9-73,27.9-100.5
				c2.6-23.1-5-164.8,13-199.7c19.1-36.9,65.2-41.5,97.4-33c22.8,6,47.4,21.8,51.6,35.6c2.6,8.6,8.6,16.5,4.2,35.8"/>
			<path class="st5" d="M1193.8,62.7c-23.7,6.2-25.7,29.3-27.5,56.9c-1.8,27.6-33.3,135.3-30.9,171.2c2.4,35.9,1.1,91.7-6.5,115.8
				s-21.6,54.8-23.8,80.9"/>
			<path class="st5" d="M1340.4,63.8c0,0-23.1-47.7-24.2-62.9c-1.1-15.2,13.1-41.3,23.2-68.4c5.7-15.3,5-30.2,3.3-40.3
				c-1.3-7.6-6.4-14-13.5-16.9l-4.6-1.9"/>
			<line class="st5" x1="1316.3" y1="-2.5" x2="1322.1" y2="73.1"/>
			<path class="st5" d="M1243.2,63c0,0,23.1-46.8,24.2-62s-13.1-41.3-23.2-68.4c-6.5-17.4-4.7-34.3-2.5-44.1
				c1.2-5.4,4.3-10.1,8.7-13.3l4.8-3.5"/>
			<line class="st5" x1="1267.4" y1="-2.5" x2="1261.5" y2="69.7"/>
			<path class="st5" d="M1296.1,183.4c0,0-3.9,223.5,0.4,234.6s78.3,67.9,82.1,115c8.8,108-27.9,228.6-29.6,234.1
				c-6.6,21.4,19,145.2,13.3,195.2c-5.7,50-26.4,117.2-29.7,141.5c-3.2,24.3-5.6,54.3-5.6,54.3"/>
			<path class="st5" d="M1325.2,448.6c13,13.8,18.6,46.7,16.4,84.3c-2.1,37.6,8.4,197.7,2.4,249.2s-18.1,154.4-14.2,193
				s7.1,90.2,2.9,128.7"/>
			<path class="st5" d="M1295,414.6c-4.3,11.1-86.7,71.3-90.5,118.4c-8.8,108,27.9,228.6,29.6,234.1c6.6,21.4-19,145.2-13.3,195.2
				c5.7,50,26.4,117.2,29.7,141.5c3.2,24.3,5.6,54.3,5.6,54.3"/>
			<path class="st5" d="M1258.4,450.7c-13,13.8-19,44.6-16.9,82.2c2.1,37.6-8.4,197.7-2.4,249.2s18.1,154.4,14.2,193
				c-3.9,38.6-7.1,90.2-2.9,128.7"/>
		</g>
		<path class="st6" d="M1297.5,112.1c0,0,4.3,6.4,3.8,7.8c-0.4,1.4-3.7,2.6-7.2,11c-2.3,5.8,0.9,11.3-0.6,12.4
			c-1.6,1.1-5.7,7.9-6.9,10.2c-8.9,16.7,4,34.6,13.3,41.2c9.3,6.5,18.4,6.7,24.3,9.3c8.2,3.5,19,5.8,25.3-5.3c0,0,4.1-8.5-1-24.1
			c-2.9-8.9-6.4-15.4-8.1-17.8c-5.5-7.7-11.2-11.2-13.8-12.6c-1.4-0.7-0.8-3.8,2-5c2.8-1.3,6-0.3,6-0.3l1-4c0,0-3.9-1.3-5.8-0.9
			c-1.9,0.3,2.1-4.2,2.3-7.3c0,0-2.7-2.3-4.4-1.7c0,0-1,3.7-3.5,7.7c0,0,1-9.6-5.9-14.6c0,0,1.6-8.1,2.1-8.8c0,0-3.2-1.7-4.5-1.4
			c0,0-1.9,8.1-2.2,8.3c-0.3,0.2-0.9,1.2-1.5,0.2c-0.6-1-0.8-9.6-0.8-9.6l-4.4,0.5c0,0,1.9,9.3,0.7,9.8c-0.4,0.2-0.8,0.8-1.6,0.1
			c-2.1-1.8-4.3-6.9-4.3-7.3C1301.7,109.4,1297.5,112.1,1297.5,112.1z"/>
		<g>
			<circle class="st4" cx="1258.7" cy="-129" r="13.6"/>
			<circle class="st4" cx="1279" cy="-140.7" r="14.7"/>
			<circle class="st4" cx="1301.6" cy="-142.1" r="16.3"/>
			<circle class="st4" cx="1252.5" cy="-123.6" r="8.1"/>
			<circle class="st4" cx="1332" cy="-123.6" r="8.1"/>
			<circle class="st4" cx="1321" cy="-135" r="11"/>
			<rect x="1252.5" y="-129" class="st4" width="79.6" height="13.6"/>
			<rect x="1277.9" y="-138.1" class="st4" width="14.3" height="17.6"/>
		</g>
		<g>
			<rect x="689.6" y="537.7" class="st8" width="283.7" height="57.7"/>
			<text transform="matrix(1 0 0 1 689.5591 561.8361)" class="st1 st9 st10">General / Altres           </text>
		</g>
		<line class="st11" x1="1185.7" y1="515.3" x2="689.6" y2="513.6"/>
		<g>
			<g>
				<rect x="689.6" y="595.7" class="st8" width="538.6" height="474.6"/>
				<text transform="matrix(1 0 0 1 689.5598 613.3201)" class="st1 st9 st12">Obesitat</text>
				<text transform="matrix(1 0 0 1 689.5598 649.3201)" class="st1 st9 st12">Diabetis</text>
				<text transform="matrix(1 0 0 1 689.5598 685.3201)" class="st1 st9 st12">Síndrome metabòlica</text>
				<text transform="matrix(1 0 0 1 689.5598 721.3201)" class="st1 st9 st12">Molèsties, estrès </text>
				<text transform="matrix(1 0 0 1 689.5598 757.3201)" class="st1 st9 st12">Trastorn del son</text>
				<text transform="matrix(1 0 0 1 689.5598 793.3201)" class="st9 st12">Lesions per accidents de feina i trànsit</text>
				<text transform="matrix(1 0 0 1 689.5598 829.3201)" class="st1 st9 st12">Càncer de còlon</text>
				<text transform="matrix(1 0 0 1 689.5598 865.4199)" class="st1 st9 st12">Inflamació sistèmica</text>
				<text transform="matrix(1 0 0 1 689.5598 901.4199)" class="st1 st9 st12">Pitjor estat de salut general</text>
				<text transform="matrix(1 0 0 1 689.5598 937.4199)" class="st1 st9 st12">Augment de la mortalitat</text>
			</g>
			<circle class="st13" cx="678.2" cy="750" r="5.5"/>
			<circle class="st14" cx="678.2" cy="605.6" r="5.5"/>
			<circle class="st15" cx="678.2" cy="784.5" r="5.5"/>
			<g>
				<circle class="st16" cx="678.2" cy="642.2" r="5.5"/>
				<circle class="st14" cx="664.2" cy="642.2" r="5.5"/>
			</g>
			<g>
				<circle class="st13" cx="678.2" cy="714.3" r="5.5"/>
				<circle class="st17" cx="664.4" cy="714.3" r="5.5"/>
			</g>
			<circle class="st17" cx="678.2" cy="892.1" r="5.5"/>
			<g>
				<circle class="st15" cx="651.9" cy="927.7" r="5.5"/>
				<ellipse class="st14" cx="638.7" cy="927.7" rx="5.5" ry="5.5"/>
				<circle class="st17" cx="625.7" cy="927.7" r="5.5"/>
				<circle class="st13" cx="665" cy="927.7" r="5.5"/>
				<circle class="st16" cx="678.2" cy="927.7" r="5.5"/>
			</g>
			<circle class="st14" cx="678.2" cy="676.6" r="5.5"/>
			<circle class="st14" cx="678.2" cy="819.4" r="5.5"/>
			<circle class="st16" cx="678.2" cy="856.4" r="5.5"/>
		</g>
	</g>
	<g id="Pit">
		<g>
			<g>
				<path class="st7" d="M1309.5,45.1L1309.5,45.1c3.9-2.5,8.4-3.9,13.1-3.9h6.3c7.9,0.5,12.9,3.1,16,7.1
					c21.4,27.7,48.6,65,55.8,114.3c1.7,11.9-15.2,35.7-19.8,39.1c-55.8,41.5-87.2-27.9-87.2-27.9l5-109.7
					C1299,56.4,1303.1,49.3,1309.5,45.1z"/>
				<circle class="st7" cx="1346.1" cy="167.8" r="54.6"/>
			</g>
			<g>
				<path class="st7" d="M1275.3,45.1L1275.3,45.1c-3.9-2.5-8.4-3.9-13.1-3.9h-6.3c-7.9,0.5-12.9,3.1-16,7.1
					c-21.4,27.7-48.6,65-55.8,114.3c-1.7,11.9,15.2,35.7,19.8,39.1c55.8,41.5,87.2-27.9,87.2-27.9l17.6-99l-22.5-10.6
					C1285.8,56.4,1281.7,49.3,1275.3,45.1z"/>
				<circle class="st7" cx="1238.7" cy="167.8" r="54.6"/>
			</g>
		</g>
		<g>
			<g>
				<g>
					<circle class="st4" cx="1259.6" cy="166.5" r="22.4"/>
					<circle class="st4" cx="1229.8" cy="177.3" r="24.4"/>
					<circle class="st4" cx="1268.5" cy="101.6" r="13.5"/>
					<rect x="1252.2" y="101.6" class="st4" width="29.9" height="61"/>
					<path class="st4" d="M1206.3,170.7c13.2-52.4,53.6-79.5,53.6-79.5l5.4,70.4C1265.4,161.5,1202.6,185.2,1206.3,170.7z"/>
				</g>
				<g>
					<circle class="st4" cx="1325.2" cy="166.5" r="22.4"/>
					<circle class="st4" cx="1355" cy="177.3" r="24.4"/>
					<circle class="st4" cx="1316.3" cy="101.6" r="13.5"/>
					<rect x="1302.7" y="101.6" class="st4" width="29.9" height="61"/>
					<path class="st4" d="M1378.5,170.7c-13.2-52.4-53.6-79.5-53.6-79.5l-5.4,70.4C1319.4,161.5,1382.1,185.2,1378.5,170.7z"/>
				</g>
			</g>
			<rect x="1284.9" y="40.7" class="st4" width="14.9" height="56.1"/>
			<g>
				
					<rect x="1302.6" y="85.2" transform="matrix(0.7071 -0.7071 0.7071 0.7071 303.6036 959.5271)" class="st4" width="14.9" height="56.1"/>
				
					<rect x="1246.7" y="105.8" transform="matrix(0.7071 -0.7071 0.7071 0.7071 293.2432 934.5327)" class="st4" width="56.1" height="14.9"/>
			</g>
		</g>
		<g>
			<path class="st5" d="M1359.7,60.5c-6.7,0.5-13.2,1.7-19.2,3.2c-22.8,6-28.3,24.1-30.4,35.6c-1.6,8.8-1.8,16.5,2.7,35.8"/>
			<path class="st5" d="M1391.3,62.6"/>
			<path class="st5" d="M1340.4,63.8c0,0-23.1-47.7-24.2-62.9"/>
			<line class="st5" x1="1316.3" y1="-2.5" x2="1322.1" y2="73.1"/>
			<path class="st5" d="M1243.2,62.9c0,0,23.1-46.8,24.2-62"/>
			<line class="st5" x1="1267.4" y1="-2.5" x2="1261.5" y2="69.7"/>
		</g>
		<path class="st6" d="M1297.5,112.1c0,0,4.3,6.4,3.8,7.8c-0.4,1.4-3.7,2.6-7.2,11c-2.3,5.8,0.9,11.3-0.6,12.4
			c-1.6,1.1-5.7,7.9-6.9,10.2c-8.9,16.7,4,34.6,13.3,41.2c9.3,6.5,18.4,6.7,24.3,9.3c8.2,3.5,19,5.8,25.3-5.3c0,0,4.1-8.5-1-24.1
			c-2.9-8.9-6.4-15.4-8.1-17.8c-5.5-7.7-11.2-11.2-13.8-12.6c-1.4-0.7-0.8-3.8,2-5c2.8-1.3,6-0.3,6-0.3l1-4c0,0-3.9-1.3-5.8-0.9
			c-1.9,0.3,2.1-4.2,2.3-7.3c0,0-2.7-2.3-4.4-1.7c0,0-1,3.7-3.5,7.7c0,0,1-9.6-5.9-14.6c0,0,1.6-8.1,2.1-8.8c0,0-3.2-1.7-4.5-1.4
			c0,0-1.9,8.1-2.2,8.3c-0.3,0.2-0.9,1.2-1.5,0.2c-0.6-1-0.8-9.6-0.8-9.6l-4.4,0.5c0,0,1.9,9.3,0.7,9.8c-0.4,0.2-0.8,0.8-1.6,0.1
			c-2.1-1.8-4.3-6.9-4.3-7.3C1301.7,109.3,1297.5,112.1,1297.5,112.1z"/>
		<g>
			<circle class="st14" cx="678.2" cy="428.2" r="5.5"/>
			<g>
				<rect x="689.6" y="418.3" class="st8" width="357.8" height="48.9"/>
				<text transform="matrix(1 0 0 1 689.5586 435.9252)" class="st1 st9 st12">Càncer de pit </text>
			</g>
			<g>
				<rect x="689.6" y="358.9" class="st8" width="385.2" height="138.5"/>
				<text transform="matrix(1 0 0 1 689.5576 383.0969)" class="st1 st9 st10">PIT</text>
			</g>
			<polyline class="st11" points="689.6,336.5 1052.4,335.1 1202.4,144 			"/>
		</g>
		<line class="st5" x1="1267.3" y1="-3.5" x2="1261.5" y2="68.7"/>
		<path class="st5" d="M1296.1,98.4c2.6,8.6,8.6,16.5,4.2,35.8"/>
		<path class="st5" d="M1244.5,62.8c22.8,6,47.4,21.8,51.6,35.6"/>
	</g>
	<g id="Cor">
		<path class="st7" d="M1297.1,111.9c0,0,4.3,6.4,3.8,7.8c-0.4,1.4-3.7,2.6-7.2,11c-2.3,5.8,0.9,11.3-0.6,12.4
			c-1.6,1.1-5.7,7.9-6.9,10.2c-8.9,16.7,4,34.6,13.3,41.2c9.3,6.5,18.4,6.7,24.3,9.3c8.2,3.5,19,5.8,25.3-5.3c0,0,4.1-8.5-1-24.1
			c-2.9-8.9-6.4-15.4-8.1-17.8c-5.5-7.7-11.2-11.2-13.8-12.6c-1.4-0.7-0.8-3.8,2-5c2.8-1.3,6-0.3,6-0.3l1-4c0,0-3.9-1.3-5.8-0.9
			c-1.9,0.3,2.1-4.2,2.3-7.3c0,0-2.7-2.3-4.4-1.7c0,0-1,3.7-3.5,7.7c0,0,1-9.6-5.9-14.6c0,0,1.6-8.1,2.1-8.8c0,0-3.2-1.7-4.5-1.4
			c0,0-1.9,8.1-2.2,8.3c-0.3,0.2-0.9,1.2-1.5,0.2c-0.6-1-0.8-9.6-0.8-9.6l-4.4,0.5c0,0,1.9,9.3,0.7,9.8c-0.4,0.2-0.8,0.8-1.6,0.1
			c-2.1-1.8-4.3-6.9-4.3-7.3C1301.3,109.1,1297.1,111.9,1297.1,111.9z"/>
		<g>
			<rect x="1508.5" y="229.7" class="st8" width="385.2" height="321.3"/>
			<text transform="matrix(1 0 0 1 1808.8936 253.8336)" class="st1 st9 st10">Cor</text>
		</g>
		<polyline class="st11" points="1893.7,207.3 1530.9,205.9 1330.1,164.5 		"/>
		<g>
			<circle class="st13" cx="1918.9" cy="406.8" r="5.5"/>
			<circle class="st14" cx="1932.7" cy="406.8" r="5.5"/>
			<circle class="st13" cx="1919.1" cy="300" r="5.5"/>
			<circle class="st14" cx="1933" cy="300" r="5.5"/>
			<circle class="st16" cx="1905.3" cy="300" r="5.5"/>
			<circle class="st16" cx="1905.1" cy="335" r="5.5"/>
			<circle class="st16" cx="1905.1" cy="370.9" r="5.5"/>
			<circle class="st16" cx="1905.1" cy="406.8" r="5.5"/>
			<g>
				<rect x="1465" y="288.4" class="st8" width="428.7" height="151.9"/>
				<text transform="matrix(1 0 0 1 1695.9583 306.0137)" class="st1 st9 st12">Infart de miocardi</text>
				<text transform="matrix(1 0 0 1 1791.457 342.0137)" class="st1 st9 st12">Arrítmia</text>
				<text transform="matrix(1 0 0 1 1548.8597 378.0137)" class="st1 st9 st12">Insuficiència congestiva cardíaca</text>
				<text transform="matrix(1 0 0 1 1625.1589 414.0137)" class="st1 st9 st12">Malalties cardiovasculars</text>
			</g>
		</g>
	</g>
	<g id="AparellReproductor_2_">
		<path class="st7" d="M1291.9,487.1L1291.9,487.1c-30.3,0-54.9-24.6-54.9-54.9v-61.7c0-30.3,24.6-54.9,54.9-54.9l0,0
			c30.3,0,54.9,24.6,54.9,54.9v61.7C1346.7,462.6,1322.2,487.1,1291.9,487.1z"/>
		<g>
			<path class="st5" d="M1348.9,766.6"/>
			<path class="st5" d="M1294.5,304c-0.4,54.6-0.2,108.2,1.9,113.5c2.4,6.1,25.9,26.1,47.2,50.8"/>
			<path class="st5" d="M1233.9,766.6"/>
			<path class="st5" d="M1294.9,414.1c-2.4,6.2-29.5,28-53.4,54.2"/>
		</g>
		<g>
			<rect x="1526.4" y="516.2" class="st8" width="366.7" height="123.5"/>
			<text transform="matrix(1 0 0 1 1550.082 540.4014)" class="st1 st9 st10">Aparell reproductor i </text>
			<text transform="matrix(1 0 0 1 1797.7802 577.9014)" class="st1 st9 st10">fetus</text>
		</g>
		<polyline class="st11" points="1325,373.3 1507.4,493.3 1893.1,492.1 		"/>
		<g>
			<g>
				<rect x="1532.2" y="611.9" class="st8" width="360.9" height="195.4"/>
				<text transform="matrix(1 0 0 1 1672.3164 629.451)" class="st1 st9 st12">Naixement prematur </text>
				<text transform="matrix(1 0 0 1 1690.5165 665.451)" class="st1 st9 st12">Pes reduït al néixer  </text>
				<text transform="matrix(1 0 0 1 1741.4155 701.451)" class="st1 st9 st12">Preeclàmpsia</text>
				<text transform="matrix(1 0 0 1 1618.0168 737.451)" class="st1 st9 st12">Reducció de la qualitat de </text>
				<text transform="matrix(1 0 0 1 1773.3149 763.451)" class="st1 st9 st12">l&apos;esperma</text>
			</g>
			<circle class="st16" cx="1905.6" cy="621.8" r="5.5"/>
			<circle class="st16" cx="1905.6" cy="659.3" r="5.5"/>
			<circle class="st16" cx="1905.6" cy="729.3" r="5.5"/>
			<circle class="st15" cx="1919.4" cy="621.8" r="5.5"/>
			<circle class="st16" cx="1905.6" cy="695.4" r="5.5"/>
		</g>
	</g>
	<g id="Cap">
		<path class="st7" d="M1331.8-132c-0.2,0-0.4,0-0.6,0c0.4-1.1,0.6-2.2,0.6-3.4c0-6.1-4.9-11-11-11c-1.2,0-2.4,0.2-3.5,0.6
			c-1.6-7.4-8.1-12.9-15.9-12.9c-5.3,0-10,2.6-13,6.5c-2.6-2.2-5.9-3.6-9.6-3.6c-7.9,0-14.3,6.2-14.7,14c-1.7-0.8-3.6-1.2-5.6-1.2
			c-7.5,0-13.6,6.1-13.6,13.6c0,0.6,0.1,1.2,0.1,1.8c-0.6,1.1-0.9,2.4-0.9,3.7c0,4.5,3.6,8.1,8.1,8.1h79.6c4.5,0,8.1-3.6,8.1-8.1
			C1339.9-128.4,1336.3-132,1331.8-132z M1311.6-129.4h-0.4c0.1-0.1,0.2-0.1,0.3-0.2C1311.5-129.6,1311.5-129.5,1311.6-129.4z"/>
		<g>
			<rect x="689.4" y="-116.2" class="st8" width="283.7" height="41.9"/>
			<text transform="matrix(1 0 0 1 689.356 -91.9974)" class="st1 st9 st10">CAP</text>
		</g>
		<line class="st11" x1="1301.8" y1="-138.6" x2="689.4" y2="-140.3"/>
		<g>
			<g>
				<rect x="689.4" y="-57.4" class="st8" width="380.7" height="427.2"/>
				<text transform="matrix(1 0 0 1 689.3555 -39.8396)" class="st1 st9 st12">Demència</text>
				<text transform="matrix(1 0 0 1 689.3555 -3.8396)" class="st1 st9 st12">Deteriorament cognitiu </text>
				<text transform="matrix(1 0 0 1 689.3555 32.1604)" class="st1 st9 st12">Malalties neurodegeneratives </text>
				<text transform="matrix(1 0 0 1 689.3555 68.1604)" class="st1 st9 st12">Problemes de salut mental </text>
				<text transform="matrix(1 0 0 1 689.3555 104.1604)" class="st1 st9 st12">Ictus</text>
				<text transform="matrix(1 0 0 1 689.3555 140.1604)" class="st1 st9 st12">Malalties cerebrovasculars </text>
				<text transform="matrix(1 0 0 1 689.3555 176.1604)" class="st1 st9 st12">Autisme i problemes de</text>
				<text transform="matrix(1 0 0 1 689.3555 202.1605)" class="st1 st9 st12">conducta en nens</text>
				<text transform="matrix(1 0 0 1 689.3555 238.2606)" class="st9 st12">Tinnitus o sordesa</text>
				<text transform="matrix(1 0 0 1 689.3555 274.2606)" class="st9 st12">Reducció del rendiment cognitiu</text>
			</g>
			<circle class="st16" cx="678" cy="166.1" r="5.5"/>
			<circle class="st13" cx="678" cy="228.7" r="5.5"/>
			<circle class="st15" cx="678" cy="265" r="5.5"/>
			<g>
				<circle class="st16" cx="678" cy="94.3" r="5.5"/>
				<circle class="st14" cx="650.3" cy="94.3" r="5.5"/>
				<circle class="st13" cx="664.2" cy="94.3" r="5.5"/>
			</g>
			<g>
				<circle class="st16" cx="678" cy="-47.9" r="5.5"/>
				<circle class="st14" cx="664.2" cy="-47.9" r="5.5"/>
			</g>
			<g>
				<circle class="st16" cx="678" cy="24.2" r="5.5"/>
				<circle class="st14" cx="664.2" cy="24.2" r="5.5"/>
			</g>
			<g>
				<circle class="st13" cx="678" cy="132.7" r="5.5"/>
				<circle class="st14" cx="664.2" cy="132.7" r="5.5"/>
			</g>
			<g>
				<circle class="st13" cx="678" cy="-11.2" r="5.5"/>
				<circle class="st14" cx="664.2" cy="-11.2" r="5.5"/>
			</g>
			<circle class="st17" cx="650.3" cy="59.4" r="5.5"/>
			<circle class="st14" cx="664.2" cy="59.4" r="5.5"/>
			<circle class="st16" cx="678" cy="59.4" r="5.5"/>
		</g>
	</g>
	<g id="Arteries">
		<g>
			<path class="st18" d="M1459.7,533.7c0,0,20.9-17.7,20.3-35.7c-1.6-43.9,1.6-76-1.6-100.3c-8-60.9-24.9-73-27.9-100.5
				c-2.6-23.1,5-164.8-13-199.7c-19.1-36.9-65.2-41.5-97.4-33c-22.8,6-28.3,24.1-30.4,35.6c-1.6,8.8-1.8,16.5,2.7,35.8"/>
			<path class="st18" d="M1390.9,63.4c23.7,6.2,25.7,29.3,27.5,56.9s33.3,135.3,30.9,171.2c-2.4,35.9-1.1,91.7,6.5,115.8
				s21.6,54.8,23.8,80.9"/>
			<path class="st18" d="M1124.6,533.7c0,0-20.9-17.7-20.3-35.7c1.6-43.9-1.6-76,1.6-100.3c8-60.9,24.9-73,27.9-100.5
				c2.6-23.1-5-164.8,13-199.7c19.1-36.9,65.2-41.5,97.4-33c22.8,6,47.4,21.8,51.6,35.6c2.6,8.6,8.6,16.5,4.2,35.8"/>
			<path class="st18" d="M1193.4,63.4c-23.7,6.2-25.7,29.3-27.5,56.9s-33.3,135.4-30.9,171.3c2.4,35.9,1.1,91.7-6.5,115.8
				s-21.6,54.8-23.8,80.9"/>
			<path class="st18" d="M1340.1,64.6c0,0-23.1-47.7-24.2-62.9c-1.1-15.2,13.1-41.3,23.2-68.4c5.7-15.3,5-30.2,3.3-40.3
				c-1.3-7.6-6.4-14-13.5-16.9l-4.6-1.9"/>
			<line class="st18" x1="1315.9" y1="-1.7" x2="1321.7" y2="73.9"/>
			<path class="st18" d="M1242.8,63.7c0,0,23.1-46.8,24.2-62s-13.1-41.3-23.2-68.4c-6.5-17.4-4.7-34.3-2.5-44.1
				c1.2-5.4,4.3-10.1,8.7-13.3l4.8-3.5"/>
			<line class="st18" x1="1267" y1="-1.7" x2="1261.1" y2="70.5"/>
			<path class="st18" d="M1295.7,184.2c0,0-3.9,223.5,0.4,234.6c4.3,11.1,78.3,67.9,82.1,115c8.8,108-27.9,228.6-29.6,234.1
				c-6.6,21.4,19,145.2,13.3,195.2s-26.4,117.2-29.7,141.5c-3.2,24.3-5.6,54.3-5.6,54.3"/>
			<path class="st18" d="M1324.8,449.4c13,13.8,18.6,46.7,16.4,84.3c-2.1,37.6,8.4,197.7,2.4,249.2s-18.1,154.4-14.2,193
				c3.9,38.6,7.1,90.2,2.9,128.7"/>
			<path class="st18" d="M1294.6,415.3c-4.3,11.1-86.7,71.3-90.5,118.4c-8.8,108,27.9,228.6,29.6,234.1
				c6.6,21.4-19,145.2-13.3,195.2c5.7,50,26.4,117.2,29.7,141.5c3.2,24.3,5.6,54.3,5.6,54.3"/>
			<path class="st18" d="M1258,451.5c-13,13.8-19,44.6-16.9,82.2c2.1,37.6-8.4,197.7-2.4,249.2s18.1,154.4,14.2,193
				c-3.9,38.6-7.1,90.2-2.9,128.7"/>
		</g>
		<g>
			<circle class="st14" cx="1919.2" cy="934.9" r="5.5"/>
			<circle class="st13" cx="1905.4" cy="934.9" r="5.5"/>
			<circle class="st16" cx="1905.4" cy="971.4" r="5.5"/>
			<g>
				<rect x="1535" y="923.6" class="st8" width="357.8" height="133.5"/>
				<text transform="matrix(1 0 0 1 1752.781 941.1563)" class="st1 st9 st12">Hipertensió</text>
				<text transform="matrix(1 0 0 1 1606.9828 977.1563)" class="st1 st9 st12">Trombosi venosa profunda</text>
			</g>
			<g>
				<rect x="1507.6" y="865.1" class="st8" width="385.2" height="59.8"/>
				<text transform="matrix(1 0 0 1 1760.252 889.3159)" class="st1 st9 st10">Artèries</text>
			</g>
			<line class="st11" x1="1892.8" y1="841.4" x2="1353.1" y2="839.7"/>
		</g>
	</g>
	<g id="b-General">
		<path class="st7" d="M1291.4,319.3L1291.4,319.3H1202c0,0-37.7,73.6-37.7,121.7c0,49.9,0,74.5,0,74.5c0,106.7,41.7,221.9,41.7,251
			c0,0.4,0,0.8,0.1,1.2c-0.7,10.7-6.3,93.2-6.3,122c0,86.7,27.4,191.7,27.4,191.7h0.1c0,0-8.9,65.7-7.9,95c0.1,2.3,2.4,6,4.9,9.3
			c3.8,5,9.7,7.8,15.9,7.8h29.8c7,0,12.4-6.1,11.4-13.1l-13.1-99l14.9-315v-251h8.2l0,0h8.2v251l14.9,314.8l-13.1,99
			c-0.9,6.9,4.5,13.1,11.4,13.1h29.7c6.2,0,12.1-2.8,15.9-7.8c2.5-3.3,4.9-7,4.9-9.3c1-29.2-7.9-95-7.9-95h0.1
			c0,0,27.4-105,27.4-191.7c0-28.8-5.6-111.3-6.3-122c0.1-0.4,0.1-0.8,0.1-1.2c0-29.1,41.7-144.2,41.7-251c0,0,0-24.5,0-74.5
			c0-48.1-37.7-121.7-37.7-121.7h-89.3L1291.4,319.3L1291.4,319.3z"/>
		<path class="st7" d="M1484.4,359.6c-3.2-29.6-9.6-51.5-12.1-73.1l-18.5-195.9l-0.6,0.1c-4.6-29.9-30.5-52.8-61.7-52.8h-10.8l0,0
			h-20.3c-18.8-2.1-33.5-18.1-33.5-37.5l-0.2,0.3v-16.3c8.6-9.3,14.9-21.9,19.1-36c0.4,0.3,0.9,0.5,1.4,0.6
			c4.4,0.6,9.3-9.5,11.1-22.5c1.8-13-0.4-24-4.7-24.6c-0.3,0-0.5,0-0.8,0c0.7-42.2-17.2-74.5-60-74.1c-0.4,0-0.7,0-1,0
			c-0.3,0-0.7,0-1,0c-42.8-0.4-60.7,31.9-60,74.1c-0.3,0-0.5,0-0.8,0c-4.4,0.6-6.5,11.6-4.7,24.6c1.8,13,6.7,23.1,11.1,22.5
			c0.5-0.1,1-0.3,1.4-0.6c4.2,14.1,10.4,26.7,19.1,36V0.6l-0.2-0.3c0,19.4-14.6,35.4-33.5,37.5h-20.9l0,0h-10.8
			c-33.7,0-61.1,26.7-62.4,60.1l-17.8,188.6c-2.5,21.5-8.9,43.4-12.1,73.1c-3.6,33.3-4.8,133.9-4.8,133.9v41.4
			c0,8.9,2.7,17.6,7.9,24.9l32.9,46.8c2.7,3.9,8,4.9,11.9,2.3c3.7-2.4,5-7.1,3.1-11.1l-20.4-42.3l2.8-15.3l14.6,28.8
			c0.7,1.3,2.2,2,3.7,1.6s2.5-1.9,2.3-3.4l-3.1-27.7c-0.8-7.2-3.3-14.1-7.4-20.1l-21.2-22.9l33.7-182.5l19.8-154.6v2.9
			c0,21.7,10.8,40.9,27.4,52.5v104.3h178.7V215c16.5-11.6,27.4-30.8,27.4-52.5v-2.9h0.6l19.8,154.6l33.7,182.5l-21.2,22.9
			c-4,6-6.6,12.9-7.4,20.1l-3.1,27.7c-0.2,1.6,0.8,3,2.3,3.4c1.4,0.4,3-0.3,3.7-1.6l14.6-28.8l2.8,15.3l-20.4,42.3
			c-1.9,3.9-0.6,8.7,3.1,11.1l0,0c3.9,2.6,9.2,1.6,11.9-2.3l32.9-46.8c5.1-7.3,7.9-16,7.9-24.9v-41.4
			C1489.2,493.6,1488,392.9,1484.4,359.6z"/>
	</g>
	<g id="b-Pit_1_">
		<path class="st7" d="M1286.9,152.2c1.2-2.2,5.3-9.1,6.9-10.2c1.5-1.1-1.7-6.6,0.6-12.4c3.5-8.4,6.7-9.6,7.2-11
			c0.4-1.4-3.6-7.4-3.3-6.8l-5.8-5.8l-10.3,10.4v46.1h-0.3c0.2,1.3,0.3,2.5,0.3,3.9c0,12.4-10,22.4-22.4,22.4
			c-2.7,0-5.3-0.5-7.7-1.3c-3.9,8.4-12.3,14.1-22.2,14.1c-13.5,0-24.4-10.9-24.4-24.4c0-2.3,0.3-4.5,0.9-6.6l0,0
			c13.1-51.8,52.8-79,53.6-79.5c2.3-1.9,5.3-3.1,8.6-3.1c5.6,0,10.5,3.5,12.5,8.4l3.9-3.9V56.8c-1.7-5.1-5.1-9.6-9.7-12.6
			c-3.9-2.5-8.4-3.9-13.1-3.9h-6.2c-7.9,0.5-12.9,3.1-16,7.1c-21.4,27.7-48.6,65-55.8,114.3c-0.2,1.2-0.2,2.6,0,4c0,0.4,0,0.8,0,1.2
			c0,30.1,24.4,54.6,54.6,54.6c24.3,0,44.9-15.9,51.9-37.8C1284.8,175.1,1281,163.4,1286.9,152.2z"/>
		<path class="st7" d="M1400.8,161.6c-7.2-49.3-34.4-86.6-55.8-114.3c-3.1-4-8.1-6.6-16-7.1h-6.3c-4.6,0-9.2,1.3-13.1,3.9l0,0
			c-4.6,3-8,7.5-9.7,12.6v35.7l3.9,3.9c2-4.9,6.9-8.4,12.5-8.4c3.3,0,6.3,1.2,8.6,3.1c0.8,0.6,40.6,27.7,53.6,79.5
			c0.6,2.1,0.9,4.3,0.9,6.6c0,13.5-10.9,24.4-24.4,24.4c-2.6,0-5.1-0.4-7.4-1.2c-6.4,7.6-15.9,5.4-23.2,2.3
			c-5.9-2.6-15-2.8-24.3-9.3c-0.9-0.6-1.9-1.4-2.8-2.3c8.9,18,27.5,30.3,48.9,30.3c30.1,0,54.6-24.4,54.6-54.6c0-0.4,0-0.8,0-1.2
			C1401,164.2,1401,162.8,1400.8,161.6z"/>
	</g>
	<path id="b-AparellRespiratori" class="st7" d="M1378.6,170.6c-13.1-51.8-52.8-79-53.6-79.5c-2.3-1.9-5.3-3.1-8.6-3.1
		c-5.6,0-10.5,3.5-12.5,8.4l-3.9-4V40.6h-14.9v51.8l-3.9,3.9c-2-4.9-6.9-8.4-12.5-8.4c-3.3,0-6.3,1.2-8.6,3.1
		c-0.8,0.6-40.6,27.7-53.6,79.5l0,0c-0.6,2.1-0.9,4.3-0.9,6.6c0,13.5,10.9,24.4,24.4,24.4c9.8,0,18.3-5.8,22.2-14.1
		c2.4,0.9,5,1.3,7.7,1.3c12.4,0,22.4-10,22.4-22.4c0-1.3-0.1-2.6-0.3-3.9h0.3v-46l10.3-10.3l5.8,5.8c-0.4-0.6-0.6-1-0.6-1
		s4.2-2.7,4.2-2.3c0,0.4,2.2,5.5,4.3,7.3c0.8,0.7,1.2,0,1.6-0.1c1.2-0.5-0.7-9.8-0.7-9.8l4.4-0.5c0,0,0.2,8.6,0.8,9.6s1.2,0,1.5-0.2
		s2.2-8.3,2.2-8.3c1.3-0.4,4.5,1.4,4.5,1.4c-0.5,0.7-2.1,8.8-2.1,8.8c6.9,5,5.9,14.6,5.9,14.6c2.5-4,3.5-7.7,3.5-7.7
		c1.7-0.5,4.4,1.7,4.4,1.7c-0.2,3.2-4.3,7.6-2.3,7.3c1.9-0.3,5.8,0.9,5.8,0.9l-1,4c0,0-3.2-1-6,0.3c-2.8,1.3-3.4,4.3-2,5
		c2.6,1.4,8.3,4.9,13.8,12.6c1.7,2.4,5.2,8.9,8.1,17.8c5.1,15.6,1,24.1,1,24.1c-0.6,1.1-1.3,2.1-2.1,3c2.3,0.8,4.9,1.2,7.5,1.2
		c13.5,0,24.4-10.9,24.4-24.4C1379.5,174.9,1379.2,172.7,1378.6,170.6z"/>
	<path id="b-Cor" class="st7" d="M1297.3,111.8c0,0,4.3,6.4,3.8,7.8c-0.4,1.4-3.7,2.6-7.2,11c-2.3,5.8,0.9,11.3-0.6,12.4
		c-1.6,1.1-5.7,7.9-6.9,10.2c-8.9,16.7,4,34.6,13.3,41.2c9.3,6.5,18.4,6.7,24.3,9.3c8.2,3.5,19,5.8,25.3-5.3c0,0,4.1-8.5-1-24.1
		c-2.9-8.9-6.4-15.4-8.1-17.8c-5.5-7.7-11.2-11.2-13.8-12.6c-1.4-0.7-0.8-3.8,2-5c2.8-1.3,6-0.3,6-0.3l1-4c0,0-3.9-1.3-5.8-0.9
		c-1.9,0.3,2.1-4.2,2.3-7.3c0,0-2.7-2.3-4.4-1.7c0,0-1,3.7-3.5,7.7c0,0,1-9.6-5.9-14.6c0,0,1.6-8.1,2.1-8.8c0,0-3.2-1.7-4.5-1.4
		c0,0-1.9,8.1-2.2,8.3c-0.3,0.2-0.9,1.2-1.5,0.2s-0.8-9.6-0.8-9.6l-4.4,0.5c0,0,1.9,9.3,0.7,9.8c-0.4,0.2-0.8,0.8-1.6,0.1
		c-2.1-1.8-4.3-6.9-4.3-7.3C1301.5,109.1,1297.3,111.8,1297.3,111.8z"/>
	<path id="b-AparellReproductor" class="st7" d="M1292.1,487.3L1292.1,487.3c-30.3,0-54.9-24.6-54.9-54.9v-61.7
		c0-30.3,24.6-54.9,54.9-54.9l0,0c30.3,0,54.9,24.6,54.9,54.9v61.7C1347,462.8,1322.4,487.3,1292.1,487.3z"/>
	<path id="b-Cap" class="st7" d="M1331.7-131.9c-0.2,0-0.4,0-0.6,0c0.4-1.1,0.6-2.2,0.6-3.4c0-6.1-4.9-11-11-11
		c-1.2,0-2.4,0.2-3.5,0.6c-1.6-7.4-8.1-12.9-15.9-12.9c-5.3,0-10,2.6-13,6.5c-2.6-2.2-5.9-3.6-9.6-3.6c-7.9,0-14.3,6.2-14.7,14
		c-1.7-0.8-3.6-1.2-5.6-1.2c-7.5,0-13.6,6.1-13.6,13.6c0,0.6,0.1,1.2,0.1,1.8c-0.6,1.1-0.9,2.4-0.9,3.7c0,4.5,3.6,8.1,8.1,8.1h79.6
		c4.5,0,8.1-3.6,8.1-8.1C1339.8-128.3,1336.2-131.9,1331.7-131.9z M1311.5-129.4h-0.5c0.1-0.1,0.2-0.1,0.3-0.2
		C1311.4-129.5,1311.4-129.4,1311.5-129.4z"/>
	<g id="b-Arteries">
		<path class="st18" d="M1460.1,532.7c0,0,20.9-17.7,20.3-35.7c-1.6-43.9,1.6-76-1.6-100.3c-8-60.9-24.9-73-27.9-100.5
			c-2.6-23.1,5-164.8-13-199.7c-19.1-36.9-65.2-41.5-97.4-33c-22.8,6-28.3,24.1-30.4,35.6c-1.6,8.8-1.8,16.5,2.7,35.8"/>
		<path class="st18" d="M1391.3,62.4c23.7,6.2,25.7,29.3,27.5,56.9c1.8,27.6,33.3,135.3,30.9,171.2c-2.4,35.9-1.1,91.7,6.5,115.8
			c7.6,24.1,21.6,54.8,23.8,80.9"/>
		<path class="st18" d="M1125,532.7c0,0-20.9-17.7-20.3-35.7c1.6-43.9-1.6-76,1.6-100.3c8-60.9,24.9-73,27.9-100.5
			c2.6-23.1-5-164.8,13-199.7c19.1-36.9,65.2-41.5,97.4-33c22.8,6,47.4,21.8,51.6,35.6c2.6,8.6,8.6,16.5,4.2,35.8"/>
		<path class="st18" d="M1193.8,62.4c-23.7,6.2-25.7,29.3-27.5,56.9c-1.8,27.6-33.3,135.3-30.9,171.2c2.4,35.9,1.1,91.7-6.5,115.8
			s-21.6,54.8-23.8,80.9"/>
		<path class="st18" d="M1340.4,63.6c0,0-23.1-47.7-24.2-62.9c-1.1-15.2,13.1-41.3,23.2-68.4c5.7-15.3,5-30.2,3.3-40.3
			c-1.3-7.6-6.4-14-13.5-16.9l-4.6-1.9"/>
		<line class="st18" x1="1316.3" y1="-2.7" x2="1322.1" y2="72.9"/>
		<path class="st18" d="M1243.2,62.7c0,0,23.1-46.8,24.2-62s-13.1-41.3-23.2-68.4c-6.5-17.4-4.7-34.3-2.5-44.1
			c1.2-5.4,4.3-10.1,8.7-13.3l4.8-3.5"/>
		<line class="st18" x1="1267.4" y1="-2.7" x2="1261.5" y2="69.5"/>
		<path class="st18" d="M1296.1,183.2c0,0-3.9,223.5,0.4,234.6c4.3,11.1,78.3,67.9,82.1,115c8.8,108-27.9,228.6-29.6,234.1
			c-6.6,21.4,19,145.2,13.3,195.2c-5.7,50-26.4,117.2-29.7,141.5s-5.6,54.3-5.6,54.3"/>
		<path class="st18" d="M1325.2,448.4c13,13.8,18.6,46.7,16.4,84.3c-2.1,37.6,8.4,197.7,2.4,249.2s-18.1,154.4-14.2,193
			s7.1,90.2,2.9,128.7"/>
		<path class="st18" d="M1295,414.3c-4.3,11.1-86.7,71.3-90.5,118.4c-8.8,108,27.9,228.6,29.6,234.1c6.6,21.4-19,145.2-13.3,195.2
			c5.7,50,26.4,117.2,29.7,141.5c3.2,24.3,5.6,54.3,5.6,54.3"/>
		<path class="st18" d="M1258.4,450.5c-13,13.8-19,44.6-16.9,82.2c2.1,37.6-8.4,197.7-2.4,249.2s18.1,154.4,14.2,193
			c-3.9,38.6-7.1,90.2-2.9,128.7"/>
	</g>
</g>
<g id="Capa_2">
	<g id="AparellRespiratori">
		<g>
			<g>
				<g>
					<circle class="st7" cx="1259.8" cy="165.3" r="22.4"/>
					<circle class="st7" cx="1230" cy="176.1" r="24.4"/>
					<circle class="st7" cx="1268.6" cy="100.4" r="13.5"/>
					<rect x="1252.3" y="100.4" class="st7" width="29.9" height="61"/>
					<path class="st7" d="M1206.4,169.5C1219.6,117.1,1260,90,1260,90l5.4,70.4C1265.5,160.3,1202.8,184,1206.4,169.5z"/>
				</g>
				<g>
					<circle class="st7" cx="1325.3" cy="165.3" r="22.4"/>
					<circle class="st7" cx="1355.1" cy="176.1" r="24.4"/>
					<circle class="st7" cx="1316.4" cy="100.4" r="13.5"/>
					<rect x="1302.8" y="100.4" class="st7" width="29.9" height="61"/>
					<path class="st7" d="M1378.6,169.5C1365.4,117.1,1325,90,1325,90l-5.4,70.4C1319.5,160.3,1382.3,184,1378.6,169.5z"/>
				</g>
			</g>
			<rect x="1285.1" y="39.5" class="st7" width="14.9" height="56.1"/>
			<g>
				
					<rect x="1302.7" y="84" transform="matrix(0.7071 -0.7071 0.7071 0.7071 304.4802 959.2398)" class="st7" width="14.9" height="56.1"/>
				
					<rect x="1246.9" y="104.8" transform="matrix(0.7071 -0.7071 0.7071 0.7071 294.0696 934.4102)" class="st7" width="56.1" height="14.9"/>
			</g>
		</g>
		<g>
			<path class="st5" d="M1315.1,82.5c-2.7,5.4-4.1,11-4.9,15.6c-1.6,8.8-1.8,16.5,2.7,35.8"/>
			<path class="st5" d="M1283.8,82.1c6.3,5.2,10.9,10.8,12.5,16c2.6,8.6,8.6,16.5,4.2,35.8"/>
		</g>
		<path class="st6" d="M1297.7,110.9c0,0,4.3,6.4,3.8,7.8c-0.4,1.4-3.7,2.6-7.2,11c-2.3,5.8,0.9,11.3-0.6,12.4
			c-1.6,1.1-5.7,7.9-6.9,10.2c-8.9,16.7,4,34.6,13.3,41.2c9.3,6.5,18.4,6.7,24.3,9.3c8.2,3.5,19,5.8,25.3-5.3c0,0,4.1-8.5-1-24.1
			c-2.9-8.9-6.4-15.4-8.1-17.8c-5.5-7.7-11.2-11.2-13.8-12.6c-1.4-0.7-0.8-3.8,2-5c2.8-1.3,6-0.3,6-0.3l1-4c0,0-3.9-1.3-5.8-0.9
			c-1.9,0.3,2.1-4.2,2.3-7.3c0,0-2.7-2.3-4.4-1.7c0,0-1,3.7-3.5,7.7c0,0,1-9.6-5.9-14.6c0,0,1.6-8.1,2.1-8.8c0,0-3.2-1.7-4.5-1.4
			c0,0-1.9,8.1-2.2,8.3c-0.3,0.2-0.9,1.2-1.5,0.2s-0.8-9.6-0.8-9.6l-4.4,0.5c0,0,1.9,9.3,0.7,9.8c-0.4,0.2-0.8,0.8-1.6,0.1
			c-2.1-1.8-4.3-6.9-4.3-7.3C1301.8,108.1,1297.7,110.9,1297.7,110.9z"/>
		<g>
			<circle class="st16" cx="1903.7" cy="-46.9" r="5.5"/>
			<circle class="st16" cx="1903.7" cy="13.3" r="5.5"/>
			<circle class="st16" cx="1903.7" cy="49.2" r="5.5"/>
			<circle class="st14" cx="1917.6" cy="49.2" r="5.5"/>
			<circle class="st16" cx="1903.7" cy="85" r="5.5"/>
			<circle class="st16" cx="1903.7" cy="121.1" r="5.5"/>
			<g>
				<rect x="1533.4" y="-58.2" class="st8" width="357.8" height="214.7"/>
				<text transform="matrix(1 0 0 1 1589.3766 -40.5974)" class="st1 st9 st12">Malaltia Pulmonar Obstructiva </text>
				<text transform="matrix(1 0 0 1 1719.7754 -14.5974)" class="st1 st9 st12">Crònica (MPOC) </text>
				<text transform="matrix(1 0 0 1 1815.2737 21.4026)" class="st1 st9 st12">Asma</text>
				<text transform="matrix(1 0 0 1 1658.3759 57.4026)" class="st1 st9 st12">Malalties respiratòries  </text>
				<text transform="matrix(1 0 0 1 1763.0742 93.4026)" class="st1 st9 st12">Pneumònia</text>
				<text transform="matrix(1 0 0 1 1701.9749 129.4026)" class="st1 st9 st12">Càncer de pulmó</text>
			</g>
			<g>
				<rect x="1506" y="-116.1" class="st8" width="385.2" height="138.5"/>
				<text transform="matrix(1 0 0 1 1601.4308 -91.9708)" class="st1 st9 st10">Aparell respiratori</text>
			</g>
			<polyline class="st11" points="1891.2,-138.5 1528.4,-140 1348.7,132 			"/>
		</g>
	</g>
</g>
</svg>
