<?xml version="1.0" encoding="utf-8"?>
<!-- Generator: Adobe Illustrator 21.1.0, SVG Export Plug-In . SVG Version: 6.00 Build 0)  -->
<svg version="1.1" id="Capa_1" xmlns="http://www.w3.org/2000/svg" xmlns:xlink="http://www.w3.org/1999/xlink" x="0px" y="0px"
	 viewBox="0 0 1440 1451.3" style="enable-background:new 0 0 1440 1451.3;" xml:space="preserve">
<style type="text/css">
	.st0{fill:#F4F4F4;}
	.st1{fill:#181716;}
	.st2{fill:#E3D5E9;}
	.st3{fill:#F1EAF5;}
	.st4{fill:#F8D2D0;}
	.st5{fill:#D5BFDD;}
	.st6{fill:none;stroke:#BB94C2;stroke-width:6.0014;stroke-miterlimit:10;}
	.st7{fill:#BB94C2;}
	.st8{fill:none;}
	.st9{font-family:'Platform'; font-weight: 300; letter-spacing: 1px;}
	.st10{font-size:24.0054px;}
	.st11{letter-spacing:1;}
	.st12{font-size:33.0075px;}
	.st13{fill:none;stroke:#181716;stroke-width:1.5003;stroke-miterlimit:10;}
@font-face {
  font-family: 'Platform';
  src: url('../fonts/Platform-Regular.eot');
  src: url('../fonts/Platform-Regular.eot?#iefix') format('embedded-opentype'),
  url('../fonts/Platform-Regular.woff') format('woff'),
  url('../fonts/Platform-Regular.ttf') format('truetype'),
  url('../fonts/Platform-Regular.otf') format('opentype'),
  url('../fonts/Platform-Regular.svg#Platform-Regular') format('svg');
  font-weight: 300;
  font-style: normal;
}
</style>
<g id="bg">
	<rect y="0" class="st0" width="1440" height="1452.7"/>
	<rect y="1245.3" class="st1" width="1440" height="207.3"/>
</g>
<g id="cos">
	<g>
		<g>
			<path class="st2" d="M722.6,56.7c-0.4,0-0.7,0-1,0c-0.3,0-0.7,0-1,0c-44.9-0.4-62.4,35.1-59.8,80.4c2.5,44.3,19.6,91.2,60.6,92.1
				v0c0.1,0,0.2,0,0.3,0c0.1,0,0.2,0,0.3,0v0c41-0.9,58.1-47.8,60.6-92.1C785,91.8,767.5,56.3,722.6,56.7z"/>
			<g>
				
					<ellipse transform="matrix(0.1335 -0.9911 0.9911 0.1335 523.1939 906.9691)" class="st2" cx="780.3" cy="154.3" rx="23.8" ry="8"/>
				
					<ellipse transform="matrix(0.9911 -0.1335 0.1335 0.9911 -14.6639 89.8488)" class="st2" cx="662.8" cy="154.3" rx="8" ry="23.8"/>
			</g>
			<rect x="686.5" y="196.9" class="st2" width="70.1" height="73.1"/>
			<g>
				<path class="st2" d="M734.4,303l-48.1-73.8v0c0,20.9-16.9,37.8-37.8,37.8h0L734.4,303z"/>
				<path class="st2" d="M708.7,303l48.1-73.8v0c0,20.9,16.9,37.8,37.8,37.8h0L708.7,303z"/>
			</g>
		</g>
		<g>
			<rect x="631.9" y="266.7" class="st2" width="178.7" height="281.4"/>
			<path class="st2" d="M604.5,305.2h233.4v86.2c0,35.4-28.7,64-64,64H668.6c-35.4,0-64-28.7-64-64V305.2z"/>
			<path class="st2" d="M558.7,388.4h325.1v-59.3c0-34.5-28-62.4-62.4-62.4H621.1c-34.5,0-62.4,28-62.4,62.4V388.4z"/>
			<path class="st2" d="M810.6,548.1h-89.4v196.1h127.1c0,0,0-24.5,0-74.5C848.3,621.8,810.6,548.1,810.6,548.1z"/>
			<path class="st2" d="M631.9,548.1h89.4v196.1H594.2c0,0,0-24.5,0-74.5C594.2,621.8,631.9,548.1,631.9,548.1z"/>
			<g>
				<path class="st2" d="M806.6,995.2c0,19.3-77.1,0-77.1,0v-251c0,0,118.8-29.7,118.8,0C848.3,851,806.6,966.2,806.6,995.2z"/>
				<path class="st2" d="M785.4,1310.1h-41l-14.9-314.8h76.9c0,0,6.4,92.3,6.4,123.2C812.8,1205.1,785.4,1310.1,785.4,1310.1z"/>
				<path class="st2" d="M793.2,1405.1c-0.1,2.3-2.4,6-4.9,9.3c-3.8,5-9.7,7.8-15.9,7.8h-29.7c-7,0-12.4-6.1-11.4-13.1l13.1-99h41
					C785.3,1310.1,794.3,1375.8,793.2,1405.1z"/>
			</g>
			<g>
				<path class="st2" d="M635.9,995.2c0,19.3,77.1,0,77.1,0v-251c0,0-118.8-29.7-118.8,0C594.2,851,635.9,966.2,635.9,995.2z"/>
				<path class="st2" d="M657.1,1310.1h41L713,995.2h-76.9c0,0-6.4,92.3-6.4,123.2C629.7,1205.1,657.1,1310.1,657.1,1310.1z"/>
				<path class="st2" d="M649.2,1405.1c0.1,2.3,2.4,6,4.9,9.3c3.8,5,9.7,7.8,15.9,7.8h29.7c7,0,12.4-6.1,11.4-13.1l-13.1-99h-41
					C657.1,1310.1,648.2,1375.8,649.2,1405.1z"/>
			</g>
			<polygon class="st2" points="904.2,537.7 858.3,543 830.5,325.7 883.6,319.5 			"/>
			<path class="st2" d="M919,722.4l-27,3.1L858.3,543c0,0,42.4-39.8,43.8-27.7c2.5,21.5,8.9,43.4,12.1,73.1
				C917.8,621.7,919,722.4,919,722.4z"/>
			<path class="st2" d="M919,722.4v41.4c0,8.9-2.7,17.6-7.9,24.9l-32.9,46.8c-2.7,3.9-8,4.9-11.9,2.3v0c-3.7-2.4-5-7.1-3.1-11.1
				l20.4-42.3l-2.8-15.3L866.2,798c-0.7,1.3-2.2,2-3.7,1.6l0,0c-1.5-0.4-2.5-1.9-2.3-3.4l3.1-27.7c0.8-7.2,3.3-14.1,7.4-20.1
				l21.2-22.9L919,722.4z"/>
			<g>
				<polygon class="st2" points="538.8,537.7 584.7,543 612.6,325.7 559.4,319.5 				"/>
				<path class="st2" d="M524,722.4l27,3.1L584.7,543c0,0-42.4-39.8-43.8-27.7c-2.5,21.5-8.9,43.4-12.1,73.1
					C525.2,621.7,524,722.4,524,722.4z"/>
				<path class="st2" d="M524,722.4v41.4c0,8.9,2.7,17.6,7.9,24.9l32.9,46.8c2.7,3.9,8,4.9,11.9,2.3v0c3.7-2.4,5-7.1,3.1-11.1
					l-20.4-42.3l2.8-15.3l14.6,28.8c0.7,1.3,2.2,2,3.7,1.6l0,0c1.5-0.4,2.5-1.9,2.3-3.4l-3.1-27.7c-0.8-7.2-3.3-14.1-7.4-20.1
					L551,725.5L524,722.4z"/>
			</g>
		</g>
	</g>
	<g>
		<g>
			<path class="st3" d="M739,273.4L739,273.4c3.9-2.5,8.4-3.9,13.1-3.9h6.3c7.9,0.5,12.9,3.1,16,7.1c21.4,27.7,48.6,65,55.8,114.3
				c1.7,11.9-15.2,35.7-19.8,39.1c-55.8,41.5-87.2-27.9-87.2-27.9l5-109.7C728.5,284.7,732.6,277.6,739,273.4z"/>
			<circle class="st3" cx="775.6" cy="396.1" r="54.6"/>
		</g>
		<g>
			<path class="st3" d="M704.8,273.4L704.8,273.4c-3.9-2.5-8.4-3.9-13.1-3.9h-6.3c-7.9,0.5-12.9,3.1-16,7.1
				c-21.4,27.7-48.6,65-55.8,114.3c-1.7,11.9,15.2,35.7,19.8,39.1c55.8,41.5,87.2-27.9,87.2-27.9l17.6-99l-22.5-10.6
				C715.3,284.7,711.2,277.6,704.8,273.4z"/>
			<circle class="st3" cx="668.2" cy="396.1" r="54.6"/>
		</g>
	</g>
	<path class="st4" d="M721.5,715.8L721.5,715.8c-30.3,0-54.9-24.6-54.9-54.9v-61.7c0-30.3,24.6-54.9,54.9-54.9h0
		c30.3,0,54.9,24.6,54.9,54.9v61.7C776.4,691.2,751.8,715.8,721.5,715.8z"/>
	<g>
		<g>
			<g>
				<circle class="st5" cx="689.2" cy="394.7" r="22.4"/>
				<circle class="st5" cx="659.3" cy="405.5" r="24.4"/>
				<circle class="st5" cx="698" cy="329.9" r="13.5"/>
				<rect x="681.7" y="329.9" class="st5" width="29.9" height="61"/>
				<path class="st5" d="M635.8,398.9c13.2-52.4,53.6-79.5,53.6-79.5l5.4,70.4C694.9,389.8,632.2,413.4,635.8,398.9z"/>
			</g>
			<g>
				<circle class="st5" cx="754.7" cy="394.7" r="22.4"/>
				<circle class="st5" cx="784.5" cy="405.5" r="24.4"/>
				<circle class="st5" cx="745.8" cy="329.9" r="13.5"/>
				
					<rect x="732.3" y="329.9" transform="matrix(-1 4.449939e-11 -4.449939e-11 -1 1494.3896 720.7723)" class="st5" width="29.9" height="61"/>
				<path class="st5" d="M808,398.9c-13.2-52.4-53.6-79.5-53.6-79.5l-5.4,70.4C748.9,389.8,811.7,413.4,808,398.9z"/>
			</g>
		</g>
		<rect x="714.5" y="269" class="st5" width="14.9" height="56.1"/>
		<g>
			
				<rect x="732.1" y="313.5" transform="matrix(0.7071 -0.7071 0.7071 0.7071 -24.8948 622.976)" class="st5" width="14.9" height="56.1"/>
			
				<rect x="696.8" y="313.5" transform="matrix(-0.7071 -0.7071 0.7071 -0.7071 960.7739 1081.043)" class="st5" width="14.9" height="56.1"/>
		</g>
	</g>
	<g>
		<path class="st6" d="M889.6,761.2c0,0,20.9-17.7,20.3-35.7c-1.6-43.9,1.6-76-1.6-100.3c-8-60.9-24.9-73-27.9-100.5
			c-2.6-23.1,5-164.8-13-199.7c-19.1-36.9-65.2-41.5-97.4-33c-22.8,6-28.3,24.1-30.4,35.6c-1.6,8.8-1.8,16.5,2.7,35.8"/>
		<path class="st6" d="M820.8,290.9c23.7,6.2,25.7,29.3,27.5,56.9c1.8,27.6,33.3,135.3,30.9,171.2s-1.1,91.7,6.5,115.8
			c7.6,24.1,21.6,54.8,23.8,80.9"/>
		<path class="st6" d="M554.5,761.2c0,0-20.9-17.7-20.3-35.7c1.6-43.9-1.6-76,1.6-100.3c8-60.9,24.9-73,27.9-100.5
			c2.6-23.1-5-164.8,13-199.7c19.1-36.9,65.2-41.5,97.4-33c22.8,6,47.4,21.8,51.6,35.6c2.6,8.6,8.6,16.5,4.2,35.8"/>
		<path class="st6" d="M623.3,290.9c-23.7,6.2-25.7,29.3-27.5,56.9s-33.3,135.3-30.9,171.2c2.4,35.9,1.1,91.7-6.5,115.8
			c-7.6,24.1-21.6,54.8-23.8,80.9"/>
		<path class="st6" d="M770,292c0,0-23.1-47.7-24.2-62.9c-1.1-15.2,13.1-41.3,23.2-68.4c5.7-15.3,5-30.2,3.3-40.3
			c-1.3-7.6-6.4-14-13.5-16.9l-4.6-1.9"/>
		<line class="st6" x1="745.8" y1="225.7" x2="751.6" y2="301.3"/>
		<path class="st6" d="M672.7,291.2c0,0,23.1-46.8,24.2-62s-13.1-41.3-23.2-68.4c-6.5-17.4-4.7-34.3-2.5-44.1
			c1.2-5.4,4.3-10.1,8.7-13.3l4.8-3.5"/>
		<line class="st6" x1="696.9" y1="225.7" x2="691.1" y2="297.9"/>
		<path class="st6" d="M725.6,411.6c0,0-3.9,223.5,0.4,234.6c4.3,11.1,78.3,67.9,82.1,115c8.8,108-27.9,228.6-29.6,234.1
			c-6.6,21.4,19,145.2,13.3,195.2s-26.4,117.2-29.7,141.5c-3.2,24.3-5.6,54.3-5.6,54.3"/>
		<path class="st6" d="M754.7,676.8c13,13.8,18.6,46.7,16.4,84.3c-2.1,37.6,8.4,197.7,2.4,249.2c-6,51.5-18.1,154.4-14.2,193
			c3.9,38.6,7.1,90.2,2.9,128.7"/>
		<path class="st6" d="M724.5,642.8c-4.3,11.1-86.7,71.3-90.5,118.4c-8.8,108,27.9,228.6,29.6,234.1c6.6,21.4-19,145.2-13.3,195.2
			s26.4,117.2,29.7,141.5c3.2,24.3,5.6,54.3,5.6,54.3"/>
		<path class="st6" d="M687.9,679c-13,13.8-19,44.6-16.9,82.2c2.1,37.6-8.4,197.7-2.4,249.2s18.1,154.4,14.2,193
			c-3.9,38.6-7.1,90.2-2.9,128.7"/>
	</g>
	<path class="st7" d="M727,340.3c0,0,4.3,6.4,3.8,7.8c-0.4,1.4-3.7,2.6-7.2,11c-2.3,5.8,0.9,11.3-0.6,12.4
		c-1.6,1.1-5.7,7.9-6.9,10.2c-8.9,16.7,4,34.6,13.3,41.2c9.3,6.5,18.4,6.7,24.3,9.3c8.2,3.5,19,5.8,25.3-5.3c0,0,4.1-8.5-1-24.1
		c-2.9-8.9-6.4-15.4-8.1-17.8c-5.5-7.7-11.2-11.2-13.8-12.6c-1.4-0.7-0.8-3.8,2-5c2.8-1.3,6-0.3,6-0.3l1-4c0,0-3.9-1.3-5.8-0.9
		c-1.9,0.3,2.1-4.2,2.3-7.3c0,0-2.7-2.3-4.4-1.7c0,0-1,3.7-3.5,7.7c0,0,1-9.6-5.9-14.6c0,0,1.6-8.1,2.1-8.8c0,0-3.2-1.7-4.5-1.4
		c0,0-1.9,8.1-2.2,8.3c-0.3,0.2-0.9,1.2-1.5,0.2c-0.6-1-0.8-9.6-0.8-9.6l-4.4,0.5c0,0,1.9,9.3,0.7,9.8c-0.4,0.2-0.8,0.8-1.6,0.1
		c-2.1-1.8-4.3-6.9-4.3-7.3C731.2,337.6,727,340.3,727,340.3z"/>
	<g>
		<circle class="st7" cx="688.2" cy="99.2" r="13.6"/>
		<circle class="st7" cx="708.5" cy="87.6" r="14.7"/>
		<circle class="st7" cx="731.1" cy="86.2" r="16.3"/>
		<circle class="st7" cx="682" cy="104.7" r="8.1"/>
		<circle class="st7" cx="761.6" cy="104.7" r="8.1"/>
		<circle class="st7" cx="750.5" cy="93.2" r="11"/>
		<rect x="682" y="99.2" class="st7" width="79.6" height="13.6"/>
		<rect x="707.5" y="90.2" class="st7" width="14.3" height="17.6"/>
	</g>
	<g>
		<g>
			<rect x="119.1" y="170.5" class="st8" width="380.7" height="354.3"/>
			<text transform="matrix(1 0 0 1 119.0818 188.0465)"><tspan x="0" y="0" class="st1 st9 st10 st11">Demencia</tspan><tspan x="0" y="36" class="st1 st9 st10 st11">Deterioro cognitivo</tspan><tspan x="0" y="72" class="st1 st9 st10 st11">Enfermedades </tspan><tspan x="0" y="96" class="st1 st9 st10 st11">neurodegenerativas</tspan><tspan x="0" y="132" class="st1 st9 st10 st11">Problemas de salud mental</tspan><tspan x="0" y="168" class="st1 st9 st10 st11">Ictus</tspan><tspan x="0" y="204" class="st1 st9 st10 st11">Enfermedades cerebrovasculares</tspan></text>
		</g>
		<g>
			<rect x="119.1" y="112.4" class="st8" width="283.7" height="138.5"/>
			<text transform="matrix(1 0 0 1 119.0813 136.5626)" class="st1 st9 st12 st11">Cabeza</text>
		</g>
		<line class="st13" x1="731.5" y1="90.1" x2="119.1" y2="88.4"/>
		<g>
			<rect x="119.1" y="824" class="st8" width="538.6" height="474.6"/>
			<text transform="matrix(1 0 0 1 119.0818 841.4994)"><tspan x="0" y="0" class="st1 st9 st10 st11">Obesidad</tspan><tspan x="0" y="36" class="st1 st9 st10 st11">Diabetes</tspan><tspan x="0" y="72" class="st1 st9 st10 st11">Síndrome metabólico</tspan><tspan x="0" y="108" class="st1 st9 st10 st11">Cáncer de colon</tspan><tspan x="0" y="144" class="st1 st9 st10 st11">Incremento de la mortalidad</tspan></text>
		</g>
		<g>
			<rect x="119.1" y="765.9" class="st8" width="283.7" height="57.7"/>
			<text transform="matrix(1 0 0 1 119.0813 790.015)" class="st1 st9 st12 st11">General/Otros</text>
		</g>
		<line class="st13" x1="615.3" y1="743.5" x2="119.1" y2="741.8"/>
		<circle class="st7" cx="107.7" cy="870.9" r="5.5"/>
		<circle class="st7" cx="107.7" cy="943.4" r="5.5"/>
		<circle class="st7" cx="107.7" cy="907.1" r="5.5"/>
		<g>
			<circle class="st7" cx="107.7" cy="978.3" r="5.5"/>
		</g>
		<g>
			<circle class="st7" cx="107.7" cy="833.5" r="5.5"/>
		</g>
		<circle class="st7" cx="107.7" cy="347.7" r="5.5"/>
		<circle class="st7" cx="107.7" cy="383.4" r="5.5"/>
		<circle class="st7" cx="107.7" cy="216.7" r="5.5"/>
		<circle class="st7" cx="107.7" cy="180.1" r="5.5"/>
		<circle class="st7" cx="107.7" cy="311.9" r="5.5"/>
		<circle class="st7" cx="107.7" cy="253.4" r="5.5"/>
		<circle class="st7" cx="1335.3" cy="182.6" r="5.5"/>
		<circle class="st7" cx="1335.3" cy="1162.4" r="5.5"/>
		<circle class="st7" cx="107.7" cy="656.5" r="5.5"/>
		<g>
			<rect x="964.9" y="171.3" class="st8" width="357.8" height="214.7"/>
			<text transform="matrix(1 0 0 1 1019.7566 188.8722)" class="st1 st9 st10 st11">Enfermedades respiratorias</text>
		</g>
		<g>
			<rect x="937.5" y="113.4" class="st8" width="385.2" height="138.5"/>
			<text transform="matrix(1 0 0 1 949.6384 137.4989)" class="st1 st9 st12 st11">Aparato respiratorio  </text>
		</g>
		<polyline class="st13" points="1322.8,91 959.9,89.5 780.3,361.5 		"/>
		<g>
			<rect x="119.1" y="646.6" class="st8" width="357.8" height="48.9"/>
			<text transform="matrix(1 0 0 1 119.0811 664.1519)" class="st1 st9 st10 st11">Cáncer de mama </text>
		</g>
		<g>
			<rect x="119.1" y="587.2" class="st8" width="385.2" height="138.5"/>
			<text transform="matrix(1 0 0 1 119.0801 611.3236)" class="st1 st9 st12 st11">Pecho</text>
		</g>
		<polyline class="st13" points="119.1,564.8 481.9,563.3 631.9,372.3 		"/>
		<circle class="st7" cx="1335.3" cy="528.5" r="5.5"/>
		<circle class="st7" cx="1335" cy="563.5" r="5.5"/>
		<g>
			<rect x="965.8" y="516.9" class="st8" width="357.8" height="151.9"/>
			<text transform="matrix(1 0 0 1 1098.7876 534.451)"><tspan x="0" y="0" class="st1 st9 st10 st11">Infarto de miocardio </tspan><tspan x="-126.6" y="36" class="st1 st9 st10 st11">Enfermedades cardiovasculares</tspan></text>
		</g>
		<g>
			<rect x="938.4" y="458.1" class="st8" width="385.2" height="321.3"/>
			<text transform="matrix(1 0 0 1 1162.2368 482.2721)" class="st1 st9 st12 st11">Corazón</text>
		</g>
		<polyline class="st13" points="1323.6,435.8 960.9,434.4 760.1,393 		"/>
		<g>
			<rect x="964.9" y="1151" class="st8" width="357.8" height="133.5"/>
			<text transform="matrix(1 0 0 1 1179.7043 1168.5687)" class="st1 st9 st10 st11">Hipertensión</text>
		</g>
		<g>
			<rect x="937.5" y="1092.6" class="st8" width="385.2" height="59.8"/>
			<text transform="matrix(1 0 0 1 1181.9084 1116.7286)" class="st1 st9 st12 st11">Arterias  </text>
		</g>
		<line class="st13" x1="1322.8" y1="1068.8" x2="783.1" y2="1067.1"/>
	</g>
</g>
</svg>
