<?xml version="1.0" encoding="utf-8"?>
<!-- Generator: Adobe Illustrator 21.1.0, SVG Export Plug-In . SVG Version: 6.00 Build 0)  -->
<svg version="1.1" id="Capa_1" xmlns="http://www.w3.org/2000/svg" xmlns:xlink="http://www.w3.org/1999/xlink" x="0px" y="0px"
	 viewBox="0 0 1440 1451.3" style="enable-background:new 0 0 1440 1451.3;" xml:space="preserve">
<style type="text/css">
	.st0{fill:#F4F4F4;}
	.st1{fill:#181716;}
	.st2{fill:#F6C2C0;}
	.st3{fill:#FBE2E0;}
	.st4{fill:#F8D2D0;}
	.st5{fill:none;stroke:#F0A0A0;stroke-width:6.0028;stroke-linecap:round;stroke-miterlimit:10;}
	.st6{fill:#F0A0A0;}
	.st7{fill:none;}
	.st8{font-family:'Platform'; font-weight: 300; letter-spacing: 1px;}
	.st9{font-size:24.0054px;}
	.st10{fill:#004F9F;}
	.st11{fill:#BB94C2;}
	.st12{fill:#F29700;}
	.st13{fill:#34B7EB;}
	.st14{fill:#3AA336;}
	.st15{fill:#E55465;}
	.st16{font-size:33.0075px;}
	.st17{fill:none;stroke:#181716;stroke-width:1.5003;stroke-miterlimit:10;}
	.st18{fill:none;stroke:#E55465;stroke-width:6.0028;stroke-linecap:round;stroke-miterlimit:10;}
@font-face {
  font-family: 'Platform';
  src: url('../fonts/Platform-Regular.eot');
  src: url('../fonts/Platform-Regular.eot?#iefix') format('embedded-opentype'),
  url('../fonts/Platform-Regular.woff') format('woff'),
  url('../fonts/Platform-Regular.ttf') format('truetype'),
  url('../fonts/Platform-Regular.otf') format('opentype'),
  url('../fonts/Platform-Regular.svg#Platform-Regular') format('svg');
  font-weight: 300;
  font-style: normal;
}
</style>
<g id="bg">
	<rect y="0" class="st0" width="1440" height="1452.7"/>
	<rect y="1245.3" class="st1" width="1440" height="207.3"/>
</g>
<g id="Cos">
	<g>
		<g>
			<path class="st2" d="M722.7,56.7c-0.4,0-0.7,0-1,0s-0.7,0-1,0c-44.9-0.4-62.4,35.1-59.8,80.4c2.5,44.3,19.6,91.2,60.6,92.1l0,0
				c0.1,0,0.2,0,0.3,0s0.2,0,0.3,0l0,0c41-0.9,58.1-47.8,60.6-92.1C785.1,91.8,767.6,56.3,722.7,56.7z"/>
			<g>
				
					<ellipse transform="matrix(0.1335 -0.991 0.991 0.1335 523.1258 907.194)" class="st2" cx="780.4" cy="154.4" rx="23.8" ry="8"/>
				<ellipse transform="matrix(0.991 -0.1335 0.1335 0.991 -14.665 89.8784)" class="st2" cx="662.9" cy="154.3" rx="8" ry="23.8"/>
			</g>
			<rect x="686.6" y="196.9" class="st2" width="70.1" height="73.1"/>
			<g>
				<path class="st2" d="M734.5,303l-48.1-73.8l0,0c0,20.9-16.9,37.8-37.8,37.8l0,0L734.5,303z"/>
				<path class="st2" d="M708.8,303l48.1-73.8l0,0c0,20.9,16.9,37.8,37.8,37.8l0,0L708.8,303z"/>
			</g>
		</g>
		<g>
			<rect x="632" y="266.7" class="st2" width="178.7" height="281.4"/>
			<path class="st2" d="M604.7,305.2h233.4v86.2c0,35.4-28.7,64-64,64H668.7c-35.4,0-64-28.7-64-64V305.2z"/>
			<path class="st2" d="M558.8,388.5h325.1v-59.3c0-34.5-28-62.4-62.4-62.4H621.2c-34.5,0-62.4,28-62.4,62.4V388.5z"/>
			<path class="st2" d="M810.7,548.1h-89.4v196.1h127.1c0,0,0-24.5,0-74.5C848.4,621.8,810.7,548.1,810.7,548.1z"/>
			<path class="st2" d="M632,548.1h89.4v196.1H594.3c0,0,0-24.5,0-74.5C594.3,621.8,632,548.1,632,548.1z"/>
			<g>
				<path class="st2" d="M806.7,995.3c0,19.3-77.1,0-77.1,0v-251c0,0,118.8-29.7,118.8,0C848.4,851,806.7,966.2,806.7,995.3z"/>
				<path class="st2" d="M785.5,1310.1h-41l-14.9-314.8h76.9c0,0,6.4,92.3,6.4,123.2C812.9,1205.1,785.5,1310.1,785.5,1310.1z"/>
				<path class="st2" d="M793.4,1405.1c-0.1,2.3-2.4,6-4.9,9.3c-3.8,5-9.7,7.8-15.9,7.8h-29.7c-7,0-12.4-6.1-11.4-13.1l13.1-99h41
					C785.5,1310.1,794.4,1375.9,793.4,1405.1z"/>
			</g>
			<g>
				<path class="st2" d="M636,995.3c0,19.3,77.1,0,77.1,0v-251c0,0-118.8-29.7-118.8,0C594.3,851,636,966.2,636,995.3z"/>
				<path class="st2" d="M657.2,1310.1h41l14.9-314.8h-76.9c0,0-6.4,92.3-6.4,123.2C629.8,1205.1,657.2,1310.1,657.2,1310.1z"/>
				<path class="st2" d="M649.4,1405.1c0.1,2.3,2.4,6,4.9,9.3c3.8,5,9.7,7.8,15.9,7.8h29.7c7,0,12.4-6.1,11.4-13.1l-13.1-99h-41
					C657.3,1310.1,648.3,1375.9,649.4,1405.1z"/>
			</g>
			<polygon class="st2" points="904.4,537.7 858.5,543.1 830.6,325.7 883.8,319.5 			"/>
			<path class="st2" d="M919.2,722.4l-27,3.1L858.5,543c0,0,42.4-39.8,43.8-27.7c2.5,21.5,8.9,43.4,12.1,73.1
				C918,621.8,919.2,722.4,919.2,722.4z"/>
			<path class="st2" d="M919.2,722.4v41.4c0,8.9-2.7,17.6-7.9,24.9l-32.9,46.8c-2.7,3.9-8,4.9-11.9,2.3l0,0c-3.7-2.4-5-7.1-3.1-11.1
				l20.4-42.3l-2.8-15.3L866.4,798c-0.7,1.3-2.2,2-3.7,1.6l0,0c-1.5-0.4-2.5-1.9-2.3-3.4l3.1-27.7c0.8-7.2,3.3-14.1,7.4-20.1
				l21.2-22.9L919.2,722.4z"/>
			<g>
				<polygon class="st2" points="539,537.7 584.9,543.1 612.7,325.7 559.6,319.5 				"/>
				<path class="st2" d="M524.2,722.4l27,3.1L584.9,543c0,0-42.4-39.8-43.8-27.7c-2.5,21.5-8.9,43.4-12.1,73.1
					C525.4,621.8,524.2,722.4,524.2,722.4z"/>
				<path class="st2" d="M524.2,722.4v41.4c0,8.9,2.7,17.6,7.9,24.9l32.9,46.8c2.7,3.9,8,4.9,11.9,2.3l0,0c3.7-2.4,5-7.1,3.1-11.1
					l-20.4-42.3l2.8-15.3L577,798c0.7,1.3,2.2,2,3.7,1.6l0,0c1.5-0.4,2.5-1.9,2.3-3.4l-3.1-27.7c-0.8-7.2-3.3-14.1-7.4-20.1
					l-21.2-22.9L524.2,722.4z"/>
			</g>
		</g>
	</g>
	<g>
		<g>
			<path class="st3" d="M739.2,273.4L739.2,273.4c3.9-2.5,8.4-3.9,13.1-3.9h6.3c7.9,0.5,12.9,3.1,16,7.1
				c21.4,27.7,48.6,65,55.8,114.3c1.7,11.9-15.2,35.7-19.8,39.1c-55.8,41.5-87.2-27.9-87.2-27.9l5-109.7
				C728.7,284.7,732.7,277.6,739.2,273.4z"/>
			<circle class="st3" cx="775.8" cy="396.1" r="54.6"/>
		</g>
		<g>
			<path class="st3" d="M704.9,273.4L704.9,273.4c-3.9-2.5-8.4-3.9-13.1-3.9h-6.3c-7.9,0.5-12.9,3.1-16,7.1
				c-21.4,27.7-48.6,65-55.8,114.3c-1.7,11.9,15.2,35.7,19.8,39.1c55.8,41.5,87.2-27.9,87.2-27.9l17.6-99l-22.5-10.6
				C715.4,284.7,711.4,277.6,704.9,273.4z"/>
			<circle class="st3" cx="668.3" cy="396.1" r="54.6"/>
		</g>
	</g>
	<path class="st4" d="M721.7,715.8L721.7,715.8c-30.3,0-54.9-24.6-54.9-54.9v-61.7c0-30.3,24.6-54.9,54.9-54.9l0,0
		c30.3,0,54.9,24.6,54.9,54.9v61.7C776.5,691.2,752,715.8,721.7,715.8z"/>
	<g>
		<g>
			<g>
				<circle class="st4" cx="689.3" cy="394.8" r="22.4"/>
				<circle class="st4" cx="659.5" cy="405.6" r="24.4"/>
				<circle class="st4" cx="698.2" cy="329.9" r="13.5"/>
				<rect x="681.8" y="329.9" class="st4" width="29.9" height="61"/>
				<path class="st4" d="M636,399c13.2-52.4,53.6-79.5,53.6-79.5l5.4,70.4C695,389.8,632.3,413.5,636,399z"/>
			</g>
			<g>
				<circle class="st4" cx="754.8" cy="394.8" r="22.4"/>
				<circle class="st4" cx="784.6" cy="405.6" r="24.4"/>
				<circle class="st4" cx="745.9" cy="329.9" r="13.5"/>
				<rect x="732.4" y="329.9" class="st4" width="29.9" height="61"/>
				<path class="st4" d="M808.1,399c-13.2-52.4-53.6-79.5-53.6-79.5l-5.4,70.4C749.1,389.8,811.8,413.5,808.1,399z"/>
			</g>
		</g>
		<rect x="714.6" y="269" class="st4" width="14.9" height="56.1"/>
		<g>
			
				<rect x="732.2" y="313.5" transform="matrix(0.7071 -0.7071 0.7071 0.7071 -24.868 623.0525)" class="st4" width="14.9" height="56.1"/>
			
				<rect x="676.3" y="334.1" transform="matrix(0.7071 -0.7071 0.7071 0.7071 -35.1984 598.0788)" class="st4" width="56.1" height="14.9"/>
		</g>
	</g>
	<g>
		<circle class="st4" cx="688.4" cy="99.2" r="13.6"/>
		<circle class="st4" cx="708.7" cy="87.6" r="14.7"/>
		<circle class="st4" cx="731.3" cy="86.2" r="16.3"/>
		<circle class="st4" cx="682.1" cy="104.7" r="8.1"/>
		<circle class="st4" cx="761.7" cy="104.7" r="8.1"/>
		<circle class="st4" cx="750.7" cy="93.2" r="11"/>
		<rect x="682.1" y="99.2" class="st4" width="79.6" height="13.6"/>
		<rect x="707.6" y="90.2" class="st4" width="14.3" height="17.6"/>
	</g>
	<g>
		<path class="st5" d="M889.8,761.2c0,0,20.9-17.7,20.3-35.7c-1.6-43.9,1.6-76-1.6-100.3c-8-60.9-24.9-73-27.9-100.5
			c-2.6-23.1,5-164.8-13-199.7c-19.1-36.9-65.2-41.5-97.4-33c-22.8,6-28.3,24.1-30.4,35.6c-1.6,8.8-1.8,16.5,2.7,35.8"/>
		<path class="st5" d="M820.9,290.9c23.7,6.2,25.7,29.3,27.5,56.9s33.3,135.3,30.9,171.2s-1.1,91.7,6.5,115.8s21.6,54.8,23.8,80.9"
			/>
		<path class="st5" d="M554.6,761.2c0,0-20.9-17.7-20.3-35.7c1.6-43.9-1.6-76,1.6-100.3c8-60.9,24.9-73,27.9-100.5
			c2.6-23.1-5-164.8,13-199.7c19.1-36.9,65.2-41.5,97.4-33c22.8,6,47.4,21.8,51.6,35.6c2.6,8.6,8.6,16.5,4.2,35.8"/>
		<path class="st5" d="M623.5,290.9c-23.7,6.2-25.7,29.3-27.5,56.9S562.7,483.1,565.1,519c2.4,35.9,1.1,91.7-6.5,115.8
			s-21.6,54.8-23.8,80.9"/>
		<path class="st5" d="M769.1,107.8c0,0,10.1,25.8,0,53s-24.3,53.3-23.2,68.4c1.1,15.2,24.2,62.9,24.2,62.9"/>
		<line class="st5" x1="745.9" y1="225.8" x2="751.8" y2="301.4"/>
		<path class="st5" d="M673.8,107.8c0,0-10.1,25.8,0,53s24.3,53.3,23.2,68.4s-24.2,62-24.2,62"/>
		<line class="st5" x1="697" y1="225.8" x2="691.2" y2="298"/>
		<path class="st5" d="M725.8,411.6c0,0-3.9,223.5,0.4,234.6c4.3,11.1,78.3,67.9,82.1,115c8.8,108-27.9,228.6-29.6,234.1
			c-6.6,21.4,19,145.2,13.3,195.2s-26.4,117.2-29.7,141.5c-3.2,24.3-5.6,54.3-5.6,54.3"/>
		<path class="st5" d="M754.8,676.9c13,13.8,18.6,46.7,16.4,84.3c-2.1,37.6,8.4,197.7,2.4,249.2s-18.1,154.4-14.2,193
			c3.9,38.6,7.1,90.2,2.9,128.7"/>
		<path class="st5" d="M724.6,642.8c-4.3,11.1-86.7,71.3-90.5,118.4c-8.8,108,27.9,228.6,29.6,234.1c6.6,21.4-19,145.2-13.3,195.2
			s26.4,117.2,29.7,141.5c3.2,24.3,5.6,54.3,5.6,54.3"/>
		<path class="st5" d="M688,679c-13,13.8-19,44.6-16.9,82.2c2.1,37.6-8.4,197.7-2.4,249.2s18.1,154.4,14.2,193s-7.1,90.2-2.9,128.7"
			/>
	</g>
	<path class="st6" d="M727.2,340.4c0,0,4.3,6.4,3.8,7.8c-0.4,1.4-3.7,2.6-7.2,11c-2.3,5.8,0.9,11.3-0.6,12.4
		c-1.6,1.1-5.7,7.9-6.9,10.2c-8.9,16.7,4,34.6,13.3,41.2c9.3,6.5,18.4,6.7,24.3,9.3c8.2,3.5,19,5.8,25.3-5.3c0,0,4.1-8.5-1-24.1
		c-2.9-8.9-6.4-15.4-8.1-17.8c-5.5-7.7-11.2-11.2-13.8-12.6c-1.4-0.7-0.8-3.8,2-5c2.8-1.3,6-0.3,6-0.3l1-4c0,0-3.9-1.3-5.8-0.9
		c-1.9,0.3,2.1-4.2,2.3-7.3c0,0-2.7-2.3-4.4-1.7c0,0-1,3.7-3.5,7.7c0,0,1-9.6-5.9-14.6c0,0,1.6-8.1,2.1-8.8c0,0-3.2-1.7-4.5-1.4
		c0,0-1.9,8.1-2.2,8.3c-0.3,0.2-0.9,1.2-1.5,0.2s-0.8-9.6-0.8-9.6l-4.4,0.5c0,0,1.9,9.3,0.7,9.8c-0.4,0.2-0.8,0.8-1.6,0.1
		c-2.1-1.8-4.3-6.9-4.3-7.3C731.4,337.6,727.2,340.4,727.2,340.4z"/>
</g>
<g id="General">
	<g>
		<g>
			<rect x="119.3" y="823.7" class="st7" width="538.6" height="474.6"/>
			<text transform="matrix(1 0 0 1 119.2622 841.269)" class="st1 st8 st9">Obesidad</text>
			<text transform="matrix(1 0 0 1 119.2622 877.269)" class="st1 st8 st9">Diabetes</text>
			<text transform="matrix(1 0 0 1 119.2622 913.269)" class="st1 st8 st9">Síndrome metabólico</text>
			<text transform="matrix(1 0 0 1 119.2622 949.269)" class="st1 st8 st9">Molestias, estrés</text>
			<text transform="matrix(1 0 0 1 119.2622 985.269)" class="st1 st8 st9">Trastorno del sueño</text>
			<text transform="matrix(1 0 0 1 119.2622 1021.269)" class="st8 st9">Lesiones por accidentes de trabajo y de tráfico</text>
			<text transform="matrix(1 0 0 1 119.2622 1057.269)" class="st1 st8 st9">Cáncer de colon</text>
			<text transform="matrix(1 0 0 1 119.2622 1093.369)" class="st1 st8 st9">Inflamación sistémica</text>
			<text transform="matrix(1 0 0 1 119.2622 1129.369)" class="st1 st8 st9">Peor estado de salud general</text>
			<text transform="matrix(1 0 0 1 119.2622 1165.369)" class="st1 st8 st9">Incremento de la mortalidad</text>
		</g>
		<circle class="st10" cx="107.9" cy="978" r="5.5"/>
		<circle class="st11" cx="107.9" cy="833.6" r="5.5"/>
		<circle class="st12" cx="107.9" cy="1012.5" r="5.5"/>
		<g>
			<circle class="st13" cx="107.9" cy="870.2" r="5.5"/>
			<circle class="st11" cx="93.9" cy="870.2" r="5.5"/>
		</g>
		<g>
			<circle class="st10" cx="107.9" cy="942.3" r="5.5"/>
			<circle class="st14" cx="94.1" cy="942.3" r="5.5"/>
		</g>
		<circle class="st14" cx="107.9" cy="1120.1" r="5.5"/>
		<g>
			<circle class="st12" cx="81.6" cy="1155.7" r="5.5"/>
			
				<ellipse transform="matrix(0.9674 -0.2532 0.2532 0.9674 -290.3946 54.9787)" class="st11" cx="68.4" cy="1155.7" rx="5.5" ry="5.5"/>
			<circle class="st14" cx="55.4" cy="1155.7" r="5.5"/>
			<circle class="st10" cx="94.7" cy="1155.7" r="5.5"/>
			<circle class="st13" cx="107.9" cy="1155.7" r="5.5"/>
		</g>
		<circle class="st11" cx="107.9" cy="904.5" r="5.5"/>
		<circle class="st11" cx="107.9" cy="1047.4" r="5.5"/>
		<circle class="st13" cx="107.9" cy="1084.4" r="5.5"/>
	</g>
	<g>
		<g>
			<path class="st15" d="M722.8,56.4c-0.4,0-0.7,0-1,0s-0.7,0-1,0c-44.9-0.4-62.4,35.1-59.8,80.4c2.5,44.3,19.6,91.2,60.6,92.1l0,0
				c0.1,0,0.2,0,0.3,0s0.2,0,0.3,0l0,0c41-0.9,58.1-47.8,60.6-92.1C785.2,91.6,767.7,56,722.8,56.4z"/>
			<g>
				
					<ellipse transform="matrix(0.1335 -0.991 0.991 0.1335 523.5233 907.0982)" class="st15" cx="780.5" cy="154.2" rx="23.8" ry="8"/>
				<ellipse transform="matrix(0.991 -0.1335 0.1335 0.991 -14.6375 89.8899)" class="st15" cx="663" cy="154.1" rx="8" ry="23.8"/>
			</g>
			<rect x="686.6" y="196.7" class="st15" width="70.1" height="73.1"/>
			<g>
				<path class="st15" d="M734.6,302.8L686.4,229l0,0c0,20.9-16.9,37.8-37.8,37.8l0,0L734.6,302.8z"/>
				<path class="st15" d="M708.8,302.8L757,229l0,0c0,20.9,16.9,37.8,37.8,37.8l0,0L708.8,302.8z"/>
			</g>
		</g>
		<g>
			<rect x="632.1" y="266.5" class="st15" width="178.7" height="281.4"/>
			<path class="st15" d="M604.7,305h233.4v86.2c0,35.4-28.7,64-64,64H668.7c-35.4,0-64-28.7-64-64V305z"/>
			<path class="st15" d="M558.9,388.2H884v-59.3c0-34.5-28-62.4-62.4-62.4H621.3c-34.5,0-62.4,28-62.4,62.4L558.9,388.2L558.9,388.2
				z"/>
			<path class="st15" d="M810.8,547.9h-89.4V744h127.1c0,0,0-24.5,0-74.5C848.5,621.5,810.8,547.9,810.8,547.9z"/>
			<path class="st15" d="M632,547.9h89.4V744H594.3c0,0,0-24.5,0-74.5C594.3,621.5,632,547.9,632,547.9z"/>
			<g>
				<path class="st15" d="M806.7,995c0,19.3-77.1,0-77.1,0V744c0,0,118.8-29.7,118.8,0C848.5,850.8,806.7,965.9,806.7,995z"/>
				<path class="st15" d="M785.6,1309.9h-41l-15-314.9h76.9c0,0,6.4,92.3,6.4,123.2C812.9,1204.9,785.6,1309.9,785.6,1309.9z"/>
				<path class="st15" d="M793.4,1404.9c-0.1,2.3-2.4,6-4.9,9.3c-3.8,5-9.7,7.8-15.9,7.8h-29.7c-7,0-12.4-6.1-11.4-13.1l13.1-99h41
					C785.5,1309.9,794.4,1375.6,793.4,1404.9z"/>
			</g>
			<g>
				<path class="st15" d="M636.1,995c0,19.3,77.1,0,77.1,0V744c0,0-118.8-29.7-118.8,0C594.3,850.8,636.1,965.9,636.1,995z"/>
				<path class="st15" d="M657.2,1309.9h41l15-314.9h-76.9c0,0-6.4,92.3-6.4,123.2C629.9,1204.9,657.2,1309.9,657.2,1309.9z"/>
				<path class="st15" d="M649.4,1404.9c0.1,2.3,2.4,6,4.9,9.3c3.8,5,9.7,7.8,15.9,7.8H700c7,0,12.4-6.1,11.4-13.1l-13.1-99h-41
					C657.3,1309.9,648.4,1375.6,649.4,1404.9z"/>
			</g>
			<polygon class="st15" points="904.4,537.5 858.5,542.8 830.7,325.5 883.8,319.3 			"/>
			<path class="st15" d="M919.2,722.2l-27,3.1l-33.7-182.5c0,0,42.4-39.8,43.8-27.7c2.5,21.5,8.9,43.4,12.1,73.1
				C918,621.5,919.2,722.2,919.2,722.2z"/>
			<path class="st15" d="M919.2,722.2v41.4c0,8.9-2.7,17.6-7.9,24.9l-32.9,46.8c-2.7,3.9-8,4.9-11.9,2.3l0,0
				c-3.7-2.4-5-7.1-3.1-11.1l20.4-42.3l-2.8-15.3l-14.6,28.8c-0.7,1.3-2.2,2-3.7,1.6l0,0c-1.5-0.4-2.5-1.9-2.3-3.4l3.1-27.7
				c0.8-7.2,3.3-14.1,7.4-20.1l21.2-22.9L919.2,722.2z"/>
			<g>
				<polygon class="st15" points="539,537.5 584.9,542.8 612.8,325.5 559.6,319.3 				"/>
				<path class="st15" d="M524.2,722.2l27,3.1l33.7-182.5c0,0-42.4-39.8-43.8-27.7c-2.5,21.5-8.9,43.4-12.1,73.1
					C525.4,621.5,524.2,722.2,524.2,722.2z"/>
				<path class="st15" d="M524.2,722.2v41.4c0,8.9,2.7,17.6,7.9,24.9l32.9,46.8c2.7,3.9,8,4.9,11.9,2.3l0,0c3.7-2.4,5-7.1,3.1-11.1
					l-20.4-42.3l2.8-15.3l14.6,28.8c0.7,1.3,2.2,2,3.7,1.6l0,0c1.5-0.4,2.5-1.9,2.3-3.4l-3.1-27.7c-0.8-7.2-3.3-14.1-7.4-20.1
					l-21.2-22.9L524.2,722.2z"/>
			</g>
		</g>
	</g>
	<g>
		<g>
			<path class="st3" d="M739.2,273.2L739.2,273.2c3.9-2.5,8.4-3.9,13.1-3.9h6.3c7.9,0.5,12.9,3.1,16,7.1
				c21.4,27.7,48.6,65,55.8,114.3c1.7,11.9-15.2,35.7-19.8,39.1c-55.8,41.5-87.2-27.9-87.2-27.9l5-109.7
				C728.7,284.4,732.8,277.4,739.2,273.2z"/>
			<circle class="st3" cx="775.8" cy="395.9" r="54.6"/>
		</g>
		<g>
			<path class="st3" d="M705,273.2L705,273.2c-3.9-2.5-8.4-3.9-13.1-3.9h-6.3c-7.9,0.5-12.9,3.1-16,7.1
				c-21.4,27.7-48.6,65-55.8,114.3c-1.7,11.9,15.2,35.7,19.8,39.1c55.8,41.5,87.2-27.9,87.2-27.9l17.6-99l-22.5-10.6
				C715.5,284.4,711.4,277.4,705,273.2z"/>
			<circle class="st3" cx="668.4" cy="395.9" r="54.6"/>
		</g>
	</g>
	<path class="st4" d="M721.7,715.6L721.7,715.6c-30.3,0-54.9-24.6-54.9-54.9V599c0-30.3,24.6-54.9,54.9-54.9l0,0
		c30.3,0,54.9,24.6,54.9,54.9v61.7C776.6,691,752,715.6,721.7,715.6z"/>
	<g>
		<g>
			<g>
				<circle class="st4" cx="689.3" cy="394.5" r="22.4"/>
				<circle class="st4" cx="659.5" cy="405.3" r="24.4"/>
				<circle class="st4" cx="698.2" cy="329.7" r="13.5"/>
				<rect x="681.9" y="329.7" class="st4" width="29.9" height="61"/>
				<path class="st4" d="M636,398.7c13.2-52.4,53.6-79.5,53.6-79.5l5.4,70.4C695.1,389.5,632.4,413.2,636,398.7z"/>
			</g>
			<g>
				<circle class="st4" cx="754.9" cy="394.5" r="22.4"/>
				<circle class="st4" cx="784.7" cy="405.3" r="24.4"/>
				<circle class="st4" cx="746" cy="329.7" r="13.5"/>
				<rect x="732.5" y="329.6" class="st4" width="29.9" height="61"/>
				<path class="st4" d="M808.2,398.7c-13.2-52.4-53.6-79.5-53.6-79.5l-5.4,70.4C749.1,389.5,811.8,413.2,808.2,398.7z"/>
			</g>
		</g>
		<rect x="714.6" y="268.8" class="st4" width="14.9" height="56.1"/>
		<g>
			
				<rect x="732.3" y="313.3" transform="matrix(0.7071 -0.7071 0.7071 0.7071 -24.7162 623.0591)" class="st4" width="14.9" height="56.1"/>
			
				<rect x="676.4" y="333.8" transform="matrix(0.7071 -0.7071 0.7071 0.7071 -34.9858 598.0374)" class="st4" width="56.1" height="14.9"/>
		</g>
	</g>
	<g>
		<path class="st5" d="M889.8,760.9c0,0,20.9-17.7,20.3-35.7c-1.6-43.9,1.6-76-1.6-100.3c-8-60.9-24.9-73-27.9-100.5
			c-2.6-23.1,5-164.8-13-199.7c-19.1-36.9-65.2-41.5-97.4-33c-22.8,6-28.3,24.1-30.4,35.6c-1.6,8.8-1.8,16.5,2.7,35.8"/>
		<path class="st5" d="M821,290.7c23.7,6.2,25.7,29.3,27.5,56.9s33.3,135.3,30.9,171.2c-2.4,35.9-1.1,91.7,6.5,115.8
			s21.6,54.8,23.8,80.9"/>
		<path class="st5" d="M554.7,760.9c0,0-20.9-17.7-20.3-35.7c1.6-43.9-1.6-76,1.6-100.3c8-60.9,24.9-73,27.9-100.5
			c2.6-23.1-5-164.8,13-199.7c19.1-36.9,65.2-41.5,97.4-33c22.8,6,47.4,21.8,51.6,35.6c2.6,8.6,8.6,16.5,4.2,35.8"/>
		<path class="st5" d="M623.5,290.7c-23.7,6.2-25.7,29.3-27.5,56.9s-33.3,135.3-30.9,171.2c2.4,35.9,1.1,91.7-6.5,115.8
			s-21.6,54.8-23.8,80.9"/>
		<path class="st5" d="M770.1,291.8c0,0-23.1-47.7-24.2-62.9s13.1-41.3,23.2-68.4c5.7-15.3,5-30.2,3.3-40.3
			c-1.3-7.6-6.4-14-13.5-16.9l-4.6-1.9"/>
		<line class="st5" x1="746" y1="225.5" x2="751.8" y2="301.1"/>
		<path class="st5" d="M672.9,291c0,0,23.1-46.8,24.2-62s-13.1-41.3-23.2-68.4c-6.5-17.4-4.7-34.3-2.5-44.1
			c1.2-5.4,4.3-10.1,8.7-13.3l4.8-3.5"/>
		<line class="st5" x1="697.1" y1="225.5" x2="691.2" y2="297.7"/>
		<path class="st5" d="M725.8,411.4c0,0-3.9,223.5,0.4,234.6c4.3,11.1,78.3,67.9,82.1,115c8.8,108-27.9,228.6-29.6,234.1
			c-6.6,21.4,19,145.2,13.3,195.2s-26.4,117.2-29.7,141.5c-3.2,24.3-5.6,54.3-5.6,54.3"/>
		<path class="st5" d="M754.9,676.6c13,13.8,18.6,46.7,16.4,84.3c-2.1,37.6,8.4,197.7,2.4,249.2s-18.1,154.4-14.2,193
			c3.9,38.6,7.1,90.2,2.9,128.7"/>
		<path class="st5" d="M724.7,642.6c-4.3,11.1-86.7,71.3-90.5,118.4c-8.8,108,27.9,228.6,29.6,234.1c6.6,21.4-19,145.2-13.3,195.2
			s26.4,117.2,29.7,141.5c3.2,24.3,5.6,54.3,5.6,54.3"/>
		<path class="st5" d="M688.1,678.7c-13,13.8-19,44.6-16.9,82.2c2.1,37.6-8.4,197.7-2.4,249.2c6,51.5,18.1,154.4,14.2,193
			c-3.9,38.6-7.1,90.2-2.9,128.7"/>
	</g>
	<path class="st6" d="M727.2,340.1c0,0,4.3,6.4,3.8,7.8c-0.4,1.4-3.7,2.6-7.2,11c-2.3,5.8,0.9,11.3-0.6,12.4
		c-1.6,1.1-5.7,7.9-6.9,10.2c-8.9,16.7,4,34.6,13.3,41.2c9.3,6.5,18.4,6.7,24.3,9.3c8.2,3.5,19,5.8,25.3-5.3c0,0,4.1-8.5-1-24.1
		c-2.9-8.9-6.4-15.4-8.1-17.8c-5.5-7.7-11.2-11.2-13.8-12.6c-1.4-0.7-0.8-3.8,2-5c2.8-1.3,6-0.3,6-0.3l1-4c0,0-3.9-1.3-5.8-0.9
		c-1.9,0.3,2.1-4.2,2.3-7.3c0,0-2.7-2.3-4.4-1.7c0,0-1,3.7-3.5,7.7c0,0,1-9.6-5.9-14.6c0,0,1.6-8.1,2.1-8.8c0,0-3.2-1.7-4.5-1.4
		c0,0-1.9,8.1-2.2,8.3c-0.3,0.2-0.9,1.2-1.5,0.2s-0.8-9.6-0.8-9.6l-4.4,0.5c0,0,1.9,9.3,0.7,9.8c-0.4,0.2-0.8,0.8-1.6,0.1
		c-2.1-1.8-4.3-6.9-4.3-7.3C731.4,337.4,727.2,340.1,727.2,340.1z"/>
	<g>
		<circle class="st4" cx="688.4" cy="99" r="13.6"/>
		<circle class="st4" cx="708.7" cy="87.3" r="14.7"/>
		<circle class="st4" cx="731.3" cy="85.9" r="16.3"/>
		<circle class="st4" cx="682.2" cy="104.4" r="8.1"/>
		<circle class="st4" cx="761.7" cy="104.4" r="8.1"/>
		<circle class="st4" cx="750.7" cy="93" r="11"/>
		<rect x="682.2" y="99" class="st4" width="79.6" height="13.6"/>
		<rect x="707.6" y="89.9" class="st4" width="14.3" height="17.6"/>
	</g>
	<g>
		<rect x="119.3" y="765.7" class="st7" width="283.7" height="57.7"/>
		<text transform="matrix(1 0 0 1 119.2617 789.7845)" class="st1 st8 st16">General/Otros</text>
	</g>
	<line class="st17" x1="615.4" y1="743.3" x2="119.3" y2="741.6"/>
</g>
<g id="Pit_1_">
	<g>
		<g>
			<path class="st15" d="M739.5,272.8L739.5,272.8c3.9-2.5,8.4-3.9,13.1-3.9h6.3c7.9,0.5,12.9,3.1,16,7.1
				c21.4,27.7,48.6,65,55.8,114.3c1.7,11.9-15.2,35.7-19.8,39.1c-55.8,41.5-87.2-27.9-87.2-27.9l5-109.7
				C729,284.1,733,277,739.5,272.8z"/>
			<circle class="st15" cx="776.1" cy="395.5" r="54.6"/>
		</g>
		<g>
			<path class="st15" d="M705.2,272.8L705.2,272.8c-3.9-2.5-8.4-3.9-13.1-3.9h-6.3c-7.9,0.5-12.9,3.1-16,7.1
				c-21.4,27.7-48.6,65-55.8,114.3c-1.7,11.9,15.2,35.7,19.8,39.1c55.8,41.5,87.2-27.9,87.2-27.9l17.6-99l-22.5-10.6
				C715.8,284.1,711.7,277,705.2,272.8z"/>
			<circle class="st15" cx="668.7" cy="395.5" r="54.6"/>
		</g>
	</g>
	<g>
		<g>
			<g>
				<circle class="st4" cx="689.6" cy="394.1" r="22.4"/>
				<circle class="st4" cx="659.8" cy="404.9" r="24.4"/>
				<circle class="st4" cx="698.5" cy="329.3" r="13.5"/>
				<rect x="682.2" y="329.3" class="st4" width="29.9" height="61"/>
				<path class="st4" d="M636.3,398.3c13.2-52.4,53.6-79.5,53.6-79.5l5.4,70.4C695.4,389.2,632.6,412.8,636.3,398.3z"/>
			</g>
			<g>
				<circle class="st4" cx="755.1" cy="394.1" r="22.4"/>
				<circle class="st4" cx="785" cy="404.9" r="24.4"/>
				<circle class="st4" cx="746.3" cy="329.3" r="13.5"/>
				<rect x="732.7" y="329.3" class="st4" width="29.9" height="61"/>
				<path class="st4" d="M808.5,398.3c-13.2-52.4-53.6-79.5-53.6-79.5l-5.4,70.4C749.4,389.2,812.1,412.8,808.5,398.3z"/>
			</g>
		</g>
		<rect x="714.9" y="268.4" class="st4" width="14.9" height="56.1"/>
		<g>
			
				<rect x="732.6" y="312.9" transform="matrix(0.7071 -0.7071 0.7071 0.7071 -24.3368 623.1588)" class="st4" width="14.9" height="56.1"/>
			
				<rect x="676.7" y="333.5" transform="matrix(0.7071 -0.7071 0.7071 0.7071 -34.6801 598.1962)" class="st4" width="56.1" height="14.9"/>
		</g>
	</g>
	<g>
		<path class="st5" d="M791.5,288c-7.3,0.5-14.4,1.7-21,3.4c-22.8,6-28.3,24.1-30.4,35.6c-1.6,8.8-1.8,16.5,2.7,35.8"/>
		<path class="st5" d="M656.5,288.2c6.3,0.6,12.3,1.7,18,3.2c22.8,6,47.4,21.8,51.6,35.6c2.6,8.6,8.6,16.5,4.2,35.8"/>
		<line class="st5" x1="746.3" y1="225.1" x2="752.1" y2="300.7"/>
		<path class="st5" d="M673.2,290.6c0,0,23.1-46.8,24.2-62"/>
		<line class="st5" x1="697.3" y1="225.1" x2="691.5" y2="297.3"/>
	</g>
	<g>
		<circle class="st11" cx="108.2" cy="655.9" r="5.5"/>
		<g>
			<rect x="119.5" y="646" class="st7" width="357.8" height="48.9"/>
			<text transform="matrix(1 0 0 1 119.5474 663.547)" class="st1 st8 st9">Cáncer de mama </text>
		</g>
		<g>
			<rect x="119.5" y="586.6" class="st7" width="385.2" height="138.5"/>
			<text transform="matrix(1 0 0 1 119.5464 610.7184)" class="st1 st8 st16">Pecho</text>
		</g>
		<polyline class="st17" points="119.5,564.2 482.4,562.7 632.4,371.7 		"/>
	</g>
	<path class="st6" d="M727.2,340.4c0,0,4.3,6.4,3.8,7.8c-0.4,1.4-3.7,2.6-7.2,11c-2.3,5.8,0.9,11.3-0.6,12.4
		c-1.6,1.1-5.7,7.9-6.9,10.2c-8.9,16.7,4,34.6,13.3,41.2c9.3,6.5,18.4,6.7,24.3,9.3c8.2,3.5,19,5.8,25.3-5.3c0,0,4.1-8.5-1-24.1
		c-2.9-8.9-6.4-15.4-8.1-17.8c-5.5-7.7-11.2-11.2-13.8-12.6c-1.4-0.7-0.8-3.8,2-5c2.8-1.3,6-0.3,6-0.3l1-4c0,0-3.9-1.3-5.8-0.9
		c-1.9,0.3,2.1-4.2,2.3-7.3c0,0-2.7-2.3-4.4-1.7c0,0-1,3.7-3.5,7.7c0,0,1-9.6-5.9-14.6c0,0,1.6-8.1,2.1-8.8c0,0-3.2-1.7-4.5-1.4
		c0,0-1.9,8.1-2.2,8.3c-0.3,0.2-0.9,1.2-1.5,0.2s-0.8-9.6-0.8-9.6l-4.4,0.5c0,0,1.9,9.3,0.7,9.8c-0.4,0.2-0.8,0.8-1.6,0.1
		c-2.1-1.8-4.3-6.9-4.3-7.3C731.3,337.7,727.2,340.4,727.2,340.4z"/>
</g>
<g id="AparellRespiratori">
	<g>
		<g>
			<g>
				<circle class="st15" cx="689.8" cy="393.9" r="22.4"/>
				<circle class="st15" cx="660" cy="404.7" r="24.4"/>
				<circle class="st15" cx="698.6" cy="329" r="13.5"/>
				<rect x="682.3" y="329" class="st15" width="29.9" height="61"/>
				<path class="st15" d="M636.4,398.1c13.2-52.4,53.6-79.5,53.6-79.5l5.4,70.4C695.5,388.9,632.8,412.6,636.4,398.1z"/>
			</g>
			<g>
				<circle class="st15" cx="755.3" cy="393.9" r="22.4"/>
				<circle class="st15" cx="785.1" cy="404.7" r="24.4"/>
				<circle class="st15" cx="746.4" cy="329" r="13.5"/>
				<rect x="732.8" y="329" class="st15" width="29.9" height="61"/>
				<path class="st15" d="M808.6,398.1c-13.2-52.4-53.6-79.5-53.6-79.5l-5.4,70.4C749.5,388.9,812.3,412.6,808.6,398.1z"/>
			</g>
		</g>
		<rect x="715.1" y="268.1" class="st15" width="14.9" height="56.1"/>
		<g>
			
				<rect x="732.7" y="312.6" transform="matrix(0.7071 -0.7071 0.7071 0.7071 -24.0864 623.1265)" class="st15" width="14.9" height="56.1"/>
			
				<rect x="676.9" y="333.3" transform="matrix(0.7071 -0.7071 0.7071 0.7071 -34.4664 598.2965)" class="st15" width="56.1" height="14.9"/>
		</g>
	</g>
	<g>
		<path class="st5" d="M745.1,311.1c-2.7,5.4-4.1,11-4.9,15.6c-1.6,8.8-1.8,16.5,2.7,35.8"/>
		<path class="st5" d="M713.8,310.7c6.3,5.2,10.9,10.8,12.5,16c2.6,8.6,8.6,16.5,4.2,35.8"/>
	</g>
	<path class="st6" d="M727.7,339.5c0,0,4.3,6.4,3.8,7.8c-0.4,1.4-3.7,2.6-7.2,11c-2.3,5.8,0.9,11.3-0.6,12.4
		c-1.6,1.1-5.7,7.9-6.9,10.2c-8.9,16.7,4,34.6,13.3,41.2c9.3,6.5,18.4,6.7,24.3,9.3c8.2,3.5,19,5.8,25.3-5.3c0,0,4.1-8.5-1-24.1
		c-2.9-8.9-6.4-15.4-8.1-17.8c-5.5-7.7-11.2-11.2-13.8-12.6c-1.4-0.7-0.8-3.8,2-5c2.8-1.3,6-0.3,6-0.3l1-4c0,0-3.9-1.3-5.8-0.9
		c-1.9,0.3,2.1-4.2,2.3-7.3c0,0-2.7-2.3-4.4-1.7c0,0-1,3.7-3.5,7.7c0,0,1-9.6-5.9-14.6c0,0,1.6-8.1,2.1-8.8c0,0-3.2-1.7-4.5-1.4
		c0,0-1.9,8.1-2.2,8.3c-0.3,0.2-0.9,1.2-1.5,0.2s-0.8-9.6-0.8-9.6l-4.4,0.5c0,0,1.9,9.3,0.7,9.8c-0.4,0.2-0.8,0.8-1.6,0.1
		c-2.1-1.8-4.3-6.9-4.3-7.3C731.8,336.7,727.7,339.5,727.7,339.5z"/>
	<g>
		<circle class="st13" cx="1335.9" cy="181.8" r="5.5"/>
		<circle class="st13" cx="1335.9" cy="242" r="5.5"/>
		<circle class="st13" cx="1335.9" cy="277.8" r="5.5"/>
		<circle class="st11" cx="1349.7" cy="277.8" r="5.5"/>
		<circle class="st13" cx="1335.9" cy="313.6" r="5.5"/>
		<circle class="st13" cx="1335.9" cy="349.7" r="5.5"/>
		<g>
			<rect x="965.5" y="170.4" class="st7" width="357.8" height="214.7"/>
			<text transform="matrix(1 0 0 1 1085.1099 187.993)" class="st1 st8 st9">Enfermedad Pulmonar </text>
			<text transform="matrix(1 0 0 1 1024.7098 211.993)" class="st1 st8 st9">Obstructiva Crónica (EPOC)</text>
			<text transform="matrix(1 0 0 1 1264.4099 247.993)" class="st1 st8 st9">Asma</text>
			<text transform="matrix(1 0 0 1 1020.4099 283.993)" class="st1 st8 st9">Enfermedades respiratorias </text>
			<text transform="matrix(1 0 0 1 1212.8098 319.993)" class="st1 st8 st9">Neumonía</text>
			<text transform="matrix(1 0 0 1 1123.1099 355.993)" class="st1 st8 st9">Cáncer de pulmón</text>
		</g>
		<g>
			<rect x="938.1" y="112.5" class="st7" width="385.2" height="138.5"/>
			<text transform="matrix(1 0 0 1 950.2495 136.6197)" class="st1 st8 st16">Aparato respiratorio  </text>
		</g>
		<polyline class="st17" points="1323.4,90.1 960.5,88.6 780.9,360.7 		"/>
	</g>
</g>
<g id="Cor">
	<path class="st15" d="M727.3,340.4c0,0,4.3,6.4,3.8,7.8c-0.4,1.4-3.7,2.6-7.2,11c-2.3,5.8,0.9,11.3-0.6,12.4
		c-1.6,1.1-5.7,7.9-6.9,10.2c-8.9,16.7,4,34.6,13.3,41.2c9.3,6.5,18.4,6.7,24.3,9.3c8.2,3.5,19,5.8,25.3-5.3c0,0,4.1-8.5-1-24.1
		c-2.9-8.9-6.4-15.4-8.1-17.8c-5.5-7.7-11.2-11.2-13.8-12.6c-1.4-0.7-0.8-3.8,2-5c2.8-1.3,6-0.3,6-0.3l1-4c0,0-3.9-1.3-5.8-0.9
		c-1.9,0.3,2.1-4.2,2.3-7.3c0,0-2.7-2.3-4.4-1.7c0,0-1,3.7-3.5,7.7c0,0,1-9.6-5.9-14.6c0,0,1.6-8.1,2.1-8.8c0,0-3.2-1.7-4.5-1.4
		c0,0-1.9,8.1-2.2,8.3c-0.3,0.2-0.9,1.2-1.5,0.2s-0.8-9.6-0.8-9.6l-4.4,0.5c0,0,1.9,9.3,0.7,9.8c-0.4,0.2-0.8,0.8-1.6,0.1
		c-2.1-1.8-4.3-6.9-4.3-7.3C731.5,337.7,727.3,340.4,727.3,340.4z"/>
	<g>
		<circle class="st10" cx="1349.1" cy="635.4" r="5.5"/>
		<circle class="st11" cx="1362.9" cy="635.4" r="5.5"/>
		<circle class="st10" cx="1349.3" cy="528.6" r="5.5"/>
		<circle class="st11" cx="1363.2" cy="528.6" r="5.5"/>
		<circle class="st13" cx="1335.5" cy="528.6" r="5.5"/>
		<circle class="st13" cx="1335.3" cy="563.6" r="5.5"/>
		<circle class="st13" cx="1335.3" cy="599.5" r="5.5"/>
		<circle class="st13" cx="1335.3" cy="635.4" r="5.5"/>
		<g>
			<rect x="966.1" y="517" class="st7" width="357.8" height="151.9"/>
			<text transform="matrix(1 0 0 1 1099.0535 534.5411)" class="st1 st8 st9">Infarto de miocardio </text>
			<text transform="matrix(1 0 0 1 1238.6534 570.5411)" class="st1 st8 st9">Arritmia</text>
			<text transform="matrix(1 0 0 1 1039.3535 606.5411)" class="st1 st8 st9">Fallo congestivo cardíaco</text>
			<text transform="matrix(1 0 0 1 972.4535 642.5411)" class="st1 st8 st9">Enfermedades cardiovasculares</text>
		</g>
		<g>
			<rect x="938.7" y="458.2" class="st7" width="385.2" height="321.3"/>
			<text transform="matrix(1 0 0 1 1162.5027 482.3624)" class="st1 st8 st16">Corazón</text>
		</g>
		<polyline class="st17" points="1323.9,435.9 961.1,434.5 760.3,393.1 		"/>
	</g>
</g>
<g id="AparellReproductor_1_">
	<path class="st15" d="M722.1,715.9L722.1,715.9c-30.3,0-54.9-24.6-54.9-54.9v-61.7c0-30.3,24.6-54.9,54.9-54.9l0,0
		c30.3,0,54.9,24.6,54.9,54.9V661C777,691.4,752.4,715.9,722.1,715.9z"/>
	<g>
		<path class="st5" d="M724.7,538.6c-0.3,52.6-0.1,102.6,1.9,107.8c2.3,6,25,25.3,45.9,49.3"/>
		<path class="st5" d="M755.3,677"/>
		<path class="st5" d="M725.1,642.9c-2.4,6.1-28.5,27.2-52.1,52.8"/>
		<path class="st5" d="M688.5,679.1"/>
	</g>
	<g>
		<g>
			<rect x="962.4" y="840.7" class="st7" width="360.9" height="195.4"/>
			<text transform="matrix(1 0 0 1 1076.9663 858.201)" class="st1 st8 st9">Nacimiento prematuro</text>
			<text transform="matrix(1 0 0 1 1072.7664 894.201)" class="st1 st8 st9">Peso reducido al nacer </text>
			<text transform="matrix(1 0 0 1 1191.2664 930.201)" class="st1 st8 st9">Preclampsia</text>
			<text transform="matrix(1 0 0 1 1020.7664 966.201)" class="st1 st8 st9">Reducción en la calidad del </text>
			<text transform="matrix(1 0 0 1 1227.5663 990.201)" class="st1 st8 st9">esperma</text>
		</g>
		<g>
			<rect x="956.6" y="745" class="st7" width="366.7" height="123.5"/>
			<text transform="matrix(1 0 0 1 962.8521 769.1512)" class="st1 st8 st16">Aparato reproductor</text>
			<text transform="matrix(1 0 0 1 1232.7521 806.6512)" class="st1 st8 st16">y feto</text>
		</g>
		<polyline class="st17" points="755.3,602.1 937.7,722.1 1323.4,720.9 		"/>
		<circle class="st13" cx="1335.9" cy="850.6" r="5.5"/>
		<circle class="st13" cx="1335.9" cy="888.1" r="5.5"/>
		<circle class="st13" cx="1335.9" cy="958.1" r="5.5"/>
		<circle class="st12" cx="1349.7" cy="850.6" r="5.5"/>
		<circle class="st13" cx="1335.9" cy="924.2" r="5.5"/>
	</g>
</g>
<g id="Cap">
	<g>
		<g>
			<rect x="119.2" y="171.2" class="st7" width="380.7" height="427.2"/>
			<text transform="matrix(1 0 0 1 119.2378 188.7769)" class="st1 st8 st9">Demencia</text>
			<text transform="matrix(1 0 0 1 119.2378 224.7769)" class="st1 st8 st9">Deterioro cognitivo</text>
			<text transform="matrix(1 0 0 1 119.2378 260.7769)" class="st1 st8 st9">Enfermedades </text>
			<text transform="matrix(1 0 0 1 119.2378 284.7769)" class="st1 st8 st9">neurodegenerativas</text>
			<text transform="matrix(1 0 0 1 119.2378 320.7769)" class="st1 st8 st9">Problemas de salud mental</text>
			<text transform="matrix(1 0 0 1 119.2378 356.7769)" class="st1 st8 st9">Ictus</text>
			<text transform="matrix(1 0 0 1 119.2378 392.7769)" class="st1 st8 st9">Enfermedades cerebrovasculares</text>
			<text transform="matrix(1 0 0 1 119.2378 428.877)" class="st1 st8 st9">Autismo y problemas de </text>
			<text transform="matrix(1 0 0 1 119.2378 452.877)" class="st1 st8 st9">conducta en niños</text>
			<text transform="matrix(1 0 0 1 119.2378 488.877)" class="st8 st9">Tinnitus o sordera</text>
			<text transform="matrix(1 0 0 1 119.2378 524.8771)" class="st8 st9">Reducción del rendimiento </text>
			<text transform="matrix(1 0 0 1 119.2378 548.8771)" class="st8 st9">cognitivo</text>
		</g>
		<circle class="st13" cx="107.9" cy="421.3" r="5.5"/>
		<circle class="st10" cx="107.9" cy="480.9" r="5.5"/>
		<circle class="st12" cx="107.9" cy="517.3" r="5.5"/>
		<g>
			<circle class="st13" cx="107.9" cy="348.8" r="5.5"/>
			<circle class="st11" cx="80.2" cy="348.8" r="5.5"/>
			<circle class="st10" cx="94.1" cy="348.8" r="5.5"/>
		</g>
		<g>
			<circle class="st13" cx="107.9" cy="180.8" r="5.5"/>
			<circle class="st11" cx="94.1" cy="180.8" r="5.5"/>
		</g>
		<g>
			<circle class="st13" cx="107.9" cy="252.9" r="5.5"/>
			<circle class="st11" cx="94.1" cy="252.9" r="5.5"/>
		</g>
		<g>
			<circle class="st10" cx="107.9" cy="385" r="5.5"/>
			<circle class="st11" cx="94.1" cy="385" r="5.5"/>
		</g>
		<g>
			<circle class="st10" cx="107.9" cy="217.5" r="5.5"/>
			<circle class="st11" cx="94.1" cy="217.5" r="5.5"/>
		</g>
		<circle class="st14" cx="80.2" cy="312.7" r="5.5"/>
		<circle class="st11" cx="94.1" cy="312.7" r="5.5"/>
		<circle class="st13" cx="107.9" cy="312.7" r="5.5"/>
	</g>
	<path class="st15" d="M761.7,96.7c-0.2,0-0.4,0-0.6,0c0.4-1.1,0.6-2.2,0.6-3.4c0-6.1-4.9-11-11-11c-1.2,0-2.4,0.2-3.5,0.6
		c-1.6-7.4-8.1-12.9-15.9-12.9c-5.3,0-10,2.6-13,6.5c-2.6-2.2-5.9-3.6-9.6-3.6c-7.9,0-14.3,6.2-14.7,14c-1.7-0.8-3.6-1.2-5.6-1.2
		c-7.5,0-13.6,6.1-13.6,13.6c0,0.6,0.1,1.2,0.1,1.8c-0.6,1.1-0.9,2.4-0.9,3.7c0,4.5,3.6,8.1,8.1,8.1h79.6c4.5,0,8.1-3.6,8.1-8.1
		C769.8,100.3,766.2,96.7,761.7,96.7z M741.5,99.2H741c0.1-0.1,0.2-0.1,0.3-0.2C741.4,99.1,741.4,99.2,741.5,99.2z"/>
	<g>
		<rect x="119.2" y="112.5" class="st7" width="283.7" height="41.9"/>
		<text transform="matrix(1 0 0 1 119.2383 136.6192)" class="st1 st8 st16">Cabeza</text>
	</g>
	<line class="st17" x1="731.7" y1="90.1" x2="119.2" y2="88.4"/>
</g>
<g id="Arteries">
	<g>
		<path class="st18" d="M890.1,761.3c0,0,20.9-17.7,20.3-35.7c-1.6-43.9,1.6-76-1.6-100.3c-8-60.9-24.9-73-27.9-100.5
			c-2.6-23.1,5-164.8-13-199.7c-19.1-36.9-65.2-41.5-97.4-33c-22.8,6-28.3,24.1-30.4,35.6c-1.6,8.8-1.8,16.5,2.7,35.8"/>
		<path class="st18" d="M821.3,291c23.7,6.2,25.7,29.3,27.5,56.9s33.3,135.3,30.9,171.2c-2.4,35.9-1.1,91.7,6.5,115.8
			s21.6,54.8,23.8,80.9"/>
		<path class="st18" d="M555,761.3c0,0-20.9-17.7-20.3-35.7c1.6-43.9-1.6-76,1.6-100.3c8-60.9,24.9-73,27.9-100.5
			c2.6-23.1-5-164.8,13-199.7c19.1-36.9,65.2-41.5,97.4-33c22.8,6,47.4,21.8,51.6,35.6c2.6,8.6,8.6,16.5,4.2,35.8"/>
		<path class="st18" d="M623.8,291c-23.7,6.2-25.7,29.3-27.5,56.9S563,483.2,565.4,519.1s1.1,91.7-6.5,115.8s-21.6,54.8-23.8,80.9"
			/>
		<path class="st18" d="M770.4,292.2c0,0-23.1-47.7-24.2-62.9s13.1-41.3,23.2-68.4c5.7-15.3,5-30.2,3.3-40.3
			c-1.3-7.6-6.4-14-13.5-16.9l-4.6-1.9"/>
		<line class="st18" x1="746.3" y1="225.9" x2="752.1" y2="301.5"/>
		<path class="st18" d="M673.2,291.3c0,0,23.1-46.8,24.2-62c1.1-15.2-13.1-41.3-23.2-68.4c-6.5-17.4-4.7-34.3-2.5-44.1
			c1.2-5.4,4.3-10.1,8.7-13.3l4.8-3.5"/>
		<line class="st18" x1="697.4" y1="225.9" x2="691.5" y2="298.1"/>
		<path class="st18" d="M726.1,411.8c0,0-3.9,223.5,0.4,234.6c4.3,11.1,78.3,67.9,82.1,115c8.8,108-27.9,228.6-29.6,234.1
			c-6.6,21.4,19,145.2,13.3,195.2s-26.4,117.2-29.7,141.5s-5.6,54.3-5.6,54.3"/>
		<path class="st18" d="M755.2,677c13,13.8,18.6,46.7,16.4,84.3c-2.1,37.6,8.4,197.7,2.4,249.2s-18.1,154.4-14.2,193
			s7.1,90.2,2.9,128.7"/>
		<path class="st18" d="M725,642.9c-4.3,11.1-86.7,71.3-90.5,118.4c-8.8,108,27.9,228.6,29.6,234.1c6.6,21.4-19,145.2-13.3,195.2
			s26.4,117.2,29.7,141.5c3.2,24.3,5.6,54.3,5.6,54.3"/>
		<path class="st18" d="M688.4,679.1c-13,13.8-19,44.6-16.9,82.2c2.1,37.6-8.4,197.7-2.4,249.2s18.1,154.4,14.2,193
			c-3.9,38.6-7.1,90.2-2.9,128.7"/>
	</g>
	<g>
		<circle class="st11" cx="1349.6" cy="1162.5" r="5.5"/>
		<circle class="st10" cx="1335.7" cy="1162.5" r="5.5"/>
		<circle class="st13" cx="1335.7" cy="1199" r="5.5"/>
		<g>
			<rect x="965.4" y="1151.2" class="st7" width="357.8" height="133.5"/>
			<text transform="matrix(1 0 0 1 1180.1821 1168.7068)" class="st1 st8 st9">Hipertensión</text>
			<text transform="matrix(1 0 0 1 1016.0823 1204.7068)" class="st1 st8 st9">Trombosis venosa profunda</text>
		</g>
		<g>
			<rect x="938" y="1092.7" class="st7" width="385.2" height="59.8"/>
			<text transform="matrix(1 0 0 1 1182.3862 1116.8665)" class="st1 st8 st16">Arterias  </text>
		</g>
		<line class="st17" x1="1323.2" y1="1069" x2="783.5" y2="1067.3"/>
	</g>
</g>
<g id="b-General">
	<path class="st15" d="M721.4,547.9L721.4,547.9H632c0,0-37.7,73.6-37.7,121.7c0,49.9,0,74.5,0,74.5c0,106.7,41.7,221.9,41.7,251
		c0,0.4,0,0.8,0.1,1.2c-0.7,10.7-6.3,93.2-6.3,122c0,86.7,27.4,191.7,27.4,191.7h0.1c0,0-8.9,65.7-7.9,95c0.1,2.3,2.4,6,4.9,9.3
		c3.8,5,9.7,7.8,15.9,7.8H700c7,0,12.4-6.1,11.4-13.1l-13.1-99l14.9-315V744h8.2l0,0h8.2v251l14.9,314.8l-13.1,99
		c-0.9,6.9,4.5,13.1,11.4,13.1h29.7c6.2,0,12.1-2.8,15.9-7.8c2.5-3.3,4.9-7,4.9-9.3c1-29.2-7.9-95-7.9-95h0.1
		c0,0,27.4-105,27.4-191.7c0-28.8-5.6-111.3-6.3-122c0.1-0.4,0.1-0.8,0.1-1.2c0-29.1,41.7-144.2,41.7-251c0,0,0-24.5,0-74.5
		c0-48.1-37.7-121.7-37.7-121.7h-89.3L721.4,547.9L721.4,547.9z"/>
	<path class="st15" d="M914.4,588.2c-3.2-29.6-9.6-51.5-12.1-73.1l-18.5-195.9l-0.6,0.1c-4.6-29.9-30.5-52.8-61.7-52.8h-10.8l0,0
		h-20.3c-18.8-2.1-33.5-18.1-33.5-37.5l-0.2,0.3V213c8.6-9.3,14.9-21.9,19.1-36c0.4,0.3,0.9,0.5,1.4,0.6c4.4,0.6,9.3-9.5,11.1-22.5
		s-0.4-24-4.7-24.6c-0.3,0-0.5,0-0.8,0c0.7-42.2-17.2-74.5-60-74.1c-0.4,0-0.7,0-1,0s-0.7,0-1,0c-42.8-0.4-60.7,31.9-60,74.1
		c-0.3,0-0.5,0-0.8,0c-4.4,0.6-6.5,11.6-4.7,24.6s6.7,23.1,11.1,22.5c0.5-0.1,1-0.3,1.4-0.6c4.2,14.1,10.4,26.7,19.1,36v16.2
		l-0.2-0.3c0,19.4-14.6,35.4-33.5,37.5h-20.9l0,0h-10.8c-33.7,0-61.1,26.7-62.4,60.1l-17.8,188.6c-2.5,21.5-8.9,43.4-12.1,73.1
		c-3.6,33.3-4.8,133.9-4.8,133.9v41.4c0,8.9,2.7,17.6,7.9,24.9l32.9,46.8c2.7,3.9,8,4.9,11.9,2.3c3.7-2.4,5-7.1,3.1-11.1l-20.4-42.3
		l2.8-15.3l14.6,28.8c0.7,1.3,2.2,2,3.7,1.6s2.5-1.9,2.3-3.4l-3.1-27.7c-0.8-7.2-3.3-14.1-7.4-20.1l-21.2-22.9l33.7-182.5L605,388
		v2.9c0,21.7,10.8,40.9,27.4,52.5v104.3h178.7V443.6c16.5-11.6,27.4-30.8,27.4-52.5v-2.9h0.6l19.8,154.6l33.7,182.5l-21.2,22.9
		c-4,6-6.6,12.9-7.4,20.1l-3.1,27.7c-0.2,1.6,0.8,3,2.3,3.4c1.4,0.4,3-0.3,3.7-1.6l14.6-28.8l2.8,15.3l-20.4,42.3
		c-1.9,3.9-0.6,8.7,3.1,11.1l0,0c3.9,2.6,9.2,1.6,11.9-2.3l32.9-46.8c5.1-7.3,7.9-16,7.9-24.9v-41.4
		C919.2,722.2,918,621.5,914.4,588.2z"/>
</g>
<g id="b-Pit">
	<path class="st15" d="M716.9,380.8c1.2-2.2,5.3-9.1,6.9-10.2c1.5-1.1-1.7-6.6,0.6-12.4c3.5-8.4,6.7-9.6,7.2-11
		c0.4-1.4-3.6-7.4-3.3-6.8l-5.8-5.8L712.2,345v46.1h-0.3c0.2,1.3,0.3,2.5,0.3,3.9c0,12.4-10,22.4-22.4,22.4c-2.7,0-5.3-0.5-7.7-1.3
		c-3.9,8.4-12.3,14.1-22.2,14.1c-13.5,0-24.4-10.9-24.4-24.4c0-2.3,0.3-4.5,0.9-6.6l0,0c13.1-51.8,52.8-79,53.6-79.5
		c2.3-1.9,5.3-3.1,8.6-3.1c5.6,0,10.5,3.5,12.5,8.4l3.9-3.9v-35.7c-1.7-5.1-5.1-9.6-9.7-12.6c-3.9-2.5-8.4-3.9-13.1-3.9H686
		c-7.9,0.5-12.9,3.1-16,7.1c-21.4,27.7-48.6,65-55.8,114.3c-0.2,1.2-0.2,2.6,0,4c0,0.4,0,0.8,0,1.2c0,30.1,24.4,54.6,54.6,54.6
		c24.3,0,44.9-15.9,51.9-37.8C714.8,403.7,711,392,716.9,380.8z"/>
	<path class="st15" d="M830.8,390.2c-7.2-49.3-34.4-86.6-55.8-114.3c-3.1-4-8.1-6.6-16-7.1h-6.3c-4.6,0-9.2,1.3-13.1,3.9l0,0
		c-4.6,3-8,7.5-9.7,12.6V321l3.9,3.9c2-4.9,6.9-8.4,12.5-8.4c3.3,0,6.3,1.2,8.6,3.1c0.8,0.6,40.6,27.7,53.6,79.5
		c0.6,2.1,0.9,4.3,0.9,6.6c0,13.5-10.9,24.4-24.4,24.4c-2.6,0-5.1-0.4-7.4-1.2c-6.4,7.6-15.9,5.4-23.2,2.3c-5.9-2.6-15-2.8-24.3-9.3
		c-0.9-0.6-1.9-1.4-2.8-2.3c8.9,18,27.5,30.3,48.9,30.3c30.1,0,54.6-24.4,54.6-54.6c0-0.4,0-0.8,0-1.2
		C831,392.8,831,391.4,830.8,390.2z"/>
</g>
<path id="b-AparellRespiratori" class="st15" d="M808.6,399.2c-13.1-51.8-52.8-79-53.6-79.5c-2.3-1.9-5.3-3.1-8.6-3.1
	c-5.6,0-10.5,3.5-12.5,8.4l-3.9-4v-51.8h-14.9V321l-3.9,3.9c-2-4.9-6.9-8.4-12.5-8.4c-3.3,0-6.3,1.2-8.6,3.1
	c-0.8,0.6-40.6,27.7-53.6,79.5l0,0c-0.6,2.1-0.9,4.3-0.9,6.6c0,13.5,10.9,24.4,24.4,24.4c9.8,0,18.3-5.8,22.2-14.1
	c2.4,0.9,5,1.3,7.7,1.3c12.4,0,22.4-10,22.4-22.4c0-1.3-0.1-2.6-0.3-3.9h0.3v-46l10.3-10.3l5.8,5.8c-0.4-0.6-0.6-1-0.6-1
	s4.2-2.7,4.2-2.3c0,0.4,2.2,5.5,4.3,7.3c0.8,0.7,1.2,0,1.6-0.1c1.2-0.5-0.7-9.8-0.7-9.8l4.4-0.5c0,0,0.2,8.6,0.8,9.6s1.2,0,1.5-0.2
	s2.2-8.3,2.2-8.3c1.3-0.4,4.5,1.4,4.5,1.4c-0.5,0.7-2.1,8.8-2.1,8.8c6.9,5,5.9,14.6,5.9,14.6c2.5-4,3.5-7.7,3.5-7.7
	c1.7-0.5,4.4,1.7,4.4,1.7c-0.2,3.2-4.3,7.6-2.3,7.3c1.9-0.3,5.8,0.9,5.8,0.9l-1,4c0,0-3.2-1-6,0.3s-3.4,4.3-2,5
	c2.6,1.4,8.3,4.9,13.8,12.6c1.7,2.4,5.2,8.9,8.1,17.8c5.1,15.6,1,24.1,1,24.1c-0.6,1.1-1.3,2.1-2.1,3c2.3,0.8,4.9,1.2,7.5,1.2
	c13.5,0,24.4-10.9,24.4-24.4C809.5,403.5,809.2,401.3,808.6,399.2z"/>
<path id="b-Cor" class="st15" d="M727.3,340.4c0,0,4.3,6.4,3.8,7.8c-0.4,1.4-3.7,2.6-7.2,11c-2.3,5.8,0.9,11.3-0.6,12.4
	c-1.6,1.1-5.7,7.9-6.9,10.2c-8.9,16.7,4,34.6,13.3,41.2c9.3,6.5,18.4,6.7,24.3,9.3c8.2,3.5,19,5.8,25.3-5.3c0,0,4.1-8.5-1-24.1
	c-2.9-8.9-6.4-15.4-8.1-17.8c-5.5-7.7-11.2-11.2-13.8-12.6c-1.4-0.7-0.8-3.8,2-5c2.8-1.3,6-0.3,6-0.3l1-4c0,0-3.9-1.3-5.8-0.9
	c-1.9,0.3,2.1-4.2,2.3-7.3c0,0-2.7-2.3-4.4-1.7c0,0-1,3.7-3.5,7.7c0,0,1-9.6-5.9-14.6c0,0,1.6-8.1,2.1-8.8c0,0-3.2-1.7-4.5-1.4
	c0,0-1.9,8.1-2.2,8.3c-0.3,0.2-0.9,1.2-1.5,0.2s-0.8-9.6-0.8-9.6l-4.4,0.5c0,0,1.9,9.3,0.7,9.8c-0.4,0.2-0.8,0.8-1.6,0.1
	c-2.1-1.8-4.3-6.9-4.3-7.3C731.5,337.7,727.3,340.4,727.3,340.4z"/>
<path id="b-AparellReproductor" class="st15" d="M722.1,715.9L722.1,715.9c-30.3,0-54.9-24.6-54.9-54.9v-61.7
	c0-30.3,24.6-54.9,54.9-54.9l0,0c30.3,0,54.9,24.6,54.9,54.9V661C777,691.4,752.4,715.9,722.1,715.9z"/>
<path id="b-Cap" class="st15" d="M761.7,96.7c-0.2,0-0.4,0-0.6,0c0.4-1.1,0.6-2.2,0.6-3.4c0-6.1-4.9-11-11-11
	c-1.2,0-2.4,0.2-3.5,0.6c-1.6-7.4-8.1-12.9-15.9-12.9c-5.3,0-10,2.6-13,6.5c-2.6-2.2-5.9-3.6-9.6-3.6c-7.9,0-14.3,6.2-14.7,14
	c-1.7-0.8-3.6-1.2-5.6-1.2c-7.5,0-13.6,6.1-13.6,13.6c0,0.6,0.1,1.2,0.1,1.8c-0.6,1.1-0.9,2.4-0.9,3.7c0,4.5,3.6,8.1,8.1,8.1h79.6
	c4.5,0,8.1-3.6,8.1-8.1C769.8,100.3,766.2,96.7,761.7,96.7z M741.5,99.2H741c0.1-0.1,0.2-0.1,0.3-0.2
	C741.4,99.1,741.4,99.2,741.5,99.2z"/>
<g id="b-Arteries">
	<path class="st18" d="M890.1,761.3c0,0,20.9-17.7,20.3-35.7c-1.6-43.9,1.6-76-1.6-100.3c-8-60.9-24.9-73-27.9-100.5
		c-2.6-23.1,5-164.8-13-199.7c-19.1-36.9-65.2-41.5-97.4-33c-22.8,6-28.3,24.1-30.4,35.6c-1.6,8.8-1.8,16.5,2.7,35.8"/>
	<path class="st18" d="M821.3,291c23.7,6.2,25.7,29.3,27.5,56.9s33.3,135.3,30.9,171.2c-2.4,35.9-1.1,91.7,6.5,115.8
		s21.6,54.8,23.8,80.9"/>
	<path class="st18" d="M555,761.3c0,0-20.9-17.7-20.3-35.7c1.6-43.9-1.6-76,1.6-100.3c8-60.9,24.9-73,27.9-100.5
		c2.6-23.1-5-164.8,13-199.7c19.1-36.9,65.2-41.5,97.4-33c22.8,6,47.4,21.8,51.6,35.6c2.6,8.6,8.6,16.5,4.2,35.8"/>
	<path class="st18" d="M623.8,291c-23.7,6.2-25.7,29.3-27.5,56.9S563,483.2,565.4,519.1s1.1,91.7-6.5,115.8s-21.6,54.8-23.8,80.9"/>
	<path class="st18" d="M770.4,292.2c0,0-23.1-47.7-24.2-62.9s13.1-41.3,23.2-68.4c5.7-15.3,5-30.2,3.3-40.3
		c-1.3-7.6-6.4-14-13.5-16.9l-4.6-1.9"/>
	<line class="st18" x1="746.3" y1="225.9" x2="752.1" y2="301.5"/>
	<path class="st18" d="M673.2,291.3c0,0,23.1-46.8,24.2-62c1.1-15.2-13.1-41.3-23.2-68.4c-6.5-17.4-4.7-34.3-2.5-44.1
		c1.2-5.4,4.3-10.1,8.7-13.3l4.8-3.5"/>
	<line class="st18" x1="697.4" y1="225.9" x2="691.5" y2="298.1"/>
	<path class="st18" d="M726.1,411.8c0,0-3.9,223.5,0.4,234.6c4.3,11.1,78.3,67.9,82.1,115c8.8,108-27.9,228.6-29.6,234.1
		c-6.6,21.4,19,145.2,13.3,195.2s-26.4,117.2-29.7,141.5s-5.6,54.3-5.6,54.3"/>
	<path class="st18" d="M755.2,677c13,13.8,18.6,46.7,16.4,84.3c-2.1,37.6,8.4,197.7,2.4,249.2s-18.1,154.4-14.2,193
		s7.1,90.2,2.9,128.7"/>
	<path class="st18" d="M725,642.9c-4.3,11.1-86.7,71.3-90.5,118.4c-8.8,108,27.9,228.6,29.6,234.1c6.6,21.4-19,145.2-13.3,195.2
		s26.4,117.2,29.7,141.5c3.2,24.3,5.6,54.3,5.6,54.3"/>
	<path class="st18" d="M688.4,679.1c-13,13.8-19,44.6-16.9,82.2c2.1,37.6-8.4,197.7-2.4,249.2s18.1,154.4,14.2,193
		c-3.9,38.6-7.1,90.2-2.9,128.7"/>
</g>
</svg>
