<?xml version="1.0" encoding="utf-8"?>
<!-- Generator: Adobe Illustrator 19.0.0, SVG Export Plug-In . SVG Version: 6.00 Build 0)  -->
<svg version="1.1" id="Capa_1" xmlns="http://www.w3.org/2000/svg" xmlns:xlink="http://www.w3.org/1999/xlink" x="0px" y="0px"
	 viewBox="570 -225.3 1440 1451.3" style="enable-background:new 570 -225.3 1440 1451.3;" xml:space="preserve">
<style type="text/css">
	.st0{fill:#F4F4F4;}
	.st1{fill:#181716;}
	.st2{fill:#FCD7A6;}
	.st3{fill:#FBE2E0;}
	.st4{fill:#F29700;}
	.st5{fill:#F8D2D0;}
	.st6{fill:none;stroke:#F0A0A0;stroke-width:6.0028;stroke-linecap:round;stroke-miterlimit:10;}
	.st7{fill:#F0A0A0;}
	.st8{fill:none;}
	.st9{enable-background:new    ;}
	.st10{fill:none;stroke:#181716;stroke-width:1.5003;stroke-miterlimit:10;}
</style>
<g id="bg">
	<rect x="570" y="-226" class="st0" width="1440" height="1452.7"/>
	<rect x="570" y="1019.3" class="st1" width="1440" height="207.3"/>
</g>
<g id="Cos">
	<g>
		<g>
			<path class="st2" d="M1291.9-169.2c-0.4,0-0.7,0-1,0s-0.7,0-1,0c-44.9-0.4-62.4,35.1-59.8,80.4c2.5,44.3,19.6,91.2,60.6,92.1l0,0
				c0.1,0,0.2,0,0.3,0s0.2,0,0.3,0l0,0c41-0.9,58.1-47.8,60.6-92.1C1354.3-134,1336.8-169.6,1291.9-169.2z"/>
			<g>
				
					<ellipse transform="matrix(-0.1335 0.991 -0.991 -0.1335 1458.9559 -1418.7792)" class="st2" cx="1349.7" cy="-71.6" rx="23.8" ry="8"/>
				
					<ellipse transform="matrix(-0.991 0.1335 -0.1335 -0.991 2443.7334 -306.7161)" class="st2" cx="1232.1" cy="-71.4" rx="8" ry="23.8"/>
			</g>
			<rect x="1255.8" y="-28.9" class="st2" width="70.1" height="73.1"/>
			<g>
				<path class="st2" d="M1303.7,77.2l-48.1-73.8l0,0c0,20.9-16.9,37.8-37.8,37.8l0,0L1303.7,77.2z"/>
				<path class="st2" d="M1278,77.2l48.1-73.8l0,0c0,20.9,16.9,37.8,37.8,37.8l0,0L1278,77.2z"/>
			</g>
		</g>
		<g>
			<rect x="1201.2" y="40.9" class="st2" width="178.7" height="281.4"/>
			<path class="st2" d="M1173.8,79.4h233.4v86.2c0,35.4-28.7,64-64,64h-105.3c-35.4,0-64-28.7-64-64L1173.8,79.4L1173.8,79.4z"/>
			<path class="st2" d="M1128,162.6h325.1v-59.3c0-34.5-28-62.4-62.4-62.4h-200.3c-34.5,0-62.4,28-62.4,62.4V162.6z"/>
			<path class="st2" d="M1379.9,322.3h-89.4v196.1h127.1c0,0,0-24.5,0-74.5C1417.6,395.9,1379.9,322.3,1379.9,322.3z"/>
			<path class="st2" d="M1201.2,322.3h89.4v196.1h-127.1c0,0,0-24.5,0-74.5C1163.5,395.9,1201.2,322.3,1201.2,322.3z"/>
			<g>
				<path class="st2" d="M1375.9,769.4c0,19.3-77.1,0-77.1,0v-251c0,0,118.8-29.7,118.8,0C1417.6,625.2,1375.9,740.3,1375.9,769.4z"
					/>
				<path class="st2" d="M1354.7,1084.3h-41l-14.9-314.8h76.9c0,0,6.4,92.3,6.4,123.2C1382.1,979.3,1354.7,1084.3,1354.7,1084.3z"/>
				<path class="st2" d="M1362.5,1179.3c-0.1,2.3-2.4,6-4.9,9.3c-3.8,5-9.7,7.8-15.9,7.8H1312c-7,0-12.4-6.1-11.4-13.1l13.1-99h41
					C1354.6,1084.3,1363.6,1150,1362.5,1179.3z"/>
			</g>
			<g>
				<path class="st2" d="M1205.2,769.4c0,19.3,77.1,0,77.1,0v-251c0,0-118.8-29.7-118.8,0C1163.5,625.2,1205.2,740.3,1205.2,769.4z"
					/>
				<path class="st2" d="M1226.4,1084.3h41l14.9-314.8h-76.9c0,0-6.4,92.3-6.4,123.2C1199,979.3,1226.4,1084.3,1226.4,1084.3z"/>
				<path class="st2" d="M1218.5,1179.3c0.1,2.3,2.4,6,4.9,9.3c3.8,5,9.7,7.8,15.9,7.8h29.7c7,0,12.4-6.1,11.4-13.1l-13.1-99h-41
					C1226.4,1084.3,1217.5,1150,1218.5,1179.3z"/>
			</g>
			<polygon class="st2" points="1473.5,311.9 1427.6,317.2 1399.8,99.9 1452.9,93.7 			"/>
			<path class="st2" d="M1488.3,496.6l-27,3.1l-33.7-182.5c0,0,42.4-39.8,43.8-27.7c2.5,21.5,8.9,43.4,12.1,73.1
				C1487.1,395.9,1488.3,496.6,1488.3,496.6z"/>
			<path class="st2" d="M1488.3,496.6V538c0,8.9-2.7,17.6-7.9,24.9l-32.9,46.8c-2.7,3.9-8,4.9-11.9,2.3l0,0c-3.7-2.4-5-7.1-3.1-11.1
				l20.4-42.3l-2.8-15.3l-14.6,28.8c-0.7,1.3-2.2,2-3.7,1.6l0,0c-1.5-0.4-2.5-1.9-2.3-3.4l3.1-27.7c0.8-7.2,3.3-14.1,7.4-20.1
				l21.2-22.9L1488.3,496.6z"/>
			<g>
				<polygon class="st2" points="1108.1,311.9 1154,317.2 1181.9,99.9 1128.7,93.7 				"/>
				<path class="st2" d="M1093.3,496.6l27,3.1l33.7-182.5c0,0-42.4-39.8-43.8-27.7c-2.5,21.5-8.9,43.4-12.1,73.1
					C1094.6,395.9,1093.3,496.6,1093.3,496.6z"/>
				<path class="st2" d="M1093.3,496.6V538c0,8.9,2.7,17.6,7.9,24.9l32.9,46.8c2.7,3.9,8,4.9,11.9,2.3l0,0c3.7-2.4,5-7.1,3.1-11.1
					l-20.4-42.3l2.8-15.3l14.6,28.8c0.7,1.3,2.2,2,3.7,1.6l0,0c1.5-0.4,2.5-1.9,2.3-3.4l-3.1-27.7c-0.8-7.2-3.3-14.1-7.4-20.1
					l-21.2-22.9L1093.3,496.6z"/>
			</g>
		</g>
	</g>
	<g>
		<g>
			<path class="st3" d="M1308.4,47.6L1308.4,47.6c3.9-2.5,8.4-3.9,13.1-3.9h6.3c7.9,0.5,12.9,3.1,16,7.1
				c21.4,27.7,48.6,65,55.8,114.3c1.7,11.9-15.2,35.7-19.8,39.1c-55.8,41.5-87.2-27.9-87.2-27.9l5-109.7
				C1297.9,58.8,1301.9,51.8,1308.4,47.6z"/>
			<circle class="st3" cx="1344.9" cy="170.3" r="54.6"/>
		</g>
		<g>
			<path class="st3" d="M1274.1,47.6L1274.1,47.6c-3.9-2.5-8.4-3.9-13.1-3.9h-6.3c-7.9,0.5-12.9,3.1-16,7.1
				c-21.4,27.7-48.6,65-55.8,114.3c-1.7,11.9,15.2,35.7,19.8,39.1c55.8,41.5,87.2-27.9,87.2-27.9l17.6-99L1285,66.5
				C1284.6,58.8,1280.6,51.8,1274.1,47.6z"/>
			<circle class="st3" cx="1237.5" cy="170.3" r="54.6"/>
		</g>
	</g>
	<path class="st4" d="M1290.8,490L1290.8,490c-30.3,0-54.9-24.6-54.9-54.9v-61.7c0-30.3,24.6-54.9,54.9-54.9l0,0
		c30.3,0,54.9,24.6,54.9,54.9v61.7C1345.7,465.4,1321.1,490,1290.8,490z"/>
	<g>
		<g>
			<g>
				<circle class="st5" cx="1258.5" cy="168.9" r="22.4"/>
				<circle class="st5" cx="1228.7" cy="179.7" r="24.4"/>
				<circle class="st5" cx="1267.4" cy="104.1" r="13.5"/>
				<rect x="1251" y="104.1" class="st5" width="29.9" height="61"/>
				<path class="st5" d="M1205.1,173.1c13.2-52.4,53.6-79.5,53.6-79.5l5.4,70.4C1264.2,164,1201.5,187.6,1205.1,173.1z"/>
			</g>
			<g>
				<circle class="st5" cx="1324" cy="168.9" r="22.4"/>
				<circle class="st5" cx="1353.8" cy="179.7" r="24.4"/>
				<circle class="st5" cx="1315.1" cy="104.1" r="13.5"/>
				<rect x="1301.5" y="104" class="st5" width="29.9" height="61"/>
				<path class="st5" d="M1377.3,173.1c-13.2-52.4-53.6-79.5-53.6-79.5l-5.4,70.4C1318.2,164,1381,187.6,1377.3,173.1z"/>
			</g>
		</g>
		<rect x="1283.8" y="43.2" class="st5" width="14.9" height="56.1"/>
		<g>
			
				<rect x="1301.5" y="87.7" transform="matrix(0.7071 -0.7071 0.7071 0.7071 301.5324 959.4333)" class="st5" width="14.9" height="56.1"/>
			
				<rect x="1266.2" y="87.7" transform="matrix(-0.7071 -0.7071 0.7071 -0.7071 2092.3877 1098.153)" class="st5" width="14.9" height="56.1"/>
		</g>
	</g>
	<g>
		<path class="st6" d="M1458.9,535.3c0,0,20.9-17.7,20.3-35.7c-1.6-43.9,1.6-76-1.6-100.3c-8-60.9-24.9-73-27.9-100.5
			c-2.6-23.1,5-164.8-13-199.7c-19.1-36.9-65.2-41.5-97.4-33c-22.8,6-28.3,24.1-30.4,35.6c-1.6,8.8-1.8,16.5,2.7,35.8"/>
		<path class="st6" d="M1390.1,65.1c23.7,6.2,25.7,29.3,27.5,56.9s33.3,135.3,30.9,171.2c-2.4,35.9-1.1,91.7,6.5,115.8
			s21.6,54.8,23.8,80.9"/>
		<path class="st6" d="M1123.8,535.3c0,0-20.9-17.7-20.3-35.7c1.6-43.9-1.6-76,1.6-100.3c8-60.9,24.9-73,27.9-100.5
			c2.6-23.1-5-164.8,13-199.7c19.1-36.9,65.2-41.5,97.4-33c22.8,6,47.4,21.8,51.6,35.6c2.6,8.6,8.6,16.5,4.2,35.8"/>
		<path class="st6" d="M1192.6,65.1c-23.7,6.2-25.7,29.3-27.5,56.9s-33.3,135.3-30.9,171.2c2.4,35.9,1.1,91.7-6.5,115.8
			c-7.6,24.1-21.6,54.8-23.8,80.9"/>
		<path class="st6" d="M1339.3,66.2c0,0-23.1-47.7-24.2-62.9s13.1-41.3,23.2-68.4c5.7-15.3,5-30.2,3.3-40.3
			c-1.3-7.6-6.4-14-13.5-16.9l-4.6-1.9"/>
		<line class="st6" x1="1315.1" y1="-0.1" x2="1320.9" y2="75.5"/>
		<path class="st6" d="M1242,65.4c0,0,23.1-46.8,24.2-62c1.1-15.2-13.1-41.3-23.2-68.4c-6.5-17.4-4.7-34.3-2.5-44.1
			c1.2-5.4,4.3-10.1,8.7-13.3l4.8-3.5"/>
		<line class="st6" x1="1266.2" y1="-0.1" x2="1260.4" y2="72.1"/>
		<path class="st6" d="M1294.9,185.8c0,0-3.9,223.5,0.4,234.6c4.3,11.1,78.3,67.9,82.1,115c8.8,108-27.9,228.6-29.6,234.1
			c-6.6,21.4,19,145.2,13.3,195.2c-5.7,50-26.4,117.2-29.7,141.5c-3.2,24.3-5.6,54.3-5.6,54.3"/>
		<path class="st6" d="M1324,451c13,13.8,18.6,46.7,16.4,84.3s8.4,197.7,2.4,249.2s-18.1,154.4-14.2,193
			c3.9,38.6,7.1,90.2,2.9,128.7"/>
		<path class="st6" d="M1293.8,417c-4.3,11.1-86.7,71.3-90.5,118.4c-8.8,108,27.9,228.6,29.6,234.1c6.6,21.4-19,145.2-13.3,195.2
			s26.4,117.2,29.7,141.5c3.2,24.3,5.6,54.3,5.6,54.3"/>
		<path class="st6" d="M1257.2,453.1c-13,13.8-19,44.6-16.9,82.2c2.1,37.6-8.4,197.7-2.4,249.2s18.1,154.4,14.2,193
			c-3.9,38.6-7.1,90.2-2.9,128.7"/>
	</g>
	<path class="st7" d="M1296.4,114.5c0,0,4.3,6.4,3.8,7.8c-0.4,1.4-3.7,2.6-7.2,11c-2.3,5.8,0.9,11.3-0.6,12.4
		c-1.6,1.1-5.7,7.9-6.9,10.2c-8.9,16.7,4,34.6,13.3,41.2c9.3,6.5,18.4,6.7,24.3,9.3c8.2,3.5,19,5.8,25.3-5.3c0,0,4.1-8.5-1-24.1
		c-2.9-8.9-6.4-15.4-8.1-17.8c-5.5-7.7-11.2-11.2-13.8-12.6c-1.4-0.7-0.8-3.8,2-5c2.8-1.3,6-0.3,6-0.3l1-4c0,0-3.9-1.3-5.8-0.9
		c-1.9,0.3,2.1-4.2,2.3-7.3c0,0-2.7-2.3-4.4-1.7c0,0-1,3.7-3.5,7.7c0,0,1-9.6-5.9-14.6c0,0,1.6-8.1,2.1-8.8c0,0-3.2-1.7-4.5-1.4
		c0,0-1.9,8.1-2.2,8.3c-0.3,0.2-0.9,1.2-1.5,0.2c-0.6-1-0.8-9.6-0.8-9.6l-4.4,0.5c0,0,1.9,9.3,0.7,9.8c-0.4,0.2-0.8,0.8-1.6,0.1
		c-2.1-1.8-4.3-6.9-4.3-7.3C1300.5,111.8,1296.4,114.5,1296.4,114.5z"/>
	<g>
		<circle class="st4" cx="1257.6" cy="-126.6" r="13.6"/>
		<circle class="st4" cx="1277.8" cy="-138.3" r="14.7"/>
		<circle class="st4" cx="1300.5" cy="-139.7" r="16.3"/>
		<circle class="st4" cx="1251.3" cy="-121.2" r="8.1"/>
		<circle class="st4" cx="1330.9" cy="-121.2" r="8.1"/>
		<circle class="st4" cx="1319.9" cy="-132.6" r="11"/>
		<rect x="1251.3" y="-126.6" class="st4" width="79.6" height="13.6"/>
		<rect x="1276.8" y="-135.7" class="st4" width="14.3" height="17.6"/>
	</g>
	<g>
		<g>
			<rect x="1531.1" y="614.7" class="st8" width="360.9" height="195.4"/>
			<g class="st9">
				<path class="st1" d="M1734.8,620.1c0,0.7-0.1,1.4-0.4,2c-0.2,0.6-0.6,1.1-1,1.5s-0.9,0.7-1.5,0.9c-0.6,0.2-1.3,0.3-2,0.3h-1.9
					v7.5h-2.4v-16.6h4.3c1.6,0,2.8,0.4,3.6,1.1C1734.3,617.5,1734.8,618.6,1734.8,620.1z M1727.9,617.7v5.1h1.8
					c0.8,0,1.5-0.2,1.9-0.7c0.4-0.5,0.6-1.1,0.6-1.9c0-0.8-0.2-1.4-0.6-1.8c-0.4-0.4-1.1-0.7-1.9-0.7H1727.9z"/>
				<path class="st1" d="M1741.6,621.7h-0.6c-0.8,0-1.4,0.2-1.7,0.6c-0.4,0.4-0.5,1-0.5,1.8v8.1h-2.3v-12.8h2.3v1.2
					c0.2-0.4,0.6-0.7,1-0.9s1.1-0.4,1.8-0.3V621.7z"/>
				<path class="st1" d="M1744.2,626.5c0.1,1.2,0.5,2.2,1.2,2.9c0.7,0.7,1.7,1,2.9,1c1,0,1.8-0.2,2.5-0.7s1.1-1.1,1.5-1.8l1.8,0.9
					c-0.2,0.5-0.5,1-0.8,1.4c-0.3,0.4-0.8,0.8-1.2,1.2c-0.5,0.3-1,0.6-1.6,0.8s-1.3,0.3-2.1,0.3c-1,0-1.8-0.2-2.6-0.5
					c-0.8-0.3-1.5-0.8-2.1-1.3s-1-1.3-1.3-2.1c-0.3-0.8-0.5-1.7-0.5-2.7c0-1,0.2-1.9,0.5-2.7s0.7-1.5,1.3-2.1c0.6-0.6,1.2-1.1,2-1.4
					c0.8-0.3,1.6-0.5,2.5-0.5c0.9,0,1.8,0.1,2.6,0.4c0.8,0.3,1.4,0.7,2,1.3c0.5,0.5,1,1.2,1.3,2c0.3,0.8,0.5,1.6,0.5,2.6
					c0,0.1,0,0.3,0,0.5c0,0.2,0,0.4,0,0.6H1744.2z M1748.1,621.1c-1.1,0-1.9,0.3-2.6,0.9c-0.7,0.6-1.1,1.5-1.2,2.6h7.8
					c-0.1-1.1-0.5-1.9-1.2-2.5C1750.1,621.5,1749.2,621.1,1748.1,621.1z"/>
				<path class="st1" d="M1765,632.2h-2.3V624c0-0.8-0.2-1.5-0.5-2s-0.9-0.7-1.6-0.7c-0.8,0-1.3,0.3-1.7,0.8
					c-0.4,0.5-0.6,1.2-0.6,2.1v8.1h-2.3v-12.8h2.3v1.2c0.1-0.1,0.2-0.3,0.4-0.4c0.2-0.2,0.4-0.3,0.6-0.4c0.2-0.1,0.5-0.2,0.8-0.3
					s0.7-0.1,1.1-0.1c0.8,0,1.5,0.2,2,0.5c0.5,0.3,0.9,0.7,1.1,1.2c0.3-0.5,0.7-0.9,1.2-1.2c0.5-0.3,1.2-0.5,2.1-0.5
					c0.7,0,1.4,0.1,1.9,0.3c0.5,0.2,1,0.6,1.3,1s0.6,0.9,0.7,1.4c0.2,0.5,0.2,1.1,0.2,1.7v8.5h-2.3V624c0-0.8-0.2-1.5-0.5-2
					c-0.4-0.5-0.9-0.7-1.7-0.7c-0.7,0-1.3,0.2-1.7,0.7s-0.6,1.1-0.6,1.9V632.2z"/>
				<path class="st1" d="M1773.5,628.1c0-0.6,0.1-1.2,0.3-1.7c0.2-0.5,0.5-1,0.9-1.3c0.4-0.4,0.8-0.7,1.4-0.9
					c0.5-0.2,1.1-0.3,1.8-0.3c0.7,0,1.2,0.1,1.7,0.3c0.4,0.2,0.8,0.4,1,0.6v-1.1c0-0.8-0.2-1.5-0.6-1.9c-0.4-0.4-0.9-0.7-1.7-0.7
					c-0.8,0-1.3,0.2-1.6,0.6c-0.3,0.4-0.5,0.9-0.5,1.4h-2.1c0-0.6,0.1-1.1,0.3-1.6c0.2-0.5,0.5-0.9,0.8-1.2s0.8-0.6,1.3-0.8
					c0.5-0.2,1.2-0.3,1.9-0.3c0.8,0,1.5,0.1,2.1,0.3c0.6,0.2,1,0.5,1.4,0.9c0.4,0.4,0.6,0.9,0.8,1.5s0.3,1.2,0.3,1.9v8.3h-2v-1
					c-0.3,0.4-0.7,0.6-1.2,0.9c-0.5,0.2-1.1,0.3-1.7,0.3c-0.6,0-1.2-0.1-1.7-0.3c-0.5-0.2-1-0.5-1.4-0.9c-0.4-0.4-0.7-0.8-0.9-1.4
					C1773.6,629.4,1773.5,628.8,1773.5,628.1z M1775.7,628.1c0,0.7,0.2,1.3,0.7,1.7c0.4,0.5,1,0.7,1.7,0.7c0.7,0,1.3-0.2,1.8-0.7
					c0.5-0.5,0.7-1,0.7-1.7c0-0.7-0.2-1.3-0.7-1.7s-1.1-0.7-1.8-0.7s-1.3,0.2-1.7,0.7C1775.9,626.9,1775.7,627.4,1775.7,628.1z"/>
				<path class="st1" d="M1787.5,619.4h2.4v1.9h-2.4v7.3c0,0.6,0.1,1,0.3,1.3c0.2,0.3,0.6,0.4,1.2,0.4h0.9v1.9c-0.1,0-0.3,0-0.5,0.1
					s-0.6,0.1-0.9,0.1c-1.2,0-2-0.3-2.5-0.8c-0.5-0.6-0.7-1.4-0.7-2.4v-7.8h-1.3v-1.9h1.3v-2h2.3V619.4z"/>
				<path class="st1" d="M1793.6,627.6c0,0.9,0.2,1.5,0.5,2c0.4,0.5,0.9,0.7,1.7,0.7c0.8,0,1.3-0.3,1.7-0.8c0.4-0.5,0.6-1.2,0.6-2
					v-8.2h2.3v12.8h-2.3v-1.2c-0.2,0.3-0.5,0.6-1,0.9c-0.5,0.3-1.1,0.4-1.9,0.4c-0.7,0-1.3-0.1-1.8-0.3s-0.9-0.6-1.2-1
					s-0.6-0.9-0.7-1.4c-0.1-0.5-0.2-1.1-0.2-1.8v-8.5h2.3V627.6z"/>
				<path class="st1" d="M1807.9,621.7h-0.6c-0.8,0-1.4,0.2-1.7,0.6c-0.4,0.4-0.5,1-0.5,1.8v8.1h-2.3v-12.8h2.3v1.2
					c0.2-0.4,0.6-0.7,1-0.9c0.4-0.2,1.1-0.4,1.8-0.3V621.7z"/>
				<path class="st1" d="M1810.5,626.5c0.1,1.2,0.5,2.2,1.2,2.9c0.7,0.7,1.7,1,2.9,1c1,0,1.8-0.2,2.5-0.7s1.1-1.1,1.5-1.8l1.8,0.9
					c-0.2,0.5-0.5,1-0.8,1.4c-0.3,0.4-0.8,0.8-1.2,1.2c-0.5,0.3-1,0.6-1.6,0.8s-1.3,0.3-2.1,0.3c-1,0-1.8-0.2-2.6-0.5
					c-0.8-0.3-1.5-0.8-2.1-1.3s-1-1.3-1.3-2.1c-0.3-0.8-0.5-1.7-0.5-2.7c0-1,0.2-1.9,0.5-2.7s0.7-1.5,1.3-2.1c0.6-0.6,1.2-1.1,2-1.4
					c0.8-0.3,1.6-0.5,2.5-0.5c0.9,0,1.8,0.1,2.6,0.4c0.8,0.3,1.4,0.7,2,1.3c0.5,0.5,1,1.2,1.3,2c0.3,0.8,0.5,1.6,0.5,2.6
					c0,0.1,0,0.3,0,0.5c0,0.2,0,0.4,0,0.6H1810.5z M1814.4,621.1c-1.1,0-1.9,0.3-2.6,0.9c-0.7,0.6-1.1,1.5-1.2,2.6h7.8
					c-0.1-1.1-0.5-1.9-1.2-2.5C1816.4,621.5,1815.5,621.1,1814.4,621.1z"/>
				<path class="st1" d="M1828.2,632.2h-2.2v-17.5h2.3v6.5c0.2-0.2,0.4-0.5,0.7-0.7c0.3-0.2,0.6-0.5,1-0.6c0.4-0.2,0.8-0.3,1.3-0.5
					s1-0.2,1.5-0.2c1,0,1.8,0.2,2.6,0.5c0.8,0.3,1.5,0.8,2,1.3c0.6,0.6,1,1.3,1.3,2.1c0.3,0.8,0.5,1.7,0.5,2.7
					c0,0.9-0.2,1.8-0.5,2.6c-0.3,0.8-0.8,1.5-1.3,2.1c-0.6,0.6-1.3,1.1-2.1,1.4c-0.8,0.3-1.7,0.5-2.7,0.5c-0.6,0-1.1-0.1-1.5-0.2
					c-0.5-0.1-0.9-0.3-1.3-0.5s-0.7-0.4-1-0.6c-0.3-0.2-0.5-0.4-0.6-0.6V632.2z M1828.2,625.8c0,0.7,0.1,1.3,0.3,1.8
					c0.2,0.6,0.5,1,0.9,1.5s0.8,0.7,1.4,0.9c0.5,0.2,1.1,0.3,1.8,0.3s1.2-0.1,1.8-0.3c0.5-0.2,1-0.5,1.4-0.9s0.7-0.9,0.9-1.5
					c0.2-0.6,0.3-1.2,0.3-1.8c0-0.7-0.1-1.3-0.3-1.8c-0.2-0.6-0.5-1-0.9-1.5c-0.4-0.4-0.8-0.7-1.4-1c-0.5-0.2-1.1-0.3-1.8-0.3
					c-0.7,0-1.2,0.1-1.8,0.3c-0.5,0.2-1,0.6-1.4,1s-0.7,0.9-0.9,1.5C1828.3,624.5,1828.2,625.2,1828.2,625.8z"/>
				<path class="st1" d="M1842.1,618.1c-0.4,0-0.8-0.1-1.1-0.4c-0.3-0.3-0.4-0.7-0.4-1.1c0-0.4,0.1-0.8,0.4-1.1
					c0.3-0.3,0.7-0.4,1.1-0.4s0.8,0.1,1.1,0.4c0.3,0.3,0.5,0.6,0.5,1.1c0,0.4-0.2,0.8-0.5,1.1C1842.9,618,1842.5,618.1,1842.1,618.1
					z M1843.2,632.2h-2.3v-12.8h2.3V632.2z"/>
				<path class="st1" d="M1850.7,621.7h-0.6c-0.8,0-1.4,0.2-1.7,0.6c-0.4,0.4-0.5,1-0.5,1.8v8.1h-2.3v-12.8h2.3v1.2
					c0.2-0.4,0.6-0.7,1-0.9c0.4-0.2,1.1-0.4,1.8-0.3V621.7z"/>
				<path class="st1" d="M1855.1,619.4h2.4v1.9h-2.4v7.3c0,0.6,0.1,1,0.3,1.3c0.2,0.3,0.6,0.4,1.2,0.4h0.9v1.9c-0.1,0-0.3,0-0.5,0.1
					s-0.6,0.1-0.9,0.1c-1.2,0-2-0.3-2.5-0.8c-0.5-0.6-0.7-1.4-0.7-2.4v-7.8h-1.3v-1.9h1.3v-2h2.3V619.4z"/>
				<path class="st1" d="M1866,624c0-0.9-0.2-1.5-0.6-2c-0.4-0.5-0.9-0.7-1.7-0.7c-0.8,0-1.4,0.3-1.8,0.8c-0.4,0.5-0.6,1.2-0.6,2
					v8.2h-2.3v-17.5h2.3v5.9c0.2-0.3,0.5-0.6,1-0.9c0.5-0.3,1.1-0.5,1.9-0.5c0.7,0,1.4,0.1,1.9,0.4s0.9,0.6,1.2,1s0.6,0.9,0.7,1.4
					c0.1,0.5,0.2,1.1,0.2,1.8v8.5h-2.3V624z"/>
			</g>
		</g>
		<g>
			<rect x="1525.3" y="519.1" class="st8" width="366.7" height="123.5"/>
			<g class="st9">
				<path class="st1" d="M1581.5,526.6c0,1.4-0.3,2.6-0.9,3.6c-0.6,1-1.5,1.7-2.6,2.2l5.7,10.9h-3.5l-5.4-10.3h-2.7v10.3h-3.2v-22.8
					h5.9c2.1,0,3.8,0.5,5,1.6C1581,522.9,1581.5,524.5,1581.5,526.6z M1572.2,523.2v7h2.5c1.2,0,2-0.3,2.6-1
					c0.6-0.6,0.9-1.5,0.9-2.6c0-1.1-0.3-1.9-0.9-2.5c-0.6-0.6-1.5-0.9-2.6-0.9H1572.2z"/>
				<path class="st1" d="M1585.3,543.2v-22.8h9.9v3h-6.7v6.6h6.5v3h-6.5v7.2h6.8v3H1585.3z"/>
				<path class="st1" d="M1610.9,526.5c0,1-0.2,1.9-0.5,2.7s-0.8,1.5-1.4,2c-0.6,0.5-1.3,1-2.1,1.3c-0.8,0.3-1.7,0.4-2.7,0.4h-2.7
					v10.3h-3.2v-22.8h5.9c2.1,0,3.8,0.5,5,1.5C1610.3,522.9,1610.9,524.5,1610.9,526.5z M1601.5,523.2v7h2.5c1.2,0,2-0.3,2.6-1
					c0.6-0.6,0.9-1.5,0.9-2.6c0-1.1-0.3-1.9-0.9-2.5c-0.6-0.6-1.5-0.9-2.6-0.9H1601.5z"/>
				<path class="st1" d="M1625.9,526.6c0,1.4-0.3,2.6-0.9,3.6c-0.6,1-1.5,1.7-2.6,2.2l5.7,10.9h-3.5l-5.4-10.3h-2.7v10.3h-3.2v-22.8
					h5.9c2.1,0,3.8,0.5,5,1.6C1625.3,522.9,1625.9,524.5,1625.9,526.6z M1616.5,523.2v7h2.5c1.2,0,2-0.3,2.6-1
					c0.6-0.6,0.9-1.5,0.9-2.6c0-1.1-0.3-1.9-0.9-2.5c-0.6-0.6-1.5-0.9-2.6-0.9H1616.5z"/>
				<path class="st1" d="M1627.9,531.8c0-1.7,0.3-3.3,0.9-4.8c0.6-1.5,1.4-2.7,2.4-3.8s2.3-1.9,3.7-2.5c1.4-0.6,3-0.9,4.7-0.9
					c1.7,0,3.3,0.3,4.8,0.9s2.7,1.4,3.7,2.5c1,1.1,1.8,2.3,2.4,3.8s0.9,3,0.9,4.7s-0.3,3.3-0.9,4.7s-1.4,2.7-2.4,3.8
					c-1,1.1-2.3,1.9-3.7,2.5c-1.4,0.6-3,0.9-4.7,0.9c-1.7,0-3.3-0.3-4.7-0.9c-1.4-0.6-2.7-1.4-3.7-2.5c-1-1.1-1.8-2.3-2.4-3.8
					C1628.2,535.1,1627.9,533.5,1627.9,531.8z M1631.3,531.8c0,1.3,0.2,2.5,0.6,3.6c0.4,1.1,1,2,1.7,2.8c0.7,0.8,1.6,1.4,2.6,1.8
					c1,0.4,2.1,0.7,3.4,0.7c1.3,0,2.4-0.2,3.4-0.7c1-0.4,1.9-1.1,2.6-1.8c0.7-0.8,1.3-1.7,1.7-2.8c0.4-1.1,0.6-2.3,0.6-3.6
					c0-1.3-0.2-2.5-0.6-3.5c-0.4-1.1-1-2-1.7-2.8c-0.7-0.8-1.6-1.4-2.6-1.8c-1-0.4-2.2-0.7-3.4-0.7c-1.3,0-2.4,0.2-3.4,0.7
					c-1,0.4-1.9,1.1-2.6,1.8c-0.7,0.8-1.3,1.7-1.7,2.8C1631.5,529.3,1631.3,530.5,1631.3,531.8z"/>
				<path class="st1" d="M1657.7,520.3c1.8,0,3.5,0.3,4.9,0.8s2.7,1.3,3.7,2.3c1,1,1.8,2.2,2.3,3.6s0.8,3,0.8,4.7
					c0,1.7-0.3,3.3-0.8,4.7s-1.3,2.6-2.3,3.6c-1,1-2.2,1.8-3.7,2.3c-1.5,0.6-3.1,0.8-4.9,0.8h-3.8v-22.8H1657.7z M1657.2,540.3h0.7
					c2.6,0,4.6-0.7,6.1-2.2c1.4-1.5,2.1-3.6,2.1-6.3c0-2.7-0.7-4.8-2.1-6.3c-1.4-1.5-3.4-2.2-6.1-2.2h-0.7V540.3z"/>
				<path class="st1" d="M1680.6,543.6c-1.5,0-2.8-0.2-3.8-0.6c-1.1-0.4-2-1-2.7-1.8c-0.7-0.8-1.2-1.7-1.6-2.9
					c-0.4-1.1-0.5-2.3-0.5-3.7v-14.2h3.2v14.2c0,1.8,0.4,3.3,1.3,4.4s2.2,1.7,4.1,1.7c1.8,0,3.1-0.6,4-1.7c0.9-1.1,1.4-2.6,1.4-4.4
					v-14.2h3.2v14.2c0,1.3-0.2,2.5-0.6,3.6c-0.4,1.1-0.9,2.1-1.7,2.9c-0.7,0.8-1.6,1.4-2.7,1.9
					C1683.2,543.4,1682,543.6,1680.6,543.6z"/>
				<path class="st1" d="M1711.1,540.6c-0.4,0.4-0.8,0.7-1.3,1.1c-0.5,0.4-1.1,0.7-1.7,1c-0.6,0.3-1.3,0.5-2.1,0.7
					c-0.8,0.2-1.6,0.3-2.4,0.3c-1.8,0-3.4-0.3-4.8-0.9c-1.5-0.6-2.7-1.4-3.7-2.5s-1.8-2.3-2.4-3.7c-0.6-1.5-0.8-3-0.8-4.8
					c0-1.7,0.3-3.3,0.9-4.8s1.4-2.7,2.4-3.8s2.3-1.9,3.7-2.5c1.4-0.6,3-0.9,4.8-0.9c1.5,0,2.9,0.2,4.1,0.7s2.3,1.1,3.3,1.9l-1.9,2.4
					c-0.7-0.6-1.5-1.1-2.4-1.4c-0.9-0.4-1.9-0.6-3.1-0.6c-1.3,0-2.4,0.2-3.4,0.7c-1,0.4-1.9,1.1-2.6,1.8c-0.7,0.8-1.3,1.7-1.7,2.8
					c-0.4,1.1-0.6,2.3-0.6,3.5c0,1.3,0.2,2.5,0.6,3.6c0.4,1.1,1,2,1.7,2.8s1.6,1.4,2.7,1.8s2.2,0.7,3.4,0.7c1.3,0,2.4-0.2,3.3-0.7
					c0.9-0.5,1.7-1,2.3-1.5L1711.1,540.6z"/>
				<path class="st1" d="M1720,523.3v19.8h-3.2v-19.8h-4.7v-3h12.6v3H1720z"/>
				<path class="st1" d="M1730.2,543.2h-3.2v-22.8h3.2V543.2z"/>
				<path class="st1" d="M1732,520.3h3.6l7.1,18.8l7.1-18.8h3.4l-8.9,22.8h-3.5L1732,520.3z"/>
				<path class="st1" d="M1755,543.2v-22.8h9.9v3h-6.7v6.6h6.5v3h-6.5v7.2h6.8v3H1755z"/>
				<path class="st1" d="M1775.9,525.8c0,0.8,0.2,1.4,0.6,1.9s0.9,0.9,1.6,1.3c0.7,0.3,1.4,0.6,2.1,0.9c0.7,0.3,1.4,0.6,2.1,1
					c1.2,0.6,2.2,1.4,2.9,2.3c0.7,1,1,2.2,1,3.7c0,1-0.2,1.9-0.5,2.7s-0.8,1.5-1.4,2.1c-0.6,0.6-1.3,1-2.2,1.4s-1.8,0.5-2.9,0.5
					c-1.3,0-2.4-0.2-3.4-0.6c-0.9-0.4-1.6-0.9-2.2-1.6c-0.5-0.7-0.9-1.4-1.2-2.3c-0.2-0.9-0.3-1.8-0.3-2.7h3.1
					c0,0.6,0.1,1.2,0.2,1.7c0.1,0.5,0.4,1,0.7,1.4c0.3,0.4,0.7,0.7,1.2,0.9c0.5,0.2,1.1,0.3,1.8,0.3c1.1,0,2-0.3,2.7-0.9
					c0.7-0.6,1.1-1.5,1.1-2.7c0-0.9-0.2-1.7-0.7-2.2s-1-1-1.8-1.4c-0.7-0.4-1.5-0.7-2.3-1c-0.8-0.3-1.5-0.6-2.3-1
					c-1-0.6-1.8-1.3-2.4-2.2c-0.6-0.9-0.8-2.1-0.8-3.4c0-0.8,0.1-1.6,0.4-2.3c0.3-0.7,0.7-1.4,1.3-1.9c0.6-0.5,1.2-1,2-1.3
					c0.8-0.3,1.7-0.5,2.7-0.5c1.2,0,2.2,0.2,3.1,0.5s1.5,0.8,2,1.4c0.5,0.6,0.9,1.3,1.1,2s0.3,1.6,0.3,2.4h-3c0-1-0.3-1.9-0.9-2.6
					c-0.6-0.7-1.4-1-2.5-1c-1.1,0-1.9,0.3-2.4,0.9C1776.2,524.2,1775.9,524.9,1775.9,525.8z"/>
				<path class="st1" d="M1786,520.3h3.6l4.5,8l4.5-8h3.5l-6.5,11.1v11.8h-3.2v-11.7L1786,520.3z"/>
				<path class="st1" d="M1805.7,525.8c0,0.8,0.2,1.4,0.6,1.9s0.9,0.9,1.6,1.3c0.7,0.3,1.4,0.6,2.1,0.9c0.7,0.3,1.4,0.6,2.1,1
					c1.2,0.6,2.2,1.4,2.9,2.3c0.7,1,1,2.2,1,3.7c0,1-0.2,1.9-0.5,2.7s-0.8,1.5-1.4,2.1c-0.6,0.6-1.3,1-2.2,1.4s-1.8,0.5-2.9,0.5
					c-1.3,0-2.4-0.2-3.4-0.6c-0.9-0.4-1.6-0.9-2.2-1.6c-0.5-0.7-0.9-1.4-1.2-2.3c-0.2-0.9-0.3-1.8-0.3-2.7h3.1
					c0,0.6,0.1,1.2,0.2,1.7c0.1,0.5,0.4,1,0.7,1.4c0.3,0.4,0.7,0.7,1.2,0.9c0.5,0.2,1.1,0.3,1.8,0.3c1.1,0,2-0.3,2.7-0.9
					c0.7-0.6,1.1-1.5,1.1-2.7c0-0.9-0.2-1.7-0.7-2.2s-1-1-1.8-1.4c-0.7-0.4-1.5-0.7-2.3-1c-0.8-0.3-1.5-0.6-2.3-1
					c-1-0.6-1.8-1.3-2.4-2.2c-0.6-0.9-0.8-2.1-0.8-3.4c0-0.8,0.1-1.6,0.4-2.3c0.3-0.7,0.7-1.4,1.3-1.9c0.6-0.5,1.2-1,2-1.3
					c0.8-0.3,1.7-0.5,2.7-0.5c1.2,0,2.2,0.2,3.1,0.5s1.5,0.8,2,1.4c0.5,0.6,0.9,1.3,1.1,2s0.3,1.6,0.3,2.4h-3c0-1-0.3-1.9-0.9-2.6
					c-0.6-0.7-1.4-1-2.5-1c-1.1,0-1.9,0.3-2.4,0.9C1806,524.2,1805.7,524.9,1805.7,525.8z"/>
				<path class="st1" d="M1824.4,523.3v19.8h-3.2v-19.8h-4.7v-3h12.6v3H1824.4z"/>
				<path class="st1" d="M1831.5,543.2v-22.8h9.9v3h-6.7v6.6h6.5v3h-6.5v7.2h6.8v3H1831.5z"/>
				<path class="st1" d="M1858.2,543.2h-3.1l-7.6-18.6v18.6h-3v-22.8h4.7l7.6,18.9l7.6-18.9h4.6v22.8h-3.2v-18.6L1858.2,543.2z"/>
			</g>
			<g class="st9">
				<path class="st1" d="M1746.4,573.2h-8.6l-2.8,7.5h-3.2l8.6-22.8h3.4l9,22.8h-3.4L1746.4,573.2z M1738.9,570.4h6.5l-3.3-8.4
					L1738.9,570.4z"/>
				<path class="st1" d="M1757.6,563.4v17.3h-3.2v-22.8h3.3l11.6,17.5v-17.5h3.2v22.8h-3.3L1757.6,563.4z"/>
				<path class="st1" d="M1779.9,557.8c1.8,0,3.5,0.3,4.9,0.8s2.7,1.3,3.7,2.3s1.8,2.2,2.3,3.6c0.5,1.4,0.8,3,0.8,4.7
					c0,1.7-0.3,3.3-0.8,4.7c-0.5,1.4-1.3,2.6-2.3,3.6c-1,1-2.2,1.8-3.7,2.3c-1.5,0.6-3.1,0.8-4.9,0.8h-3.8v-22.8H1779.9z
					 M1779.4,577.8h0.7c2.6,0,4.6-0.7,6.1-2.2c1.4-1.5,2.1-3.6,2.1-6.3c0-2.7-0.7-4.8-2.1-6.3c-1.4-1.5-3.4-2.2-6.1-2.2h-0.7V577.8z
					"/>
				<path class="st1" d="M1802.6,570.5v10.2h-3.2v-22.8h10v3h-6.8v6.6h6.6v3H1802.6z"/>
				<path class="st1" d="M1812.3,580.7v-22.8h9.9v3h-6.7v6.6h6.5v3h-6.5v7.2h6.8v3H1812.3z"/>
				<path class="st1" d="M1831.9,560.8v19.8h-3.2v-19.8h-4.7v-3h12.6v3H1831.9z"/>
				<path class="st1" d="M1847.5,581.1c-1.5,0-2.8-0.2-3.8-0.6c-1.1-0.4-2-1-2.7-1.8c-0.7-0.8-1.2-1.7-1.6-2.9s-0.5-2.3-0.5-3.7
					v-14.2h3.2v14.2c0,1.8,0.4,3.3,1.3,4.4c0.9,1.1,2.2,1.7,4.1,1.7c1.8,0,3.1-0.6,4-1.7c0.9-1.1,1.4-2.6,1.4-4.4v-14.2h3.2v14.2
					c0,1.3-0.2,2.5-0.6,3.6c-0.4,1.1-0.9,2.1-1.7,2.9c-0.7,0.8-1.6,1.4-2.7,1.9C1850.1,580.9,1848.9,581.1,1847.5,581.1z"/>
				<path class="st1" d="M1862.3,563.3c0,0.8,0.2,1.4,0.6,1.9s0.9,0.9,1.6,1.3c0.7,0.3,1.4,0.6,2.1,0.9c0.7,0.3,1.4,0.6,2.1,1
					c1.2,0.6,2.2,1.4,2.9,2.3c0.7,1,1,2.2,1,3.7c0,1-0.2,1.9-0.5,2.7c-0.3,0.8-0.8,1.5-1.4,2.1c-0.6,0.6-1.3,1-2.2,1.4
					s-1.8,0.5-2.9,0.5c-1.3,0-2.4-0.2-3.4-0.6c-0.9-0.4-1.6-0.9-2.2-1.6c-0.5-0.7-0.9-1.4-1.2-2.3s-0.3-1.8-0.3-2.7h3.1
					c0,0.6,0.1,1.2,0.2,1.7c0.1,0.5,0.4,1,0.7,1.4c0.3,0.4,0.7,0.7,1.2,0.9c0.5,0.2,1.1,0.3,1.8,0.3c1.1,0,2-0.3,2.7-0.9
					c0.7-0.6,1.1-1.5,1.1-2.7c0-0.9-0.2-1.7-0.7-2.2c-0.4-0.5-1-1-1.8-1.4c-0.7-0.4-1.5-0.7-2.3-1c-0.8-0.3-1.5-0.6-2.3-1
					c-1-0.6-1.8-1.3-2.4-2.2c-0.6-0.9-0.8-2.1-0.8-3.4c0-0.8,0.1-1.6,0.4-2.3c0.3-0.7,0.7-1.4,1.3-1.9s1.2-1,2-1.3
					c0.8-0.3,1.7-0.5,2.7-0.5c1.2,0,2.2,0.2,3.1,0.5s1.5,0.8,2,1.4c0.5,0.6,0.9,1.3,1.1,2c0.2,0.8,0.3,1.6,0.3,2.4h-3
					c0-1-0.3-1.9-0.9-2.6c-0.6-0.7-1.4-1-2.5-1c-1.1,0-1.9,0.3-2.4,0.9C1862.5,561.7,1862.3,562.4,1862.3,563.3z"/>
			</g>
		</g>
		<g>
			<rect x="688.4" y="598.1" class="st8" width="538.6" height="128.5"/>
			<g class="st9">
				<path d="M692,615.7h-2.4v-16.6h2.4V615.7z"/>
				<path d="M701.4,607.4c0-0.9-0.2-1.5-0.6-2c-0.4-0.5-0.9-0.7-1.7-0.7c-0.8,0-1.4,0.3-1.8,0.8c-0.4,0.5-0.6,1.2-0.6,2v8.2h-2.3
					v-12.8h2.3v1.2c0.1-0.1,0.2-0.3,0.4-0.4c0.2-0.2,0.4-0.3,0.6-0.4c0.2-0.1,0.5-0.2,0.8-0.3c0.3-0.1,0.7-0.1,1.1-0.1
					c0.7,0,1.4,0.1,1.9,0.4c0.5,0.2,0.9,0.6,1.2,1c0.3,0.4,0.6,0.9,0.7,1.4c0.1,0.5,0.2,1.1,0.2,1.8v8.5h-2.3V607.4z"/>
				<path d="M708.3,615.9c0,0.6-0.1,1.1-0.2,1.6c-0.1,0.5-0.3,0.9-0.6,1.2c-0.3,0.3-0.7,0.6-1.1,0.8c-0.5,0.2-1.1,0.3-1.7,0.3h-0.7
					v-2h0.5c0.4,0,0.6-0.1,0.8-0.2c0.2-0.1,0.4-0.2,0.5-0.4c0.1-0.2,0.2-0.4,0.2-0.6c0-0.2,0.1-0.5,0.1-0.8v-13.1h2.3V615.9z
					 M707.1,601.6c-0.4,0-0.8-0.1-1.1-0.4c-0.3-0.3-0.4-0.7-0.4-1.1c0-0.4,0.1-0.8,0.4-1.1c0.3-0.3,0.7-0.4,1.1-0.4
					c0.4,0,0.8,0.1,1.1,0.4c0.3,0.3,0.5,0.6,0.5,1.1c0,0.4-0.2,0.8-0.5,1.1C707.9,601.4,707.6,601.6,707.1,601.6z"/>
				<path d="M712.9,611.1c0,0.9,0.2,1.5,0.5,2c0.4,0.5,0.9,0.7,1.7,0.7s1.3-0.3,1.7-0.8c0.4-0.5,0.6-1.2,0.6-2v-8.2h2.3v12.8h-2.3
					v-1.2c-0.2,0.3-0.5,0.6-1,0.9s-1.1,0.4-1.9,0.4c-0.7,0-1.3-0.1-1.8-0.3c-0.5-0.2-0.9-0.6-1.2-1c-0.3-0.4-0.6-0.9-0.7-1.4
					c-0.1-0.5-0.2-1.1-0.2-1.8v-8.5h2.3V611.1z"/>
				<path d="M727.2,605.1h-0.6c-0.8,0-1.4,0.2-1.7,0.6c-0.4,0.4-0.5,1-0.5,1.8v8.1h-2.3v-12.8h2.3v1.2c0.2-0.4,0.6-0.7,1-0.9
					s1.1-0.4,1.8-0.3V605.1z"/>
				<path d="M729.9,601.6c-0.4,0-0.8-0.1-1.1-0.4c-0.3-0.3-0.4-0.7-0.4-1.1c0-0.4,0.1-0.8,0.4-1.1c0.3-0.3,0.7-0.4,1.1-0.4
					c0.4,0,0.8,0.1,1.1,0.4c0.3,0.3,0.5,0.6,0.5,1.1c0,0.4-0.2,0.8-0.5,1.1C730.7,601.4,730.3,601.6,729.9,601.6z M731.1,615.7h-2.3
					v-12.8h2.3V615.7z"/>
				<path d="M735.2,609.9c0.1,1.2,0.5,2.2,1.2,2.9c0.7,0.7,1.7,1,2.9,1c1,0,1.8-0.2,2.5-0.7s1.1-1.1,1.5-1.8l1.8,0.9
					c-0.2,0.5-0.5,1-0.8,1.4c-0.3,0.4-0.8,0.8-1.2,1.2c-0.5,0.3-1,0.6-1.6,0.8c-0.6,0.2-1.3,0.3-2.1,0.3c-1,0-1.8-0.2-2.6-0.5
					c-0.8-0.3-1.5-0.8-2.1-1.3s-1-1.3-1.3-2.1c-0.3-0.8-0.5-1.7-0.5-2.7c0-1,0.2-1.9,0.5-2.7c0.3-0.8,0.7-1.5,1.3-2.1
					c0.6-0.6,1.2-1.1,2-1.4c0.8-0.3,1.6-0.5,2.5-0.5c0.9,0,1.8,0.1,2.6,0.4c0.8,0.3,1.4,0.7,2,1.3s1,1.2,1.3,2
					c0.3,0.8,0.5,1.6,0.5,2.6c0,0.1,0,0.3,0,0.5c0,0.2,0,0.4,0,0.6H735.2z M739.1,604.6c-1.1,0-1.9,0.3-2.6,0.9
					c-0.7,0.6-1.1,1.5-1.2,2.6h7.8c-0.1-1.1-0.5-1.9-1.2-2.5C741.1,604.9,740.2,604.6,739.1,604.6z"/>
				<path d="M748.8,606c0,0.8,0.4,1.3,1.3,1.6c0.3,0.1,0.7,0.2,1,0.3s0.7,0.2,1,0.3c0.9,0.3,1.6,0.8,2.1,1.3
					c0.5,0.6,0.7,1.3,0.7,2.4c0,0.6-0.1,1.2-0.3,1.7c-0.2,0.5-0.5,0.9-0.9,1.2c-0.4,0.3-0.9,0.6-1.4,0.7c-0.5,0.2-1.1,0.2-1.7,0.2
					c-0.8,0-1.5-0.1-2.1-0.3c-0.6-0.2-1-0.5-1.3-0.9c-0.3-0.4-0.6-0.8-0.7-1.3s-0.2-1-0.2-1.6h2.2c0,0.3,0,0.6,0.1,0.9
					c0.1,0.3,0.2,0.5,0.4,0.7s0.4,0.4,0.6,0.5s0.6,0.2,1,0.2c0.6,0,1-0.1,1.5-0.4c0.4-0.3,0.6-0.7,0.6-1.3c0-0.5-0.1-0.9-0.4-1.2
					c-0.3-0.3-0.6-0.5-1.1-0.7c-0.4-0.1-0.7-0.2-1.1-0.3c-0.4-0.1-0.8-0.2-1.2-0.4c-0.8-0.4-1.4-0.8-1.8-1.4c-0.4-0.6-0.5-1.2-0.5-2
					c0-0.5,0.1-1,0.3-1.4c0.2-0.4,0.5-0.8,0.8-1.1c0.4-0.3,0.8-0.5,1.3-0.7c0.5-0.2,1-0.3,1.6-0.3c1.3,0,2.3,0.4,3,1.1
					c0.6,0.7,1,1.7,1,2.8h-2.1c0-0.7-0.2-1.2-0.5-1.5s-0.8-0.6-1.4-0.6c-0.5,0-1,0.1-1.3,0.4S748.8,605.5,748.8,606z"/>
				<path d="M763,602.8h2.2v1.9H763v10.9h-2.3v-10.9h-1.3v-1.9h1.3V602c0-0.6,0.1-1.1,0.2-1.6c0.1-0.5,0.3-0.9,0.6-1.2
					c0.3-0.3,0.7-0.6,1.1-0.8c0.5-0.2,1.1-0.3,1.7-0.3h0.8v1.9h-0.6c-0.3,0-0.6,0.1-0.8,0.2c-0.2,0.1-0.4,0.2-0.5,0.4
					c-0.1,0.2-0.2,0.4-0.2,0.6c0,0.2-0.1,0.5-0.1,0.8V602.8z"/>
				<path d="M771.8,605.1h-0.6c-0.8,0-1.4,0.2-1.7,0.6c-0.4,0.4-0.5,1-0.5,1.8v8.1h-2.3v-12.8h2.3v1.2c0.2-0.4,0.6-0.7,1-0.9
					s1.1-0.4,1.8-0.3V605.1z"/>
				<path d="M772.1,609.3c0-1,0.2-1.9,0.5-2.7c0.3-0.8,0.8-1.5,1.4-2.1c0.6-0.6,1.3-1.1,2.1-1.4c0.8-0.3,1.7-0.5,2.6-0.5
					c1,0,1.8,0.2,2.7,0.5s1.5,0.8,2.1,1.4c0.6,0.6,1,1.3,1.4,2.1c0.3,0.8,0.5,1.7,0.5,2.7s-0.2,1.8-0.5,2.7
					c-0.3,0.8-0.8,1.5-1.4,2.1c-0.6,0.6-1.3,1-2.1,1.4c-0.8,0.3-1.7,0.5-2.6,0.5c-1,0-1.8-0.2-2.7-0.5c-0.8-0.3-1.5-0.8-2.1-1.4
					c-0.6-0.6-1-1.3-1.4-2.1C772.3,611.1,772.1,610.2,772.1,609.3z M774.4,609.3c0,0.7,0.1,1.3,0.3,1.8c0.2,0.6,0.5,1,0.9,1.4
					c0.4,0.4,0.8,0.7,1.4,1c0.5,0.2,1.1,0.3,1.7,0.3c0.6,0,1.2-0.1,1.8-0.3c0.5-0.2,1-0.5,1.4-1c0.4-0.4,0.7-0.9,0.9-1.4
					c0.2-0.6,0.3-1.2,0.3-1.8c0-0.7-0.1-1.3-0.3-1.8c-0.2-0.6-0.5-1-0.9-1.5s-0.8-0.7-1.4-1c-0.5-0.2-1.1-0.3-1.7-0.3
					c-0.6,0-1.2,0.1-1.8,0.3c-0.5,0.2-1,0.5-1.4,1c-0.4,0.4-0.7,0.9-0.9,1.5C774.5,608,774.4,608.6,774.4,609.3z"/>
				<path d="M796.1,615.7h-2.3v-8.2c0-0.8-0.2-1.5-0.5-2c-0.4-0.5-0.9-0.7-1.6-0.7c-0.8,0-1.3,0.3-1.7,0.8c-0.4,0.5-0.6,1.2-0.6,2.1
					v8.1h-2.3v-12.8h2.3v1.2c0.1-0.1,0.2-0.3,0.4-0.4c0.2-0.2,0.4-0.3,0.6-0.4c0.2-0.1,0.5-0.2,0.8-0.3s0.7-0.1,1.1-0.1
					c0.8,0,1.5,0.2,2,0.5c0.5,0.3,0.9,0.7,1.1,1.2c0.3-0.5,0.7-0.9,1.2-1.2c0.5-0.3,1.2-0.5,2.1-0.5c0.7,0,1.4,0.1,1.9,0.3
					c0.5,0.2,1,0.6,1.3,1s0.6,0.9,0.7,1.4c0.2,0.5,0.2,1.1,0.2,1.7v8.5h-2.3v-8.3c0-0.8-0.2-1.5-0.5-2c-0.4-0.5-0.9-0.7-1.7-0.7
					c-0.7,0-1.3,0.2-1.7,0.7s-0.6,1.1-0.6,1.9V615.7z"/>
				<path d="M822.1,612.8l3.1-10h2.4l-4.2,12.8h-2.5l-3.2-9.7l-3.2,9.7h-2.5l-4.2-12.8h2.5l3.1,10l3.2-10h2.5L822.1,612.8z"/>
				<path d="M827.7,609.3c0-1,0.2-1.9,0.5-2.7c0.3-0.8,0.8-1.5,1.4-2.1c0.6-0.6,1.3-1.1,2.1-1.4c0.8-0.3,1.7-0.5,2.6-0.5
					c1,0,1.8,0.2,2.7,0.5s1.5,0.8,2.1,1.4s1,1.3,1.4,2.1c0.3,0.8,0.5,1.7,0.5,2.7s-0.2,1.8-0.5,2.7c-0.3,0.8-0.8,1.5-1.4,2.1
					c-0.6,0.6-1.3,1-2.1,1.4c-0.8,0.3-1.7,0.5-2.6,0.5c-1,0-1.8-0.2-2.7-0.5c-0.8-0.3-1.5-0.8-2.1-1.4c-0.6-0.6-1-1.3-1.4-2.1
					C827.8,611.1,827.7,610.2,827.7,609.3z M830,609.3c0,0.7,0.1,1.3,0.3,1.8c0.2,0.6,0.5,1,0.9,1.4c0.4,0.4,0.8,0.7,1.4,1
					c0.5,0.2,1.1,0.3,1.7,0.3c0.6,0,1.2-0.1,1.8-0.3c0.5-0.2,1-0.5,1.4-1c0.4-0.4,0.7-0.9,0.9-1.4c0.2-0.6,0.3-1.2,0.3-1.8
					c0-0.7-0.1-1.3-0.3-1.8c-0.2-0.6-0.5-1-0.9-1.5s-0.8-0.7-1.4-1c-0.5-0.2-1.1-0.3-1.7-0.3c-0.6,0-1.2,0.1-1.8,0.3
					c-0.5,0.2-1,0.5-1.4,1c-0.4,0.4-0.7,0.9-0.9,1.5C830.1,608,830,608.6,830,609.3z"/>
				<path d="M847.8,605.1h-0.6c-0.8,0-1.4,0.2-1.7,0.6c-0.4,0.4-0.5,1-0.5,1.8v8.1h-2.3v-12.8h2.3v1.2c0.2-0.4,0.6-0.7,1-0.9
					s1.1-0.4,1.8-0.3V605.1z"/>
				<path d="M853.9,608.8l5.4,6.9h-2.8l-4.8-6v6h-2.3v-17.5h2.3v10.1l4.7-5.4h2.8L853.9,608.8z"/>
				<path d="M863.7,611.6c0-0.6,0.1-1.2,0.3-1.7c0.2-0.5,0.5-1,0.9-1.3c0.4-0.4,0.8-0.7,1.4-0.9c0.5-0.2,1.1-0.3,1.8-0.3
					c0.7,0,1.2,0.1,1.7,0.3c0.4,0.2,0.8,0.4,1,0.6v-1.1c0-0.8-0.2-1.5-0.6-1.9c-0.4-0.4-0.9-0.7-1.7-0.7c-0.8,0-1.3,0.2-1.6,0.6
					c-0.3,0.4-0.5,0.9-0.5,1.4h-2.1c0-0.6,0.1-1.1,0.3-1.6c0.2-0.5,0.5-0.9,0.8-1.2c0.4-0.3,0.8-0.6,1.3-0.8
					c0.5-0.2,1.2-0.3,1.9-0.3c0.8,0,1.5,0.1,2.1,0.3c0.6,0.2,1,0.5,1.4,0.9c0.4,0.4,0.6,0.9,0.8,1.5c0.2,0.6,0.3,1.2,0.3,1.9v8.3h-2
					v-1c-0.3,0.4-0.7,0.6-1.2,0.9c-0.5,0.2-1.1,0.3-1.7,0.3c-0.6,0-1.2-0.1-1.7-0.3c-0.5-0.2-1-0.5-1.4-0.9
					c-0.4-0.4-0.7-0.8-0.9-1.4C863.8,612.8,863.7,612.2,863.7,611.6z M865.9,611.5c0,0.7,0.2,1.3,0.7,1.7c0.4,0.5,1,0.7,1.7,0.7
					c0.7,0,1.3-0.2,1.8-0.7c0.5-0.5,0.7-1,0.7-1.7c0-0.7-0.2-1.3-0.7-1.7s-1.1-0.7-1.8-0.7c-0.7,0-1.3,0.2-1.7,0.7
					C866.1,610.3,865.9,610.9,865.9,611.5z"/>
				<path d="M882.1,607.4c0-0.9-0.2-1.5-0.6-2c-0.4-0.5-0.9-0.7-1.7-0.7c-0.8,0-1.4,0.3-1.8,0.8s-0.6,1.2-0.6,2v8.2h-2.3v-12.8h2.3
					v1.2c0.1-0.1,0.2-0.3,0.4-0.4s0.4-0.3,0.6-0.4c0.2-0.1,0.5-0.2,0.8-0.3s0.7-0.1,1.1-0.1c0.7,0,1.4,0.1,1.9,0.4s0.9,0.6,1.2,1
					s0.6,0.9,0.7,1.4c0.1,0.5,0.2,1.1,0.2,1.8v8.5h-2.3V607.4z"/>
				<path d="M897.1,613.8c-0.2,0.2-0.4,0.5-0.7,0.7c-0.3,0.3-0.6,0.5-1,0.7s-0.8,0.4-1.3,0.5c-0.5,0.1-1,0.2-1.5,0.2
					c-1,0-1.8-0.2-2.7-0.5c-0.8-0.3-1.5-0.8-2.1-1.4s-1-1.3-1.3-2.1c-0.3-0.8-0.5-1.7-0.5-2.7c0-0.9,0.2-1.8,0.5-2.6
					c0.3-0.8,0.8-1.5,1.3-2.1c0.6-0.6,1.3-1.1,2.1-1.4s1.7-0.5,2.6-0.5c1,0,1.9,0.2,2.6,0.6c0.7,0.4,1.3,0.8,1.7,1.3v-6.3h2.3v17.5
					h-2.2V613.8z M888.4,609.3c0,0.7,0.1,1.3,0.3,1.8c0.2,0.6,0.5,1,0.9,1.5c0.4,0.4,0.8,0.7,1.4,0.9c0.5,0.2,1.1,0.3,1.7,0.3
					c0.6,0,1.2-0.1,1.8-0.3c0.5-0.2,1-0.5,1.4-0.9c0.4-0.4,0.7-0.9,0.9-1.5c0.2-0.6,0.3-1.2,0.3-1.8c0-0.7-0.1-1.3-0.3-1.8
					c-0.2-0.6-0.5-1-0.9-1.5s-0.8-0.7-1.4-1c-0.5-0.2-1.1-0.3-1.8-0.3c-0.6,0-1.2,0.1-1.8,0.3c-0.5,0.2-1,0.6-1.4,1
					s-0.7,0.9-0.9,1.5C888.5,608,888.4,608.6,888.4,609.3z"/>
				<path d="M908,602.8h2.4v1.9H908v7.3c0,0.6,0.1,1,0.3,1.3c0.2,0.3,0.6,0.4,1.2,0.4h0.9v1.9c-0.1,0-0.3,0-0.5,0.1
					s-0.6,0.1-0.9,0.1c-1.2,0-2-0.3-2.5-0.8s-0.7-1.4-0.7-2.4v-7.8h-1.3v-1.9h1.3v-2h2.3V602.8z"/>
				<path d="M917.1,605.1h-0.6c-0.8,0-1.4,0.2-1.7,0.6c-0.4,0.4-0.5,1-0.5,1.8v8.1H912v-12.8h2.3v1.2c0.2-0.4,0.6-0.7,1-0.9
					s1.1-0.4,1.8-0.3V605.1z"/>
				<path d="M917.7,611.6c0-0.6,0.1-1.2,0.3-1.7c0.2-0.5,0.5-1,0.9-1.3c0.4-0.4,0.8-0.7,1.4-0.9c0.5-0.2,1.1-0.3,1.8-0.3
					c0.7,0,1.2,0.1,1.7,0.3c0.4,0.2,0.8,0.4,1,0.6v-1.1c0-0.8-0.2-1.5-0.6-1.9c-0.4-0.4-0.9-0.7-1.7-0.7c-0.8,0-1.3,0.2-1.6,0.6
					c-0.3,0.4-0.5,0.9-0.5,1.4h-2.1c0-0.6,0.1-1.1,0.3-1.6c0.2-0.5,0.5-0.9,0.8-1.2c0.4-0.3,0.8-0.6,1.3-0.8
					c0.5-0.2,1.2-0.3,1.9-0.3c0.8,0,1.5,0.1,2.1,0.3c0.6,0.2,1,0.5,1.4,0.9c0.4,0.4,0.6,0.9,0.8,1.5c0.2,0.6,0.3,1.2,0.3,1.9v8.3h-2
					v-1c-0.3,0.4-0.7,0.6-1.2,0.9c-0.5,0.2-1.1,0.3-1.7,0.3c-0.6,0-1.2-0.1-1.7-0.3c-0.5-0.2-1-0.5-1.4-0.9
					c-0.4-0.4-0.7-0.8-0.9-1.4C917.8,612.8,917.7,612.2,917.7,611.6z M919.9,611.5c0,0.7,0.2,1.3,0.7,1.7c0.4,0.5,1,0.7,1.7,0.7
					c0.7,0,1.3-0.2,1.8-0.7c0.5-0.5,0.7-1,0.7-1.7c0-0.7-0.2-1.3-0.7-1.7s-1.1-0.7-1.8-0.7c-0.7,0-1.3,0.2-1.7,0.7
					C920.1,610.3,919.9,610.9,919.9,611.5z"/>
				<path d="M935.3,602c0-0.6,0.1-1.1,0.2-1.6c0.1-0.5,0.3-0.9,0.6-1.2c0.3-0.3,0.7-0.6,1.1-0.8c0.5-0.2,1-0.3,1.7-0.3h0.9v1.9h-0.6
					c-0.4,0-0.6,0.1-0.8,0.2c-0.2,0.1-0.4,0.2-0.5,0.4c-0.1,0.2-0.2,0.4-0.2,0.6c0,0.2-0.1,0.5-0.1,0.8v0.8h2.2v1.9h-2.2v10.9h-2.3
					v-10.9h-3.4v10.9h-2.3v-10.9h-1.3v-1.9h1.3V602c0-0.6,0.1-1.1,0.2-1.6c0.1-0.5,0.3-0.9,0.6-1.2c0.3-0.3,0.7-0.6,1.1-0.8
					c0.5-0.2,1.1-0.3,1.7-0.3h0.8v1.9h-0.6c-0.3,0-0.6,0.1-0.8,0.2c-0.2,0.1-0.4,0.2-0.5,0.4c-0.1,0.2-0.2,0.4-0.2,0.6
					s-0.1,0.5-0.1,0.8v0.8h3.4V602z"/>
				<path d="M942.4,601.6c-0.4,0-0.8-0.1-1.1-0.4s-0.4-0.7-0.4-1.1c0-0.4,0.1-0.8,0.4-1.1s0.7-0.4,1.1-0.4c0.4,0,0.8,0.1,1.1,0.4
					s0.5,0.6,0.5,1.1c0,0.4-0.2,0.8-0.5,1.1S942.9,601.6,942.4,601.6z M943.6,615.7h-2.3v-12.8h2.3V615.7z"/>
				<path d="M952,613.8c0.4,0,0.8,0,1.2-0.1c0.3-0.1,0.7-0.2,0.9-0.4c0.3-0.1,0.5-0.3,0.7-0.5s0.4-0.3,0.6-0.5l1.3,1.4
					c-0.2,0.2-0.4,0.5-0.7,0.7s-0.6,0.5-1,0.7c-0.4,0.2-0.8,0.4-1.3,0.5s-1.1,0.2-1.7,0.2c-1,0-1.9-0.2-2.7-0.5
					c-0.8-0.3-1.5-0.8-2.1-1.4c-0.6-0.6-1-1.3-1.3-2.1c-0.3-0.8-0.5-1.7-0.5-2.6s0.2-1.8,0.5-2.6c0.3-0.8,0.8-1.5,1.4-2.1
					c0.6-0.6,1.3-1.1,2.1-1.4c0.8-0.3,1.7-0.5,2.6-0.5c0.6,0,1.2,0.1,1.7,0.2c0.5,0.1,1,0.3,1.4,0.5c0.4,0.2,0.7,0.4,1,0.7
					s0.5,0.5,0.7,0.7l-1.4,1.4c-0.3-0.4-0.8-0.7-1.3-1c-0.5-0.3-1.2-0.5-2-0.5c-0.6,0-1.2,0.1-1.7,0.3c-0.5,0.2-1,0.6-1.3,1
					c-0.4,0.4-0.7,0.9-0.9,1.5c-0.2,0.6-0.3,1.2-0.3,1.8c0,0.7,0.1,1.3,0.3,1.9c0.2,0.6,0.5,1,0.9,1.4s0.8,0.7,1.4,0.9
					C950.8,613.7,951.3,613.8,952,613.8z"/>
				<path d="M961.3,611.6c0-0.6,0.1-1.2,0.3-1.7c0.2-0.5,0.5-1,0.9-1.3c0.4-0.4,0.8-0.7,1.4-0.9c0.5-0.2,1.1-0.3,1.8-0.3
					c0.7,0,1.2,0.1,1.7,0.3c0.4,0.2,0.8,0.4,1,0.6v-1.1c0-0.8-0.2-1.5-0.6-1.9c-0.4-0.4-0.9-0.7-1.7-0.7c-0.8,0-1.3,0.2-1.6,0.6
					c-0.3,0.4-0.5,0.9-0.5,1.4h-2.1c0-0.6,0.1-1.1,0.3-1.6c0.2-0.5,0.5-0.9,0.8-1.2c0.4-0.3,0.8-0.6,1.3-0.8
					c0.5-0.2,1.2-0.3,1.9-0.3c0.8,0,1.5,0.1,2.1,0.3c0.6,0.2,1,0.5,1.4,0.9c0.4,0.4,0.6,0.9,0.8,1.5c0.2,0.6,0.3,1.2,0.3,1.9v8.3h-2
					v-1c-0.3,0.4-0.7,0.6-1.2,0.9c-0.5,0.2-1.1,0.3-1.7,0.3c-0.6,0-1.2-0.1-1.7-0.3c-0.5-0.2-1-0.5-1.4-0.9
					c-0.4-0.4-0.7-0.8-0.9-1.4C961.4,612.8,961.3,612.2,961.3,611.6z M963.5,611.5c0,0.7,0.2,1.3,0.7,1.7c0.4,0.5,1,0.7,1.7,0.7
					c0.7,0,1.3-0.2,1.8-0.7c0.5-0.5,0.7-1,0.7-1.7c0-0.7-0.2-1.3-0.7-1.7s-1.1-0.7-1.8-0.7c-0.7,0-1.3,0.2-1.7,0.7
					C963.7,610.3,963.5,610.9,963.5,611.5z"/>
				<path d="M978.9,613.8c0.4,0,0.8,0,1.2-0.1c0.3-0.1,0.7-0.2,0.9-0.4c0.3-0.1,0.5-0.3,0.7-0.5s0.4-0.3,0.6-0.5l1.3,1.4
					c-0.2,0.2-0.4,0.5-0.7,0.7s-0.6,0.5-1,0.7c-0.4,0.2-0.8,0.4-1.3,0.5s-1.1,0.2-1.7,0.2c-1,0-1.9-0.2-2.7-0.5
					c-0.8-0.3-1.5-0.8-2.1-1.4c-0.6-0.6-1-1.3-1.3-2.1c-0.3-0.8-0.5-1.7-0.5-2.6s0.2-1.8,0.5-2.6c0.3-0.8,0.8-1.5,1.4-2.1
					c0.6-0.6,1.3-1.1,2.1-1.4c0.8-0.3,1.7-0.5,2.6-0.5c0.6,0,1.2,0.1,1.7,0.2c0.5,0.1,1,0.3,1.4,0.5c0.4,0.2,0.7,0.4,1,0.7
					s0.5,0.5,0.7,0.7l-1.4,1.4c-0.3-0.4-0.8-0.7-1.3-1c-0.5-0.3-1.2-0.5-2-0.5c-0.6,0-1.2,0.1-1.7,0.3c-0.5,0.2-1,0.6-1.3,1
					c-0.4,0.4-0.7,0.9-0.9,1.5c-0.2,0.6-0.3,1.2-0.3,1.8c0,0.7,0.1,1.3,0.3,1.9c0.2,0.6,0.5,1,0.9,1.4s0.8,0.7,1.4,0.9
					C977.7,613.7,978.3,613.8,978.9,613.8z"/>
				<path d="M990.5,613.8c0.4,0,0.8,0,1.2-0.1c0.3-0.1,0.7-0.2,0.9-0.4c0.3-0.1,0.5-0.3,0.7-0.5s0.4-0.3,0.6-0.5l1.3,1.4
					c-0.2,0.2-0.4,0.5-0.7,0.7s-0.6,0.5-1,0.7c-0.4,0.2-0.8,0.4-1.3,0.5s-1.1,0.2-1.7,0.2c-1,0-1.9-0.2-2.7-0.5
					c-0.8-0.3-1.5-0.8-2.1-1.4c-0.6-0.6-1-1.3-1.3-2.1c-0.3-0.8-0.5-1.7-0.5-2.6s0.2-1.8,0.5-2.6c0.3-0.8,0.8-1.5,1.4-2.1
					c0.6-0.6,1.3-1.1,2.1-1.4c0.8-0.3,1.7-0.5,2.6-0.5c0.6,0,1.2,0.1,1.7,0.2c0.5,0.1,1,0.3,1.4,0.5c0.4,0.2,0.7,0.4,1,0.7
					s0.5,0.5,0.7,0.7l-1.4,1.4c-0.3-0.4-0.8-0.7-1.3-1c-0.5-0.3-1.2-0.5-2-0.5c-0.6,0-1.2,0.1-1.7,0.3c-0.5,0.2-1,0.6-1.3,1
					c-0.4,0.4-0.7,0.9-0.9,1.5c-0.2,0.6-0.3,1.2-0.3,1.8c0,0.7,0.1,1.3,0.3,1.9c0.2,0.6,0.5,1,0.9,1.4s0.8,0.7,1.4,0.9
					C989.3,613.7,989.9,613.8,990.5,613.8z"/>
				<path d="M997.8,601.6c-0.4,0-0.8-0.1-1.1-0.4s-0.4-0.7-0.4-1.1c0-0.4,0.1-0.8,0.4-1.1s0.7-0.4,1.1-0.4c0.4,0,0.8,0.1,1.1,0.4
					s0.5,0.6,0.5,1.1c0,0.4-0.2,0.8-0.5,1.1S998.3,601.6,997.8,601.6z M999,615.7h-2.3v-12.8h2.3V615.7z"/>
				<path d="M1011.7,613.8c-0.2,0.2-0.4,0.5-0.7,0.7c-0.3,0.3-0.6,0.5-1,0.7s-0.8,0.4-1.3,0.5c-0.5,0.1-1,0.2-1.5,0.2
					c-1,0-1.8-0.2-2.7-0.5c-0.8-0.3-1.5-0.8-2.1-1.4s-1-1.3-1.3-2.1c-0.3-0.8-0.5-1.7-0.5-2.7c0-0.9,0.2-1.8,0.5-2.6
					c0.3-0.8,0.8-1.5,1.3-2.1c0.6-0.6,1.3-1.1,2.1-1.4s1.7-0.5,2.6-0.5c1,0,1.9,0.2,2.6,0.6c0.7,0.4,1.3,0.8,1.7,1.3v-6.3h2.3v17.5
					h-2.2V613.8z M1003.1,609.3c0,0.7,0.1,1.3,0.3,1.8c0.2,0.6,0.5,1,0.9,1.5c0.4,0.4,0.8,0.7,1.4,0.9c0.5,0.2,1.1,0.3,1.7,0.3
					c0.6,0,1.2-0.1,1.8-0.3c0.5-0.2,1-0.5,1.4-0.9c0.4-0.4,0.7-0.9,0.9-1.5c0.2-0.6,0.3-1.2,0.3-1.8c0-0.7-0.1-1.3-0.3-1.8
					c-0.2-0.6-0.5-1-0.9-1.5s-0.8-0.7-1.4-1c-0.5-0.2-1.1-0.3-1.8-0.3c-0.6,0-1.2,0.1-1.8,0.3c-0.5,0.2-1,0.6-1.4,1
					s-0.7,0.9-0.9,1.5C1003.2,608,1003.1,608.6,1003.1,609.3z"/>
				<path d="M1018,609.9c0.1,1.2,0.5,2.2,1.2,2.9c0.7,0.7,1.7,1,2.9,1c1,0,1.8-0.2,2.5-0.7s1.1-1.1,1.5-1.8l1.8,0.9
					c-0.2,0.5-0.5,1-0.8,1.4c-0.3,0.4-0.8,0.8-1.2,1.2c-0.5,0.3-1,0.6-1.6,0.8s-1.3,0.3-2.1,0.3c-1,0-1.8-0.2-2.6-0.5
					c-0.8-0.3-1.5-0.8-2.1-1.3s-1-1.3-1.3-2.1c-0.3-0.8-0.5-1.7-0.5-2.7c0-1,0.2-1.9,0.5-2.7c0.3-0.8,0.7-1.5,1.3-2.1
					c0.6-0.6,1.2-1.1,2-1.4c0.8-0.3,1.6-0.5,2.5-0.5c0.9,0,1.8,0.1,2.6,0.4c0.8,0.3,1.4,0.7,2,1.3c0.5,0.5,1,1.2,1.3,2
					c0.3,0.8,0.5,1.6,0.5,2.6c0,0.1,0,0.3,0,0.5c0,0.2,0,0.4,0,0.6H1018z M1021.9,604.6c-1.1,0-1.9,0.3-2.6,0.9
					c-0.7,0.6-1.1,1.5-1.2,2.6h7.8c-0.1-1.1-0.5-1.9-1.2-2.5C1023.9,604.9,1023,604.6,1021.9,604.6z"/>
				<path d="M1036.8,607.4c0-0.9-0.2-1.5-0.6-2c-0.4-0.5-0.9-0.7-1.7-0.7c-0.8,0-1.4,0.3-1.8,0.8s-0.6,1.2-0.6,2v8.2h-2.3v-12.8h2.3
					v1.2c0.1-0.1,0.2-0.3,0.4-0.4s0.4-0.3,0.6-0.4c0.2-0.1,0.5-0.2,0.8-0.3s0.7-0.1,1.1-0.1c0.7,0,1.4,0.1,1.9,0.4s0.9,0.6,1.2,1
					s0.6,0.9,0.7,1.4c0.1,0.5,0.2,1.1,0.2,1.8v8.5h-2.3V607.4z"/>
				<path d="M1043.8,602.8h2.4v1.9h-2.4v7.3c0,0.6,0.1,1,0.3,1.3c0.2,0.3,0.6,0.4,1.2,0.4h0.9v1.9c-0.1,0-0.3,0-0.5,0.1
					s-0.6,0.1-0.9,0.1c-1.2,0-2-0.3-2.5-0.8s-0.7-1.4-0.7-2.4v-7.8h-1.3v-1.9h1.3v-2h2.3V602.8z"/>
				<path d="M1049.4,606c0,0.8,0.4,1.3,1.3,1.6c0.3,0.1,0.7,0.2,1,0.3s0.7,0.2,1,0.3c0.9,0.3,1.6,0.8,2.1,1.3
					c0.5,0.6,0.7,1.3,0.7,2.4c0,0.6-0.1,1.2-0.3,1.7c-0.2,0.5-0.5,0.9-0.9,1.2c-0.4,0.3-0.9,0.6-1.4,0.7c-0.5,0.2-1.1,0.2-1.7,0.2
					c-0.8,0-1.5-0.1-2.1-0.3c-0.6-0.2-1-0.5-1.3-0.9c-0.3-0.4-0.6-0.8-0.7-1.3c-0.1-0.5-0.2-1-0.2-1.6h2.2c0,0.3,0,0.6,0.1,0.9
					c0.1,0.3,0.2,0.5,0.4,0.7s0.4,0.4,0.6,0.5c0.3,0.1,0.6,0.2,1,0.2c0.6,0,1-0.1,1.5-0.4c0.4-0.3,0.6-0.7,0.6-1.3
					c0-0.5-0.1-0.9-0.4-1.2c-0.3-0.3-0.6-0.5-1.1-0.7c-0.4-0.1-0.7-0.2-1.1-0.3c-0.4-0.1-0.8-0.2-1.2-0.4c-0.8-0.4-1.4-0.8-1.8-1.4
					c-0.4-0.6-0.5-1.2-0.5-2c0-0.5,0.1-1,0.3-1.4c0.2-0.4,0.5-0.8,0.8-1.1c0.4-0.3,0.8-0.5,1.3-0.7c0.5-0.2,1-0.3,1.6-0.3
					c1.3,0,2.3,0.4,3,1.1c0.6,0.7,1,1.7,1,2.8h-2.1c0-0.7-0.2-1.2-0.5-1.5c-0.3-0.4-0.8-0.6-1.4-0.6c-0.5,0-1,0.1-1.3,0.4
					C1049.6,605.2,1049.4,605.5,1049.4,606z"/>
			</g>
			<g class="st9">
				<path class="st1" d="M692,651.7h-2.4v-16.6h2.4V651.7z"/>
				<path class="st1" d="M701.4,643.4c0-0.9-0.2-1.5-0.6-2c-0.4-0.5-0.9-0.7-1.7-0.7c-0.8,0-1.4,0.3-1.8,0.8c-0.4,0.5-0.6,1.2-0.6,2
					v8.2h-2.3v-12.8h2.3v1.2c0.1-0.1,0.2-0.3,0.4-0.4c0.2-0.2,0.4-0.3,0.6-0.4c0.2-0.1,0.5-0.2,0.8-0.3c0.3-0.1,0.7-0.1,1.1-0.1
					c0.7,0,1.4,0.1,1.9,0.4c0.5,0.2,0.9,0.6,1.2,1c0.3,0.4,0.6,0.9,0.7,1.4c0.1,0.5,0.2,1.1,0.2,1.8v8.5h-2.3V643.4z"/>
				<path class="st1" d="M712,649.8c0.4,0,0.8,0,1.2-0.1s0.7-0.2,0.9-0.4c0.3-0.1,0.5-0.3,0.7-0.5c0.2-0.2,0.4-0.3,0.6-0.5l1.3,1.4
					c-0.2,0.2-0.4,0.5-0.7,0.7s-0.6,0.5-1,0.7c-0.4,0.2-0.8,0.4-1.3,0.5c-0.5,0.1-1.1,0.2-1.7,0.2c-1,0-1.9-0.2-2.7-0.5
					c-0.8-0.3-1.5-0.8-2.1-1.4c-0.6-0.6-1-1.3-1.3-2.1c-0.3-0.8-0.5-1.7-0.5-2.6s0.2-1.8,0.5-2.6c0.3-0.8,0.8-1.5,1.4-2.1
					c0.6-0.6,1.3-1.1,2.1-1.4c0.8-0.3,1.7-0.5,2.6-0.5c0.6,0,1.2,0.1,1.7,0.2c0.5,0.1,1,0.3,1.4,0.5c0.4,0.2,0.7,0.4,1,0.7
					s0.5,0.5,0.7,0.7l-1.4,1.4c-0.3-0.4-0.8-0.7-1.3-1c-0.5-0.3-1.2-0.5-2-0.5c-0.6,0-1.2,0.1-1.7,0.3c-0.5,0.2-1,0.6-1.3,1
					s-0.7,0.9-0.9,1.5c-0.2,0.6-0.3,1.2-0.3,1.8c0,0.7,0.1,1.3,0.3,1.9c0.2,0.6,0.5,1,0.9,1.4s0.8,0.7,1.4,0.9
					C710.8,649.7,711.4,649.8,712,649.8z"/>
				<path class="st1" d="M723.4,641.1h-0.6c-0.8,0-1.4,0.2-1.7,0.6c-0.4,0.4-0.5,1-0.5,1.8v8.1h-2.3v-12.8h2.3v1.2
					c0.2-0.4,0.6-0.7,1-0.9s1.1-0.4,1.8-0.3V641.1z"/>
				<path class="st1" d="M726,645.9c0.1,1.2,0.5,2.2,1.2,2.9c0.7,0.7,1.7,1,2.9,1c1,0,1.8-0.2,2.5-0.7s1.1-1.1,1.5-1.8l1.8,0.9
					c-0.2,0.5-0.5,1-0.8,1.4c-0.3,0.4-0.8,0.8-1.2,1.2c-0.5,0.3-1,0.6-1.6,0.8c-0.6,0.2-1.3,0.3-2.1,0.3c-1,0-1.8-0.2-2.6-0.5
					c-0.8-0.3-1.5-0.8-2.1-1.3s-1-1.3-1.3-2.1c-0.3-0.8-0.5-1.7-0.5-2.7c0-1,0.2-1.9,0.5-2.7c0.3-0.8,0.7-1.5,1.3-2.1
					c0.6-0.6,1.2-1.1,2-1.4c0.8-0.3,1.6-0.5,2.5-0.5c0.9,0,1.8,0.1,2.6,0.4c0.8,0.3,1.4,0.7,2,1.3s1,1.2,1.3,2
					c0.3,0.8,0.5,1.6,0.5,2.6c0,0.1,0,0.3,0,0.5c0,0.2,0,0.4,0,0.6H726z M729.9,640.6c-1.1,0-1.9,0.3-2.6,0.9
					c-0.7,0.6-1.1,1.5-1.2,2.6h7.8c-0.1-1.1-0.5-1.9-1.2-2.5C731.9,640.9,731,640.6,729.9,640.6z"/>
				<path class="st1" d="M737.3,647.6c0-0.6,0.1-1.2,0.3-1.7c0.2-0.5,0.5-1,0.9-1.3c0.4-0.4,0.8-0.7,1.4-0.9s1.1-0.3,1.8-0.3
					c0.7,0,1.2,0.1,1.7,0.3c0.4,0.2,0.8,0.4,1,0.6v-1.1c0-0.8-0.2-1.5-0.6-1.9c-0.4-0.4-0.9-0.7-1.7-0.7c-0.8,0-1.3,0.2-1.6,0.6
					c-0.3,0.4-0.5,0.9-0.5,1.4h-2.1c0-0.6,0.1-1.1,0.3-1.6c0.2-0.5,0.5-0.9,0.8-1.2c0.4-0.3,0.8-0.6,1.3-0.8
					c0.5-0.2,1.2-0.3,1.9-0.3c0.8,0,1.5,0.1,2.1,0.3c0.6,0.2,1,0.5,1.4,0.9c0.4,0.4,0.6,0.9,0.8,1.5s0.3,1.2,0.3,1.9v8.3h-2v-1
					c-0.3,0.4-0.7,0.6-1.2,0.9c-0.5,0.2-1.1,0.3-1.7,0.3c-0.6,0-1.2-0.1-1.7-0.3c-0.5-0.2-1-0.5-1.4-0.9s-0.7-0.8-0.9-1.4
					C737.4,648.8,737.3,648.2,737.3,647.6z M739.5,647.5c0,0.7,0.2,1.3,0.7,1.7c0.4,0.5,1,0.7,1.7,0.7c0.7,0,1.3-0.2,1.8-0.7
					c0.5-0.5,0.7-1,0.7-1.7c0-0.7-0.2-1.3-0.7-1.7s-1.1-0.7-1.8-0.7s-1.3,0.2-1.7,0.7C739.7,646.3,739.5,646.9,739.5,647.5z"/>
				<path class="st1" d="M750.7,642c0,0.8,0.4,1.3,1.3,1.6c0.3,0.1,0.7,0.2,1,0.3s0.7,0.2,1,0.3c0.9,0.3,1.6,0.8,2.1,1.3
					c0.5,0.6,0.7,1.3,0.7,2.4c0,0.6-0.1,1.2-0.3,1.7c-0.2,0.5-0.5,0.9-0.9,1.2c-0.4,0.3-0.9,0.6-1.4,0.7c-0.5,0.2-1.1,0.2-1.7,0.2
					c-0.8,0-1.5-0.1-2.1-0.3c-0.6-0.2-1-0.5-1.3-0.9c-0.3-0.4-0.6-0.8-0.7-1.3s-0.2-1-0.2-1.6h2.2c0,0.3,0,0.6,0.1,0.9
					c0.1,0.3,0.2,0.5,0.4,0.7s0.4,0.4,0.6,0.5s0.6,0.2,1,0.2c0.6,0,1-0.1,1.5-0.4c0.4-0.3,0.6-0.7,0.6-1.3c0-0.5-0.1-0.9-0.4-1.2
					c-0.3-0.3-0.6-0.5-1.1-0.7c-0.4-0.1-0.7-0.2-1.1-0.3c-0.4-0.1-0.8-0.2-1.2-0.4c-0.8-0.4-1.4-0.8-1.8-1.4c-0.4-0.6-0.5-1.2-0.5-2
					c0-0.5,0.1-1,0.3-1.4c0.2-0.4,0.5-0.8,0.8-1.1c0.4-0.3,0.8-0.5,1.3-0.7c0.5-0.2,1-0.3,1.6-0.3c1.3,0,2.3,0.4,3,1.1
					c0.6,0.7,1,1.7,1,2.8h-2.1c0-0.7-0.2-1.2-0.5-1.5s-0.8-0.6-1.4-0.6c-0.5,0-1,0.1-1.3,0.4S750.7,641.5,750.7,642z"/>
				<path class="st1" d="M760.3,645.9c0.1,1.2,0.5,2.2,1.2,2.9c0.7,0.7,1.7,1,2.9,1c1,0,1.8-0.2,2.5-0.7s1.1-1.1,1.5-1.8l1.8,0.9
					c-0.2,0.5-0.5,1-0.8,1.4c-0.3,0.4-0.8,0.8-1.2,1.2c-0.5,0.3-1,0.6-1.6,0.8c-0.6,0.2-1.3,0.3-2.1,0.3c-1,0-1.8-0.2-2.6-0.5
					c-0.8-0.3-1.5-0.8-2.1-1.3s-1-1.3-1.3-2.1c-0.3-0.8-0.5-1.7-0.5-2.7c0-1,0.2-1.9,0.5-2.7c0.3-0.8,0.7-1.5,1.3-2.1
					c0.6-0.6,1.2-1.1,2-1.4c0.8-0.3,1.6-0.5,2.5-0.5c0.9,0,1.8,0.1,2.6,0.4c0.8,0.3,1.4,0.7,2,1.3s1,1.2,1.3,2
					c0.3,0.8,0.5,1.6,0.5,2.6c0,0.1,0,0.3,0,0.5c0,0.2,0,0.4,0,0.6H760.3z M764.2,640.6c-1.1,0-1.9,0.3-2.6,0.9
					c-0.7,0.6-1.1,1.5-1.2,2.6h7.8c-0.1-1.1-0.5-1.9-1.2-2.5C766.2,640.9,765.3,640.6,764.2,640.6z"/>
				<path class="st1" d="M777,637.6c-0.4,0-0.8-0.1-1.1-0.4c-0.3-0.3-0.4-0.7-0.4-1.1c0-0.4,0.1-0.8,0.4-1.1
					c0.3-0.3,0.7-0.4,1.1-0.4c0.4,0,0.8,0.1,1.1,0.4c0.3,0.3,0.5,0.6,0.5,1.1c0,0.4-0.2,0.8-0.5,1.1
					C777.8,637.4,777.4,637.6,777,637.6z M778.1,651.7h-2.3v-12.8h2.3V651.7z"/>
				<path class="st1" d="M787.4,643.4c0-0.9-0.2-1.5-0.6-2c-0.4-0.5-0.9-0.7-1.7-0.7c-0.8,0-1.4,0.3-1.8,0.8c-0.4,0.5-0.6,1.2-0.6,2
					v8.2h-2.3v-12.8h2.3v1.2c0.1-0.1,0.2-0.3,0.4-0.4c0.2-0.2,0.4-0.3,0.6-0.4c0.2-0.1,0.5-0.2,0.8-0.3c0.3-0.1,0.7-0.1,1.1-0.1
					c0.7,0,1.4,0.1,1.9,0.4c0.5,0.2,0.9,0.6,1.2,1c0.3,0.4,0.6,0.9,0.7,1.4c0.1,0.5,0.2,1.1,0.2,1.8v8.5h-2.3V643.4z"/>
				<path class="st1" d="M804.7,651.7h-2.3v-8.2c0-0.8-0.2-1.5-0.5-2c-0.4-0.5-0.9-0.7-1.6-0.7c-0.8,0-1.3,0.3-1.7,0.8
					c-0.4,0.5-0.6,1.2-0.6,2.1v8.1h-2.3v-12.8h2.3v1.2c0.1-0.1,0.2-0.3,0.4-0.4c0.2-0.2,0.4-0.3,0.6-0.4c0.2-0.1,0.5-0.2,0.8-0.3
					s0.7-0.1,1.1-0.1c0.8,0,1.5,0.2,2,0.5c0.5,0.3,0.9,0.7,1.1,1.2c0.3-0.5,0.7-0.9,1.2-1.2c0.5-0.3,1.2-0.5,2.1-0.5
					c0.7,0,1.4,0.1,1.9,0.3c0.5,0.2,1,0.6,1.3,1s0.6,0.9,0.7,1.4c0.2,0.5,0.2,1.1,0.2,1.7v8.5h-2.3v-8.3c0-0.8-0.2-1.5-0.5-2
					c-0.4-0.5-0.9-0.7-1.7-0.7c-0.7,0-1.3,0.2-1.7,0.7s-0.6,1.1-0.6,1.9V651.7z"/>
				<path class="st1" d="M813.1,645.3c0-1,0.2-1.9,0.5-2.7c0.3-0.8,0.8-1.5,1.4-2.1c0.6-0.6,1.3-1.1,2.1-1.4
					c0.8-0.3,1.7-0.5,2.6-0.5c1,0,1.8,0.2,2.7,0.5s1.5,0.8,2.1,1.4c0.6,0.6,1,1.3,1.4,2.1c0.3,0.8,0.5,1.7,0.5,2.7s-0.2,1.8-0.5,2.7
					c-0.3,0.8-0.8,1.5-1.4,2.1c-0.6,0.6-1.3,1-2.1,1.4c-0.8,0.3-1.7,0.5-2.6,0.5c-1,0-1.8-0.2-2.7-0.5c-0.8-0.3-1.5-0.8-2.1-1.4
					c-0.6-0.6-1-1.3-1.4-2.1C813.2,647.1,813.1,646.2,813.1,645.3z M815.4,645.3c0,0.7,0.1,1.3,0.3,1.8c0.2,0.6,0.5,1,0.9,1.4
					c0.4,0.4,0.8,0.7,1.4,1c0.5,0.2,1.1,0.3,1.7,0.3c0.6,0,1.2-0.1,1.8-0.3c0.5-0.2,1-0.5,1.4-1c0.4-0.4,0.7-0.9,0.9-1.4
					c0.2-0.6,0.3-1.2,0.3-1.8c0-0.7-0.1-1.3-0.3-1.8c-0.2-0.6-0.5-1-0.9-1.5s-0.8-0.7-1.4-1c-0.5-0.2-1.1-0.3-1.7-0.3
					c-0.6,0-1.2,0.1-1.8,0.3c-0.5,0.2-1,0.5-1.4,1c-0.4,0.4-0.7,0.9-0.9,1.5C815.5,644,815.4,644.6,815.4,645.3z"/>
				<path class="st1" d="M833.2,641.1h-0.6c-0.8,0-1.4,0.2-1.7,0.6c-0.4,0.4-0.5,1-0.5,1.8v8.1h-2.3v-12.8h2.3v1.2
					c0.2-0.4,0.6-0.7,1-0.9s1.1-0.4,1.8-0.3V641.1z"/>
				<path class="st1" d="M837.6,638.8h2.4v1.9h-2.4v7.3c0,0.6,0.1,1,0.3,1.3c0.2,0.3,0.6,0.4,1.2,0.4h0.9v1.9c-0.1,0-0.3,0-0.5,0.1
					s-0.6,0.1-0.9,0.1c-1.2,0-2-0.3-2.5-0.8s-0.7-1.4-0.7-2.4v-7.8H834v-1.9h1.3v-2h2.3V638.8z"/>
				<path class="st1" d="M840.9,647.6c0-0.6,0.1-1.2,0.3-1.7c0.2-0.5,0.5-1,0.9-1.3c0.4-0.4,0.8-0.7,1.4-0.9
					c0.5-0.2,1.1-0.3,1.8-0.3c0.7,0,1.2,0.1,1.7,0.3c0.4,0.2,0.8,0.4,1,0.6v-1.1c0-0.8-0.2-1.5-0.6-1.9c-0.4-0.4-0.9-0.7-1.7-0.7
					c-0.8,0-1.3,0.2-1.6,0.6c-0.3,0.4-0.5,0.9-0.5,1.4h-2.1c0-0.6,0.1-1.1,0.3-1.6c0.2-0.5,0.5-0.9,0.8-1.2c0.4-0.3,0.8-0.6,1.3-0.8
					c0.5-0.2,1.2-0.3,1.9-0.3c0.8,0,1.5,0.1,2.1,0.3c0.6,0.2,1,0.5,1.4,0.9c0.4,0.4,0.6,0.9,0.8,1.5c0.2,0.6,0.3,1.2,0.3,1.9v8.3h-2
					v-1c-0.3,0.4-0.7,0.6-1.2,0.9c-0.5,0.2-1.1,0.3-1.7,0.3c-0.6,0-1.2-0.1-1.7-0.3c-0.5-0.2-1-0.5-1.4-0.9
					c-0.4-0.4-0.7-0.8-0.9-1.4C841,648.8,840.9,648.2,840.9,647.6z M843.1,647.5c0,0.7,0.2,1.3,0.7,1.7c0.4,0.5,1,0.7,1.7,0.7
					c0.7,0,1.3-0.2,1.8-0.7c0.5-0.5,0.7-1,0.7-1.7c0-0.7-0.2-1.3-0.7-1.7s-1.1-0.7-1.8-0.7c-0.7,0-1.3,0.2-1.7,0.7
					C843.4,646.3,843.1,646.9,843.1,647.5z"/>
				<path class="st1" d="M854.8,651.7h-2.3v-17.5h2.3V651.7z"/>
				<path class="st1" d="M858.3,637.6c-0.4,0-0.8-0.1-1.1-0.4s-0.4-0.7-0.4-1.1c0-0.4,0.1-0.8,0.4-1.1s0.7-0.4,1.1-0.4
					c0.4,0,0.8,0.1,1.1,0.4s0.5,0.6,0.5,1.1c0,0.4-0.2,0.8-0.5,1.1S858.7,637.6,858.3,637.6z M859.4,651.7h-2.3v-12.8h2.3V651.7z"/>
				<path class="st1" d="M864.4,638.8h2.4v1.9h-2.4v7.3c0,0.6,0.1,1,0.3,1.3c0.2,0.3,0.6,0.4,1.2,0.4h0.9v1.9c-0.1,0-0.3,0-0.5,0.1
					s-0.6,0.1-0.9,0.1c-1.2,0-2-0.3-2.5-0.8s-0.7-1.4-0.7-2.4v-7.8h-1.3v-1.9h1.3v-2h2.3V638.8z"/>
				<path class="st1" d="M871,655.9l1.7-4.4l-5.2-12.6h2.5l3.8,9.6l3.6-9.6h2.4l-6.7,17H871z"/>
			</g>
		</g>
		<g>
			<rect x="688.4" y="540.1" class="st8" width="283.7" height="57.7"/>
			<g class="st9">
				<path class="st1" d="M710.4,564.2h-3.2v-1.7c-0.6,0.6-1.5,1-2.6,1.5c-1.1,0.4-2.3,0.6-3.8,0.6c-1.7,0-3.3-0.3-4.7-0.9
					c-1.4-0.6-2.7-1.4-3.7-2.4c-1-1-1.8-2.3-2.4-3.7s-0.9-3.1-0.9-4.8c0-1.7,0.3-3.3,0.9-4.7s1.4-2.7,2.4-3.8c1-1.1,2.3-1.9,3.7-2.5
					c1.4-0.6,3-0.9,4.7-0.9c1.1,0,2.2,0.1,3.1,0.3c0.9,0.2,1.8,0.5,2.5,0.9c0.7,0.4,1.4,0.8,1.9,1.3c0.5,0.5,1,1,1.4,1.5l-2.4,2
					c-0.3-0.4-0.7-0.7-1.1-1.1c-0.4-0.4-0.9-0.7-1.4-1c-0.5-0.3-1.1-0.5-1.8-0.7c-0.7-0.2-1.4-0.3-2.2-0.3c-1.2,0-2.3,0.2-3.3,0.7
					c-1,0.4-1.9,1.1-2.6,1.8c-0.7,0.8-1.3,1.7-1.7,2.8c-0.4,1.1-0.6,2.3-0.6,3.6c0,1.3,0.2,2.5,0.6,3.6c0.4,1.1,1,2,1.7,2.8
					c0.7,0.8,1.6,1.4,2.6,1.8c1,0.4,2.2,0.6,3.4,0.6c1.4,0,2.6-0.2,3.6-0.7c1-0.4,1.9-1,2.6-1.7v-4h-4.2v-2.8h7.4V564.2z"/>
				<path class="st1" d="M713.8,564.2v-22.8h9.9v3H717v6.6h6.5v3H717v7.2h6.8v3H713.8z"/>
				<path class="st1" d="M730,546.9v17.3h-3.2v-22.8h3.3l11.6,17.5v-17.5h3.2v22.8h-3.3L730,546.9z"/>
				<path class="st1" d="M748.5,564.2v-22.8h9.9v3h-6.7v6.6h6.5v3h-6.5v7.2h6.8v3H748.5z"/>
				<path class="st1" d="M774.1,547.6c0,1.4-0.3,2.6-0.9,3.6c-0.6,1-1.5,1.7-2.6,2.2l5.7,10.9h-3.5l-5.4-10.3h-2.7v10.3h-3.2v-22.8
					h5.9c2.1,0,3.8,0.5,5,1.6C773.5,543.9,774.1,545.5,774.1,547.6z M764.7,544.2v7h2.5c1.2,0,2-0.3,2.6-1c0.6-0.6,0.9-1.5,0.9-2.6
					c0-1.1-0.3-1.9-0.9-2.5c-0.6-0.6-1.5-0.9-2.6-0.9H764.7z"/>
				<path class="st1" d="M791.4,556.7h-8.6l-2.8,7.5h-3.2l8.6-22.8h3.4l9,22.8h-3.4L791.4,556.7z M783.8,553.9h6.5l-3.3-8.4
					L783.8,553.9z"/>
				<path class="st1" d="M799.4,564.2v-22.8h3.2v19.8h6.6v3H799.4z"/>
				<path class="st1" d="M812.4,570h-2.9l11.8-29.9h2.9L812.4,570z"/>
				<path class="st1" d="M824.2,552.8c0-1.7,0.3-3.3,0.9-4.8c0.6-1.5,1.4-2.7,2.4-3.8c1-1.1,2.3-1.9,3.7-2.5s3-0.9,4.7-0.9
					c1.7,0,3.3,0.3,4.8,0.9s2.7,1.4,3.7,2.5c1,1.1,1.8,2.3,2.4,3.8s0.9,3,0.9,4.7s-0.3,3.3-0.9,4.7s-1.4,2.7-2.4,3.8
					c-1,1.1-2.3,1.9-3.7,2.5c-1.4,0.6-3,0.9-4.7,0.9s-3.3-0.3-4.7-0.9c-1.4-0.6-2.7-1.4-3.7-2.5c-1-1.1-1.8-2.3-2.4-3.8
					C824.4,556.1,824.2,554.5,824.2,552.8z M827.6,552.8c0,1.3,0.2,2.5,0.6,3.6c0.4,1.1,1,2,1.7,2.8s1.6,1.4,2.6,1.8
					c1,0.4,2.1,0.7,3.4,0.7c1.3,0,2.4-0.2,3.4-0.7s1.9-1.1,2.6-1.8c0.7-0.8,1.3-1.7,1.7-2.8s0.6-2.3,0.6-3.6c0-1.3-0.2-2.5-0.6-3.5
					c-0.4-1.1-1-2-1.7-2.8c-0.7-0.8-1.6-1.4-2.6-1.8c-1-0.4-2.2-0.7-3.4-0.7c-1.3,0-2.4,0.2-3.4,0.7c-1,0.4-1.9,1.1-2.6,1.8
					c-0.7,0.8-1.3,1.7-1.7,2.8C827.8,550.3,827.6,551.5,827.6,552.8z"/>
				<path class="st1" d="M855.4,544.3v19.8h-3.2v-19.8h-4.7v-3h12.6v3H855.4z"/>
				<path class="st1" d="M879.8,564.2h-3.2v-10.4h-10.9v10.4h-3.2v-22.8h3.2v9.5h10.9v-9.5h3.2V564.2z"/>
				<path class="st1" d="M883.4,564.2v-22.8h9.9v3h-6.7v6.6h6.5v3h-6.5v7.2h6.8v3H883.4z"/>
				<path class="st1" d="M909,547.6c0,1.4-0.3,2.6-0.9,3.6c-0.6,1-1.5,1.7-2.6,2.2l5.7,10.9h-3.5l-5.4-10.3h-2.7v10.3h-3.2v-22.8
					h5.9c2.1,0,3.8,0.5,5,1.6S909,545.5,909,547.6z M899.6,544.2v7h2.5c1.2,0,2-0.3,2.6-1c0.6-0.6,0.9-1.5,0.9-2.6
					c0-1.1-0.3-1.9-0.9-2.5c-0.6-0.6-1.5-0.9-2.6-0.9H899.6z"/>
				<path class="st1" d="M915.3,546.8c0,0.8,0.2,1.4,0.6,1.9s0.9,0.9,1.6,1.3c0.7,0.3,1.4,0.6,2.1,0.9c0.7,0.3,1.4,0.6,2.1,1
					c1.2,0.6,2.2,1.4,2.9,2.3c0.7,1,1,2.2,1,3.7c0,1-0.2,1.9-0.5,2.7s-0.8,1.5-1.4,2.1c-0.6,0.6-1.3,1-2.2,1.4s-1.8,0.5-2.9,0.5
					c-1.3,0-2.4-0.2-3.4-0.6c-0.9-0.4-1.6-0.9-2.2-1.6c-0.5-0.7-0.9-1.4-1.2-2.3c-0.2-0.9-0.3-1.8-0.3-2.7h3.1
					c0,0.6,0.1,1.2,0.2,1.7c0.1,0.5,0.4,1,0.7,1.4c0.3,0.4,0.7,0.7,1.2,0.9c0.5,0.2,1.1,0.3,1.8,0.3c1.1,0,2-0.3,2.7-0.9
					c0.7-0.6,1.1-1.5,1.1-2.7c0-0.9-0.2-1.7-0.7-2.2s-1-1-1.8-1.4c-0.7-0.4-1.5-0.7-2.3-1c-0.8-0.3-1.5-0.6-2.3-1
					c-1-0.6-1.8-1.3-2.4-2.2c-0.6-0.9-0.8-2.1-0.8-3.4c0-0.8,0.1-1.6,0.4-2.3c0.3-0.7,0.7-1.4,1.3-1.9c0.6-0.5,1.2-1,2-1.3
					c0.8-0.3,1.7-0.5,2.7-0.5c1.2,0,2.2,0.2,3.1,0.5s1.5,0.8,2,1.4c0.5,0.6,0.9,1.3,1.1,2s0.3,1.6,0.3,2.4h-3c0-1-0.3-1.9-0.9-2.6
					c-0.6-0.7-1.4-1-2.5-1c-1.1,0-1.9,0.3-2.4,0.9C915.5,545.2,915.3,545.9,915.3,546.8z"/>
			</g>
		</g>
		<line class="st10" x1="1184.6" y1="517.7" x2="688.4" y2="516"/>
		<circle class="st4" cx="677.1" cy="645.1" r="5.5"/>
		<circle class="st4" cx="677.1" cy="607.7" r="5.5"/>
		<circle class="st4" cx="1904.6" cy="624.6" r="5.5"/>
		<polyline class="st10" points="1324,376.1 1506.4,496.2 1892.1,495 		"/>
	</g>
	<g>
		<rect x="688.1" y="-55.3" class="st8" width="380.7" height="427.2"/>
		<g class="st9">
			<path d="M698.6-49.9c0,1-0.2,1.9-0.7,2.6s-1.1,1.2-1.9,1.6l4.2,7.9h-2.5l-3.9-7.5h-2v7.5h-2.4v-16.6h4.3c1.6,0,2.8,0.4,3.6,1.1
				C698.2-52.5,698.6-51.4,698.6-49.9z M691.8-52.4v5.1h1.8c0.8,0,1.5-0.2,1.9-0.7c0.4-0.5,0.6-1.1,0.6-1.9c0-0.8-0.2-1.4-0.6-1.8
				c-0.4-0.4-1.1-0.7-1.9-0.7H691.8z"/>
			<path d="M702.3-43.5c0.1,1.2,0.5,2.2,1.2,2.9c0.7,0.7,1.7,1,2.9,1c1,0,1.8-0.2,2.5-0.7s1.1-1.1,1.5-1.8l1.8,0.9
				c-0.2,0.5-0.5,1-0.8,1.4c-0.3,0.4-0.8,0.8-1.2,1.2c-0.5,0.3-1,0.6-1.6,0.8c-0.6,0.2-1.3,0.3-2.1,0.3c-1,0-1.8-0.2-2.6-0.5
				c-0.8-0.3-1.5-0.8-2.1-1.3s-1-1.3-1.3-2.1c-0.3-0.8-0.5-1.7-0.5-2.7c0-1,0.2-1.9,0.5-2.7c0.3-0.8,0.7-1.5,1.3-2.1s1.2-1.1,2-1.4
				s1.6-0.5,2.5-0.5c0.9,0,1.8,0.1,2.6,0.4c0.8,0.3,1.4,0.7,2,1.3s1,1.2,1.3,2c0.3,0.8,0.5,1.6,0.5,2.6c0,0.1,0,0.3,0,0.5
				c0,0.2,0,0.4,0,0.6H702.3z M706.2-48.9c-1.1,0-1.9,0.3-2.6,0.9c-0.7,0.6-1.1,1.5-1.2,2.6h7.8c-0.1-1.1-0.5-1.9-1.2-2.5
				C708.2-48.6,707.3-48.9,706.2-48.9z"/>
			<path d="M724.7-39.7c-0.2,0.2-0.4,0.5-0.7,0.7c-0.3,0.3-0.6,0.5-1,0.7s-0.8,0.4-1.3,0.5c-0.5,0.1-1,0.2-1.5,0.2
				c-1,0-1.8-0.2-2.7-0.5c-0.8-0.3-1.5-0.8-2.1-1.4s-1-1.3-1.3-2.1c-0.3-0.8-0.5-1.7-0.5-2.7c0-0.9,0.2-1.8,0.5-2.6
				c0.3-0.8,0.8-1.5,1.3-2.1c0.6-0.6,1.3-1.1,2.1-1.4c0.8-0.3,1.7-0.5,2.6-0.5c1,0,1.9,0.2,2.6,0.6s1.3,0.8,1.7,1.3v-6.3h2.3v17.5
				h-2.2V-39.7z M716-44.2c0,0.7,0.1,1.3,0.3,1.8c0.2,0.6,0.5,1,0.9,1.5s0.8,0.7,1.4,0.9c0.5,0.2,1.1,0.3,1.7,0.3
				c0.6,0,1.2-0.1,1.8-0.3c0.5-0.2,1-0.5,1.4-0.9c0.4-0.4,0.7-0.9,0.9-1.5c0.2-0.6,0.3-1.2,0.3-1.8c0-0.7-0.1-1.3-0.3-1.8
				c-0.2-0.6-0.5-1-0.9-1.5s-0.8-0.7-1.4-1c-0.5-0.2-1.1-0.3-1.8-0.3s-1.2,0.1-1.8,0.3c-0.5,0.2-1,0.6-1.4,1
				c-0.4,0.4-0.7,0.9-0.9,1.5C716.1-45.5,716-44.9,716-44.2z"/>
			<path d="M731.4-42.4c0,0.9,0.2,1.5,0.5,2c0.4,0.5,0.9,0.7,1.7,0.7c0.8,0,1.3-0.3,1.7-0.8c0.4-0.5,0.6-1.2,0.6-2v-8.2h2.3v12.8
				H736V-39c-0.2,0.3-0.5,0.6-1,0.9c-0.5,0.3-1.1,0.4-1.9,0.4c-0.7,0-1.3-0.1-1.8-0.3c-0.5-0.2-0.9-0.6-1.2-1
				c-0.3-0.4-0.6-0.9-0.7-1.4c-0.1-0.5-0.2-1.1-0.2-1.8v-8.5h2.3V-42.4z"/>
			<path d="M746.6-39.6c0.4,0,0.8,0,1.2-0.1c0.3-0.1,0.7-0.2,0.9-0.4s0.5-0.3,0.7-0.5s0.4-0.3,0.6-0.5l1.3,1.4
				c-0.2,0.2-0.4,0.5-0.7,0.7s-0.6,0.5-1,0.7c-0.4,0.2-0.8,0.4-1.3,0.5c-0.5,0.1-1.1,0.2-1.7,0.2c-1,0-1.9-0.2-2.7-0.5
				c-0.8-0.3-1.5-0.8-2.1-1.4c-0.6-0.6-1-1.3-1.3-2.1c-0.3-0.8-0.5-1.7-0.5-2.6s0.2-1.8,0.5-2.6c0.3-0.8,0.8-1.5,1.4-2.1
				c0.6-0.6,1.3-1.1,2.1-1.4c0.8-0.3,1.7-0.5,2.6-0.5c0.6,0,1.2,0.1,1.7,0.2c0.5,0.1,1,0.3,1.4,0.5c0.4,0.2,0.7,0.4,1,0.7
				s0.5,0.5,0.7,0.7l-1.4,1.4c-0.3-0.4-0.8-0.7-1.3-1c-0.5-0.3-1.2-0.5-2-0.5c-0.6,0-1.2,0.1-1.7,0.3c-0.5,0.2-1,0.6-1.3,1
				s-0.7,0.9-0.9,1.5c-0.2,0.6-0.3,1.2-0.3,1.8c0,0.7,0.1,1.3,0.3,1.9c0.2,0.6,0.5,1,0.9,1.4c0.4,0.4,0.8,0.7,1.4,0.9
				C745.4-39.7,746-39.6,746.6-39.6z"/>
			<path d="M755.6-50.6h2.4v1.9h-2.4v7.3c0,0.6,0.1,1,0.3,1.3c0.2,0.3,0.6,0.4,1.2,0.4h0.9v1.9c-0.1,0-0.3,0-0.5,0.1
				c-0.3,0-0.6,0.1-0.9,0.1c-1.2,0-2-0.3-2.5-0.8s-0.7-1.4-0.7-2.4v-7.8H752v-1.9h1.3v-2h2.3V-50.6z"/>
			<path d="M760.7-51.9c-0.4,0-0.8-0.1-1.1-0.4c-0.3-0.3-0.4-0.7-0.4-1.1c0-0.4,0.1-0.8,0.4-1.1c0.3-0.3,0.7-0.4,1.1-0.4
				c0.4,0,0.8,0.1,1.1,0.4c0.3,0.3,0.5,0.6,0.5,1.1c0,0.4-0.2,0.8-0.5,1.1C761.5-52,761.1-51.9,760.7-51.9z M761.9-37.8h-2.3v-12.8
				h2.3V-37.8z"/>
			<path d="M763.6-44.2c0-1,0.2-1.9,0.5-2.7c0.3-0.8,0.8-1.5,1.4-2.1c0.6-0.6,1.3-1.1,2.1-1.4c0.8-0.3,1.7-0.5,2.6-0.5
				c1,0,1.8,0.2,2.7,0.5s1.5,0.8,2.1,1.4c0.6,0.6,1,1.3,1.4,2.1c0.3,0.8,0.5,1.7,0.5,2.7s-0.2,1.8-0.5,2.7c-0.3,0.8-0.8,1.5-1.4,2.1
				c-0.6,0.6-1.3,1-2.1,1.4c-0.8,0.3-1.7,0.5-2.6,0.5c-1,0-1.8-0.2-2.7-0.5c-0.8-0.3-1.5-0.8-2.1-1.4c-0.6-0.6-1-1.3-1.4-2.1
				C763.8-42.3,763.6-43.2,763.6-44.2z M765.9-44.2c0,0.7,0.1,1.3,0.3,1.8c0.2,0.6,0.5,1,0.9,1.4s0.8,0.7,1.4,1
				c0.5,0.2,1.1,0.3,1.7,0.3c0.6,0,1.2-0.1,1.8-0.3c0.5-0.2,1-0.5,1.4-1s0.7-0.9,0.9-1.4c0.2-0.6,0.3-1.2,0.3-1.8
				c0-0.7-0.1-1.3-0.3-1.8c-0.2-0.6-0.5-1-0.9-1.5c-0.4-0.4-0.8-0.7-1.4-1c-0.5-0.2-1.1-0.3-1.7-0.3c-0.6,0-1.2,0.1-1.8,0.3
				c-0.5,0.2-1,0.5-1.4,1c-0.4,0.4-0.7,0.9-0.9,1.5C766-45.5,765.9-44.9,765.9-44.2z"/>
			<path d="M785.5-46c0-0.9-0.2-1.5-0.6-2c-0.4-0.5-0.9-0.7-1.7-0.7c-0.8,0-1.4,0.3-1.8,0.8c-0.4,0.5-0.6,1.2-0.6,2v8.2h-2.3v-12.8
				h2.3v1.2c0.1-0.1,0.2-0.3,0.4-0.4c0.2-0.2,0.4-0.3,0.6-0.4c0.2-0.1,0.5-0.2,0.8-0.3c0.3-0.1,0.7-0.1,1.1-0.1
				c0.7,0,1.4,0.1,1.9,0.4s0.9,0.6,1.2,1c0.3,0.4,0.6,0.9,0.7,1.4c0.1,0.5,0.2,1.1,0.2,1.8v8.5h-2.3V-46z"/>
			<path d="M793.2-44.2c0-1,0.2-1.9,0.5-2.7c0.3-0.8,0.8-1.5,1.4-2.1s1.3-1.1,2.1-1.4c0.8-0.3,1.7-0.5,2.6-0.5c1,0,1.8,0.2,2.7,0.5
				s1.5,0.8,2.1,1.4s1,1.3,1.4,2.1c0.3,0.8,0.5,1.7,0.5,2.7s-0.2,1.8-0.5,2.7c-0.3,0.8-0.8,1.5-1.4,2.1s-1.3,1-2.1,1.4
				s-1.7,0.5-2.6,0.5c-1,0-1.8-0.2-2.7-0.5c-0.8-0.3-1.5-0.8-2.1-1.4s-1-1.3-1.4-2.1S793.2-43.2,793.2-44.2z M795.5-44.2
				c0,0.7,0.1,1.3,0.3,1.8c0.2,0.6,0.5,1,0.9,1.4c0.4,0.4,0.8,0.7,1.4,1c0.5,0.2,1.1,0.3,1.7,0.3c0.6,0,1.2-0.1,1.8-0.3
				c0.5-0.2,1-0.5,1.4-1c0.4-0.4,0.7-0.9,0.9-1.4c0.2-0.6,0.3-1.2,0.3-1.8c0-0.7-0.1-1.3-0.3-1.8c-0.2-0.6-0.5-1-0.9-1.5
				c-0.4-0.4-0.8-0.7-1.4-1c-0.5-0.2-1.1-0.3-1.7-0.3c-0.6,0-1.2,0.1-1.8,0.3c-0.5,0.2-1,0.5-1.4,1s-0.7,0.9-0.9,1.5
				C795.6-45.5,795.5-44.9,795.5-44.2z"/>
			<path d="M810.6-50.6h2.2v1.9h-2.2v10.9h-2.3v-10.9h-1.3v-1.9h1.3v-0.8c0-0.6,0.1-1.1,0.2-1.6c0.1-0.5,0.3-0.9,0.6-1.2
				c0.3-0.3,0.7-0.6,1.1-0.8c0.5-0.2,1.1-0.3,1.7-0.3h0.8v1.9h-0.6c-0.3,0-0.6,0.1-0.8,0.2c-0.2,0.1-0.4,0.2-0.5,0.4
				c-0.1,0.2-0.2,0.4-0.2,0.6c0,0.2-0.1,0.5-0.1,0.8V-50.6z"/>
			<path d="M824-39.6c0.4,0,0.8,0,1.2-0.1c0.3-0.1,0.7-0.2,0.9-0.4s0.5-0.3,0.7-0.5s0.4-0.3,0.6-0.5l1.3,1.4
				c-0.2,0.2-0.4,0.5-0.7,0.7s-0.6,0.5-1,0.7c-0.4,0.2-0.8,0.4-1.3,0.5c-0.5,0.1-1.1,0.2-1.7,0.2c-1,0-1.9-0.2-2.7-0.5
				c-0.8-0.3-1.5-0.8-2.1-1.4c-0.6-0.6-1-1.3-1.3-2.1c-0.3-0.8-0.5-1.7-0.5-2.6s0.2-1.8,0.5-2.6c0.3-0.8,0.8-1.5,1.4-2.1
				c0.6-0.6,1.3-1.1,2.1-1.4c0.8-0.3,1.7-0.5,2.6-0.5c0.6,0,1.2,0.1,1.7,0.2c0.5,0.1,1,0.3,1.4,0.5c0.4,0.2,0.7,0.4,1,0.7
				s0.5,0.5,0.7,0.7l-1.4,1.4c-0.3-0.4-0.8-0.7-1.3-1c-0.5-0.3-1.2-0.5-2-0.5c-0.6,0-1.2,0.1-1.7,0.3c-0.5,0.2-1,0.6-1.3,1
				s-0.7,0.9-0.9,1.5c-0.2,0.6-0.3,1.2-0.3,1.8c0,0.7,0.1,1.3,0.3,1.9c0.2,0.6,0.5,1,0.9,1.4c0.4,0.4,0.8,0.7,1.4,0.9
				C822.9-39.7,823.4-39.6,824-39.6z"/>
			<path d="M829.1-44.2c0-1,0.2-1.9,0.5-2.7c0.3-0.8,0.8-1.5,1.4-2.1s1.3-1.1,2.1-1.4c0.8-0.3,1.7-0.5,2.6-0.5c1,0,1.8,0.2,2.7,0.5
				s1.5,0.8,2.1,1.4c0.6,0.6,1,1.3,1.4,2.1c0.3,0.8,0.5,1.7,0.5,2.7s-0.2,1.8-0.5,2.7c-0.3,0.8-0.8,1.5-1.4,2.1s-1.3,1-2.1,1.4
				c-0.8,0.3-1.7,0.5-2.6,0.5c-1,0-1.8-0.2-2.7-0.5c-0.8-0.3-1.5-0.8-2.1-1.4s-1-1.3-1.4-2.1S829.1-43.2,829.1-44.2z M831.4-44.2
				c0,0.7,0.1,1.3,0.3,1.8c0.2,0.6,0.5,1,0.9,1.4c0.4,0.4,0.8,0.7,1.4,1c0.5,0.2,1.1,0.3,1.7,0.3c0.6,0,1.2-0.1,1.8-0.3
				c0.5-0.2,1-0.5,1.4-1c0.4-0.4,0.7-0.9,0.9-1.4c0.2-0.6,0.3-1.2,0.3-1.8c0-0.7-0.1-1.3-0.3-1.8c-0.2-0.6-0.5-1-0.9-1.5
				c-0.4-0.4-0.8-0.7-1.4-1c-0.5-0.2-1.1-0.3-1.7-0.3c-0.6,0-1.2,0.1-1.8,0.3c-0.5,0.2-1,0.5-1.4,1s-0.7,0.9-0.9,1.5
				C831.5-45.5,831.4-44.9,831.4-44.2z"/>
			<path d="M854.4-50.6h2.2V-40c0,1.2-0.2,2.2-0.5,3.1c-0.3,0.8-0.8,1.5-1.4,2c-0.6,0.5-1.3,0.9-2.1,1.1c-0.8,0.2-1.7,0.3-2.6,0.3
				c-1.1,0-2.1-0.1-3-0.4c-0.9-0.3-1.6-0.6-2.1-0.9l0.9-1.8c0.4,0.3,1,0.5,1.7,0.8c0.7,0.3,1.5,0.4,2.5,0.4c0.6,0,1.2-0.1,1.7-0.2
				s1-0.4,1.4-0.7c0.4-0.3,0.7-0.7,1-1.2c0.2-0.5,0.3-1.1,0.3-1.7v-0.4c-0.1,0.2-0.3,0.5-0.6,0.7c-0.2,0.2-0.6,0.5-0.9,0.7
				s-0.8,0.4-1.2,0.5s-1,0.2-1.6,0.2c-1,0-1.8-0.2-2.7-0.5c-0.8-0.3-1.5-0.8-2.1-1.3s-1-1.3-1.4-2.1c-0.3-0.8-0.5-1.7-0.5-2.7
				c0-0.9,0.2-1.8,0.5-2.6c0.3-0.8,0.8-1.5,1.4-2.1c0.6-0.6,1.3-1.1,2.1-1.4c0.8-0.3,1.7-0.5,2.6-0.5c1,0,1.9,0.2,2.6,0.6
				s1.4,0.8,1.8,1.4V-50.6z M845.8-44.2c0,0.7,0.1,1.3,0.3,1.8c0.2,0.6,0.5,1,0.9,1.5c0.4,0.4,0.8,0.7,1.4,0.9
				c0.5,0.2,1.1,0.3,1.7,0.3c0.6,0,1.2-0.1,1.8-0.3c0.5-0.2,1-0.5,1.4-0.9c0.4-0.4,0.7-0.9,0.9-1.5c0.2-0.6,0.3-1.2,0.3-1.8
				c0-0.7-0.1-1.3-0.3-1.8c-0.2-0.6-0.5-1-0.9-1.5s-0.8-0.7-1.4-1c-0.5-0.2-1.1-0.3-1.8-0.3c-0.6,0-1.2,0.1-1.8,0.3
				c-0.5,0.2-1,0.6-1.4,1s-0.7,0.9-0.9,1.5C845.9-45.5,845.8-44.9,845.8-44.2z"/>
			<path d="M865.9-46c0-0.9-0.2-1.5-0.6-2c-0.4-0.5-0.9-0.7-1.7-0.7c-0.8,0-1.4,0.3-1.8,0.8s-0.6,1.2-0.6,2v8.2H859v-12.8h2.3v1.2
				c0.1-0.1,0.2-0.3,0.4-0.4s0.4-0.3,0.6-0.4c0.2-0.1,0.5-0.2,0.8-0.3s0.7-0.1,1.1-0.1c0.7,0,1.4,0.1,1.9,0.4s0.9,0.6,1.2,1
				s0.6,0.9,0.7,1.4c0.1,0.5,0.2,1.1,0.2,1.8v8.5h-2.3V-46z"/>
			<path d="M871.6-51.9c-0.4,0-0.8-0.1-1.1-0.4s-0.4-0.7-0.4-1.1c0-0.4,0.1-0.8,0.4-1.1s0.7-0.4,1.1-0.4c0.4,0,0.8,0.1,1.1,0.4
				s0.5,0.6,0.5,1.1c0,0.4-0.2,0.8-0.5,1.1S872-51.9,871.6-51.9z M872.7-37.8h-2.3v-12.8h2.3V-37.8z"/>
			<path d="M877.7-50.6h2.4v1.9h-2.4v7.3c0,0.6,0.1,1,0.3,1.3c0.2,0.3,0.6,0.4,1.2,0.4h0.9v1.9c-0.1,0-0.3,0-0.5,0.1
				s-0.6,0.1-0.9,0.1c-1.2,0-2-0.3-2.5-0.8s-0.7-1.4-0.7-2.4v-7.8h-1.3v-1.9h1.3v-2h2.3V-50.6z"/>
			<path d="M882.9-51.9c-0.4,0-0.8-0.1-1.1-0.4s-0.4-0.7-0.4-1.1c0-0.4,0.1-0.8,0.4-1.1s0.7-0.4,1.1-0.4c0.4,0,0.8,0.1,1.1,0.4
				s0.5,0.6,0.5,1.1c0,0.4-0.2,0.8-0.5,1.1S883.3-51.9,882.9-51.9z M884-37.8h-2.3v-12.8h2.3V-37.8z"/>
			<path d="M891.4-40.5l3.7-10.1h2.4l-4.9,12.8h-2.5l-5-12.8h2.5L891.4-40.5z"/>
			<path d="M899.8-43.5c0.1,1.2,0.5,2.2,1.2,2.9c0.7,0.7,1.7,1,2.9,1c1,0,1.8-0.2,2.5-0.7s1.1-1.1,1.5-1.8l1.8,0.9
				c-0.2,0.5-0.5,1-0.8,1.4c-0.3,0.4-0.8,0.8-1.2,1.2c-0.5,0.3-1,0.6-1.6,0.8s-1.3,0.3-2.1,0.3c-1,0-1.8-0.2-2.6-0.5
				c-0.8-0.3-1.5-0.8-2.1-1.3s-1-1.3-1.3-2.1c-0.3-0.8-0.5-1.7-0.5-2.7c0-1,0.2-1.9,0.5-2.7c0.3-0.8,0.7-1.5,1.3-2.1
				c0.6-0.6,1.2-1.1,2-1.4c0.8-0.3,1.6-0.5,2.5-0.5c0.9,0,1.8,0.1,2.6,0.4c0.8,0.3,1.4,0.7,2,1.3c0.5,0.5,1,1.2,1.3,2
				c0.3,0.8,0.5,1.6,0.5,2.6c0,0.1,0,0.3,0,0.5c0,0.2,0,0.4,0,0.6H899.8z M903.7-48.9c-1.1,0-1.9,0.3-2.6,0.9
				c-0.7,0.6-1.1,1.5-1.2,2.6h7.8c-0.1-1.1-0.5-1.9-1.2-2.5C905.7-48.6,904.8-48.9,903.7-48.9z"/>
		</g>
		<g class="st9">
			<path d="M691.6-7.6h-2.3v-17h2.2v1.8c0.2-0.3,0.4-0.5,0.7-0.8c0.3-0.2,0.6-0.5,1-0.7c0.4-0.2,0.8-0.3,1.3-0.5
				c0.5-0.1,1-0.2,1.5-0.2c1,0,1.8,0.2,2.6,0.5c0.8,0.3,1.5,0.8,2,1.4c0.6,0.6,1,1.3,1.3,2.1c0.3,0.8,0.5,1.7,0.5,2.7
				c0,0.9-0.2,1.8-0.5,2.6c-0.3,0.8-0.7,1.5-1.3,2.1s-1.3,1.1-2.1,1.4c-0.8,0.3-1.7,0.5-2.7,0.5c-0.6,0-1.1-0.1-1.5-0.2
				c-0.5-0.1-0.9-0.3-1.2-0.4c-0.4-0.2-0.7-0.4-0.9-0.6c-0.3-0.2-0.5-0.4-0.6-0.6V-7.6z M691.5-18.2c0,0.7,0.1,1.3,0.3,1.8
				c0.2,0.6,0.5,1,0.9,1.5c0.4,0.4,0.8,0.7,1.4,0.9c0.5,0.2,1.1,0.3,1.8,0.3c0.6,0,1.2-0.1,1.8-0.3c0.5-0.2,1-0.5,1.4-0.9
				s0.7-0.9,0.9-1.5c0.2-0.6,0.3-1.2,0.3-1.8c0-0.7-0.1-1.3-0.3-1.8c-0.2-0.6-0.5-1-0.9-1.5s-0.8-0.7-1.4-1
				c-0.5-0.2-1.1-0.3-1.8-0.3c-0.7,0-1.2,0.1-1.8,0.3c-0.5,0.2-1,0.6-1.4,1c-0.4,0.4-0.7,0.9-0.9,1.5
				C691.6-19.5,691.5-18.9,691.5-18.2z"/>
			<path d="M705.9-17.5c0.1,1.2,0.5,2.2,1.2,2.9c0.7,0.7,1.7,1,2.9,1c1,0,1.8-0.2,2.5-0.7s1.1-1.1,1.5-1.8l1.8,0.9
				c-0.2,0.5-0.5,1-0.8,1.4c-0.3,0.4-0.8,0.8-1.2,1.2c-0.5,0.3-1,0.6-1.6,0.8s-1.3,0.3-2.1,0.3c-1,0-1.8-0.2-2.6-0.5
				c-0.8-0.3-1.5-0.8-2.1-1.3s-1-1.3-1.3-2.1c-0.3-0.8-0.5-1.7-0.5-2.7c0-1,0.2-1.9,0.5-2.7s0.7-1.5,1.3-2.1c0.6-0.6,1.2-1.1,2-1.4
				c0.8-0.3,1.6-0.5,2.5-0.5c0.9,0,1.8,0.1,2.6,0.4c0.8,0.3,1.4,0.7,2,1.3s1,1.2,1.3,2s0.5,1.6,0.5,2.6c0,0.1,0,0.3,0,0.5
				c0,0.2,0,0.4,0,0.6H705.9z M709.8-22.9c-1.1,0-1.9,0.3-2.6,0.9s-1.1,1.5-1.2,2.6h7.8c-0.1-1.1-0.5-1.9-1.2-2.5
				C711.9-22.6,711-22.9,709.8-22.9z"/>
			<path d="M722.9-22.3h-0.6c-0.8,0-1.4,0.2-1.7,0.6c-0.4,0.4-0.5,1-0.5,1.8v8.1h-2.3v-12.8h2.3v1.2c0.2-0.4,0.6-0.7,1-0.9
				s1.1-0.4,1.8-0.3V-22.3z"/>
			<path d="M727.3-24.6h2.2v1.9h-2.2v10.9H725v-10.9h-1.3v-1.9h1.3v-0.8c0-0.6,0.1-1.1,0.2-1.6c0.1-0.5,0.3-0.9,0.6-1.2
				c0.3-0.3,0.7-0.6,1.1-0.8c0.5-0.2,1.1-0.3,1.7-0.3h0.8v1.9h-0.6c-0.3,0-0.6,0.1-0.8,0.2c-0.2,0.1-0.4,0.2-0.5,0.4
				c-0.1,0.2-0.2,0.4-0.2,0.6c0,0.2-0.1,0.5-0.1,0.8V-24.6z"/>
			<path d="M729.7-18.2c0-1,0.2-1.9,0.5-2.7c0.3-0.8,0.8-1.5,1.4-2.1s1.3-1.1,2.1-1.4c0.8-0.3,1.7-0.5,2.6-0.5c1,0,1.8,0.2,2.7,0.5
				s1.5,0.8,2.1,1.4s1,1.3,1.4,2.1c0.3,0.8,0.5,1.7,0.5,2.7s-0.2,1.8-0.5,2.7c-0.3,0.8-0.8,1.5-1.4,2.1s-1.3,1-2.1,1.4
				s-1.7,0.5-2.6,0.5c-1,0-1.8-0.2-2.7-0.5c-0.8-0.3-1.5-0.8-2.1-1.4s-1-1.3-1.4-2.1S729.7-17.2,729.7-18.2z M732-18.2
				c0,0.7,0.1,1.3,0.3,1.8c0.2,0.6,0.5,1,0.9,1.4c0.4,0.4,0.8,0.7,1.4,1c0.5,0.2,1.1,0.3,1.7,0.3c0.6,0,1.2-0.1,1.8-0.3
				c0.5-0.2,1-0.5,1.4-1c0.4-0.4,0.7-0.9,0.9-1.4c0.2-0.6,0.3-1.2,0.3-1.8c0-0.7-0.1-1.3-0.3-1.8c-0.2-0.6-0.5-1-0.9-1.5
				c-0.4-0.4-0.8-0.7-1.4-1c-0.5-0.2-1.1-0.3-1.7-0.3c-0.6,0-1.2,0.1-1.8,0.3c-0.5,0.2-1,0.5-1.4,1s-0.7,0.9-0.9,1.5
				C732.1-19.5,732-18.9,732-18.2z"/>
			<path d="M749.9-22.3h-0.6c-0.8,0-1.4,0.2-1.7,0.6c-0.4,0.4-0.5,1-0.5,1.8v8.1h-2.3v-12.8h2.3v1.2c0.2-0.4,0.6-0.7,1-0.9
				s1.1-0.4,1.8-0.3V-22.3z"/>
			<path d="M760.4-11.8h-2.3V-20c0-0.8-0.2-1.5-0.5-2s-0.9-0.7-1.6-0.7c-0.8,0-1.3,0.3-1.7,0.8c-0.4,0.5-0.6,1.2-0.6,2.1v8.1h-2.3
				v-12.8h2.3v1.2c0.1-0.1,0.2-0.3,0.4-0.4s0.4-0.3,0.6-0.4c0.2-0.1,0.5-0.2,0.8-0.3c0.3-0.1,0.7-0.1,1.1-0.1c0.8,0,1.5,0.2,2,0.5
				c0.5,0.3,0.9,0.7,1.1,1.2c0.3-0.5,0.7-0.9,1.2-1.2c0.5-0.3,1.2-0.5,2.1-0.5c0.7,0,1.4,0.1,1.9,0.3c0.5,0.2,1,0.6,1.3,1
				s0.6,0.9,0.7,1.4c0.2,0.5,0.2,1.1,0.2,1.7v8.5h-2.3V-20c0-0.8-0.2-1.5-0.5-2c-0.4-0.5-0.9-0.7-1.7-0.7c-0.7,0-1.3,0.2-1.7,0.7
				s-0.6,1.1-0.6,1.9V-11.8z"/>
			<path d="M768.9-15.9c0-0.6,0.1-1.2,0.3-1.7c0.2-0.5,0.5-1,0.9-1.3c0.4-0.4,0.8-0.7,1.4-0.9s1.1-0.3,1.8-0.3
				c0.7,0,1.2,0.1,1.7,0.3c0.4,0.2,0.8,0.4,1,0.6v-1.1c0-0.8-0.2-1.5-0.6-1.9c-0.4-0.4-0.9-0.7-1.7-0.7c-0.8,0-1.3,0.2-1.6,0.6
				c-0.3,0.4-0.5,0.9-0.5,1.4h-2.1c0-0.6,0.1-1.1,0.3-1.6c0.2-0.5,0.5-0.9,0.8-1.2c0.4-0.3,0.8-0.6,1.3-0.8c0.5-0.2,1.2-0.3,1.9-0.3
				c0.8,0,1.5,0.1,2.1,0.3c0.6,0.2,1,0.5,1.4,0.9c0.4,0.4,0.6,0.9,0.8,1.5s0.3,1.2,0.3,1.9v8.3h-2v-1c-0.3,0.4-0.7,0.6-1.2,0.9
				c-0.5,0.2-1.1,0.3-1.7,0.3c-0.6,0-1.2-0.1-1.7-0.3c-0.5-0.2-1-0.5-1.4-0.9c-0.4-0.4-0.7-0.8-0.9-1.4
				C769-14.6,768.9-15.2,768.9-15.9z M771.1-15.9c0,0.7,0.2,1.3,0.7,1.7c0.4,0.5,1,0.7,1.7,0.7c0.7,0,1.3-0.2,1.8-0.7
				c0.5-0.5,0.7-1,0.7-1.7c0-0.7-0.2-1.3-0.7-1.7c-0.5-0.4-1.1-0.7-1.8-0.7c-0.7,0-1.3,0.2-1.7,0.7
				C771.3-17.2,771.1-16.6,771.1-15.9z"/>
			<path d="M787.4-20c0-0.9-0.2-1.5-0.6-2c-0.4-0.5-0.9-0.7-1.7-0.7c-0.8,0-1.4,0.3-1.8,0.8c-0.4,0.5-0.6,1.2-0.6,2v8.2h-2.3v-12.8
				h2.3v1.2c0.1-0.1,0.2-0.3,0.4-0.4s0.4-0.3,0.6-0.4c0.2-0.1,0.5-0.2,0.8-0.3s0.7-0.1,1.1-0.1c0.7,0,1.4,0.1,1.9,0.4
				c0.5,0.2,0.9,0.6,1.2,1s0.6,0.9,0.7,1.4c0.1,0.5,0.2,1.1,0.2,1.8v8.5h-2.3V-20z"/>
			<path d="M798-13.6c0.4,0,0.8,0,1.2-0.1c0.3-0.1,0.7-0.2,0.9-0.4s0.5-0.3,0.7-0.5s0.4-0.3,0.6-0.5l1.3,1.4
				c-0.2,0.2-0.4,0.5-0.7,0.7s-0.6,0.5-1,0.7c-0.4,0.2-0.8,0.4-1.3,0.5c-0.5,0.1-1.1,0.2-1.7,0.2c-1,0-1.9-0.2-2.7-0.5
				c-0.8-0.3-1.5-0.8-2.1-1.4c-0.6-0.6-1-1.3-1.3-2.1c-0.3-0.8-0.5-1.7-0.5-2.6s0.2-1.8,0.5-2.6c0.3-0.8,0.8-1.5,1.4-2.1
				c0.6-0.6,1.3-1.1,2.1-1.4c0.8-0.3,1.7-0.5,2.6-0.5c0.6,0,1.2,0.1,1.7,0.2c0.5,0.1,1,0.3,1.4,0.5c0.4,0.2,0.7,0.4,1,0.7
				s0.5,0.5,0.7,0.7l-1.4,1.4c-0.3-0.4-0.8-0.7-1.3-1c-0.5-0.3-1.2-0.5-2-0.5c-0.6,0-1.2,0.1-1.7,0.3c-0.5,0.2-1,0.6-1.3,1
				s-0.7,0.9-0.9,1.5c-0.2,0.6-0.3,1.2-0.3,1.8c0,0.7,0.1,1.3,0.3,1.9c0.2,0.6,0.5,1,0.9,1.4c0.4,0.4,0.8,0.7,1.4,0.9
				C796.8-13.7,797.4-13.6,798-13.6z"/>
			<path d="M805.4-17.5c0.1,1.2,0.5,2.2,1.2,2.9c0.7,0.7,1.7,1,2.9,1c1,0,1.8-0.2,2.5-0.7s1.1-1.1,1.5-1.8l1.8,0.9
				c-0.2,0.5-0.5,1-0.8,1.4c-0.3,0.4-0.8,0.8-1.2,1.2c-0.5,0.3-1,0.6-1.6,0.8s-1.3,0.3-2.1,0.3c-1,0-1.8-0.2-2.6-0.5
				c-0.8-0.3-1.5-0.8-2.1-1.3s-1-1.3-1.3-2.1c-0.3-0.8-0.5-1.7-0.5-2.7c0-1,0.2-1.9,0.5-2.7s0.7-1.5,1.3-2.1c0.6-0.6,1.2-1.1,2-1.4
				c0.8-0.3,1.6-0.5,2.5-0.5c0.9,0,1.8,0.1,2.6,0.4c0.8,0.3,1.4,0.7,2,1.3s1,1.2,1.3,2s0.5,1.6,0.5,2.6c0,0.1,0,0.3,0,0.5
				c0,0.2,0,0.4,0,0.6H805.4z M809.2-22.9c-1.1,0-1.9,0.3-2.6,0.9s-1.1,1.5-1.2,2.6h7.8c-0.1-1.1-0.5-1.9-1.2-2.5
				C811.3-22.6,810.4-22.9,809.2-22.9z"/>
		</g>
	</g>
	<g>
		<rect x="688.1" y="-113.4" class="st8" width="283.7" height="138.5"/>
		<g class="st9">
			<path class="st1" d="M707.3-89.3h-3.2v-10.4h-10.9v10.4h-3.2v-22.8h3.2v9.5h10.9v-9.5h3.2V-89.3z"/>
			<path class="st1" d="M710.9-89.3v-22.8h9.9v3h-6.7v6.6h6.5v3h-6.5v7.2h6.8v3H710.9z"/>
			<path class="st1" d="M736.8-96.8h-8.6l-2.8,7.5h-3.2l8.6-22.8h3.4l9,22.8h-3.4L736.8-96.8z M729.2-99.6h6.5l-3.3-8.4L729.2-99.6z
				"/>
			<path class="st1" d="M748.6-112.1c1.8,0,3.5,0.3,4.9,0.8s2.7,1.3,3.7,2.3c1,1,1.8,2.2,2.3,3.6c0.5,1.4,0.8,3,0.8,4.7
				c0,1.7-0.3,3.3-0.8,4.7c-0.5,1.4-1.3,2.6-2.3,3.6c-1,1-2.2,1.8-3.7,2.3c-1.5,0.6-3.1,0.8-4.9,0.8h-3.8v-22.8H748.6z M748-92.2
				h0.7c2.6,0,4.6-0.7,6.1-2.2c1.4-1.5,2.1-3.6,2.1-6.3c0-2.7-0.7-4.8-2.1-6.3c-1.4-1.5-3.4-2.2-6.1-2.2H748V-92.2z"/>
		</g>
	</g>
	<line class="st10" x1="1300.6" y1="-135.8" x2="688.1" y2="-137.5"/>
	<circle class="st4" cx="676.8" cy="-45.8" r="5.5"/>
</g>
</svg>
