<?xml version="1.0" encoding="utf-8"?>
<!-- Generator: Adobe Illustrator 19.0.0, SVG Export Plug-In . SVG Version: 6.00 Build 0)  -->
<svg version="1.1" id="Capa_1" xmlns="http://www.w3.org/2000/svg" xmlns:xlink="http://www.w3.org/1999/xlink" x="0px" y="0px"
	 viewBox="570 -225.3 1440 1451.3" style="enable-background:new 570 -225.3 1440 1451.3;" xml:space="preserve">
<style type="text/css">
	.st0{fill:#F4F4F4;}
	.st1{fill:#181716;}
	.st2{fill:#FCD7A6;}
	.st3{fill:#FBE2E0;}
	.st4{fill:#F29700;}
	.st5{fill:#F8D2D0;}
	.st6{fill:none;stroke:#F0A0A0;stroke-width:6.0028;stroke-linecap:round;stroke-miterlimit:10;}
	.st7{fill:#F0A0A0;}
	.st8{fill:none;}
	.st9{enable-background:new    ;}
	.st10{fill:none;stroke:#181716;stroke-width:1.5003;stroke-miterlimit:10;}
</style>
<g id="bg">
	<rect x="570" y="-226" class="st0" width="1440" height="1452.7"/>
	<rect x="570" y="1019.3" class="st1" width="1440" height="207.3"/>
</g>
<g id="cos_1_">
	<g>
		<g>
			<path class="st2" d="M1292.1-169c-0.4,0-0.7,0-1,0s-0.7,0-1,0c-44.9-0.4-62.4,35.1-59.8,80.4c2.5,44.3,19.6,91.2,60.6,92.1l0,0
				c0.1,0,0.2,0,0.3,0s0.2,0,0.3,0l0,0c41-0.9,58.1-47.8,60.6-92.1C1354.6-133.9,1337.1-169.4,1292.1-169z"/>
			<g>
				
					<ellipse transform="matrix(-0.1335 0.991 -0.991 -0.1335 1459.4005 -1418.7842)" class="st2" cx="1349.9" cy="-71.4" rx="23.8" ry="8"/>
				
					<ellipse transform="matrix(-0.991 0.1335 -0.1335 -0.991 2444.3391 -306.5794)" class="st2" cx="1232.4" cy="-71.3" rx="8" ry="23.8"/>
			</g>
			<rect x="1256" y="-28.8" class="st2" width="70.1" height="73.1"/>
			<g>
				<path class="st2" d="M1304,77.3l-48.1-73.8l0,0c0,20.9-16.9,37.8-37.8,37.8l0,0L1304,77.3z"/>
				<path class="st2" d="M1278.2,77.3l48.1-73.8l0,0c0,20.9,16.9,37.8,37.8,37.8l0,0L1278.2,77.3z"/>
			</g>
		</g>
		<g>
			<rect x="1201.5" y="41" class="st2" width="178.7" height="281.4"/>
			<path class="st2" d="M1174.1,79.5h233.4v86.2c0,35.4-28.7,64-64,64h-105.4c-35.4,0-64-28.7-64-64V79.5z"/>
			<path class="st2" d="M1128.3,162.8h325.1v-59.3c0-34.5-28-62.4-62.4-62.4h-200.3c-34.5,0-62.4,28-62.4,62.4V162.8z"/>
			<path class="st2" d="M1380.2,322.4h-89.4v196.1h127.1c0,0,0-24.5,0-74.5C1417.9,396.1,1380.2,322.4,1380.2,322.4z"/>
			<path class="st2" d="M1201.4,322.4h89.4v196.1h-127.1c0,0,0-24.5,0-74.5C1163.7,396.1,1201.4,322.4,1201.4,322.4z"/>
			<g>
				<path class="st2" d="M1376.1,769.6c0,19.3-77.1,0-77.1,0v-251c0,0,118.8-29.7,118.8,0C1417.9,625.3,1376.1,740.5,1376.1,769.6z"
					/>
				<path class="st2" d="M1355,1084.4h-41l-15-314.8h76.9c0,0,6.4,92.3,6.4,123.2C1382.3,979.4,1355,1084.4,1355,1084.4z"/>
				<path class="st2" d="M1362.8,1179.4c-0.1,2.3-2.4,6-4.9,9.3c-3.8,5-9.7,7.8-15.9,7.8h-29.7c-7,0-12.4-6.1-11.4-13.1l13.1-99h41
					C1354.9,1084.4,1363.8,1150.2,1362.8,1179.4z"/>
			</g>
			<g>
				<path class="st2" d="M1205.5,769.6c0,19.3,77.1,0,77.1,0v-251c0,0-118.8-29.7-118.8,0C1163.7,625.3,1205.5,740.5,1205.5,769.6z"
					/>
				<path class="st2" d="M1226.6,1084.4h41l14.9-314.8h-76.9c0,0-6.4,92.3-6.4,123.2C1199.3,979.4,1226.6,1084.4,1226.6,1084.4z"/>
				<path class="st2" d="M1218.8,1179.4c0.1,2.3,2.4,6,4.9,9.3c3.8,5,9.7,7.8,15.9,7.8h29.7c7,0,12.4-6.1,11.4-13.1l-13.1-99h-41
					C1226.7,1084.4,1217.8,1150.2,1218.8,1179.4z"/>
			</g>
			<polygon class="st2" points="1473.8,312 1427.9,317.4 1400.1,100 1453.2,93.8 			"/>
			<path class="st2" d="M1488.6,496.7l-27,3.1l-33.7-182.5c0,0,42.4-39.8,43.8-27.7c2.5,21.5,8.9,43.4,12.1,73.1
				C1487.4,396.1,1488.6,496.7,1488.6,496.7z"/>
			<path class="st2" d="M1488.6,496.7v41.4c0,8.9-2.7,17.6-7.9,24.9l-32.9,46.8c-2.7,3.9-8,4.9-11.9,2.3l0,0
				c-3.7-2.4-5-7.1-3.1-11.1l20.4-42.3l-2.8-15.3l-14.6,28.8c-0.7,1.3-2.2,2-3.7,1.6l0,0c-1.5-0.4-2.5-1.9-2.3-3.4l3.1-27.7
				c0.8-7.2,3.3-14.1,7.4-20.1l21.2-22.9L1488.6,496.7z"/>
			<g>
				<polygon class="st2" points="1108.4,312 1154.3,317.4 1182.1,100 1129,93.8 				"/>
				<path class="st2" d="M1093.6,496.7l27,3.1l33.7-182.5c0,0-42.4-39.8-43.8-27.7c-2.5,21.5-8.9,43.4-12.1,73.1
					C1094.8,396.1,1093.6,496.7,1093.6,496.7z"/>
				<path class="st2" d="M1093.6,496.7v41.4c0,8.9,2.7,17.6,7.9,24.9l32.9,46.8c2.7,3.9,8,4.9,11.9,2.3l0,0c3.7-2.4,5-7.1,3.1-11.1
					l-20.4-42.2l2.8-15.3l14.6,28.8c0.7,1.3,2.2,2,3.7,1.6l0,0c1.5-0.4,2.5-1.9,2.3-3.4l-3.1-27.7c-0.8-7.2-3.3-14.1-7.4-20.1
					l-21.2-22.9L1093.6,496.7z"/>
			</g>
		</g>
	</g>
	<g>
		<g>
			<path class="st3" d="M1308.6,47.7L1308.6,47.7c3.9-2.5,8.4-3.9,13.1-3.9h6.3c7.9,0.5,12.9,3.1,16,7.1
				c21.4,27.7,48.6,65,55.8,114.3c1.7,11.9-15.2,35.7-19.8,39.1c-55.8,41.5-87.2-27.9-87.2-27.9l5-109.7
				C1298.1,59,1302.2,51.9,1308.6,47.7z"/>
			<circle class="st3" cx="1345.2" cy="170.4" r="54.6"/>
		</g>
		<g>
			<path class="st3" d="M1274.4,47.7L1274.4,47.7c-3.9-2.5-8.4-3.9-13.1-3.9h-6.3c-7.9,0.5-12.9,3.1-16,7.1
				c-21.4,27.7-48.6,65-55.8,114.3c-1.7,11.9,15.2,35.7,19.8,39.1c55.8,41.5,87.2-27.9,87.2-27.9l17.6-99l-22.5-10.6
				C1284.9,59,1280.8,51.9,1274.4,47.7z"/>
			<circle class="st3" cx="1237.8" cy="170.4" r="54.6"/>
		</g>
	</g>
	<path class="st4" d="M1291.1,490.1L1291.1,490.1c-30.3,0-54.9-24.6-54.9-54.9v-61.7c0-30.3,24.6-54.9,54.9-54.9l0,0
		c30.3,0,54.9,24.6,54.9,54.9v61.7C1346,465.5,1321.4,490.1,1291.1,490.1z"/>
	<g>
		<g>
			<g>
				<circle class="st5" cx="1258.7" cy="169.1" r="22.4"/>
				<circle class="st5" cx="1228.9" cy="179.9" r="24.4"/>
				<circle class="st5" cx="1267.6" cy="104.2" r="13.5"/>
				<rect x="1251.3" y="104.2" class="st5" width="29.9" height="61"/>
				<path class="st5" d="M1205.4,173.3c13.2-52.4,53.6-79.5,53.6-79.5l5.4,70.4C1264.5,164.1,1201.8,187.8,1205.4,173.3z"/>
			</g>
			<g>
				<circle class="st5" cx="1324.3" cy="169.1" r="22.4"/>
				<circle class="st5" cx="1354.1" cy="179.9" r="24.4"/>
				<circle class="st5" cx="1315.4" cy="104.2" r="13.5"/>
				<rect x="1301.8" y="104.2" class="st5" width="29.9" height="61"/>
				<path class="st5" d="M1377.6,173.3c-13.2-52.4-53.6-79.5-53.6-79.5l-5.4,70.4C1318.5,164.1,1381.2,187.8,1377.6,173.3z"/>
			</g>
		</g>
		<rect x="1284" y="43.3" class="st5" width="14.9" height="56.1"/>
		<g>
			
				<rect x="1301.7" y="87.8" transform="matrix(0.7071 -0.7071 0.7071 0.7071 301.5255 959.6183)" class="st5" width="14.9" height="56.1"/>
			
				<rect x="1266.4" y="87.8" transform="matrix(-0.7071 -0.7071 0.7071 -0.7071 2092.7034 1098.5027)" class="st5" width="14.9" height="56.1"/>
		</g>
	</g>
	<g>
		<path class="st6" d="M1459.2,535.5c0,0,20.9-17.7,20.3-35.7c-1.6-43.9,1.6-76-1.6-100.3c-8-60.9-24.9-73-27.9-100.5
			c-2.6-23.1,5-164.8-13-199.7c-19.1-36.9-65.2-41.5-97.4-33c-22.8,6-28.3,24.1-30.4,35.6c-1.6,8.8-1.8,16.5,2.7,35.8"/>
		<path class="st6" d="M1390.4,65.2c23.7,6.2,25.7,29.3,27.5,56.9s33.3,135.3,30.9,171.2c-2.4,35.9-1.1,91.7,6.5,115.8
			s21.6,54.8,23.8,80.9"/>
		<path class="st6" d="M1124.1,535.5c0,0-20.9-17.7-20.3-35.7c1.6-43.9-1.6-76,1.6-100.3c8-60.9,24.9-73,27.9-100.5
			c2.6-23.1-5-164.8,13-199.7c19.1-36.9,65.2-41.5,97.4-33c22.8,6,47.4,21.8,51.6,35.6c2.6,8.6,8.6,16.5,4.2,35.8"/>
		<path class="st6" d="M1192.9,65.2c-23.7,6.2-25.7,29.3-27.5,56.9s-33.3,135.3-30.9,171.2c2.4,35.9,1.1,91.7-6.5,115.8
			s-21.6,54.8-23.8,80.9"/>
		<path class="st6" d="M1339.5,66.4c0,0-23.1-47.7-24.2-62.9c-1.1-15.2,13.1-41.3,23.2-68.4c5.7-15.3,5-30.2,3.3-40.3
			c-1.3-7.6-6.4-14-13.5-16.9l-4.6-1.9"/>
		<line class="st6" x1="1315.4" y1="0.1" x2="1321.2" y2="75.7"/>
		<path class="st6" d="M1242.3,65.5c0,0,23.1-46.8,24.2-62s-13.1-41.3-23.2-68.4c-6.5-17.4-4.7-34.3-2.5-44.1
			c1.2-5.4,4.3-10.1,8.7-13.3l4.8-3.5"/>
		<line class="st6" x1="1266.5" y1="0.1" x2="1260.6" y2="72.3"/>
		<path class="st6" d="M1295.2,185.9c0,0-3.9,223.5,0.4,234.6c4.3,11.1,78.3,67.9,82.1,115c8.8,108-27.9,228.6-29.6,234.1
			c-6.6,21.4,19,145.2,13.3,195.2s-26.4,117.2-29.7,141.5c-3.2,24.3-5.6,54.3-5.6,54.3"/>
		<path class="st6" d="M1324.3,451.1c13,13.8,18.6,46.7,16.4,84.3c-2.1,37.6,8.4,197.7,2.4,249.2s-18.1,154.4-14.2,193
			c3.9,38.6,7.1,90.2,2.9,128.7"/>
		<path class="st6" d="M1294.1,417.1c-4.3,11.1-86.7,71.3-90.5,118.4c-8.8,108,27.9,228.6,29.6,234.1c6.6,21.4-19,145.2-13.3,195.2
			c5.7,50,26.4,117.2,29.7,141.5c3.2,24.3,5.6,54.3,5.6,54.3"/>
		<path class="st6" d="M1257.5,453.3c-13,13.8-19,44.6-16.9,82.2c2.1,37.6-8.4,197.7-2.4,249.2s18.1,154.4,14.2,193
			c-3.9,38.6-7.1,90.2-2.9,128.7"/>
	</g>
	<path class="st7" d="M1296.6,114.7c0,0,4.3,6.4,3.8,7.8c-0.4,1.4-3.7,2.6-7.2,11c-2.3,5.8,0.9,11.3-0.6,12.4
		c-1.6,1.1-5.7,7.9-6.9,10.2c-8.9,16.7,4,34.6,13.3,41.2c9.3,6.5,18.4,6.7,24.3,9.3c8.2,3.5,19,5.8,25.3-5.3c0,0,4.1-8.5-1-24.1
		c-2.9-8.9-6.4-15.4-8.1-17.8c-5.5-7.7-11.2-11.2-13.8-12.6c-1.4-0.7-0.8-3.8,2-5c2.8-1.3,6-0.3,6-0.3l1-4c0,0-3.9-1.3-5.8-0.9
		c-1.9,0.3,2.1-4.2,2.3-7.3c0,0-2.7-2.3-4.4-1.7c0,0-1,3.7-3.5,7.7c0,0,1-9.6-5.9-14.6c0,0,1.6-8.1,2.1-8.8c0,0-3.2-1.7-4.5-1.4
		c0,0-1.9,8.1-2.2,8.3c-0.3,0.2-0.9,1.2-1.5,0.2c-0.6-1-0.8-9.6-0.8-9.6l-4.4,0.5c0,0,1.9,9.3,0.7,9.8c-0.4,0.2-0.8,0.8-1.6,0.1
		c-2.1-1.8-4.3-6.9-4.3-7.3C1300.8,111.9,1296.6,114.7,1296.6,114.7z"/>
	<g>
		<circle class="st4" cx="1257.8" cy="-126.5" r="13.6"/>
		<circle class="st4" cx="1278.1" cy="-138.1" r="14.7"/>
		<circle class="st4" cx="1300.7" cy="-139.5" r="16.3"/>
		<circle class="st4" cx="1251.6" cy="-121" r="8.1"/>
		<circle class="st4" cx="1331.1" cy="-121" r="8.1"/>
		<circle class="st4" cx="1320.1" cy="-132.5" r="11"/>
		<rect x="1251.6" y="-126.5" class="st4" width="79.6" height="13.6"/>
		<rect x="1277" y="-135.5" class="st4" width="14.3" height="17.6"/>
	</g>
	<g>
		<g>
			<rect x="1531.4" y="614.8" class="st8" width="360.9" height="195.4"/>
			<g class="st9">
				<path class="st1" d="M1674.1,619.8v12.6h-2.3v-16.6h2.4l8.5,12.7v-12.7h2.3v16.6h-2.4L1674.1,619.8z"/>
				<path class="st1" d="M1686.9,628.3c0-0.6,0.1-1.2,0.3-1.7c0.2-0.5,0.5-1,0.9-1.3s0.8-0.7,1.4-0.9s1.1-0.3,1.8-0.3
					c0.7,0,1.2,0.1,1.7,0.3s0.8,0.4,1,0.6v-1.1c0-0.8-0.2-1.5-0.6-1.9c-0.4-0.4-0.9-0.7-1.7-0.7c-0.8,0-1.3,0.2-1.6,0.6
					c-0.3,0.4-0.5,0.9-0.5,1.4h-2.1c0-0.6,0.1-1.1,0.3-1.6c0.2-0.5,0.5-0.9,0.8-1.2c0.4-0.3,0.8-0.6,1.3-0.8
					c0.5-0.2,1.2-0.3,1.9-0.3c0.8,0,1.5,0.1,2.1,0.3c0.6,0.2,1,0.5,1.4,0.9c0.4,0.4,0.6,0.9,0.8,1.5s0.3,1.2,0.3,1.9v8.3h-2v-1
					c-0.3,0.4-0.7,0.6-1.2,0.9c-0.5,0.2-1.1,0.3-1.7,0.3c-0.6,0-1.2-0.1-1.7-0.3c-0.5-0.2-1-0.5-1.4-0.9c-0.4-0.4-0.7-0.8-0.9-1.4
					C1687.1,629.5,1686.9,628.9,1686.9,628.3z M1689.1,628.2c0,0.7,0.2,1.3,0.7,1.7c0.4,0.5,1,0.7,1.7,0.7c0.7,0,1.3-0.2,1.8-0.7
					c0.5-0.5,0.7-1,0.7-1.7c0-0.7-0.2-1.3-0.7-1.7c-0.5-0.4-1.1-0.7-1.8-0.7c-0.7,0-1.3,0.2-1.7,0.7
					C1689.4,627,1689.1,627.6,1689.1,628.2z"/>
				<path class="st1" d="M1699.6,618.3c-0.4,0-0.8-0.1-1.1-0.4c-0.3-0.3-0.4-0.7-0.4-1.1c0-0.4,0.1-0.8,0.4-1.1
					c0.3-0.3,0.7-0.4,1.1-0.4c0.4,0,0.8,0.1,1.1,0.4c0.3,0.3,0.5,0.6,0.5,1.1c0,0.4-0.2,0.8-0.5,1.1
					C1700.4,618.1,1700.1,618.3,1699.6,618.3z M1700.8,632.4h-2.3v-12.8h2.3V632.4z"/>
				<path class="st1" d="M1708.2,627.6l-3.7,4.8h-2.5l4.9-6.6l-4.7-6.2h2.7l3.3,4.4l3.3-4.4h2.6l-4.7,6.2l4.9,6.6h-2.6L1708.2,627.6
					z"/>
				<path class="st1" d="M1716.3,626.6c0.1,1.2,0.5,2.2,1.2,2.9c0.7,0.7,1.7,1,2.9,1c1,0,1.8-0.2,2.5-0.7s1.1-1.1,1.5-1.8l1.8,0.9
					c-0.2,0.5-0.5,1-0.8,1.4c-0.3,0.4-0.8,0.8-1.2,1.2c-0.5,0.3-1,0.6-1.6,0.8c-0.6,0.2-1.3,0.3-2.1,0.3c-1,0-1.8-0.2-2.6-0.5
					c-0.8-0.3-1.5-0.8-2.1-1.3s-1-1.3-1.3-2.1c-0.3-0.8-0.5-1.7-0.5-2.7c0-1,0.2-1.9,0.5-2.7c0.3-0.8,0.7-1.5,1.3-2.1s1.2-1.1,2-1.4
					s1.6-0.5,2.5-0.5c0.9,0,1.8,0.1,2.6,0.4c0.8,0.3,1.4,0.7,2,1.3s1,1.2,1.3,2c0.3,0.8,0.5,1.6,0.5,2.6c0,0.1,0,0.3,0,0.5
					c0,0.2,0,0.4,0,0.6H1716.3z M1720.2,621.3c-1.1,0-1.9,0.3-2.6,0.9c-0.7,0.6-1.1,1.5-1.2,2.6h7.8c-0.1-1.1-0.5-1.9-1.2-2.5
					C1722.2,621.6,1721.3,621.3,1720.2,621.3z"/>
				<path class="st1" d="M1737.1,632.4h-2.3v-8.2c0-0.8-0.2-1.5-0.5-2s-0.9-0.7-1.6-0.7c-0.8,0-1.3,0.3-1.7,0.8
					c-0.4,0.5-0.6,1.2-0.6,2.1v8.1h-2.3v-12.8h2.3v1.2c0.1-0.1,0.2-0.3,0.4-0.4s0.4-0.3,0.6-0.4c0.2-0.1,0.5-0.2,0.8-0.3
					c0.3-0.1,0.7-0.1,1.1-0.1c0.8,0,1.5,0.2,2,0.5c0.5,0.3,0.9,0.7,1.1,1.2c0.3-0.5,0.7-0.9,1.2-1.2c0.5-0.3,1.2-0.5,2.1-0.5
					c0.7,0,1.4,0.1,1.9,0.3c0.5,0.2,1,0.6,1.3,1s0.6,0.9,0.7,1.4c0.2,0.5,0.2,1.1,0.2,1.7v8.5h-2.3v-8.3c0-0.8-0.2-1.5-0.5-2
					c-0.4-0.5-0.9-0.7-1.7-0.7c-0.7,0-1.3,0.2-1.7,0.7s-0.6,1.1-0.6,1.9V632.4z"/>
				<path class="st1" d="M1747.9,626.6c0.1,1.2,0.5,2.2,1.2,2.9c0.7,0.7,1.7,1,2.9,1c1,0,1.8-0.2,2.5-0.7s1.1-1.1,1.5-1.8l1.8,0.9
					c-0.2,0.5-0.5,1-0.8,1.4c-0.3,0.4-0.8,0.8-1.2,1.2c-0.5,0.3-1,0.6-1.6,0.8c-0.6,0.2-1.3,0.3-2.1,0.3c-1,0-1.8-0.2-2.6-0.5
					c-0.8-0.3-1.5-0.8-2.1-1.3s-1-1.3-1.3-2.1c-0.3-0.8-0.5-1.7-0.5-2.7c0-1,0.2-1.9,0.5-2.7c0.3-0.8,0.7-1.5,1.3-2.1s1.2-1.1,2-1.4
					s1.6-0.5,2.5-0.5c0.9,0,1.8,0.1,2.6,0.4c0.8,0.3,1.4,0.7,2,1.3s1,1.2,1.3,2c0.3,0.8,0.5,1.6,0.5,2.6c0,0.1,0,0.3,0,0.5
					c0,0.2,0,0.4,0,0.6H1747.9z M1751.8,621.3c-1.1,0-1.9,0.3-2.6,0.9c-0.7,0.6-1.1,1.5-1.2,2.6h7.8c-0.1-1.1-0.5-1.9-1.2-2.5
					C1753.8,621.6,1752.9,621.3,1751.8,621.3z"/>
				<path class="st1" d="M1766.6,624.1c0-0.9-0.2-1.5-0.6-2c-0.4-0.5-0.9-0.7-1.7-0.7c-0.8,0-1.4,0.3-1.8,0.8
					c-0.4,0.5-0.6,1.2-0.6,2v8.2h-2.3v-12.8h2.3v1.2c0.1-0.1,0.2-0.3,0.4-0.4s0.4-0.3,0.6-0.4c0.2-0.1,0.5-0.2,0.8-0.3
					s0.7-0.1,1.1-0.1c0.7,0,1.4,0.1,1.9,0.4c0.5,0.2,0.9,0.6,1.2,1s0.6,0.9,0.7,1.4c0.1,0.5,0.2,1.1,0.2,1.8v8.5h-2.3V624.1z"/>
				<path class="st1" d="M1773.6,619.5h2.4v1.9h-2.4v7.3c0,0.6,0.1,1,0.3,1.3c0.2,0.3,0.6,0.4,1.2,0.4h0.9v1.9c-0.1,0-0.3,0-0.5,0.1
					c-0.3,0-0.6,0.1-0.9,0.1c-1.2,0-2-0.3-2.5-0.8s-0.7-1.4-0.7-2.4v-7.8h-1.3v-1.9h1.3v-2h2.3V619.5z"/>
				<path class="st1" d="M1783.6,636.6h-2.3v-17h2.2v1.8c0.2-0.3,0.4-0.5,0.7-0.8c0.3-0.2,0.6-0.5,1-0.7c0.4-0.2,0.8-0.3,1.3-0.5
					c0.5-0.1,1-0.2,1.5-0.2c1,0,1.8,0.2,2.6,0.5c0.8,0.3,1.5,0.8,2,1.4c0.6,0.6,1,1.3,1.3,2.1c0.3,0.8,0.5,1.7,0.5,2.7
					c0,0.9-0.2,1.8-0.5,2.6c-0.3,0.8-0.7,1.5-1.3,2.1c-0.6,0.6-1.3,1.1-2.1,1.4c-0.8,0.3-1.7,0.5-2.7,0.5c-0.6,0-1.1-0.1-1.5-0.2
					c-0.5-0.1-0.9-0.3-1.2-0.4c-0.4-0.2-0.7-0.4-0.9-0.6c-0.3-0.2-0.5-0.4-0.6-0.6V636.6z M1783.5,626c0,0.7,0.1,1.3,0.3,1.8
					c0.2,0.6,0.5,1,0.9,1.5c0.4,0.4,0.8,0.7,1.4,0.9c0.5,0.2,1.1,0.3,1.8,0.3c0.6,0,1.2-0.1,1.8-0.3c0.5-0.2,1-0.5,1.4-0.9
					s0.7-0.9,0.9-1.5c0.2-0.6,0.3-1.2,0.3-1.8c0-0.7-0.1-1.3-0.3-1.8c-0.2-0.6-0.5-1-0.9-1.5c-0.4-0.4-0.8-0.7-1.4-1
					c-0.5-0.2-1.1-0.3-1.8-0.3c-0.7,0-1.2,0.1-1.8,0.3c-0.5,0.2-1,0.6-1.4,1c-0.4,0.4-0.7,0.9-0.9,1.5
					C1783.6,624.7,1783.5,625.3,1783.5,626z"/>
				<path class="st1" d="M1801.3,621.8h-0.6c-0.8,0-1.4,0.2-1.7,0.6c-0.4,0.4-0.5,1-0.5,1.8v8.1h-2.3v-12.8h2.3v1.2
					c0.2-0.4,0.6-0.7,1-0.9s1.1-0.4,1.8-0.3V621.8z"/>
				<path class="st1" d="M1804,626.6c0.1,1.2,0.5,2.2,1.2,2.9c0.7,0.7,1.7,1,2.9,1c1,0,1.8-0.2,2.5-0.7s1.1-1.1,1.5-1.8l1.8,0.9
					c-0.2,0.5-0.5,1-0.8,1.4c-0.3,0.4-0.8,0.8-1.2,1.2c-0.5,0.3-1,0.6-1.6,0.8s-1.3,0.3-2.1,0.3c-1,0-1.8-0.2-2.6-0.5
					c-0.8-0.3-1.5-0.8-2.1-1.3s-1-1.3-1.3-2.1c-0.3-0.8-0.5-1.7-0.5-2.7c0-1,0.2-1.9,0.5-2.7s0.7-1.5,1.3-2.1c0.6-0.6,1.2-1.1,2-1.4
					c0.8-0.3,1.6-0.5,2.5-0.5c0.9,0,1.8,0.1,2.6,0.4c0.8,0.3,1.4,0.7,2,1.3s1,1.2,1.3,2s0.5,1.6,0.5,2.6c0,0.1,0,0.3,0,0.5
					c0,0.2,0,0.4,0,0.6H1804z M1807.9,621.3c-1.1,0-1.9,0.3-2.6,0.9s-1.1,1.5-1.2,2.6h7.8c-0.1-1.1-0.5-1.9-1.2-2.5
					C1809.9,621.6,1809,621.3,1807.9,621.3z"/>
				<path class="st1" d="M1824.8,632.4h-2.3v-8.2c0-0.8-0.2-1.5-0.5-2c-0.4-0.5-0.9-0.7-1.6-0.7c-0.8,0-1.3,0.3-1.7,0.8
					c-0.4,0.5-0.6,1.2-0.6,2.1v8.1h-2.3v-12.8h2.3v1.2c0.1-0.1,0.2-0.3,0.4-0.4c0.2-0.2,0.4-0.3,0.6-0.4c0.2-0.1,0.5-0.2,0.8-0.3
					c0.3-0.1,0.7-0.1,1.1-0.1c0.8,0,1.5,0.2,2,0.5c0.5,0.3,0.9,0.7,1.1,1.2c0.3-0.5,0.7-0.9,1.2-1.2c0.5-0.3,1.2-0.5,2.1-0.5
					c0.7,0,1.4,0.1,1.9,0.3c0.5,0.2,1,0.6,1.3,1s0.6,0.9,0.7,1.4c0.2,0.5,0.2,1.1,0.2,1.7v8.5h-2.3v-8.3c0-0.8-0.2-1.5-0.5-2
					c-0.4-0.5-0.9-0.7-1.7-0.7c-0.7,0-1.3,0.2-1.7,0.7s-0.6,1.1-0.6,1.9V632.4z"/>
				<path class="st1" d="M1833.3,628.3c0-0.6,0.1-1.2,0.3-1.7c0.2-0.5,0.5-1,0.9-1.3c0.4-0.4,0.8-0.7,1.4-0.9
					c0.5-0.2,1.1-0.3,1.8-0.3c0.7,0,1.2,0.1,1.7,0.3c0.4,0.2,0.8,0.4,1,0.6v-1.1c0-0.8-0.2-1.5-0.6-1.9c-0.4-0.4-0.9-0.7-1.7-0.7
					c-0.8,0-1.3,0.2-1.6,0.6c-0.3,0.4-0.5,0.9-0.5,1.4h-2.1c0-0.6,0.1-1.1,0.3-1.6c0.2-0.5,0.5-0.9,0.8-1.2c0.4-0.3,0.8-0.6,1.3-0.8
					c0.5-0.2,1.2-0.3,1.9-0.3c0.8,0,1.5,0.1,2.1,0.3c0.6,0.2,1,0.5,1.4,0.9c0.4,0.4,0.6,0.9,0.8,1.5c0.2,0.6,0.3,1.2,0.3,1.9v8.3h-2
					v-1c-0.3,0.4-0.7,0.6-1.2,0.9c-0.5,0.2-1.1,0.3-1.7,0.3c-0.6,0-1.2-0.1-1.7-0.3c-0.5-0.2-1-0.5-1.4-0.9
					c-0.4-0.4-0.7-0.8-0.9-1.4C1833.4,629.5,1833.3,628.9,1833.3,628.3z M1835.5,628.2c0,0.7,0.2,1.3,0.7,1.7c0.4,0.5,1,0.7,1.7,0.7
					c0.7,0,1.3-0.2,1.8-0.7c0.5-0.5,0.7-1,0.7-1.7c0-0.7-0.2-1.3-0.7-1.7s-1.1-0.7-1.8-0.7c-0.7,0-1.3,0.2-1.7,0.7
					C1835.7,627,1835.5,627.6,1835.5,628.2z"/>
				<path class="st1" d="M1847.3,619.5h2.4v1.9h-2.4v7.3c0,0.6,0.1,1,0.3,1.3c0.2,0.3,0.6,0.4,1.2,0.4h0.9v1.9c-0.1,0-0.3,0-0.5,0.1
					s-0.6,0.1-0.9,0.1c-1.2,0-2-0.3-2.5-0.8s-0.7-1.4-0.7-2.4v-7.8h-1.3v-1.9h1.3v-2h2.3V619.5z"/>
				<path class="st1" d="M1853.3,627.8c0,0.9,0.2,1.5,0.5,2c0.4,0.5,0.9,0.7,1.7,0.7s1.3-0.3,1.7-0.8c0.4-0.5,0.6-1.2,0.6-2v-8.2
					h2.3v12.8h-2.3v-1.2c-0.2,0.3-0.5,0.6-1,0.9s-1.1,0.4-1.9,0.4c-0.7,0-1.3-0.1-1.8-0.3s-0.9-0.6-1.2-1c-0.3-0.4-0.6-0.9-0.7-1.4
					c-0.1-0.5-0.2-1.1-0.2-1.8v-8.5h2.3V627.8z"/>
				<path class="st1" d="M1867.7,621.8h-0.6c-0.8,0-1.4,0.2-1.7,0.6c-0.4,0.4-0.5,1-0.5,1.8v8.1h-2.3v-12.8h2.3v1.2
					c0.2-0.4,0.6-0.7,1-0.9s1.1-0.4,1.8-0.3V621.8z"/>
			</g>
		</g>
		<g>
			<rect x="1525.6" y="519.2" class="st8" width="366.7" height="123.5"/>
			<g class="st9">
				<path class="st1" d="M1572.9,535.8h-8.6l-2.8,7.5h-3.2l8.6-22.8h3.4l9,22.8h-3.4L1572.9,535.8z M1565.3,533h6.5l-3.3-8.4
					L1565.3,533z"/>
				<path class="st1" d="M1593.5,526.7c0,1-0.2,1.9-0.5,2.7s-0.8,1.5-1.4,2s-1.3,1-2.1,1.3c-0.8,0.3-1.7,0.4-2.7,0.4h-2.7v10.3h-3.2
					v-22.8h5.9c2.1,0,3.8,0.5,5,1.5C1592.9,523.1,1593.5,524.6,1593.5,526.7z M1584.2,523.3v7h2.5c1.2,0,2-0.3,2.6-1
					c0.6-0.6,0.9-1.5,0.9-2.6c0-1.1-0.3-1.9-0.9-2.5c-0.6-0.6-1.5-0.9-2.6-0.9H1584.2z"/>
				<path class="st1" d="M1606.4,535.8h-8.6l-2.8,7.5h-3.2l8.6-22.8h3.4l9,22.8h-3.4L1606.4,535.8z M1598.9,533h6.5l-3.3-8.4
					L1598.9,533z"/>
				<path class="st1" d="M1627.1,526.7c0,1.4-0.3,2.6-0.9,3.6c-0.6,1-1.5,1.7-2.6,2.2l5.7,10.9h-3.5l-5.4-10.3h-2.7v10.3h-3.2v-22.8
					h5.9c2.1,0,3.8,0.5,5,1.6C1626.5,523.1,1627.1,524.6,1627.1,526.7z M1617.7,523.3v7h2.5c1.2,0,2-0.3,2.6-1
					c0.6-0.6,0.9-1.5,0.9-2.6c0-1.1-0.3-1.9-0.9-2.5c-0.6-0.6-1.5-0.9-2.6-0.9H1617.7z"/>
				<path class="st1" d="M1630.8,543.3v-22.8h9.9v3h-6.7v6.6h6.5v3h-6.5v7.2h6.8v3H1630.8z"/>
				<path class="st1" d="M1643.8,543.3v-22.8h3.2v19.8h6.6v3H1643.8z"/>
				<path class="st1" d="M1656,543.3v-22.8h3.2v19.8h6.6v3H1656z"/>
				<path class="st1" d="M1686,526.7c0,1.4-0.3,2.6-0.9,3.6s-1.5,1.7-2.6,2.2l5.7,10.9h-3.5l-5.4-10.3h-2.7v10.3h-3.2v-22.8h5.9
					c2.1,0,3.8,0.5,5,1.6C1685.4,523.1,1686,524.6,1686,526.7z M1676.6,523.3v7h2.5c1.2,0,2-0.3,2.6-1c0.6-0.6,0.9-1.5,0.9-2.6
					c0-1.1-0.3-1.9-0.9-2.5c-0.6-0.6-1.5-0.9-2.6-0.9H1676.6z"/>
				<path class="st1" d="M1689.7,543.3v-22.8h9.9v3h-6.7v6.6h6.5v3h-6.5v7.2h6.8v3H1689.7z"/>
				<path class="st1" d="M1715.3,526.7c0,1-0.2,1.9-0.5,2.7s-0.8,1.5-1.4,2s-1.3,1-2.1,1.3c-0.8,0.3-1.7,0.4-2.7,0.4h-2.7v10.3h-3.2
					v-22.8h5.9c2.1,0,3.8,0.5,5,1.5S1715.3,524.6,1715.3,526.7z M1706,523.3v7h2.5c1.2,0,2-0.3,2.6-1c0.6-0.6,0.9-1.5,0.9-2.6
					c0-1.1-0.3-1.9-0.9-2.5c-0.6-0.6-1.5-0.9-2.6-0.9H1706z"/>
				<path class="st1" d="M1730.4,526.7c0,1.4-0.3,2.6-0.9,3.6c-0.6,1-1.5,1.7-2.6,2.2l5.7,10.9h-3.5l-5.4-10.3h-2.7v10.3h-3.2v-22.8
					h5.9c2.1,0,3.8,0.5,5,1.6S1730.4,524.6,1730.4,526.7z M1721,523.3v7h2.5c1.2,0,2-0.3,2.6-1c0.6-0.6,0.9-1.5,0.9-2.6
					c0-1.1-0.3-1.9-0.9-2.5c-0.6-0.6-1.5-0.9-2.6-0.9H1721z"/>
				<path class="st1" d="M1732.4,531.9c0-1.7,0.3-3.3,0.9-4.8s1.4-2.7,2.4-3.8c1-1.1,2.3-1.9,3.7-2.5c1.4-0.6,3-0.9,4.7-0.9
					c1.7,0,3.3,0.3,4.8,0.9s2.7,1.4,3.7,2.5c1,1.1,1.8,2.3,2.4,3.8s0.9,3,0.9,4.7s-0.3,3.3-0.9,4.7s-1.4,2.7-2.4,3.8
					c-1,1.1-2.3,1.9-3.7,2.5c-1.4,0.6-3,0.9-4.7,0.9c-1.7,0-3.3-0.3-4.7-0.9c-1.4-0.6-2.7-1.4-3.7-2.5c-1-1.1-1.8-2.3-2.4-3.8
					C1732.6,535.2,1732.4,533.6,1732.4,531.9z M1735.8,531.9c0,1.3,0.2,2.5,0.6,3.6s1,2,1.7,2.8c0.7,0.8,1.6,1.4,2.6,1.8
					s2.1,0.7,3.4,0.7c1.3,0,2.4-0.2,3.4-0.7s1.9-1.1,2.6-1.8c0.7-0.8,1.3-1.7,1.7-2.8s0.6-2.3,0.6-3.6c0-1.3-0.2-2.5-0.6-3.5
					c-0.4-1.1-1-2-1.7-2.8c-0.7-0.8-1.6-1.4-2.6-1.8c-1-0.4-2.2-0.7-3.4-0.7c-1.3,0-2.4,0.2-3.4,0.7c-1,0.4-1.9,1.1-2.6,1.8
					c-0.7,0.8-1.3,1.7-1.7,2.8C1736,529.4,1735.8,530.6,1735.8,531.9z"/>
				<path class="st1" d="M1762.2,520.5c1.8,0,3.5,0.3,4.9,0.8s2.7,1.3,3.7,2.3c1,1,1.8,2.2,2.3,3.6s0.8,3,0.8,4.7
					c0,1.7-0.3,3.3-0.8,4.7s-1.3,2.6-2.3,3.6c-1,1-2.2,1.8-3.7,2.3c-1.5,0.6-3.1,0.8-4.9,0.8h-3.8v-22.8H1762.2z M1761.6,540.4h0.7
					c2.6,0,4.6-0.7,6.1-2.2c1.4-1.5,2.1-3.6,2.1-6.3c0-2.7-0.7-4.8-2.1-6.3c-1.4-1.5-3.4-2.2-6.1-2.2h-0.7V540.4z"/>
				<path class="st1" d="M1785.1,543.8c-1.5,0-2.8-0.2-3.8-0.6c-1.1-0.4-2-1-2.7-1.8c-0.7-0.8-1.2-1.7-1.6-2.9
					c-0.4-1.1-0.5-2.3-0.5-3.7v-14.2h3.2v14.2c0,1.8,0.4,3.3,1.3,4.4s2.2,1.7,4.1,1.7c1.8,0,3.1-0.6,4-1.7c0.9-1.1,1.4-2.6,1.4-4.4
					v-14.2h3.2v14.2c0,1.3-0.2,2.5-0.6,3.6c-0.4,1.1-0.9,2.1-1.7,2.9c-0.7,0.8-1.6,1.4-2.7,1.9
					C1787.7,543.5,1786.5,543.8,1785.1,543.8z"/>
				<path class="st1" d="M1815.5,540.8c-0.4,0.4-0.8,0.7-1.3,1.1c-0.5,0.4-1.1,0.7-1.7,1c-0.6,0.3-1.3,0.5-2.1,0.7
					c-0.8,0.2-1.6,0.3-2.4,0.3c-1.8,0-3.4-0.3-4.8-0.9c-1.5-0.6-2.7-1.4-3.7-2.5s-1.8-2.3-2.4-3.7c-0.6-1.5-0.8-3-0.8-4.8
					c0-1.7,0.3-3.3,0.9-4.8c0.6-1.5,1.4-2.7,2.4-3.8s2.3-1.9,3.7-2.5c1.4-0.6,3-0.9,4.8-0.9c1.5,0,2.9,0.2,4.1,0.7
					c1.2,0.5,2.3,1.1,3.3,1.9l-1.9,2.4c-0.7-0.6-1.5-1.1-2.4-1.4s-1.9-0.6-3.1-0.6c-1.3,0-2.4,0.2-3.4,0.7c-1,0.4-1.9,1.1-2.6,1.8
					c-0.7,0.8-1.3,1.7-1.7,2.8c-0.4,1.1-0.6,2.3-0.6,3.5c0,1.3,0.2,2.5,0.6,3.6s1,2,1.7,2.8s1.6,1.4,2.7,1.8c1,0.4,2.2,0.7,3.4,0.7
					c1.3,0,2.4-0.2,3.3-0.7c0.9-0.5,1.7-1,2.3-1.5L1815.5,540.8z"/>
				<path class="st1" d="M1824.4,523.5v19.8h-3.2v-19.8h-4.7v-3h12.6v3H1824.4z"/>
				<path class="st1" d="M1829.1,531.9c0-1.7,0.3-3.3,0.9-4.8s1.4-2.7,2.4-3.8c1-1.1,2.3-1.9,3.7-2.5c1.4-0.6,3-0.9,4.7-0.9
					c1.7,0,3.3,0.3,4.8,0.9s2.7,1.4,3.7,2.5c1,1.1,1.8,2.3,2.4,3.8s0.9,3,0.9,4.7s-0.3,3.3-0.9,4.7s-1.4,2.7-2.4,3.8
					c-1,1.1-2.3,1.9-3.7,2.5c-1.4,0.6-3,0.9-4.7,0.9c-1.7,0-3.3-0.3-4.7-0.9c-1.4-0.6-2.7-1.4-3.7-2.5c-1-1.1-1.8-2.3-2.4-3.8
					C1829.4,535.2,1829.1,533.6,1829.1,531.9z M1832.5,531.9c0,1.3,0.2,2.5,0.6,3.6s1,2,1.7,2.8c0.7,0.8,1.6,1.4,2.6,1.8
					s2.1,0.7,3.4,0.7c1.3,0,2.4-0.2,3.4-0.7s1.9-1.1,2.6-1.8c0.7-0.8,1.3-1.7,1.7-2.8s0.6-2.3,0.6-3.6c0-1.3-0.2-2.5-0.6-3.5
					c-0.4-1.1-1-2-1.7-2.8c-0.7-0.8-1.6-1.4-2.6-1.8c-1-0.4-2.2-0.7-3.4-0.7c-1.3,0-2.4,0.2-3.4,0.7c-1,0.4-1.9,1.1-2.6,1.8
					c-0.7,0.8-1.3,1.7-1.7,2.8C1832.7,529.4,1832.5,530.6,1832.5,531.9z"/>
				<path class="st1" d="M1867.7,526.7c0,1.4-0.3,2.6-0.9,3.6c-0.6,1-1.5,1.7-2.6,2.2l5.7,10.9h-3.5l-5.4-10.3h-2.7v10.3h-3.2v-22.8
					h5.9c2.1,0,3.8,0.5,5,1.6S1867.7,524.6,1867.7,526.7z M1858.3,523.3v7h2.5c1.2,0,2-0.3,2.6-1c0.6-0.6,0.9-1.5,0.9-2.6
					c0-1.1-0.3-1.9-0.9-2.5c-0.6-0.6-1.5-0.9-2.6-0.9H1858.3z"/>
			</g>
			<g class="st9">
				<path class="st1" d="M1788,580.8h-3.2V558h3.2V580.8z"/>
				<path class="st1" d="M1799.9,570.6v10.2h-3.2V558h10v3h-6.8v6.6h6.6v3H1799.9z"/>
				<path class="st1" d="M1809.5,580.8V558h9.9v3h-6.7v6.6h6.5v3h-6.5v7.2h6.8v3H1809.5z"/>
				<path class="st1" d="M1829.2,561v19.8h-3.2V561h-4.7v-3h12.6v3H1829.2z"/>
				<path class="st1" d="M1844.8,581.3c-1.5,0-2.8-0.2-3.8-0.6c-1.1-0.4-2-1-2.7-1.8c-0.7-0.8-1.2-1.7-1.6-2.9
					c-0.4-1.1-0.5-2.3-0.5-3.7V558h3.2v14.2c0,1.8,0.4,3.3,1.3,4.4s2.2,1.7,4.1,1.7c1.8,0,3.1-0.6,4-1.7c0.9-1.1,1.4-2.6,1.4-4.4
					V558h3.2v14.2c0,1.3-0.2,2.5-0.6,3.6c-0.4,1.1-0.9,2.1-1.7,2.9c-0.7,0.8-1.6,1.4-2.7,1.9C1847.4,581,1846.1,581.3,1844.8,581.3z
					"/>
				<path class="st1" d="M1859.6,563.4c0,0.8,0.2,1.4,0.6,1.9c0.4,0.5,0.9,0.9,1.6,1.3c0.7,0.3,1.4,0.6,2.1,0.9
					c0.7,0.3,1.4,0.6,2.1,1c1.2,0.6,2.2,1.4,2.9,2.3c0.7,1,1,2.2,1,3.7c0,1-0.2,1.9-0.5,2.7c-0.3,0.8-0.8,1.5-1.4,2.1
					c-0.6,0.6-1.3,1-2.2,1.4s-1.8,0.5-2.9,0.5c-1.3,0-2.4-0.2-3.3-0.6c-0.9-0.4-1.6-0.9-2.2-1.6c-0.5-0.7-0.9-1.4-1.2-2.3
					c-0.2-0.9-0.3-1.8-0.3-2.7h3.1c0,0.6,0.1,1.2,0.2,1.7c0.1,0.5,0.4,1,0.7,1.4c0.3,0.4,0.7,0.7,1.2,0.9c0.5,0.2,1.1,0.3,1.8,0.3
					c1.1,0,2-0.3,2.7-0.9c0.7-0.6,1.1-1.5,1.1-2.7c0-0.9-0.2-1.7-0.7-2.2c-0.4-0.5-1-1-1.8-1.4c-0.7-0.4-1.5-0.7-2.3-1
					c-0.8-0.3-1.5-0.6-2.3-1c-1-0.6-1.8-1.3-2.4-2.2c-0.6-0.9-0.8-2.1-0.8-3.4c0-0.8,0.1-1.6,0.4-2.3c0.3-0.7,0.7-1.4,1.3-1.9
					c0.6-0.5,1.2-1,2-1.3c0.8-0.3,1.7-0.5,2.7-0.5c1.2,0,2.2,0.2,3.1,0.5s1.5,0.8,2,1.4c0.5,0.6,0.9,1.3,1.1,2
					c0.2,0.8,0.3,1.6,0.3,2.4h-3c0-1-0.3-1.9-0.9-2.6c-0.6-0.7-1.4-1-2.5-1c-1.1,0-1.9,0.3-2.4,0.9
					C1859.8,561.8,1859.6,562.6,1859.6,563.4z"/>
			</g>
		</g>
		<g>
			<rect x="688.7" y="598.3" class="st8" width="538.6" height="128.5"/>
			<g class="st9">
				<path d="M690,615.8v-16.6h2.4v14.4h4.8v2.2H690z"/>
				<path d="M700,610.1c0.1,1.2,0.5,2.2,1.2,2.9c0.7,0.7,1.7,1,2.9,1c1,0,1.8-0.2,2.5-0.7s1.1-1.1,1.5-1.8l1.8,0.9
					c-0.2,0.5-0.5,1-0.8,1.4c-0.3,0.4-0.8,0.8-1.2,1.2c-0.5,0.3-1,0.6-1.6,0.8c-0.6,0.2-1.3,0.3-2.1,0.3c-1,0-1.8-0.2-2.6-0.5
					c-0.8-0.3-1.5-0.8-2.1-1.3s-1-1.3-1.3-2.1c-0.3-0.8-0.5-1.7-0.5-2.7c0-1,0.2-1.9,0.5-2.7c0.3-0.8,0.7-1.5,1.3-2.1
					c0.6-0.6,1.2-1.1,2-1.4c0.8-0.3,1.6-0.5,2.5-0.5c0.9,0,1.8,0.1,2.6,0.4c0.8,0.3,1.4,0.7,2,1.3s1,1.2,1.3,2
					c0.3,0.8,0.5,1.6,0.5,2.6c0,0.1,0,0.3,0,0.5c0,0.2,0,0.4,0,0.6H700z M703.9,604.7c-1.1,0-1.9,0.3-2.6,0.9
					c-0.7,0.6-1.1,1.5-1.2,2.6h7.8c-0.1-1.1-0.5-1.9-1.2-2.5C705.9,605,705,604.7,703.9,604.7z"/>
				<path d="M713.6,606.2c0,0.8,0.4,1.3,1.3,1.6c0.3,0.1,0.7,0.2,1,0.3s0.7,0.2,1,0.3c0.9,0.3,1.6,0.8,2.1,1.3
					c0.5,0.6,0.7,1.3,0.7,2.4c0,0.6-0.1,1.2-0.3,1.7c-0.2,0.5-0.5,0.9-0.9,1.2c-0.4,0.3-0.9,0.6-1.4,0.7c-0.5,0.2-1.1,0.2-1.7,0.2
					c-0.8,0-1.5-0.1-2.1-0.3c-0.6-0.2-1-0.5-1.3-0.9c-0.3-0.4-0.6-0.8-0.7-1.3s-0.2-1-0.2-1.6h2.2c0,0.3,0,0.6,0.1,0.9
					c0.1,0.3,0.2,0.5,0.4,0.7s0.4,0.4,0.6,0.5s0.6,0.2,1,0.2c0.6,0,1-0.1,1.5-0.4c0.4-0.3,0.6-0.7,0.6-1.3c0-0.5-0.1-0.9-0.4-1.2
					c-0.3-0.3-0.6-0.5-1.1-0.7c-0.4-0.1-0.7-0.2-1.1-0.3c-0.4-0.1-0.8-0.2-1.2-0.4c-0.8-0.4-1.4-0.8-1.8-1.4c-0.4-0.6-0.5-1.2-0.5-2
					c0-0.5,0.1-1,0.3-1.4c0.2-0.4,0.5-0.8,0.8-1.1c0.4-0.3,0.8-0.5,1.3-0.7c0.5-0.2,1-0.3,1.6-0.3c1.3,0,2.3,0.4,3,1.1
					c0.6,0.7,1,1.7,1,2.8h-2.1c0-0.7-0.2-1.2-0.5-1.5s-0.8-0.6-1.4-0.6c-0.5,0-1,0.1-1.3,0.4S713.6,605.7,713.6,606.2z"/>
				<path d="M722.5,601.7c-0.4,0-0.8-0.1-1.1-0.4c-0.3-0.3-0.4-0.7-0.4-1.1c0-0.4,0.1-0.8,0.4-1.1c0.3-0.3,0.7-0.4,1.1-0.4
					c0.4,0,0.8,0.1,1.1,0.4c0.3,0.3,0.5,0.6,0.5,1.1c0,0.4-0.2,0.8-0.5,1.1C723.3,601.6,722.9,601.7,722.5,601.7z M723.7,615.8h-2.3
					V603h2.3V615.8z"/>
				<path d="M725.4,609.4c0-1,0.2-1.9,0.5-2.7c0.3-0.8,0.8-1.5,1.4-2.1c0.6-0.6,1.3-1.1,2.1-1.4c0.8-0.3,1.7-0.5,2.6-0.5
					c1,0,1.8,0.2,2.7,0.5s1.5,0.8,2.1,1.4c0.6,0.6,1,1.3,1.4,2.1c0.3,0.8,0.5,1.7,0.5,2.7s-0.2,1.8-0.5,2.7
					c-0.3,0.8-0.8,1.5-1.4,2.1c-0.6,0.6-1.3,1-2.1,1.4c-0.8,0.3-1.7,0.5-2.6,0.5c-1,0-1.8-0.2-2.7-0.5c-0.8-0.3-1.5-0.8-2.1-1.4
					c-0.6-0.6-1-1.3-1.4-2.1C725.6,611.3,725.4,610.4,725.4,609.4z M727.7,609.4c0,0.7,0.1,1.3,0.3,1.8c0.2,0.6,0.5,1,0.9,1.4
					c0.4,0.4,0.8,0.7,1.4,1c0.5,0.2,1.1,0.3,1.7,0.3c0.6,0,1.2-0.1,1.8-0.3c0.5-0.2,1-0.5,1.4-1c0.4-0.4,0.7-0.9,0.9-1.4
					c0.2-0.6,0.3-1.2,0.3-1.8c0-0.7-0.1-1.3-0.3-1.8c-0.2-0.6-0.5-1-0.9-1.5s-0.8-0.7-1.4-1c-0.5-0.2-1.1-0.3-1.7-0.3
					c-0.6,0-1.2,0.1-1.8,0.3c-0.5,0.2-1,0.5-1.4,1c-0.4,0.4-0.7,0.9-0.9,1.5C727.8,608.1,727.7,608.7,727.7,609.4z"/>
				<path d="M747.3,607.6c0-0.9-0.2-1.5-0.6-2c-0.4-0.5-0.9-0.7-1.7-0.7c-0.8,0-1.4,0.3-1.8,0.8c-0.4,0.5-0.6,1.2-0.6,2v8.2h-2.3
					V603h2.3v1.2c0.1-0.1,0.2-0.3,0.4-0.4c0.2-0.2,0.4-0.3,0.6-0.4c0.2-0.1,0.5-0.2,0.8-0.3c0.3-0.1,0.7-0.1,1.1-0.1
					c0.7,0,1.4,0.1,1.9,0.4c0.5,0.2,0.9,0.6,1.2,1c0.3,0.4,0.6,0.9,0.7,1.4c0.1,0.5,0.2,1.1,0.2,1.8v8.5h-2.3V607.6z"/>
				<path d="M753.7,606.2c0,0.8,0.4,1.3,1.3,1.6c0.3,0.1,0.7,0.2,1,0.3s0.7,0.2,1,0.3c0.9,0.3,1.6,0.8,2.1,1.3
					c0.5,0.6,0.7,1.3,0.7,2.4c0,0.6-0.1,1.2-0.3,1.7c-0.2,0.5-0.5,0.9-0.9,1.2c-0.4,0.3-0.9,0.6-1.4,0.7c-0.5,0.2-1.1,0.2-1.7,0.2
					c-0.8,0-1.5-0.1-2.1-0.3c-0.6-0.2-1-0.5-1.3-0.9c-0.3-0.4-0.6-0.8-0.7-1.3s-0.2-1-0.2-1.6h2.2c0,0.3,0,0.6,0.1,0.9
					c0.1,0.3,0.2,0.5,0.4,0.7s0.4,0.4,0.6,0.5s0.6,0.2,1,0.2c0.6,0,1-0.1,1.5-0.4c0.4-0.3,0.6-0.7,0.6-1.3c0-0.5-0.1-0.9-0.4-1.2
					c-0.3-0.3-0.6-0.5-1.1-0.7c-0.4-0.1-0.7-0.2-1.1-0.3c-0.4-0.1-0.8-0.2-1.2-0.4c-0.8-0.4-1.4-0.8-1.8-1.4c-0.4-0.6-0.5-1.2-0.5-2
					c0-0.5,0.1-1,0.3-1.4c0.2-0.4,0.5-0.8,0.8-1.1c0.4-0.3,0.8-0.5,1.3-0.7c0.5-0.2,1-0.3,1.6-0.3c1.3,0,2.3,0.4,3,1.1
					c0.6,0.7,1,1.7,1,2.8h-2.1c0-0.7-0.2-1.2-0.5-1.5s-0.8-0.6-1.4-0.6c-0.5,0-1,0.1-1.3,0.4S753.7,605.7,753.7,606.2z"/>
				<path d="M767.5,620h-2.3v-17h2.2v1.8c0.2-0.3,0.4-0.5,0.7-0.8c0.3-0.2,0.6-0.5,1-0.7c0.4-0.2,0.8-0.3,1.3-0.5s1-0.2,1.5-0.2
					c1,0,1.8,0.2,2.6,0.5c0.8,0.3,1.5,0.8,2,1.4c0.6,0.6,1,1.3,1.3,2.1s0.5,1.7,0.5,2.7c0,0.9-0.2,1.8-0.5,2.6
					c-0.3,0.8-0.7,1.5-1.3,2.1c-0.6,0.6-1.3,1.1-2.1,1.4c-0.8,0.3-1.7,0.5-2.7,0.5c-0.6,0-1.1-0.1-1.5-0.2s-0.9-0.3-1.2-0.4
					c-0.4-0.2-0.7-0.4-0.9-0.6s-0.5-0.4-0.6-0.6V620z M767.4,609.4c0,0.7,0.1,1.3,0.3,1.8c0.2,0.6,0.5,1,0.9,1.5s0.8,0.7,1.4,0.9
					c0.5,0.2,1.1,0.3,1.8,0.3s1.2-0.1,1.8-0.3c0.5-0.2,1-0.5,1.4-0.9s0.7-0.9,0.9-1.5c0.2-0.6,0.3-1.2,0.3-1.8
					c0-0.7-0.1-1.3-0.3-1.8c-0.2-0.6-0.5-1-0.9-1.5c-0.4-0.4-0.8-0.7-1.4-1c-0.5-0.2-1.1-0.3-1.8-0.3c-0.7,0-1.2,0.1-1.8,0.3
					c-0.5,0.2-1,0.6-1.4,1s-0.7,0.9-0.9,1.5C767.5,608.1,767.4,608.7,767.4,609.4z"/>
				<path d="M781.8,610.1c0.1,1.2,0.5,2.2,1.2,2.9c0.7,0.7,1.7,1,2.9,1c1,0,1.8-0.2,2.5-0.7s1.1-1.1,1.5-1.8l1.8,0.9
					c-0.2,0.5-0.5,1-0.8,1.4c-0.3,0.4-0.8,0.8-1.2,1.2c-0.5,0.3-1,0.6-1.6,0.8c-0.6,0.2-1.3,0.3-2.1,0.3c-1,0-1.8-0.2-2.6-0.5
					c-0.8-0.3-1.5-0.8-2.1-1.3s-1-1.3-1.3-2.1c-0.3-0.8-0.5-1.7-0.5-2.7c0-1,0.2-1.9,0.5-2.7c0.3-0.8,0.7-1.5,1.3-2.1
					c0.6-0.6,1.2-1.1,2-1.4c0.8-0.3,1.6-0.5,2.5-0.5c0.9,0,1.8,0.1,2.6,0.4c0.8,0.3,1.4,0.7,2,1.3s1,1.2,1.3,2
					c0.3,0.8,0.5,1.6,0.5,2.6c0,0.1,0,0.3,0,0.5c0,0.2,0,0.4,0,0.6H781.8z M785.7,604.7c-1.1,0-1.9,0.3-2.6,0.9
					c-0.7,0.6-1.1,1.5-1.2,2.6h7.8c-0.1-1.1-0.5-1.9-1.2-2.5C787.8,605,786.9,604.7,785.7,604.7z"/>
				<path d="M798.8,605.3h-0.6c-0.8,0-1.4,0.2-1.7,0.6c-0.4,0.4-0.5,1-0.5,1.8v8.1h-2.3V603h2.3v1.2c0.2-0.4,0.6-0.7,1-0.9
					s1.1-0.4,1.8-0.3V605.3z"/>
				<path d="M803.6,611.7c0-0.6,0.1-1.2,0.3-1.7c0.2-0.5,0.5-1,0.9-1.3c0.4-0.4,0.8-0.7,1.4-0.9s1.1-0.3,1.8-0.3
					c0.7,0,1.2,0.1,1.7,0.3c0.4,0.2,0.8,0.4,1,0.6v-1.1c0-0.8-0.2-1.5-0.6-1.9c-0.4-0.4-0.9-0.7-1.7-0.7c-0.8,0-1.3,0.2-1.6,0.6
					c-0.3,0.4-0.5,0.9-0.5,1.4H804c0-0.6,0.1-1.1,0.3-1.6c0.2-0.5,0.5-0.9,0.8-1.2c0.4-0.3,0.8-0.6,1.3-0.8c0.5-0.2,1.2-0.3,1.9-0.3
					c0.8,0,1.5,0.1,2.1,0.3c0.6,0.2,1,0.5,1.4,0.9c0.4,0.4,0.6,0.9,0.8,1.5s0.3,1.2,0.3,1.9v8.3h-2v-1c-0.3,0.4-0.7,0.6-1.2,0.9
					c-0.5,0.2-1.1,0.3-1.7,0.3c-0.6,0-1.2-0.1-1.7-0.3c-0.5-0.2-1-0.5-1.4-0.9s-0.7-0.8-0.9-1.4C803.7,613,803.6,612.4,803.6,611.7z
					 M805.8,611.7c0,0.7,0.2,1.3,0.7,1.7c0.4,0.5,1,0.7,1.7,0.7c0.7,0,1.3-0.2,1.8-0.7c0.5-0.5,0.7-1,0.7-1.7c0-0.7-0.2-1.3-0.7-1.7
					s-1.1-0.7-1.8-0.7s-1.3,0.2-1.7,0.7C806,610.4,805.8,611,805.8,611.7z"/>
				<path d="M821.1,614c0.4,0,0.8,0,1.2-0.1s0.7-0.2,0.9-0.4c0.3-0.1,0.5-0.3,0.7-0.5c0.2-0.2,0.4-0.3,0.6-0.5l1.3,1.4
					c-0.2,0.2-0.4,0.5-0.7,0.7s-0.6,0.5-1,0.7c-0.4,0.2-0.8,0.4-1.3,0.5c-0.5,0.1-1.1,0.2-1.7,0.2c-1,0-1.9-0.2-2.7-0.5
					c-0.8-0.3-1.5-0.8-2.1-1.4c-0.6-0.6-1-1.3-1.3-2.1c-0.3-0.8-0.5-1.7-0.5-2.6s0.2-1.8,0.5-2.6c0.3-0.8,0.8-1.5,1.4-2.1
					c0.6-0.6,1.3-1.1,2.1-1.4c0.8-0.3,1.7-0.5,2.6-0.5c0.6,0,1.2,0.1,1.7,0.2c0.5,0.1,1,0.3,1.4,0.5c0.4,0.2,0.7,0.4,1,0.7
					s0.5,0.5,0.7,0.7l-1.4,1.4c-0.3-0.4-0.8-0.7-1.3-1c-0.5-0.3-1.2-0.5-2-0.5c-0.6,0-1.2,0.1-1.7,0.3c-0.5,0.2-1,0.6-1.3,1
					s-0.7,0.9-0.9,1.5c-0.2,0.6-0.3,1.2-0.3,1.8c0,0.7,0.1,1.3,0.3,1.9c0.2,0.6,0.5,1,0.9,1.4s0.8,0.7,1.4,0.9
					C820,613.9,820.5,614,821.1,614z"/>
				<path d="M832.8,614c0.4,0,0.8,0,1.2-0.1s0.7-0.2,0.9-0.4c0.3-0.1,0.5-0.3,0.7-0.5c0.2-0.2,0.4-0.3,0.6-0.5l1.3,1.4
					c-0.2,0.2-0.4,0.5-0.7,0.7s-0.6,0.5-1,0.7c-0.4,0.2-0.8,0.4-1.3,0.5c-0.5,0.1-1.1,0.2-1.7,0.2c-1,0-1.9-0.2-2.7-0.5
					c-0.8-0.3-1.5-0.8-2.1-1.4c-0.6-0.6-1-1.3-1.3-2.1c-0.3-0.8-0.5-1.7-0.5-2.6s0.2-1.8,0.5-2.6c0.3-0.8,0.8-1.5,1.4-2.1
					c0.6-0.6,1.3-1.1,2.1-1.4c0.8-0.3,1.7-0.5,2.6-0.5c0.6,0,1.2,0.1,1.7,0.2c0.5,0.1,1,0.3,1.4,0.5c0.4,0.2,0.7,0.4,1,0.7
					s0.5,0.5,0.7,0.7l-1.4,1.4c-0.3-0.4-0.8-0.7-1.3-1c-0.5-0.3-1.2-0.5-2-0.5c-0.6,0-1.2,0.1-1.7,0.3c-0.5,0.2-1,0.6-1.3,1
					s-0.7,0.9-0.9,1.5c-0.2,0.6-0.3,1.2-0.3,1.8c0,0.7,0.1,1.3,0.3,1.9c0.2,0.6,0.5,1,0.9,1.4s0.8,0.7,1.4,0.9
					C831.6,613.9,832.2,614,832.8,614z"/>
				<path d="M840.1,601.7c-0.4,0-0.8-0.1-1.1-0.4c-0.3-0.3-0.4-0.7-0.4-1.1c0-0.4,0.1-0.8,0.4-1.1c0.3-0.3,0.7-0.4,1.1-0.4
					c0.4,0,0.8,0.1,1.1,0.4s0.5,0.6,0.5,1.1c0,0.4-0.2,0.8-0.5,1.1S840.5,601.7,840.1,601.7z M841.3,615.8H839V603h2.3V615.8z"/>
				<path d="M854,613.9c-0.2,0.2-0.4,0.5-0.7,0.7c-0.3,0.3-0.6,0.5-1,0.7s-0.8,0.4-1.3,0.5c-0.5,0.1-1,0.2-1.5,0.2
					c-1,0-1.8-0.2-2.7-0.5c-0.8-0.3-1.5-0.8-2.1-1.4s-1-1.3-1.3-2.1c-0.3-0.8-0.5-1.7-0.5-2.7c0-0.9,0.2-1.8,0.5-2.6
					c0.3-0.8,0.8-1.5,1.3-2.1c0.6-0.6,1.3-1.1,2.1-1.4s1.7-0.5,2.6-0.5c1,0,1.9,0.2,2.6,0.6c0.7,0.4,1.3,0.8,1.7,1.3v-6.3h2.3v17.5
					H854V613.9z M845.3,609.4c0,0.7,0.1,1.3,0.3,1.8c0.2,0.6,0.5,1,0.9,1.5c0.4,0.4,0.8,0.7,1.4,0.9c0.5,0.2,1.1,0.3,1.7,0.3
					c0.6,0,1.2-0.1,1.8-0.3c0.5-0.2,1-0.5,1.4-0.9c0.4-0.4,0.7-0.9,0.9-1.5c0.2-0.6,0.3-1.2,0.3-1.8c0-0.7-0.1-1.3-0.3-1.8
					c-0.2-0.6-0.5-1-0.9-1.5s-0.8-0.7-1.4-1c-0.5-0.2-1.1-0.3-1.8-0.3c-0.6,0-1.2,0.1-1.8,0.3c-0.5,0.2-1,0.6-1.4,1
					s-0.7,0.9-0.9,1.5C845.4,608.1,845.3,608.7,845.3,609.4z"/>
				<path d="M860.3,610.1c0.1,1.2,0.5,2.2,1.2,2.9c0.7,0.7,1.7,1,2.9,1c1,0,1.8-0.2,2.5-0.7s1.1-1.1,1.5-1.8l1.8,0.9
					c-0.2,0.5-0.5,1-0.8,1.4c-0.3,0.4-0.8,0.8-1.2,1.2c-0.5,0.3-1,0.6-1.6,0.8s-1.3,0.3-2.1,0.3c-1,0-1.8-0.2-2.6-0.5
					c-0.8-0.3-1.5-0.8-2.1-1.3s-1-1.3-1.3-2.1c-0.3-0.8-0.5-1.7-0.5-2.7c0-1,0.2-1.9,0.5-2.7c0.3-0.8,0.7-1.5,1.3-2.1
					c0.6-0.6,1.2-1.1,2-1.4c0.8-0.3,1.6-0.5,2.5-0.5c0.9,0,1.8,0.1,2.6,0.4c0.8,0.3,1.4,0.7,2,1.3c0.5,0.5,1,1.2,1.3,2
					c0.3,0.8,0.5,1.6,0.5,2.6c0,0.1,0,0.3,0,0.5c0,0.2,0,0.4,0,0.6H860.3z M864.2,604.7c-1.1,0-1.9,0.3-2.6,0.9
					c-0.7,0.6-1.1,1.5-1.2,2.6h7.8c-0.1-1.1-0.5-1.9-1.2-2.5C866.2,605,865.3,604.7,864.2,604.7z"/>
				<path d="M879,607.6c0-0.9-0.2-1.5-0.6-2c-0.4-0.5-0.9-0.7-1.7-0.7c-0.8,0-1.4,0.3-1.8,0.8s-0.6,1.2-0.6,2v8.2h-2.3V603h2.3v1.2
					c0.1-0.1,0.2-0.3,0.4-0.4s0.4-0.3,0.6-0.4c0.2-0.1,0.5-0.2,0.8-0.3s0.7-0.1,1.1-0.1c0.7,0,1.4,0.1,1.9,0.4s0.9,0.6,1.2,1
					s0.6,0.9,0.7,1.4c0.1,0.5,0.2,1.1,0.2,1.8v8.5H879V607.6z"/>
				<path d="M886,603h2.4v1.9H886v7.3c0,0.6,0.1,1,0.3,1.3c0.2,0.3,0.6,0.4,1.2,0.4h0.9v1.9c-0.1,0-0.3,0-0.5,0.1s-0.6,0.1-0.9,0.1
					c-1.2,0-2-0.3-2.5-0.8s-0.7-1.4-0.7-2.4v-7.8h-1.3V603h1.3v-2h2.3V603z"/>
				<path d="M891.7,606.2c0,0.8,0.4,1.3,1.3,1.6c0.3,0.1,0.7,0.2,1,0.3s0.7,0.2,1,0.3c0.9,0.3,1.6,0.8,2.1,1.3
					c0.5,0.6,0.7,1.3,0.7,2.4c0,0.6-0.1,1.2-0.3,1.7c-0.2,0.5-0.5,0.9-0.9,1.2c-0.4,0.3-0.9,0.6-1.4,0.7c-0.5,0.2-1.1,0.2-1.7,0.2
					c-0.8,0-1.5-0.1-2.1-0.3c-0.6-0.2-1-0.5-1.3-0.9c-0.3-0.4-0.6-0.8-0.7-1.3c-0.1-0.5-0.2-1-0.2-1.6h2.2c0,0.3,0,0.6,0.1,0.9
					c0.1,0.3,0.2,0.5,0.4,0.7s0.4,0.4,0.6,0.5c0.3,0.1,0.6,0.2,1,0.2c0.6,0,1-0.1,1.5-0.4c0.4-0.3,0.6-0.7,0.6-1.3
					c0-0.5-0.1-0.9-0.4-1.2c-0.3-0.3-0.6-0.5-1.1-0.7c-0.4-0.1-0.7-0.2-1.1-0.3c-0.4-0.1-0.8-0.2-1.2-0.4c-0.8-0.4-1.4-0.8-1.8-1.4
					c-0.4-0.6-0.5-1.2-0.5-2c0-0.5,0.1-1,0.3-1.4c0.2-0.4,0.5-0.8,0.8-1.1c0.4-0.3,0.8-0.5,1.3-0.7c0.5-0.2,1-0.3,1.6-0.3
					c1.3,0,2.3,0.4,3,1.1c0.6,0.7,1,1.7,1,2.8h-2.1c0-0.7-0.2-1.2-0.5-1.5c-0.3-0.4-0.8-0.6-1.4-0.6c-0.5,0-1,0.1-1.3,0.4
					C891.9,605.3,891.7,605.7,891.7,606.2z"/>
				<path d="M913.6,613.9c-0.2,0.2-0.4,0.5-0.7,0.7c-0.3,0.3-0.6,0.5-1,0.7s-0.8,0.4-1.3,0.5c-0.5,0.1-1,0.2-1.5,0.2
					c-1,0-1.8-0.2-2.7-0.5c-0.8-0.3-1.5-0.8-2.1-1.4s-1-1.3-1.3-2.1c-0.3-0.8-0.5-1.7-0.5-2.7c0-0.9,0.2-1.8,0.5-2.6
					c0.3-0.8,0.8-1.5,1.3-2.1c0.6-0.6,1.3-1.1,2.1-1.4s1.7-0.5,2.6-0.5c1,0,1.9,0.2,2.6,0.6c0.7,0.4,1.3,0.8,1.7,1.3v-6.3h2.3v17.5
					h-2.2V613.9z M904.9,609.4c0,0.7,0.1,1.3,0.3,1.8c0.2,0.6,0.5,1,0.9,1.5c0.4,0.4,0.8,0.7,1.4,0.9c0.5,0.2,1.1,0.3,1.7,0.3
					c0.6,0,1.2-0.1,1.8-0.3c0.5-0.2,1-0.5,1.4-0.9c0.4-0.4,0.7-0.9,0.9-1.5c0.2-0.6,0.3-1.2,0.3-1.8c0-0.7-0.1-1.3-0.3-1.8
					c-0.2-0.6-0.5-1-0.9-1.5s-0.8-0.7-1.4-1c-0.5-0.2-1.1-0.3-1.8-0.3c-0.6,0-1.2,0.1-1.8,0.3c-0.5,0.2-1,0.6-1.4,1
					s-0.7,0.9-0.9,1.5C905,608.1,904.9,608.7,904.9,609.4z"/>
				<path d="M919.8,610.1c0.1,1.2,0.5,2.2,1.2,2.9c0.7,0.7,1.7,1,2.9,1c1,0,1.8-0.2,2.5-0.7s1.1-1.1,1.5-1.8l1.8,0.9
					c-0.2,0.5-0.5,1-0.8,1.4c-0.3,0.4-0.8,0.8-1.2,1.2c-0.5,0.3-1,0.6-1.6,0.8s-1.3,0.3-2.1,0.3c-1,0-1.8-0.2-2.6-0.5
					c-0.8-0.3-1.5-0.8-2.1-1.3s-1-1.3-1.3-2.1c-0.3-0.8-0.5-1.7-0.5-2.7c0-1,0.2-1.9,0.5-2.7c0.3-0.8,0.7-1.5,1.3-2.1
					c0.6-0.6,1.2-1.1,2-1.4c0.8-0.3,1.6-0.5,2.5-0.5c0.9,0,1.8,0.1,2.6,0.4c0.8,0.3,1.4,0.7,2,1.3c0.5,0.5,1,1.2,1.3,2
					c0.3,0.8,0.5,1.6,0.5,2.6c0,0.1,0,0.3,0,0.5c0,0.2,0,0.4,0,0.6H919.8z M923.7,604.7c-1.1,0-1.9,0.3-2.6,0.9
					c-0.7,0.6-1.1,1.5-1.2,2.6h7.8c-0.1-1.1-0.5-1.9-1.2-2.5C925.8,605,924.8,604.7,923.7,604.7z"/>
				<path d="M938,603h2.2v1.9H938v10.9h-2.3v-10.9h-1.3V603h1.3v-0.8c0-0.6,0.1-1.1,0.2-1.6c0.1-0.5,0.3-0.9,0.6-1.2
					c0.3-0.3,0.7-0.6,1.1-0.8c0.5-0.2,1.1-0.3,1.7-0.3h0.8v1.9h-0.6c-0.3,0-0.6,0.1-0.8,0.2c-0.2,0.1-0.4,0.2-0.5,0.4
					c-0.1,0.2-0.2,0.4-0.2,0.6s-0.1,0.5-0.1,0.8V603z"/>
				<path d="M942.8,610.1c0.1,1.2,0.5,2.2,1.2,2.9c0.7,0.7,1.7,1,2.9,1c1,0,1.8-0.2,2.5-0.7s1.1-1.1,1.5-1.8l1.8,0.9
					c-0.2,0.5-0.5,1-0.8,1.4c-0.3,0.4-0.8,0.8-1.2,1.2c-0.5,0.3-1,0.6-1.6,0.8s-1.3,0.3-2.1,0.3c-1,0-1.8-0.2-2.6-0.5
					c-0.8-0.3-1.5-0.8-2.1-1.3s-1-1.3-1.3-2.1c-0.3-0.8-0.5-1.7-0.5-2.7c0-1,0.2-1.9,0.5-2.7c0.3-0.8,0.7-1.5,1.3-2.1
					c0.6-0.6,1.2-1.1,2-1.4c0.8-0.3,1.6-0.5,2.5-0.5c0.9,0,1.8,0.1,2.6,0.4c0.8,0.3,1.4,0.7,2,1.3c0.5,0.5,1,1.2,1.3,2
					c0.3,0.8,0.5,1.6,0.5,2.6c0,0.1,0,0.3,0,0.5c0,0.2,0,0.4,0,0.6H942.8z M946.7,604.7c-1.1,0-1.9,0.3-2.6,0.9
					c-0.7,0.6-1.1,1.5-1.2,2.6h7.8c-0.1-1.1-0.5-1.9-1.2-2.5C948.7,605,947.8,604.7,946.7,604.7z"/>
				<path d="M955.7,601.7c-0.4,0-0.8-0.1-1.1-0.4s-0.4-0.7-0.4-1.1c0-0.4,0.1-0.8,0.4-1.1s0.7-0.4,1.1-0.4c0.4,0,0.8,0.1,1.1,0.4
					s0.5,0.6,0.5,1.1c0,0.4-0.2,0.8-0.5,1.1S956.2,601.7,955.7,601.7z M956.9,615.8h-2.3V603h2.3V615.8z"/>
				<path d="M966.2,607.6c0-0.9-0.2-1.5-0.6-2c-0.4-0.5-0.9-0.7-1.7-0.7c-0.8,0-1.4,0.3-1.8,0.8s-0.6,1.2-0.6,2v8.2h-2.3V603h2.3
					v1.2c0.1-0.1,0.2-0.3,0.4-0.4s0.4-0.3,0.6-0.4c0.2-0.1,0.5-0.2,0.8-0.3s0.7-0.1,1.1-0.1c0.7,0,1.4,0.1,1.9,0.4s0.9,0.6,1.2,1
					s0.6,0.9,0.7,1.4c0.1,0.5,0.2,1.1,0.2,1.8v8.5h-2.3V607.6z"/>
				<path d="M970.2,611.7c0-0.6,0.1-1.2,0.3-1.7c0.2-0.5,0.5-1,0.9-1.3c0.4-0.4,0.8-0.7,1.4-0.9c0.5-0.2,1.1-0.3,1.8-0.3
					c0.7,0,1.2,0.1,1.7,0.3c0.4,0.2,0.8,0.4,1,0.6v-1.1c0-0.8-0.2-1.5-0.6-1.9c-0.4-0.4-0.9-0.7-1.7-0.7c-0.8,0-1.3,0.2-1.6,0.6
					c-0.3,0.4-0.5,0.9-0.5,1.4h-2.1c0-0.6,0.1-1.1,0.3-1.6c0.2-0.5,0.5-0.9,0.8-1.2c0.4-0.3,0.8-0.6,1.3-0.8
					c0.5-0.2,1.2-0.3,1.9-0.3c0.8,0,1.5,0.1,2.1,0.3c0.6,0.2,1,0.5,1.4,0.9c0.4,0.4,0.6,0.9,0.8,1.5c0.2,0.6,0.3,1.2,0.3,1.9v8.3h-2
					v-1c-0.3,0.4-0.7,0.6-1.2,0.9c-0.5,0.2-1.1,0.3-1.7,0.3c-0.6,0-1.2-0.1-1.7-0.3c-0.5-0.2-1-0.5-1.4-0.9
					c-0.4-0.4-0.7-0.8-0.9-1.4C970.3,613,970.2,612.4,970.2,611.7z M972.4,611.7c0,0.7,0.2,1.3,0.7,1.7c0.4,0.5,1,0.7,1.7,0.7
					c0.7,0,1.3-0.2,1.8-0.7c0.5-0.5,0.7-1,0.7-1.7c0-0.7-0.2-1.3-0.7-1.7s-1.1-0.7-1.8-0.7c-0.7,0-1.3,0.2-1.7,0.7
					C972.6,610.4,972.4,611,972.4,611.7z"/>
				<path d="M986.6,601.7c-0.4,0-0.8-0.1-1.1-0.4s-0.4-0.7-0.4-1.1c0-0.4,0.1-0.8,0.4-1.1s0.7-0.4,1.1-0.4c0.4,0,0.8,0.1,1.1,0.4
					s0.5,0.6,0.5,1.1c0,0.4-0.2,0.8-0.5,1.1S987,601.7,986.6,601.7z M987.7,615.8h-2.3V603h2.3V615.8z"/>
				<path d="M996.5,603h2.4v1.9h-2.4v7.3c0,0.6,0.1,1,0.3,1.3c0.2,0.3,0.6,0.4,1.2,0.4h0.9v1.9c-0.1,0-0.3,0-0.5,0.1
					s-0.6,0.1-0.9,0.1c-1.2,0-2-0.3-2.5-0.8s-0.7-1.4-0.7-2.4v-7.8h-1.3V603h1.3v-2h2.3V603z"/>
				<path d="M1005.6,605.3h-0.6c-0.8,0-1.4,0.2-1.7,0.6c-0.4,0.4-0.5,1-0.5,1.8v8.1h-2.3V603h2.3v1.2c0.2-0.4,0.6-0.7,1-0.9
					s1.1-0.4,1.8-0.3V605.3z"/>
				<path d="M1006.1,611.7c0-0.6,0.1-1.2,0.3-1.7c0.2-0.5,0.5-1,0.9-1.3c0.4-0.4,0.8-0.7,1.4-0.9c0.5-0.2,1.1-0.3,1.8-0.3
					c0.7,0,1.2,0.1,1.7,0.3c0.4,0.2,0.8,0.4,1,0.6v-1.1c0-0.8-0.2-1.5-0.6-1.9c-0.4-0.4-0.9-0.7-1.7-0.7c-0.8,0-1.3,0.2-1.6,0.6
					c-0.3,0.4-0.5,0.9-0.5,1.4h-2.1c0-0.6,0.1-1.1,0.3-1.6c0.2-0.5,0.5-0.9,0.8-1.2c0.4-0.3,0.8-0.6,1.3-0.8
					c0.5-0.2,1.2-0.3,1.9-0.3c0.8,0,1.5,0.1,2.1,0.3c0.6,0.2,1,0.5,1.4,0.9c0.4,0.4,0.6,0.9,0.8,1.5c0.2,0.6,0.3,1.2,0.3,1.9v8.3h-2
					v-1c-0.3,0.4-0.7,0.6-1.2,0.9c-0.5,0.2-1.1,0.3-1.7,0.3c-0.6,0-1.2-0.1-1.7-0.3c-0.5-0.2-1-0.5-1.4-0.9
					c-0.4-0.4-0.7-0.8-0.9-1.4C1006.3,613,1006.1,612.4,1006.1,611.7z M1010.2,598.7l1.8,3.2h-2.2l-1.9-3.2H1010.2z M1008.4,611.7
					c0,0.7,0.2,1.3,0.7,1.7c0.4,0.5,1,0.7,1.7,0.7c0.7,0,1.3-0.2,1.8-0.7c0.5-0.5,0.7-1,0.7-1.7c0-0.7-0.2-1.3-0.7-1.7
					s-1.1-0.7-1.8-0.7c-0.7,0-1.3,0.2-1.7,0.7C1008.6,610.4,1008.4,611,1008.4,611.7z"/>
				<path d="M1024.6,607.6c0-0.9-0.2-1.5-0.6-2c-0.4-0.5-0.9-0.7-1.7-0.7c-0.8,0-1.4,0.3-1.8,0.8s-0.6,1.2-0.6,2v8.2h-2.3V603h2.3
					v1.2c0.1-0.1,0.2-0.3,0.4-0.4s0.4-0.3,0.6-0.4c0.2-0.1,0.5-0.2,0.8-0.3s0.7-0.1,1.1-0.1c0.7,0,1.4,0.1,1.9,0.4s0.9,0.6,1.2,1
					s0.6,0.9,0.7,1.4c0.1,0.5,0.2,1.1,0.2,1.8v8.5h-2.3V607.6z"/>
				<path d="M1031,606.2c0,0.8,0.4,1.3,1.3,1.6c0.3,0.1,0.7,0.2,1,0.3s0.7,0.2,1,0.3c0.9,0.3,1.6,0.8,2.1,1.3
					c0.5,0.6,0.7,1.3,0.7,2.4c0,0.6-0.1,1.2-0.3,1.7c-0.2,0.5-0.5,0.9-0.9,1.2c-0.4,0.3-0.9,0.6-1.4,0.7c-0.5,0.2-1.1,0.2-1.7,0.2
					c-0.8,0-1.5-0.1-2.1-0.3c-0.6-0.2-1-0.5-1.3-0.9c-0.3-0.4-0.6-0.8-0.7-1.3c-0.1-0.5-0.2-1-0.2-1.6h2.2c0,0.3,0,0.6,0.1,0.9
					c0.1,0.3,0.2,0.5,0.4,0.7s0.4,0.4,0.6,0.5c0.3,0.1,0.6,0.2,1,0.2c0.6,0,1-0.1,1.5-0.4c0.4-0.3,0.6-0.7,0.6-1.3
					c0-0.5-0.1-0.9-0.4-1.2c-0.3-0.3-0.6-0.5-1.1-0.7c-0.4-0.1-0.7-0.2-1.1-0.3c-0.4-0.1-0.8-0.2-1.2-0.4c-0.8-0.4-1.4-0.8-1.8-1.4
					c-0.4-0.6-0.5-1.2-0.5-2c0-0.5,0.1-1,0.3-1.4c0.2-0.4,0.5-0.8,0.8-1.1c0.4-0.3,0.8-0.5,1.3-0.7c0.5-0.2,1-0.3,1.6-0.3
					c1.3,0,2.3,0.4,3,1.1c0.6,0.7,1,1.7,1,2.8h-2.1c0-0.7-0.2-1.2-0.5-1.5c-0.3-0.4-0.8-0.6-1.4-0.6c-0.5,0-1,0.1-1.3,0.4
					C1031.2,605.3,1031,605.7,1031,606.2z"/>
				<path d="M1039.9,601.7c-0.4,0-0.8-0.1-1.1-0.4s-0.4-0.7-0.4-1.1c0-0.4,0.1-0.8,0.4-1.1s0.7-0.4,1.1-0.4c0.4,0,0.8,0.1,1.1,0.4
					s0.5,0.6,0.5,1.1c0,0.4-0.2,0.8-0.5,1.1S1040.3,601.7,1039.9,601.7z M1041.1,615.8h-2.3V603h2.3V615.8z"/>
				<path d="M1046.1,603h2.4v1.9h-2.4v7.3c0,0.6,0.1,1,0.3,1.3c0.2,0.3,0.6,0.4,1.2,0.4h0.9v1.9c-0.1,0-0.3,0-0.5,0.1
					s-0.6,0.1-0.9,0.1c-1.2,0-2-0.3-2.5-0.8s-0.7-1.4-0.7-2.4v-7.8h-1.3V603h1.3v-2h2.3V603z"/>
			</g>
			<g class="st9">
				<path class="st1" d="M699.2,646.4H693l-2.1,5.4h-2.3l6.2-16.6h2.5l6.5,16.6h-2.5L699.2,646.4z M693.8,644.3h4.7l-2.4-6.1
					L693.8,644.3z"/>
				<path class="st1" d="M707,647.2c0,0.9,0.2,1.5,0.5,2c0.4,0.5,0.9,0.7,1.7,0.7s1.3-0.3,1.7-0.8c0.4-0.5,0.6-1.2,0.6-2V639h2.3
					v12.8h-2.3v-1.2c-0.2,0.3-0.5,0.6-1,0.9s-1.1,0.4-1.9,0.4c-0.7,0-1.3-0.1-1.8-0.3c-0.5-0.2-0.9-0.6-1.2-1
					c-0.3-0.4-0.6-0.9-0.7-1.4c-0.1-0.5-0.2-1.1-0.2-1.8V639h2.3V647.2z"/>
				<path class="st1" d="M726.5,639h2.2v10.7c0,1.2-0.2,2.2-0.5,3.1c-0.3,0.8-0.8,1.5-1.4,2c-0.6,0.5-1.3,0.9-2.1,1.1
					c-0.8,0.2-1.7,0.3-2.6,0.3c-1.1,0-2.1-0.1-3-0.4c-0.9-0.3-1.6-0.6-2.1-0.9l0.9-1.8c0.4,0.3,1,0.5,1.7,0.8
					c0.7,0.3,1.5,0.4,2.5,0.4c0.6,0,1.2-0.1,1.7-0.2c0.5-0.1,1-0.4,1.4-0.7c0.4-0.3,0.7-0.7,1-1.2c0.2-0.5,0.3-1.1,0.3-1.7V650
					c-0.1,0.2-0.3,0.5-0.6,0.7c-0.2,0.2-0.6,0.5-0.9,0.7c-0.4,0.2-0.8,0.4-1.2,0.5c-0.5,0.1-1,0.2-1.6,0.2c-1,0-1.8-0.2-2.7-0.5
					c-0.8-0.3-1.5-0.8-2.1-1.3c-0.6-0.6-1-1.3-1.4-2.1c-0.3-0.8-0.5-1.7-0.5-2.7c0-0.9,0.2-1.8,0.5-2.6c0.3-0.8,0.8-1.5,1.4-2.1
					c0.6-0.6,1.3-1.1,2.1-1.4s1.7-0.5,2.6-0.5c1,0,1.9,0.2,2.6,0.6s1.4,0.8,1.8,1.4V639z M717.9,645.4c0,0.7,0.1,1.3,0.3,1.8
					c0.2,0.6,0.5,1,0.9,1.5c0.4,0.4,0.8,0.7,1.4,0.9c0.5,0.2,1.1,0.3,1.7,0.3c0.6,0,1.2-0.1,1.8-0.3c0.5-0.2,1-0.5,1.4-0.9
					c0.4-0.4,0.7-0.9,0.9-1.5c0.2-0.6,0.3-1.2,0.3-1.8c0-0.7-0.1-1.3-0.3-1.8c-0.2-0.6-0.5-1-0.9-1.5c-0.4-0.4-0.8-0.7-1.4-1
					c-0.5-0.2-1.1-0.3-1.8-0.3c-0.6,0-1.2,0.1-1.8,0.3c-0.5,0.2-1,0.6-1.4,1c-0.4,0.4-0.7,0.9-0.9,1.5
					C718,644.1,717.9,644.7,717.9,645.4z"/>
				<path class="st1" d="M740,651.8h-2.3v-8.2c0-0.8-0.2-1.5-0.5-2c-0.4-0.5-0.9-0.7-1.6-0.7c-0.8,0-1.3,0.3-1.7,0.8
					c-0.4,0.5-0.6,1.2-0.6,2.1v8.1H731V639h2.3v1.2c0.1-0.1,0.2-0.3,0.4-0.4c0.2-0.2,0.4-0.3,0.6-0.4c0.2-0.1,0.5-0.2,0.8-0.3
					s0.7-0.1,1.1-0.1c0.8,0,1.5,0.2,2,0.5c0.5,0.3,0.9,0.7,1.1,1.2c0.3-0.5,0.7-0.9,1.2-1.2c0.5-0.3,1.2-0.5,2.1-0.5
					c0.7,0,1.4,0.1,1.9,0.3c0.5,0.2,1,0.6,1.3,1s0.6,0.9,0.7,1.4c0.2,0.5,0.2,1.1,0.2,1.7v8.5h-2.3v-8.3c0-0.8-0.2-1.5-0.5-2
					c-0.4-0.5-0.9-0.7-1.7-0.7c-0.7,0-1.3,0.2-1.7,0.7s-0.6,1.1-0.6,1.9V651.8z"/>
				<path class="st1" d="M750.8,646.1c0.1,1.2,0.5,2.2,1.2,2.9c0.7,0.7,1.7,1,2.9,1c1,0,1.8-0.2,2.5-0.7s1.1-1.1,1.5-1.8l1.8,0.9
					c-0.2,0.5-0.5,1-0.8,1.4c-0.3,0.4-0.8,0.8-1.2,1.2c-0.5,0.3-1,0.6-1.6,0.8c-0.6,0.2-1.3,0.3-2.1,0.3c-1,0-1.8-0.2-2.6-0.5
					c-0.8-0.3-1.5-0.8-2.1-1.3s-1-1.3-1.3-2.1c-0.3-0.8-0.5-1.7-0.5-2.7c0-1,0.2-1.9,0.5-2.7c0.3-0.8,0.7-1.5,1.3-2.1
					c0.6-0.6,1.2-1.1,2-1.4c0.8-0.3,1.6-0.5,2.5-0.5c0.9,0,1.8,0.1,2.6,0.4c0.8,0.3,1.4,0.7,2,1.3s1,1.2,1.3,2
					c0.3,0.8,0.5,1.6,0.5,2.6c0,0.1,0,0.3,0,0.5c0,0.2,0,0.4,0,0.6H750.8z M754.7,640.7c-1.1,0-1.9,0.3-2.6,0.9
					c-0.7,0.6-1.1,1.5-1.2,2.6h7.8c-0.1-1.1-0.5-1.9-1.2-2.5C756.7,641,755.8,640.7,754.7,640.7z"/>
				<path class="st1" d="M769.5,643.6c0-0.9-0.2-1.5-0.6-2c-0.4-0.5-0.9-0.7-1.7-0.7c-0.8,0-1.4,0.3-1.8,0.8c-0.4,0.5-0.6,1.2-0.6,2
					v8.2h-2.3V639h2.3v1.2c0.1-0.1,0.2-0.3,0.4-0.4c0.2-0.2,0.4-0.3,0.6-0.4c0.2-0.1,0.5-0.2,0.8-0.3c0.3-0.1,0.7-0.1,1.1-0.1
					c0.7,0,1.4,0.1,1.9,0.4c0.5,0.2,0.9,0.6,1.2,1c0.3,0.4,0.6,0.9,0.7,1.4c0.1,0.5,0.2,1.1,0.2,1.8v8.5h-2.3V643.6z"/>
				<path class="st1" d="M776.5,639h2.4v1.9h-2.4v7.3c0,0.6,0.1,1,0.3,1.3c0.2,0.3,0.6,0.4,1.2,0.4h0.9v1.9c-0.1,0-0.3,0-0.5,0.1
					s-0.6,0.1-0.9,0.1c-1.2,0-2-0.3-2.5-0.8s-0.7-1.4-0.7-2.4v-7.8H773V639h1.3v-2h2.3V639z"/>
				<path class="st1" d="M794.6,649.9c-0.2,0.2-0.4,0.5-0.7,0.7c-0.3,0.3-0.6,0.5-1,0.7c-0.4,0.2-0.8,0.4-1.3,0.5s-1,0.2-1.5,0.2
					c-1,0-1.8-0.2-2.7-0.5c-0.8-0.3-1.5-0.8-2.1-1.4s-1-1.3-1.3-2.1c-0.3-0.8-0.5-1.7-0.5-2.7c0-0.9,0.2-1.8,0.5-2.6
					c0.3-0.8,0.8-1.5,1.3-2.1c0.6-0.6,1.3-1.1,2.1-1.4s1.7-0.5,2.6-0.5c1,0,1.9,0.2,2.6,0.6c0.7,0.4,1.3,0.8,1.7,1.3v-6.3h2.3v17.5
					h-2.2V649.9z M785.9,645.4c0,0.7,0.1,1.3,0.3,1.8c0.2,0.6,0.5,1,0.9,1.5c0.4,0.4,0.8,0.7,1.4,0.9c0.5,0.2,1.1,0.3,1.7,0.3
					c0.6,0,1.2-0.1,1.8-0.3c0.5-0.2,1-0.5,1.4-0.9c0.4-0.4,0.7-0.9,0.9-1.5c0.2-0.6,0.3-1.2,0.3-1.8c0-0.7-0.1-1.3-0.3-1.8
					c-0.2-0.6-0.5-1-0.9-1.5c-0.4-0.4-0.8-0.7-1.4-1c-0.5-0.2-1.1-0.3-1.8-0.3c-0.6,0-1.2,0.1-1.8,0.3c-0.5,0.2-1,0.6-1.4,1
					c-0.4,0.4-0.7,0.9-0.9,1.5C786,644.1,785.9,644.7,785.9,645.4z"/>
				<path class="st1" d="M800.9,646.1c0.1,1.2,0.5,2.2,1.2,2.9c0.7,0.7,1.7,1,2.9,1c1,0,1.8-0.2,2.5-0.7s1.1-1.1,1.5-1.8l1.8,0.9
					c-0.2,0.5-0.5,1-0.8,1.4c-0.3,0.4-0.8,0.8-1.2,1.2c-0.5,0.3-1,0.6-1.6,0.8c-0.6,0.2-1.3,0.3-2.1,0.3c-1,0-1.8-0.2-2.6-0.5
					c-0.8-0.3-1.5-0.8-2.1-1.3s-1-1.3-1.3-2.1c-0.3-0.8-0.5-1.7-0.5-2.7c0-1,0.2-1.9,0.5-2.7c0.3-0.8,0.7-1.5,1.3-2.1
					c0.6-0.6,1.2-1.1,2-1.4c0.8-0.3,1.6-0.5,2.5-0.5c0.9,0,1.8,0.1,2.6,0.4c0.8,0.3,1.4,0.7,2,1.3s1,1.2,1.3,2
					c0.3,0.8,0.5,1.6,0.5,2.6c0,0.1,0,0.3,0,0.5c0,0.2,0,0.4,0,0.6H800.9z M804.8,640.7c-1.1,0-1.9,0.3-2.6,0.9
					c-0.7,0.6-1.1,1.5-1.2,2.6h7.8c-0.1-1.1-0.5-1.9-1.2-2.5C806.8,641,805.9,640.7,804.8,640.7z"/>
				<path class="st1" d="M818.7,651.8h-2.3v-17.5h2.3V651.8z"/>
				<path class="st1" d="M820.5,647.7c0-0.6,0.1-1.2,0.3-1.7c0.2-0.5,0.5-1,0.9-1.3c0.4-0.4,0.8-0.7,1.4-0.9s1.1-0.3,1.8-0.3
					c0.7,0,1.2,0.1,1.7,0.3c0.4,0.2,0.8,0.4,1,0.6v-1.1c0-0.8-0.2-1.5-0.6-1.9c-0.4-0.4-0.9-0.7-1.7-0.7c-0.8,0-1.3,0.2-1.6,0.6
					c-0.3,0.4-0.5,0.9-0.5,1.4H821c0-0.6,0.1-1.1,0.3-1.6c0.2-0.5,0.5-0.9,0.8-1.2c0.4-0.3,0.8-0.6,1.3-0.8c0.5-0.2,1.2-0.3,1.9-0.3
					c0.8,0,1.5,0.1,2.1,0.3c0.6,0.2,1,0.5,1.4,0.9c0.4,0.4,0.6,0.9,0.8,1.5s0.3,1.2,0.3,1.9v8.3h-2v-1c-0.3,0.4-0.7,0.6-1.2,0.9
					c-0.5,0.2-1.1,0.3-1.7,0.3c-0.6,0-1.2-0.1-1.7-0.3c-0.5-0.2-1-0.5-1.4-0.9s-0.7-0.8-0.9-1.4C820.6,649,820.5,648.4,820.5,647.7z
					 M822.7,647.7c0,0.7,0.2,1.3,0.7,1.7c0.4,0.5,1,0.7,1.7,0.7c0.7,0,1.3-0.2,1.8-0.7c0.5-0.5,0.7-1,0.7-1.7c0-0.7-0.2-1.3-0.7-1.7
					s-1.1-0.7-1.8-0.7s-1.3,0.2-1.7,0.7C822.9,646.4,822.7,647,822.7,647.7z"/>
				<path class="st1" d="M844.7,651.8h-2.3v-8.2c0-0.8-0.2-1.5-0.5-2c-0.4-0.5-0.9-0.7-1.6-0.7c-0.8,0-1.3,0.3-1.7,0.8
					c-0.4,0.5-0.6,1.2-0.6,2.1v8.1h-2.3V639h2.3v1.2c0.1-0.1,0.2-0.3,0.4-0.4c0.2-0.2,0.4-0.3,0.6-0.4s0.5-0.2,0.8-0.3
					s0.7-0.1,1.1-0.1c0.8,0,1.5,0.2,2,0.5c0.5,0.3,0.9,0.7,1.1,1.2c0.3-0.5,0.7-0.9,1.2-1.2c0.5-0.3,1.2-0.5,2.1-0.5
					c0.7,0,1.4,0.1,1.9,0.3c0.5,0.2,1,0.6,1.3,1s0.6,0.9,0.7,1.4c0.2,0.5,0.2,1.1,0.2,1.7v8.5h-2.3v-8.3c0-0.8-0.2-1.5-0.5-2
					c-0.4-0.5-0.9-0.7-1.7-0.7c-0.7,0-1.3,0.2-1.7,0.7s-0.6,1.1-0.6,1.9V651.8z"/>
				<path class="st1" d="M853.2,645.4c0-1,0.2-1.9,0.5-2.7c0.3-0.8,0.8-1.5,1.4-2.1c0.6-0.6,1.3-1.1,2.1-1.4
					c0.8-0.3,1.7-0.5,2.6-0.5c1,0,1.8,0.2,2.7,0.5s1.5,0.8,2.1,1.4c0.6,0.6,1,1.3,1.4,2.1c0.3,0.8,0.5,1.7,0.5,2.7s-0.2,1.8-0.5,2.7
					c-0.3,0.8-0.8,1.5-1.4,2.1s-1.3,1-2.1,1.4s-1.7,0.5-2.6,0.5c-1,0-1.8-0.2-2.7-0.5c-0.8-0.3-1.5-0.8-2.1-1.4s-1-1.3-1.4-2.1
					S853.2,646.4,853.2,645.4z M855.5,645.4c0,0.7,0.1,1.3,0.3,1.8c0.2,0.6,0.5,1,0.9,1.4c0.4,0.4,0.8,0.7,1.4,1
					c0.5,0.2,1.1,0.3,1.7,0.3c0.6,0,1.2-0.1,1.8-0.3c0.5-0.2,1-0.5,1.4-1s0.7-0.9,0.9-1.4c0.2-0.6,0.3-1.2,0.3-1.8
					c0-0.7-0.1-1.3-0.3-1.8c-0.2-0.6-0.5-1-0.9-1.5c-0.4-0.4-0.8-0.7-1.4-1c-0.5-0.2-1.1-0.3-1.7-0.3c-0.6,0-1.2,0.1-1.8,0.3
					c-0.5,0.2-1,0.5-1.4,1s-0.7,0.9-0.9,1.5C855.6,644.1,855.5,644.7,855.5,645.4z"/>
				<path class="st1" d="M873.3,641.3h-0.6c-0.8,0-1.4,0.2-1.7,0.6c-0.4,0.4-0.5,1-0.5,1.8v8.1h-2.3V639h2.3v1.2
					c0.2-0.4,0.6-0.7,1-0.9s1.1-0.4,1.8-0.3V641.3z"/>
				<path class="st1" d="M877.7,639h2.4v1.9h-2.4v7.3c0,0.6,0.1,1,0.3,1.3c0.2,0.3,0.6,0.4,1.2,0.4h0.9v1.9c-0.1,0-0.3,0-0.5,0.1
					s-0.6,0.1-0.9,0.1c-1.2,0-2-0.3-2.5-0.8s-0.7-1.4-0.7-2.4v-7.8h-1.3V639h1.3v-2h2.3V639z"/>
				<path class="st1" d="M881,647.7c0-0.6,0.1-1.2,0.3-1.7c0.2-0.5,0.5-1,0.9-1.3c0.4-0.4,0.8-0.7,1.4-0.9c0.5-0.2,1.1-0.3,1.8-0.3
					c0.7,0,1.2,0.1,1.7,0.3c0.4,0.2,0.8,0.4,1,0.6v-1.1c0-0.8-0.2-1.5-0.6-1.9c-0.4-0.4-0.9-0.7-1.7-0.7c-0.8,0-1.3,0.2-1.6,0.6
					c-0.3,0.4-0.5,0.9-0.5,1.4h-2.1c0-0.6,0.1-1.1,0.3-1.6c0.2-0.5,0.5-0.9,0.8-1.2c0.4-0.3,0.8-0.6,1.3-0.8
					c0.5-0.2,1.2-0.3,1.9-0.3c0.8,0,1.5,0.1,2.1,0.3c0.6,0.2,1,0.5,1.4,0.9c0.4,0.4,0.6,0.9,0.8,1.5c0.2,0.6,0.3,1.2,0.3,1.9v8.3h-2
					v-1c-0.3,0.4-0.7,0.6-1.2,0.9c-0.5,0.2-1.1,0.3-1.7,0.3c-0.6,0-1.2-0.1-1.7-0.3c-0.5-0.2-1-0.5-1.4-0.9
					c-0.4-0.4-0.7-0.8-0.9-1.4C881.1,649,881,648.4,881,647.7z M883.2,647.7c0,0.7,0.2,1.3,0.7,1.7c0.4,0.5,1,0.7,1.7,0.7
					c0.7,0,1.3-0.2,1.8-0.7c0.5-0.5,0.7-1,0.7-1.7c0-0.7-0.2-1.3-0.7-1.7s-1.1-0.7-1.8-0.7c-0.7,0-1.3,0.2-1.7,0.7
					C883.4,646.4,883.2,647,883.2,647.7z"/>
				<path class="st1" d="M894.9,651.8h-2.3v-17.5h2.3V651.8z"/>
				<path class="st1" d="M898.3,637.7c-0.4,0-0.8-0.1-1.1-0.4s-0.4-0.7-0.4-1.1c0-0.4,0.1-0.8,0.4-1.1s0.7-0.4,1.1-0.4
					c0.4,0,0.8,0.1,1.1,0.4s0.5,0.6,0.5,1.1c0,0.4-0.2,0.8-0.5,1.1S898.8,637.7,898.3,637.7z M899.5,651.8h-2.3V639h2.3V651.8z"/>
				<path class="st1" d="M904.5,639h2.4v1.9h-2.4v7.3c0,0.6,0.1,1,0.3,1.3c0.2,0.3,0.6,0.4,1.2,0.4h0.9v1.9c-0.1,0-0.3,0-0.5,0.1
					s-0.6,0.1-0.9,0.1c-1.2,0-2-0.3-2.5-0.8s-0.7-1.4-0.7-2.4v-7.8h-1.3V639h1.3v-2h2.3V639z"/>
				<path class="st1" d="M907.8,647.7c0-0.6,0.1-1.2,0.3-1.7c0.2-0.5,0.5-1,0.9-1.3c0.4-0.4,0.8-0.7,1.4-0.9
					c0.5-0.2,1.1-0.3,1.8-0.3c0.7,0,1.2,0.1,1.7,0.3c0.4,0.2,0.8,0.4,1,0.6v-1.1c0-0.8-0.2-1.5-0.6-1.9c-0.4-0.4-0.9-0.7-1.7-0.7
					c-0.8,0-1.3,0.2-1.6,0.6c-0.3,0.4-0.5,0.9-0.5,1.4h-2.1c0-0.6,0.1-1.1,0.3-1.6c0.2-0.5,0.5-0.9,0.8-1.2c0.4-0.3,0.8-0.6,1.3-0.8
					c0.5-0.2,1.2-0.3,1.9-0.3c0.8,0,1.5,0.1,2.1,0.3c0.6,0.2,1,0.5,1.4,0.9c0.4,0.4,0.6,0.9,0.8,1.5c0.2,0.6,0.3,1.2,0.3,1.9v8.3h-2
					v-1c-0.3,0.4-0.7,0.6-1.2,0.9c-0.5,0.2-1.1,0.3-1.7,0.3c-0.6,0-1.2-0.1-1.7-0.3c-0.5-0.2-1-0.5-1.4-0.9
					c-0.4-0.4-0.7-0.8-0.9-1.4C907.9,649,907.8,648.4,907.8,647.7z M910,647.7c0,0.7,0.2,1.3,0.7,1.7c0.4,0.5,1,0.7,1.7,0.7
					c0.7,0,1.3-0.2,1.8-0.7c0.5-0.5,0.7-1,0.7-1.7c0-0.7-0.2-1.3-0.7-1.7s-1.1-0.7-1.8-0.7c-0.7,0-1.3,0.2-1.7,0.7
					C910.3,646.4,910,647,910,647.7z"/>
				<path class="st1" d="M921.8,639h2.4v1.9h-2.4v7.3c0,0.6,0.1,1,0.3,1.3c0.2,0.3,0.6,0.4,1.2,0.4h0.9v1.9c-0.1,0-0.3,0-0.5,0.1
					s-0.6,0.1-0.9,0.1c-1.2,0-2-0.3-2.5-0.8s-0.7-1.4-0.7-2.4v-7.8h-1.3V639h1.3v-2h2.3V639z"/>
			</g>
		</g>
		<g>
			<rect x="688.7" y="540.2" class="st8" width="283.7" height="57.7"/>
			<g class="st9">
				<path class="st1" d="M710.7,564.3h-3.2v-1.7c-0.6,0.6-1.5,1-2.6,1.5c-1.1,0.4-2.3,0.6-3.8,0.6c-1.7,0-3.3-0.3-4.7-0.9
					c-1.4-0.6-2.7-1.4-3.7-2.4c-1-1-1.8-2.3-2.4-3.7s-0.9-3.1-0.9-4.8c0-1.7,0.3-3.3,0.9-4.7s1.4-2.7,2.4-3.8c1-1.1,2.3-1.9,3.7-2.5
					c1.4-0.6,3-0.9,4.7-0.9c1.1,0,2.2,0.1,3.1,0.3c0.9,0.2,1.8,0.5,2.5,0.9c0.7,0.4,1.4,0.8,1.9,1.3c0.5,0.5,1,1,1.4,1.5l-2.4,2
					c-0.3-0.4-0.7-0.7-1.1-1.1c-0.4-0.4-0.9-0.7-1.4-1c-0.5-0.3-1.1-0.5-1.8-0.7c-0.7-0.2-1.4-0.3-2.2-0.3c-1.2,0-2.3,0.2-3.3,0.7
					c-1,0.4-1.9,1.1-2.6,1.8c-0.7,0.8-1.3,1.7-1.7,2.8c-0.4,1.1-0.6,2.3-0.6,3.6c0,1.3,0.2,2.5,0.6,3.6c0.4,1.1,1,2,1.7,2.8
					c0.7,0.8,1.6,1.4,2.6,1.8c1,0.4,2.2,0.6,3.4,0.6c1.4,0,2.6-0.2,3.6-0.7c1-0.4,1.9-1,2.6-1.7v-4h-4.2v-2.8h7.4V564.3z"/>
				<path class="st1" d="M714.1,564.3v-22.8h9.9v3h-6.7v6.6h6.5v3h-6.5v7.2h6.8v3H714.1z"/>
				<path class="st1" d="M730.2,547v17.3H727v-22.8h3.3L742,559v-17.5h3.2v22.8h-3.3L730.2,547z"/>
				<path class="st1" d="M748.7,564.3v-22.8h9.9v3H752v6.6h6.5v3H752v7.2h6.8v3H748.7z"/>
				<path class="st1" d="M774.3,547.7c0,1.4-0.3,2.6-0.9,3.6c-0.6,1-1.5,1.7-2.6,2.2l5.7,10.9H773l-5.4-10.3h-2.7v10.3h-3.2v-22.8
					h5.9c2.1,0,3.8,0.5,5,1.6C773.7,544.1,774.3,545.6,774.3,547.7z M764.9,544.3v7h2.5c1.2,0,2-0.3,2.6-1c0.6-0.6,0.9-1.5,0.9-2.6
					c0-1.1-0.3-1.9-0.9-2.5c-0.6-0.6-1.5-0.9-2.6-0.9H764.9z"/>
				<path class="st1" d="M791.6,556.8h-8.6l-2.8,7.5H777l8.6-22.8h3.4l9,22.8h-3.4L791.6,556.8z M784.1,554h6.5l-3.3-8.4L784.1,554z
					"/>
				<path class="st1" d="M799.7,564.3v-22.8h3.2v19.8h6.6v3H799.7z"/>
				<path class="st1" d="M818.4,570.1h-2.9l11.8-29.9h2.9L818.4,570.1z"/>
				<path class="st1" d="M849.9,556.8h-8.6l-2.8,7.5h-3.2l8.6-22.8h3.4l9,22.8h-3.4L849.9,556.8z M842.4,554h6.5l-3.3-8.4L842.4,554
					z"/>
				<path class="st1" d="M858,564.3v-22.8h3.2v19.8h6.6v3H858z"/>
				<path class="st1" d="M874.6,544.5v19.8h-3.2v-19.8h-4.7v-3h12.6v3H874.6z"/>
				<path class="st1" d="M894.2,547.7c0,1.4-0.3,2.6-0.9,3.6c-0.6,1-1.5,1.7-2.6,2.2l5.7,10.9h-3.5l-5.4-10.3h-2.7v10.3h-3.2v-22.8
					h5.9c2.1,0,3.8,0.5,5,1.6S894.2,545.6,894.2,547.7z M884.8,544.3v7h2.5c1.2,0,2-0.3,2.6-1c0.6-0.6,0.9-1.5,0.9-2.6
					c0-1.1-0.3-1.9-0.9-2.5c-0.6-0.6-1.5-0.9-2.6-0.9H884.8z"/>
				<path class="st1" d="M897.9,564.3v-22.8h9.9v3h-6.7v6.6h6.5v3h-6.5v7.2h6.8v3H897.9z"/>
				<path class="st1" d="M913.6,546.9c0,0.8,0.2,1.4,0.6,1.9s0.9,0.9,1.6,1.3c0.7,0.3,1.4,0.6,2.1,0.9c0.7,0.3,1.4,0.6,2.1,1
					c1.2,0.6,2.2,1.4,2.9,2.3c0.7,1,1,2.2,1,3.7c0,1-0.2,1.9-0.5,2.7s-0.8,1.5-1.4,2.1c-0.6,0.6-1.3,1-2.2,1.4s-1.8,0.5-2.9,0.5
					c-1.3,0-2.4-0.2-3.4-0.6c-0.9-0.4-1.6-0.9-2.2-1.6c-0.5-0.7-0.9-1.4-1.2-2.3c-0.2-0.9-0.3-1.8-0.3-2.7h3.1
					c0,0.6,0.1,1.2,0.2,1.7c0.1,0.5,0.4,1,0.7,1.4c0.3,0.4,0.7,0.7,1.2,0.9c0.5,0.2,1.1,0.3,1.8,0.3c1.1,0,2-0.3,2.7-0.9
					c0.7-0.6,1.1-1.5,1.1-2.7c0-0.9-0.2-1.7-0.7-2.2s-1-1-1.8-1.4c-0.7-0.4-1.5-0.7-2.3-1c-0.8-0.3-1.5-0.6-2.3-1
					c-1-0.6-1.8-1.3-2.4-2.2c-0.6-0.9-0.8-2.1-0.8-3.4c0-0.8,0.1-1.6,0.4-2.3c0.3-0.7,0.7-1.4,1.3-1.9c0.6-0.5,1.2-1,2-1.3
					c0.8-0.3,1.7-0.5,2.7-0.5c1.2,0,2.2,0.2,3.1,0.5s1.5,0.8,2,1.4c0.5,0.6,0.9,1.3,1.1,2s0.3,1.6,0.3,2.4h-3c0-1-0.3-1.9-0.9-2.6
					c-0.6-0.7-1.4-1-2.5-1c-1.1,0-1.9,0.3-2.4,0.9C913.9,545.3,913.6,546.1,913.6,546.9z"/>
			</g>
		</g>
		<line class="st10" x1="1184.8" y1="517.8" x2="688.7" y2="516.1"/>
		<circle class="st4" cx="677.3" cy="645.2" r="5.5"/>
		<circle class="st4" cx="677.3" cy="607.8" r="5.5"/>
		<circle class="st4" cx="1904.8" cy="624.7" r="5.5"/>
		<polyline class="st10" points="1324.3,376.3 1506.6,496.3 1892.3,495.1 		"/>
	</g>
	<g>
		<rect x="688.4" y="-55.2" class="st8" width="380.7" height="427.2"/>
		<g class="st9">
			<path d="M698.8-49.7c0,1-0.2,1.9-0.7,2.6s-1.1,1.2-1.9,1.6l4.2,7.9h-2.5l-3.9-7.5h-2v7.5h-2.4v-16.6h4.3c1.6,0,2.8,0.4,3.6,1.1
				C698.4-52.4,698.8-51.2,698.8-49.7z M692-52.2v5.1h1.8c0.8,0,1.5-0.2,1.9-0.7c0.4-0.5,0.6-1.1,0.6-1.9c0-0.8-0.2-1.4-0.6-1.8
				c-0.4-0.4-1.1-0.7-1.9-0.7H692z"/>
			<path d="M702.6-43.4c0.1,1.2,0.5,2.2,1.2,2.9c0.7,0.7,1.7,1,2.9,1c1,0,1.8-0.2,2.5-0.7s1.1-1.1,1.5-1.8l1.8,0.9
				c-0.2,0.5-0.5,1-0.8,1.4c-0.3,0.4-0.8,0.8-1.2,1.2c-0.5,0.3-1,0.6-1.6,0.8c-0.6,0.2-1.3,0.3-2.1,0.3c-1,0-1.8-0.2-2.6-0.5
				c-0.8-0.3-1.5-0.8-2.1-1.3s-1-1.3-1.3-2.1c-0.3-0.8-0.5-1.7-0.5-2.7c0-1,0.2-1.9,0.5-2.7c0.3-0.8,0.7-1.5,1.3-2.1
				c0.6-0.6,1.2-1.1,2-1.4c0.8-0.3,1.6-0.5,2.5-0.5c0.9,0,1.8,0.1,2.6,0.4c0.8,0.3,1.4,0.7,2,1.3s1,1.2,1.3,2
				c0.3,0.8,0.5,1.6,0.5,2.6c0,0.1,0,0.3,0,0.5c0,0.2,0,0.4,0,0.6H702.6z M706.5-48.7c-1.1,0-1.9,0.3-2.6,0.9
				c-0.7,0.6-1.1,1.5-1.2,2.6h7.8c-0.1-1.1-0.5-1.9-1.2-2.5C708.5-48.4,707.6-48.7,706.5-48.7z"/>
			<path d="M724.9-39.5c-0.2,0.2-0.4,0.5-0.7,0.7c-0.3,0.3-0.6,0.5-1,0.7c-0.4,0.2-0.8,0.4-1.3,0.5s-1,0.2-1.5,0.2
				c-1,0-1.8-0.2-2.7-0.5c-0.8-0.3-1.5-0.8-2.1-1.4s-1-1.3-1.3-2.1c-0.3-0.8-0.5-1.7-0.5-2.7c0-0.9,0.2-1.8,0.5-2.6
				c0.3-0.8,0.8-1.5,1.3-2.1c0.6-0.6,1.3-1.1,2.1-1.4s1.7-0.5,2.6-0.5c1,0,1.9,0.2,2.6,0.6c0.7,0.4,1.3,0.8,1.7,1.3v-6.3h2.3v17.5
				h-2.2V-39.5z M716.2-44.1c0,0.7,0.1,1.3,0.3,1.8c0.2,0.6,0.5,1,0.9,1.5c0.4,0.4,0.8,0.7,1.4,0.9c0.5,0.2,1.1,0.3,1.7,0.3
				c0.6,0,1.2-0.1,1.8-0.3c0.5-0.2,1-0.5,1.4-0.9c0.4-0.4,0.7-0.9,0.9-1.5c0.2-0.6,0.3-1.2,0.3-1.8c0-0.7-0.1-1.3-0.3-1.8
				c-0.2-0.6-0.5-1-0.9-1.5c-0.4-0.4-0.8-0.7-1.4-1c-0.5-0.2-1.1-0.3-1.8-0.3c-0.6,0-1.2,0.1-1.8,0.3c-0.5,0.2-1,0.6-1.4,1
				c-0.4,0.4-0.7,0.9-0.9,1.5C716.3-45.3,716.2-44.7,716.2-44.1z"/>
			<path d="M731.7-42.3c0,0.9,0.2,1.5,0.5,2c0.4,0.5,0.9,0.7,1.7,0.7s1.3-0.3,1.7-0.8c0.4-0.5,0.6-1.2,0.6-2v-8.2h2.3v12.8h-2.3
				v-1.2c-0.2,0.3-0.5,0.6-1,0.9s-1.1,0.4-1.9,0.4c-0.7,0-1.3-0.1-1.8-0.3c-0.5-0.2-0.9-0.6-1.2-1c-0.3-0.4-0.6-0.9-0.7-1.4
				c-0.1-0.5-0.2-1.1-0.2-1.8v-8.5h2.3V-42.3z"/>
			<path d="M746.8-39.5c0.4,0,0.8,0,1.2-0.1s0.7-0.2,0.9-0.4c0.3-0.1,0.5-0.3,0.7-0.5c0.2-0.2,0.4-0.3,0.6-0.5l1.3,1.4
				c-0.2,0.2-0.4,0.5-0.7,0.7s-0.6,0.5-1,0.7c-0.4,0.2-0.8,0.4-1.3,0.5c-0.5,0.1-1.1,0.2-1.7,0.2c-1,0-1.9-0.2-2.7-0.5
				c-0.8-0.3-1.5-0.8-2.1-1.4c-0.6-0.6-1-1.3-1.3-2.1c-0.3-0.8-0.5-1.7-0.5-2.6s0.2-1.8,0.5-2.6c0.3-0.8,0.8-1.5,1.4-2.1
				c0.6-0.6,1.3-1.1,2.1-1.4c0.8-0.3,1.7-0.5,2.6-0.5c0.6,0,1.2,0.1,1.7,0.2c0.5,0.1,1,0.3,1.4,0.5c0.4,0.2,0.7,0.4,1,0.7
				s0.5,0.5,0.7,0.7l-1.4,1.4c-0.3-0.4-0.8-0.7-1.3-1c-0.5-0.3-1.2-0.5-2-0.5c-0.6,0-1.2,0.1-1.7,0.3c-0.5,0.2-1,0.6-1.3,1
				s-0.7,0.9-0.9,1.5c-0.2,0.6-0.3,1.2-0.3,1.8c0,0.7,0.1,1.3,0.3,1.9c0.2,0.6,0.5,1,0.9,1.4s0.8,0.7,1.4,0.9
				C745.7-39.6,746.2-39.5,746.8-39.5z"/>
			<path d="M758.5-39.5c0.4,0,0.8,0,1.2-0.1s0.7-0.2,0.9-0.4c0.3-0.1,0.5-0.3,0.7-0.5c0.2-0.2,0.4-0.3,0.6-0.5l1.3,1.4
				c-0.2,0.2-0.4,0.5-0.7,0.7s-0.6,0.5-1,0.7c-0.4,0.2-0.8,0.4-1.3,0.5c-0.5,0.1-1.1,0.2-1.7,0.2c-1,0-1.9-0.2-2.7-0.5
				c-0.8-0.3-1.5-0.8-2.1-1.4c-0.6-0.6-1-1.3-1.3-2.1c-0.3-0.8-0.5-1.7-0.5-2.6s0.2-1.8,0.5-2.6c0.3-0.8,0.8-1.5,1.4-2.1
				c0.6-0.6,1.3-1.1,2.1-1.4c0.8-0.3,1.7-0.5,2.6-0.5c0.6,0,1.2,0.1,1.7,0.2c0.5,0.1,1,0.3,1.4,0.5c0.4,0.2,0.7,0.4,1,0.7
				s0.5,0.5,0.7,0.7l-1.4,1.4c-0.3-0.4-0.8-0.7-1.3-1c-0.5-0.3-1.2-0.5-2-0.5c-0.6,0-1.2,0.1-1.7,0.3c-0.5,0.2-1,0.6-1.3,1
				s-0.7,0.9-0.9,1.5c-0.2,0.6-0.3,1.2-0.3,1.8c0,0.7,0.1,1.3,0.3,1.9c0.2,0.6,0.5,1,0.9,1.4s0.8,0.7,1.4,0.9
				C757.3-39.6,757.9-39.5,758.5-39.5z"/>
			<path d="M765.8-51.7c-0.4,0-0.8-0.1-1.1-0.4c-0.3-0.3-0.4-0.7-0.4-1.1c0-0.4,0.1-0.8,0.4-1.1c0.3-0.3,0.7-0.4,1.1-0.4
				c0.4,0,0.8,0.1,1.1,0.4c0.3,0.3,0.5,0.6,0.5,1.1c0,0.4-0.2,0.8-0.5,1.1C766.6-51.9,766.2-51.7,765.8-51.7z M767-37.6h-2.3v-12.8
				h2.3V-37.6z"/>
			<path d="M768.7-44.1c0-1,0.2-1.9,0.5-2.7c0.3-0.8,0.8-1.5,1.4-2.1c0.6-0.6,1.3-1.1,2.1-1.4c0.8-0.3,1.7-0.5,2.6-0.5
				c1,0,1.8,0.2,2.7,0.5s1.5,0.8,2.1,1.4c0.6,0.6,1,1.3,1.4,2.1c0.3,0.8,0.5,1.7,0.5,2.7s-0.2,1.8-0.5,2.7c-0.3,0.8-0.8,1.5-1.4,2.1
				c-0.6,0.6-1.3,1-2.1,1.4c-0.8,0.3-1.7,0.5-2.6,0.5c-1,0-1.8-0.2-2.7-0.5c-0.8-0.3-1.5-0.8-2.1-1.4c-0.6-0.6-1-1.3-1.4-2.1
				C768.9-42.2,768.7-43.1,768.7-44.1z M771-44.1c0,0.7,0.1,1.3,0.3,1.8c0.2,0.6,0.5,1,0.9,1.4c0.4,0.4,0.8,0.7,1.4,1
				c0.5,0.2,1.1,0.3,1.7,0.3c0.6,0,1.2-0.1,1.8-0.3c0.5-0.2,1-0.5,1.4-1c0.4-0.4,0.7-0.9,0.9-1.4c0.2-0.6,0.3-1.2,0.3-1.8
				c0-0.7-0.1-1.3-0.3-1.8c-0.2-0.6-0.5-1-0.9-1.5s-0.8-0.7-1.4-1c-0.5-0.2-1.1-0.3-1.7-0.3c-0.6,0-1.2,0.1-1.8,0.3
				c-0.5,0.2-1,0.5-1.4,1c-0.4,0.4-0.7,0.9-0.9,1.5C771.1-45.3,771-44.7,771-44.1z M778.2-54.8l-1.9,3.2H774l1.9-3.2H778.2z"/>
			<path d="M797.8-39.5c-0.2,0.2-0.4,0.5-0.7,0.7c-0.3,0.3-0.6,0.5-1,0.7c-0.4,0.2-0.8,0.4-1.3,0.5s-1,0.2-1.5,0.2
				c-1,0-1.8-0.2-2.7-0.5c-0.8-0.3-1.5-0.8-2.1-1.4s-1-1.3-1.3-2.1c-0.3-0.8-0.5-1.7-0.5-2.7c0-0.9,0.2-1.8,0.5-2.6
				c0.3-0.8,0.8-1.5,1.3-2.1c0.6-0.6,1.3-1.1,2.1-1.4s1.7-0.5,2.6-0.5c1,0,1.9,0.2,2.6,0.6c0.7,0.4,1.3,0.8,1.7,1.3v-6.3h2.3v17.5
				h-2.2V-39.5z M789.1-44.1c0,0.7,0.1,1.3,0.3,1.8c0.2,0.6,0.5,1,0.9,1.5c0.4,0.4,0.8,0.7,1.4,0.9c0.5,0.2,1.1,0.3,1.7,0.3
				c0.6,0,1.2-0.1,1.8-0.3c0.5-0.2,1-0.5,1.4-0.9c0.4-0.4,0.7-0.9,0.9-1.5c0.2-0.6,0.3-1.2,0.3-1.8c0-0.7-0.1-1.3-0.3-1.8
				c-0.2-0.6-0.5-1-0.9-1.5c-0.4-0.4-0.8-0.7-1.4-1c-0.5-0.2-1.1-0.3-1.8-0.3c-0.6,0-1.2,0.1-1.8,0.3c-0.5,0.2-1,0.6-1.4,1
				c-0.4,0.4-0.7,0.9-0.9,1.5C789.2-45.3,789.1-44.7,789.1-44.1z"/>
			<path d="M804.1-43.4c0.1,1.2,0.5,2.2,1.2,2.9c0.7,0.7,1.7,1,2.9,1c1,0,1.8-0.2,2.5-0.7s1.1-1.1,1.5-1.8l1.8,0.9
				c-0.2,0.5-0.5,1-0.8,1.4c-0.3,0.4-0.8,0.8-1.2,1.2c-0.5,0.3-1,0.6-1.6,0.8c-0.6,0.2-1.3,0.3-2.1,0.3c-1,0-1.8-0.2-2.6-0.5
				c-0.8-0.3-1.5-0.8-2.1-1.3s-1-1.3-1.3-2.1c-0.3-0.8-0.5-1.7-0.5-2.7c0-1,0.2-1.9,0.5-2.7c0.3-0.8,0.7-1.5,1.3-2.1
				c0.6-0.6,1.2-1.1,2-1.4c0.8-0.3,1.6-0.5,2.5-0.5c0.9,0,1.8,0.1,2.6,0.4c0.8,0.3,1.4,0.7,2,1.3s1,1.2,1.3,2
				c0.3,0.8,0.5,1.6,0.5,2.6c0,0.1,0,0.3,0,0.5c0,0.2,0,0.4,0,0.6H804.1z M808-48.7c-1.1,0-1.9,0.3-2.6,0.9
				c-0.7,0.6-1.1,1.5-1.2,2.6h7.8c-0.1-1.1-0.5-1.9-1.2-2.5C810-48.4,809.1-48.7,808-48.7z"/>
			<path d="M818.2-37.6h-2.3v-17.5h2.3V-37.6z"/>
			<path d="M829.4-48.2h-0.6c-0.8,0-1.4,0.2-1.7,0.6c-0.4,0.4-0.5,1-0.5,1.8v8.1h-2.3v-12.8h2.3v1.2c0.2-0.4,0.6-0.7,1-0.9
				s1.1-0.4,1.8-0.3V-48.2z"/>
			<path d="M832-43.4c0.1,1.2,0.5,2.2,1.2,2.9c0.7,0.7,1.7,1,2.9,1c1,0,1.8-0.2,2.5-0.7s1.1-1.1,1.5-1.8l1.8,0.9
				c-0.2,0.5-0.5,1-0.8,1.4c-0.3,0.4-0.8,0.8-1.2,1.2c-0.5,0.3-1,0.6-1.6,0.8c-0.6,0.2-1.3,0.3-2.1,0.3c-1,0-1.8-0.2-2.6-0.5
				c-0.8-0.3-1.5-0.8-2.1-1.3s-1-1.3-1.3-2.1c-0.3-0.8-0.5-1.7-0.5-2.7c0-1,0.2-1.9,0.5-2.7c0.3-0.8,0.7-1.5,1.3-2.1
				c0.6-0.6,1.2-1.1,2-1.4c0.8-0.3,1.6-0.5,2.5-0.5c0.9,0,1.8,0.1,2.6,0.4c0.8,0.3,1.4,0.7,2,1.3c0.5,0.5,1,1.2,1.3,2
				c0.3,0.8,0.5,1.6,0.5,2.6c0,0.1,0,0.3,0,0.5c0,0.2,0,0.4,0,0.6H832z M835.9-48.7c-1.1,0-1.9,0.3-2.6,0.9
				c-0.7,0.6-1.1,1.5-1.2,2.6h7.8c-0.1-1.1-0.5-1.9-1.2-2.5C837.9-48.4,837-48.7,835.9-48.7z"/>
			<path d="M850.8-45.9c0-0.9-0.2-1.5-0.6-2c-0.4-0.5-0.9-0.7-1.7-0.7c-0.8,0-1.4,0.3-1.8,0.8s-0.6,1.2-0.6,2v8.2h-2.3v-12.8h2.3
				v1.2c0.1-0.1,0.2-0.3,0.4-0.4s0.4-0.3,0.6-0.4c0.2-0.1,0.5-0.2,0.8-0.3s0.7-0.1,1.1-0.1c0.7,0,1.4,0.1,1.9,0.4s0.9,0.6,1.2,1
				s0.6,0.9,0.7,1.4c0.1,0.5,0.2,1.1,0.2,1.8v8.5h-2.3V-45.9z"/>
			<path d="M865.7-39.5c-0.2,0.2-0.4,0.5-0.7,0.7c-0.3,0.3-0.6,0.5-1,0.7s-0.8,0.4-1.3,0.5c-0.5,0.1-1,0.2-1.5,0.2
				c-1,0-1.8-0.2-2.7-0.5c-0.8-0.3-1.5-0.8-2.1-1.4s-1-1.3-1.3-2.1c-0.3-0.8-0.5-1.7-0.5-2.7c0-0.9,0.2-1.8,0.5-2.6
				c0.3-0.8,0.8-1.5,1.3-2.1c0.6-0.6,1.3-1.1,2.1-1.4s1.7-0.5,2.6-0.5c1,0,1.9,0.2,2.6,0.6c0.7,0.4,1.3,0.8,1.7,1.3v-6.3h2.3v17.5
				h-2.2V-39.5z M857.1-44.1c0,0.7,0.1,1.3,0.3,1.8c0.2,0.6,0.5,1,0.9,1.5c0.4,0.4,0.8,0.7,1.4,0.9c0.5,0.2,1.1,0.3,1.7,0.3
				c0.6,0,1.2-0.1,1.8-0.3c0.5-0.2,1-0.5,1.4-0.9c0.4-0.4,0.7-0.9,0.9-1.5c0.2-0.6,0.3-1.2,0.3-1.8c0-0.7-0.1-1.3-0.3-1.8
				c-0.2-0.6-0.5-1-0.9-1.5s-0.8-0.7-1.4-1c-0.5-0.2-1.1-0.3-1.8-0.3c-0.6,0-1.2,0.1-1.8,0.3c-0.5,0.2-1,0.6-1.4,1s-0.7,0.9-0.9,1.5
				C857.2-45.3,857.1-44.7,857.1-44.1z"/>
			<path d="M871.4-51.7c-0.4,0-0.8-0.1-1.1-0.4s-0.4-0.7-0.4-1.1c0-0.4,0.1-0.8,0.4-1.1s0.7-0.4,1.1-0.4c0.4,0,0.8,0.1,1.1,0.4
				s0.5,0.6,0.5,1.1c0,0.4-0.2,0.8-0.5,1.1S871.8-51.7,871.4-51.7z M872.5-37.6h-2.3v-12.8h2.3V-37.6z"/>
			<path d="M883.9-37.6h-2.3v-8.2c0-0.8-0.2-1.5-0.5-2c-0.4-0.5-0.9-0.7-1.6-0.7c-0.8,0-1.3,0.3-1.7,0.8c-0.4,0.5-0.6,1.2-0.6,2.1
				v8.1h-2.3v-12.8h2.3v1.2c0.1-0.1,0.2-0.3,0.4-0.4s0.4-0.3,0.6-0.4c0.2-0.1,0.5-0.2,0.8-0.3c0.3-0.1,0.7-0.1,1.1-0.1
				c0.8,0,1.5,0.2,2,0.5c0.5,0.3,0.9,0.7,1.1,1.2c0.3-0.5,0.7-0.9,1.2-1.2c0.5-0.3,1.2-0.5,2.1-0.5c0.7,0,1.4,0.1,1.9,0.3
				c0.5,0.2,1,0.6,1.3,1s0.6,0.9,0.7,1.4c0.2,0.5,0.2,1.1,0.2,1.7v8.5h-2.3v-8.3c0-0.8-0.2-1.5-0.5-2c-0.4-0.5-0.9-0.7-1.7-0.7
				c-0.7,0-1.3,0.2-1.7,0.7s-0.6,1.1-0.6,1.9V-37.6z"/>
			<path d="M894.6-43.4c0.1,1.2,0.5,2.2,1.2,2.9c0.7,0.7,1.7,1,2.9,1c1,0,1.8-0.2,2.5-0.7s1.1-1.1,1.5-1.8l1.8,0.9
				c-0.2,0.5-0.5,1-0.8,1.4c-0.3,0.4-0.8,0.8-1.2,1.2c-0.5,0.3-1,0.6-1.6,0.8s-1.3,0.3-2.1,0.3c-1,0-1.8-0.2-2.6-0.5
				c-0.8-0.3-1.5-0.8-2.1-1.3s-1-1.3-1.3-2.1c-0.3-0.8-0.5-1.7-0.5-2.7c0-1,0.2-1.9,0.5-2.7c0.3-0.8,0.7-1.5,1.3-2.1
				c0.6-0.6,1.2-1.1,2-1.4c0.8-0.3,1.6-0.5,2.5-0.5c0.9,0,1.8,0.1,2.6,0.4c0.8,0.3,1.4,0.7,2,1.3c0.5,0.5,1,1.2,1.3,2
				c0.3,0.8,0.5,1.6,0.5,2.6c0,0.1,0,0.3,0,0.5c0,0.2,0,0.4,0,0.6H894.6z M898.5-48.7c-1.1,0-1.9,0.3-2.6,0.9
				c-0.7,0.6-1.1,1.5-1.2,2.6h7.8c-0.1-1.1-0.5-1.9-1.2-2.5C900.6-48.4,899.7-48.7,898.5-48.7z"/>
			<path d="M913.4-45.9c0-0.9-0.2-1.5-0.6-2c-0.4-0.5-0.9-0.7-1.7-0.7c-0.8,0-1.4,0.3-1.8,0.8s-0.6,1.2-0.6,2v8.2h-2.3v-12.8h2.3
				v1.2c0.1-0.1,0.2-0.3,0.4-0.4s0.4-0.3,0.6-0.4c0.2-0.1,0.5-0.2,0.8-0.3s0.7-0.1,1.1-0.1c0.7,0,1.4,0.1,1.9,0.4s0.9,0.6,1.2,1
				s0.6,0.9,0.7,1.4c0.1,0.5,0.2,1.1,0.2,1.8v8.5h-2.3V-45.9z"/>
			<path d="M920.4-50.5h2.4v1.9h-2.4v7.3c0,0.6,0.1,1,0.3,1.3c0.2,0.3,0.6,0.4,1.2,0.4h0.9v1.9c-0.1,0-0.3,0-0.5,0.1
				s-0.6,0.1-0.9,0.1c-1.2,0-2-0.3-2.5-0.8s-0.7-1.4-0.7-2.4v-7.8h-1.3v-1.9h1.3v-2h2.3V-50.5z"/>
			<path d="M934.1-39.5c0.4,0,0.8,0,1.2-0.1c0.3-0.1,0.7-0.2,0.9-0.4c0.3-0.1,0.5-0.3,0.7-0.5s0.4-0.3,0.6-0.5l1.3,1.4
				c-0.2,0.2-0.4,0.5-0.7,0.7s-0.6,0.5-1,0.7c-0.4,0.2-0.8,0.4-1.3,0.5s-1.1,0.2-1.7,0.2c-1,0-1.9-0.2-2.7-0.5
				c-0.8-0.3-1.5-0.8-2.1-1.4c-0.6-0.6-1-1.3-1.3-2.1c-0.3-0.8-0.5-1.7-0.5-2.6s0.2-1.8,0.5-2.6c0.3-0.8,0.8-1.5,1.4-2.1
				c0.6-0.6,1.3-1.1,2.1-1.4c0.8-0.3,1.7-0.5,2.6-0.5c0.6,0,1.2,0.1,1.7,0.2c0.5,0.1,1,0.3,1.4,0.5c0.4,0.2,0.7,0.4,1,0.7
				s0.5,0.5,0.7,0.7l-1.4,1.4c-0.3-0.4-0.8-0.7-1.3-1c-0.5-0.3-1.2-0.5-2-0.5c-0.6,0-1.2,0.1-1.7,0.3c-0.5,0.2-1,0.6-1.3,1
				c-0.4,0.4-0.7,0.9-0.9,1.5c-0.2,0.6-0.3,1.2-0.3,1.8c0,0.7,0.1,1.3,0.3,1.9c0.2,0.6,0.5,1,0.9,1.4s0.8,0.7,1.4,0.9
				C932.9-39.6,933.5-39.5,934.1-39.5z"/>
			<path d="M939.1-44.1c0-1,0.2-1.9,0.5-2.7c0.3-0.8,0.8-1.5,1.4-2.1c0.6-0.6,1.3-1.1,2.1-1.4c0.8-0.3,1.7-0.5,2.6-0.5
				c1,0,1.8,0.2,2.7,0.5s1.5,0.8,2.1,1.4c0.6,0.6,1,1.3,1.4,2.1c0.3,0.8,0.5,1.7,0.5,2.7s-0.2,1.8-0.5,2.7c-0.3,0.8-0.8,1.5-1.4,2.1
				s-1.3,1-2.1,1.4s-1.7,0.5-2.6,0.5c-1,0-1.8-0.2-2.7-0.5c-0.8-0.3-1.5-0.8-2.1-1.4s-1-1.3-1.4-2.1S939.1-43.1,939.1-44.1z
				 M941.4-44.1c0,0.7,0.1,1.3,0.3,1.8c0.2,0.6,0.5,1,0.9,1.4c0.4,0.4,0.8,0.7,1.4,1c0.5,0.2,1.1,0.3,1.7,0.3c0.6,0,1.2-0.1,1.8-0.3
				c0.5-0.2,1-0.5,1.4-1s0.7-0.9,0.9-1.4c0.2-0.6,0.3-1.2,0.3-1.8c0-0.7-0.1-1.3-0.3-1.8c-0.2-0.6-0.5-1-0.9-1.5
				c-0.4-0.4-0.8-0.7-1.4-1c-0.5-0.2-1.1-0.3-1.7-0.3c-0.6,0-1.2,0.1-1.8,0.3c-0.5,0.2-1,0.5-1.4,1s-0.7,0.9-0.9,1.5
				C941.5-45.3,941.4-44.7,941.4-44.1z"/>
			<path d="M964.5-50.5h2.2v10.7c0,1.2-0.2,2.2-0.5,3.1c-0.3,0.8-0.8,1.5-1.4,2c-0.6,0.5-1.3,0.9-2.1,1.1c-0.8,0.2-1.7,0.3-2.6,0.3
				c-1.1,0-2.1-0.1-3-0.4c-0.9-0.3-1.6-0.6-2.1-0.9l0.9-1.8c0.4,0.3,1,0.5,1.7,0.8c0.7,0.3,1.5,0.4,2.5,0.4c0.6,0,1.2-0.1,1.7-0.2
				s1-0.4,1.4-0.7c0.4-0.3,0.7-0.7,1-1.2c0.2-0.5,0.3-1.1,0.3-1.7v-0.4c-0.1,0.2-0.3,0.5-0.6,0.7c-0.2,0.2-0.6,0.5-0.9,0.7
				s-0.8,0.4-1.2,0.5s-1,0.2-1.6,0.2c-1,0-1.8-0.2-2.7-0.5c-0.8-0.3-1.5-0.8-2.1-1.3s-1-1.3-1.4-2.1c-0.3-0.8-0.5-1.7-0.5-2.7
				c0-0.9,0.2-1.8,0.5-2.6c0.3-0.8,0.8-1.5,1.4-2.1c0.6-0.6,1.3-1.1,2.1-1.4c0.8-0.3,1.7-0.5,2.6-0.5c1,0,1.9,0.2,2.6,0.6
				s1.4,0.8,1.8,1.4V-50.5z M955.8-44.1c0,0.7,0.1,1.3,0.3,1.8c0.2,0.6,0.5,1,0.9,1.5c0.4,0.4,0.8,0.7,1.4,0.9
				c0.5,0.2,1.1,0.3,1.7,0.3c0.6,0,1.2-0.1,1.8-0.3c0.5-0.2,1-0.5,1.4-0.9c0.4-0.4,0.7-0.9,0.9-1.5c0.2-0.6,0.3-1.2,0.3-1.8
				c0-0.7-0.1-1.3-0.3-1.8c-0.2-0.6-0.5-1-0.9-1.5s-0.8-0.7-1.4-1c-0.5-0.2-1.1-0.3-1.8-0.3c-0.6,0-1.2,0.1-1.8,0.3
				c-0.5,0.2-1,0.6-1.4,1s-0.7,0.9-0.9,1.5C955.9-45.3,955.8-44.7,955.8-44.1z"/>
			<path d="M975.9-45.9c0-0.9-0.2-1.5-0.6-2c-0.4-0.5-0.9-0.7-1.7-0.7c-0.8,0-1.4,0.3-1.8,0.8s-0.6,1.2-0.6,2v8.2H969v-12.8h2.3v1.2
				c0.1-0.1,0.2-0.3,0.4-0.4s0.4-0.3,0.6-0.4c0.2-0.1,0.5-0.2,0.8-0.3s0.7-0.1,1.1-0.1c0.7,0,1.4,0.1,1.9,0.4s0.9,0.6,1.2,1
				s0.6,0.9,0.7,1.4c0.1,0.5,0.2,1.1,0.2,1.8v8.5h-2.3V-45.9z"/>
			<path d="M981.6-51.7c-0.4,0-0.8-0.1-1.1-0.4s-0.4-0.7-0.4-1.1c0-0.4,0.1-0.8,0.4-1.1s0.7-0.4,1.1-0.4c0.4,0,0.8,0.1,1.1,0.4
				s0.5,0.6,0.5,1.1c0,0.4-0.2,0.8-0.5,1.1S982-51.7,981.6-51.7z M982.8-37.6h-2.3v-12.8h2.3V-37.6z"/>
			<path d="M987.8-50.5h2.4v1.9h-2.4v7.3c0,0.6,0.1,1,0.3,1.3c0.2,0.3,0.6,0.4,1.2,0.4h0.9v1.9c-0.1,0-0.3,0-0.5,0.1
				s-0.6,0.1-0.9,0.1c-1.2,0-2-0.3-2.5-0.8s-0.7-1.4-0.7-2.4v-7.8h-1.3v-1.9h1.3v-2h2.3V-50.5z"/>
			<path d="M992.9-51.7c-0.4,0-0.8-0.1-1.1-0.4s-0.4-0.7-0.4-1.1c0-0.4,0.1-0.8,0.4-1.1s0.7-0.4,1.1-0.4c0.4,0,0.8,0.1,1.1,0.4
				s0.5,0.6,0.5,1.1c0,0.4-0.2,0.8-0.5,1.1S993.3-51.7,992.9-51.7z M994.1-37.6h-2.3v-12.8h2.3V-37.6z"/>
			<path d="M998.6-42.3c0,0.9,0.2,1.5,0.5,2c0.4,0.5,0.9,0.7,1.7,0.7s1.3-0.3,1.7-0.8c0.4-0.5,0.6-1.2,0.6-2v-8.2h2.3v12.8h-2.3
				v-1.2c-0.2,0.3-0.5,0.6-1,0.9s-1.1,0.4-1.9,0.4c-0.7,0-1.3-0.1-1.8-0.3s-0.9-0.6-1.2-1c-0.3-0.4-0.6-0.9-0.7-1.4
				c-0.1-0.5-0.2-1.1-0.2-1.8v-8.5h2.3V-42.3z"/>
		</g>
	</g>
	<g>
		<rect x="688.4" y="-113.3" class="st8" width="283.7" height="138.5"/>
		<g class="st9">
			<path class="st1" d="M708.5-91.7c-0.4,0.4-0.8,0.7-1.3,1.1c-0.5,0.4-1.1,0.7-1.7,1c-0.6,0.3-1.3,0.5-2.1,0.7s-1.6,0.3-2.4,0.3
				c-1.8,0-3.4-0.3-4.8-0.9c-1.5-0.6-2.7-1.4-3.7-2.5s-1.8-2.3-2.4-3.7c-0.6-1.5-0.8-3-0.8-4.8c0-1.7,0.3-3.3,0.9-4.8
				s1.4-2.7,2.4-3.8c1-1.1,2.3-1.9,3.7-2.5c1.4-0.6,3-0.9,4.8-0.9c1.5,0,2.9,0.2,4.1,0.7s2.3,1.1,3.3,1.9l-1.9,2.4
				c-0.7-0.6-1.5-1.1-2.4-1.4s-1.9-0.6-3.1-0.6c-1.3,0-2.4,0.2-3.4,0.7c-1,0.4-1.9,1.1-2.6,1.8s-1.3,1.7-1.7,2.8
				c-0.4,1.1-0.6,2.3-0.6,3.5c0,1.3,0.2,2.5,0.6,3.6c0.4,1.1,1,2,1.7,2.8c0.7,0.8,1.6,1.4,2.7,1.8s2.2,0.7,3.4,0.7
				c1.3,0,2.4-0.2,3.3-0.7c0.9-0.5,1.7-1,2.3-1.5L708.5-91.7z"/>
			<path class="st1" d="M723.9-96.6h-8.6l-2.8,7.5h-3.2l8.6-22.8h3.4l9,22.8h-3.4L723.9-96.6z M716.3-99.4h6.5l-3.3-8.4L716.3-99.4z
				"/>
			<path class="st1" d="M744.5-105.8c0,1-0.2,1.9-0.5,2.7s-0.8,1.5-1.4,2c-0.6,0.5-1.3,1-2.1,1.3c-0.8,0.3-1.7,0.4-2.7,0.4h-2.7
				v10.3h-3.2V-112h5.9c2.1,0,3.8,0.5,5,1.5C743.9-109.4,744.5-107.8,744.5-105.8z M735.1-109.2v7h2.5c1.2,0,2-0.3,2.6-1
				c0.6-0.6,0.9-1.5,0.9-2.6c0-1.1-0.3-1.9-0.9-2.5c-0.6-0.6-1.5-0.9-2.6-0.9H735.1z"/>
		</g>
	</g>
	<line class="st10" x1="1300.8" y1="-135.6" x2="688.4" y2="-137.3"/>
	<circle class="st4" cx="677" cy="-45.6" r="5.5"/>
</g>
</svg>
