<?xml version="1.0" encoding="utf-8"?>
<!-- Generator: Adobe Illustrator 21.1.0, SVG Export Plug-In . SVG Version: 6.00 Build 0)  -->
<svg version="1.1" id="Capa_1" xmlns="http://www.w3.org/2000/svg" xmlns:xlink="http://www.w3.org/1999/xlink" x="0px" y="0px"
	 viewBox="0 0 1440 1451.3" style="enable-background:new 0 0 1440 1451.3;" xml:space="preserve">
<style type="text/css">
	.st0{fill:#F4F4F4;}
	.st1{fill:#181716;}
	.st2{fill:none;}
	.st3{font-family:'Platform'; font-weight: 300; letter-spacing: 1px;}
	.st4{font-size:24.0054px;}
	.st5{letter-spacing:1;}
	.st6{fill:#34B7EB;}
	.st7{fill:#004F9F;}
	.st8{fill:#F29700;}
	.st9{fill:#BB94C2;}
	.st10{fill:#3AA336;}
	.st11{fill:#6E6E6D;}
	.st12{fill:#9B9B9B;}
	.st13{fill:none;stroke:#181716;stroke-width:6.0014;stroke-miterlimit:10;}
	.st14{font-size:33.0075px;}
	.st15{fill:none;stroke:#181716;stroke-width:1.5003;stroke-miterlimit:10;}
@font-face {
  font-family: 'Platform';
  src: url('../fonts/Platform-Regular.eot');
  src: url('../fonts/Platform-Regular.eot?#iefix') format('embedded-opentype'),
  url('../fonts/Platform-Regular.woff') format('woff'),
  url('../fonts/Platform-Regular.ttf') format('truetype'),
  url('../fonts/Platform-Regular.otf') format('opentype'),
  url('../fonts/Platform-Regular.svg#Platform-Regular') format('svg');
  font-weight: 300;
  font-style: normal;
}
</style>
<g id="bg">
	<rect y="0" class="st0" width="1440" height="1452.7"/>
	<rect y="1245.3" class="st1" width="1440" height="207.3"/>
</g>
<g id="Cos">
	<g>
		<g>
			<rect x="118.6" y="171.7" class="st2" width="380.7" height="427.2"/>
			<text transform="matrix(1 0 0 1 118.5593 189.2391)"><tspan x="0" y="0" class="st1 st3 st4 st5">Dementia</tspan><tspan x="0" y="36" class="st1 st3 st4 st5">Cognitive impairment </tspan><tspan x="0" y="72" class="st1 st3 st4 st5">Neurodegenerative diseases </tspan><tspan x="0" y="108" class="st1 st3 st4 st5">Mental health problems</tspan><tspan x="0" y="144" class="st1 st3 st4 st5">Stroke</tspan><tspan x="0" y="180" class="st1 st3 st4 st5">Cerebrovascular diseases</tspan><tspan x="0" y="216" class="st1 st3 st4 st5">Autism and child behaviour </tspan><tspan x="0" y="242" class="st1 st3 st4 st5">problems</tspan><tspan x="0" y="278.1" class="st3 st4 st5">Tinnitus or deafness</tspan><tspan x="0" y="314.1" class="st3 st4 st5">Reduction of cognitive </tspan><tspan x="0" y="340.1" class="st3 st4 st5">performance</tspan></text>
		</g>
		<circle class="st6" cx="107.2" cy="396.5" r="5.5"/>
		<circle class="st7" cx="107.2" cy="459.8" r="5.5"/>
		<circle class="st8" cx="107.2" cy="494.9" r="5.5"/>
		<g>
			<circle class="st6" cx="107.2" cy="325.5" r="5.5"/>
			<circle class="st9" cx="79.5" cy="325.5" r="5.5"/>
			<circle class="st7" cx="93.4" cy="325.5" r="5.5"/>
		</g>
		<g>
			<circle class="st6" cx="107.2" cy="181.3" r="5.5"/>
			<circle class="st9" cx="93.4" cy="181.3" r="5.5"/>
		</g>
		<g>
			<circle class="st6" cx="107.2" cy="253.3" r="5.5"/>
			<circle class="st9" cx="93.4" cy="253.3" r="5.5"/>
		</g>
		<g>
			<circle class="st7" cx="107.2" cy="361.5" r="5.5"/>
			<circle class="st9" cx="93.4" cy="361.5" r="5.5"/>
		</g>
		<g>
			<circle class="st7" cx="107.2" cy="217.9" r="5.5"/>
			<circle class="st9" cx="93.4" cy="217.9" r="5.5"/>
		</g>
		<circle class="st10" cx="79.5" cy="289" r="5.5"/>
		<circle class="st9" cx="93.4" cy="289" r="5.5"/>
		<circle class="st6" cx="107.2" cy="289" r="5.5"/>
	</g>
	<g>
		<g>
			<g>
				<path class="st11" d="M722,57.9c-0.4,0-0.7,0-1,0c-0.3,0-0.7,0-1,0c-44.9-0.4-62.4,35.1-59.8,80.4c2.5,44.3,19.6,91.2,60.6,92.1
					v0c0.1,0,0.2,0,0.3,0c0.1,0,0.2,0,0.3,0v0c41-0.9,58.1-47.8,60.6-92.1C784.5,93,767,57.4,722,57.9z"/>
				<g>
					
						<ellipse transform="matrix(0.1335 -0.9911 0.9911 0.1335 521.5591 907.4851)" class="st11" cx="779.7" cy="155.5" rx="23.8" ry="8"/>
					
						<ellipse transform="matrix(0.9911 -0.1335 0.1335 0.9911 -14.8278 89.7897)" class="st11" cx="662.3" cy="155.5" rx="8" ry="23.8"/>
				</g>
				<rect x="685.9" y="198.1" class="st11" width="70.1" height="73.1"/>
				<g>
					<path class="st11" d="M733.9,304.2l-48.1-73.8v0c0,20.9-16.9,37.8-37.8,37.8h0L733.9,304.2z"/>
					<path class="st11" d="M708.1,304.2l48.1-73.8v0c0,20.9,16.9,37.8,37.8,37.8h0L708.1,304.2z"/>
				</g>
			</g>
			<g>
				<rect x="631.4" y="267.9" class="st11" width="178.7" height="281.4"/>
				<path class="st11" d="M604,306.4h233.4v86.2c0,35.4-28.7,64-64,64H668c-35.4,0-64-28.7-64-64V306.4z"/>
				<path class="st11" d="M558.2,389.6h325.1v-59.3c0-34.5-28-62.4-62.4-62.4H620.6c-34.5,0-62.4,28-62.4,62.4V389.6z"/>
				<path class="st11" d="M810.1,549.3h-89.4v196.1h127.1c0,0,0-24.5,0-74.5C847.8,623,810.1,549.3,810.1,549.3z"/>
				<path class="st11" d="M631.3,549.3h89.4v196.1H593.6c0,0,0-24.5,0-74.5C593.6,623,631.3,549.3,631.3,549.3z"/>
				<g>
					<path class="st11" d="M806,996.4c0,19.3-77.1,0-77.1,0v-251c0,0,118.8-29.7,118.8,0C847.8,852.2,806,967.4,806,996.4z"/>
					<path class="st11" d="M784.9,1311.3h-41l-14.9-314.8h76.9c0,0,6.4,92.3,6.4,123.2C812.2,1206.3,784.9,1311.3,784.9,1311.3z"/>
					<path class="st11" d="M792.7,1406.3c-0.1,2.3-2.4,6-4.9,9.3c-3.8,5-9.7,7.8-15.9,7.8h-29.7c-7,0-12.4-6.1-11.4-13.1l13.1-99h41
						C784.8,1311.3,793.7,1377,792.7,1406.3z"/>
				</g>
				<g>
					<path class="st11" d="M635.4,996.4c0,19.3,77.1,0,77.1,0v-251c0,0-118.8-29.7-118.8,0C593.6,852.2,635.4,967.4,635.4,996.4z"/>
					<path class="st11" d="M656.5,1311.3h41l14.9-314.8h-76.9c0,0-6.4,92.3-6.4,123.2C629.2,1206.3,656.5,1311.3,656.5,1311.3z"/>
					<path class="st11" d="M648.7,1406.3c0.1,2.3,2.4,6,4.9,9.3c3.8,5,9.7,7.8,15.9,7.8h29.7c7,0,12.4-6.1,11.4-13.1l-13.1-99h-41
						C656.6,1311.3,647.7,1377,648.7,1406.3z"/>
				</g>
				<polygon class="st11" points="903.7,538.9 857.8,544.2 830,326.9 883.1,320.7 				"/>
				<path class="st11" d="M918.5,723.6l-27,3.1l-33.7-182.5c0,0,42.4-39.8,43.8-27.7c2.5,21.5,8.9,43.4,12.1,73.1
					C917.3,622.9,918.5,723.6,918.5,723.6z"/>
				<path class="st11" d="M918.5,723.6V765c0,8.9-2.7,17.6-7.9,24.9l-32.9,46.8c-2.7,3.9-8,4.9-11.9,2.3l0,0
					c-3.7-2.4-5-7.1-3.1-11.1l20.4-42.3l-2.8-15.3l-14.6,28.8c-0.7,1.3-2.2,2-3.7,1.6h0c-1.5-0.4-2.5-1.9-2.3-3.4l3.1-27.7
					c0.8-7.2,3.3-14.1,7.4-20.1l21.2-22.9L918.5,723.6z"/>
				<g>
					<polygon class="st11" points="538.3,538.9 584.2,544.2 612,326.9 558.9,320.7 					"/>
					<path class="st11" d="M523.5,723.6l27,3.1l33.7-182.5c0,0-42.4-39.8-43.8-27.7c-2.5,21.5-8.9,43.4-12.1,73.1
						C524.7,622.9,523.5,723.6,523.5,723.6z"/>
					<path class="st11" d="M523.5,723.6V765c0,8.9,2.7,17.6,7.9,24.9l32.9,46.8c2.7,3.9,8,4.9,11.9,2.3l0,0c3.7-2.4,5-7.1,3.1-11.1
						l-20.4-42.3l2.8-15.3l14.6,28.8c0.7,1.3,2.2,2,3.7,1.6h0c1.5-0.4,2.5-1.9,2.3-3.4l-3.1-27.7c-0.8-7.2-3.3-14.1-7.4-20.1
						l-21.2-22.9L523.5,723.6z"/>
				</g>
			</g>
		</g>
		<g>
			<g>
				<path class="st12" d="M738.5,274.6L738.5,274.6c3.9-2.5,8.4-3.9,13.1-3.9h6.3c7.9,0.5,12.9,3.1,16,7.1
					c21.4,27.7,48.6,65,55.8,114.3c1.7,11.9-15.2,35.7-19.8,39.1c-55.8,41.5-87.2-27.9-87.2-27.9l5-109.7
					C728,285.9,732.1,278.8,738.5,274.6z"/>
				<circle class="st12" cx="775.1" cy="397.3" r="54.6"/>
			</g>
			<g>
				<path class="st12" d="M704.3,274.6L704.3,274.6c-3.9-2.5-8.4-3.9-13.1-3.9h-6.3c-7.9,0.5-12.9,3.1-16,7.1
					c-21.4,27.7-48.6,65-55.8,114.3c-1.7,11.9,15.2,35.7,19.8,39.1c55.8,41.5,87.2-27.9,87.2-27.9l17.6-99l-22.5-10.6
					C714.8,285.9,710.7,278.8,704.3,274.6z"/>
				<circle class="st12" cx="667.7" cy="397.3" r="54.6"/>
			</g>
		</g>
		<path class="st12" d="M721,717L721,717c-30.3,0-54.9-24.6-54.9-54.9v-61.7c0-30.3,24.6-54.9,54.9-54.9h0
			c30.3,0,54.9,24.6,54.9,54.9v61.7C775.9,692.4,751.3,717,721,717z"/>
		<g>
			<g>
				<g>
					<circle class="st11" cx="688.6" cy="395.9" r="22.4"/>
					<circle class="st11" cx="658.8" cy="406.7" r="24.4"/>
					<circle class="st11" cx="697.5" cy="331.1" r="13.5"/>
					<rect x="681.2" y="331.1" class="st11" width="29.9" height="61"/>
					<path class="st11" d="M635.3,400.1c13.2-52.4,53.6-79.5,53.6-79.5l5.4,70.4C694.4,391,631.6,414.6,635.3,400.1z"/>
				</g>
				<g>
					<circle class="st11" cx="754.2" cy="395.9" r="22.4"/>
					<circle class="st11" cx="784" cy="406.7" r="24.4"/>
					<circle class="st11" cx="745.3" cy="331.1" r="13.5"/>
					
						<rect x="731.7" y="331.1" transform="matrix(-1 4.449939e-11 -4.449939e-11 -1 1493.3452 723.158)" class="st11" width="29.9" height="61"/>
					<path class="st11" d="M807.5,400.1c-13.2-52.4-53.6-79.5-53.6-79.5l-5.4,70.4C748.4,391,811.1,414.6,807.5,400.1z"/>
				</g>
			</g>
			<rect x="713.9" y="270.2" class="st11" width="14.9" height="56.1"/>
			<g>
				
					<rect x="731.6" y="314.7" transform="matrix(0.7071 -0.7071 0.7071 0.7071 -25.8913 622.9561)" class="st11" width="14.9" height="56.1"/>
				
					<rect x="696.3" y="314.7" transform="matrix(-0.7071 -0.7071 0.7071 -0.7071 959.0388 1082.7101)" class="st11" width="14.9" height="56.1"/>
			</g>
		</g>
		<g>
			<path class="st13" d="M889.1,762.4c0,0,20.9-17.7,20.3-35.7c-1.6-43.9,1.6-76-1.6-100.3c-8-60.9-24.9-73-27.9-100.5
				c-2.6-23.1,5-164.8-13-199.7c-19.1-36.9-65.2-41.5-97.4-33c-22.8,6-28.3,24.1-30.4,35.6c-1.6,8.8-1.8,16.5,2.7,35.8"/>
			<path class="st13" d="M820.3,292.1c23.7,6.2,25.7,29.3,27.5,56.9c1.8,27.6,33.3,135.3,30.9,171.2c-2.4,35.9-1.1,91.7,6.5,115.8
				c7.6,24.1,21.6,54.8,23.8,80.9"/>
			<path class="st13" d="M554,762.4c0,0-20.9-17.7-20.3-35.7c1.6-43.9-1.6-76,1.6-100.3c8-60.9,24.9-73,27.9-100.5
				c2.6-23.1-5-164.8,13-199.7c19.1-36.9,65.2-41.5,97.4-33c22.8,6,47.4,21.8,51.6,35.6c2.6,8.6,8.6,16.5,4.2,35.8"/>
			<path class="st13" d="M622.8,292.1c-23.7,6.2-25.7,29.3-27.5,56.9c-1.8,27.6-33.3,135.3-30.9,171.2c2.4,35.9,1.1,91.7-6.5,115.8
				c-7.6,24.1-21.6,54.8-23.8,80.9"/>
			<path class="st13" d="M769.4,293.2c0,0-23.1-47.7-24.2-62.9s13.1-41.3,23.2-68.4c5.7-15.3,5-30.2,3.3-40.3
				c-1.3-7.6-6.4-14-13.5-16.9l-4.6-1.9"/>
			<line class="st13" x1="745.3" y1="226.9" x2="751.1" y2="302.5"/>
			<path class="st13" d="M672.2,292.4c0,0,23.1-46.8,24.2-62c1.1-15.2-13.1-41.3-23.2-68.4c-6.5-17.4-4.7-34.3-2.5-44.1
				c1.2-5.4,4.3-10.1,8.7-13.3l4.8-3.5"/>
			<line class="st13" x1="696.4" y1="226.9" x2="690.5" y2="299.1"/>
			<path class="st13" d="M725.1,412.8c0,0-3.9,223.5,0.4,234.6c4.3,11.1,78.3,67.9,82.1,115c8.8,108-27.9,228.6-29.6,234.1
				c-6.6,21.4,19,145.2,13.3,195.2s-26.4,117.2-29.7,141.5c-3.2,24.3-5.6,54.3-5.6,54.3"/>
			<path class="st13" d="M754.2,678c13,13.8,18.6,46.7,16.4,84.3c-2.1,37.6,8.4,197.7,2.4,249.2s-18.1,154.4-14.2,193
				c3.9,38.6,7.1,90.2,2.9,128.7"/>
			<path class="st13" d="M724,644c-4.3,11.1-86.7,71.3-90.5,118.4c-8.8,108,27.9,228.6,29.6,234.1c6.6,21.4-19,145.2-13.3,195.2
				s26.4,117.2,29.7,141.5c3.2,24.3,5.6,54.3,5.6,54.3"/>
			<path class="st13" d="M687.4,680.2c-13,13.8-19,44.6-16.9,82.2c2.1,37.6-8.4,197.7-2.4,249.2c6,51.5,18.1,154.4,14.2,193
				c-3.9,38.6-7.1,90.2-2.9,128.7"/>
		</g>
		<path class="st1" d="M726.5,341.5c0,0,4.3,6.4,3.8,7.8c-0.4,1.4-3.7,2.6-7.2,11c-2.3,5.8,0.9,11.3-0.6,12.4
			c-1.6,1.1-5.7,7.9-6.9,10.2c-8.9,16.7,4,34.6,13.3,41.2c9.3,6.5,18.4,6.7,24.3,9.3c8.2,3.5,19,5.8,25.3-5.3c0,0,4.1-8.5-1-24.1
			c-2.9-8.9-6.4-15.4-8.1-17.8c-5.5-7.7-11.2-11.2-13.8-12.6c-1.4-0.7-0.8-3.8,2-5c2.8-1.3,6-0.3,6-0.3l1-4c0,0-3.9-1.3-5.8-0.9
			c-1.9,0.3,2.1-4.2,2.3-7.3c0,0-2.7-2.3-4.4-1.7c0,0-1,3.7-3.5,7.7c0,0,1-9.6-5.9-14.6c0,0,1.6-8.1,2.1-8.8c0,0-3.2-1.7-4.5-1.4
			c0,0-1.9,8.1-2.2,8.3c-0.3,0.2-0.9,1.2-1.5,0.2c-0.6-1-0.8-9.6-0.8-9.6l-4.4,0.5c0,0,1.9,9.3,0.7,9.8c-0.4,0.2-0.8,0.8-1.6,0.1
			c-2.1-1.8-4.3-6.9-4.3-7.3C730.7,338.8,726.5,341.5,726.5,341.5z"/>
		<g>
			<circle class="st12" cx="687.7" cy="100.4" r="13.6"/>
			<circle class="st12" cx="708" cy="88.8" r="14.7"/>
			<circle class="st12" cx="730.6" cy="87.3" r="16.3"/>
			<circle class="st12" cx="681.5" cy="105.9" r="8.1"/>
			<circle class="st12" cx="761" cy="105.9" r="8.1"/>
			<circle class="st12" cx="750" cy="94.4" r="11"/>
			<rect x="681.5" y="100.4" class="st12" width="79.6" height="13.6"/>
			<rect x="706.9" y="91.3" class="st12" width="14.3" height="17.6"/>
		</g>
	</g>
	<g>
		<rect x="118.6" y="113.6" class="st2" width="283.7" height="41.9"/>
		<text transform="matrix(1 0 0 1 118.5601 137.7545)" class="st1 st3 st14 st5">Head</text>
	</g>
	<line class="st15" x1="731" y1="91.2" x2="118.6" y2="89.5"/>
	<g>
		<rect x="961.3" y="841.7" class="st2" width="360.9" height="195.4"/>
		<text transform="matrix(1 0 0 1 1154.4563 859.256)"><tspan x="0" y="0" class="st1 st3 st4 st5">Premature birth </tspan><tspan x="-99.1" y="36" class="st1 st3 st4 st5">Reduced weight at birth </tspan><tspan x="35.7" y="72" class="st1 st3 st4 st5">Preclampsia</tspan><tspan x="-125" y="108" class="st1 st3 st4 st5">Reduction in sperm quality</tspan></text>
	</g>
	<g>
		<rect x="955.5" y="746.1" class="st2" width="366.7" height="123.5"/>
		<text transform="matrix(1 0 0 1 993.3147 770.2064)"><tspan x="0" y="0" class="st1 st3 st14">Reproductive system </tspan><tspan x="178.7" y="37.5" class="st1 st3 st14">and fetus     </tspan></text>
	</g>
	<g>
		<rect x="118.6" y="790.7" class="st2" width="283.7" height="57.7"/>
		<text transform="matrix(1 0 0 1 118.5591 814.7833)" class="st1 st3 st14 st5">GENERAL/OTHERS</text>
	</g>
	<line class="st15" x1="614.7" y1="768.3" x2="118.6" y2="766.6"/>
	<g>
		<g>
			<rect x="118.6" y="848.7" class="st2" width="538.6" height="474.6"/>
			<text transform="matrix(1 0 0 1 118.5596 866.2677)"><tspan x="0" y="0" class="st1 st3 st4 st5">Obesity</tspan><tspan x="0" y="36" class="st1 st3 st4 st5">Diabetes</tspan><tspan x="0" y="72" class="st1 st3 st4 st5">Metabolic syndrome</tspan><tspan x="0" y="108" class="st1 st3 st4 st5">Nuisance, stress</tspan><tspan x="0" y="144" class="st1 st3 st4 st5">Sleep disorder</tspan><tspan x="0" y="180" class="st3 st4">Injuries from work and traffic accidents</tspan><tspan x="0" y="216" class="st1 st3 st4 st5">Colon cancer</tspan><tspan x="0" y="252.1" class="st1 st3 st4 st5">Systemic inflammation</tspan><tspan x="0" y="288.1" class="st1 st3 st4 st5">Worse general health</tspan><tspan x="0" y="324.1" class="st1 st3 st4 st5">Increase in mortality</tspan></text>
		</g>
		<circle class="st7" cx="107.2" cy="1003" r="5.5"/>
		<circle class="st9" cx="107.2" cy="858.6" r="5.5"/>
		<circle class="st8" cx="107.2" cy="1037.5" r="5.5"/>
		<g>
			<circle class="st6" cx="107.2" cy="895.2" r="5.5"/>
			<circle class="st9" cx="93.2" cy="895.2" r="5.5"/>
		</g>
		<g>
			<circle class="st7" cx="107.2" cy="967.3" r="5.5"/>
			<circle class="st10" cx="93.4" cy="967.3" r="5.5"/>
		</g>
		<circle class="st10" cx="107.2" cy="1145.1" r="5.5"/>
		<g>
			<circle class="st8" cx="80.9" cy="1180.7" r="5.5"/>
			
				<ellipse transform="matrix(0.9674 -0.2532 0.2532 0.9674 -296.7203 55.6068)" class="st9" cx="67.7" cy="1180.7" rx="5.5" ry="5.5"/>
			<circle class="st10" cx="54.7" cy="1180.7" r="5.5"/>
			<circle class="st7" cx="94" cy="1180.7" r="5.5"/>
			<circle class="st6" cx="107.2" cy="1180.7" r="5.5"/>
		</g>
		<circle class="st9" cx="107.2" cy="929.5" r="5.5"/>
		<circle class="st9" cx="107.2" cy="1072.4" r="5.5"/>
		<circle class="st6" cx="107.2" cy="1109.4" r="5.5"/>
	</g>
	<circle class="st6" cx="1334.7" cy="851.6" r="5.5"/>
	<circle class="st6" cx="1334.7" cy="889.1" r="5.5"/>
	<circle class="st6" cx="1334.7" cy="959.1" r="5.5"/>
	<circle class="st8" cx="1348.6" cy="851.6" r="5.5"/>
	<circle class="st6" cx="1334.7" cy="925.3" r="5.5"/>
	<circle class="st6" cx="1334.7" cy="183.8" r="5.5"/>
	<circle class="st6" cx="1334.7" cy="243.8" r="5.5"/>
	<g>
		<circle class="st9" cx="1348.6" cy="279.9" r="5.5"/>
		<circle class="st6" cx="1334.7" cy="279.6" r="5.5"/>
	</g>
	<circle class="st6" cx="1334.7" cy="351.8" r="5.5"/>
	<circle class="st6" cx="1334.7" cy="315.8" r="5.5"/>
	<circle class="st9" cx="1348.6" cy="1163.6" r="5.5"/>
	<circle class="st7" cx="1334.7" cy="1163.6" r="5.5"/>
	<circle class="st6" cx="1334.7" cy="1200.1" r="5.5"/>
	<circle class="st9" cx="107.2" cy="689.7" r="5.5"/>
	<g>
		<rect x="964.4" y="172.5" class="st2" width="357.8" height="214.7"/>
		<text transform="matrix(1 0 0 1 980.7793 190.065)"><tspan x="0" y="0" class="st1 st3 st4 st5">Chronic Obstructive Pulmonary </tspan><tspan x="173.1" y="26" class="st1 st3 st4 st5">Disease (COPD) </tspan><tspan x="261.1" y="62" class="st1 st3 st4 st5">Asthma</tspan><tspan x="110.4" y="98" class="st1 st3 st4 st5">Respiratory diseases </tspan><tspan x="222.3" y="134" class="st1 st3 st4 st5">Pneumonia</tspan><tspan x="211.3" y="170" class="st1 st3 st4 st5">Lung cancer</tspan></text>
	</g>
	<g>
		<rect x="937" y="114.6" class="st2" width="385.2" height="40.9"/>
		<text transform="matrix(1 0 0 1 1019.4229 138.6927)" class="st1 st3 st14 st5">Respiratory tract</text>
	</g>
	<polyline class="st15" points="1322.2,92.2 959.4,90.7 779.7,362.7 	"/>
	<g>
		<rect x="118.6" y="679.9" class="st2" width="357.8" height="48.9"/>
		<text transform="matrix(1 0 0 1 118.5586 697.4244)" class="st1 st3 st4 st5">Breast cancer </text>
	</g>
	<g>
		<rect x="118.6" y="620.5" class="st2" width="385.2" height="138.5"/>
		<text transform="matrix(1 0 0 1 118.5576 644.5963)" class="st1 st3 st14 st5">Breast</text>
	</g>
	<polyline class="st15" points="118.6,598.1 481.4,596.6 631.4,405.6 	"/>
	<circle class="st7" cx="1348.3" cy="636.5" r="5.5"/>
	<circle class="st9" cx="1362.1" cy="636.5" r="5.5"/>
	<circle class="st7" cx="1348.6" cy="529.7" r="5.5"/>
	<circle class="st9" cx="1362.4" cy="529.7" r="5.5"/>
	<circle class="st6" cx="1334.7" cy="529.7" r="5.5"/>
	<circle class="st6" cx="1334.5" cy="564.7" r="5.5"/>
	<circle class="st6" cx="1334.5" cy="600.6" r="5.5"/>
	<circle class="st6" cx="1334.5" cy="636.5" r="5.5"/>
	<g>
		<rect x="965.3" y="518.1" class="st2" width="357.8" height="151.9"/>
		<text transform="matrix(1 0 0 1 1088.7351 535.6439)"><tspan x="0" y="0" class="st1 st3 st4 st5">Myocardial infarction</tspan><tspan x="115.6" y="36" class="st1 st3 st4 st5">Arrhythmia</tspan><tspan x="-30.5" y="72" class="st1 st3 st4 st5">Heart congestive failure</tspan><tspan x="-32.9" y="108" class="st1 st3 st4 st5">Cardiovascular diseases</tspan></text>
	</g>
	<g>
		<rect x="937.9" y="459.3" class="st2" width="385.2" height="321.3"/>
		<text transform="matrix(1 0 0 1 1228.9841 483.4649)" class="st1 st3 st14 st5">Heart</text>
	</g>
	<polyline class="st15" points="1323.1,437 960.3,435.6 759.5,394.2 	"/>
	<g>
		<rect x="964.4" y="1152.2" class="st2" width="357.8" height="133.5"/>
		<text transform="matrix(1 0 0 1 1171.5483 1169.7616)"><tspan x="0" y="0" class="st1 st3 st4 st5">Hypertension</tspan><tspan x="-124.8" y="36" class="st1 st3 st4 st5">Deep venous thrombosis</tspan></text>
	</g>
	<g>
		<rect x="937" y="1093.8" class="st2" width="385.2" height="59.8"/>
		<text transform="matrix(1 0 0 1 1189.6382 1117.9213)" class="st1 st3 st14 st5">Arteries</text>
	</g>
	<line class="st15" x1="1322.2" y1="1070" x2="778" y2="1068.3"/>
	<polyline class="st15" points="754.2,603.1 936.5,723.2 1322.2,722 	"/>
</g>
</svg>
