<?xml version="1.0" standalone="no"?>
<!DOCTYPE svg PUBLIC "-//W3C//DTD SVG 1.1//EN" "http://www.w3.org/Graphics/SVG/1.1/DTD/svg11.dtd" >
<svg xmlns="http://www.w3.org/2000/svg" xmlns:xlink="http://www.w3.org/1999/xlink" version="1.1">
<metadata>
Created by FontForge 20160405 at Thu Feb  8 18:28:23 2018
 By Apache
Copyright  2010 Berton Hasebe, under exclusive license to Schwartzco Inc. d/b/a Commercial Type.
</metadata>
<defs>
<font id="." horiz-adv-x="614" >
  <font-face 
    font-family="."
    font-weight="700"
    font-stretch="normal"
    units-per-em="1000"
    panose-1="2 11 8 4 3 2 2 2 2 4"
    ascent="825"
    descent="-175"
    x-height="535"
    cap-height="692"
    bbox="-68 -264 1171 1078"
    underline-thickness="50"
    underline-position="-100"
    unicode-range="U+000D-FB02"
  />
<missing-glyph horiz-adv-x="150" 
 />
    <glyph glyph-name="f_f" unicode="ff" horiz-adv-x="567" 
d="M323 553q0 40 9 73.5t30 56.5t56 36t86 13h21t28 -1v-133h-25q-27 0 -35.5 -15.5t-8.5 -32.5v-15h69v-135h-69v-400h-161v400h-102v-400h-161v400h-47v135h47v18q0 40 9 73.5t30 56.5t56 36t86 13h21t28 -1v-133h-25q-27 0 -35.5 -15.5t-8.5 -32.5v-15h102v18z" />
    <glyph glyph-name=".notdef" horiz-adv-x="150" 
 />
    <glyph glyph-name=".null" horiz-adv-x="0" 
 />
    <glyph glyph-name=".null" horiz-adv-x="0" 
 />
    <glyph glyph-name="nonmarkingreturn" unicode="&#xd;" horiz-adv-x="150" 
 />
    <glyph glyph-name="space" unicode=" " horiz-adv-x="150" 
 />
    <glyph glyph-name="numbersign" unicode="#" horiz-adv-x="631" 
d="M450 162l-39 -162h-139l39 162h-82l-39 -162h-140l39 162h-73v129h104l31 128h-74v129h105l35 144h142l-35 -144h80l35 144h141l-35 -144h70v-129h-102l-31 -128h72v-129h-104zM261 291h81l31 128h-81z" />
    <glyph glyph-name="dollar" unicode="$" horiz-adv-x="509" 
d="M293 703q49 -6 83 -24.5t54.5 -46.5t29 -64.5t6.5 -78.5h-131q0 30 -10.5 51.5t-31.5 32.5v-152l5 -2l41 -18q34 -15 61.5 -33.5t47 -43t30 -57t10.5 -74.5t-14 -77t-39.5 -61.5t-61.5 -43t-80 -21.5v-59h-80v58q-60 6 -98 29t-59.5 55.5t-29 70.5t-5.5 73h140
q-2 -35 9.5 -61.5t42.5 -36.5v169l-8 4l-40 17q-66 29 -102 76.5t-36 126.5q0 36 13 68.5t37 57.5t58.5 42t77.5 22v57h80v-56zM338 184q0 26 -12 41t-33 26v-131q45 16 45 64zM172 518q0 -23 10.5 -36.5t30.5 -24.5v119q-41 -14 -41 -58z" />
    <glyph glyph-name="percent" unicode="%" horiz-adv-x="804" 
d="M560 167q0 -25 14.5 -41.5t39.5 -16.5q29 0 42 17t13 41q0 25 -14.5 41t-40.5 16q-28 0 -41 -17t-13 -40zM438 166q0 37 12.5 68.5t35.5 55t55 36.5t71 13q41 0 74 -13t56.5 -36.5t36 -55t12.5 -68.5t-12.5 -68.5t-36 -54.5t-56 -36t-72.5 -13t-72.5 13t-55.5 36
t-35.5 54.5t-12.5 68.5zM220 0h-136l504 692h136zM135 527q0 -25 14.5 -41.5t39.5 -16.5q29 0 42 17t13 41q0 25 -14.5 41t-40.5 16q-28 0 -41 -17t-13 -40zM13 526q0 37 12.5 68.5t35.5 55t55 36.5t71 13q41 0 74 -13t56.5 -36.5t36 -55t12.5 -68.5t-12.5 -68.5t-36 -54.5
t-56 -36t-72.5 -13t-72.5 13t-55.5 36t-35.5 54.5t-12.5 68.5z" />
    <glyph glyph-name="ampersand" unicode="&#x26;" horiz-adv-x="682" 
d="M472 37q-36 -22 -79.5 -35t-96.5 -13q-68 0 -120.5 16.5t-88.5 46t-55 69.5t-19 87q0 61 27.5 110.5t81.5 76.5q-20 23 -32 53t-12 69q0 40 14.5 74t41.5 59t65.5 39t86.5 14q51 0 90.5 -14t66.5 -39t41 -59t14 -74q0 -34 -10.5 -62t-27.5 -48.5t-39.5 -34t-47.5 -18.5
l83 -87q13 52 11 104h157q2 -65 -10.5 -122.5t-41.5 -105.5l137 -143h-201zM300 134q18 0 35.5 3t29.5 8l-151 155q-14 -11 -22.5 -28.5t-8.5 -39.5q0 -44 32 -71t85 -27zM229 512q0 -26 18 -42.5t44 -16.5t43 17.5t17 44.5q-1 25 -18.5 41t-43.5 16t-43 -17t-17 -43z" />
    <glyph glyph-name="quotesingle" unicode="'" horiz-adv-x="208" 
d="M176 692v-273h-144v273h144z" />
    <glyph glyph-name="parenleft" unicode="(" horiz-adv-x="282" 
d="M32 581q0 108 56.5 168.5t176.5 60.5v-143q-45 0 -63 -22.5t-18 -60.5v-533q0 -38 18 -60.5t63 -22.5v-143q-120 0 -176.5 60t-56.5 169v527z" />
    <glyph glyph-name="parenright" unicode=")" horiz-adv-x="282" 
d="M250 54q0 -109 -56.5 -169t-176.5 -60v143q45 0 63 22.5t18 60.5v533q0 38 -18 60.5t-63 22.5v143q120 0 176.5 -60.5t56.5 -168.5v-527z" />
    <glyph glyph-name="asterisk" unicode="*" horiz-adv-x="412" 
d="M78 646l75 -43v89h106v-89l75 43l52 -91l-74 -43l75 -42l-53 -92l-75 44v-90h-106v90l-75 -44l-53 91l75 43l-75 43z" />
    <glyph glyph-name="plus" unicode="+" horiz-adv-x="475" 
d="M30 404h136v142h143v-142h136v-134h-136v-143h-143v143h-136v134z" />
    <glyph glyph-name="comma" unicode="," horiz-adv-x="226" 
d="M80 -1q-27 8 -45.5 31t-19.5 58q-1 42 26.5 69.5t72.5 27.5q44 0 70.5 -28t26.5 -70q0 -40 -23 -84l-59 -115h-109z" />
    <glyph glyph-name="hyphen" unicode="-" horiz-adv-x="322" 
d="M28 361h266v-150h-266v150z" />
    <glyph glyph-name="period" unicode="." horiz-adv-x="226" 
d="M113 -12q-42 0 -70 28.5t-28 70.5t27.5 70t70.5 28t70.5 -28t27.5 -70t-28 -70.5t-70 -28.5z" />
    <glyph glyph-name="slash" unicode="/" horiz-adv-x="472" 
d="M140 -175h-146l337 906h147z" />
    <glyph glyph-name="zero" unicode="0" horiz-adv-x="534" 
d="M332 470q0 32 -14.5 54t-50.5 22t-50.5 -22t-14.5 -54v-248q0 -32 14.5 -54t50.5 -22t50.5 22t14.5 54v248zM499 224q0 -54 -15 -97.5t-45 -74.5t-73.5 -48t-100.5 -17q-119 0 -174.5 64t-55.5 173v246q0 53 14 96.5t42.5 74t72.5 47.5t103 17q57 0 100.5 -17t73 -47.5
t44 -74t14.5 -96.5v-246z" />
    <glyph glyph-name="one" unicode="1" horiz-adv-x="281" 
d="M241 0h-167v524l-62 -22v158l74 32h155v-692z" />
    <glyph glyph-name="two" unicode="2" horiz-adv-x="513" 
d="M28 0v146l213 211q32 32 52.5 60t20.5 63q0 32 -17.5 49t-46.5 17q-18 0 -29.5 -7t-18.5 -17t-9.5 -22t-2.5 -21h-165q-1 35 8 74.5t34.5 73.5t70 56t113.5 22q59 0 103 -17t73.5 -46t44 -68.5t14.5 -84.5q0 -37 -8 -66.5t-23 -55t-35 -48t-44 -45.5l-129 -125h243v-149
h-462z" />
    <glyph glyph-name="three" unicode="3" horiz-adv-x="512" 
d="M143 414l124 129h-226v149h419v-148l-127 -121q31 -6 59.5 -20t50.5 -38t35 -60t13 -87q0 -54 -18.5 -96.5t-51 -72.5t-76 -46t-94.5 -16q-71 0 -117 21.5t-72 54.5t-36 73t-10 78h165q0 -26 16 -48.5t54 -22.5q31 0 49.5 19.5t18.5 51.5t-18.5 50.5t-53.5 18.5h-104v131
z" />
    <glyph glyph-name="four" unicode="4" horiz-adv-x="561" 
d="M471 181v-181h-162v181h-295v137l293 374h164v-368h70v-143h-70zM184 324h125v158z" />
    <glyph glyph-name="five" unicode="5" horiz-adv-x="519" 
d="M200 214q2 -31 18 -49.5t48 -18.5q34 0 50 22t16 56v16q0 34 -15.5 55t-50.5 21q-26 0 -39.5 -11.5t-18.5 -24.5h-162v412h411v-149h-251v-101q8 8 34.5 19t67.5 11q97 0 143 -57t46 -168v-25q0 -45 -13 -87.5t-41 -75t-72 -52.5t-105 -20q-64 0 -108 17.5t-71.5 48
t-39.5 72t-12 89.5h165z" />
    <glyph glyph-name="six" unicode="6" horiz-adv-x="522" 
d="M385 520q-11 8 -31 17t-52 9q-31 0 -51 -8t-31 -22t-15.5 -33t-3.5 -40q7 8 34.5 20t70.5 12q98 0 144.5 -56.5t46.5 -174.5v-25q0 -48 -14.5 -90t-44 -73.5t-73 -50t-101.5 -18.5q-60 0 -103 16.5t-71 47.5t-41.5 73.5t-13.5 95.5v219q0 54 13.5 102t44 84.5t80 58
t122.5 21.5q69 0 111 -19.5t63 -37.5zM266 320q-38 0 -52 -22t-14 -53v-25q0 -32 14.5 -54t51.5 -22q36 0 51 22t15 54v24q0 33 -15 54.5t-51 21.5z" />
    <glyph glyph-name="seven" unicode="7" horiz-adv-x="481" 
d="M244 0h-187l203 543h-244v149h443v-105z" />
    <glyph glyph-name="eight" unicode="8" horiz-adv-x="521" 
d="M194 493q0 -29 18.5 -48t47.5 -19q30 0 48.5 19t18.5 48t-18.5 48t-48.5 19t-48 -19t-18 -48zM29 501q0 37 13 73.5t40.5 65.5t71.5 47t106 18t106 -18t72 -46.5t41 -65.5t13 -74q0 -52 -19.5 -87t-48.5 -58q38 -24 58.5 -61t20.5 -94q0 -41 -14 -79t-44 -68t-76 -48
t-110 -19q-65 1 -110.5 19t-74.5 47.5t-42.5 68t-13.5 79.5q0 57 22.5 94.5t55.5 60.5q-29 23 -48 58t-19 87zM188 207q0 -33 20.5 -53t52.5 -20q33 0 53 20t20 53t-20 53t-53 20q-32 0 -52.5 -20t-20.5 -53z" />
    <glyph glyph-name="nine" unicode="9" horiz-adv-x="522" 
d="M137 172q11 -8 33 -17t57 -9q28 0 47 8t29.5 22t14.5 33t3 40q-7 -8 -32.5 -20t-62.5 -12q-100 0 -150.5 56.5t-50.5 174.5v25q0 48 14 90t42.5 73.5t72 50t101.5 18.5q60 0 103.5 -16.5t72 -47.5t42.5 -74t14 -95v-218q0 -57 -13.5 -106t-43.5 -84.5t-79 -56t-120 -20.5
q-35 0 -63 5t-49.5 13.5t-37.5 18.5t-28 19zM256 372q38 0 52 22t14 53v25q0 32 -15 54t-52 22q-36 0 -50.5 -22t-14.5 -54v-24q0 -33 15 -54.5t51 -21.5z" />
    <glyph glyph-name="colon" unicode=":" horiz-adv-x="226" 
d="M113 338q-42 0 -70 28.5t-28 70.5t27.5 70t70.5 28t70.5 -28t27.5 -70t-28 -70.5t-70 -28.5zM113 -12q-42 0 -70 28.5t-28 70.5t27.5 70t70.5 28t70.5 -28t27.5 -70t-28 -70.5t-70 -28.5z" />
    <glyph glyph-name="semicolon" unicode=";" horiz-adv-x="226" 
d="M80 -1q-27 8 -45.5 31t-19.5 58q-1 42 26.5 69.5t72.5 27.5q44 0 70.5 -28t26.5 -70q0 -40 -23 -84l-59 -115h-109zM113 337q-42 0 -70 28.5t-28 70.5t27.5 70t70.5 28t70.5 -28t27.5 -70t-28 -70.5t-70 -28.5z" />
    <glyph glyph-name="less" unicode="&#x3c;" horiz-adv-x="420" 
d="M28 404l362 157v-141l-207 -80l207 -81v-143l-362 152v136z" />
    <glyph glyph-name="equal" unicode="=" horiz-adv-x="475" 
d="M30 481h415v-128h-415v128zM30 309h415v-128h-415v128z" />
    <glyph glyph-name="greater" unicode="&#x3e;" horiz-adv-x="410" 
d="M382 268l-352 -152v143l197 81l-197 80v141l352 -157v-136z" />
    <glyph glyph-name="question" unicode="?" horiz-adv-x="480" 
d="M310 202h-159v241h87q29 0 45.5 15t16.5 45q0 26 -16 43t-44 17q-18 0 -30 -6.5t-18.5 -17t-9 -23t-2.5 -23.5h-162q-1 17 1.5 39t11 45.5t24 45.5t40.5 39.5t61 28.5t85 11q54 0 95 -15.5t68.5 -42t42 -62.5t14.5 -78q0 -39 -12 -70.5t-32.5 -54t-48 -35.5t-58.5 -16
v-126zM231 -11q-41 0 -69 28t-28 69t28 69t69 28t69 -28t28 -69t-28 -69t-69 -28z" />
    <glyph glyph-name="at" unicode="@" horiz-adv-x="955" 
d="M602 126q-21 -23 -56 -38t-73 -15q-51 0 -91.5 16t-68.5 44.5t-43 67t-15 83.5q0 43 15 82t42 68.5t65 46.5t84 17q31 0 53 -7.5t36 -17.5v20h137v-249q0 -25 10.5 -39t36.5 -14q16 0 29.5 11t22.5 30.5t14 45.5t5 56q0 141 -83.5 214t-236.5 73q-78 0 -139.5 -26.5
t-103.5 -72t-64.5 -106t-22.5 -128.5q0 -76 26 -137.5t72.5 -104.5t112 -66.5t143.5 -23.5q70 0 132 24t102 57l70 -87q-48 -49 -128 -80.5t-178 -31.5q-114 0 -204 34t-153 94t-96.5 141t-33.5 174q0 102 34.5 186t97 144t148.5 93t188 33q107 0 190 -29.5t140 -82
t87 -124.5t30 -157q0 -60 -15.5 -109.5t-44 -85.5t-69 -55.5t-89.5 -19.5q-44 0 -72.5 15t-42.5 37zM400 286q0 -33 20 -55t53 -22q35 0 53.5 22t18.5 55t-19 55t-53 22t-53.5 -22t-19.5 -55z" />
    <glyph glyph-name="A" unicode="A" horiz-adv-x="658" 
d="M431 165h-218l-57 -165h-164l242 692h176l256 -692h-177zM261 305h122l-61 175z" />
    <glyph glyph-name="B" unicode="B" horiz-adv-x="521" 
d="M503 206q0 -97 -57 -151.5t-153 -54.5h-253v692h237q107 0 159.5 -51t52.5 -139q0 -45 -19 -82.5t-51 -54.5q43 -23 63.5 -60.5t20.5 -98.5zM205 282v-137h62q29 0 46.5 19t17.5 50q0 32 -17.5 50t-46.5 18h-62zM205 549v-126h56q26 0 42 16t16 47t-15.5 47t-42.5 16h-56
z" />
    <glyph glyph-name="C" unicode="C" horiz-adv-x="631" 
d="M618 77q-45 -42 -101 -66t-129 -24q-86 0 -154.5 27.5t-116 75.5t-72.5 113.5t-25 141.5q0 75 26 140.5t73.5 114.5t115 77t150.5 28q79 0 135.5 -23t98.5 -59l-99 -126q-19 17 -52.5 34.5t-80.5 17.5q-46 0 -82 -16t-60.5 -43.5t-37 -64.5t-12.5 -79q0 -43 14 -80
t39 -64.5t60.5 -43t79.5 -15.5t76.5 16t55.5 36z" />
    <glyph glyph-name="D" unicode="D" horiz-adv-x="587" 
d="M198 692q86 0 154.5 -23t116 -67.5t73 -108.5t25.5 -145t-25.5 -145.5t-73 -109.5t-116 -69t-154.5 -24h-158v692h158zM207 147q41 0 75.5 12t59 37t38 63t13.5 88q0 100 -50.5 149.5t-135.5 48.5v-398z" />
    <glyph glyph-name="E" unicode="E" horiz-adv-x="401" 
d="M40 0v692h328v-156h-161v-107h156v-154h-156v-119h164v-156h-331z" />
    <glyph glyph-name="F" unicode="F" horiz-adv-x="400" 
d="M207 275v-275h-167v692h332v-156h-165v-107h160v-154h-160z" />
    <glyph glyph-name="G" unicode="G" horiz-adv-x="736" 
d="M699 0h-161v34q-25 -20 -64 -33t-95 -13q-80 0 -146.5 25.5t-113.5 73t-73 113.5t-26 147q0 72 25.5 137t72 114t113 78t148.5 29q57 0 102.5 -11.5t82 -31t63.5 -46t46 -57.5l-132 -95q-11 15 -25.5 30.5t-34 27.5t-45 19.5t-58.5 7.5q-41 0 -75 -15t-58 -41.5
t-37.5 -63.5t-13.5 -82q0 -47 14.5 -85t40.5 -64.5t61.5 -41t76.5 -14.5q58 0 95 18t53 35v50h-103v137h267v-382z" />
    <glyph glyph-name="H" unicode="H" horiz-adv-x="654" 
d="M614 0h-167v273h-240v-273h-167v692h167v-260h240v260h167v-692z" />
    <glyph glyph-name="I" unicode="I" horiz-adv-x="247" 
d="M207 0h-167v692h167v-692z" />
    <glyph glyph-name="J" unicode="J" horiz-adv-x="305" 
d="M266 182q0 -41 -8 -74.5t-28 -57.5t-55.5 -37.5t-90.5 -13.5h-28.5t-37.5 1v154h39q27 1 34.5 16t7.5 32v490h167v-510z" />
    <glyph glyph-name="K" unicode="K" horiz-adv-x="581" 
d="M207 421l189 271h193l-243 -331l242 -361h-195l-186 283v-283h-167v692h167v-271z" />
    <glyph glyph-name="L" unicode="L" horiz-adv-x="384" 
d="M40 0v692h167v-536h158v-156h-325z" />
    <glyph glyph-name="M" unicode="M" horiz-adv-x="881" 
d="M516 0h-158l-164 486v-486h-154v692h250l153 -469l153 469h245v-692h-161v486z" />
    <glyph glyph-name="N" unicode="N" horiz-adv-x="673" 
d="M201 409v-409h-161v692h172l260 -418v418h161v-692h-165z" />
    <glyph glyph-name="O" unicode="O" horiz-adv-x="766" 
d="M20 345q0 75 26 141t73.5 114.5t113.5 76.5t146 28q85 0 153 -27.5t115.5 -75.5t73 -113t25.5 -141t-25.5 -142t-72.5 -114.5t-114 -76.5t-150 -28q-85 0 -152.5 27.5t-114.5 75.5t-72 113.5t-25 141.5zM195 346q0 -43 13 -80t37.5 -64.5t59.5 -43t78 -15.5q46 0 81 16
t59 43.5t36 64.5t12 79t-13 79t-37 64.5t-59 43.5t-80 16q-46 0 -81 -16t-58.5 -43.5t-35.5 -64.5t-12 -79z" />
    <glyph glyph-name="P" unicode="P" horiz-adv-x="503" 
d="M496 486q0 -48 -15 -87t-43.5 -66t-68.5 -42t-90 -15h-73v-276h-166v692h238q109 0 163.5 -53.5t54.5 -152.5zM206 548v-128h58q29 0 44.5 18t15.5 47t-16 46t-44 17h-58z" />
    <glyph glyph-name="Q" unicode="Q" horiz-adv-x="766" 
d="M20 345q0 75 26 141t73.5 114.5t113.5 76.5t146 28q85 0 153 -27.5t115.5 -75.5t73 -113t25.5 -141q0 -51 -13 -97.5t-37 -87.5l59 -49l-102 -122l-65 55q-43 -29 -94 -44.5t-110 -15.5q-85 0 -152.5 27.5t-114.5 75.5t-72 113.5t-25 141.5zM192 346q0 -44 13.5 -81.5
t38 -65t60 -43.5t79.5 -16q42 0 78 14l-47 40l101 121l49 -42q5 17 7.5 35t2.5 38q0 43 -13 81t-37.5 65.5t-60.5 43.5t-81 16q-46 0 -81.5 -16t-59.5 -43.5t-36.5 -65.5t-12.5 -81z" />
    <glyph glyph-name="R" unicode="R" horiz-adv-x="555" 
d="M496 486q0 -58 -23 -101t-65 -69l158 -316h-179l-136 284h-45v-284h-166v692h238q109 0 163.5 -53.5t54.5 -152.5zM206 548v-128h58q29 0 44.5 18t15.5 47t-16 46t-44 17h-58z" />
    <glyph glyph-name="S" unicode="S" horiz-adv-x="508" 
d="M194 510q0 -22 14 -37.5t49 -29.5l87 -34q68 -28 105.5 -75t37.5 -125q0 -53 -17.5 -94t-49 -69.5t-75.5 -43.5t-96 -15q-74 0 -120 21.5t-70.5 55.5t-32 74.5t-5.5 78.5h158q-1 -17 2 -32.5t11.5 -27.5t22 -19.5t34.5 -7.5q29 0 47.5 15.5t18.5 45.5q0 29 -19.5 45.5
t-53.5 29.5q-26 11 -52.5 21.5t-55.5 24.5q-53 27 -80 76t-27 112q0 45 16 83t45 65t70 42t92 15q61 0 103.5 -16.5t68 -45.5t36 -68.5t7.5 -85.5h-154q1 32 -15 52.5t-45 20.5t-43 -15t-14 -37z" />
    <glyph glyph-name="T" unicode="T" horiz-adv-x="430" 
d="M299 536v-536h-167v536h-116v156h398v-156h-115z" />
    <glyph glyph-name="U" unicode="U" horiz-adv-x="644" 
d="M321 -13q-73 0 -126.5 21t-88.5 59t-52 91t-17 118v416h167v-416q0 -59 28.5 -95.5t90.5 -36.5q60 0 88.5 37t28.5 96v415h167v-415q0 -63 -18 -116t-54 -91.5t-89.5 -60.5t-124.5 -22z" />
    <glyph glyph-name="V" unicode="V" horiz-adv-x="673" 
d="M-8 692h187l162 -481l162 481h178l-255 -692h-181z" />
    <glyph glyph-name="W" unicode="W" horiz-adv-x="993" 
d="M497 435l-120 -435h-191l-191 692h183l113 -471l121 471h179l121 -471l113 471h173l-186 -692h-196z" />
    <glyph glyph-name="X" unicode="X" horiz-adv-x="637" 
d="M219 357l-219 335h203l121 -190l117 190h196l-217 -340l225 -352h-193l-137 211q-54 -80 -87.5 -134t-48.5 -77h-187z" />
    <glyph glyph-name="Y" unicode="Y" horiz-adv-x="530" 
d="M-12 692h185l96 -189l97 189h176l-196 -349v-343h-166v340z" />
    <glyph glyph-name="Z" unicode="Z" horiz-adv-x="578" 
d="M25 0v109l289 430h-287v153h524v-108l-294 -432h296v-152h-528z" />
    <glyph glyph-name="bracketleft" unicode="[" horiz-adv-x="282" 
d="M32 810h233v-144h-81v-697h80v-144h-232v985z" />
    <glyph glyph-name="backslash" unicode="\" horiz-adv-x="472" 
d="M-6 731h147l337 -906h-146z" />
    <glyph glyph-name="bracketright" unicode="]" horiz-adv-x="282" 
d="M250 -175h-232v144h80v697h-81v144h233v-985z" />
    <glyph glyph-name="asciicircum" unicode="^" horiz-adv-x="521" 
d="M506 385h-164l-82 155l-83 -155h-162l165 307h162z" />
    <glyph glyph-name="underscore" unicode="_" horiz-adv-x="615" 
d="M28 -21h559v-128h-559v128z" />
    <glyph glyph-name="grave" unicode="`" horiz-adv-x="476" 
d="M245 708l75 -140h-150l-82 140h157z" />
    <glyph glyph-name="a" unicode="a" horiz-adv-x="476" 
d="M17 177q0 40 12.5 72.5t36.5 55.5t57.5 35.5t75.5 12.5q33 0 55 -6t33 -13v22q0 23 -11 40.5t-41 17.5q-29 0 -39 -15t-10 -31h-149q2 81 50 127t147 46q63 0 104 -16t65 -43.5t33.5 -66t9.5 -83.5v-332h-132v29q-19 -17 -45.5 -26t-64.5 -9q-39 0 -73 12.5t-59.5 36
t-40 57.5t-14.5 77zM168 181q0 -26 17.5 -43t43.5 -17t43.5 17t17.5 43q0 27 -18 43t-44 16t-43 -16.5t-17 -42.5z" />
    <glyph glyph-name="b" unicode="b" 
d="M188 268q0 -58 34.5 -95.5t91.5 -37.5q60 0 92 38t32 95q0 58 -33.5 96t-91.5 38q-60 0 -92.5 -38t-32.5 -96zM183 0h-151v731h161v-233q20 18 57.5 32t84.5 14q61 0 110 -20t83 -56t52 -87t18 -113q0 -60 -19.5 -110.5t-55.5 -87.5t-86.5 -58t-112.5 -21
q-40 0 -77.5 11.5t-63.5 33.5v-36z" />
    <glyph glyph-name="c" unicode="c" horiz-adv-x="475" 
d="M296 136q33 0 54.5 12t34.5 23l89 -114q-12 -11 -29.5 -23t-40 -21.5t-50 -15.5t-59.5 -6q-65 0 -116.5 21.5t-87.5 58.5t-55.5 87t-19.5 108t20.5 109t57.5 88.5t88 59t111 21.5q34 0 62 -6t50.5 -15.5t39.5 -21.5t29 -23l-89 -114q-13 11 -35 23t-55 12q-29 0 -51 -10
t-37 -28t-23 -42t-8 -52q0 -31 10 -55.5t26.5 -41t38 -25.5t45.5 -9z" />
    <glyph glyph-name="d" unicode="d" 
d="M434 35q-27 -23 -64.5 -33.5t-76.5 -10.5q-63 0 -114 20.5t-87.5 57t-56 87t-19.5 110.5q0 57 19.5 108t55 88.5t85 59.5t110.5 22q45 0 78 -9t57 -24v220h161v-731h-148v35zM176 268q0 -28 9 -52.5t25.5 -42.5t39.5 -28t51 -10q30 0 53 10.5t39 28.5t24.5 42t8.5 52
t-9 52.5t-25 42.5t-39.5 28.5t-51.5 10.5q-29 0 -52.5 -10.5t-39.5 -28.5t-24.5 -42.5t-8.5 -52.5z" />
    <glyph glyph-name="e" unicode="e" horiz-adv-x="555" 
d="M183 215q5 -38 33.5 -60t75.5 -22q43 0 69 20t40 43l123 -72q-11 -23 -30 -47t-47.5 -43t-67 -31t-88.5 -12q-61 0 -111.5 19t-87 54t-56.5 86t-20 115q0 60 19 111t54 88.5t83 58.5t107 21q61 0 110 -19t83 -54.5t52 -84.5t18 -109v-27t-2 -35h-357zM279 410
q-42 0 -65.5 -25t-26.5 -57h188q-3 33 -27.5 57.5t-68.5 24.5z" />
    <glyph glyph-name="f" unicode="f" horiz-adv-x="304" 
d="M221 535h69v-135h-69v-400h-161v400h-47v135h47v18q0 40 9 73.5t30 56.5t56 36t86 13h21t28 -1v-133h-25q-27 0 -35.5 -15.5t-8.5 -32.5v-15z" />
    <glyph glyph-name="g" unicode="g" horiz-adv-x="611" 
d="M430 535h151v-446q0 -75 -21.5 -127t-59.5 -84.5t-92 -47t-118 -14.5q-60 0 -109.5 13.5t-82.5 30.5l48 125q23 -11 61.5 -21t83.5 -10q55 0 92 19.5t38 58.5q-17 -15 -48 -28t-79 -13q-63 0 -114 20t-87.5 56.5t-56.5 87t-20 111.5q0 57 19.5 108t55.5 88.5t86 59.5
t111 22q91 0 142 -43v34zM176 267q0 -28 9 -52.5t25.5 -42.5t39.5 -28t51 -10q30 0 53 10.5t39 28.5t24.5 42t8.5 52t-9 52.5t-25 42.5t-39.5 28.5t-51.5 10.5q-29 0 -52.5 -10.5t-39.5 -28.5t-24.5 -42.5t-8.5 -52.5z" />
    <glyph glyph-name="h" unicode="h" horiz-adv-x="498" 
d="M307 333q0 29 -14 47t-43 18q-28 0 -42.5 -17.5t-14.5 -46.5v-334h-161v731h161v-230q4 4 12.5 11t21.5 13.5t31.5 11t42.5 4.5q47 0 79 -15t51.5 -41t28 -60t8.5 -73v-352h-161v333z" />
    <glyph glyph-name="i" unicode="i" horiz-adv-x="225" 
d="M193 0h-161v535h161v-535zM110 556q-19 0 -35.5 7t-29 19.5t-19.5 29t-7 35.5t7 36t19.5 29.5t29 19.5t35.5 7t36 -7t29.5 -19.5t19.5 -29.5t7 -36t-7 -35.5t-19.5 -29t-29.5 -19.5t-36 -7z" />
    <glyph glyph-name="j" unicode="j" horiz-adv-x="226" 
d="M112 556q-19 0 -35.5 7t-29 19.5t-19.5 29t-7 35.5t7 36t19.5 29.5t29 19.5t35.5 7t36 -7t29.5 -19.5t19.5 -29.5t7 -36t-7 -35.5t-19.5 -29t-29.5 -19.5t-36 -7zM194 8q0 -41 -9 -74.5t-30 -58t-55.5 -38t-85.5 -13.5h-19.5t-28.5 1v136h26q28 1 34.5 15.5t6.5 32.5v526
h161v-527z" />
    <glyph glyph-name="k" unicode="k" horiz-adv-x="519" 
d="M338 290l181 -290h-194l-132 225v-225h-161v731h161v-395l134 199h185z" />
    <glyph glyph-name="l" unicode="l" horiz-adv-x="225" 
d="M193 0h-161v731h161v-731z" />
    <glyph glyph-name="m" unicode="m" horiz-adv-x="777" 
d="M470 0h-161v333q0 29 -14.5 47t-43.5 18q-28 0 -43 -17.5t-15 -46.5v-334h-161v535h161v-34q4 4 12.5 11t22 13.5t32.5 11t45 4.5q45 0 74.5 -13t49.5 -36q9 8 20.5 16.5t27.5 16t36.5 12t46.5 4.5q52 0 87.5 -15t57.5 -41t32 -60t10 -73v-352h-161v333q0 29 -14.5 47
t-43.5 18t-43.5 -19.5t-14.5 -45.5v-333z" />
    <glyph glyph-name="n" unicode="n" horiz-adv-x="498" 
d="M307 333q0 29 -14 47t-43 18q-28 0 -42.5 -17.5t-14.5 -46.5v-334h-161v535h161v-34q4 4 12.5 11t21.5 13.5t31.5 11t42.5 4.5q47 0 79 -15t51.5 -41t28 -60t8.5 -73v-352h-161v333z" />
    <glyph glyph-name="o" unicode="o" horiz-adv-x="595" 
d="M176 267q0 -28 9 -52t25 -41.5t38.5 -27.5t49.5 -10q28 0 50.5 10t38.5 27.5t24 41.5t8 52t-9 52t-25 42t-38.5 28t-49.5 10q-29 0 -51 -10t-38 -28t-24 -42t-8 -52zM16 266q0 58 20.5 109t58 88.5t88.5 59t113 21.5q66 0 118 -21t89 -58t56.5 -87.5t19.5 -108.5
q0 -59 -20 -109.5t-57 -88t-89 -59t-116 -21.5q-65 0 -116.5 21t-88.5 58t-56.5 87.5t-19.5 108.5z" />
    <glyph glyph-name="p" unicode="p" 
d="M188 267q0 -58 34.5 -95.5t91.5 -37.5q60 0 92 38t32 95q0 58 -33.5 96t-91.5 38q-60 0 -92.5 -38t-32.5 -96zM193 -175h-161v710h151v-34q9 7 22.5 14.5t31.5 14t41.5 10.5t53.5 4q61 0 110.5 -20.5t84 -57t53 -87t18.5 -110.5q0 -58 -18.5 -108.5t-54 -88t-86.5 -59.5
t-115 -22q-42 0 -76 10t-55 24v-200z" />
    <glyph glyph-name="q" unicode="q" 
d="M421 25q-19 -15 -55.5 -24.5t-74.5 -9.5q-62 0 -112.5 20t-86.5 56.5t-56 87.5t-20 113q0 59 19.5 109.5t55 87.5t86.5 58t114 21q42 0 79.5 -11.5t60.5 -31.5v34h151v-710h-161v200zM176 268q0 -29 9 -53.5t25.5 -42.5t39.5 -28t52 -10q59 0 91.5 38.5t32.5 95.5
q0 28 -9 52.5t-25.5 42.5t-39.5 28t-51 10q-30 0 -53 -10t-39 -28t-24.5 -42.5t-8.5 -52.5z" />
    <glyph glyph-name="r" unicode="r" horiz-adv-x="301" 
d="M287 369h-40q-32 0 -43 -12.5t-11 -37.5v-319h-161v535h161v-37q15 20 36.5 30t57.5 10v-169z" />
    <glyph glyph-name="s" unicode="s" horiz-adv-x="437" 
d="M178 387q0 -28 43 -37q17 -4 34 -7t31 -7q35 -10 60.5 -23.5t42 -33t24.5 -46.5t8 -63q0 -47 -17 -80.5t-45 -55t-65 -31.5t-77 -10q-59 0 -98.5 15.5t-62.5 41t-32 58.5t-7 68h153q-1 -20 8.5 -38t40.5 -18q20 0 33 8.5t13 24.5q0 17 -9.5 25.5t-34.5 13.5
q-26 5 -43 9.5t-38 11.5q-59 20 -86.5 61t-27.5 101q0 39 15 70t41 52.5t61.5 33t76.5 11.5q43 0 78 -10t60.5 -31t39.5 -54t14 -79h-147q-1 24 -12.5 38t-35.5 14q-18 0 -28.5 -9t-10.5 -24z" />
    <glyph glyph-name="t" unicode="t" horiz-adv-x="315" 
d="M221 535h71v-135h-71v-213q0 -27 11 -37.5t33 -10.5h27v-135q-9 -3 -20 -5q-10 -2 -25 -3.5t-36 -1.5q-77 0 -114 38t-37 107v261h-47v135h47v85h161v-85z" />
    <glyph glyph-name="u" unicode="u" horiz-adv-x="495" 
d="M191 203q0 -29 12.5 -47t41.5 -18q28 0 42.5 18t14.5 47v332h161v-535h-160v34q-9 -10 -35 -25t-71 -15t-76.5 14t-52 39.5t-29.5 60t-9 76.5v351h161v-332z" />
    <glyph glyph-name="v" unicode="v" horiz-adv-x="538" 
d="M275 203l98 332h166l-179 -535h-178l-183 535h178z" />
    <glyph glyph-name="w" unicode="w" horiz-adv-x="820" 
d="M579 207l73 328h167l-142 -535h-178l-85 302l-82 -302h-181l-150 535h182l72 -328l77 328h171z" />
    <glyph glyph-name="x" unicode="x" horiz-adv-x="548" 
d="M271 146l-100 -146h-172l186 272l-178 263h185l87 -130l87 130h175l-177 -258l185 -277h-179z" />
    <glyph glyph-name="y" unicode="y" horiz-adv-x="539" 
d="M122 -175l73 204l-196 506h177l101 -287l100 287h164l-264 -710h-155z" />
    <glyph glyph-name="z" unicode="z" horiz-adv-x="430" 
d="M212 133h198v-133h-390v114l191 288h-189v133h388v-114z" />
    <glyph glyph-name="braceleft" unicode="{" horiz-adv-x="322" 
d="M224 51q0 -38 18 -60t63 -22v-144q-120 0 -176.5 60t-56.5 169v125q0 32 -10 49.5t-50 17.5v150q40 0 50 17.5t10 49.5v118q0 108 56.5 168.5t176.5 60.5v-144q-45 0 -63 -22t-18 -60v-158q0 -27 -6.5 -45.5t-17.5 -31t-24.5 -19.5t-28.5 -10q15 -3 28.5 -10t24.5 -19.5
t17.5 -31t6.5 -45.5v-163v0z" />
    <glyph glyph-name="bar" unicode="|" horiz-adv-x="253" 
d="M193 -175h-133v906h133v-906z" />
    <glyph glyph-name="braceright" unicode="}" horiz-adv-x="322" 
d="M98 214q0 27 6.5 45.5t17.5 31t24.5 19.5t28.5 10q-15 3 -28.5 10t-24.5 19.5t-17.5 31t-6.5 45.5v158q0 38 -18 60t-63 22v144q120 0 176.5 -60.5t56.5 -168.5v-118q0 -32 10 -49.5t50 -17.5v-150q-40 0 -50 -17.5t-10 -49.5v-125q0 -109 -56.5 -169t-176.5 -60v144
q45 0 63 22t18 60v163z" />
    <glyph glyph-name="asciitilde" unicode="~" horiz-adv-x="477" 
d="M238 222q-16 8 -29 14t-27 6q-17 0 -24.5 -10.5t-8.5 -26.5h-133q-1 42 9 77t30 60.5t49.5 39.5t66.5 14q23 0 39.5 -5t30.5 -12q17 -8 30 -15t27 -7q15 0 22.5 11t7.5 30h133q2 -90 -39 -141.5t-112 -51.5q-23 0 -40.5 5t-31.5 12z" />
    <glyph glyph-name="Adieresis" unicode="&#xc4;" horiz-adv-x="658" 
d="M218 712q-35 0 -59 24t-24 59t24 58.5t59 23.5q38 0 62 -23.5t24 -58.5t-25 -59t-61 -24zM423 712q-35 0 -59 24t-24 59t24 58.5t59 23.5q38 0 62 -23.5t24 -58.5t-25 -59t-61 -24zM431 165h-218l-57 -165h-164l242 692h176l256 -692h-177zM261 305h122l-61 175z" />
    <glyph glyph-name="Aring" unicode="&#xc5;" horiz-adv-x="658" 
d="M208 820q0 48 32 79.5t81 31.5q54 0 85 -31t31 -78q0 -48 -31 -79.5t-84 -31.5q-51 0 -82.5 31t-31.5 78zM283 822q0 -20 11 -31t29 -11q17 0 28 11t11 31q0 17 -10.5 28.5t-28.5 11.5q-19 0 -29.5 -11.5t-10.5 -28.5zM431 165h-218l-57 -165h-164l242 692h176l256 -692
h-177zM261 305h122l-61 175z" />
    <glyph glyph-name="Ccedilla" unicode="&#xc7;" horiz-adv-x="631" 
d="M618 77q-45 -42 -101 -66t-129 -24h-3v-21q42 -14 57.5 -44t15.5 -66q0 -57 -36.5 -88.5t-104.5 -31.5h-20v87h22q17 1 26.5 8.5t9.5 24.5q0 16 -9.5 24t-26.5 8h-22v108q-66 13 -117.5 45t-87 77.5t-54 103.5t-18.5 123q0 75 26 140.5t73.5 114.5t115 77t150.5 28
q79 0 135.5 -23t98.5 -59l-99 -126q-19 17 -52.5 34.5t-80.5 17.5q-46 0 -82 -16t-60.5 -43.5t-37 -64.5t-12.5 -79q0 -43 14 -80t39 -64.5t60.5 -43t79.5 -15.5t76.5 16t55.5 36z" />
    <glyph glyph-name="Eacute" unicode="&#xc9;" horiz-adv-x="401" 
d="M349 853l-78 -132h-153l72 132h159zM40 0v692h328v-156h-161v-107h156v-154h-156v-119h164v-156h-331z" />
    <glyph glyph-name="Ntilde" unicode="&#xd1;" horiz-adv-x="673" 
d="M404 723q-18 0 -32 4.5t-25.5 9.5t-21.5 9.5t-19 4.5q-25 0 -25 -30h-113q-2 31 5.5 58t23 46t38 30t50.5 11q20 0 34 -4.5t24.5 -9.5t19.5 -9.5t19 -4.5q23 0 23 30h113q4 -67 -27.5 -106t-86.5 -39zM201 409v-409h-161v692h172l260 -418v418h161v-692h-165z" />
    <glyph glyph-name="Odieresis" unicode="&#xd6;" horiz-adv-x="766" 
d="M279 712q-35 0 -59 24t-24 59t24 58.5t59 23.5q38 0 62 -23.5t24 -58.5t-25 -59t-61 -24zM484 712q-35 0 -59 24t-24 59t24 58.5t59 23.5q38 0 62 -23.5t24 -58.5t-25 -59t-61 -24zM20 345q0 75 26 141t73.5 114.5t113.5 76.5t146 28q85 0 153 -27.5t115.5 -75.5t73 -113
t25.5 -141t-25.5 -142t-72.5 -114.5t-114 -76.5t-150 -28q-85 0 -152.5 27.5t-114.5 75.5t-72 113.5t-25 141.5zM195 346q0 -43 13 -80t37.5 -64.5t59.5 -43t78 -15.5q46 0 81 16t59 43.5t36 64.5t12 79t-13 79t-37 64.5t-59 43.5t-80 16q-46 0 -81 -16t-58.5 -43.5
t-35.5 -64.5t-12 -79z" />
    <glyph glyph-name="Udieresis" unicode="&#xdc;" horiz-adv-x="644" 
d="M217 712q-35 0 -59 24t-24 59t24 58.5t59 23.5q38 0 62 -23.5t24 -58.5t-25 -59t-61 -24zM422 712q-35 0 -59 24t-24 59t24 58.5t59 23.5q38 0 62 -23.5t24 -58.5t-25 -59t-61 -24zM321 -13q-73 0 -126.5 21t-88.5 59t-52 91t-17 118v416h167v-416q0 -59 28.5 -95.5
t90.5 -36.5q60 0 88.5 37t28.5 96v415h167v-415q0 -63 -18 -116t-54 -91.5t-89.5 -60.5t-124.5 -22z" />
    <glyph glyph-name="aacute" unicode="&#xe1;" horiz-adv-x="476" 
d="M17 177q0 40 12.5 72.5t36.5 55.5t57.5 35.5t75.5 12.5q33 0 55 -6t33 -13v22q0 23 -11 40.5t-41 17.5q-29 0 -39 -15t-10 -31h-149q2 81 50 127t147 46q63 0 104 -16t65 -43.5t33.5 -66t9.5 -83.5v-332h-132v29q-19 -17 -45.5 -26t-64.5 -9q-39 0 -73 12.5t-59.5 36
t-40 57.5t-14.5 77zM168 181q0 -26 17.5 -43t43.5 -17t43.5 17t17.5 43q0 27 -18 43t-44 16t-43 -16.5t-17 -42.5zM399 708l-82 -140h-150l75 140h157z" />
    <glyph glyph-name="agrave" unicode="&#xe0;" horiz-adv-x="476" 
d="M17 177q0 40 12.5 72.5t36.5 55.5t57.5 35.5t75.5 12.5q33 0 55 -6t33 -13v22q0 23 -11 40.5t-41 17.5q-29 0 -39 -15t-10 -31h-149q2 81 50 127t147 46q63 0 104 -16t65 -43.5t33.5 -66t9.5 -83.5v-332h-132v29q-19 -17 -45.5 -26t-64.5 -9q-39 0 -73 12.5t-59.5 36
t-40 57.5t-14.5 77zM168 181q0 -26 17.5 -43t43.5 -17t43.5 17t17.5 43q0 27 -18 43t-44 16t-43 -16.5t-17 -42.5zM245 708l75 -140h-150l-82 140h157z" />
    <glyph glyph-name="acircumflex" unicode="&#xe2;" horiz-adv-x="476" 
d="M17 177q0 40 12.5 72.5t36.5 55.5t57.5 35.5t75.5 12.5q33 0 55 -6t33 -13v22q0 23 -11 40.5t-41 17.5q-29 0 -39 -15t-10 -31h-149q2 81 50 127t147 46q63 0 104 -16t65 -43.5t33.5 -66t9.5 -83.5v-332h-132v29q-19 -17 -45.5 -26t-64.5 -9q-39 0 -73 12.5t-59.5 36
t-40 57.5t-14.5 77zM168 181q0 -26 17.5 -43t43.5 -17t43.5 17t17.5 43q0 27 -18 43t-44 16t-43 -16.5t-17 -42.5zM318 710l93 -143h-138l-35 50l-35 -50h-138l93 143h160z" />
    <glyph glyph-name="adieresis" unicode="&#xe4;" horiz-adv-x="476" 
d="M17 177q0 40 12.5 72.5t36.5 55.5t57.5 35.5t75.5 12.5q33 0 55 -6t33 -13v22q0 23 -11 40.5t-41 17.5q-29 0 -39 -15t-10 -31h-149q2 81 50 127t147 46q63 0 104 -16t65 -43.5t33.5 -66t9.5 -83.5v-332h-132v29q-19 -17 -45.5 -26t-64.5 -9q-39 0 -73 12.5t-59.5 36
t-40 57.5t-14.5 77zM168 181q0 -26 17.5 -43t43.5 -17t43.5 17t17.5 43q0 27 -18 43t-44 16t-43 -16.5t-17 -42.5zM141 562q-35 0 -59 24t-24 59t24 58.5t59 23.5q38 0 62 -23.5t24 -58.5t-25 -59t-61 -24zM334 562q-35 0 -59 24t-24 59t24 58.5t59 23.5q38 0 62 -23.5
t24 -58.5t-25 -59t-61 -24z" />
    <glyph glyph-name="atilde" unicode="&#xe3;" horiz-adv-x="476" 
d="M17 177q0 40 12.5 72.5t36.5 55.5t57.5 35.5t75.5 12.5q33 0 55 -6t33 -13v22q0 23 -11 40.5t-41 17.5q-29 0 -39 -15t-10 -31h-149q2 81 50 127t147 46q63 0 104 -16t65 -43.5t33.5 -66t9.5 -83.5v-332h-132v29q-19 -17 -45.5 -26t-64.5 -9q-39 0 -73 12.5t-59.5 36
t-40 57.5t-14.5 77zM168 181q0 -26 17.5 -43t43.5 -17t43.5 17t17.5 43q0 27 -18 43t-44 16t-43 -16.5t-17 -42.5zM298 566q-18 0 -31.5 4.5t-24.5 9.5t-20.5 9.5t-18.5 4.5q-23 0 -23 -30h-112q-2 31 5.5 58t22.5 46t37 30t50 11q20 0 33.5 -4.5t23.5 -9.5t18.5 -9.5
t18.5 -4.5q21 0 21 30h112q4 -67 -26.5 -106t-85.5 -39z" />
    <glyph glyph-name="aring" unicode="&#xe5;" horiz-adv-x="476" 
d="M17 177q0 40 12.5 72.5t36.5 55.5t57.5 35.5t75.5 12.5q33 0 55 -6t33 -13v22q0 23 -11 40.5t-41 17.5q-29 0 -39 -15t-10 -31h-149q2 81 50 127t147 46q63 0 104 -16t65 -43.5t33.5 -66t9.5 -83.5v-332h-132v29q-19 -17 -45.5 -26t-64.5 -9q-39 0 -73 12.5t-59.5 36
t-40 57.5t-14.5 77zM168 181q0 -26 17.5 -43t43.5 -17t43.5 17t17.5 43q0 27 -18 43t-44 16t-43 -16.5t-17 -42.5zM123 666q0 24 8.5 44t23.5 34.5t35.5 23t44.5 8.5q53 0 84 -31t31 -77q0 -48 -31 -79t-83 -31q-50 0 -81.5 31t-31.5 77zM195 668q0 -20 12 -32t30 -12
q17 0 29 12t12 32q0 18 -11.5 30t-29.5 12q-19 0 -30.5 -12t-11.5 -30z" />
    <glyph glyph-name="ccedilla" unicode="&#xe7;" horiz-adv-x="475" 
d="M204 -264v87h22q17 1 26.5 8.5t9.5 24.5q0 16 -9.5 24t-26.5 8h-22v115q-44 13 -79 38t-59 59.5t-37 76.5t-13 89q0 58 20.5 109t57.5 88.5t88 59t111 21.5q34 0 62 -6t50.5 -15.5t39.5 -21.5t29 -23l-89 -114q-13 11 -35 23t-55 12q-29 0 -51 -10t-37 -28t-23 -42
t-8 -52q0 -31 10 -55.5t26.5 -41t38 -25.5t45.5 -9q33 0 54.5 12t34.5 23l89 -114q-12 -11 -29.5 -23t-40 -21.5t-50 -15.5t-59.5 -6h-3v-25q42 -14 57.5 -44t15.5 -66q0 -57 -36.5 -88.5t-104.5 -31.5h-20z" />
    <glyph glyph-name="eacute" unicode="&#xe9;" horiz-adv-x="555" 
d="M183 215q5 -38 33.5 -60t75.5 -22q43 0 69 20t40 43l123 -72q-11 -23 -30 -47t-47.5 -43t-67 -31t-88.5 -12q-61 0 -111.5 19t-87 54t-56.5 86t-20 115q0 60 19 111t54 88.5t83 58.5t107 21q61 0 110 -19t83 -54.5t52 -84.5t18 -109v-27t-2 -35h-357zM279 410
q-42 0 -65.5 -25t-26.5 -57h188q-3 33 -27.5 57.5t-68.5 24.5zM439 708l-82 -140h-150l75 140h157z" />
    <glyph glyph-name="egrave" unicode="&#xe8;" horiz-adv-x="555" 
d="M183 215q5 -38 33.5 -60t75.5 -22q43 0 69 20t40 43l123 -72q-11 -23 -30 -47t-47.5 -43t-67 -31t-88.5 -12q-61 0 -111.5 19t-87 54t-56.5 86t-20 115q0 60 19 111t54 88.5t83 58.5t107 21q61 0 110 -19t83 -54.5t52 -84.5t18 -109v-27t-2 -35h-357zM279 410
q-42 0 -65.5 -25t-26.5 -57h188q-3 33 -27.5 57.5t-68.5 24.5zM285 708l75 -140h-150l-82 140h157z" />
    <glyph glyph-name="ecircumflex" unicode="&#xea;" horiz-adv-x="555" 
d="M183 215q5 -38 33.5 -60t75.5 -22q43 0 69 20t40 43l123 -72q-11 -23 -30 -47t-47.5 -43t-67 -31t-88.5 -12q-61 0 -111.5 19t-87 54t-56.5 86t-20 115q0 60 19 111t54 88.5t83 58.5t107 21q61 0 110 -19t83 -54.5t52 -84.5t18 -109v-27t-2 -35h-357zM279 410
q-42 0 -65.5 -25t-26.5 -57h188q-3 33 -27.5 57.5t-68.5 24.5zM357 710l93 -143h-138l-35 50l-35 -50h-138l93 143h160z" />
    <glyph glyph-name="edieresis" unicode="&#xeb;" horiz-adv-x="555" 
d="M183 215q5 -38 33.5 -60t75.5 -22q43 0 69 20t40 43l123 -72q-11 -23 -30 -47t-47.5 -43t-67 -31t-88.5 -12q-61 0 -111.5 19t-87 54t-56.5 86t-20 115q0 60 19 111t54 88.5t83 58.5t107 21q61 0 110 -19t83 -54.5t52 -84.5t18 -109v-27t-2 -35h-357zM279 410
q-42 0 -65.5 -25t-26.5 -57h188q-3 33 -27.5 57.5t-68.5 24.5zM183 562q-35 0 -59 24t-24 59t24 58.5t59 23.5q38 0 62 -23.5t24 -58.5t-25 -59t-61 -24zM376 562q-35 0 -59 24t-24 59t24 58.5t59 23.5q38 0 62 -23.5t24 -58.5t-25 -59t-61 -24z" />
    <glyph glyph-name="iacute" unicode="&#xed;" horiz-adv-x="225" 
d="M193 0h-161v535h161v-535zM272 708l-82 -140h-150l75 140h157z" />
    <glyph glyph-name="igrave" unicode="&#xec;" horiz-adv-x="225" 
d="M193 0h-161v535h161v-535zM113 708l75 -140h-150l-82 140h157z" />
    <glyph glyph-name="icircumflex" unicode="&#xee;" horiz-adv-x="225" 
d="M193 710l93 -143h-138l-35 50l-35 -50h-138l93 143h160zM193 0h-161v535h161v-535z" />
    <glyph glyph-name="idieresis" unicode="&#xef;" horiz-adv-x="225" 
d="M15 562q-35 0 -59 24t-24 59t24 58.5t59 23.5q38 0 62 -23.5t24 -58.5t-25 -59t-61 -24zM208 562q-35 0 -59 24t-24 59t24 58.5t59 23.5q38 0 62 -23.5t24 -58.5t-25 -59t-61 -24zM193 0h-161v535h161v-535z" />
    <glyph glyph-name="ntilde" unicode="&#xf1;" horiz-adv-x="498" 
d="M307 333q0 29 -14 47t-43 18q-28 0 -42.5 -17.5t-14.5 -46.5v-334h-161v535h161v-34q4 4 12.5 11t21.5 13.5t31.5 11t42.5 4.5q47 0 79 -15t51.5 -41t28 -60t8.5 -73v-352h-161v333zM305 566q-18 0 -31.5 4.5t-24.5 9.5t-20.5 9.5t-18.5 4.5q-23 0 -23 -30h-112
q-2 31 5.5 58t22.5 46t37 30t50 11q20 0 33.5 -4.5t23.5 -9.5t18.5 -9.5t18.5 -4.5q21 0 21 30h112q4 -67 -26.5 -106t-85.5 -39z" />
    <glyph glyph-name="oacute" unicode="&#xf3;" horiz-adv-x="595" 
d="M176 267q0 -28 9 -52t25 -41.5t38.5 -27.5t49.5 -10q28 0 50.5 10t38.5 27.5t24 41.5t8 52t-9 52t-25 42t-38.5 28t-49.5 10q-29 0 -51 -10t-38 -28t-24 -42t-8 -52zM16 266q0 58 20.5 109t58 88.5t88.5 59t113 21.5q66 0 118 -21t89 -58t56.5 -87.5t19.5 -108.5
q0 -59 -20 -109.5t-57 -88t-89 -59t-116 -21.5q-65 0 -116.5 21t-88.5 58t-56.5 87.5t-19.5 108.5zM459 708l-82 -140h-150l75 140h157z" />
    <glyph glyph-name="ograve" unicode="&#xf2;" horiz-adv-x="595" 
d="M176 267q0 -28 9 -52t25 -41.5t38.5 -27.5t49.5 -10q28 0 50.5 10t38.5 27.5t24 41.5t8 52t-9 52t-25 42t-38.5 28t-49.5 10q-29 0 -51 -10t-38 -28t-24 -42t-8 -52zM16 266q0 58 20.5 109t58 88.5t88.5 59t113 21.5q66 0 118 -21t89 -58t56.5 -87.5t19.5 -108.5
q0 -59 -20 -109.5t-57 -88t-89 -59t-116 -21.5q-65 0 -116.5 21t-88.5 58t-56.5 87.5t-19.5 108.5zM306 708l75 -140h-150l-82 140h157z" />
    <glyph glyph-name="ocircumflex" unicode="&#xf4;" horiz-adv-x="595" 
d="M176 267q0 -28 9 -52t25 -41.5t38.5 -27.5t49.5 -10q28 0 50.5 10t38.5 27.5t24 41.5t8 52t-9 52t-25 42t-38.5 28t-49.5 10q-29 0 -51 -10t-38 -28t-24 -42t-8 -52zM16 266q0 58 20.5 109t58 88.5t88.5 59t113 21.5q66 0 118 -21t89 -58t56.5 -87.5t19.5 -108.5
q0 -59 -20 -109.5t-57 -88t-89 -59t-116 -21.5q-65 0 -116.5 21t-88.5 58t-56.5 87.5t-19.5 108.5zM377 710l93 -143h-138l-35 50l-35 -50h-138l93 143h160z" />
    <glyph glyph-name="odieresis" unicode="&#xf6;" horiz-adv-x="595" 
d="M176 267q0 -28 9 -52t25 -41.5t38.5 -27.5t49.5 -10q28 0 50.5 10t38.5 27.5t24 41.5t8 52t-9 52t-25 42t-38.5 28t-49.5 10q-29 0 -51 -10t-38 -28t-24 -42t-8 -52zM16 266q0 58 20.5 109t58 88.5t88.5 59t113 21.5q66 0 118 -21t89 -58t56.5 -87.5t19.5 -108.5
q0 -59 -20 -109.5t-57 -88t-89 -59t-116 -21.5q-65 0 -116.5 21t-88.5 58t-56.5 87.5t-19.5 108.5zM199 562q-35 0 -59 24t-24 59t24 58.5t59 23.5q38 0 62 -23.5t24 -58.5t-25 -59t-61 -24zM392 562q-35 0 -59 24t-24 59t24 58.5t59 23.5q38 0 62 -23.5t24 -58.5t-25 -59
t-61 -24z" />
    <glyph glyph-name="otilde" unicode="&#xf5;" horiz-adv-x="595" 
d="M176 267q0 -28 9 -52t25 -41.5t38.5 -27.5t49.5 -10q28 0 50.5 10t38.5 27.5t24 41.5t8 52t-9 52t-25 42t-38.5 28t-49.5 10q-29 0 -51 -10t-38 -28t-24 -42t-8 -52zM16 266q0 58 20.5 109t58 88.5t88.5 59t113 21.5q66 0 118 -21t89 -58t56.5 -87.5t19.5 -108.5
q0 -59 -20 -109.5t-57 -88t-89 -59t-116 -21.5q-65 0 -116.5 21t-88.5 58t-56.5 87.5t-19.5 108.5zM357 566q-18 0 -31.5 4.5t-24.5 9.5t-20.5 9.5t-18.5 4.5q-23 0 -23 -30h-112q-2 31 5.5 58t22.5 46t37 30t50 11q20 0 33.5 -4.5t23.5 -9.5t18.5 -9.5t18.5 -4.5
q21 0 21 30h112q4 -67 -26.5 -106t-85.5 -39z" />
    <glyph glyph-name="uacute" unicode="&#xfa;" horiz-adv-x="495" 
d="M191 203q0 -29 12.5 -47t41.5 -18q28 0 42.5 18t14.5 47v332h161v-535h-160v34q-9 -10 -35 -25t-71 -15t-76.5 14t-52 39.5t-29.5 60t-9 76.5v351h161v-332zM398 708l-82 -140h-150l75 140h157z" />
    <glyph glyph-name="ugrave" unicode="&#xf9;" horiz-adv-x="495" 
d="M191 203q0 -29 12.5 -47t41.5 -18q28 0 42.5 18t14.5 47v332h161v-535h-160v34q-9 -10 -35 -25t-71 -15t-76.5 14t-52 39.5t-29.5 60t-9 76.5v351h161v-332zM256 708l75 -140h-150l-82 140h157z" />
    <glyph glyph-name="ucircumflex" unicode="&#xfb;" horiz-adv-x="495" 
d="M191 203q0 -29 12.5 -47t41.5 -18q28 0 42.5 18t14.5 47v332h161v-535h-160v34q-9 -10 -35 -25t-71 -15t-76.5 14t-52 39.5t-29.5 60t-9 76.5v351h161v-332zM327 710l93 -143h-138l-35 50l-35 -50h-138l93 143h160z" />
    <glyph glyph-name="udieresis" unicode="&#xfc;" horiz-adv-x="495" 
d="M191 203q0 -29 12.5 -47t41.5 -18q28 0 42.5 18t14.5 47v332h161v-535h-160v34q-9 -10 -35 -25t-71 -15t-76.5 14t-52 39.5t-29.5 60t-9 76.5v351h161v-332zM147 562q-35 0 -59 24t-24 59t24 58.5t59 23.5q38 0 62 -23.5t24 -58.5t-25 -59t-61 -24zM340 562q-35 0 -59 24
t-24 59t24 58.5t59 23.5q38 0 62 -23.5t24 -58.5t-25 -59t-61 -24z" />
    <glyph glyph-name="dagger" unicode="&#x2020;" horiz-adv-x="409" 
d="M286 408v-408h-163v408h-107v159h107v125h163v-125h107v-159h-107z" />
    <glyph glyph-name="degree" unicode="&#xb0;" horiz-adv-x="362" 
d="M16 540q0 34 12 64t33.5 52t52 34.5t66.5 12.5q38 0 69 -12.5t52.5 -34t33 -51t11.5 -63.5q0 -35 -11.5 -65t-33.5 -51.5t-52.5 -34t-67.5 -12.5q-38 0 -68.5 12.5t-52 34t-33 51t-11.5 63.5zM123 540q0 -24 16.5 -41.5t41.5 -17.5q26 0 42 18t16 41q0 25 -16.5 43
t-41.5 18q-26 0 -42 -18t-16 -43z" />
    <glyph glyph-name="cent" unicode="&#xa2;" horiz-adv-x="484" 
d="M330 542q57 -7 94 -27.5t58 -40.5l-85 -109q-9 8 -26 19t-41 16v-266q23 6 40 16.5t28 19.5l85 -109q-21 -20 -60 -41.5t-93 -26.5v-62h-80v63q-54 7 -97.5 31t-74 60t-46.5 82t-16 99q0 52 17 99t48 83.5t74 60.5t95 32v63h80v-62zM171 267q0 -50 22 -81.5t57 -45.5v256
q-39 -14 -59 -48t-20 -81z" />
    <glyph glyph-name="sterling" unicode="&#xa3;" horiz-adv-x="556" 
d="M244 404h132v-141h-132v-114h296v-149h-517v149h54v114h-54v141h54v81q0 47 14.5 87.5t43 70t71.5 46t100 16.5q70 0 115 -22.5t70 -56.5t34 -73.5t8 -73.5h-165q0 9 -2 20.5t-9 22t-19 17.5t-32 7q-34 0 -48 -21t-14 -52v-69z" />
    <glyph glyph-name="section" unicode="&#xa7;" horiz-adv-x="581" 
d="M339 10q0 23 -14 35t-43 22l-138 50q-26 9 -48.5 24t-39.5 36t-27 49t-10 63q0 56 26.5 91.5t61.5 52.5q-29 43 -29 106q0 39 14 75t41.5 63.5t68.5 43.5t96 16q69 0 111 -20t65 -51t30.5 -67t7.5 -69h-160q0 22 -12 41.5t-44 19.5q-30 0 -41.5 -14t-11.5 -31
q0 -20 14 -33t44 -23l124 -42q73 -25 104 -70.5t31 -106.5q0 -51 -24.5 -91.5t-58.5 -57.5q17 -21 22.5 -48.5t5.5 -57.5q0 -39 -14.5 -75t-43 -63.5t-70.5 -43.5t-96 -16q-60 0 -101.5 16t-67 44t-36.5 66.5t-11 84.5h162q0 -11 2.5 -22.5t9 -21t17.5 -15.5t28 -6
q30 0 42.5 14t12.5 32zM237 338q-24 9 -40 -2t-16 -31q0 -28 26 -37l131 -47q20 -8 40 -1.5t20 34.5q0 11 -6 20.5t-19 14.5z" />
    <glyph glyph-name="bullet" unicode="&#x2022;" horiz-adv-x="347" 
d="M16 297q0 33 12.5 61.5t33.5 50t49.5 34t61.5 12.5t61.5 -12.5t50 -34t34 -50t12.5 -61.5t-12.5 -61.5t-34 -49.5t-50 -33.5t-61.5 -12.5t-61.5 12.5t-49.5 33.5t-33.5 49.5t-12.5 61.5z" />
    <glyph glyph-name="paragraph" unicode="&#xb6;" horiz-adv-x="479" 
d="M150 0v405q-30 1 -56.5 11.5t-45.5 29.5t-30 45.5t-11 58.5q0 31 11 57t31 45t47.5 29.5t61.5 10.5h111v-692h-119zM439 0h-119v692h119v-692z" />
    <glyph glyph-name="germandbls" unicode="&#xdf;" horiz-adv-x="533" 
d="M237 134h12q46 1 76.5 30t31.5 80q0 25 -8 45t-23 34.5t-35 22.5t-43 8h-11v130h17q28 0 44 18t16 42q0 27 -16.5 43t-45.5 16q-32 0 -45.5 -20.5t-13.5 -41.5v-541h-161v526q0 44 12 82.5t38.5 67t69.5 45t105 16.5q98 0 155.5 -46.5t57.5 -134.5q0 -42 -18.5 -71.5
t-36.5 -40.5q42 -27 72 -75t30 -127q0 -56 -19 -101.5t-53.5 -77.5t-83 -48.5t-108.5 -14.5h-16v134z" />
    <glyph glyph-name="registered" unicode="&#xae;" horiz-adv-x="439" 
d="M205 506v-80h-65v220h93q37 0 55.5 -18.5t18.5 -50.5q0 -20 -8.5 -34.5t-20.5 -22.5l37 -94h-67l-31 80h-12zM205 592v-35h16q19 0 19 18q0 17 -19 17h-16zM12 533q0 43 15 80.5t42 65t64.5 43.5t83.5 16q48 0 87 -15.5t66 -43t42 -65t15 -80.5q0 -42 -15 -79.5
t-42 -65.5t-65.5 -44t-85.5 -16t-85 15.5t-65 43t-42 64.5t-15 81zM68 533q0 -33 10.5 -61t30 -48.5t47.5 -32t63 -11.5q72 0 111.5 43.5t39.5 110.5q0 68 -40.5 110t-112.5 42q-34 0 -61.5 -11.5t-47 -31.5t-30 -48.5t-10.5 -61.5z" />
    <glyph glyph-name="copyright" unicode="&#xa9;" horiz-adv-x="768" 
d="M20 345q0 75 26.5 141t74 114.5t113.5 76.5t146 28q85 0 153 -27.5t116 -75.5t73.5 -113t25.5 -141q0 -75 -25.5 -141t-73 -115t-114.5 -77t-150 -28t-150.5 27.5t-115 75.5t-73.5 113.5t-26 141.5zM119 345q0 -57 18 -106.5t52.5 -85.5t83.5 -56.5t112 -20.5t112 20.5
t82.5 56.5t51.5 86t18 109t-18 108t-52.5 84.5t-84.5 55.5t-114 20q-60 0 -108.5 -20.5t-82 -56.5t-52 -85.5t-18.5 -108.5zM451 402q-6 7 -20.5 14t-34.5 7q-32 0 -50.5 -21.5t-18.5 -55.5q0 -33 20 -54.5t52 -21.5q20 0 33 6.5t19 11.5l74 -90q-24 -23 -55 -35.5
t-70 -12.5q-47 0 -84.5 15t-63 41.5t-39 62t-13.5 76.5t14 77t39.5 62.5t62.5 42t82 15.5q44 0 74 -12t53 -31z" />
    <glyph glyph-name="trademark" unicode="&#x2122;" horiz-adv-x="638" 
d="M212 603h-48v-193h-98v193h-48v89h194v-89zM528 583l-49 -173h-97l-53 173v-173h-90v282h146l47 -167l47 167h141v-282h-92v173z" />
    <glyph glyph-name="acute" unicode="&#xb4;" horiz-adv-x="476" 
d="M399 708l-82 -140h-150l75 140h157z" />
    <glyph glyph-name="dieresis" unicode="&#xa8;" horiz-adv-x="476" 
d="M147 562q-35 0 -59 24t-24 59t24 58.5t59 23.5q38 0 62 -23.5t24 -58.5t-25 -59t-61 -24zM340 562q-35 0 -59 24t-24 59t24 58.5t59 23.5q38 0 62 -23.5t24 -58.5t-25 -59t-61 -24z" />
    <glyph glyph-name="AE" unicode="&#xc6;" horiz-adv-x="787" 
d="M426 0v148h-179l-75 -148h-187l372 692h397v-156h-161v-107h156v-154h-156v-119h164v-156h-331zM426 288v211l-108 -211h108z" />
    <glyph glyph-name="Oslash" unicode="&#xd8;" horiz-adv-x="766" 
d="M20 345q0 75 26 140.5t73.5 113.5t113 76t144.5 28q54 0 103.5 -12.5t83.5 -33.5l48 54l106 -93l-46 -52q29 -38 49.5 -94t20.5 -124q0 -75 -25.5 -140.5t-72 -113.5t-113.5 -76t-149 -28q-60 0 -105 12t-77 31l-50 -57l-106 92l48 54q-35 45 -53.5 102t-18.5 121z
M192 346q0 -25 4 -48t13 -43l249 282q-35 15 -78 15q-45 0 -80 -16t-59 -44t-36.5 -65.5t-12.5 -80.5zM570 346q0 23 -4 45t-12 42l-246 -278q34 -14 73 -14q46 0 81 16t59 43.5t36.5 65t12.5 80.5z" />
    <glyph glyph-name="yen" unicode="&#xa5;" horiz-adv-x="548" 
d="M189 411l-188 281h193l85 -135l84 135h179l-187 -281h126v-117h-126v-47h126v-117h-126v-130h-166v130h-126v117h126v47h-126v117h126z" />
    <glyph glyph-name="ordfeminine" unicode="&#xaa;" horiz-adv-x="362" 
d="M17 423q-1 60 37 96.5t101 36.5q26 0 40.5 -4t22.5 -9v15q0 17 -7 30t-28 13q-22 0 -29.5 -10.5t-7.5 -22.5h-114q2 61 38 95.5t113 34.5q46 0 76.5 -12t48.5 -33t25 -49.5t7 -62.5v-252h-100v22q-15 -14 -34 -20t-48 -6q-30 0 -55.5 9.5t-44.5 27.5t-30 43.5t-11 57.5z
M132 425q0 -20 12 -31.5t32 -11.5t32 11.5t12 31.5t-12 31.5t-32 11.5t-32 -11.5t-12 -31.5z" />
    <glyph glyph-name="ordmasculine" unicode="&#xba;" horiz-adv-x="440" 
d="M135 491q0 -40 23.5 -65.5t62.5 -25.5t61.5 26t22.5 65q0 41 -24 66.5t-61 25.5q-40 0 -62.5 -26t-22.5 -66zM10 490q0 45 15.5 83t43 65.5t66 43.5t84.5 16q49 0 88 -15.5t66.5 -43t42 -65t14.5 -81.5q0 -45 -15 -83t-42.5 -65.5t-66 -43.5t-86.5 -16t-87 15.5t-66.5 43
t-42 65t-14.5 81.5z" />
    <glyph glyph-name="ae" unicode="&#xe6;" horiz-adv-x="819" 
d="M556 -9q-116 0 -190 65q-9 -11 -21.5 -22t-30.5 -21t-41.5 -16t-53.5 -6q-44 0 -81 12.5t-64 36.5t-42 58t-15 76q0 40 13 73t37 56.5t58.5 36.5t77.5 13q31 0 52 -5.5t32 -12.5v21q0 23 -11 40.5t-41 17.5q-29 0 -39 -15t-10 -31h-149q2 81 50 127t148 46q56 0 92 -15.5
t58 -39.5q20 19 60 38.5t99 19.5q61 0 109.5 -19t82.5 -54.5t52 -84.5t18 -109q0 -11 -0.5 -29.5t-1.5 -32.5h-355q3 -32 30 -57t78 -25q42 0 68 20t40 43l123 -72q-11 -23 -30 -47t-47.5 -43t-67 -31t-87.5 -12zM544 410q-42 0 -64.5 -25t-26.5 -57h186q-3 33 -27.5 57.5
t-67.5 24.5zM168 181q0 -26 17.5 -43t43.5 -17t43.5 17t17.5 43q0 27 -18 43t-44 16t-43 -16.5t-17 -42.5z" />
    <glyph glyph-name="oslash" unicode="&#xf8;" horiz-adv-x="595" 
d="M16 267q0 58 20.5 109t58 88t88.5 58.5t113 21.5q42 0 76.5 -9t60.5 -23l37 42l85 -73l-34 -39q28 -35 43 -78.5t15 -94.5q0 -59 -20 -109.5t-57 -88t-89 -59t-116 -21.5q-43 0 -79 9t-59 24l-40 -46l-84 72l38 44q-27 34 -42 78t-15 95zM425 267q0 28 -9 54l-161 -187
q19 -6 43 -6q31 0 54.5 10.5t39.5 29.5t24.5 44t8.5 55zM170 267q0 -30 7 -52l160 185q-9 3 -19 5t-21 2q-62 0 -94.5 -40t-32.5 -100z" />
    <glyph glyph-name="questiondown" unicode="&#xbf;" horiz-adv-x="480" 
d="M170 392h159v-249h-87q-29 0 -45.5 -15t-16.5 -45q0 -26 16 -43t44 -17q18 0 30 6.5t18.5 17t9 23t2.5 23.5h162q1 -26 -6 -61.5t-30.5 -68.5t-68 -56t-118.5 -23q-54 0 -95 15t-68.5 41.5t-42 62t-14.5 77.5q0 39 12 70t32.5 53.5t48 36t58.5 18.5v134zM249 601
q41 0 69 -28t28 -69t-28 -69t-69 -28t-69 28t-28 69t28 69t69 28z" />
    <glyph glyph-name="exclamdown" unicode="&#xa1;" horiz-adv-x="252" 
d="M207 -106h-162v497h162v-497zM125 600q20 0 38 -7.5t31.5 -21t21 -31t7.5 -37.5q0 -41 -28.5 -69t-69.5 -28q-40 0 -68 28t-28 69q0 20 7.5 37.5t20.5 31t30.5 21t37.5 7.5z" />
    <glyph glyph-name="florin" unicode="&#x192;" horiz-adv-x="360" 
d="M257 444h59v-135h-83l-85 -484h-158l85 484h-46v135h70l14 79q16 91 58 132t127 41q12 0 24 -1t20 -3v-131h-20q-29 0 -38.5 -12t-13.5 -34z" />
    <glyph glyph-name="guillemotleft" unicode="&#xab;" horiz-adv-x="421" 
d="M91 94l-79 174l79 175h135l-80 -175l80 -174h-135zM274 94l-79 174l79 175h135l-80 -175l80 -174h-135z" />
    <glyph glyph-name="guillemotright" unicode="&#xbb;" horiz-adv-x="421" 
d="M147 443l79 -175l-79 -174h-135l80 174l-80 175h135zM330 443l79 -175l-79 -174h-135l80 174l-80 175h135z" />
    <glyph glyph-name="ellipsis" unicode="&#x2026;" horiz-adv-x="704" 
d="M591 -12q-42 0 -70 28.5t-28 70.5t27.5 70t70.5 28t70.5 -28t27.5 -70t-28 -70.5t-70 -28.5zM353 -12q-42 0 -70 28.5t-28 70.5t27.5 70t70.5 28t70.5 -28t27.5 -70t-28 -70.5t-70 -28.5zM113 -12q-42 0 -70 28.5t-28 70.5t27.5 70t70.5 28t70.5 -28t27.5 -70t-28 -70.5
t-70 -28.5z" />
    <glyph glyph-name="uni00A0" unicode="&#xa0;" horiz-adv-x="150" 
 />
    <glyph glyph-name="Agrave" unicode="&#xc0;" horiz-adv-x="658" 
d="M321 853l72 -132h-151l-78 132h157zM431 165h-218l-57 -165h-164l242 692h176l256 -692h-177zM261 305h122l-61 175z" />
    <glyph glyph-name="Atilde" unicode="&#xc3;" horiz-adv-x="658" 
d="M383 723q-18 0 -32 4.5t-25.5 9.5t-21.5 9.5t-19 4.5q-25 0 -25 -30h-113q-2 31 5.5 58t23 46t38 30t50.5 11q20 0 34 -4.5t24.5 -9.5t19.5 -9.5t19 -4.5q23 0 23 30h113q4 -67 -27.5 -106t-86.5 -39zM431 165h-218l-57 -165h-164l242 692h176l256 -692h-177zM261 305
h122l-61 175z" />
    <glyph glyph-name="Otilde" unicode="&#xd5;" horiz-adv-x="766" 
d="M443 723q-18 0 -32 4.5t-25.5 9.5t-21.5 9.5t-19 4.5q-25 0 -25 -30h-113q-2 31 5.5 58t23 46t38 30t50.5 11q20 0 34 -4.5t24.5 -9.5t19.5 -9.5t19 -4.5q23 0 23 30h113q4 -67 -27.5 -106t-86.5 -39zM20 345q0 75 26 141t73.5 114.5t113.5 76.5t146 28q85 0 153 -27.5
t115.5 -75.5t73 -113t25.5 -141t-25.5 -142t-72.5 -114.5t-114 -76.5t-150 -28q-85 0 -152.5 27.5t-114.5 75.5t-72 113.5t-25 141.5zM195 346q0 -43 13 -80t37.5 -64.5t59.5 -43t78 -15.5q46 0 81 16t59 43.5t36 64.5t12 79t-13 79t-37 64.5t-59 43.5t-80 16q-46 0 -81 -16
t-58.5 -43.5t-35.5 -64.5t-12 -79z" />
    <glyph glyph-name="OE" unicode="&#x152;" horiz-adv-x="741" 
d="M380 536q-85 1 -135.5 -45.5t-50.5 -143.5q0 -48 13.5 -84t38 -60t59 -35.5t75.5 -11.5v380zM708 692v-156h-161v-107h156v-154h-156v-119h164v-156h-322q-87 0 -155.5 24.5t-116 69.5t-72.5 109.5t-25 144.5q0 79 25.5 142.5t73.5 108.5t116.5 69t153.5 24h319z" />
    <glyph glyph-name="oe" unicode="&#x153;" horiz-adv-x="956" 
d="M176 267q0 -28 9 -52t25 -41.5t38.5 -27.5t49.5 -10q28 0 50.5 10t38.5 27.5t24 41.5t8 52t-9 52t-25 42t-38.5 28t-49.5 10q-29 0 -51 -10t-38 -28t-24 -42t-8 -52zM681 410q-42 0 -64.5 -25t-26.5 -57h186q-3 33 -27.5 57.5t-67.5 24.5zM693 -9q-62 0 -112 20t-87 58
q-37 -37 -86.5 -57.5t-110.5 -20.5q-65 0 -116.5 21t-88.5 58t-56.5 87.5t-19.5 108.5t20.5 109t58 88.5t88.5 59t113 21.5q63 0 114 -21.5t87 -58.5q35 37 81 58.5t103 21.5q61 0 109.5 -19t82.5 -54.5t52 -84.5t18 -109q0 -11 -0.5 -29.5t-1.5 -32.5h-355q3 -32 30 -57
t78 -25q42 0 68 20t40 43l123 -72q-11 -23 -30 -47t-47.5 -43t-67 -31t-87.5 -12z" />
    <glyph glyph-name="endash" unicode="&#x2013;" horiz-adv-x="615" 
d="M28 218v132h559v-132h-559z" />
    <glyph glyph-name="emdash" unicode="&#x2014;" horiz-adv-x="960" 
d="M28 218v132h904v-132h-904z" />
    <glyph glyph-name="quotedblleft" unicode="&#x201c;" horiz-adv-x="438" 
d="M364 583q25 -9 44 -30t19 -57q0 -40 -26 -68t-71 -28q-44 0 -70 27t-26 69q0 21 5.5 40t16.5 42l55 114h108zM144 583q25 -9 44 -30t19 -57q0 -40 -26 -68t-71 -28q-44 0 -70 27t-26 69q0 21 5.5 40t16.5 42l55 114h108z" />
    <glyph glyph-name="quotedblright" unicode="&#x201d;" horiz-adv-x="438" 
d="M295 517q-25 9 -44 30t-19 57q0 40 26 68t71 28q44 0 70 -27t26 -69q0 -21 -5.5 -40t-16.5 -42l-55 -114h-108zM75 517q-25 9 -44 30t-19 57q0 40 26 68t71 28q44 0 70 -27t26 -69q0 -21 -5.5 -40t-16.5 -42l-55 -114h-108z" />
    <glyph glyph-name="quoteleft" unicode="&#x2018;" horiz-adv-x="219" 
d="M144 583q25 -9 44 -30t19 -57q0 -40 -26 -68t-71 -28q-44 0 -70 27t-26 69q0 21 5.5 40t16.5 42l55 114h108z" />
    <glyph glyph-name="quoteright" unicode="&#x2019;" horiz-adv-x="219" 
d="M75 517q-25 9 -44 30t-19 57q0 40 26 68t71 28q44 0 70 -27t26 -69q0 -21 -5.5 -40t-16.5 -42l-55 -114h-108z" />
    <glyph glyph-name="divide" unicode="&#xf7;" horiz-adv-x="475" 
d="M238 70q-36 0 -61.5 25.5t-25.5 61.5t25 61t62 25t61.5 -25t24.5 -61t-25 -61.5t-61 -25.5zM238 429q-36 0 -61.5 25.5t-25.5 61.5t25 61t62 25t61.5 -25t24.5 -61t-25 -61.5t-61 -25.5zM30 404h415v-134h-415v134z" />
    <glyph glyph-name="ydieresis" unicode="&#xff;" horiz-adv-x="539" 
d="M123 -175l73 204l-196 506h177l101 -287l100 287h164l-264 -710h-155zM180 562q-35 0 -59 24t-24 59t24 58.5t59 23.5q38 0 62 -23.5t24 -58.5t-25 -59t-61 -24zM373 562q-35 0 -59 24t-24 59t24 58.5t59 23.5q38 0 62 -23.5t24 -58.5t-25 -59t-61 -24z" />
    <glyph glyph-name="Ydieresis" unicode="&#x178;" horiz-adv-x="530" 
d="M165 712q-35 0 -59 24t-24 59t24 58.5t59 23.5q38 0 62 -23.5t24 -58.5t-25 -59t-61 -24zM370 712q-35 0 -59 24t-24 59t24 58.5t59 23.5q38 0 62 -23.5t24 -58.5t-25 -59t-61 -24zM-12 692h185l96 -189l97 189h176l-196 -349v-343h-166v340z" />
    <glyph glyph-name="fraction" unicode="&#x2044;" horiz-adv-x="653" 
d="M127 0h-124l513 692h126z" />
    <glyph glyph-name="Euro" unicode="&#x20ac;" horiz-adv-x="658" 
d="M86 489q18 48 49 87t73 67.5t94 44t113 15.5q79 0 134.5 -22t96.5 -57l-98 -122q-19 19 -53.5 35t-82.5 16q-45 0 -83 -16t-58 -48h170v-117h-206q-1 -7 -1 -13v-13v-21h207v-117h-169q22 -35 60 -51t86 -16q42 0 75 16t55 34l98 -112q-43 -42 -99.5 -65.5t-128.5 -23.5
q-65 0 -119 16t-96.5 44.5t-72.5 68.5t-48 89h-62v117h40v20v13.5t1 13.5h-41v117h66z" />
    <glyph glyph-name="guilsinglleft" unicode="&#x2039;" horiz-adv-x="238" 
d="M91 94l-79 174l79 175h135l-80 -175l80 -174h-135z" />
    <glyph glyph-name="guilsinglright" unicode="&#x203a;" horiz-adv-x="238" 
d="M147 443l79 -175l-79 -174h-135l80 174l-80 175h135z" />
    <glyph glyph-name="f_i" unicode="&#xfb01;" horiz-adv-x="522" 
d="M221 535h62v-135h-62v-400h-161v400h-47v135h47v18q0 40 9 73.5t30 56.5t56 36t86 13h18t24 -1v-133h-18q-27 -1 -35.5 -15.5t-8.5 -32.5v-15zM490 0h-161v535h161v-535zM407 556q-19 0 -35.5 7t-29 19.5t-19.5 29t-7 35.5t7 36t19.5 29.5t29 19.5t35.5 7t36 -7
t29.5 -19.5t19.5 -29.5t7 -36t-7 -35.5t-19.5 -29t-29.5 -19.5t-36 -7z" />
    <glyph glyph-name="f_l" unicode="&#xfb02;" horiz-adv-x="522" 
d="M221 535h62v-135h-62v-400h-161v400h-47v135h47v18q0 40 9 73.5t30 56.5t56 36t86 13h18t24 -1v-133h-18q-27 -1 -35.5 -15.5t-8.5 -32.5v-15zM490 0h-161v731h161v-731z" />
    <glyph glyph-name="daggerdbl" unicode="&#x2021;" horiz-adv-x="423" 
d="M130 293v115h-107v159h107v125h163v-125h107v-159h-107v-115h107v-159h-107v-134h-163v134h-107v159h107z" />
    <glyph glyph-name="periodcentered" unicode="&#xb7;" horiz-adv-x="246" 
d="M123 230q-42 0 -70 28.5t-28 70.5t27.5 70t70.5 28t70.5 -28t27.5 -70t-28 -70.5t-70 -28.5z" />
    <glyph glyph-name="quotesinglbase" unicode="&#x201a;" horiz-adv-x="220" 
d="M76 2q-25 9 -44 30t-19 57q0 40 26 68t71 28q44 0 70 -27t26 -69q0 -21 -5.5 -40t-16.5 -42l-55 -114h-108z" />
    <glyph glyph-name="quotedblbase" unicode="&#x201e;" horiz-adv-x="439" 
d="M296 2q-25 9 -44 30t-19 57q0 40 26 68t71 28q44 0 70 -27t26 -69q0 -21 -5.5 -40t-16.5 -42l-55 -114h-108zM76 2q-25 9 -44 30t-19 57q0 40 26 68t71 28q44 0 70 -27t26 -69q0 -21 -5.5 -40t-16.5 -42l-55 -114h-108z" />
    <glyph glyph-name="perthousand" unicode="&#x2030;" horiz-adv-x="1184" 
d="M940 167q0 -25 14.5 -41.5t39.5 -16.5q29 0 42 17t13 41q0 25 -14.5 41t-40.5 16q-28 0 -41 -17t-13 -40zM818 166q0 37 12.5 68.5t35.5 55t55 36.5t71 13q41 0 74 -13t56.5 -36.5t36 -55t12.5 -68.5t-12.5 -68.5t-36 -54.5t-56 -36t-72.5 -13t-72.5 13t-55.5 36
t-35.5 54.5t-12.5 68.5zM560 167q0 -25 14.5 -41.5t39.5 -16.5q29 0 42 17t13 41q0 25 -14.5 41t-40.5 16q-28 0 -41 -17t-13 -40zM438 166q0 37 12.5 68.5t35.5 55t55 36.5t71 13q41 0 74 -13t56.5 -36.5t36 -55t12.5 -68.5t-12.5 -68.5t-36 -54.5t-56 -36t-72.5 -13
t-72.5 13t-55.5 36t-35.5 54.5t-12.5 68.5zM220 0h-136l504 692h136zM135 527q0 -25 14.5 -41.5t39.5 -16.5q29 0 42 17t13 41q0 25 -14.5 41t-40.5 16q-28 0 -41 -17t-13 -40zM13 526q0 37 12.5 68.5t35.5 55t55 36.5t71 13q41 0 74 -13t56.5 -36.5t36 -55t12.5 -68.5
t-12.5 -68.5t-36 -54.5t-56 -36t-72.5 -13t-72.5 13t-55.5 36t-35.5 54.5t-12.5 68.5z" />
    <glyph glyph-name="Acircumflex" unicode="&#xc2;" horiz-adv-x="658" 
d="M406 853l99 -132h-144l-39 44l-39 -44h-144l99 132h168zM431 165h-218l-57 -165h-164l242 692h176l256 -692h-177zM261 305h122l-61 175z" />
    <glyph glyph-name="Ecircumflex" unicode="&#xca;" horiz-adv-x="401" 
d="M288 853l99 -132h-144l-39 44l-39 -44h-144l99 132h168zM40 0v692h328v-156h-161v-107h156v-154h-156v-119h164v-156h-331z" />
    <glyph glyph-name="Aacute" unicode="&#xc1;" horiz-adv-x="658" 
d="M479 853l-78 -132h-153l72 132h159zM431 165h-218l-57 -165h-164l242 692h176l256 -692h-177zM261 305h122l-61 175z" />
    <glyph glyph-name="Edieresis" unicode="&#xcb;" horiz-adv-x="401" 
d="M104 712q-35 0 -59 24t-24 59t24 58.5t59 23.5q38 0 62 -23.5t24 -58.5t-25 -59t-61 -24zM309 712q-35 0 -59 24t-24 59t24 58.5t59 23.5q38 0 62 -23.5t24 -58.5t-25 -59t-61 -24zM40 0v692h328v-156h-161v-107h156v-154h-156v-119h164v-156h-331z" />
    <glyph glyph-name="Egrave" unicode="&#xc8;" horiz-adv-x="401" 
d="M220 853l72 -132h-151l-78 132h157zM40 0v692h328v-156h-161v-107h156v-154h-156v-119h164v-156h-331z" />
    <glyph glyph-name="Iacute" unicode="&#xcd;" horiz-adv-x="247" 
d="M278 853l-78 -132h-153l72 132h159zM207 0h-167v692h167v-692z" />
    <glyph glyph-name="Icircumflex" unicode="&#xce;" horiz-adv-x="247" 
d="M207 853l99 -132h-144l-39 44l-39 -44h-144l99 132h168zM207 0h-167v692h167v-692z" />
    <glyph glyph-name="Idieresis" unicode="&#xcf;" horiz-adv-x="247" 
d="M20 712q-35 0 -59 24t-24 59t24 58.5t59 23.5q38 0 62 -23.5t24 -58.5t-25 -59t-61 -24zM225 712q-35 0 -59 24t-24 59t24 58.5t59 23.5q38 0 62 -23.5t24 -58.5t-25 -59t-61 -24zM207 0h-167v692h167v-692z" />
    <glyph glyph-name="Igrave" unicode="&#xcc;" horiz-adv-x="247" 
d="M125 853l72 -132h-151l-78 132h157zM207 0h-167v692h167v-692z" />
    <glyph glyph-name="Oacute" unicode="&#xd3;" horiz-adv-x="766" 
d="M530 853l-78 -132h-153l72 132h159zM20 345q0 75 26 141t73.5 114.5t113.5 76.5t146 28q85 0 153 -27.5t115.5 -75.5t73 -113t25.5 -141t-25.5 -142t-72.5 -114.5t-114 -76.5t-150 -28q-85 0 -152.5 27.5t-114.5 75.5t-72 113.5t-25 141.5zM195 346q0 -43 13 -80
t37.5 -64.5t59.5 -43t78 -15.5q46 0 81 16t59 43.5t36 64.5t12 79t-13 79t-37 64.5t-59 43.5t-80 16q-46 0 -81 -16t-58.5 -43.5t-35.5 -64.5t-12 -79z" />
    <glyph glyph-name="Ocircumflex" unicode="&#xd4;" horiz-adv-x="766" 
d="M467 853l99 -132h-144l-39 44l-39 -44h-144l99 132h168zM20 345q0 75 26 141t73.5 114.5t113.5 76.5t146 28q85 0 153 -27.5t115.5 -75.5t73 -113t25.5 -141t-25.5 -142t-72.5 -114.5t-114 -76.5t-150 -28q-85 0 -152.5 27.5t-114.5 75.5t-72 113.5t-25 141.5zM195 346
q0 -43 13 -80t37.5 -64.5t59.5 -43t78 -15.5q46 0 81 16t59 43.5t36 64.5t12 79t-13 79t-37 64.5t-59 43.5t-80 16q-46 0 -81 -16t-58.5 -43.5t-35.5 -64.5t-12 -79z" />
    <glyph glyph-name="Ograve" unicode="&#xd2;" horiz-adv-x="766" 
d="M390 853l72 -132h-151l-78 132h157zM20 345q0 75 26 141t73.5 114.5t113.5 76.5t146 28q85 0 153 -27.5t115.5 -75.5t73 -113t25.5 -141t-25.5 -142t-72.5 -114.5t-114 -76.5t-150 -28q-85 0 -152.5 27.5t-114.5 75.5t-72 113.5t-25 141.5zM195 346q0 -43 13 -80
t37.5 -64.5t59.5 -43t78 -15.5q46 0 81 16t59 43.5t36 64.5t12 79t-13 79t-37 64.5t-59 43.5t-80 16q-46 0 -81 -16t-58.5 -43.5t-35.5 -64.5t-12 -79z" />
    <glyph glyph-name="Uacute" unicode="&#xda;" horiz-adv-x="644" 
d="M475 853l-78 -132h-153l72 132h159zM321 -13q-73 0 -126.5 21t-88.5 59t-52 91t-17 118v416h167v-416q0 -59 28.5 -95.5t90.5 -36.5q60 0 88.5 37t28.5 96v415h167v-415q0 -63 -18 -116t-54 -91.5t-89.5 -60.5t-124.5 -22z" />
    <glyph glyph-name="Ucircumflex" unicode="&#xdb;" horiz-adv-x="644" 
d="M407 853l99 -132h-144l-39 44l-39 -44h-144l99 132h168zM321 -13q-73 0 -126.5 21t-88.5 59t-52 91t-17 118v416h167v-416q0 -59 28.5 -95.5t90.5 -36.5q60 0 88.5 37t28.5 96v415h167v-415q0 -63 -18 -116t-54 -91.5t-89.5 -60.5t-124.5 -22z" />
    <glyph glyph-name="Ugrave" unicode="&#xd9;" horiz-adv-x="644" 
d="M332 853l72 -132h-151l-78 132h157zM321 -13q-73 0 -126.5 21t-88.5 59t-52 91t-17 118v416h167v-416q0 -59 28.5 -95.5t90.5 -36.5q60 0 88.5 37t28.5 96v415h167v-415q0 -63 -18 -116t-54 -91.5t-89.5 -60.5t-124.5 -22z" />
    <glyph glyph-name="dotlessi" unicode="&#x131;" horiz-adv-x="225" 
d="M193 0h-161v535h161v-535z" />
    <glyph glyph-name="circumflex" unicode="&#x2c6;" horiz-adv-x="400" 
d="M280 710l93 -143h-138l-35 50l-35 -50h-138l93 143h160z" />
    <glyph glyph-name="tilde" unicode="&#x2dc;" horiz-adv-x="400" 
d="M259 566q-18 0 -31.5 4.5t-24.5 9.5t-20.5 9.5t-18.5 4.5q-23 0 -23 -30h-112q-2 31 5.5 58t22.5 46t37 30t50 11q20 0 33.5 -4.5t23.5 -9.5t18.5 -9.5t18.5 -4.5q21 0 21 30h112q4 -67 -26.5 -106t-85.5 -39z" />
    <glyph glyph-name="macron" unicode="&#xaf;" horiz-adv-x="400" 
d="M75 692h250v-116h-250v116z" />
    <glyph glyph-name="breve" unicode="&#x2d8;" horiz-adv-x="400" 
d="M201 560q-40 0 -69 13t-47.5 34t-27 48t-8.5 55h117q0 -21 9.5 -33t26.5 -12t26.5 12t9.5 33h116q0 -28 -8.5 -55t-27.5 -48t-48 -34t-69 -13z" />
    <glyph glyph-name="dotaccent" unicode="&#x2d9;" horiz-adv-x="400" 
d="M201 560q-36 0 -61.5 24.5t-25.5 61.5q0 36 24 60.5t62 24.5t63.5 -24t25.5 -61t-25 -61.5t-63 -24.5z" />
    <glyph glyph-name="ring" unicode="&#x2da;" horiz-adv-x="400" 
d="M86 666q0 24 8.5 44t23.5 34.5t35.5 23t44.5 8.5q53 0 84 -31t31 -77q0 -48 -31 -79t-83 -31q-50 0 -81.5 31t-31.5 77zM158 668q0 -20 12 -32t30 -12q17 0 29 12t12 32q0 18 -11.5 30t-29.5 12q-19 0 -30.5 -12t-11.5 -30z" />
    <glyph glyph-name="cedilla" unicode="&#xb8;" horiz-adv-x="400" 
d="M125 -264v87h22q17 1 26.5 8.5t9.5 24.5q0 16 -9.5 24t-26.5 8h-22v126h88v-48q42 -14 57.5 -44t15.5 -66q0 -57 -36.5 -88.5t-104.5 -31.5h-20z" />
    <glyph glyph-name="hungarumlaut" unicode="&#x2dd;" horiz-adv-x="400" 
d="M212 708l-64 -140h-145l57 140h152zM398 708l-69 -140h-143l62 140h150z" />
    <glyph glyph-name="ogonek" unicode="&#x2db;" horiz-adv-x="400" 
d="M270 0q-13 -5 -21 -13t-8 -21q0 -15 11.5 -23t28.5 -8v-110q-50 -3 -86 3t-59 19.5t-34 33t-11 43.5q0 25 9 43.5t21 32.5h149z" />
    <glyph glyph-name="caron" unicode="&#x2c7;" horiz-adv-x="400" 
d="M120 567l-93 143h138l35 -50l35 50h138l-93 -143h-160z" />
    <glyph glyph-name="brokenbar" unicode="&#xa6;" horiz-adv-x="253" 
d="M193 -175h-133v431h133v-431zM193 311h-133v420h133v-420z" />
    <glyph glyph-name="twosuperior" unicode="&#xb2;" horiz-adv-x="335" 
d="M17 335v84l127 89q24 17 34.5 28.5t10.5 28.5q0 12 -7.5 21t-21.5 9q-19 0 -25 -11t-6 -24h-112q-1 22 5.5 47t23 46t44.5 35t70 14q71 0 111 -34.5t40 -94.5q0 -38 -18 -62t-48 -45l-44 -31h114v-100h-298z" />
    <glyph glyph-name="threesuperior" unicode="&#xb3;" horiz-adv-x="326" 
d="M96 555l61 42h-121v95h251v-89l-59 -42q13 -3 27.5 -10t26.5 -20.5t19.5 -32.5t7.5 -46t-9.5 -50t-28.5 -40t-47.5 -27t-67.5 -10q-71 0 -107 34.5t-37 94.5h115q0 -34 32 -34q15 0 23 9t8 23q0 31 -35 31h-59v72z" />
    <glyph glyph-name="onesuperior" unicode="&#xb9;" horiz-adv-x="199" 
d="M169 335h-120v257l-39 -14v91l51 23h108v-357z" />
    <glyph glyph-name="onequarter" unicode="&#xbc;" horiz-adv-x="699" 
d="M198 335h-120v257l-39 -14v91l51 23h108v-357zM634 57v-56h-115v56h-169v100l168 205h116v-202h37v-103h-37zM459 160h60v74zM127 0h-124l513 692h126z" />
    <glyph glyph-name="onehalf" unicode="&#xbd;" horiz-adv-x="714" 
d="M198 335h-120v257l-39 -14v91l51 23h108v-357zM388 1v84l127 89q24 17 34.5 28.5t10.5 28.5q0 12 -7.5 21t-21.5 9q-19 0 -25 -11t-6 -24h-112q-1 22 5.5 47t23 46t44.5 35t70 14q71 0 111 -34.5t40 -94.5q0 -38 -18 -62t-48 -45l-44 -31h114v-100h-298zM127 0h-124
l513 692h126z" />
    <glyph glyph-name="threequarters" unicode="&#xbe;" horiz-adv-x="773" 
d="M112 555l61 42h-121v95h251v-89l-59 -42q13 -3 27.5 -10t26.5 -20.5t19.5 -32.5t7.5 -46t-9.5 -50t-28.5 -40t-47.5 -27t-67.5 -10q-71 0 -107 34.5t-37 94.5h115q0 -34 32 -34q15 0 23 9t8 23q0 31 -35 31h-59v72zM708 57v-56h-115v56h-169v100l168 205h116v-202h37
v-103h-37zM533 160h60v74zM204 0h-124l513 692h126z" />
    <glyph glyph-name="Eth" unicode="&#xd0;" horiz-adv-x="604" 
d="M215 692q86 0 154.5 -23t116 -67.5t73 -108.5t25.5 -145t-25.5 -145.5t-73 -109.5t-116 -69t-154.5 -24h-158v271h-50v158h50v263h158zM224 429h83v-158h-83v-124q41 0 75.5 12t59 37t38 63t13.5 88q0 100 -50.5 149.5t-135.5 48.5v-116z" />
    <glyph glyph-name="multiply" unicode="&#xd7;" horiz-adv-x="433" 
d="M108 538l108 -110l109 109l93 -94l-108 -108l108 -108l-92 -93l-109 108l-109 -109l-93 94l108 108l-108 109z" />
    <glyph glyph-name="Yacute" unicode="&#xdd;" horiz-adv-x="530" 
d="M427 853l-78 -132h-153l72 132h159zM-12 692h185l96 -189l97 189h176l-196 -349v-343h-166v340z" />
    <glyph glyph-name="Thorn" unicode="&#xde;" horiz-adv-x="512" 
d="M496 353q0 -50 -15.5 -89.5t-44 -67t-68.5 -42.5t-90 -15h-72v-139h-166v692h166v-133h72q109 0 163.5 -53.5t54.5 -152.5zM206 415v-128h58q29 0 44.5 18t15.5 47t-16 46t-44 17h-58z" />
    <glyph glyph-name="eth" unicode="&#xf0;" horiz-adv-x="595" 
d="M327 705l99 25l28 -110l-46 -12l56 -67q25 -31 46.5 -61.5t36.5 -62.5t23.5 -66.5t8.5 -73.5q0 -60 -19 -112.5t-55 -91t-87 -60.5t-115 -22t-116.5 20.5t-90.5 56.5t-59 86.5t-21 110.5q0 64 22 113.5t59 83t84.5 50.5t98.5 18l-30 39l-111 -28l-29 109l65 16l-50 65
h181zM176 266q0 -28 9 -52t25 -41t38.5 -27t49.5 -10q57 0 89 37t32 93q0 28 -9 52t-25 41.5t-38.5 27.5t-49.5 10q-57 0 -89 -37t-32 -94z" />
    <glyph glyph-name="yacute" unicode="&#xfd;" horiz-adv-x="539" 
d="M123 -175l73 204l-196 506h177l101 -287l100 287h164l-264 -710h-155zM426 708l-82 -140h-150l75 140h157z" />
    <glyph glyph-name="thorn" unicode="&#xfe;" 
d="M188 267q0 -58 34 -95.5t91 -37.5q60 0 92 38t32 95q0 58 -33.5 96t-91.5 38q-60 0 -92 -38t-32 -96zM193 -177h-161v907h161v-226q20 14 55 27t85 13q63 0 112.5 -20.5t83 -57t51.5 -87t18 -110.5q0 -58 -19 -108.5t-54.5 -88t-87 -59.5t-116.5 -22q-40 0 -74 10t-54 23
v-201z" />
    <glyph glyph-name="Amacron" unicode="&#x100;" horiz-adv-x="658" 
d="M189 838h266v-116h-266v116zM431 165h-218l-57 -165h-164l242 692h176l256 -692h-177zM261 305h122l-61 175z" />
    <glyph glyph-name="amacron" unicode="&#x101;" horiz-adv-x="476" 
d="M17 177q0 40 12.5 72.5t36.5 55.5t57.5 35.5t75.5 12.5q33 0 55 -6t33 -13v22q0 23 -11 40.5t-41 17.5q-29 0 -39 -15t-10 -31h-149q2 81 50 127t147 46q63 0 104 -16t65 -43.5t33.5 -66t9.5 -83.5v-332h-132v29q-19 -17 -45.5 -26t-64.5 -9q-39 0 -73 12.5t-59.5 36
t-40 57.5t-14.5 77zM168 181q0 -26 17.5 -43t43.5 -17t43.5 17t17.5 43q0 27 -18 43t-44 16t-43 -16.5t-17 -42.5zM114 692h250v-116h-250v116z" />
    <glyph glyph-name="Abreve" unicode="&#x102;" horiz-adv-x="658" 
d="M322 718q-40 0 -69.5 11.5t-48.5 31t-28 45t-9 52.5h120q0 -15 9.5 -24.5t26.5 -9.5t26.5 9.5t9.5 24.5h119q0 -27 -9 -52.5t-28.5 -45t-49 -31t-69.5 -11.5zM431 165h-218l-57 -165h-164l242 692h176l256 -692h-177zM261 305h122l-61 175z" />
    <glyph glyph-name="abreve" unicode="&#x103;" horiz-adv-x="476" 
d="M17 177q0 40 12.5 72.5t36.5 55.5t57.5 35.5t75.5 12.5q33 0 55 -6t33 -13v22q0 23 -11 40.5t-41 17.5q-29 0 -39 -15t-10 -31h-149q2 81 50 127t147 46q63 0 104 -16t65 -43.5t33.5 -66t9.5 -83.5v-332h-132v29q-19 -17 -45.5 -26t-64.5 -9q-39 0 -73 12.5t-59.5 36
t-40 57.5t-14.5 77zM168 181q0 -26 17.5 -43t43.5 -17t43.5 17t17.5 43q0 27 -18 43t-44 16t-43 -16.5t-17 -42.5zM237 560q-40 0 -69 13t-47.5 34t-27 48t-8.5 55h117q0 -21 9.5 -33t26.5 -12t26.5 12t9.5 33h116q0 -28 -8.5 -55t-27.5 -48t-48 -34t-69 -13z" />
    <glyph glyph-name="Aogonek" unicode="&#x104;" horiz-adv-x="658" 
d="M431 165h-218l-57 -165h-164l242 692h176l256 -692q-23 -2 -31.5 -12.5t-8.5 -21.5q0 -15 11.5 -23t28.5 -8v-110q-50 -3 -86 3.5t-59 20t-34 32.5t-11 42q0 24 13 44.5t37 32.5h-37zM261 305h122l-61 175z" />
    <glyph glyph-name="aogonek" unicode="&#x105;" horiz-adv-x="476" 
d="M17 177q0 40 12.5 72.5t36.5 55.5t57.5 35.5t75.5 12.5q33 0 55 -6t33 -13v22q0 23 -11 40.5t-41 17.5q-29 0 -39 -15t-10 -31h-149q2 81 50 127t147 46q63 0 104 -16t65 -43.5t33.5 -66t9.5 -83.5v-332q-23 -2 -31.5 -12.5t-8.5 -21.5q0 -15 11.5 -23t28.5 -8v-110
q-50 -3 -86 3.5t-59 20t-34 32.5t-11 42q0 26 14.5 47.5t43.5 33.5v25q-19 -17 -45.5 -26t-64.5 -9q-39 0 -73 12.5t-59.5 36t-40 57.5t-14.5 77zM168 181q0 -26 17.5 -43t43.5 -17t43.5 17t17.5 43q0 27 -18 43t-44 16t-43 -16.5t-17 -42.5z" />
    <glyph glyph-name="Cacute" unicode="&#x106;" horiz-adv-x="631" 
d="M533 853l-78 -132h-153l72 132h159zM618 77q-45 -42 -101 -66t-129 -24q-86 0 -154.5 27.5t-116 75.5t-72.5 113.5t-25 141.5q0 75 26 140.5t73.5 114.5t115 77t150.5 28q79 0 135.5 -23t98.5 -59l-99 -126q-19 17 -52.5 34.5t-80.5 17.5q-46 0 -82 -16t-60.5 -43.5
t-37 -64.5t-12.5 -79q0 -43 14 -80t39 -64.5t60.5 -43t79.5 -15.5t76.5 16t55.5 36z" />
    <glyph glyph-name="cacute" unicode="&#x107;" horiz-adv-x="475" 
d="M296 136q33 0 54.5 12t34.5 23l89 -114q-12 -11 -29.5 -23t-40 -21.5t-50 -15.5t-59.5 -6q-65 0 -116.5 21.5t-87.5 58.5t-55.5 87t-19.5 108t20.5 109t57.5 88.5t88 59t111 21.5q34 0 62 -6t50.5 -15.5t39.5 -21.5t29 -23l-89 -114q-13 11 -35 23t-55 12q-29 0 -51 -10
t-37 -28t-23 -42t-8 -52q0 -31 10 -55.5t26.5 -41t38 -25.5t45.5 -9zM444 708l-82 -140h-150l75 140h157z" />
    <glyph glyph-name="Ccircumflex" unicode="&#x108;" horiz-adv-x="631" 
d="M449 853l99 -132h-144l-39 44l-39 -44h-144l99 132h168zM618 77q-45 -42 -101 -66t-129 -24q-86 0 -154.5 27.5t-116 75.5t-72.5 113.5t-25 141.5q0 75 26 140.5t73.5 114.5t115 77t150.5 28q79 0 135.5 -23t98.5 -59l-99 -126q-19 17 -52.5 34.5t-80.5 17.5
q-46 0 -82 -16t-60.5 -43.5t-37 -64.5t-12.5 -79q0 -43 14 -80t39 -64.5t60.5 -43t79.5 -15.5t76.5 16t55.5 36z" />
    <glyph glyph-name="ccircumflex" unicode="&#x109;" horiz-adv-x="475" 
d="M296 136q33 0 54.5 12t34.5 23l89 -114q-12 -11 -29.5 -23t-40 -21.5t-50 -15.5t-59.5 -6q-65 0 -116.5 21.5t-87.5 58.5t-55.5 87t-19.5 108t20.5 109t57.5 88.5t88 59t111 21.5q34 0 62 -6t50.5 -15.5t39.5 -21.5t29 -23l-89 -114q-13 11 -35 23t-55 12q-29 0 -51 -10
t-37 -28t-23 -42t-8 -52q0 -31 10 -55.5t26.5 -41t38 -25.5t45.5 -9zM352 710l93 -143h-138l-35 50l-35 -50h-138l93 143h160z" />
    <glyph glyph-name="Cdotaccent" unicode="&#x10a;" horiz-adv-x="631" 
d="M369 722q-18 0 -33.5 6.5t-27.5 18.5t-19 27.5t-7 33.5q0 35 24.5 60t61.5 25q38 0 63.5 -24.5t25.5 -60.5t-25 -61t-63 -25zM618 77q-45 -42 -101 -66t-129 -24q-86 0 -154.5 27.5t-116 75.5t-72.5 113.5t-25 141.5q0 75 26 140.5t73.5 114.5t115 77t150.5 28
q79 0 135.5 -23t98.5 -59l-99 -126q-19 17 -52.5 34.5t-80.5 17.5q-46 0 -82 -16t-60.5 -43.5t-37 -64.5t-12.5 -79q0 -43 14 -80t39 -64.5t60.5 -43t79.5 -15.5t76.5 16t55.5 36z" />
    <glyph glyph-name="cdotaccent" unicode="&#x10b;" horiz-adv-x="475" 
d="M296 136q33 0 54.5 12t34.5 23l89 -114q-12 -11 -29.5 -23t-40 -21.5t-50 -15.5t-59.5 -6q-65 0 -116.5 21.5t-87.5 58.5t-55.5 87t-19.5 108t20.5 109t57.5 88.5t88 59t111 21.5q34 0 62 -6t50.5 -15.5t39.5 -21.5t29 -23l-89 -114q-13 11 -35 23t-55 12q-29 0 -51 -10
t-37 -28t-23 -42t-8 -52q0 -31 10 -55.5t26.5 -41t38 -25.5t45.5 -9zM276 560q-36 0 -61.5 24.5t-25.5 61.5q0 36 24 60.5t62 24.5t63.5 -24t25.5 -61t-25 -61.5t-63 -24.5z" />
    <glyph glyph-name="Ccaron" unicode="&#x10c;" horiz-adv-x="631" 
d="M289 721l-99 132h144l39 -44l39 44h144l-99 -132h-168zM618 77q-45 -42 -101 -66t-129 -24q-86 0 -154.5 27.5t-116 75.5t-72.5 113.5t-25 141.5q0 75 26 140.5t73.5 114.5t115 77t150.5 28q79 0 135.5 -23t98.5 -59l-99 -126q-19 17 -52.5 34.5t-80.5 17.5
q-46 0 -82 -16t-60.5 -43.5t-37 -64.5t-12.5 -79q0 -43 14 -80t39 -64.5t60.5 -43t79.5 -15.5t76.5 16t55.5 36z" />
    <glyph glyph-name="ccaron" unicode="&#x10d;" horiz-adv-x="475" 
d="M296 136q33 0 54.5 12t34.5 23l89 -114q-12 -11 -29.5 -23t-40 -21.5t-50 -15.5t-59.5 -6q-65 0 -116.5 21.5t-87.5 58.5t-55.5 87t-19.5 108t20.5 109t57.5 88.5t88 59t111 21.5q34 0 62 -6t50.5 -15.5t39.5 -21.5t29 -23l-89 -114q-13 11 -35 23t-55 12q-29 0 -51 -10
t-37 -28t-23 -42t-8 -52q0 -31 10 -55.5t26.5 -41t38 -25.5t45.5 -9zM190 567l-93 143h138l35 -50l35 50h138l-93 -143h-160z" />
    <glyph glyph-name="Dcaron" unicode="&#x10e;" horiz-adv-x="587" 
d="M192 721l-99 132h144l39 -44l39 44h144l-99 -132h-168zM198 692q86 0 154.5 -23t116 -67.5t73 -108.5t25.5 -145t-25.5 -145.5t-73 -109.5t-116 -69t-154.5 -24h-158v692h158zM207 147q41 0 75.5 12t59 37t38 63t13.5 88q0 100 -50.5 149.5t-135.5 48.5v-398z" />
    <glyph glyph-name="dcaron" unicode="&#x10f;" 
d="M434 35q-27 -23 -64.5 -33.5t-76.5 -10.5q-63 0 -114 20.5t-87.5 57t-56 87t-19.5 110.5q0 57 19.5 108t55 88.5t85 59.5t110.5 22q45 0 78 -9t57 -24v220h161v-731h-148v35zM176 268q0 -28 9 -52.5t25.5 -42.5t39.5 -28t51 -10q30 0 53 10.5t39 28.5t24.5 42t8.5 52
t-9 52.5t-25 42.5t-39.5 28.5t-51.5 10.5q-29 0 -52.5 -10.5t-39.5 -28.5t-24.5 -42.5t-8.5 -52.5zM748 731l-13 -163h-125l10 163h128z" />
    <glyph glyph-name="Dcroat" unicode="&#x110;" horiz-adv-x="604" 
d="M215 692q86 0 154.5 -23t116 -67.5t73 -108.5t25.5 -145t-25.5 -145.5t-73 -109.5t-116 -69t-154.5 -24h-158v271h-50v158h50v263h158zM224 429h83v-158h-83v-124q41 0 75.5 12t59 37t38 63t13.5 88q0 100 -50.5 149.5t-135.5 48.5v-116z" />
    <glyph glyph-name="dcroat" unicode="&#x111;" horiz-adv-x="626" 
d="M295 681h126v50h161v-50h43v-110h-43v-571h-148v35q-27 -23 -64.5 -33.5t-76.5 -10.5q-63 0 -114 20.5t-87.5 57t-56 87t-19.5 110.5q0 57 19.5 108t55 88.5t85 59.5t110.5 22q45 0 78 -9t57 -24v60h-126v110zM176 268q0 -28 9 -52.5t25.5 -42.5t39.5 -28t51 -10
q30 0 53 10.5t39 28.5t24.5 42t8.5 52t-9 52.5t-25 42.5t-39.5 28.5t-51.5 10.5q-29 0 -52.5 -10.5t-39.5 -28.5t-24.5 -42.5t-8.5 -52.5z" />
    <glyph glyph-name="Emacron" unicode="&#x112;" horiz-adv-x="401" 
d="M75 838h266v-116h-266v116zM40 0v692h328v-156h-161v-107h156v-154h-156v-119h164v-156h-331z" />
    <glyph glyph-name="emacron" unicode="&#x113;" horiz-adv-x="555" 
d="M183 215q5 -38 33.5 -60t75.5 -22q43 0 69 20t40 43l123 -72q-11 -23 -30 -47t-47.5 -43t-67 -31t-88.5 -12q-61 0 -111.5 19t-87 54t-56.5 86t-20 115q0 60 19 111t54 88.5t83 58.5t107 21q61 0 110 -19t83 -54.5t52 -84.5t18 -109v-27t-2 -35h-357zM279 410
q-42 0 -65.5 -25t-26.5 -57h188q-3 33 -27.5 57.5t-68.5 24.5zM157 692h250v-116h-250v116z" />
    <glyph glyph-name="Ebreve" unicode="&#x114;" horiz-adv-x="401" 
d="M207 718q-40 0 -69.5 11.5t-48.5 31t-28 45t-9 52.5h120q0 -15 9.5 -24.5t26.5 -9.5t26.5 9.5t9.5 24.5h119q0 -27 -9 -52.5t-28.5 -45t-49 -31t-69.5 -11.5zM40 0v692h328v-156h-161v-107h156v-154h-156v-119h164v-156h-331z" />
    <glyph glyph-name="ebreve" unicode="&#x115;" horiz-adv-x="555" 
d="M183 215q5 -38 33.5 -60t75.5 -22q43 0 69 20t40 43l123 -72q-11 -23 -30 -47t-47.5 -43t-67 -31t-88.5 -12q-61 0 -111.5 19t-87 54t-56.5 86t-20 115q0 60 19 111t54 88.5t83 58.5t107 21q61 0 110 -19t83 -54.5t52 -84.5t18 -109v-27t-2 -35h-357zM279 410
q-42 0 -65.5 -25t-26.5 -57h188q-3 33 -27.5 57.5t-68.5 24.5zM280 560q-40 0 -69 13t-47.5 34t-27 48t-8.5 55h117q0 -21 9.5 -33t26.5 -12t26.5 12t9.5 33h116q0 -28 -8.5 -55t-27.5 -48t-48 -34t-69 -13z" />
    <glyph glyph-name="Edotaccent" unicode="&#x116;" horiz-adv-x="401" 
d="M202 722q-18 0 -33.5 6.5t-27.5 18.5t-19 27.5t-7 33.5q0 35 24.5 60t61.5 25q38 0 63.5 -24.5t25.5 -60.5t-25 -61t-63 -25zM40 0v692h328v-156h-161v-107h156v-154h-156v-119h164v-156h-331z" />
    <glyph glyph-name="edotaccent" unicode="&#x117;" horiz-adv-x="555" 
d="M183 215q5 -38 33.5 -60t75.5 -22q43 0 69 20t40 43l123 -72q-11 -23 -30 -47t-47.5 -43t-67 -31t-88.5 -12q-61 0 -111.5 19t-87 54t-56.5 86t-20 115q0 60 19 111t54 88.5t83 58.5t107 21q61 0 110 -19t83 -54.5t52 -84.5t18 -109v-27t-2 -35h-357zM279 410
q-42 0 -65.5 -25t-26.5 -57h188q-3 33 -27.5 57.5t-68.5 24.5zM281 560q-36 0 -61.5 24.5t-25.5 61.5q0 36 24 60.5t62 24.5t63.5 -24t25.5 -61t-25 -61.5t-63 -24.5z" />
    <glyph glyph-name="Eogonek" unicode="&#x118;" horiz-adv-x="401" 
d="M336 0q-21 -2 -29.5 -12.5t-8.5 -21.5q0 -15 11.5 -23t28.5 -8v-110q-50 -3 -86 3.5t-59 20t-34 32.5t-11 42q0 24 13 44.5t37 32.5h-158v692h328v-156h-161v-107h156v-154h-156v-119h164v-156h-35z" />
    <glyph glyph-name="eogonek" unicode="&#x119;" horiz-adv-x="555" 
d="M256 -84q0 20 11.5 40.5t35.5 34.5h-12q-61 0 -111.5 19t-87 54t-56.5 86t-20 115q0 60 19 111t54 88.5t83 58.5t107 21q61 0 110 -19t83 -54.5t52 -84.5t18 -109v-27t-2 -35h-357q5 -38 33.5 -60t75.5 -22q43 0 69 20t40 43l123 -72q-12 -24 -31 -47t-49 -46
q-23 -17 -31.5 -31.5t-8.5 -28.5q0 -20 14 -28t37 -8v-110q-54 -3 -92 3t-62 18.5t-34.5 30.5t-10.5 39zM279 410q-42 0 -65.5 -25t-26.5 -57h188q-3 33 -27.5 57.5t-68.5 24.5z" />
    <glyph glyph-name="Ecaron" unicode="&#x11a;" horiz-adv-x="401" 
d="M123 721l-99 132h144l39 -44l39 44h144l-99 -132h-168zM40 0v692h328v-156h-161v-107h156v-154h-156v-119h164v-156h-331z" />
    <glyph glyph-name="ecaron" unicode="&#x11b;" horiz-adv-x="555" 
d="M183 215q5 -38 33.5 -60t75.5 -22q43 0 69 20t40 43l123 -72q-11 -23 -30 -47t-47.5 -43t-67 -31t-88.5 -12q-61 0 -111.5 19t-87 54t-56.5 86t-20 115q0 60 19 111t54 88.5t83 58.5t107 21q61 0 110 -19t83 -54.5t52 -84.5t18 -109v-27t-2 -35h-357zM279 410
q-42 0 -65.5 -25t-26.5 -57h188q-3 33 -27.5 57.5t-68.5 24.5zM201 567l-93 143h138l35 -50l35 50h138l-93 -143h-160z" />
    <glyph glyph-name="Gcircumflex" unicode="&#x11c;" horiz-adv-x="736" 
d="M464 853l99 -132h-144l-39 44l-39 -44h-144l99 132h168zM699 0h-161v34q-25 -20 -64 -33t-95 -13q-80 0 -146.5 25.5t-113.5 73t-73 113.5t-26 147q0 72 25.5 137t72 114t113 78t148.5 29q57 0 102.5 -11.5t82 -31t63.5 -46t46 -57.5l-132 -95q-11 15 -25.5 30.5
t-34 27.5t-45 19.5t-58.5 7.5q-41 0 -75 -15t-58 -41.5t-37.5 -63.5t-13.5 -82q0 -47 14.5 -85t40.5 -64.5t61.5 -41t76.5 -14.5q58 0 95 18t53 35v50h-103v137h267v-382z" />
    <glyph glyph-name="gcircumflex" unicode="&#x11d;" horiz-adv-x="611" 
d="M430 535h151v-446q0 -75 -21.5 -127t-59.5 -84.5t-92 -47t-118 -14.5q-60 0 -109.5 13.5t-82.5 30.5l48 125q23 -11 61.5 -21t83.5 -10q55 0 92 19.5t38 58.5q-17 -15 -48 -28t-79 -13q-63 0 -114 20t-87.5 56.5t-56.5 87t-20 111.5q0 57 19.5 108t55.5 88.5t86 59.5
t111 22q91 0 142 -43v34zM176 267q0 -28 9 -52.5t25.5 -42.5t39.5 -28t51 -10q30 0 53 10.5t39 28.5t24.5 42t8.5 52t-9 52.5t-25 42.5t-39.5 28.5t-51.5 10.5q-29 0 -52.5 -10.5t-39.5 -28.5t-24.5 -42.5t-8.5 -52.5zM387 710l93 -143h-138l-35 50l-35 -50h-138l93 143h160
z" />
    <glyph glyph-name="Gbreve" unicode="&#x11e;" horiz-adv-x="736" 
d="M378 718q-40 0 -69.5 11.5t-48.5 31t-28 45t-9 52.5h120q0 -15 9.5 -24.5t26.5 -9.5t26.5 9.5t9.5 24.5h119q0 -27 -9 -52.5t-28.5 -45t-49 -31t-69.5 -11.5zM699 0h-161v34q-25 -20 -64 -33t-95 -13q-80 0 -146.5 25.5t-113.5 73t-73 113.5t-26 147q0 72 25.5 137
t72 114t113 78t148.5 29q57 0 102.5 -11.5t82 -31t63.5 -46t46 -57.5l-132 -95q-11 15 -25.5 30.5t-34 27.5t-45 19.5t-58.5 7.5q-41 0 -75 -15t-58 -41.5t-37.5 -63.5t-13.5 -82q0 -47 14.5 -85t40.5 -64.5t61.5 -41t76.5 -14.5q58 0 95 18t53 35v50h-103v137h267v-382z
" />
    <glyph glyph-name="gbreve" unicode="&#x11f;" horiz-adv-x="611" 
d="M430 535h151v-446q0 -75 -21.5 -127t-59.5 -84.5t-92 -47t-118 -14.5q-60 0 -109.5 13.5t-82.5 30.5l48 125q23 -11 61.5 -21t83.5 -10q55 0 92 19.5t38 58.5q-17 -15 -48 -28t-79 -13q-63 0 -114 20t-87.5 56.5t-56.5 87t-20 111.5q0 57 19.5 108t55.5 88.5t86 59.5
t111 22q91 0 142 -43v34zM176 267q0 -28 9 -52.5t25.5 -42.5t39.5 -28t51 -10q30 0 53 10.5t39 28.5t24.5 42t8.5 52t-9 52.5t-25 42.5t-39.5 28.5t-51.5 10.5q-29 0 -52.5 -10.5t-39.5 -28.5t-24.5 -42.5t-8.5 -52.5zM297 560q-40 0 -69 13t-47.5 34t-27 48t-8.5 55h117
q0 -21 9.5 -33t26.5 -12t26.5 12t9.5 33h116q0 -28 -8.5 -55t-27.5 -48t-48 -34t-69 -13z" />
    <glyph glyph-name="Gdotaccent" unicode="&#x120;" horiz-adv-x="736" 
d="M383 722q-18 0 -33.5 6.5t-27.5 18.5t-19 27.5t-7 33.5q0 35 24.5 60t61.5 25q38 0 63.5 -24.5t25.5 -60.5t-25 -61t-63 -25zM699 0h-161v34q-25 -20 -64 -33t-95 -13q-80 0 -146.5 25.5t-113.5 73t-73 113.5t-26 147q0 72 25.5 137t72 114t113 78t148.5 29
q57 0 102.5 -11.5t82 -31t63.5 -46t46 -57.5l-132 -95q-11 15 -25.5 30.5t-34 27.5t-45 19.5t-58.5 7.5q-41 0 -75 -15t-58 -41.5t-37.5 -63.5t-13.5 -82q0 -47 14.5 -85t40.5 -64.5t61.5 -41t76.5 -14.5q58 0 95 18t53 35v50h-103v137h267v-382z" />
    <glyph glyph-name="gdotaccent" unicode="&#x121;" horiz-adv-x="611" 
d="M430 535h151v-446q0 -75 -21.5 -127t-59.5 -84.5t-92 -47t-118 -14.5q-60 0 -109.5 13.5t-82.5 30.5l48 125q23 -11 61.5 -21t83.5 -10q55 0 92 19.5t38 58.5q-17 -15 -48 -28t-79 -13q-63 0 -114 20t-87.5 56.5t-56.5 87t-20 111.5q0 57 19.5 108t55.5 88.5t86 59.5
t111 22q91 0 142 -43v34zM176 267q0 -28 9 -52.5t25.5 -42.5t39.5 -28t51 -10q30 0 53 10.5t39 28.5t24.5 42t8.5 52t-9 52.5t-25 42.5t-39.5 28.5t-51.5 10.5q-29 0 -52.5 -10.5t-39.5 -28.5t-24.5 -42.5t-8.5 -52.5zM292 560q-36 0 -61.5 24.5t-25.5 61.5q0 36 24 60.5
t62 24.5t63.5 -24t25.5 -61t-25 -61.5t-63 -24.5z" />
    <glyph glyph-name="Gcommaaccent" unicode="&#x122;" horiz-adv-x="736" 
d="M699 0h-161v34q-25 -20 -64 -33t-95 -13q-80 0 -146.5 25.5t-113.5 73t-73 113.5t-26 147q0 72 25.5 137t72 114t113 78t148.5 29q57 0 102.5 -11.5t82 -31t63.5 -46t46 -57.5l-132 -95q-11 15 -25.5 30.5t-34 27.5t-45 19.5t-58.5 7.5q-41 0 -75 -15t-58 -41.5
t-37.5 -63.5t-13.5 -82q0 -47 14.5 -85t40.5 -64.5t61.5 -41t76.5 -14.5q58 0 95 18t53 35v50h-103v137h267v-382zM346 -190q-26 7 -43 27.5t-17 52.5t23.5 57.5t65.5 25.5t64 -26t22 -59q0 -23 -6.5 -40t-13.5 -31l-36 -73h-89z" />
    <glyph glyph-name="gcommaaccent" unicode="&#x123;" horiz-adv-x="611" 
d="M430 535h151v-446q0 -75 -21.5 -127t-59.5 -84.5t-92 -47t-118 -14.5q-60 0 -109.5 13.5t-82.5 30.5l48 125q23 -11 61.5 -21t83.5 -10q55 0 92 19.5t38 58.5q-17 -15 -48 -28t-79 -13q-63 0 -114 20t-87.5 56.5t-56.5 87t-20 111.5q0 57 19.5 108t55.5 88.5t86 59.5
t111 22q91 0 142 -43v34zM176 267q0 -28 9 -52.5t25.5 -42.5t39.5 -28t51 -10q30 0 53 10.5t39 28.5t24.5 42t8.5 52t-9 52.5t-25 42.5t-39.5 28.5t-51.5 10.5q-29 0 -52.5 -10.5t-39.5 -28.5t-24.5 -42.5t-8.5 -52.5zM319 724q26 -7 43 -26.5t17 -51.5q0 -16 -6 -31.5
t-17 -27.5t-28 -19t-38 -7t-37 7t-27 19t-16.5 27.5t-5.5 31.5q0 23 6.5 40t13.5 31l36 73h89z" />
    <glyph glyph-name="Hcircumflex" unicode="&#x124;" horiz-adv-x="654" 
d="M409 853l99 -132h-144l-39 44l-39 -44h-144l99 132h168zM614 0h-167v273h-240v-273h-167v692h167v-260h240v260h167v-692z" />
    <glyph glyph-name="hcircumflex" unicode="&#x125;" horiz-adv-x="498" 
d="M327 895l99 -132h-144l-39 44l-39 -44h-144l99 132h168zM307 333q0 29 -14 47t-43 18q-28 0 -42.5 -17.5t-14.5 -46.5v-334h-161v731h161v-230q4 4 12.5 11t21.5 13.5t31.5 11t42.5 4.5q47 0 79 -15t51.5 -41t28 -60t8.5 -73v-352h-161v333z" />
    <glyph glyph-name="Hbar" unicode="&#x126;" horiz-adv-x="678" 
d="M626 629h50v-119h-50v-510h-167v273h-240v-273h-167v510h-50v119h50v63h167v-63h240v63h167v-63zM459 432v78h-240v-78h240z" />
    <glyph glyph-name="hbar" unicode="&#x127;" horiz-adv-x="510" 
d="M1 681h43v50h161v-50h117v-110h-117v-70q4 4 12.5 11t21.5 13.5t31.5 11t42.5 4.5q47 0 79 -15t51.5 -41t28 -60t8.5 -73v-352h-161v333q0 29 -14 47t-43 18q-28 0 -42.5 -17.5t-14.5 -46.5v-334h-161v571h-43v110z" />
    <glyph glyph-name="Itilde" unicode="&#x128;" horiz-adv-x="247" 
d="M184 723q-18 0 -32 4.5t-25.5 9.5t-21.5 9.5t-19 4.5q-25 0 -25 -30h-113q-2 31 5.5 58t23 46t38 30t50.5 11q20 0 34 -4.5t24.5 -9.5t19.5 -9.5t19 -4.5q23 0 23 30h113q4 -67 -27.5 -106t-86.5 -39zM207 0h-167v692h167v-692z" />
    <glyph glyph-name="itilde" unicode="&#x129;" horiz-adv-x="225" 
d="M193 0h-161v535h161v-535zM173 566q-18 0 -31.5 4.5t-24.5 9.5t-20.5 9.5t-18.5 4.5q-23 0 -23 -30h-112q-2 31 5.5 58t22.5 46t37 30t50 11q20 0 33.5 -4.5t23.5 -9.5t18.5 -9.5t18.5 -4.5q21 0 21 30h112q4 -67 -26.5 -106t-85.5 -39z" />
    <glyph glyph-name="Imacron" unicode="&#x12a;" horiz-adv-x="247" 
d="M-8 838h266v-116h-266v116zM207 0h-167v692h167v-692z" />
    <glyph glyph-name="imacron" unicode="&#x12b;" horiz-adv-x="225" 
d="M-12 692h250v-116h-250v116zM193 0h-161v535h161v-535z" />
    <glyph glyph-name="Ibreve" unicode="&#x12c;" horiz-adv-x="247" 
d="M124 718q-40 0 -69.5 11.5t-48.5 31t-28 45t-9 52.5h120q0 -15 9.5 -24.5t26.5 -9.5t26.5 9.5t9.5 24.5h119q0 -27 -9 -52.5t-28.5 -45t-49 -31t-69.5 -11.5zM207 0h-167v692h167v-692z" />
    <glyph glyph-name="ibreve" unicode="&#x12d;" horiz-adv-x="225" 
d="M193 0h-161v535h161v-535zM113 560q-40 0 -69 13t-47.5 34t-27 48t-8.5 55h117q0 -21 9.5 -33t26.5 -12t26.5 12t9.5 33h116q0 -28 -8.5 -55t-27.5 -48t-48 -34t-69 -13z" />
    <glyph glyph-name="Iogonek" unicode="&#x12e;" horiz-adv-x="247" 
d="M207 0q-23 -2 -31.5 -12.5t-8.5 -21.5q0 -15 11.5 -23t28.5 -8v-110q-50 -3 -86 3.5t-59 20t-34 32.5t-11 42q0 24 13.5 44.5t37.5 32.5h-28v692h167v-692z" />
    <glyph glyph-name="iogonek" unicode="&#x12f;" horiz-adv-x="225" 
d="M193 0q-22 -1 -31 -12t-9 -22q0 -15 11.5 -23t28.5 -8v-110q-50 -3 -86 3t-59 19.5t-34 33t-11 43.5q0 25 8 43t21 33v535h161v-535zM110 556q-19 0 -35.5 7t-29 19.5t-19.5 29t-7 35.5t7 36t19.5 29.5t29 19.5t35.5 7t36 -7t29.5 -19.5t19.5 -29.5t7 -36t-7 -35.5
t-19.5 -29t-29.5 -19.5t-36 -7z" />
    <glyph glyph-name="Idotaccent" unicode="&#x130;" horiz-adv-x="247" 
d="M124 722q-18 0 -33.5 6.5t-27.5 18.5t-19 27.5t-7 33.5q0 35 24.5 60t61.5 25q38 0 63.5 -24.5t25.5 -60.5t-25 -61t-63 -25zM207 0h-167v692h167v-692z" />
    <glyph glyph-name="IJ" unicode="&#x132;" horiz-adv-x="552" 
d="M207 0h-167v692h167v-692zM513 182q0 -41 -8 -74.5t-28 -57.5t-55.5 -37.5t-90.5 -13.5h-28.5t-37.5 1v154h39q27 1 34.5 16t7.5 32v490h167v-510z" />
    <glyph glyph-name="ij" unicode="&#x133;" horiz-adv-x="451" 
d="M193 0h-161v535h161v-535zM110 556q-19 0 -35.5 7t-29 19.5t-19.5 29t-7 35.5t7 36t19.5 29.5t29 19.5t35.5 7t36 -7t29.5 -19.5t19.5 -29.5t7 -36t-7 -35.5t-19.5 -29t-29.5 -19.5t-36 -7zM339 556q-19 0 -35.5 7t-29 19.5t-19.5 29t-7 35.5t7 36t19.5 29.5t29 19.5
t35.5 7t36 -7t29.5 -19.5t19.5 -29.5t7 -36t-7 -35.5t-19.5 -29t-29.5 -19.5t-36 -7zM421 8q0 -41 -9 -74.5t-30 -58t-55.5 -38t-85.5 -13.5h-19.5t-28.5 1v136h26q28 1 34.5 15.5t6.5 32.5v526h161v-527z" />
    <glyph glyph-name="Jcircumflex" unicode="&#x134;" horiz-adv-x="305" 
d="M258 853l99 -132h-144l-39 44l-39 -44h-144l99 132h168zM257 182q0 -41 -8 -74.5t-28 -57.5t-55.5 -37.5t-90.5 -13.5h-28.5t-37.5 1v154h39q27 1 34.5 16t7.5 32v490h167v-510z" />
    <glyph glyph-name="jcircumflex" unicode="&#x135;" horiz-adv-x="226" 
d="M194 8q0 -41 -9 -74.5t-30 -58t-55.5 -38t-85.5 -13.5h-19.5t-28.5 1v136h26q28 1 34.5 15.5t6.5 32.5v526h161v-527zM192 710l93 -143h-138l-35 50l-35 -50h-138l93 143h160z" />
    <glyph glyph-name="Kcommaaccent" unicode="&#x136;" horiz-adv-x="581" 
d="M207 421l189 271h193l-243 -331l242 -361h-195l-186 283v-283h-167v692h167v-271zM257 -190q-26 7 -43 27.5t-17 52.5t23.5 57.5t65.5 25.5t64 -26t22 -59q0 -23 -6.5 -40t-13.5 -31l-36 -73h-89z" />
    <glyph glyph-name="kcommaaccent" unicode="&#x137;" horiz-adv-x="519" 
d="M338 290l181 -290h-194l-132 225v-225h-161v731h161v-395l134 199h185zM237 -190q-26 7 -43 27.5t-17 52.5t23.5 57.5t65.5 25.5t64 -26t22 -59q0 -23 -6.5 -40t-13.5 -31l-36 -73h-89z" />
    <glyph glyph-name="Lacute" unicode="&#x139;" horiz-adv-x="384" 
d="M278 853l-78 -132h-153l72 132h159zM40 0v692h167v-536h158v-156h-325z" />
    <glyph glyph-name="lacute" unicode="&#x13a;" horiz-adv-x="225" 
d="M267 893l-78 -132h-153l72 132h159zM193 0h-161v731h161v-731z" />
    <glyph glyph-name="Lcommaaccent" unicode="&#x13b;" horiz-adv-x="384" 
d="M40 0v692h167v-536h158v-156h-325zM168 -190q-26 7 -43 27.5t-17 52.5t23.5 57.5t65.5 25.5t64 -26t22 -59q0 -23 -6.5 -40t-13.5 -31l-36 -73h-89z" />
    <glyph glyph-name="lcommaaccent" unicode="&#x13c;" horiz-adv-x="225" 
d="M193 0h-161v731h161v-731zM82 -190q-26 7 -43 27.5t-17 52.5t23.5 57.5t65.5 25.5t64 -26t22 -59q0 -23 -6.5 -40t-13.5 -31l-36 -73h-89z" />
    <glyph glyph-name="Lcaron" unicode="&#x13d;" horiz-adv-x="384" 
d="M40 0v692h167v-536h158v-156h-325zM374 693l-13 -163h-125l10 163h128z" />
    <glyph glyph-name="lcaron" unicode="&#x13e;" horiz-adv-x="225" 
d="M193 0h-161v731h161v-731zM360 731l-13 -163h-125l10 163h128z" />
    <glyph glyph-name="Ldot" unicode="&#x13f;" horiz-adv-x="454" 
d="M350 253q-43 0 -71.5 29t-28.5 72t28 71.5t72 28.5t72 -28.5t28 -71.5t-28.5 -72t-71.5 -29zM40 0v692h167v-536h158v-156h-325z" />
    <glyph glyph-name="ldot" unicode="&#x140;" horiz-adv-x="410" 
d="M220 354q0 42 27.5 70t69.5 28t70 -28t28 -70t-28 -69.5t-70 -27.5t-69.5 27.5t-27.5 69.5zM193 0h-161v731h161v-731z" />
    <glyph glyph-name="Lslash" unicode="&#x141;" horiz-adv-x="384" 
d="M52 0v191l-46 -23v146l46 25v353h167v-262l95 52v-157l-95 -49v-120h158v-156h-325z" />
    <glyph glyph-name="lslash" unicode="&#x142;" horiz-adv-x="265" 
d="M213 508l46 27v-156l-46 -25v-354h-161v265l-46 -25v150l46 26v315h161v-223z" />
    <glyph glyph-name="Nacute" unicode="&#x143;" horiz-adv-x="673" 
d="M480 853l-78 -132h-153l72 132h159zM201 409v-409h-161v692h172l260 -418v418h161v-692h-165z" />
    <glyph glyph-name="nacute" unicode="&#x144;" horiz-adv-x="498" 
d="M307 333q0 29 -14 47t-43 18q-28 0 -42.5 -17.5t-14.5 -46.5v-334h-161v535h161v-34q4 4 12.5 11t21.5 13.5t31.5 11t42.5 4.5q47 0 79 -15t51.5 -41t28 -60t8.5 -73v-352h-161v333zM408 708l-82 -140h-150l75 140h157z" />
    <glyph glyph-name="Ncommaaccent" unicode="&#x145;" horiz-adv-x="673" 
d="M201 409v-409h-161v692h172l260 -418v418h161v-692h-165zM315 -190q-26 7 -43 27.5t-17 52.5t23.5 57.5t65.5 25.5t64 -26t22 -59q0 -23 -6.5 -40t-13.5 -31l-36 -73h-89z" />
    <glyph glyph-name="ncommaaccent" unicode="&#x146;" horiz-adv-x="498" 
d="M307 333q0 29 -14 47t-43 18q-28 0 -42.5 -17.5t-14.5 -46.5v-334h-161v535h161v-34q4 4 12.5 11t21.5 13.5t31.5 11t42.5 4.5q47 0 79 -15t51.5 -41t28 -60t8.5 -73v-352h-161v333zM216 -190q-26 7 -43 27.5t-17 52.5t23.5 57.5t65.5 25.5t64 -26t22 -59q0 -23 -6.5 -40
t-13.5 -31l-36 -73h-89z" />
    <glyph glyph-name="Ncaron" unicode="&#x147;" horiz-adv-x="673" 
d="M261 721l-99 132h144l39 -44l39 44h144l-99 -132h-168zM201 409v-409h-161v692h172l260 -418v418h161v-692h-165z" />
    <glyph glyph-name="ncaron" unicode="&#x148;" horiz-adv-x="498" 
d="M307 333q0 29 -14 47t-43 18q-28 0 -42.5 -17.5t-14.5 -46.5v-334h-161v535h161v-34q4 4 12.5 11t21.5 13.5t31.5 11t42.5 4.5q47 0 79 -15t51.5 -41t28 -60t8.5 -73v-352h-161v333zM169 567l-93 143h138l35 -50l35 50h138l-93 -143h-160z" />
    <glyph glyph-name="napostrophe" unicode="&#x149;" horiz-adv-x="675" 
d="M484 333q0 29 -14 47t-43 18q-28 0 -42.5 -17.5t-14.5 -46.5v-334h-161v535h161v-34q4 4 12.5 11t21.5 13.5t31.5 11t42.5 4.5q47 0 79 -15t51.5 -41t28 -60t8.5 -73v-352h-161v333zM63 517q-25 9 -44 30t-19 57q0 40 26 68t71 28q44 0 70 -27t26 -69q0 -21 -5.5 -40
t-16.5 -42l-55 -114h-108z" />
    <glyph glyph-name="Eng" unicode="&#x14a;" horiz-adv-x="673" 
d="M201 409v-409h-161v692h172l260 -414v414h161v-692q0 -41 -7.5 -74t-27.5 -57t-54.5 -37t-89.5 -13h-24.5t-28.5 1v154h29q20 0 28 9t10 21z" />
    <glyph glyph-name="eng" unicode="&#x14b;" horiz-adv-x="498" 
d="M468 8q0 -41 -9 -74.5t-30 -58t-55.5 -38t-85.5 -13.5h-20t-28 1v136h26q28 1 34.5 15.5t6.5 31.5v325q0 29 -14 47t-43 18q-28 0 -42.5 -17.5t-14.5 -46.5v-334h-161v535h161v-34q4 4 12.5 11t21.5 13.5t31.5 11t42.5 4.5q47 0 79 -15t51.5 -41t28 -60t8.5 -73v-344z
" />
    <glyph glyph-name="Omacron" unicode="&#x14c;" horiz-adv-x="766" 
d="M248 838h266v-116h-266v116zM20 345q0 75 26 141t73.5 114.5t113.5 76.5t146 28q85 0 153 -27.5t115.5 -75.5t73 -113t25.5 -141t-25.5 -142t-72.5 -114.5t-114 -76.5t-150 -28q-85 0 -152.5 27.5t-114.5 75.5t-72 113.5t-25 141.5zM195 346q0 -43 13 -80t37.5 -64.5
t59.5 -43t78 -15.5q46 0 81 16t59 43.5t36 64.5t12 79t-13 79t-37 64.5t-59 43.5t-80 16q-46 0 -81 -16t-58.5 -43.5t-35.5 -64.5t-12 -79z" />
    <glyph glyph-name="omacron" unicode="&#x14d;" horiz-adv-x="595" 
d="M176 267q0 -28 9 -52t25 -41.5t38.5 -27.5t49.5 -10q28 0 50.5 10t38.5 27.5t24 41.5t8 52t-9 52t-25 42t-38.5 28t-49.5 10q-29 0 -51 -10t-38 -28t-24 -42t-8 -52zM16 266q0 58 20.5 109t58 88.5t88.5 59t113 21.5q66 0 118 -21t89 -58t56.5 -87.5t19.5 -108.5
q0 -59 -20 -109.5t-57 -88t-89 -59t-116 -21.5q-65 0 -116.5 21t-88.5 58t-56.5 87.5t-19.5 108.5zM172 692h250v-116h-250v116z" />
    <glyph glyph-name="Obreve" unicode="&#x14e;" horiz-adv-x="766" 
d="M381 718q-40 0 -69.5 11.5t-48.5 31t-28 45t-9 52.5h120q0 -15 9.5 -24.5t26.5 -9.5t26.5 9.5t9.5 24.5h119q0 -27 -9 -52.5t-28.5 -45t-49 -31t-69.5 -11.5zM20 345q0 75 26 141t73.5 114.5t113.5 76.5t146 28q85 0 153 -27.5t115.5 -75.5t73 -113t25.5 -141t-25.5 -142
t-72.5 -114.5t-114 -76.5t-150 -28q-85 0 -152.5 27.5t-114.5 75.5t-72 113.5t-25 141.5zM195 346q0 -43 13 -80t37.5 -64.5t59.5 -43t78 -15.5q46 0 81 16t59 43.5t36 64.5t12 79t-13 79t-37 64.5t-59 43.5t-80 16q-46 0 -81 -16t-58.5 -43.5t-35.5 -64.5t-12 -79z" />
    <glyph glyph-name="obreve" unicode="&#x14f;" horiz-adv-x="595" 
d="M176 267q0 -28 9 -52t25 -41.5t38.5 -27.5t49.5 -10q28 0 50.5 10t38.5 27.5t24 41.5t8 52t-9 52t-25 42t-38.5 28t-49.5 10q-29 0 -51 -10t-38 -28t-24 -42t-8 -52zM16 266q0 58 20.5 109t58 88.5t88.5 59t113 21.5q66 0 118 -21t89 -58t56.5 -87.5t19.5 -108.5
q0 -59 -20 -109.5t-57 -88t-89 -59t-116 -21.5q-65 0 -116.5 21t-88.5 58t-56.5 87.5t-19.5 108.5zM297 560q-40 0 -69 13t-47.5 34t-27 48t-8.5 55h117q0 -21 9.5 -33t26.5 -12t26.5 12t9.5 33h116q0 -28 -8.5 -55t-27.5 -48t-48 -34t-69 -13z" />
    <glyph glyph-name="Ohungarumlaut" unicode="&#x150;" horiz-adv-x="766" 
d="M429 852l-61 -131h-146l54 131h153zM616 852l-66 -131h-144l59 131h151zM20 345q0 75 26 141t73.5 114.5t113.5 76.5t146 28q85 0 153 -27.5t115.5 -75.5t73 -113t25.5 -141t-25.5 -142t-72.5 -114.5t-114 -76.5t-150 -28q-85 0 -152.5 27.5t-114.5 75.5t-72 113.5
t-25 141.5zM195 346q0 -43 13 -80t37.5 -64.5t59.5 -43t78 -15.5q46 0 81 16t59 43.5t36 64.5t12 79t-13 79t-37 64.5t-59 43.5t-80 16q-46 0 -81 -16t-58.5 -43.5t-35.5 -64.5t-12 -79z" />
    <glyph glyph-name="ohungarumlaut" unicode="&#x151;" horiz-adv-x="595" 
d="M176 267q0 -28 9 -52t25 -41.5t38.5 -27.5t49.5 -10q28 0 50.5 10t38.5 27.5t24 41.5t8 52t-9 52t-25 42t-38.5 28t-49.5 10q-29 0 -51 -10t-38 -28t-24 -42t-8 -52zM16 266q0 58 20.5 109t58 88.5t88.5 59t113 21.5q66 0 118 -21t89 -58t56.5 -87.5t19.5 -108.5
q0 -59 -20 -109.5t-57 -88t-89 -59t-116 -21.5q-65 0 -116.5 21t-88.5 58t-56.5 87.5t-19.5 108.5zM344 708l-64 -140h-145l57 140h152zM530 708l-69 -140h-143l62 140h150z" />
    <glyph glyph-name="Racute" unicode="&#x154;" horiz-adv-x="555" 
d="M403 853l-78 -132h-153l72 132h159zM496 486q0 -58 -23 -101t-65 -69l158 -316h-179l-136 284h-45v-284h-166v692h238q109 0 163.5 -53.5t54.5 -152.5zM206 548v-128h58q29 0 44.5 18t15.5 47t-16 46t-44 17h-58z" />
    <glyph glyph-name="racute" unicode="&#x155;" horiz-adv-x="301" 
d="M287 369h-40q-32 0 -43 -12.5t-11 -37.5v-319h-161v535h161v-37q15 20 36.5 30t57.5 10v-169zM312 708l-82 -140h-150l75 140h157z" />
    <glyph glyph-name="Rcommaaccent" unicode="&#x156;" horiz-adv-x="555" 
d="M496 486q0 -58 -23 -101t-65 -69l158 -316h-179l-136 284h-45v-284h-166v692h238q109 0 163.5 -53.5t54.5 -152.5zM206 548v-128h58q29 0 44.5 18t15.5 47t-16 46t-44 17h-58zM243 -190q-26 7 -43 27.5t-17 52.5t23.5 57.5t65.5 25.5t64 -26t22 -59q0 -23 -6.5 -40
t-13.5 -31l-36 -73h-89z" />
    <glyph glyph-name="rcommaaccent" unicode="&#x157;" horiz-adv-x="301" 
d="M287 369h-40q-32 0 -43 -12.5t-11 -37.5v-319h-161v535h161v-37q15 20 36.5 30t57.5 10v-169zM86 -190q-26 7 -43 27.5t-17 52.5t23.5 57.5t65.5 25.5t64 -26t22 -59q0 -23 -6.5 -40t-13.5 -31l-36 -73h-89z" />
    <glyph glyph-name="Rcaron" unicode="&#x158;" horiz-adv-x="555" 
d="M181 721l-99 132h144l39 -44l39 44h144l-99 -132h-168zM496 486q0 -58 -23 -101t-65 -69l158 -316h-179l-136 284h-45v-284h-166v692h238q109 0 163.5 -53.5t54.5 -152.5zM206 548v-128h58q29 0 44.5 18t15.5 47t-16 46t-44 17h-58z" />
    <glyph glyph-name="rcaron" unicode="&#x159;" horiz-adv-x="301" 
d="M287 369h-40q-32 0 -43 -12.5t-11 -37.5v-319h-161v535h161v-37q15 20 36.5 30t57.5 10v-169zM77 567l-93 143h138l35 -50l35 50h138l-93 -143h-160z" />
    <glyph glyph-name="Sacute" unicode="&#x15a;" horiz-adv-x="508" 
d="M406 853l-78 -132h-153l72 132h159zM194 510q0 -22 14 -37.5t49 -29.5l87 -34q68 -28 105.5 -75t37.5 -125q0 -53 -17.5 -94t-49 -69.5t-75.5 -43.5t-96 -15q-74 0 -120 21.5t-70.5 55.5t-32 74.5t-5.5 78.5h158q-1 -17 2 -32.5t11.5 -27.5t22 -19.5t34.5 -7.5
q29 0 47.5 15.5t18.5 45.5q0 29 -19.5 45.5t-53.5 29.5q-26 11 -52.5 21.5t-55.5 24.5q-53 27 -80 76t-27 112q0 45 16 83t45 65t70 42t92 15q61 0 103.5 -16.5t68 -45.5t36 -68.5t7.5 -85.5h-154q1 32 -15 52.5t-45 20.5t-43 -15t-14 -37z" />
    <glyph glyph-name="sacute" unicode="&#x15b;" horiz-adv-x="437" 
d="M176 387q0 -28 43 -37q17 -4 34 -7t31 -7q35 -10 60.5 -23.5t42 -33t24.5 -46.5t8 -63q0 -47 -17 -80.5t-45 -55t-65 -31.5t-77 -10q-59 0 -98.5 15.5t-62.5 41t-32 58.5t-7 68h153q-1 -20 8.5 -38t40.5 -18q20 0 33 8.5t13 24.5q0 17 -9.5 25.5t-34.5 13.5
q-26 5 -43 9.5t-38 11.5q-59 20 -86.5 61t-27.5 101q0 39 15 70t41 52.5t61.5 33t76.5 11.5q43 0 78 -10t60.5 -31t39.5 -54t14 -79h-147q-1 24 -12.5 38t-35.5 14q-18 0 -28.5 -9t-10.5 -24zM380 708l-82 -140h-150l75 140h157z" />
    <glyph glyph-name="Scircumflex" unicode="&#x15c;" horiz-adv-x="508" 
d="M335 853l99 -132h-144l-39 44l-39 -44h-144l99 132h168zM194 510q0 -22 14 -37.5t49 -29.5l87 -34q68 -28 105.5 -75t37.5 -125q0 -53 -17.5 -94t-49 -69.5t-75.5 -43.5t-96 -15q-74 0 -120 21.5t-70.5 55.5t-32 74.5t-5.5 78.5h158q-1 -17 2 -32.5t11.5 -27.5t22 -19.5
t34.5 -7.5q29 0 47.5 15.5t18.5 45.5q0 29 -19.5 45.5t-53.5 29.5q-26 11 -52.5 21.5t-55.5 24.5q-53 27 -80 76t-27 112q0 45 16 83t45 65t70 42t92 15q61 0 103.5 -16.5t68 -45.5t36 -68.5t7.5 -85.5h-154q1 32 -15 52.5t-45 20.5t-43 -15t-14 -37z" />
    <glyph glyph-name="scircumflex" unicode="&#x15d;" horiz-adv-x="437" 
d="M176 387q0 -28 43 -37q17 -4 34 -7t31 -7q35 -10 60.5 -23.5t42 -33t24.5 -46.5t8 -63q0 -47 -17 -80.5t-45 -55t-65 -31.5t-77 -10q-59 0 -98.5 15.5t-62.5 41t-32 58.5t-7 68h153q-1 -20 8.5 -38t40.5 -18q20 0 33 8.5t13 24.5q0 17 -9.5 25.5t-34.5 13.5
q-26 5 -43 9.5t-38 11.5q-59 20 -86.5 61t-27.5 101q0 39 15 70t41 52.5t61.5 33t76.5 11.5q43 0 78 -10t60.5 -31t39.5 -54t14 -79h-147q-1 24 -12.5 38t-35.5 14q-18 0 -28.5 -9t-10.5 -24zM297 710l93 -143h-138l-35 50l-35 -50h-138l93 143h160z" />
    <glyph glyph-name="Scedilla" unicode="&#x15e;" horiz-adv-x="508" 
d="M170 -264v87h22q17 1 26.5 8.5t9.5 24.5q0 16 -9.5 24t-26.5 8h-22v107q-48 12 -78 36t-46.5 54.5t-21.5 65t-3 66.5h158q-1 -17 2 -32.5t11.5 -27.5t22 -19.5t34.5 -7.5q29 0 47.5 15.5t18.5 45.5q0 29 -19.5 45.5t-53.5 29.5q-26 11 -52.5 21.5t-55.5 24.5
q-53 27 -80 76t-27 112q0 45 16 83t45 65t70 42t92 15q61 0 103.5 -16.5t68 -45.5t36 -68.5t7.5 -85.5h-154q1 32 -15 52.5t-45 20.5t-43 -15t-14 -37t14 -37.5t49 -29.5l87 -34q68 -28 105.5 -75t37.5 -125q0 -51 -17 -91.5t-47.5 -69t-72.5 -44.5t-92 -17v-21
q42 -14 57.5 -44t15.5 -66q0 -57 -36.5 -88.5t-104.5 -31.5h-20z" />
    <glyph glyph-name="scedilla" unicode="&#x15f;" horiz-adv-x="437" 
d="M149 -264v87h22q17 1 26.5 8.5t9.5 24.5q0 16 -9.5 24t-26.5 8h-22v111q-39 8 -66 25.5t-42.5 41.5t-22 52t-4.5 58h153q-1 -20 8.5 -38t40.5 -18q20 0 33 8.5t13 24.5q0 17 -9.5 25.5t-34.5 13.5q-26 5 -43 9.5t-38 11.5q-59 20 -86.5 61t-27.5 101q0 39 15 70t41 52.5
t61.5 33t76.5 11.5q43 0 78 -10t60.5 -31t39.5 -54t14 -79h-147q-1 24 -12.5 38t-35.5 14q-18 0 -28.5 -9t-10.5 -24q0 -28 43 -37q17 -4 34 -7t31 -7q35 -10 60.5 -23.5t42 -33t24.5 -46.5t8 -63q0 -44 -14.5 -76t-39.5 -53.5t-58 -32.5t-69 -14v-28q42 -14 57.5 -44
t15.5 -66q0 -57 -36.5 -88.5t-104.5 -31.5h-20z" />
    <glyph glyph-name="Scaron" unicode="&#x160;" horiz-adv-x="508" 
d="M169 721l-99 132h144l39 -44l39 44h144l-99 -132h-168zM194 510q0 -22 14 -37.5t49 -29.5l87 -34q68 -28 105.5 -75t37.5 -125q0 -53 -17.5 -94t-49 -69.5t-75.5 -43.5t-96 -15q-74 0 -120 21.5t-70.5 55.5t-32 74.5t-5.5 78.5h158q-1 -17 2 -32.5t11.5 -27.5t22 -19.5
t34.5 -7.5q29 0 47.5 15.5t18.5 45.5q0 29 -19.5 45.5t-53.5 29.5q-26 11 -52.5 21.5t-55.5 24.5q-53 27 -80 76t-27 112q0 45 16 83t45 65t70 42t92 15q61 0 103.5 -16.5t68 -45.5t36 -68.5t7.5 -85.5h-154q1 32 -15 52.5t-45 20.5t-43 -15t-14 -37z" />
    <glyph glyph-name="scaron" unicode="&#x161;" horiz-adv-x="437" 
d="M176 387q0 -28 43 -37q17 -4 34 -7t31 -7q35 -10 60.5 -23.5t42 -33t24.5 -46.5t8 -63q0 -47 -17 -80.5t-45 -55t-65 -31.5t-77 -10q-59 0 -98.5 15.5t-62.5 41t-32 58.5t-7 68h153q-1 -20 8.5 -38t40.5 -18q20 0 33 8.5t13 24.5q0 17 -9.5 25.5t-34.5 13.5
q-26 5 -43 9.5t-38 11.5q-59 20 -86.5 61t-27.5 101q0 39 15 70t41 52.5t61.5 33t76.5 11.5q43 0 78 -10t60.5 -31t39.5 -54t14 -79h-147q-1 24 -12.5 38t-35.5 14q-18 0 -28.5 -9t-10.5 -24zM141 567l-93 143h138l35 -50l35 50h138l-93 -143h-160z" />
    <glyph glyph-name="Tcommaaccent" unicode="&#x162;" horiz-adv-x="430" 
d="M299 536v-536h-167v536h-116v156h398v-156h-115zM186 -190q-26 7 -43 27.5t-17 52.5t23.5 57.5t65.5 25.5t64 -26t22 -59q0 -23 -6.5 -40t-13.5 -31l-36 -73h-89z" />
    <glyph glyph-name="tcommaaccent" unicode="&#x163;" horiz-adv-x="315" 
d="M221 535h71v-135h-71v-213q0 -27 11 -37.5t33 -10.5h27v-135q-9 -3 -20 -5q-10 -2 -25 -3.5t-36 -1.5q-77 0 -114 38t-37 107v261h-47v135h47v85h161v-85zM142 -190q-26 7 -43 27.5t-17 52.5t23.5 57.5t65.5 25.5t64 -26t22 -59q0 -23 -6.5 -40t-13.5 -31l-36 -73h-89z
" />
    <glyph glyph-name="Tcaron" unicode="&#x164;" horiz-adv-x="430" 
d="M131 721l-99 132h144l39 -44l39 44h144l-99 -132h-168zM299 536v-536h-167v536h-116v156h398v-156h-115z" />
    <glyph glyph-name="tcaron" unicode="&#x165;" horiz-adv-x="315" 
d="M221 535h71v-135h-71v-213q0 -27 11 -37.5t33 -10.5h27v-135q-9 -3 -20 -5q-10 -2 -25 -3.5t-36 -1.5q-77 0 -114 38t-37 107v261h-47v135h47v85h161v-85zM390 731l-13 -163h-125l10 163h128z" />
    <glyph glyph-name="Tbar" unicode="&#x166;" horiz-adv-x="430" 
d="M299 536v-96h80v-119h-80v-321h-167v321h-80v119h80v96h-116v156h398v-156h-115z" />
    <glyph glyph-name="tbar" unicode="&#x167;" horiz-adv-x="315" 
d="M221 535h71v-135h-71v-61h71v-116h-71v-36q0 -27 11 -37.5t33 -10.5h27v-135q-9 -3 -20 -5q-10 -2 -25 -3.5t-36 -1.5q-77 0 -114 38t-37 107v84h-43v116h43v61h-47v135h47v85h161v-85z" />
    <glyph glyph-name="Utilde" unicode="&#x168;" horiz-adv-x="644" 
d="M321 -13q-73 0 -126.5 21t-88.5 59t-52 91t-17 118v416h167v-416q0 -59 28.5 -95.5t90.5 -36.5q60 0 88.5 37t28.5 96v415h167v-415q0 -63 -18 -116t-54 -91.5t-89.5 -60.5t-124.5 -22zM380 723q-18 0 -31.5 4.5t-24.5 9.5t-20.5 9.5t-18.5 4.5q-23 0 -23 -30h-112
q-2 31 5.5 58t22.5 46t37 30t50 11q20 0 33.5 -4.5t23.5 -9.5t18.5 -9.5t18.5 -4.5q21 0 21 30h112q4 -67 -26.5 -106t-85.5 -39z" />
    <glyph glyph-name="utilde" unicode="&#x169;" horiz-adv-x="495" 
d="M191 203q0 -29 12.5 -47t41.5 -18q28 0 42.5 18t14.5 47v332h161v-535h-160v34q-9 -10 -35 -25t-71 -15t-76.5 14t-52 39.5t-29.5 60t-9 76.5v351h161v-332zM309 566q-18 0 -31.5 4.5t-24.5 9.5t-20.5 9.5t-18.5 4.5q-23 0 -23 -30h-112q-2 31 5.5 58t22.5 46t37 30
t50 11q20 0 33.5 -4.5t23.5 -9.5t18.5 -9.5t18.5 -4.5q21 0 21 30h112q4 -67 -26.5 -106t-85.5 -39z" />
    <glyph glyph-name="Umacron" unicode="&#x16a;" horiz-adv-x="644" 
d="M321 -13q-73 0 -126.5 21t-88.5 59t-52 91t-17 118v416h167v-416q0 -59 28.5 -95.5t90.5 -36.5q60 0 88.5 37t28.5 96v415h167v-415q0 -63 -18 -116t-54 -91.5t-89.5 -60.5t-124.5 -22zM198 849h250v-116h-250v116z" />
    <glyph glyph-name="umacron" unicode="&#x16b;" horiz-adv-x="495" 
d="M191 203q0 -29 12.5 -47t41.5 -18q28 0 42.5 18t14.5 47v332h161v-535h-160v34q-9 -10 -35 -25t-71 -15t-76.5 14t-52 39.5t-29.5 60t-9 76.5v351h161v-332zM122 692h250v-116h-250v116z" />
    <glyph glyph-name="Ubreve" unicode="&#x16c;" horiz-adv-x="644" 
d="M321 718q-40 0 -69.5 11.5t-48.5 31t-28 45t-9 52.5h120q0 -15 9.5 -24.5t26.5 -9.5t26.5 9.5t9.5 24.5h119q0 -27 -9 -52.5t-28.5 -45t-49 -31t-69.5 -11.5zM321 -13q-73 0 -126.5 21t-88.5 59t-52 91t-17 118v416h167v-416q0 -59 28.5 -95.5t90.5 -36.5q60 0 88.5 37
t28.5 96v415h167v-415q0 -63 -18 -116t-54 -91.5t-89.5 -60.5t-124.5 -22z" />
    <glyph glyph-name="ubreve" unicode="&#x16d;" horiz-adv-x="495" 
d="M191 203q0 -29 12.5 -47t41.5 -18q28 0 42.5 18t14.5 47v332h161v-535h-160v34q-9 -10 -35 -25t-71 -15t-76.5 14t-52 39.5t-29.5 60t-9 76.5v351h161v-332zM246 560q-40 0 -69 13t-47.5 34t-27 48t-8.5 55h117q0 -21 9.5 -33t26.5 -12t26.5 12t9.5 33h116
q0 -28 -8.5 -55t-27.5 -48t-48 -34t-69 -13z" />
    <glyph glyph-name="Uring" unicode="&#x16e;" horiz-adv-x="644" 
d="M207 820q0 48 32 79.5t81 31.5q54 0 85 -31t31 -78q0 -48 -31 -79.5t-84 -31.5q-51 0 -82.5 31t-31.5 78zM282 822q0 -20 11 -31t29 -11q17 0 28 11t11 31q0 17 -10.5 28.5t-28.5 11.5q-19 0 -29.5 -11.5t-10.5 -28.5zM321 -13q-73 0 -126.5 21t-88.5 59t-52 91t-17 118
v416h167v-416q0 -59 28.5 -95.5t90.5 -36.5q60 0 88.5 37t28.5 96v415h167v-415q0 -63 -18 -116t-54 -91.5t-89.5 -60.5t-124.5 -22z" />
    <glyph glyph-name="uring" unicode="&#x16f;" horiz-adv-x="495" 
d="M191 203q0 -29 12.5 -47t41.5 -18q28 0 42.5 18t14.5 47v332h161v-535h-160v34q-9 -10 -35 -25t-71 -15t-76.5 14t-52 39.5t-29.5 60t-9 76.5v351h161v-332zM133 666q0 24 8.5 44t23.5 34.5t35.5 23t44.5 8.5q53 0 84 -31t31 -77q0 -48 -31 -79t-83 -31q-50 0 -81.5 31
t-31.5 77zM205 668q0 -20 12 -32t30 -12q17 0 29 12t12 32q0 18 -11.5 30t-29.5 12q-19 0 -30.5 -12t-11.5 -30z" />
    <glyph glyph-name="Uhungarumlaut" unicode="&#x170;" horiz-adv-x="644" 
d="M355 852l-61 -131h-146l54 131h153zM542 852l-66 -131h-144l59 131h151zM321 -13q-73 0 -126.5 21t-88.5 59t-52 91t-17 118v416h167v-416q0 -59 28.5 -95.5t90.5 -36.5q60 0 88.5 37t28.5 96v415h167v-415q0 -63 -18 -116t-54 -91.5t-89.5 -60.5t-124.5 -22z" />
    <glyph glyph-name="uhungarumlaut" unicode="&#x171;" horiz-adv-x="495" 
d="M191 203q0 -29 12.5 -47t41.5 -18q28 0 42.5 18t14.5 47v332h161v-535h-160v34q-9 -10 -35 -25t-71 -15t-76.5 14t-52 39.5t-29.5 60t-9 76.5v351h161v-332zM292 708l-64 -140h-145l57 140h152zM478 708l-69 -140h-143l62 140h150z" />
    <glyph glyph-name="Uogonek" unicode="&#x172;" horiz-adv-x="644" 
d="M435 5q-39 -14 -39 -39q0 -15 11.5 -23t28.5 -8v-110q-50 -3 -86 3t-59 19.5t-34 32.5t-11 40q0 22 9.5 39t26.5 30q-64 5 -110.5 28.5t-76.5 61t-44 87.5t-14 110v416h167v-416q0 -59 28 -95.5t90 -36.5q60 0 89 36.5t29 95.5v416h167v-416q0 -98 -42 -168.5
t-130 -102.5z" />
    <glyph glyph-name="uogonek" unicode="&#x173;" horiz-adv-x="495" 
d="M191 203q0 -29 12.5 -47t41.5 -18q28 0 42.5 18t14.5 47v332h161v-535q-23 -2 -31.5 -12.5t-8.5 -21.5q0 -15 11.5 -23t28.5 -8v-110q-50 -3 -86 3t-59 19.5t-34 33t-11 43.5q0 25 9 43.5t21 32.5v34q-9 -10 -35 -25t-71 -15t-76.5 14t-52 39.5t-29.5 60t-9 76.5v351h161
v-332z" />
    <glyph glyph-name="Wcircumflex" unicode="&#x174;" horiz-adv-x="993" 
d="M581 853l99 -132h-144l-39 44l-39 -44h-144l99 132h168zM497 435l-120 -435h-191l-191 692h183l113 -471l121 471h179l121 -471l113 471h173l-186 -692h-196z" />
    <glyph glyph-name="wcircumflex" unicode="&#x175;" horiz-adv-x="820" 
d="M579 207l73 328h167l-142 -535h-178l-85 302l-82 -302h-181l-150 535h182l72 -328l77 328h171zM495 710l93 -143h-138l-35 50l-35 -50h-138l93 143h160z" />
    <glyph glyph-name="Ycircumflex" unicode="&#x176;" horiz-adv-x="530" 
d="M353 853l99 -132h-144l-39 44l-39 -44h-144l99 132h168zM-12 692h185l96 -189l97 189h176l-196 -349v-343h-166v340z" />
    <glyph glyph-name="ycircumflex" unicode="&#x177;" horiz-adv-x="539" 
d="M122 -175l73 204l-196 506h177l101 -287l100 287h164l-264 -710h-155zM357 710l93 -143h-138l-35 50l-35 -50h-138l93 143h160z" />
    <glyph glyph-name="Zacute" unicode="&#x179;" horiz-adv-x="578" 
d="M430 853l-78 -132h-153l72 132h159zM25 0v109l289 430h-287v153h524v-108l-294 -432h296v-152h-528z" />
    <glyph glyph-name="zacute" unicode="&#x17a;" horiz-adv-x="430" 
d="M212 133h198v-133h-390v114l191 288h-189v133h388v-114zM363 708l-82 -140h-150l75 140h157z" />
    <glyph glyph-name="Zdotaccent" unicode="&#x17b;" horiz-adv-x="578" 
d="M289 722q-18 0 -33.5 6.5t-27.5 18.5t-19 27.5t-7 33.5q0 35 24.5 60t61.5 25q38 0 63.5 -24.5t25.5 -60.5t-25 -61t-63 -25zM25 0v109l289 430h-287v153h524v-108l-294 -432h296v-152h-528z" />
    <glyph glyph-name="zdotaccent" unicode="&#x17c;" horiz-adv-x="430" 
d="M212 133h198v-133h-390v114l191 288h-189v133h388v-114zM216 560q-36 0 -61.5 24.5t-25.5 61.5q0 36 24 60.5t62 24.5t63.5 -24t25.5 -61t-25 -61.5t-63 -24.5z" />
    <glyph glyph-name="Zcaron" unicode="&#x17d;" horiz-adv-x="578" 
d="M200 721l-99 132h144l39 -44l39 44h144l-99 -132h-168zM25 0v109l289 430h-287v153h524v-108l-294 -432h296v-152h-528z" />
    <glyph glyph-name="zcaron" unicode="&#x17e;" horiz-adv-x="430" 
d="M212 133h198v-133h-390v114l191 288h-189v133h388v-114zM134 567l-93 143h138l35 -50l35 50h138l-93 -143h-160z" />
    <glyph glyph-name="Aringacute" unicode="&#x1fa;" horiz-adv-x="658" 
d="M480 1078l-78 -132h-153l72 132h159zM207 820q0 48 32 79.5t81 31.5q54 0 85 -31t31 -78q0 -48 -31 -79.5t-84 -31.5q-51 0 -82.5 31t-31.5 78zM282 822q0 -20 11 -31t29 -11q17 0 28 11t11 31q0 17 -10.5 28.5t-28.5 11.5q-19 0 -29.5 -11.5t-10.5 -28.5zM431 165h-218
l-57 -165h-164l242 692h176l256 -692h-177zM261 305h122l-61 175z" />
    <glyph glyph-name="aringacute" unicode="&#x1fb;" horiz-adv-x="476" 
d="M403 925l-78 -132h-153l72 132h159zM17 177q0 40 12.5 72.5t36.5 55.5t57.5 35.5t75.5 12.5q33 0 55 -6t33 -13v22q0 23 -11 40.5t-41 17.5q-29 0 -39 -15t-10 -31h-149q2 81 50 127t147 46q63 0 104 -16t65 -43.5t33.5 -66t9.5 -83.5v-332h-132v29q-19 -17 -45.5 -26
t-64.5 -9q-39 0 -73 12.5t-59.5 36t-40 57.5t-14.5 77zM168 181q0 -26 17.5 -43t43.5 -17t43.5 17t17.5 43q0 27 -18 43t-44 16t-43 -16.5t-17 -42.5zM134 666q0 24 8.5 44t23.5 34.5t35.5 23t44.5 8.5q53 0 84 -31t31 -77q0 -48 -31 -79t-83 -31q-50 0 -81.5 31t-31.5 77z
M206 668q0 -20 12 -32t30 -12q17 0 29 12t12 32q0 18 -11.5 30t-29.5 12q-19 0 -30.5 -12t-11.5 -30z" />
    <glyph glyph-name="AEacute" unicode="&#x1fc;" horiz-adv-x="787" 
d="M661 853l-78 -132h-153l72 132h159zM426 0v148h-179l-75 -148h-187l372 692h397v-156h-161v-107h156v-154h-156v-119h164v-156h-331zM426 288v211l-108 -211h108z" />
    <glyph glyph-name="aeacute" unicode="&#x1fd;" horiz-adv-x="819" 
d="M556 -9q-116 0 -190 65q-9 -11 -21.5 -22t-30.5 -21t-41.5 -16t-53.5 -6q-44 0 -81 12.5t-64 36.5t-42 58t-15 76q0 40 13 73t37 56.5t58.5 36.5t77.5 13q31 0 52 -5.5t32 -12.5v21q0 23 -11 40.5t-41 17.5q-29 0 -39 -15t-10 -31h-149q2 81 50 127t148 46q56 0 92 -15.5
t58 -39.5q20 19 60 38.5t99 19.5q61 0 109.5 -19t82.5 -54.5t52 -84.5t18 -109q0 -11 -0.5 -29.5t-1.5 -32.5h-355q3 -32 30 -57t78 -25q42 0 68 20t40 43l123 -72q-11 -23 -30 -47t-47.5 -43t-67 -31t-87.5 -12zM544 410q-42 0 -64.5 -25t-26.5 -57h186q-3 33 -27.5 57.5
t-67.5 24.5zM168 181q0 -26 17.5 -43t43.5 -17t43.5 17t17.5 43q0 27 -18 43t-44 16t-43 -16.5t-17 -42.5zM544 708l-82 -140h-150l75 140h157z" />
    <glyph glyph-name="Oslashacute" unicode="&#x1fe;" horiz-adv-x="766" 
d="M523 853l-78 -132h-153l72 132h159zM20 345q0 75 26 140.5t73.5 113.5t113 76t144.5 28q54 0 103.5 -12.5t83.5 -33.5l48 54l106 -93l-46 -52q29 -38 49.5 -94t20.5 -124q0 -75 -25.5 -140.5t-72 -113.5t-113.5 -76t-149 -28q-60 0 -105 12t-77 31l-50 -57l-106 92l48 54
q-35 45 -53.5 102t-18.5 121zM192 346q0 -25 4 -48t13 -43l249 282q-35 15 -78 15q-45 0 -80 -16t-59 -44t-36.5 -65.5t-12.5 -80.5zM570 346q0 23 -4 45t-12 42l-246 -278q34 -14 73 -14q46 0 81 16t59 43.5t36.5 65t12.5 80.5z" />
    <glyph glyph-name="oslashacute" unicode="&#x1ff;" horiz-adv-x="595" 
d="M450 708l-82 -140h-150l75 140h157zM16 267q0 58 20.5 109t58 88t88.5 58.5t113 21.5q42 0 76.5 -9t60.5 -23l37 42l85 -73l-34 -39q28 -35 43 -78.5t15 -94.5q0 -59 -20 -109.5t-57 -88t-89 -59t-116 -21.5q-43 0 -79 9t-59 24l-40 -46l-84 72l38 44q-27 34 -42 78
t-15 95zM425 267q0 28 -9 54l-161 -187q19 -6 43 -6q31 0 54.5 10.5t39.5 29.5t24.5 44t8.5 55zM170 267q0 -30 7 -52l160 185q-9 3 -19 5t-21 2q-62 0 -94.5 -40t-32.5 -100z" />
    <glyph glyph-name="Scommaaccent" unicode="&#x218;" horiz-adv-x="508" 
d="M194 510q0 -22 14 -37.5t49 -29.5l87 -34q68 -28 105.5 -75t37.5 -125q0 -53 -17.5 -94t-49 -69.5t-75.5 -43.5t-96 -15q-74 0 -120 21.5t-70.5 55.5t-32 74.5t-5.5 78.5h158q-1 -17 2 -32.5t11.5 -27.5t22 -19.5t34.5 -7.5q29 0 47.5 15.5t18.5 45.5q0 29 -19.5 45.5
t-53.5 29.5q-26 11 -52.5 21.5t-55.5 24.5q-53 27 -80 76t-27 112q0 45 16 83t45 65t70 42t92 15q61 0 103.5 -16.5t68 -45.5t36 -68.5t7.5 -85.5h-154q1 32 -15 52.5t-45 20.5t-43 -15t-14 -37zM224 -190q-26 7 -43 27.5t-17 52.5t23.5 57.5t65.5 25.5t64 -26t22 -59
q0 -23 -6.5 -40t-13.5 -31l-36 -73h-89z" />
    <glyph glyph-name="scommaaccent" unicode="&#x219;" horiz-adv-x="434" 
d="M176 387q0 -28 43 -37q17 -4 34 -7t31 -7q35 -10 60.5 -23.5t42 -33t24.5 -46.5t8 -63q0 -47 -17 -80.5t-45 -55t-65 -31.5t-77 -10q-59 0 -98.5 15.5t-62.5 41t-32 58.5t-7 68h153q-1 -20 8.5 -38t40.5 -18q20 0 33 8.5t13 24.5q0 17 -9.5 25.5t-34.5 13.5
q-26 5 -43 9.5t-38 11.5q-59 20 -86.5 61t-27.5 101q0 39 15 70t41 52.5t61.5 33t76.5 11.5q43 0 78 -10t60.5 -31t39.5 -54t14 -79h-147q-1 24 -12.5 38t-35.5 14q-18 0 -28.5 -9t-10.5 -24zM191 -190q-26 7 -43 27.5t-17 52.5t23.5 57.5t65.5 25.5t64 -26t22 -59
q0 -23 -6.5 -40t-13.5 -31l-36 -73h-89z" />
    <glyph glyph-name="uni021A" unicode="&#x21a;" horiz-adv-x="430" 
d="M299 536v-536h-167v536h-116v156h398v-156h-115zM186 -190q-26 7 -43 27.5t-17 52.5t23.5 57.5t65.5 25.5t64 -26t22 -59q0 -23 -6.5 -40t-13.5 -31l-36 -73h-89z" />
    <glyph glyph-name="uni021B" unicode="&#x21b;" horiz-adv-x="315" 
d="M221 535h71v-135h-71v-213q0 -27 11 -37.5t33 -10.5h27v-135q-9 -3 -20 -5q-10 -2 -25 -3.5t-36 -1.5q-77 0 -114 38t-37 107v261h-47v135h47v85h161v-85zM142 -190q-26 7 -43 27.5t-17 52.5t23.5 57.5t65.5 25.5t64 -26t22 -59q0 -23 -6.5 -40t-13.5 -31l-36 -73h-89z
" />
    <glyph glyph-name="uni0237" unicode="&#x237;" horiz-adv-x="226" 
d="M194 8q0 -41 -9 -74.5t-30 -58t-55.5 -38t-85.5 -13.5h-19.5t-28.5 1v136h26q28 1 34.5 15.5t6.5 32.5v526h161v-527z" />
    <glyph glyph-name="Wgrave" unicode="&#x1e80;" horiz-adv-x="993" 
d="M499 853l72 -132h-151l-78 132h157zM497 435l-120 -435h-191l-191 692h183l113 -471l121 471h179l121 -471l113 471h173l-186 -692h-196z" />
    <glyph glyph-name="wgrave" unicode="&#x1e81;" horiz-adv-x="820" 
d="M579 207l73 328h167l-142 -535h-178l-85 302l-82 -302h-181l-150 535h182l72 -328l77 328h171zM417 708l75 -140h-150l-82 140h157z" />
    <glyph glyph-name="Wacute" unicode="&#x1e82;" horiz-adv-x="993" 
d="M654 853l-78 -132h-153l72 132h159zM497 435l-120 -435h-191l-191 692h183l113 -471l121 471h179l121 -471l113 471h173l-186 -692h-196z" />
    <glyph glyph-name="wacute" unicode="&#x1e83;" horiz-adv-x="820" 
d="M579 207l73 328h167l-142 -535h-178l-85 302l-82 -302h-181l-150 535h182l72 -328l77 328h171zM576 708l-82 -140h-150l75 140h157z" />
    <glyph glyph-name="Wdieresis" unicode="&#x1e84;" horiz-adv-x="993" 
d="M392 712q-35 0 -59 24t-24 59t24 58.5t59 23.5q38 0 62 -23.5t24 -58.5t-25 -59t-61 -24zM597 712q-35 0 -59 24t-24 59t24 58.5t59 23.5q38 0 62 -23.5t24 -58.5t-25 -59t-61 -24zM497 435l-120 -435h-191l-191 692h183l113 -471l121 471h179l121 -471l113 471h173
l-186 -692h-196z" />
    <glyph glyph-name="wdieresis" unicode="&#x1e85;" horiz-adv-x="820" 
d="M579 207l73 328h167l-142 -535h-178l-85 302l-82 -302h-181l-150 535h182l72 -328l77 328h171zM317 562q-35 0 -59 24t-24 59t24 58.5t59 23.5q38 0 62 -23.5t24 -58.5t-25 -59t-61 -24zM510 562q-35 0 -59 24t-24 59t24 58.5t59 23.5q38 0 62 -23.5t24 -58.5t-25 -59
t-61 -24z" />
    <glyph glyph-name="Ygrave" unicode="&#x1ef2;" horiz-adv-x="530" 
d="M275 853l72 -132h-151l-78 132h157zM-12 692h185l96 -189l97 189h176l-196 -349v-343h-166v340z" />
    <glyph glyph-name="ygrave" unicode="&#x1ef3;" horiz-adv-x="539" 
d="M122 -175l73 204l-196 506h177l101 -287l100 287h164l-264 -710h-155zM280 708l75 -140h-150l-82 140h157z" />
    <glyph glyph-name="uni2009" unicode="&#x2009;" horiz-adv-x="15" 
 />
    <glyph glyph-name="onethird" unicode="&#x2153;" horiz-adv-x="739" 
d="M206 335h-120v257l-39 -14v91l51 23h108v-357zM493 222l61 42h-121v95h251v-89l-59 -42q13 -3 27.5 -10t26.5 -20.5t19.5 -32.5t7.5 -46t-9.5 -50t-28.5 -40t-47.5 -27t-67.5 -10q-71 0 -107 34.5t-37 94.5h115q0 -34 32 -34q15 0 23 9t8 23q0 31 -35 31h-59v72zM127 0
h-124l513 692h126z" />
    <glyph glyph-name="twothirds" unicode="&#x2154;" horiz-adv-x="854" 
d="M21 335v84l127 89q24 17 34.5 28.5t10.5 28.5q0 12 -7.5 21t-21.5 9q-19 0 -25 -11t-6 -24h-112q-1 22 5.5 47t23 46t44.5 35t70 14q71 0 111 -34.5t40 -94.5q0 -38 -18 -62t-48 -45l-44 -31h114v-100h-298zM608 222l61 42h-121v95h251v-89l-59 -42q13 -3 27.5 -10
t26.5 -20.5t19.5 -32.5t7.5 -46t-9.5 -50t-28.5 -40t-47.5 -27t-67.5 -10q-71 0 -107 34.5t-37 94.5h115q0 -34 32 -34q15 0 23 9t8 23q0 31 -35 31h-59v72zM243 0h-124l513 692h126z" />
    <glyph glyph-name="oneeighth" unicode="&#x215b;" horiz-adv-x="731" 
d="M208 335h-120v257l-39 -14v91l51 23h108v-357zM407 262q0 20 8 39t25 34t43.5 24t64.5 9q37 0 63.5 -8.5t44 -23t25.5 -33.5t8 -41q0 -28 -11.5 -48.5t-34.5 -28.5q26 -8 39.5 -29.5t13.5 -50.5q0 -47 -35 -80t-114 -34q-39 0 -67 9.5t-45.5 24.5t-25.5 35t-8 42
q0 28 12 50t40 33q-20 10 -33 29t-13 48zM519 255q0 -14 8 -21.5t21 -7.5t21 7.5t8 21.5t-8 22t-21 8q-14 0 -21.5 -8t-7.5 -22zM515 108q0 -16 9.5 -24.5t23.5 -8.5t23.5 8.5t9.5 24.5q0 15 -9.5 23.5t-23.5 8.5t-23.5 -8.5t-9.5 -23.5zM127 0h-124l513 692h126z" />
    <glyph glyph-name="threeeighths" unicode="&#x215c;" horiz-adv-x="813" 
d="M112 555l61 42h-121v95h251v-89l-59 -42q13 -3 27.5 -10t26.5 -20.5t19.5 -32.5t7.5 -46t-9.5 -50t-28.5 -40t-47.5 -27t-67.5 -10q-71 0 -107 34.5t-37 94.5h115q0 -34 32 -34q15 0 23 9t8 23q0 31 -35 31h-59v72zM489 262q0 20 8 39t25 34t43.5 24t64.5 9
q37 0 63.5 -8.5t44 -23t25.5 -33.5t8 -41q0 -28 -11.5 -48.5t-34.5 -28.5q26 -8 39.5 -29.5t13.5 -50.5q0 -47 -35 -80t-114 -34q-39 0 -67 9.5t-45.5 24.5t-25.5 35t-8 42q0 28 12 50t40 33q-20 10 -33 29t-13 48zM601 255q0 -14 8 -21.5t21 -7.5t21 7.5t8 21.5t-8 22
t-21 8q-14 0 -21.5 -8t-7.5 -22zM597 108q0 -16 9.5 -24.5t23.5 -8.5t23.5 8.5t9.5 24.5q0 15 -9.5 23.5t-23.5 8.5t-23.5 -8.5t-9.5 -23.5zM208 0h-124l513 692h126z" />
    <glyph glyph-name="fiveeighths" unicode="&#x215d;" horiz-adv-x="821" 
d="M150 445q0 -8 7 -16.5t23 -8.5q31 0 31 31q0 14 -8 22.5t-24 8.5q-10 0 -16 -4t-8 -6h-109v220h263v-95h-152v-35q6 4 20.5 7.5t37.5 3.5q57 0 86 -32t29 -85q0 -59 -39.5 -95t-110.5 -36q-44 0 -71.5 11t-43.5 28.5t-22 38.5t-6 42h113zM497 262q0 20 8 39t25 34
t43.5 24t64.5 9q37 0 63.5 -8.5t44 -23t25.5 -33.5t8 -41q0 -28 -11.5 -48.5t-34.5 -28.5q26 -8 39.5 -29.5t13.5 -50.5q0 -47 -35 -80t-114 -34q-39 0 -67 9.5t-45.5 24.5t-25.5 35t-8 42q0 28 12 50t40 33q-20 10 -33 29t-13 48zM609 255q0 -14 8 -21.5t21 -7.5t21 7.5
t8 21.5t-8 22t-21 8q-14 0 -21.5 -8t-7.5 -22zM605 108q0 -16 9.5 -24.5t23.5 -8.5t23.5 8.5t9.5 24.5q0 15 -9.5 23.5t-23.5 8.5t-23.5 -8.5t-9.5 -23.5zM216 0h-124l513 692h126z" />
    <glyph glyph-name="seveneighths" unicode="&#x215e;" horiz-adv-x="747" 
d="M211 335h-128l89 252h-128v105h262v-85zM423 262q0 20 8 39t25 34t43.5 24t64.5 9q37 0 63.5 -8.5t44 -23t25.5 -33.5t8 -41q0 -28 -11.5 -48.5t-34.5 -28.5q26 -8 39.5 -29.5t13.5 -50.5q0 -47 -35 -80t-114 -34q-39 0 -67 9.5t-45.5 24.5t-25.5 35t-8 42q0 28 12 50
t40 33q-20 10 -33 29t-13 48zM535 255q0 -14 8 -21.5t21 -7.5t21 7.5t8 21.5t-8 22t-21 8q-14 0 -21.5 -8t-7.5 -22zM531 108q0 -16 9.5 -24.5t23.5 -8.5t23.5 8.5t9.5 24.5q0 15 -9.5 23.5t-23.5 8.5t-23.5 -8.5t-9.5 -23.5zM142 0h-124l513 692h126z" />
    <glyph glyph-name="minus" unicode="&#x2212;" horiz-adv-x="475" 
d="M30 404h415v-134h-415v134z" />
    <glyph glyph-name="uni24C5" unicode="&#x24c5;" horiz-adv-x="768" 
d="M552 413q0 -63 -37 -97t-95 -34h-45v-126h-112v383h154q68 0 101.5 -35.5t33.5 -90.5zM375 444v-67h31q31 0 31 34q0 33 -31 33h-31zM20 345q0 75 26.5 141t74 114.5t113.5 76.5t146 28q85 0 153 -27.5t116 -75.5t73.5 -113t25.5 -141q0 -75 -25.5 -141t-73 -115
t-114.5 -77t-150 -28t-150.5 27.5t-115 75.5t-73.5 113.5t-26 141.5zM119 345q0 -57 18 -106.5t52.5 -85.5t83.5 -56.5t112 -20.5t112 20.5t82.5 56.5t51.5 86t18 109t-18 108t-52.5 84.5t-84.5 55.5t-114 20q-60 0 -108.5 -20.5t-82 -56.5t-52 -85.5t-18.5 -108.5z" />
    <glyph glyph-name="space_uni0326" horiz-adv-x="400" 
d="M178 -190q-26 7 -43 27.5t-17 52.5t23.5 57.5t65.5 25.5t64 -26t22 -59q0 -23 -6.5 -40t-13.5 -31l-36 -73h-89z" />
    <glyph glyph-name="caron.alt" horiz-adv-x="476" 
d="M376 731l-13 -163h-125l10 163h128z" />
    <glyph glyph-name="space_uni0326.alt" horiz-adv-x="400" 
d="M233 724q26 -7 43 -26.5t17 -51.5q0 -16 -6 -31.5t-17 -27.5t-28 -19t-38 -7t-37 7t-27 19t-16.5 27.5t-5.5 31.5q0 23 6.5 40t13.5 31l36 73h89z" />
    <glyph glyph-name="acute.pl" horiz-adv-x="476" 
d="M355 708l-46 -140h-139l43 140h142z" />
    <glyph glyph-name="Cacute.pl" horiz-adv-x="631" 
d="M490 853l-48 -132h-141l44 132h145zM618 77q-45 -42 -101 -66t-129 -24q-86 0 -154.5 27.5t-116 75.5t-72.5 113.5t-25 141.5q0 75 26 140.5t73.5 114.5t115 77t150.5 28q79 0 135.5 -23t98.5 -59l-99 -126q-19 17 -52.5 34.5t-80.5 17.5q-46 0 -82 -16t-60.5 -43.5
t-37 -64.5t-12.5 -79q0 -43 14 -80t39 -64.5t60.5 -43t79.5 -15.5t76.5 16t55.5 36z" />
    <glyph glyph-name="Nacute.pl" horiz-adv-x="673" 
d="M454 853l-48 -132h-141l44 132h145zM201 409v-409h-161v692h172l260 -418v418h161v-692h-165z" />
    <glyph glyph-name="Oacute.pl" horiz-adv-x="766" 
d="M501 853l-48 -132h-141l44 132h145zM20 345q0 75 26 141t73.5 114.5t113.5 76.5t146 28q85 0 153 -27.5t115.5 -75.5t73 -113t25.5 -141t-25.5 -142t-72.5 -114.5t-114 -76.5t-150 -28q-85 0 -152.5 27.5t-114.5 75.5t-72 113.5t-25 141.5zM195 346q0 -43 13 -80
t37.5 -64.5t59.5 -43t78 -15.5q46 0 81 16t59 43.5t36 64.5t12 79t-13 79t-37 64.5t-59 43.5t-80 16q-46 0 -81 -16t-58.5 -43.5t-35.5 -64.5t-12 -79z" />
    <glyph glyph-name="Sacute.pl" horiz-adv-x="508" 
d="M372 853l-48 -132h-141l44 132h145zM194 510q0 -22 14 -37.5t49 -29.5l87 -34q68 -28 105.5 -75t37.5 -125q0 -53 -17.5 -94t-49 -69.5t-75.5 -43.5t-96 -15q-74 0 -120 21.5t-70.5 55.5t-32 74.5t-5.5 78.5h158q-1 -17 2 -32.5t11.5 -27.5t22 -19.5t34.5 -7.5
q29 0 47.5 15.5t18.5 45.5q0 29 -19.5 45.5t-53.5 29.5q-26 11 -52.5 21.5t-55.5 24.5q-53 27 -80 76t-27 112q0 45 16 83t45 65t70 42t92 15q61 0 103.5 -16.5t68 -45.5t36 -68.5t7.5 -85.5h-154q1 32 -15 52.5t-45 20.5t-43 -15t-14 -37z" />
    <glyph glyph-name="Zacute.pl" horiz-adv-x="578" 
d="M400 853l-48 -132h-141l44 132h145zM25 0v109l289 430h-287v153h524v-108l-294 -432h296v-152h-528z" />
    <glyph glyph-name="cacute.pl" horiz-adv-x="475" 
d="M296 136q33 0 54.5 12t34.5 23l89 -114q-12 -11 -29.5 -23t-40 -21.5t-50 -15.5t-59.5 -6q-65 0 -116.5 21.5t-87.5 58.5t-55.5 87t-19.5 108t20.5 109t57.5 88.5t88 59t111 21.5q34 0 62 -6t50.5 -15.5t39.5 -21.5t29 -23l-89 -114q-13 11 -35 23t-55 12q-29 0 -51 -10
t-37 -28t-23 -42t-8 -52q0 -31 10 -55.5t26.5 -41t38 -25.5t45.5 -9zM394 708l-46 -140h-139l43 140h142z" />
    <glyph glyph-name="idotaccent" horiz-adv-x="225" 
d="M193 0h-161v535h161v-535zM110 556q-19 0 -35.5 7t-29 19.5t-19.5 29t-7 35.5t7 36t19.5 29.5t29 19.5t35.5 7t36 -7t29.5 -19.5t19.5 -29.5t7 -36t-7 -35.5t-19.5 -29t-29.5 -19.5t-36 -7z" />
    <glyph glyph-name="nacute.pl" horiz-adv-x="498" 
d="M307 333q0 29 -14 47t-43 18q-28 0 -42.5 -17.5t-14.5 -46.5v-334h-161v535h161v-34q4 4 12.5 11t21.5 13.5t31.5 11t42.5 4.5q47 0 79 -15t51.5 -41t28 -60t8.5 -73v-352h-161v333zM360 708l-46 -140h-139l43 140h142z" />
    <glyph glyph-name="oacute.pl" horiz-adv-x="595" 
d="M176 267q0 -28 9 -52t25 -41.5t38.5 -27.5t49.5 -10q28 0 50.5 10t38.5 27.5t24 41.5t8 52t-9 52t-25 42t-38.5 28t-49.5 10q-29 0 -51 -10t-38 -28t-24 -42t-8 -52zM16 266q0 58 20.5 109t58 88.5t88.5 59t113 21.5q66 0 118 -21t89 -58t56.5 -87.5t19.5 -108.5
q0 -59 -20 -109.5t-57 -88t-89 -59t-116 -21.5q-65 0 -116.5 21t-88.5 58t-56.5 87.5t-19.5 108.5zM416 708l-46 -140h-139l43 140h142z" />
    <glyph glyph-name="sacute.pl" horiz-adv-x="434" 
d="M176 387q0 -28 43 -37q17 -4 34 -7t31 -7q35 -10 60.5 -23.5t42 -33t24.5 -46.5t8 -63q0 -47 -17 -80.5t-45 -55t-65 -31.5t-77 -10q-59 0 -98.5 15.5t-62.5 41t-32 58.5t-7 68h153q-1 -20 8.5 -38t40.5 -18q20 0 33 8.5t13 24.5q0 17 -9.5 25.5t-34.5 13.5
q-26 5 -43 9.5t-38 11.5q-59 20 -86.5 61t-27.5 101q0 39 15 70t41 52.5t61.5 33t76.5 11.5q43 0 78 -10t60.5 -31t39.5 -54t14 -79h-147q-1 24 -12.5 38t-35.5 14q-18 0 -28.5 -9t-10.5 -24zM336 708l-46 -140h-139l43 140h142z" />
    <glyph glyph-name="zacute.pl" horiz-adv-x="430" 
d="M212 133h198v-133h-390v114l191 288h-189v133h388v-114zM327 708l-46 -140h-139l43 140h142z" />
    <glyph glyph-name="zero.num" horiz-adv-x="347" 
d="M325 477q0 -69 -39.5 -110.5t-112.5 -41.5q-76 0 -113.5 41t-37.5 111v73q0 69 38 110.5t113 41.5t113.5 -41.5t38.5 -110.5v-73zM205 554q0 16 -8 25.5t-24 9.5t-23.5 -9.5t-7.5 -25.5v-81q0 -16 7.5 -25.5t23.5 -9.5t24 9.5t8 25.5v81z" />
    <glyph glyph-name="one.num" horiz-adv-x="205" 
d="M169 335h-120v257l-39 -14v91l51 23h108v-357z" />
    <glyph glyph-name="two.num" horiz-adv-x="326" 
d="M14 335v84l127 89q24 17 34.5 28.5t10.5 28.5q0 12 -7.5 21t-21.5 9q-19 0 -25 -11t-6 -24h-112q-1 22 5.5 47t23 46t44.5 35t70 14q71 0 111 -34.5t40 -94.5q0 -38 -18 -62t-48 -45l-44 -31h114v-100h-298z" />
    <glyph glyph-name="three.num" horiz-adv-x="323" 
d="M93 555l61 42h-121v95h251v-89l-59 -42q13 -3 27.5 -10t26.5 -20.5t19.5 -32.5t7.5 -46t-9.5 -50t-28.5 -40t-47.5 -27t-67.5 -10q-71 0 -107 34.5t-37 94.5h115q0 -34 32 -34q15 0 23 9t8 23q0 31 -35 31h-59v72z" />
    <glyph glyph-name="four.num" horiz-adv-x="351" 
d="M301 387v-56h-115v56h-169v100l168 205h116v-202h37v-103h-37zM126 490h60v74z" />
    <glyph glyph-name="five.num" horiz-adv-x="329" 
d="M133 445q0 -8 7 -16.5t23 -8.5q31 0 31 31q0 14 -8 22.5t-24 8.5q-10 0 -16 -4t-8 -6h-109v220h263v-95h-152v-35q6 4 20.5 7.5t37.5 3.5q57 0 86 -32t29 -85q0 -59 -39.5 -95t-110.5 -36q-44 0 -71.5 11t-43.5 28.5t-22 38.5t-6 42h113z" />
    <glyph glyph-name="six.num" horiz-adv-x="330" 
d="M229 584q-6 6 -18.5 13.5t-31.5 7.5q-24 0 -33 -12t-9 -29v-4q8 4 23 8t32 4q57 0 91.5 -30t34.5 -85q0 -57 -38 -94.5t-107 -37.5q-41 0 -69.5 12t-46.5 31.5t-26.5 44t-8.5 48.5v93q0 28 9 54.5t28.5 47.5t49 33.5t70.5 12.5q51 0 79 -14t40 -27zM137 452
q0 -13 8.5 -22.5t24.5 -9.5t25 9.5t9 22.5v1q0 14 -9 23t-25 9t-24.5 -9.5t-8.5 -22.5v-1z" />
    <glyph glyph-name="seven.num" horiz-adv-x="284" 
d="M177 335h-128l89 252h-128v105h262v-85z" />
    <glyph glyph-name="eight.num" horiz-adv-x="331" 
d="M24 596q0 20 8 39t25 34t43.5 24t64.5 9q37 0 63.5 -8.5t44 -23t25.5 -33.5t8 -41q0 -28 -11.5 -48.5t-34.5 -28.5q26 -8 39.5 -29.5t13.5 -50.5q0 -47 -35 -80t-114 -34q-39 0 -67 9.5t-45.5 24.5t-25.5 35t-8 42q0 28 12 50t40 33q-20 10 -33 29t-13 48zM136 589
q0 -14 8 -21.5t21 -7.5t21 7.5t8 21.5t-8 22t-21 8q-14 0 -21.5 -8t-7.5 -22zM132 442q0 -16 9.5 -24.5t23.5 -8.5t23.5 8.5t9.5 24.5q0 15 -9.5 23.5t-23.5 8.5t-23.5 -8.5t-9.5 -23.5z" />
    <glyph glyph-name="nine.num" horiz-adv-x="330" 
d="M101 443q5 -5 18.5 -13t32.5 -8q21 0 31 11t10 30v4q-7 -4 -20.5 -8t-30.5 -4q-59 0 -94.5 31t-35.5 87t38 92.5t109 36.5q40 0 68 -11.5t46 -30.5t26.5 -43.5t8.5 -50.5v-92q0 -29 -8.5 -56t-27 -47.5t-48.5 -33t-72 -12.5q-26 0 -46 4.5t-34.5 11t-24.5 13.5t-15 12z
M193 575q0 13 -8.5 22.5t-24.5 9.5t-25 -9.5t-9 -22.5v-1q0 -14 9 -23t25 -9t24.5 9.5t8.5 22.5v1z" />
    <glyph glyph-name="zero.den" horiz-adv-x="347" 
d="M325 143q0 -69 -39.5 -110.5t-112.5 -41.5q-76 0 -113.5 41t-37.5 111v73q0 69 38 110.5t113 41.5t113.5 -41.5t38.5 -110.5v-73zM205 220q0 16 -8 25.5t-24 9.5t-23.5 -9.5t-7.5 -25.5v-81q0 -16 7.5 -25.5t23.5 -9.5t24 9.5t8 25.5v81z" />
    <glyph glyph-name="one.den" horiz-adv-x="205" 
d="M169 1h-120v257l-39 -14v91l51 23h108v-357z" />
    <glyph glyph-name="two.den" horiz-adv-x="326" 
d="M14 1v84l127 89q24 17 34.5 28.5t10.5 28.5q0 12 -7.5 21t-21.5 9q-19 0 -25 -11t-6 -24h-112q-1 22 5.5 47t23 46t44.5 35t70 14q71 0 111 -34.5t40 -94.5q0 -38 -18 -62t-48 -45l-44 -31h114v-100h-298z" />
    <glyph glyph-name="three.den" horiz-adv-x="323" 
d="M93 222l61 42h-121v95h251v-89l-59 -42q13 -3 27.5 -10t26.5 -20.5t19.5 -32.5t7.5 -46t-9.5 -50t-28.5 -40t-47.5 -27t-67.5 -10q-71 0 -107 34.5t-37 94.5h115q0 -34 32 -34q15 0 23 9t8 23q0 31 -35 31h-59v72z" />
    <glyph glyph-name="four.den" horiz-adv-x="351" 
d="M301 57v-56h-115v56h-169v100l168 205h116v-202h37v-103h-37zM126 160h60v74z" />
    <glyph glyph-name="five.den" horiz-adv-x="329" 
d="M133 111q0 -8 7 -16.5t23 -8.5q31 0 31 31q0 14 -8 22.5t-24 8.5q-10 0 -16 -4t-8 -6h-109v220h263v-95h-152v-35q6 4 20.5 7.5t37.5 3.5q57 0 86 -32t29 -85q0 -59 -39.5 -95t-110.5 -36q-44 0 -71.5 11t-43.5 28.5t-22 38.5t-6 42h113z" />
    <glyph glyph-name="six.den" horiz-adv-x="330" 
d="M229 250q-6 6 -18.5 13.5t-31.5 7.5q-24 0 -33 -12t-9 -29v-4q8 4 23 8t32 4q57 0 91.5 -30t34.5 -85q0 -57 -38 -94.5t-107 -37.5q-41 0 -69.5 12t-46.5 31.5t-26.5 44t-8.5 48.5v93q0 28 9 54.5t28.5 47.5t49 33.5t70.5 12.5q51 0 79 -14t40 -27zM137 118
q0 -13 8.5 -22.5t24.5 -9.5t25 9.5t9 22.5v1q0 14 -9 23t-25 9t-24.5 -9.5t-8.5 -22.5v-1z" />
    <glyph glyph-name="seven.den" horiz-adv-x="284" 
d="M177 1h-128l89 252h-128v105h262v-85z" />
    <glyph glyph-name="eight.den" horiz-adv-x="331" 
d="M24 262q0 20 8 39t25 34t43.5 24t64.5 9q37 0 63.5 -8.5t44 -23t25.5 -33.5t8 -41q0 -28 -11.5 -48.5t-34.5 -28.5q26 -8 39.5 -29.5t13.5 -50.5q0 -47 -35 -80t-114 -34q-39 0 -67 9.5t-45.5 24.5t-25.5 35t-8 42q0 28 12 50t40 33q-20 10 -33 29t-13 48zM136 255
q0 -14 8 -21.5t21 -7.5t21 7.5t8 21.5t-8 22t-21 8q-14 0 -21.5 -8t-7.5 -22zM132 108q0 -16 9.5 -24.5t23.5 -8.5t23.5 8.5t9.5 24.5q0 15 -9.5 23.5t-23.5 8.5t-23.5 -8.5t-9.5 -23.5z" />
    <glyph glyph-name="nine.den" horiz-adv-x="330" 
d="M101 109q5 -5 18.5 -13t32.5 -8q21 0 31 11t10 30v4q-7 -4 -20.5 -8t-30.5 -4q-59 0 -94.5 31t-35.5 87t38 92.5t109 36.5q40 0 68 -11.5t46 -30.5t26.5 -43.5t8.5 -50.5v-92q0 -29 -8.5 -56t-27 -47.5t-48.5 -33t-72 -12.5q-26 0 -46 4.5t-34.5 11t-24.5 13.5t-15 12z
M193 241q0 13 -8.5 22.5t-24.5 9.5t-25 -9.5t-9 -22.5v-1q0 -14 9 -23t25 -9t24.5 9.5t8.5 22.5v1z" />
    <glyph glyph-name="a.alt" 
d="M434 35q-16 -14 -51 -29t-92 -15q-62 0 -112.5 20t-86.5 56.5t-56 87.5t-20 113q0 59 19.5 109.5t55 87.5t86.5 58t114 21q42 0 79.5 -11.5t60.5 -31.5v34h151v-535h-148v35zM176 268q0 -29 9 -53.5t25.5 -42.5t39.5 -28t52 -10q59 0 91.5 38.5t32.5 95.5q0 28 -9 52.5
t-25.5 42.5t-39.5 28t-51 10q-30 0 -53 -10t-39 -28t-24.5 -42.5t-8.5 -52.5z" />
    <glyph glyph-name="k.alt" horiz-adv-x="486" 
d="M491 0h-186l-112 179v-179h-161v731h161v-207q9 6 32.5 13t55.5 7q42 0 75.5 -13t57 -37t36 -57.5t12.5 -74.5q0 -32 -8.5 -59t-22.5 -48t-32.5 -36.5t-38.5 -24.5zM310 353q0 26 -17.5 43t-43.5 17q-27 0 -44 -16.5t-17 -43.5t18 -43t44 -16t43 16.5t17 42.5z" />
    <glyph glyph-name="u.alt" horiz-adv-x="490" 
d="M460 535v-322q0 -101 -54.5 -160t-160.5 -59q-58 0 -98.5 15.5t-66.5 44t-38 69t-12 90.5v322h161v-323q0 -29 12.5 -47t41.5 -18t41.5 18t12.5 47v323h161z" />
    <glyph glyph-name="w.alt" horiz-adv-x="759" 
d="M729 535v-329q0 -101 -53 -156.5t-160 -55.5q-45 0 -79 10.5t-59 33.5q-26 -23 -59.5 -33.5t-75.5 -10.5q-58 0 -98.5 14.5t-66 41.5t-37 66.5t-11.5 89.5v329h161v-323q0 -29 12.5 -47t41.5 -18t41.5 18t12.5 47v323h161v-323q0 -29 13 -47t41 -18q29 0 41.5 18t12.5 47
v323h161z" />
    <glyph glyph-name="y.alt" horiz-adv-x="495" 
d="M90 -21q17 -8 48 -17t76 -9q51 0 73 19.5t22 40.5v9q-9 -9 -32.5 -20.5t-61.5 -11.5q-52 0 -87.5 15.5t-57 42t-31 61.5t-9.5 74v352h161v-332q0 -29 12.5 -47t41.5 -18q28 0 42.5 18t14.5 47v332h161v-498q0 -50 -15 -91t-45.5 -70t-76.5 -44.5t-108 -15.5
q-57 0 -101.5 12t-70.5 25z" />
    <glyph glyph-name="aacute.alt" 
d="M461 708l-82 -140h-150l75 140h157zM434 35q-16 -14 -51 -29t-92 -15q-62 0 -112.5 20t-86.5 56.5t-56 87.5t-20 113q0 59 19.5 109.5t55 87.5t86.5 58t114 21q42 0 79.5 -11.5t60.5 -31.5v34h151v-535h-148v35zM176 268q0 -29 9 -53.5t25.5 -42.5t39.5 -28t52 -10
q59 0 91.5 38.5t32.5 95.5q0 28 -9 52.5t-25.5 42.5t-39.5 28t-51 10q-30 0 -53 -10t-39 -28t-24.5 -42.5t-8.5 -52.5z" />
    <glyph glyph-name="abreve.alt" 
d="M299 560q-40 0 -69 13t-47.5 34t-27 48t-8.5 55h117q0 -21 9.5 -33t26.5 -12t26.5 12t9.5 33h116q0 -28 -8.5 -55t-27.5 -48t-48 -34t-69 -13zM434 35q-16 -14 -51 -29t-92 -15q-62 0 -112.5 20t-86.5 56.5t-56 87.5t-20 113q0 59 19.5 109.5t55 87.5t86.5 58t114 21
q42 0 79.5 -11.5t60.5 -31.5v34h151v-535h-148v35zM176 268q0 -29 9 -53.5t25.5 -42.5t39.5 -28t52 -10q59 0 91.5 38.5t32.5 95.5q0 28 -9 52.5t-25.5 42.5t-39.5 28t-51 10q-30 0 -53 -10t-39 -28t-24.5 -42.5t-8.5 -52.5z" />
    <glyph glyph-name="acircumflex.alt" 
d="M381 710l93 -143h-138l-35 50l-35 -50h-138l93 143h160zM434 35q-16 -14 -51 -29t-92 -15q-62 0 -112.5 20t-86.5 56.5t-56 87.5t-20 113q0 59 19.5 109.5t55 87.5t86.5 58t114 21q42 0 79.5 -11.5t60.5 -31.5v34h151v-535h-148v35zM176 268q0 -29 9 -53.5t25.5 -42.5
t39.5 -28t52 -10q59 0 91.5 38.5t32.5 95.5q0 28 -9 52.5t-25.5 42.5t-39.5 28t-51 10q-30 0 -53 -10t-39 -28t-24.5 -42.5t-8.5 -52.5z" />
    <glyph glyph-name="adieresis.alt" 
d="M203 562q-35 0 -59 24t-24 59t24 58.5t59 23.5q38 0 62 -23.5t24 -58.5t-25 -59t-61 -24zM396 562q-35 0 -59 24t-24 59t24 58.5t59 23.5q38 0 62 -23.5t24 -58.5t-25 -59t-61 -24zM434 35q-16 -14 -51 -29t-92 -15q-62 0 -112.5 20t-86.5 56.5t-56 87.5t-20 113
q0 59 19.5 109.5t55 87.5t86.5 58t114 21q42 0 79.5 -11.5t60.5 -31.5v34h151v-535h-148v35zM176 268q0 -29 9 -53.5t25.5 -42.5t39.5 -28t52 -10q59 0 91.5 38.5t32.5 95.5q0 28 -9 52.5t-25.5 42.5t-39.5 28t-51 10q-30 0 -53 -10t-39 -28t-24.5 -42.5t-8.5 -52.5z" />
    <glyph glyph-name="agrave.alt" 
d="M308 708l75 -140h-150l-82 140h157zM434 35q-16 -14 -51 -29t-92 -15q-62 0 -112.5 20t-86.5 56.5t-56 87.5t-20 113q0 59 19.5 109.5t55 87.5t86.5 58t114 21q42 0 79.5 -11.5t60.5 -31.5v34h151v-535h-148v35zM176 268q0 -29 9 -53.5t25.5 -42.5t39.5 -28t52 -10
q59 0 91.5 38.5t32.5 95.5q0 28 -9 52.5t-25.5 42.5t-39.5 28t-51 10q-30 0 -53 -10t-39 -28t-24.5 -42.5t-8.5 -52.5z" />
    <glyph glyph-name="amacron.alt" 
d="M176 692h250v-116h-250v116zM434 35q-16 -14 -51 -29t-92 -15q-62 0 -112.5 20t-86.5 56.5t-56 87.5t-20 113q0 59 19.5 109.5t55 87.5t86.5 58t114 21q42 0 79.5 -11.5t60.5 -31.5v34h151v-535h-148v35zM176 268q0 -29 9 -53.5t25.5 -42.5t39.5 -28t52 -10
q59 0 91.5 38.5t32.5 95.5q0 28 -9 52.5t-25.5 42.5t-39.5 28t-51 10q-30 0 -53 -10t-39 -28t-24.5 -42.5t-8.5 -52.5z" />
    <glyph glyph-name="aogonek.alt" 
d="M434 35q-16 -14 -51 -29t-92 -15q-62 0 -112.5 20t-86.5 56.5t-56 87.5t-20 113q0 59 19.5 109.5t55 87.5t86.5 58t114 21q42 0 79.5 -11.5t60.5 -31.5v34h151v-535q-23 -2 -31.5 -12.5t-8.5 -21.5q0 -15 11.5 -23t28.5 -8v-110q-50 -3 -86 3.5t-59 20t-34 32.5t-11 42
q0 28 13 46t29 31v35zM176 268q0 -29 9 -53.5t25.5 -42.5t39.5 -28t52 -10q59 0 91.5 38.5t32.5 95.5q0 28 -9 52.5t-25.5 42.5t-39.5 28t-51 10q-30 0 -53 -10t-39 -28t-24.5 -42.5t-8.5 -52.5z" />
    <glyph glyph-name="aring.alt" 
d="M186 666q0 24 8.5 44t23.5 34.5t35.5 23t44.5 8.5q53 0 84 -31t31 -77q0 -48 -31 -79t-83 -31q-50 0 -81.5 31t-31.5 77zM258 668q0 -20 12 -32t30 -12q17 0 29 12t12 32q0 18 -11.5 30t-29.5 12q-19 0 -30.5 -12t-11.5 -30zM434 35q-16 -14 -51 -29t-92 -15
q-62 0 -112.5 20t-86.5 56.5t-56 87.5t-20 113q0 59 19.5 109.5t55 87.5t86.5 58t114 21q42 0 79.5 -11.5t60.5 -31.5v34h151v-535h-148v35zM176 268q0 -29 9 -53.5t25.5 -42.5t39.5 -28t52 -10q59 0 91.5 38.5t32.5 95.5q0 28 -9 52.5t-25.5 42.5t-39.5 28t-51 10
q-30 0 -53 -10t-39 -28t-24.5 -42.5t-8.5 -52.5z" />
    <glyph glyph-name="aringacute.alt" 
d="M186 666q0 24 8.5 44t23.5 34.5t35.5 23t44.5 8.5q53 0 84 -31t31 -77q0 -48 -31 -79t-83 -31q-50 0 -81.5 31t-31.5 77zM258 668q0 -20 12 -32t30 -12q17 0 29 12t12 32q0 18 -11.5 30t-29.5 12q-19 0 -30.5 -12t-11.5 -30zM434 35q-16 -14 -51 -29t-92 -15
q-62 0 -112.5 20t-86.5 56.5t-56 87.5t-20 113q0 59 19.5 109.5t55 87.5t86.5 58t114 21q42 0 79.5 -11.5t60.5 -31.5v34h151v-535h-148v35zM176 268q0 -29 9 -53.5t25.5 -42.5t39.5 -28t52 -10q59 0 91.5 38.5t32.5 95.5q0 28 -9 52.5t-25.5 42.5t-39.5 28t-51 10
q-30 0 -53 -10t-39 -28t-24.5 -42.5t-8.5 -52.5zM458 934l-82 -140h-150l75 140h157z" />
    <glyph glyph-name="atilde.alt" 
d="M360 566q-18 0 -31.5 4.5t-24.5 9.5t-20.5 9.5t-18.5 4.5q-23 0 -23 -30h-112q-2 31 5.5 58t22.5 46t37 30t50 11q20 0 33.5 -4.5t23.5 -9.5t18.5 -9.5t18.5 -4.5q21 0 21 30h112q4 -67 -26.5 -106t-85.5 -39zM434 35q-16 -14 -51 -29t-92 -15q-62 0 -112.5 20
t-86.5 56.5t-56 87.5t-20 113q0 59 19.5 109.5t55 87.5t86.5 58t114 21q42 0 79.5 -11.5t60.5 -31.5v34h151v-535h-148v35zM176 268q0 -29 9 -53.5t25.5 -42.5t39.5 -28t52 -10q59 0 91.5 38.5t32.5 95.5q0 28 -9 52.5t-25.5 42.5t-39.5 28t-51 10q-30 0 -53 -10t-39 -28
t-24.5 -42.5t-8.5 -52.5z" />
    <glyph glyph-name="kcommaaccent.alt" horiz-adv-x="486" 
d="M228 -190q-26 7 -43 27.5t-17 52.5t23.5 57.5t65.5 25.5t64 -26t22 -59q0 -23 -6.5 -40t-13.5 -31l-36 -73h-89zM491 0h-186l-112 179v-179h-161v731h161v-207q9 6 32.5 13t55.5 7q42 0 75.5 -13t57 -37t36 -57.5t12.5 -74.5q0 -32 -8.5 -59t-22.5 -48t-32.5 -36.5
t-38.5 -24.5zM310 353q0 26 -17.5 43t-43.5 17q-27 0 -44 -16.5t-17 -43.5t18 -43t44 -16t43 16.5t17 42.5z" />
    <glyph glyph-name="uacute.alt" horiz-adv-x="490" 
d="M395 708l-82 -140h-150l75 140h157zM460 535v-322q0 -101 -54.5 -160t-160.5 -59q-58 0 -98.5 15.5t-66.5 44t-38 69t-12 90.5v322h161v-323q0 -29 12.5 -47t41.5 -18t41.5 18t12.5 47v323h161z" />
    <glyph glyph-name="ugrave.alt" horiz-adv-x="490" 
d="M255 708l75 -140h-150l-82 140h157zM460 535v-322q0 -101 -54.5 -160t-160.5 -59q-58 0 -98.5 15.5t-66.5 44t-38 69t-12 90.5v322h161v-323q0 -29 12.5 -47t41.5 -18t41.5 18t12.5 47v323h161z" />
    <glyph glyph-name="ucircumflex.alt" horiz-adv-x="490" 
d="M324 710l93 -143h-138l-35 50l-35 -50h-138l93 143h160zM460 535v-322q0 -101 -54.5 -160t-160.5 -59q-58 0 -98.5 15.5t-66.5 44t-38 69t-12 90.5v322h161v-323q0 -29 12.5 -47t41.5 -18t41.5 18t12.5 47v323h161z" />
    <glyph glyph-name="udieresis.alt" horiz-adv-x="490" 
d="M147 562q-35 0 -59 24t-24 59t24 58.5t59 23.5q38 0 62 -23.5t24 -58.5t-25 -59t-61 -24zM340 562q-35 0 -59 24t-24 59t24 58.5t59 23.5q38 0 62 -23.5t24 -58.5t-25 -59t-61 -24zM460 535v-322q0 -101 -54.5 -160t-160.5 -59q-58 0 -98.5 15.5t-66.5 44t-38 69
t-12 90.5v322h161v-323q0 -29 12.5 -47t41.5 -18t41.5 18t12.5 47v323h161z" />
    <glyph glyph-name="ubreve.alt" horiz-adv-x="490" 
d="M245 560q-40 0 -69 13t-47.5 34t-27 48t-8.5 55h117q0 -21 9.5 -33t26.5 -12t26.5 12t9.5 33h116q0 -28 -8.5 -55t-27.5 -48t-48 -34t-69 -13zM460 535v-322q0 -101 -54.5 -160t-160.5 -59q-58 0 -98.5 15.5t-66.5 44t-38 69t-12 90.5v322h161v-323q0 -29 12.5 -47
t41.5 -18t41.5 18t12.5 47v323h161z" />
    <glyph glyph-name="uhungarumlaut.alt" horiz-adv-x="490" 
d="M289 708l-64 -140h-145l57 140h152zM475 708l-69 -140h-143l62 140h150zM460 535v-322q0 -101 -54.5 -160t-160.5 -59q-58 0 -98.5 15.5t-66.5 44t-38 69t-12 90.5v322h161v-323q0 -29 12.5 -47t41.5 -18t41.5 18t12.5 47v323h161z" />
    <glyph glyph-name="umacron.alt" horiz-adv-x="490" 
d="M120 692h250v-116h-250v116zM460 535v-322q0 -101 -54.5 -160t-160.5 -59q-58 0 -98.5 15.5t-66.5 44t-38 69t-12 90.5v322h161v-323q0 -29 12.5 -47t41.5 -18t41.5 18t12.5 47v323h161z" />
    <glyph glyph-name="uogonek.alt" horiz-adv-x="490" 
d="M460 535v-322q0 -69 -26 -119t-77 -76q-17 -10 -26.5 -22t-9.5 -28q0 -17 11.5 -24.5t28.5 -8.5v-110q-50 -3 -86 3t-59 19.5t-34 33t-11 43.5t9.5 42t21.5 31q-92 10 -132 67.5t-40 148.5v322h161v-323q0 -29 12.5 -47t41.5 -18t41.5 18t12.5 47v323h161z" />
    <glyph glyph-name="uring.alt" horiz-adv-x="490" 
d="M131 666q0 24 8.5 44t23.5 34.5t35.5 23t44.5 8.5q53 0 84 -31t31 -77q0 -48 -31 -79t-83 -31q-50 0 -81.5 31t-31.5 77zM203 668q0 -20 12 -32t30 -12q17 0 29 12t12 32q0 18 -11.5 30t-29.5 12q-19 0 -30.5 -12t-11.5 -30zM460 535v-322q0 -101 -54.5 -160t-160.5 -59
q-58 0 -98.5 15.5t-66.5 44t-38 69t-12 90.5v322h161v-323q0 -29 12.5 -47t41.5 -18t41.5 18t12.5 47v323h161z" />
    <glyph glyph-name="utilde.alt" horiz-adv-x="490" 
d="M304 566q-18 0 -31.5 4.5t-24.5 9.5t-20.5 9.5t-18.5 4.5q-23 0 -23 -30h-112q-2 31 5.5 58t22.5 46t37 30t50 11q20 0 33.5 -4.5t23.5 -9.5t18.5 -9.5t18.5 -4.5q21 0 21 30h112q4 -67 -26.5 -106t-85.5 -39zM460 535v-322q0 -101 -54.5 -160t-160.5 -59
q-58 0 -98.5 15.5t-66.5 44t-38 69t-12 90.5v322h161v-323q0 -29 12.5 -47t41.5 -18t41.5 18t12.5 47v323h161z" />
    <glyph glyph-name="wacute.alt" horiz-adv-x="759" 
d="M536 708l-82 -140h-150l75 140h157zM729 535v-329q0 -101 -53 -156.5t-160 -55.5q-45 0 -79 10.5t-59 33.5q-26 -23 -59.5 -33.5t-75.5 -10.5q-58 0 -98.5 14.5t-66 41.5t-37 66.5t-11.5 89.5v329h161v-323q0 -29 12.5 -47t41.5 -18t41.5 18t12.5 47v323h161v-323
q0 -29 13 -47t41 -18q29 0 41.5 18t12.5 47v323h161z" />
    <glyph glyph-name="wcircumflex.alt" horiz-adv-x="759" 
d="M459 710l93 -143h-138l-35 50l-35 -50h-138l93 143h160zM729 535v-329q0 -101 -53 -156.5t-160 -55.5q-45 0 -79 10.5t-59 33.5q-26 -23 -59.5 -33.5t-75.5 -10.5q-58 0 -98.5 14.5t-66 41.5t-37 66.5t-11.5 89.5v329h161v-323q0 -29 12.5 -47t41.5 -18t41.5 18t12.5 47
v323h161v-323q0 -29 13 -47t41 -18q29 0 41.5 18t12.5 47v323h161z" />
    <glyph glyph-name="wdieresis.alt" horiz-adv-x="759" 
d="M281 562q-35 0 -59 24t-24 59t24 58.5t59 23.5q38 0 62 -23.5t24 -58.5t-25 -59t-61 -24zM474 562q-35 0 -59 24t-24 59t24 58.5t59 23.5q38 0 62 -23.5t24 -58.5t-25 -59t-61 -24zM729 535v-329q0 -101 -53 -156.5t-160 -55.5q-45 0 -79 10.5t-59 33.5
q-26 -23 -59.5 -33.5t-75.5 -10.5q-58 0 -98.5 14.5t-66 41.5t-37 66.5t-11.5 89.5v329h161v-323q0 -29 12.5 -47t41.5 -18t41.5 18t12.5 47v323h161v-323q0 -29 13 -47t41 -18q29 0 41.5 18t12.5 47v323h161z" />
    <glyph glyph-name="wgrave.alt" horiz-adv-x="759" 
d="M379 708l75 -140h-150l-82 140h157zM729 535v-329q0 -101 -53 -156.5t-160 -55.5q-45 0 -79 10.5t-59 33.5q-26 -23 -59.5 -33.5t-75.5 -10.5q-58 0 -98.5 14.5t-66 41.5t-37 66.5t-11.5 89.5v329h161v-323q0 -29 12.5 -47t41.5 -18t41.5 18t12.5 47v323h161v-323
q0 -29 13 -47t41 -18q29 0 41.5 18t12.5 47v323h161z" />
    <glyph glyph-name="yacute.alt" horiz-adv-x="495" 
d="M398 708l-82 -140h-150l75 140h157zM90 -21q17 -8 48 -17t76 -9q51 0 73 19.5t22 40.5v9q-9 -9 -32.5 -20.5t-61.5 -11.5q-52 0 -87.5 15.5t-57 42t-31 61.5t-9.5 74v352h161v-332q0 -29 12.5 -47t41.5 -18q28 0 42.5 18t14.5 47v332h161v-498q0 -50 -15 -91t-45.5 -70
t-76.5 -44.5t-108 -15.5q-57 0 -101.5 12t-70.5 25z" />
    <glyph glyph-name="ydieresis.alt" horiz-adv-x="495" 
d="M147 562q-35 0 -59 24t-24 59t24 58.5t59 23.5q38 0 62 -23.5t24 -58.5t-25 -59t-61 -24zM340 562q-35 0 -59 24t-24 59t24 58.5t59 23.5q38 0 62 -23.5t24 -58.5t-25 -59t-61 -24zM90 -21q17 -8 48 -17t76 -9q51 0 73 19.5t22 40.5v9q-9 -9 -32.5 -20.5t-61.5 -11.5
q-52 0 -87.5 15.5t-57 42t-31 61.5t-9.5 74v352h161v-332q0 -29 12.5 -47t41.5 -18q28 0 42.5 18t14.5 47v332h161v-498q0 -50 -15 -91t-45.5 -70t-76.5 -44.5t-108 -15.5q-57 0 -101.5 12t-70.5 25z" />
    <glyph glyph-name="ycircumflex.alt" horiz-adv-x="495" 
d="M327 710l93 -143h-138l-35 50l-35 -50h-138l93 143h160zM90 -21q17 -8 48 -17t76 -9q51 0 73 19.5t22 40.5v9q-9 -9 -32.5 -20.5t-61.5 -11.5q-52 0 -87.5 15.5t-57 42t-31 61.5t-9.5 74v352h161v-332q0 -29 12.5 -47t41.5 -18q28 0 42.5 18t14.5 47v332h161v-498
q0 -50 -15 -91t-45.5 -70t-76.5 -44.5t-108 -15.5q-57 0 -101.5 12t-70.5 25z" />
    <glyph glyph-name="ygrave.alt" horiz-adv-x="495" 
d="M256 708l75 -140h-150l-82 140h157zM90 -21q17 -8 48 -17t76 -9q51 0 73 19.5t22 40.5v9q-9 -9 -32.5 -20.5t-61.5 -11.5q-52 0 -87.5 15.5t-57 42t-31 61.5t-9.5 74v352h161v-332q0 -29 12.5 -47t41.5 -18q28 0 42.5 18t14.5 47v332h161v-498q0 -50 -15 -91t-45.5 -70
t-76.5 -44.5t-108 -15.5q-57 0 -101.5 12t-70.5 25z" />
    <glyph glyph-name="f.short" horiz-adv-x="297" 
d="M221 535h62v-135h-62v-400h-161v400h-47v135h47v18q0 40 9 73.5t30 56.5t56 36t86 13h18t24 -1v-133h-18q-27 -1 -35.5 -15.5t-8.5 -32.5v-15z" />
    <glyph glyph-name="f_f.short" horiz-adv-x="560" 
d="M221 535h102v18q0 40 9 73.5t30 56.5t56 36t86 13h18t24 -1v-133h-18q-27 -1 -35.5 -15.5t-8.5 -32.5v-15h62v-135h-62v-400h-161v400h-102v-400h-161v400h-47v135h47v18q0 40 9 73.5t30 56.5t56 36t86 13h21t28 -1v-133h-25q-27 0 -35.5 -15.5t-8.5 -32.5v-15z" />
    <glyph glyph-name="quotedbl" unicode="&#x22;" horiz-adv-x="402" 
d="M176 692v-273h-144v273h144zM370 692v-273h-144v273h144z" />
    <glyph glyph-name="exclam" unicode="!" horiz-adv-x="252" 
d="M207 202h-162v490l162 -1v-489zM127 -11q-20 0 -38 7.5t-31.5 21t-21 31t-7.5 37.5q0 41 28.5 69t69.5 28q40 0 68 -28t28 -69q0 -20 -7.5 -37.5t-20.5 -31t-30.5 -21t-37.5 -7.5z" />
    </font>
</defs>
</svg>
